<?xml version="1.0" encoding="UTF-8" standalone="no"?>
<!-- Created with Inkscape (http://www.inkscape.org/) -->

<svg
   xmlns:osb="http://www.openswatchbook.org/uri/2009/osb"
   xmlns:dc="http://purl.org/dc/elements/1.1/"
   xmlns:cc="http://creativecommons.org/ns#"
   xmlns:rdf="http://www.w3.org/1999/02/22-rdf-syntax-ns#"
   xmlns:svg="http://www.w3.org/2000/svg"
   xmlns="http://www.w3.org/2000/svg"
   xmlns:xlink="http://www.w3.org/1999/xlink"
   xmlns:sodipodi="http://sodipodi.sourceforge.net/DTD/sodipodi-0.dtd"
   xmlns:inkscape="http://www.inkscape.org/namespaces/inkscape"
   width="48"
   height="48"
   id="svg2"
   version="1.1"
   inkscape:version="0.92.4 (unknown)"
   sodipodi:docname="DevStation.svg">
  <defs
     id="defs4">
    <linearGradient
       id="linearGradient6012"
       osb:paint="solid">
      <stop
         style="stop-color:#000000;stop-opacity:1;"
         offset="0"
         id="stop6010" />
    </linearGradient>
    <linearGradient
       inkscape:collect="always"
       xlink:href="#linearGradient6012"
       id="linearGradient6014"
       x1="27.68734"
       y1="727.30359"
       x2="600.31873"
       y2="727.30359"
       gradientUnits="userSpaceOnUse"
       gradientTransform="matrix(0.07001027,0,0,0.080617,2.0626977,969.63816)" />
    <linearGradient
       inkscape:collect="always"
       xlink:href="#linearGradient6012"
       id="linearGradient895"
       gradientUnits="userSpaceOnUse"
       gradientTransform="matrix(0.07001027,0,0,0.080617,2.0626977,969.63816)"
       x1="27.68734"
       y1="727.30359"
       x2="600.31873"
       y2="727.30359" />
  </defs>
  <sodipodi:namedview
     id="base"
     pagecolor="#000000"
     bordercolor="#666666"
     borderopacity="1.0"
     inkscape:pageopacity="0"
     inkscape:pageshadow="2"
     inkscape:zoom="30.916667"
     inkscape:cx="23.838275"
     inkscape:cy="24"
     inkscape:document-units="px"
     inkscape:current-layer="g937"
     showgrid="false"
     inkscape:window-width="2959"
     inkscape:window-height="1707"
     inkscape:window-x="352"
     inkscape:window-y="265"
     inkscape:window-maximized="0"
     inkscape:object-paths="false"
     inkscape:pagecheckerboard="true"
     inkscape:showpageshadow="true" />
  <metadata
     id="metadata7">
    <rdf:RDF>
      <cc:Work
         rdf:about="">
        <dc:format>image/svg+xml</dc:format>
        <dc:type
           rdf:resource="http://purl.org/dc/dcmitype/StillImage" />
        <dc:title></dc:title>
      </cc:Work>
    </rdf:RDF>
  </metadata>
  <g
     inkscape:label="Layer 1"
     inkscape:groupmode="layer"
     id="layer1"
     transform="translate(0,-1004.3622)">
    <g
       id="g937">
      <path
         inkscape:connector-curvature="0"
         id="path4851"
         d="m 21.230054,1033.1524 c 2.4556,-0.1771 4.911201,-0.3543 7.366801,-0.5314 0.126065,2.1144 1.264174,4.5459 3.595537,4.8392 1.809345,0.4002 4.067828,-0.5963 4.235826,-2.6196 0.253862,-1.9909 -1.720562,-3.1647 -3.39163,-3.5715 -3.580684,-0.9997 -7.753539,-1.975 -9.832369,-5.3858 -2.26699,-3.8722 -0.712534,-9.5221 3.452658,-11.3992 3.014592,-1.3419 6.484695,-1.3521 9.687583,-0.7922 2.80585,0.4816 5.328812,2.4656 6.151801,5.2377 0.05297,0.8856 1.440607,3.1676 -0.05433,3.0709 -2.199303,0.1484 -4.398607,0.2967 -6.59791,0.445 -0.116802,-1.9857 -1.641525,-3.9413 -3.794505,-3.7199 -1.694056,-0.2812 -3.472584,1.6491 -2.400413,3.2192 1.246974,1.3556 3.297388,1.2904 4.927927,1.8995 3.243295,0.9292 6.948616,2.1553 8.507024,5.435 2.296124,4.7572 0.0067,11.3475 -5.121731,13.1117 -3.366655,1.1283 -7.102703,1.0256 -10.502109,0.091 -4.053218,-1.1014 -5.981753,-5.4686 -6.230157,-9.3291 z m -10.10773,-9.7055 c 1.974173,0.1289 3.948272,0.1861 5.922136,0.019 1.114659,0.039 2.229471,-0.074 3.346022,0.01 0.835208,1.1709 -1.386526,1.3076 -2.226514,1.1109 -0.974391,-0.1492 -1.742947,0.4434 -2.672103,0.5679 -0.659764,-0.104 -1.239158,-0.2678 -1.663297,0.3112 -0.433514,-0.3573 -0.632979,-0.094 -1.33244,0.101 -0.396403,0.6846 -1.474694,0.052 -2.058324,0.5051 -0.5230377,-0.4213 -1.4004734,0.2271 -1.2995042,0.8799 -0.11215,1.2799 -0.1104431,2.56 -0.037971,3.839 -0.1953356,1.7816 -0.1095124,3.5765 0.059695,5.3515 -0.1128458,0.8934 0.690309,1.5861 0.6060847,2.4849 0.4728087,0.7589 0.7892967,1.8337 1.7943607,1.8703 0.411347,0.4355 0.77271,0.9492 1.466176,0.9077 0.712134,0.2711 1.414267,0.1268 2.114326,-0.1037 0.597783,-0.1523 1.20037,-0.4223 1.776994,-0.056 0.612444,-0.2256 1.172902,-0.7827 1.817954,-0.8004 1.343639,0.1786 0.423395,1.7195 -0.417859,1.6125 -0.479941,0.7468 -1.433601,0.4646 -2.144998,0.7344 -0.683279,0.4627 -1.359763,-0.2758 -2.204264,0.37 -0.652504,0.06 -1.317047,-0.1967 -1.949693,-0.2279 -0.753825,-0.5405 -1.71643,-0.8719 -2.0936838,-1.7896 -0.4409192,-0.6895 -1.0407998,-1.2669 -1.1805619,-2.1097 -0.5092378,-1.2576 -0.7621618,-2.6086 -0.8867146,-3.9457 0.4426633,-0.6476 -0.2182741,-1.0759 -0.1138544,-1.6282 0.3014139,-0.5249 -0.4616502,-1.2582 0.293273,-1.551 -0.09923,-0.4107 0.039148,-1.0454 -0.1113331,-1.5504 -0.2218706,-0.5753 0.1424538,-1.2014 -0.08962,-1.7871 0.4480731,-0.3939 0.091123,-1.1941 0.2053615,-1.7564 0.1127471,-1.1197 -0.8390832,-0.8925 -1.5731868,-0.8886 -0.6575226,0.2704 -0.9823777,-0.8034 -1.7239363,-0.5535 -0.3602449,-0.5778 -0.3408613,-1.4334 -0.4696847,-1.9535 0.3378172,-0.219 1.158304,-0.1602 1.6600732,-0.048 0.7432359,0.2565 1.5593318,0.066 2.3348774,0.1249 0.059041,-1.0894 0.2930101,-2.2434 -0.2281327,-3.2569 0.9535766,-0.5811 -0.2428101,-1.445 0.1411319,-2.3393 0.164249,-0.6173 -0.078501,-1.1459 -0.3266685,-1.647 -0.2175604,-0.5485 -0.5029105,-1.1339 -0.1102121,-1.932 0.3001897,-1.6302 2.2285238,-0.2124 1.8274655,0.8858 0.326608,1.0063 0.015587,1.9799 0.1751249,3.0071 -0.3452101,0.5197 -0.4854113,1.0614 -0.2183956,1.6707 0.2954042,0.7394 -0.3565204,1.6016 0.086061,2.2729 -0.5291195,0.5059 0.011742,1.1548 0.091265,1.7421 0.5700201,0.062 1.0247051,0.01 1.4145701,-0.4532 z"
         style="font-style:normal;font-variant:normal;font-weight:900;font-stretch:normal;font-size:499.99996948px;line-height:125%;font-family:'Arial Black';-inkscape-font-specification:'Arial Black, Heavy';text-align:start;letter-spacing:0px;word-spacing:0px;writing-mode:lr-tb;text-anchor:start;opacity:1;fill:#f2b700;fill-opacity:1;stroke:url(#linearGradient895);stroke-width:0.5669291;stroke-miterlimit:4;stroke-dasharray:none;stroke-opacity:1" />
    </g>
  </g>
</svg>
