/* XPM */
static char *adobereader___x__[] = {
/* columns rows colors chars-per-pixel */
"32 32 123 2",
"   c #4B7202010143",
".  c #528604E90270",
"X  c #5DDF032901D7",
"o  c #63B503D00268",
"O  c #6BFA03EC02CF",
"+  c #73D60491034B",
"@  c #7B8F042A033E",
"#  c #77E809460946",
"$  c #7CD108870887",
"%  c #840004E60422",
"&  c #8BBF05050440",
"*  c #8E1C0BEC0AFA",
"=  c #948C057D04DE",
"-  c #9C210681061E",
";  c #9F2A07AB06C1",
":  c #9DC20B600B61",
">  c #86E7122D107C",
",  c #8AEA13DB12CD",
"<  c #86C61CB21BD6",
"1  c #93BE11831183",
"2  c #97B91B551AC5",
"3  c #9B581B691B69",
"4  c #A48206D306CC",
"5  c #AC2B06F206F2",
"6  c #A18F07A90703",
"7  c #A4960B070B07",
"8  c #AE4607C307C3",
"9  c #B60004FB04FB",
"0  c #BD08054F054F",
"q  c #B41307FF07FF",
"w  c #BC55080F080F",
"e  c #A81E1D501D50",
"r  c #AA301DB91DB9",
"t  c #B1D91EAF1EAF",
"y  c #9D5B25542554",
"u  c #9AD727AC26CE",
"i  c #971028ED28ED",
"p  c #978A36DA35BF",
"a  c #9AC930953095",
"s  c #9BC9396937EE",
"d  c #A55222B722B7",
"f  c #A67528972897",
"g  c #B4B922A622A6",
"h  c #A2F83594353D",
"j  c #BE1E37B537B5",
"k  c #B66239083908",
"l  c #C40504DE04DE",
"z  c #CA1907310731",
"x  c #C45308B508B5",
"c  c #CC0A099A099A",
"v  c #D4080A320A32",
"b  c #DC940A550A55",
"n  c #CE87142E142E",
"m  c #D6EE16D616D6",
"M  c #DF0C13921392",
"N  c #DB7E17991799",
"B  c #E4C00B3B0B3B",
"V  c #EC0E0BE70BE7",
"C  c #F4690C0D0C0D",
"Z  c #FAF40C710C71",
"A  c #CE1924812481",
"S  c #DD9D1FED1FED",
"D  c #C49034F234F2",
"F  c #C87C334E334E",
"G  c #CD243C2E3C2E",
"H  c #D9C73E7F3E7F",
"J  c #A251400F3E7A",
"K  c #9EC04FBB4FBB",
"L  c #A25744E6442F",
"P  c #AF0F43F34346",
"I  c #AD9749844984",
"U  c #B21643E743E7",
"Y  c #B5E54F5B4F5B",
"T  c #A9A050F44FA3",
"R  c #A6AB529B51C2",
"E  c #ADE154345434",
"W  c #AA91591557D5",
"Q  c #A63E5C055C05",
"!  c #B39152D85283",
"~  c #B4625BF35B29",
"^  c #AF9962916291",
"/  c #B637657764A1",
"(  c #BBDD63B263B2",
")  c #B25869046904",
"_  c #BE58743173A6",
"`  c #B9307B0E7B0E",
"'  c #C87B43154315",
"]  c #DDF444754475",
"[  c #D7C15D215D21",
"{  c #DC565C235C23",
"}  c #C0A664D064D0",
"|  c #CA576D5D6D5D",
" . c #C31270927093",
".. c #C30A7C687C68",
"X. c #CB727A5D7A5D",
"o. c #D3C372D472D4",
"O. c #E7E4708A708A",
"+. c #C5198E3E8E3E",
"@. c #D7718FD88FD8",
"#. c #DA738EB58EB5",
"$. c #C816939A939A",
"%. c #CD83946F9421",
"&. c #D2DE92FD92F4",
"*. c #D88E91009100",
"=. c #DFE39E799E79",
"-. c #ED7B83D983D9",
";. c #E56589538953",
":. c #E8BF9DD89DD8",
">. c #D322A1C3A1A9",
",. c #D8C8A208A202",
"<. c #DD73AA93AA94",
"1. c #DC04B2DBB2B5",
"2. c #E3E1AD45AD45",
"3. c #EE30A86DA86D",
"4. c #E1CBB0C2B0C2",
"5. c #E36ABC69BC69",
"6. c #EA2FBE0BBE0B",
"7. c #F2EFB593B593",
"8. c #E96CCDCFCD9B",
"9. c #F3E4D501D501",
"0. c #F446DF1DDF05",
"q. c #F9EAEB46EB46",
"w. c None",
/* pixels */
"w.B B V V V V V V B B B B b b b v v c c x x x w w q q q 8 5 4 w.",
"w.B V C C C Z C C C C V B B B b b v v c c c x x x w q q 8 8 4 w.",
"w.B C C Z Z Z Z C C V V V B B b b v v v c c x x w q q q 8 8 4 w.",
"w.V C Z Z Z Z Z C C V V B B b b b v v c c x x w w w q q 8 5 4 w.",
"w.V C C C Z C C C V V V B b M S v v c c c z x w w q q 8 8 5 4 w.",
"w.B V V C V C V V V B B B b -.O.] c c z x x x w w q 8 8 5 4 ; w.",
"w.B V V V B V B B B B b b N 7.] ] c c z x w w q q q 8 5 4 4 - w.",
"w.b B B B B B B b b b b v m 7.H n c z w w w w q q 8 5 5 4 4 - w.",
"w.v B b B b b b b v v v v v 3.{ A x x 0 w w q 8 8 5 4 4 4 ; = w.",
"w.c v b v v v v v v v v c z ;.:.G 0 w w q q 8 5 5 4 4 4 : - = w.",
"w.c v v c v v c c c c z x l { 0.G 0 w q 8 8 5 5 4 4 4 - - - = w.",
"w.x c c c c c z z x x x x 0 F 9.D 9 q 8 8 5 5 4 4 ; - - = = * w.",
"w.w z z x x x x x w w w w 9 ' q.o.5 5 5 5 4 6 4 ; - : = = = & w.",
"w.w w w w w w w w w w q q q #.=.6.g 5 4 4 6 - - - = = = = * & w.",
"w.q q w w q q q q q 8 8 8 j 2.t *.@.6 6 - - - = = = = = & * % w.",
"w.8 q q q 8 q q 8 8 8 5 5 *.| 6 r <.X.: = = = = = & & & & % % w.",
"w.5 8 8 5 5 5 5 5 4 4 4 k 4.r - - d <.,.J U ! ~ ! h * % & % @ w.",
"w.4 4 4 4 4 4 4 6 6 6 6 &.} - f Y  .&.1.8.0.&./ ~ _ J % % @ $ w.",
"w.: 7 - - 4 - - - - = U 5.! ( ( Y h 2 * y _ >.$.) T L > % @ @ w.",
"w.= = - - = - = = = 3 ,._ d 1 & % & & % % % , s W T p < @ # + w.",
"w.& = = = = & & 3 I ..%.& & % % % % % % @ % @ @ @ @ + + + + + w.",
"w.& & * & & & h ..E 1.a % % % % % % @ @ @ @ @ @ @ # + # + + O w.",
"w.% % & & % i >.L >.^ @ @ @ @ @ @ @ @ @ @ + + + + + # # # O O w.",
"w.@ % @ @ @ ) +.$.` $ @ + @ @ @ + + + + + + + + O + O O O O O w.",
"w.# @ + @ + < Q K # @ + + + @ O O # # O O O O # O O O O O O o w.",
"w.+ # + + + + O O O O O O O O O O O o O O O o O O O O o o o o w.",
"w.O O O O O O O O O o o o o O o o o o o o o o o o o o o o o X w.",
"w.o O o o o o o o o o o o o o X o o o o o o o o o X o o o o X w.",
"w.o o o o o X X X X X X X X X X . . X X . . o . o . o o o o . w.",
"w.                              .     . . . . . . . . . . . . w.",
"w.w.w.w.w.w.w.w.w.w.w.w.w.w.w.w.w.w.w.w.w.w.w.w.w.w.w.w.w.w.w.w.",
"w.w.w.w.w.w.w.w.w.w.w.w.w.w.w.w.w.w.w.w.w.w.w.w.w.w.w.w.w.w.w.w."
};
