/* XPM */
static char *taskbarbg[] = {
/* columns rows colors chars-per-pixel */
"2 27 22 1 ",
"  c #0235DB",
". c #0153E1",
"X c #0553E0",
"o c #0155E3",
"O c #0151E6",
"+ c #0153E7",
"@ c #0054EB",
"# c #0055EE",
"$ c #0258E8",
"% c #0159F3",
"& c #025CF6",
"* c #035FFB",
"= c #0659FD",
"- c #0361EF",
"; c #006FF7",
": c #0466FF",
"> c #0168FF",
", c #046CFF",
"< c #0270F7",
"1 c #0475FD",
"2 c #3494FE",
"3 c #49A0FE",
/* pixels */
"33",
"22",
"11",
"--",
"$$",
"oo",
"..",
"XX",
"OO",
"OO",
"OO",
"@O",
"O+",
"++",
"@@",
"##",
"%%",
"%%",
"&%",
":*",
"::",
",,",
";<",
";;",
":>",
"==",
"  "
};
