/* XPM */
static char *taskbuttonactive[] = {
/* columns rows colors chars-per-pixel */
"2 21 17 1 ",
"  c #001BC6",
". c #001BC8",
"X c #001ACE",
"o c #001DCE",
"O c #001BD1",
"+ c #001BD5",
"@ c #001CDA",
"# c #0021DA",
"$ c #001DE2",
"% c #001FE8",
"& c #0021ED",
"* c #0032E8",
"= c #0024F7",
"- c #002FF3",
"; c #0024FF",
": c #002FFA",
"> c #002AFE",
/* pixels */
"--",
"##",
"oo",
"..",
"  ",
"XX",
"XX",
"XX",
"OO",
"OO",
"++",
"@@",
"$$",
"%%",
"&&",
"==",
">>",
"::",
"**",
"::",
";;"
};
