/* XPM */
static char *taskbuttonactive[] = {
/* columns rows colors chars-per-pixel */
"2 20 16 1 ",
"  c #001BC7",
". c #001ACE",
"X c #001DCD",
"o c #001BD1",
"O c #001BD7",
"+ c #001DDF",
"@ c #0020D9",
"# c #001EE6",
"$ c #0020EB",
"% c #0032EA",
"& c #0023F4",
"* c #002EF2",
"= c #0024FF",
"- c #002EF8",
"; c #0029FD",
": c #002EFC",
/* pixels */
"**",
"@@",
"XX",
"  ",
"  ",
"..",
"..",
".o",
"oo",
"oo",
"OO",
"+#",
"##",
"#$",
"&&",
";;",
"::",
"%%",
"--",
"=="
};
