/* XPM */
static char * zarfy_16x16_xpm[] = {
"16 16 137 2",
"  	c None",
". 	c #A0A0A0",
"+ 	c #C0C1BC",
"@ 	c #C1C2BC",
"# 	c #C2C3BB",
"$ 	c #C0C1BB",
"% 	c #C0C1B9",
"& 	c #BDBDB7",
"* 	c #BCBDB5",
"= 	c #B9BAB2",
"- 	c #B7B8B2",
"; 	c #ACB2B5",
"> 	c #ABADA8",
", 	c #646DA0",
"' 	c #515E90",
") 	c #505E90",
"! 	c #525F91",
"~ 	c #576198",
"{ 	c #E8EAE3",
"] 	c #6D6D6E",
"^ 	c #BFBFB9",
"/ 	c #515F92",
"( 	c #5B708F",
"_ 	c #5E7290",
": 	c #46578D",
"< 	c #E7E8E0",
"[ 	c #7E807C",
"} 	c #C4C5BF",
"| 	c #47578E",
"1 	c #536C8E",
"2 	c #526B8E",
"3 	c #506A8E",
"4 	c #556D8F",
"5 	c #536C8F",
"6 	c #516B8F",
"7 	c #415C81",
"8 	c #2B4B76",
"9 	c #293D7A",
"0 	c #E5E7DE",
"a 	c #8F8F8E",
"b 	c #C3C4BE",
"c 	c #40548C",
"d 	c #476692",
"e 	c #466590",
"f 	c #4D6991",
"g 	c #486690",
"h 	c #4B6891",
"i 	c #365785",
"j 	c #1D4377",
"k 	c #1E4375",
"l 	c #204578",
"m 	c #203678",
"n 	c #E3E3DC",
"o 	c #C8CAC1",
"p 	c #36478F",
"q 	c #416594",
"r 	c #426494",
"s 	c #395C8C",
"t 	c #244E85",
"u 	c #264F85",
"v 	c #285188",
"w 	c #264E84",
"x 	c #275087",
"y 	c #1E3C84",
"z 	c #EAEBE1",
"A 	c #858784",
"B 	c #CFD0C8",
"C 	c #2A4890",
"D 	c #3B6298",
"E 	c #386198",
"F 	c #2F5B95",
"G 	c #2C5993",
"H 	c #2D5994",
"I 	c #2B568F",
"J 	c #2B5790",
"K 	c #22428B",
"L 	c #D8D9D4",
"M 	c #8D8E8C",
"N 	c #CECEC8",
"O 	c #244894",
"P 	c #3265A5",
"Q 	c #3162A0",
"R 	c #3262A0",
"S 	c #32629F",
"T 	c #3262A1",
"U 	c #245098",
"V 	c #C4C5CA",
"W 	c #929390",
"X 	c #D1D0D0",
"Y 	c #2F4896",
"Z 	c #3A579D",
"` 	c #3A589D",
" .	c #324E99",
"..	c #B6B8C0",
"+.	c #979896",
"@.	c #6F6F6F",
"#.	c #D8DAD7",
"$.	c #E3E4DB",
"%.	c #E3E5DB",
"&.	c #E3E4DC",
"*.	c #E5E6DC",
"=.	c #E0E0D8",
"-.	c #E4E5DD",
";.	c #E4E6DD",
">.	c #E3E4DD",
",.	c #E5E6DD",
"'.	c #DDDFDB",
").	c #949593",
"!.	c #696A69",
"~.	c #707070",
"{.	c #6F6F70",
"].	c #5D5E5D",
"^.	c #5B5C5A",
"/.	c #585A57",
"(.	c #535452",
"_.	c #515251",
":.	c #555454",
"<.	c #4D4F4D",
"[.	c #4D4E4D",
"}.	c #515150",
"|.	c #939591",
"1.	c #7A7C78",
"2.	c #656662",
"3.	c #656663",
"4.	c #8A8D88",
"5.	c #797B78",
"6.	c #373836",
"7.	c #7B7D79",
"8.	c #B0B2AF",
"9.	c #C2C4C1",
"0.	c #BEBFBC",
"a.	c #A6A8A4",
"b.	c #5C5C5B",
"c.	c #343632",
"d.	c #474746",
"e.	c #454744",
"f.	c #272725",
"                                ",
"  . + @ # $ @ % & * = - ; >     ",
"  - , ' ) ) ) ) ) ) ! ' ~ { ]   ",
"  ^ / ( ( ( ( ( ( ( ( _ : < [   ",
"  } | 1 2 3 4 3 5 6 7 8 9 0 a   ",
"  b c d e f g h i j k l m n     ",
"  o p q r r s t u v w x y z A   ",
"  B C D E F G H G I H J K L M   ",
"  N O P Q R S T R R R R U V W   ",
"  X Y Z Z Z Z ` Z Z Z Z  ...+.  ",
"@.#.$.%.&.*.&.=.$.-.;.>.,.'.).  ",
"  !.~.{.  ].^.^./.(._.:.<.[.    ",
"        }.|.1.2.3.4.5.          ",
"        6.7.8.9.0.a.b.          ",
"            c.d.e.f.            ",
"                                "};
