/* XPM */
static char * titleIP_xpm[] = {
"18 17 46 1",
" 	c None",
".	c #868686",
"+	c #4E4E4E",
"@	c #9A9A9A",
"#	c #575757",
"$	c #484848",
"%	c #AEAEAE",
"&	c #606060",
"*	c #515151",
"=	c #4D4D4D",
"-	c #C2C2C2",
";	c #696969",
">	c #5C5C5C",
",	c #D6D6D6",
"'	c #727272",
")	c #707070",
"!	c #6B6B6B",
"~	c #EAEAEA",
"{	c #7B7B7B",
"]	c #808080",
"^	c #7A7A7A",
"/	c #FFFFFF",
"(	c #848484",
"_	c #8E8E8E",
":	c #898989",
"<	c #9B9B9B",
"[	c #8C8C8C",
"}	c #A9A9A9",
"|	c #8F8F8F",
"1	c #B7B7B7",
"2	c #C5C5C5",
"3	c #D2D2D2",
"4	c #636363",
"5	c #565656",
"6	c #464646",
"7	c #A7A7A7",
"8	c #494949",
"9	c #5E5E5E",
"0	c #3D3D3D",
"a	c #7F7F7F",
"b	c #404040",
"c	c #4A4A4A",
"d	c #343434",
"e	c #969696",
"f	c #363636",
"g	c #2B2B2B",
"...+..............",
"@@@#@$$$$$$$$$$$$$",
"%%%&%*============",
"---;-&>>>>>>>>>>>>",
",,,',)!!!!!!!!!!!!",
"~~~{~]^^^^^^^^^^^^",
"///(/_::::::::::::",
"~~~{~<[[[[[[[[[[[[",
",,,',}||||||||||||",
"---;-1]]]]]]]]]]]]",
"%%%&%2))))))))))))",
"@@@#@3444444444444",
"...+.2555555555555",
"'''6'7888888888888",
"99909abbbbbbbbbbbb",
"cccdc#!(e<<<<<<<<<",
"fffgffffffffffffff"};
