/* XPM */
static char * titleIM_xpm[] = {
"18 17 46 1",
" 	c None",
".	c #868686",
"+	c #4E4E4E",
"@	c #484848",
"#	c #9A9A9A",
"$	c #575757",
"%	c #4D4D4D",
"&	c #515151",
"*	c #AEAEAE",
"=	c #606060",
"-	c #5C5C5C",
";	c #C2C2C2",
">	c #696969",
",	c #6B6B6B",
"'	c #707070",
")	c #D6D6D6",
"!	c #727272",
"~	c #7A7A7A",
"{	c #808080",
"]	c #EAEAEA",
"^	c #7B7B7B",
"/	c #898989",
"(	c #8E8E8E",
"_	c #FFFFFF",
":	c #848484",
"<	c #8C8C8C",
"[	c #9B9B9B",
"}	c #8F8F8F",
"|	c #A9A9A9",
"1	c #B7B7B7",
"2	c #C5C5C5",
"3	c #636363",
"4	c #D2D2D2",
"5	c #565656",
"6	c #494949",
"7	c #A7A7A7",
"8	c #464646",
"9	c #404040",
"0	c #7F7F7F",
"a	c #5E5E5E",
"b	c #3D3D3D",
"c	c #969696",
"d	c #4A4A4A",
"e	c #343434",
"f	c #363636",
"g	c #2B2B2B",
"..............+...",
"@@@@@@@@@@@@@#$###",
"%%%%%%%%%%%%&*=***",
"------------=;>;;;",
",,,,,,,,,,,,')!)))",
"~~~~~~~~~~~~{]^]]]",
"////////////(_:___",
"<<<<<<<<<<<<[]^]]]",
"}}}}}}}}}}}}|)!)))",
"{{{{{{{{{{{{1;>;;;",
"''''''''''''2*=***",
"3333333333334#$###",
"5555555555552.+...",
"6666666666667!8!!!",
"9999999999990abaaa",
"[[[[[[[[[c:,$deddd",
"ffffffffffffffgfff"};
