/* XPM */
static char *excel_32x32[] = {
/* columns rows colors chars-per-pixel */
"32 32 4 1",
"  c #808080",
". c #008000",
"X c white",
"o c none",
/* pixels */
"oooooooooooooooooooooooooooooooo",
"oooooooooooooooooooooooooooooooo",
"oo. . . . . . . . . . . . . . oo",
"oo . . . . . . . . . . . . . .oo",
"oo. . . . . . . . . . . . . . oo",
"oo . XXXXXXXXXXXXXXXXXXXXXX. .oo",
"oo. .XXXXXXXXXXXXXXXXXXXXXX . oo",
"oo . XXXXXXXXXXXXXXXXXXXXXX. .oo",
"oo. .X . . . XXXXX . . . XX . oo",
"oo . X.X. . . XXX . . . .XX. .oo",
"oo. .XX.X. . . X . . . .XXX . oo",
"oo . XXX.X. . . . . . .XXXX. .oo",
"oo. .XXXX.X. . . . . .XXXXX . oo",
"oo . XXXXX.X. . . . .XXXXXX. .oo",
"oo. .XXXXXX.X. . . .XXXXXXX . oo",
"oo . XXXXXX .X. . . XXXXXXX. .oo",
"oo. .XXXXX . .X. . . . . XX . oo",
"oo . XXXX . . .X. . . . .XX. .oo",
"oo. .XXX . . . .X. . . .XXX . oo",
"oo . XX . . . . .X. . . XXX. .oo",
"oo. .X . . . . . .X. . . XX . oo",
"oo . X. . . . . . . . . . X. .oo",
"oo. .XXXXXXXXXXXXXX. . . .X . oo",
"oo . XXXXXXXXXXXXXXXXXXXXXX. .oo",
"oo. .XXXXXXXXXXXXXXXXXXXXXX . oo",
"oo . XXXXXXXXXXXXXXXXXXXXXX. .oo",
"oo. .XXXXXXXXXXXXXXXXXXXXXX . oo",
"oo . . . . . . . . . . . . . .oo",
"oo. . . . . . . . . . . . . . oo",
"oo . . . . . . . . . . . . . .oo",
"oooooooooooooooooooooooooooooooo",
"oooooooooooooooooooooooooooooooo"
};
