/* XPM */
static char *folder-win2k_16x16[] = {
"16 16 15 1",
"  c #242425",
". c #000083",
"X c #622FFD",
"o c #840000",
"O c #FF0103",
"+ c #848600",
"@ c #CDCF62",
"# c #FDFF30",
"$ c #838583",
"% c #FECE9C",
"& c #FEFE9B",
"* c #C5C7C5",
"= c none",
"; c #FEFEFE",
": c #259E64",
"==+++++ ========",
"=+;&&&&+ =======",
"+@@@@@@@++++++==",
"+;&&&%&%&%&%&@ =",
"+;&&%@@@@@@@@@ =",
"+;&%$$$$$$$$$$$$",
"+;&&$.......... ",
"+;&%$.......... ",
"+;%&$********** ",
"+;&%$*;;;;;;;;* ",
"+;%&$*;#o;;X;;* ",
"+@@@$*oOo;::X;* ",
"=   $*;o;;;::;* ",
"====$*;;;;;;;;* ",
"====$********** ",
"====            "
};
