/* XPM */
static char *notepad_16x16[] = {
"16 16 6 1",
"  c black",
". c #008383",
"X c #00FEFE",
"o c none",
"+ c gray80",
"# c gray50",
"ooooo         oo",
"oooo #..#..#.  o",
"ooo XXXXXXXXX + ",
"ooo.XX.....X. + ",
"oo XX.....XX ++ ",
"oo.XXXXXXXX. ++ ",
"o XXXXXXXXX +++ ",
"o.XXXXXXXX. +++ ",
" XXXXXXXXX ++++ ",
".XXXXXXXX. ++++ ",
"          +++++ ",
"oooo ++++++++++ ",
"oooo ++++++++++ ",
"oooo ++++++++++ ",
"oooo ++++++++++ ",
"ooooo          o"
};
