/* XPM */
static char *programs-32_16x16[] = {
/* columns rows colors chars-per-pixel */
"16 16 32 1",
"  c black",
". c #013499",
"X c #0167CC",
"o c #0169CE",
"O c #0B6AC2",
"+ c #017BDF",
"@ c #1474D2",
"# c #0B7FE2",
"$ c #019901",
"% c #AF7E18",
"& c #FF7A4C",
"* c #B4811D",
"= c #BA8723",
"- c #CC9901",
"; c #CA9733",
": c #C28F2B",
"> c #FFCC68",
", c #FFD470",
"< c #FFE07C",
"1 c #9999CC",
"2 c #B5DBFF",
"3 c #A9D4FF",
"4 c #FFF48E",
"5 c #FFFD97",
"6 c #FFE883",
"7 c #CFCE8F",
"8 c #C6E3FF",
"9 c #D7EBFF",
"0 c #E6F3FF",
"q c #F1F8FF",
"w c gray100",
"e c None",
/* pixels */
"eeeeeeeeeeeeeeee",
"eee;;;;eeeeeeeee",
"ee;wwww:eeeeeeee",
"e;w5555w===**%ee",
"e;444444wwwww%ee",
"e;667@@@@@@@@@@e",
"e:<<oooooooooooO",
"e;,,o#+++++++++X",
"e:>>Xwwwwwwwqq0X",
"e:>>Xw11w##q$$9X",
"e=>>Xw11w##q$$9X",
"e=>>Xwwwq009888X",
"ee*%Xw&&q..8--3X",
"eeeeXw&&q..8--2X",
"eeeeXwq09882333X",
"eeeeXXXXXXXXXXXX"
};
