/* XPM */
static char * run_16x16_xpm[] = {
"16 16 11 1",
" 	c none",
".	c #7B7B7B",
"X	c #00007B",
"o	c #FF0000",
"O	c #FFFF00",
"+	c #000000",
"@	c #00FFFF",
"#	c #00FF00",
"$	c #BDBDBD",
"%	c #FFFFFF",
"&	c #7B0000",
"  ..............",
"  .XoOXXXXXXXXX+",
"  .X@#XXXXX$+$++",
"  .............+",
"  .$%%%%%%%%%%.+",
"&oooo&%%%%%%%%.+",
"++++++%%%%%%%%.+",
".%%$$+%%%%%%%%.+",
".%.+.+%%%%%%%%.+",
" .$.+%%%%%%%%%.+",
"  .+%%%%%%%%%%.+",
" .%.+..........+",
".$%.$+++++++++++",
".%.+.+          ",
"&oooo&          ",
"++++++          "};
