/* XPM */
static char *run-32_16x16[] = {
/* columns rows colors chars-per-pixel */
"16 16 32 1",
"  c black",
". c #314A7B",
"X c #4D5665",
"o c #5D6673",
"O c #56606E",
"+ c #656D7A",
"@ c #1E4FB2",
"# c #346AAD",
"$ c #5A7DB1",
"% c #6D7C96",
"& c #288DDF",
"* c #2F90DF",
"= c #6C8AB4",
"- c #4CA1E7",
"; c #4A94D4",
": c #898981",
"> c #969791",
", c #889DB9",
"< c #ACB0B1",
"1 c #9CA1A9",
"2 c #BABDC2",
"3 c #BAC5CD",
"4 c #C3BDB4",
"5 c #CCCCC9",
"6 c #D0D1CF",
"7 c #EFEAD8",
"8 c #E6E3D6",
"9 c gray100",
"0 c #F7F6F3",
"q c #F1EEE7",
"w c #E1DDCB",
"e c None",
/* pixels */
"eeeeeeeeeeeeeeee",
"eeeeeeeeeeeeeeee",
"eeeeeeeeeeeeeeee",
"eeee,@@@@@@@@@#%",
"3<14$*&&&&&--;##",
"eee2$777777777$X",
"<><$77:::::>75$X",
"eee$7>w999980=@+",
"<1<,w>9999077$@e",
"ee=86555555q,@Oe",
"<4$777777777$@ee",
"ee@@@@@@@@@@@oee",
"eee%+ooooooooeee",
"eeeeeeeeeeeeeeee",
"eeeeeeeeeeeeeeee",
"eeeeeeeeeeeeeeee"
};
