/* XPM */
static char *winword_32x32[] = {
/* columns rows colors chars-per-pixel */
"32 32 5 1",
"  c #0000C0",
". c gray75",
"X c gray100",
"o c gray50",
"O c None",
/* pixels */
"OOOOOOOOOOOOOOOOOOOOOOOOOOOOOOOO",
"OOOOOOOOOOOOOOOOOOOOOOOOOOOOOOOO",
"OO                            OO",
"OO                            OO",
"OO                            OO",
"OO   XXXXXXXXXXXXXXXXXXXXXX   OO",
"OO   XXXXXXXXXXXXXXXXXXXXXX   OO",
"OO   XXXXXXXXXXXXXXXXXXXXXX   OO",
"OO   XXXXXXXXXXXXXXXXXXXXXX   OO",
"OO   X        X     X         OO",
"OO   X        .     X         OO",
"OO   XXX    XXo     XX   .X   OO",
"OO   XXX    XX      XX   XX   OO",
"OO   XXX    X.      X.  .XX   OO",
"OO   XXX    Xo      X   XXX   OO",
"OO   XXX    X          .XXX   OO",
"OO   XXX               XXXX   OO",
"OO   XXX              .XXXX   OO",
"OO   XXX              XXXXX   OO",
"OO   XXX      X      .XXXXX   OO",
"OO   XXX     oX      XXXXXX   OO",
"OO   XXX     .X     .XXXXXX   OO",
"OO   XXX     XX     XXXXXXX   OO",
"OO   XXX    .XX    .XXXXXXX   OO",
"OO   XXXXXXXXXXXXXXXXXXXXXX   OO",
"OO   XXXXXXXXXXXXXXXXXXXXXX   OO",
"OO   XXXXXXXXXXXXXXXXXXXXXX   OO",
"OO                            OO",
"OO                            OO",
"OO                            OO",
"OOOOOOOOOOOOOOOOOOOOOOOOOOOOOOOO",
"OOOOOOOOOOOOOOOOOOOOOOOOOOOOOOOO"
};
