/* XPM */
static char *xterm_16x16[] = {
/* columns rows colors chars-per-pixel */
"16 16 51 1",
"  c #010101",
". c #142952",
"X c #152A52",
"o c #162A53",
"O c #213656",
"+ c #253959",
"@ c #24395B",
"# c #203F75",
"$ c #325B71",
"% c #345E77",
"& c #396077",
"* c #3A6077",
"= c #494949",
"- c #475164",
"; c #425F6D",
": c #4C5667",
"> c #495568",
", c #4D566A",
"< c #54667F",
"1 c #2B5184",
"2 c #3A5DA1",
"3 c #3B72B9",
"4 c #3F74BD",
"5 c #237ED9",
"6 c #425B87",
"7 c #586A80",
"8 c #586B84",
"9 c #596C84",
"0 c #596D84",
"q c #4074BE",
"w c #4874B3",
"e c #507DA4",
"r c #5878A1",
"t c #65748A",
"y c #4378C0",
"u c #4478C0",
"i c #4579C0",
"p c #1789ED",
"a c #188AED",
"s c #188CF0",
"d c #7D8797",
"f c #7E889A",
"g c #7E889B",
"h c #7F899B",
"j c #50ADFB",
"k c #5CB3FA",
"l c #60B3F8",
"z c yellow",
"x c #968EA3",
"c c gray100",
"v c None",
/* pixels */
"vvvvvvvvvvvvvvvv",
"vvvvvvvvvvvvvvvv",
"v3q4444444uyuwrv",
"5saaaaaaapkjlx2t",
"e$%%%%%%%%*%*;1<",
":             X0",
"> =cc=   c    X0",
"- c==c c c=   X8",
"- c      =c   X8",
"> c==c c  c=  X0",
"> =cc=    =c  .8",
">             X8",
",             X8",
"6O@@@@@@@@@@@@$<",
"vgggggggxgggggtv",
"vvvvvvvvvvvvvvvv"
};
