/* XPM */
static char * icewm_xpm[] = {
"52 22 213 2",
"  	c None",
". 	c #FFFFFF",
"+ 	c #404040",
"@ 	c #D4D0C8",
"# 	c #808080",
"$ 	c #D5D0C6",
"% 	c #ECAF75",
"& 	c #F3A660",
"* 	c #FDAB60",
"= 	c #F7843C",
"- 	c #D49979",
"; 	c #D0CBC3",
"> 	c #D5CFC6",
", 	c #EAB77F",
"' 	c #FC9F45",
") 	c #FD9131",
"! 	c #FD9F44",
"~ 	c #FFA858",
"{ 	c #FA6B16",
"] 	c #D0410A",
"^ 	c #BDABA0",
"/ 	c #ADBE91",
"( 	c #BCCA95",
"_ 	c #C7CCAD",
": 	c #C7D1A6",
"< 	c #BBD582",
"[ 	c #CBC8C0",
"} 	c #D6D0C6",
"| 	c #F0AE62",
"1 	c #FF8620",
"2 	c #FE8620",
"3 	c #FFAB57",
"4 	c #FF9440",
"5 	c #F0590C",
"6 	c #B03E18",
"7 	c #55633D",
"8 	c #74A633",
"9 	c #91C533",
"0 	c #A4D24B",
"a 	c #ABE343",
"b 	c #91CA24",
"c 	c #B8B6AD",
"d 	c #D9CDBC",
"e 	c #F6A742",
"f 	c #FC952B",
"g 	c #FE8E23",
"h 	c #FFB561",
"i 	c #FF8229",
"j 	c #E24C07",
"k 	c #98492C",
"l 	c #456B36",
"m 	c #7EA921",
"n 	c #81C20A",
"o 	c #96E50D",
"p 	c #A4FB0B",
"q 	c #7FBC0E",
"r 	c #B6B4AC",
"s 	c #DAC7AD",
"t 	c #F88712",
"u 	c #F28619",
"v 	c #E48425",
"w 	c #E79242",
"x 	c #F35809",
"y 	c #D03605",
"z 	c #4D772B",
"A 	c #85B71F",
"B 	c #85CC0B",
"C 	c #96E50B",
"D 	c #9DF307",
"E 	c #83A244",
"F 	c #A7A49F",
"G 	c #000000",
"H 	c #C0B88C",
"I 	c #A78467",
"J 	c #9F735D",
"K 	c #646B78",
"L 	c #5B5C66",
"M 	c #743A24",
"N 	c #89230A",
"O 	c #3A6418",
"P 	c #6C9322",
"Q 	c #8AC11B",
"R 	c #8AD30B",
"S 	c #9DEE0B",
"T 	c #97EC04",
"U 	c #7F8B61",
"V 	c #A4A19D",
"W 	c #A5AEC7",
"X 	c #497DE3",
"Y 	c #4A7CF1",
"Z 	c #86A8F8",
"` 	c #7194F3",
" .	c #3558DA",
"..	c #39536B",
"+.	c #355A29",
"@.	c #80AA29",
"#.	c #83C80E",
"$.	c #8EE008",
"%.	c #9AF707",
"&.	c #87D011",
"*.	c #838478",
"=.	c #ADA9A4",
"-.	c #D1CECB",
";.	c #7F92EA",
">.	c #5079FF",
",.	c #7191FF",
"'.	c #AAC0FF",
").	c #7A95FF",
"!.	c #394DF3",
"~.	c #4155A0",
"{.	c #76893F",
"].	c #889A56",
"^.	c #87A449",
"/.	c #94A946",
"(.	c #959957",
"_.	c #86867E",
":.	c #B8B5AE",
"<.	c #CBC9CC",
"[.	c #6481F4",
"}.	c #567DFF",
"|.	c #829FFF",
"1.	c #A6BCFF",
"2.	c #627FFD",
"3.	c #3342E2",
"4.	c #43594D",
"5.	c #B69001",
"6.	c #DEB41C",
"7.	c #D8BC32",
"8.	c #DDC430",
"9.	c #FED813",
"0.	c #BFA74D",
"a.	c #A7A4A1",
"b.	c #C3C0B9",
"c.	c #BDBED2",
"d.	c #6680F0",
"e.	c #5D83FF",
"f.	c #9FB9FF",
"g.	c #99B4FF",
"h.	c #4D67FC",
"i.	c #3845BB",
"j.	c #5D692D",
"k.	c #BC9707",
"l.	c #E0B50A",
"m.	c #FFCF08",
"n.	c #FFDC07",
"o.	c #FAD512",
"p.	c #A09672",
"q.	c #B3B0AC",
"r.	c #CAC6BE",
"s.	c #A2ABDB",
"t.	c #5F7AEE",
"u.	c #617DF1",
"v.	c #8697ED",
"w.	c #7188F9",
"x.	c #4054FA",
"y.	c #304588",
"z.	c #91820C",
"A.	c #C9A20B",
"B.	c #EABC0B",
"C.	c #FED10B",
"D.	c #FFD90A",
"E.	c #F6CF17",
"F.	c #989588",
"G.	c #B4B1AD",
"H.	c #CDC9C1",
"I.	c #7A8D80",
"J.	c #677066",
"K.	c #6E7A6D",
"L.	c #566753",
"M.	c #4B5C76",
"N.	c #3147BE",
"O.	c #43595B",
"P.	c #AD8E05",
"Q.	c #D8AF09",
"R.	c #F6C60B",
"S.	c #FFDD09",
"T.	c #E4BF1E",
"U.	c #979693",
"V.	c #BBB7B2",
"W.	c #D1CDC5",
"X.	c #C9C7BE",
"Y.	c #B7B9AE",
"Z.	c #ADB2A5",
"`.	c #A7ABA2",
" +	c #979B8F",
".+	c #8E9484",
"++	c #567844",
"@+	c #949533",
"#+	c #CEAA1A",
"$+	c #F8C90A",
"%+	c #F0CD11",
"&+	c #F0CC14",
"*+	c #A8984E",
"=+	c #A09D9A",
"-+	c #C2BEB7",
";+	c #D3CFC7",
">+	c #BEBEB4",
",+	c #ABB4A3",
"'+	c #A8AC9F",
")+	c #938F7C",
"!+	c #988F6C",
"~+	c #8B8466",
"{+	c #85827B",
"]+	c #989693",
"^+	c #B9B6B0",
"/+	c #CAC7BF",
"(+	c #C8C4BD",
"_+	c #B6B3AD",
":+	c #B2AFAB",
"<+	c #A8A6A2",
"[+	c #ADAAA5",
"}+	c #BEBAB5",
"|+	c #CFCBC3",
". . . . . . . . . . . . . . . . . . . . . . . . . . . . . . . . . . . . . . . . . . . . . . . . . . . + ",
". @ @ @ @ @ @ @ @ @ @ @ @ @ @ @ @ @ @ @ @ @ @ @ @ @ @ @ @ @ @ @ @ @ @ @ @ @ @ @ @ @ @ @ @ @ @ @ @ @ # + ",
". @ @ @ @ @ @ @ @ @ @ @ @ @ @ @ @ @ @ @ @ @ @ @ @ @ @ @ @ @ @ @ @ @ @ @ @ @ @ @ @ @ @ @ @ @ @ @ @ @ # + ",
". @ @ @ $ $ % & * = - ; @ @ @ @ @ @ @ @ @ @ @ @ @ @ @ @ @ @ @ @ @ @ @ @ @ @ @ @ @ @ @ @ @ @ @ @ @ @ # + ",
". @ @ > , ' ) ! ~ { ] ^ / ( _ : < [ @ @ @ @ @ @ @ @ @ @ @ @ @ @ @ @ @ @ @ @ @ @ @ @ @ @ @ @ @ @ @ @ # + ",
". @ @ } | 1 2 3 4 5 6 7 8 9 0 a b c @ @ @ @ @ @ @ @ @ @ @ @ @ @ @ @ @ @ @ @ @ @ @ @ @ @ @ @ @ @ @ @ # + ",
". @ @ d e f g h i j k l m n o p q r @ @ @ @ @ @ @ @ @ @ @ @ @ @ @ @ @ @ @ @ @ @ @ @ @ @ @ @ @ @ @ @ # + ",
". @ @ s t u v w x y k z A B C D E F @ @ @ G G G G G @ G G @ @ @ @ @ @ @ @ @ @ @ @ @ @ @ G G @ @ @ @ # + ",
". @ @ H I J K L M N O P Q R S T U V @ @ G G @ @ @ @ @ G G @ @ @ @ @ @ @ @ @ @ @ @ @ @ @ G G @ @ @ @ # + ",
". @ @ W X Y Z `  ...+.@.#.$.%.&.*.=.@ @ G G @ @ @ @ @ G G G G @ @ G G G G @ @ G G @ G @ G G G G @ @ # + ",
". @ -.;.>.,.'.).!.~.{.{.].^./.(._.:.@ @ G G G G G @ @ G G @ @ @ @ @ @ @ G G @ G G G G @ G G @ @ @ @ # + ",
". @ <.[.}.|.1.2.3.4.5.6.7.8.9.0.a.b.@ @ @ G G G G G @ G G @ @ @ @ G G G G G @ G G @ @ @ G G @ @ @ @ # + ",
". @ c.d.e.f.g.h.i.j.k.l.m.n.o.p.q.r.@ @ @ @ @ @ G G @ G G @ @ @ G G @ @ G G @ G G @ @ @ G G @ @ @ @ # + ",
". @ s.t.u.v.w.x.y.z.A.B.C.D.E.F.G.H.@ @ @ @ @ @ G G @ G G @ @ @ G G @ @ G G @ G G @ @ @ G G @ @ @ @ # + ",
". @ I.J.K.L.M.N.O.P.Q.R.D.S.T.U.V.W.@ @ G G G G G @ @ @ G G G @ @ G G G G G @ G G @ @ @ @ G G G @ @ # + ",
". @ X.Y.Z.`. +.+++@+#+$+%+&+*+=+-+;+@ @ @ @ @ @ @ @ @ @ @ @ @ @ @ @ @ @ @ @ @ @ @ @ @ @ @ @ @ @ @ @ # + ",
". @ @ @ @ @ @ >+,+'+)+!+~+{+]+^+/+@ @ @ @ @ @ @ @ @ @ @ @ @ @ @ @ @ @ @ @ @ @ @ @ @ @ @ @ @ @ @ @ @ # + ",
". @ @ @ @ @ @ W.W.(+_+:+<+[+}+|+W.@ @ @ @ @ @ @ @ @ @ @ @ @ @ @ @ @ @ @ @ @ @ @ @ @ @ @ @ @ @ @ @ @ # + ",
". @ @ @ @ @ @ @ @ @ @ @ @ @ @ @ @ @ @ @ @ @ @ @ @ @ @ @ @ @ @ @ @ @ @ @ @ @ @ @ @ @ @ @ @ @ @ @ @ @ # + ",
". @ @ @ @ @ @ @ @ @ @ @ @ @ @ @ @ @ @ @ @ @ @ @ @ @ @ @ @ @ @ @ @ @ @ @ @ @ @ @ @ @ @ @ @ @ @ @ @ @ # + ",
". # # # # # # # # # # # # # # # # # # # # # # # # # # # # # # # # # # # # # # # # # # # # # # # # # # + ",
"+ + + + + + + + + + + + + + + + + + + + + + + + + + + + + + + + + + + + + + + + + + + + + + + + + + + + "};
