/* XPM */
static char *wirless_16x16[] = {
/* columns rows colors chars-per-pixel */
"16 16 34 1",
"  c #086A18",
". c #137716",
"X c #147011",
"o c #147211",
"O c #147C40",
"+ c #645D78",
"@ c #595782",
"# c #615F84",
"$ c #6F708E",
"% c #797884",
"& c #7A7A8E",
"* c #1E8214",
"= c #228419",
"- c #2C8553",
"; c #7F879A",
": c #98FE67",
"> c #98FE68",
", c #99FE68",
"< c #808080",
"1 c #8188A3",
"2 c #868EA6",
"3 c #878EA6",
"4 c #878EA7",
"5 c #8890A7",
"6 c #A597BC",
"7 c #9185D7",
"8 c #A095DE",
"9 c #A297DF",
"0 c #A398DF",
"q c #AFA4E4",
"w c #D0C6D1",
"e c #D4D0C8",
"r c #EEE6EB",
"t c None",
/* pixels */
"tttttttttttttttt",
"t,=tttttttttt*,t",
":.tt:otttto:tt.:",
": t:*tt#<tt*:t :",
": t:*t$r6%t*:t :",
": t:*t&wq@t*:t :",
": t:*tt<+tt*:t :",
":.tt:Ot17t-:tt.:",
"t:*tttt30tttt*:t",
"ttttttt38ttttttt",
"ttttttt30ttttttt",
"ttttttt50ttttttt",
"ttttttt30ttttttt",
"ttttttt;%ttttttt",
"ttttttt<<ttttttt",
"tttttttttttttttt"
};
