/* XPM */
static char *xmms2_16x16[] = {
/* columns rows colors chars-per-pixel */
"16 16 64 1",
"  c black",
". c #21211C",
"X c #31312C",
"o c #713F1F",
"O c #43423F",
"+ c #6D4010",
"@ c #715511",
"# c #7D4E15",
"$ c #715932",
"% c #6D5029",
"& c #605F57",
"* c #62574A",
"= c #756341",
"- c #716751",
"; c gray38",
": c #79756C",
"> c #885605",
", c #814C10",
"< c #815424",
"1 c #9F6016",
"2 c #BF7B1E",
"3 c #817971",
"4 c #CF7C14",
"5 c #FF7F24",
"6 c #AF810D",
"7 c #85837E",
"8 c #CF9304",
"9 c #DF8314",
"0 c #EF8A13",
"q c #FF9B1E",
"w c #FF921A",
"e c #FF8826",
"r c #FF9722",
"t c #FF9A24",
"y c #FFBD1D",
"u c #EFAA06",
"i c #FFA92B",
"p c #FFA327",
"a c #CF9659",
"s c #CFA653",
"d c #CFA960",
"f c #CFB97B",
"g c #FF9B45",
"h c #EFAF48",
"j c #FFAA46",
"k c #FFC329",
"l c #FFC745",
"z c #FFCB5B",
"x c #FFCE61",
"c c #FFCB71",
"v c #FFD675",
"b c #FFE07E",
"n c #888683",
"m c #9F9F9F",
"M c #AFAFAF",
"N c gray75",
"B c #CFC787",
"V c #FFE086",
"C c #FFEA98",
"Z c gray81",
"A c #DFDFDF",
"S c #EFEFEF",
"D c gray100",
"F c None",
/* pixels */
"FFFFFFF;;FFFFFFF",
"FFFFFF;OO;FF7*FF",
"FFFFF;ODDO;%s,FF",
"FFFF;ODDA-6vt%FF",
"FFF;ODSn>kcw+FFF",
"FF;ODm@uybq%O;FF",
"F;OZ$8klllhoZO;F",
";ODnzjiCxje4NDO;",
";ODnprVzetq>ZDO;",
"F;OZ.Bget0%MDO;F",
"FF;Xfetr1:SDO;FF",
"FF&aei9$NDDO;FFF",
"F:dtt#nDDDO;FFFF",
"F=i4%;ODDO;FFFFF",
"F=#:FF;OO;FFFFFF",
"FFFFFFF;;FFFFFFF"
};
