/* XPM */
static char *taskbuttonactive[] = {
/* columns rows colors chars-per-pixel */
"2 20 20 1 ",
"  c #5889BE",
". c #6782AC",
"X c #598DC5",
"o c #6691C1",
"O c #6597D1",
"+ c #7CA1C9",
"@ c #6EA2DA",
"# c #77ADE4",
"$ c #95ABC9",
"% c #92B1D0",
"& c #82B6EF",
"* c #86BFF9",
"= c #ABC2DA",
"- c #8CC0F8",
"; c #9ACBFE",
": c #A1D5FF",
"> c #A6D5FF",
", c #AEDEFF",
"< c #AEE1FF",
"1 c #B2E2FF",
/* pixels */
"..",
"$$",
"==",
"%%",
"++",
"oo",
"  ",
"XX",
"OO",
"@@",
"##",
"&&",
"--",
";;",
">>",
",,",
"11",
"<<",
"::",
"**"
};
