/* XPM */
static char *taskbarbg[] = {
/* columns rows colors chars-per-pixel */
"2 20 18 1 ",
"  c #323232",
". c #343434",
"X c #393939",
"o c #3F3F3F",
"O c #444444",
"+ c #494949",
"@ c #4F545C",
"# c #545454",
"$ c #5C5C5C",
"% c #606060",
"& c #666666",
"* c #707070",
"= c #787879",
"- c #7F7F7F",
"; c #848484",
": c #898989",
"> c #A1A1A1",
", c #C8C8C8",
/* pixels */
"OO",
">>",
",,",
">>",
"%%",
"..",
"  ",
"..",
"XX",
"oo",
"++",
"##",
"$$",
"&&",
"**",
"--",
";;",
"::",
"==",
"@@"
};
