/* XPM */
static char *frameAL[] = {
/* columns rows colors chars-per-pixel */
"4 16 2 1",
"  c #D4D0C8",
". c gray100",
/* pixels */
" .  ",
" .  ",
" .  ",
" .  ",
" .  ",
" .  ",
" .  ",
" .  ",
" .  ",
" .  ",
" .  ",
" .  ",
" .  ",
" .  ",
" .  ",
" .  "
};
