/* XPM */
static char *frameATR[] = {
/* columns rows colors chars-per-pixel */
"23 23 5 1",
"  c black",
". c gray25",
"X c #808080",
"o c #D4D0C8",
"O c gray100",
/* pixels */
"oooooooooooooooooooooo.",
"OOOOOOOOOOOOOOOOOOOOOX.",
"oooooooooooooooooooooX.",
"oooooooooooooooooooooX.",
"                   ooX.",
"                   ooX.",
"                   ooX.",
"                   ooX.",
"                   ooX.",
"                   ooX.",
"                   ooX.",
"                   ooX.",
"                   ooX.",
"                   ooX.",
"                   ooX.",
"                   ooX.",
"                   ooX.",
"                   ooX.",
"                   ooX.",
"                   ooX.",
"                   ooX.",
"                   ooX.",
"                   ooX."
};
