<?xml version="1.0" encoding="UTF-8" standalone="no"?>
<!-- Created with Inkscape (http://www.inkscape.org/) -->

<svg
   xmlns:dc="http://purl.org/dc/elements/1.1/"
   xmlns:cc="http://creativecommons.org/ns#"
   xmlns:rdf="http://www.w3.org/1999/02/22-rdf-syntax-ns#"
   xmlns:svg="http://www.w3.org/2000/svg"
   xmlns="http://www.w3.org/2000/svg"
   xmlns:xlink="http://www.w3.org/1999/xlink"
   xmlns:sodipodi="http://sodipodi.sourceforge.net/DTD/sodipodi-0.dtd"
   xmlns:inkscape="http://www.inkscape.org/namespaces/inkscape"
   width="335.125"
   height="334.87057"
   id="svg2"
   version="1.1"
   inkscape:version="0.48.0 r9654"
   sodipodi:docname="sphere.svg"
   inkscape:export-filename="C:\Documents and Settings\alexg\My Documents\Downloads\SALINAS\sphere.png"
   inkscape:export-xdpi="100"
   inkscape:export-ydpi="100">
  <defs
     id="defs4">
    <linearGradient
       id="linearGradient3863">
      <stop
         id="stop3865"
         offset="0"
         style="stop-color:#40bb9b;stop-opacity:1" />
      <stop
         id="stop3867"
         offset="1"
         style="stop-color:#d56b96;stop-opacity:0" />
    </linearGradient>
    <linearGradient
       inkscape:collect="always"
       id="linearGradient3841">
      <stop
         style="stop-color:#d5ffd5;stop-opacity:1;"
         offset="0"
         id="stop3843" />
      <stop
         style="stop-color:#d5ffd5;stop-opacity:0;"
         offset="1"
         id="stop3845" />
    </linearGradient>
    <linearGradient
       inkscape:collect="always"
       id="linearGradient3829">
      <stop
         style="stop-color:#008000;stop-opacity:1;"
         offset="0"
         id="stop3831" />
      <stop
         style="stop-color:#008000;stop-opacity:0;"
         offset="1"
         id="stop3833" />
    </linearGradient>
    <linearGradient
       id="linearGradient3819">
      <stop
         style="stop-color:#00d514;stop-opacity:1;"
         offset="0"
         id="stop3821" />
      <stop
         style="stop-color:#00d514;stop-opacity:0;"
         offset="1"
         id="stop3823" />
    </linearGradient>
    <radialGradient
       inkscape:collect="always"
       xlink:href="#linearGradient3819"
       id="radialGradient3825"
       cx="340.71429"
       cy="396.64789"
       fx="340.71429"
       fy="396.64789"
       r="115"
       gradientTransform="matrix(1,0,0,1.0559006,0,-22.172871)"
       gradientUnits="userSpaceOnUse" />
    <linearGradient
       inkscape:collect="always"
       xlink:href="#linearGradient3829"
       id="linearGradient3835"
       x1="338.57144"
       y1="517.32227"
       x2="337.14285"
       y2="361.95401"
       gradientUnits="userSpaceOnUse" />
    <linearGradient
       inkscape:collect="always"
       xlink:href="#linearGradient3841"
       id="linearGradient3847"
       x1="339.83643"
       y1="283.98221"
       x2="345.10361"
       y2="514.32092"
       gradientUnits="userSpaceOnUse" />
    <radialGradient
       inkscape:collect="always"
       xlink:href="#linearGradient3863"
       id="radialGradient3857"
       gradientUnits="userSpaceOnUse"
       gradientTransform="matrix(1,0,0,1.0559006,0,-22.172871)"
       cx="340.71429"
       cy="396.64789"
       fx="340.71429"
       fy="396.64789"
       r="115" />
    <linearGradient
       inkscape:collect="always"
       xlink:href="#linearGradient3829"
       id="linearGradient3859"
       gradientUnits="userSpaceOnUse"
       x1="338.57144"
       y1="517.32227"
       x2="337.14285"
       y2="361.95401" />
    <linearGradient
       inkscape:collect="always"
       xlink:href="#linearGradient3841"
       id="linearGradient3861"
       gradientUnits="userSpaceOnUse"
       x1="339.83643"
       y1="283.98221"
       x2="345.10361"
       y2="514.32092" />
    <radialGradient
       inkscape:collect="always"
       xlink:href="#linearGradient3819"
       id="radialGradient3043"
       gradientUnits="userSpaceOnUse"
       gradientTransform="matrix(1,0,0,1.0559006,0,-22.172871)"
       cx="340.71429"
       cy="396.64789"
       fx="340.71429"
       fy="396.64789"
       r="115" />
    <linearGradient
       inkscape:collect="always"
       xlink:href="#linearGradient3829"
       id="linearGradient3045"
       gradientUnits="userSpaceOnUse"
       x1="338.57144"
       y1="517.32227"
       x2="337.14285"
       y2="361.95401" />
    <linearGradient
       inkscape:collect="always"
       xlink:href="#linearGradient3841"
       id="linearGradient3047"
       gradientUnits="userSpaceOnUse"
       x1="339.83643"
       y1="283.98221"
       x2="345.10361"
       y2="514.32092" />
  </defs>
  <sodipodi:namedview
     id="base"
     pagecolor="#ffffff"
     bordercolor="#666666"
     borderopacity="1.0"
     inkscape:pageopacity="0.0"
     inkscape:pageshadow="2"
     inkscape:zoom="0.7"
     inkscape:cx="-45.086568"
     inkscape:cy="263.62291"
     inkscape:document-units="px"
     inkscape:current-layer="layer2"
     showgrid="false"
     inkscape:window-width="1280"
     inkscape:window-height="952"
     inkscape:window-x="-4"
     inkscape:window-y="-4"
     inkscape:window-maximized="1"
     fit-margin-top="100"
     fit-margin-left="100"
     fit-margin-right="0"
     fit-margin-bottom="0"
     units="px" />
  <metadata
     id="metadata7">
    <rdf:RDF>
      <cc:Work
         rdf:about="">
        <dc:format>image/svg+xml</dc:format>
        <dc:type
           rdf:resource="http://purl.org/dc/dcmitype/StillImage" />
        <dc:title />
      </cc:Work>
    </rdf:RDF>
  </metadata>
  <g
     inkscape:label="Layer 1"
     inkscape:groupmode="layer"
     id="layer1"
     style="display:none"
     sodipodi:insensitive="true"
     transform="translate(-154.4892,-308.75372)">
    <g
       id="g3790"
       transform="matrix(0.99816932,0.06048156,-0.06048156,0.99816932,715.23465,27.290816)"
       inkscape:transform-center-x="-261.56045"
       inkscape:transform-center-y="-165.24253">
      <path
         sodipodi:nodetypes="ssssasss"
         inkscape:connector-curvature="0"
         id="path3792"
         d="m 222.96362,606.26516 c -2.18892,-1.56999 -8.30806,-6.69889 -9.19643,-9.24193 -15.63186,-44.74735 -1.16746,-71.09168 20.5882,-88.12312 134.07209,-104.95848 258.11772,-161.23262 347.49248,-185.55118 19.73112,-5.36877 40.02551,-6.43512 47.47717,7.76434 8.99833,17.14671 -6.28922,32.96747 -24.85643,52.5069 -62.68733,65.9698 -129.39401,63.24078 -286.27055,220.23428 -22.05128,22.06772 -45.21872,38.28429 -95.23444,2.41071 z"
         style="fill:#34b188;stroke:none" />
      <path
         id="path3794"
         d="m 250.78125,496.25 c -3.22257,2.44329 -6.45236,4.93779 -9.6875,7.4375 l 16.5,52.25 -6.8125,-59.6875 z m -11.09375,8.53125 c -1.77714,1.37692 -3.56301,2.73095 -5.34375,4.125 -2.29525,1.79684 -4.48759,3.70392 -6.59375,5.71875 l 17.8125,49.625 -5.875,-59.46875 z m -13.15625,11.03125 c -5.18608,5.17792 -9.66939,11.08753 -13,17.90625 l 21.34375,42.375 -8.34375,-60.28125 z M 212.0625,537 c -6.33629,15.19804 -7.14723,34.65174 1.71875,60.03125 0.88837,2.54304 6.99858,7.64876 9.1875,9.21875 3.18239,2.28256 6.24712,4.3773 9.21875,6.25 -12.98031,-25.15897 -19.96782,-50.34104 -20.125,-75.5 z"
         style="fill:#3bbbb9;stroke:none"
         inkscape:connector-curvature="0" />
      <path
         sodipodi:nodetypes="cccc"
         inkscape:connector-curvature="0"
         id="path3796"
         d="m 128.05824,678.95418 c 13.89447,-8.64216 28.50775,-23.75353 40.63724,-16.51088 C 275.30266,541.96432 422.54551,447.70312 572.75649,355.35693 418.22511,441.49059 235.724,560.06232 128.05824,678.95418 z"
         style="fill:#a3d234;fill-opacity:1;stroke:none" />
      <path
         sodipodi:nodetypes="ccccc"
         inkscape:connector-curvature="0"
         id="path3798"
         d="m 467.2703,420.0211 c -109.36186,66.13822 -228.60089,150.26777 -318.5,241.50893 13.71832,-10.82033 20.1085,-3.81558 23.46875,-5.07143 84.9559,-93.81848 188.99495,-167.80497 294.8125,-236.25 1.39556,-0.89872 2.36062,-1.47866 0.21875,-0.1875 z"
         style="fill:#a4bd39;fill-opacity:1;stroke:none" />
      <path
         id="path3800"
         d="m 631.65625,337.96875 -31.625,1.21875 31.5,6.5625 c 0.50491,-2.5928 0.56519,-5.17611 0.125,-7.78125 z m -1.8125,13.375 -45.96875,5.03125 37.71875,8.1875 c 3.54466,-4.5084 6.44288,-8.88601 8.25,-13.21875 z m -9.875,15.28125 -54.28125,0.84375 40.21875,14.625 c 5.12591,-5.39572 9.98974,-10.52127 14.0625,-15.46875 z m -57.3125,11.96875 26.4375,19.84375 c 4.76283,-4.19837 9.48,-8.68086 14.15625,-13.53125 l -40.59375,-6.3125 z M 546.5,381.625 575.78125,408.90625 535.375,389.6875 l 27.84375,28.78125 c 8.43824,-5.82326 16.54873,-11.93808 24.46875,-18.8125 L 546.5,381.625 z m -24.25,16.15625 27.125,29.84375 c 4.38031,-2.77951 8.65322,-5.56696 12.84375,-8.4375 L 522.25,397.78125 z m -18.1875,13.125 32.84375,24.4375 c 3.53545,-2.14726 7.0077,-4.26964 10.40625,-6.40625 l -43.25,-18.03125 z m -21.21875,10.125 37.375,24.34375 c 4.64045,-2.76965 9.26053,-5.53485 13.65625,-8.1875 l -51.03125,-16.15625 z"
         style="fill:#19e22a;stroke:none"
         inkscape:connector-curvature="0" />
    </g>
    <g
       id="g3771"
       transform="matrix(0.99339535,-0.11474186,0.11474186,0.99339535,596.39523,53.648913)">
      <path
         sodipodi:nodetypes="ssssasss"
         inkscape:connector-curvature="0"
         id="path2987"
         d="m 222.96362,606.26516 c -2.18892,-1.56999 -8.30806,-6.69889 -9.19643,-9.24193 -15.63186,-44.74735 -1.16746,-71.09168 20.5882,-88.12312 134.07209,-104.95848 258.11772,-161.23262 347.49248,-185.55118 19.73112,-5.36877 40.02551,-6.43512 47.47717,7.76434 8.99833,17.14671 -6.28922,32.96747 -24.85643,52.5069 -62.68733,65.9698 -129.39401,63.24078 -286.27055,220.23428 -22.05128,22.06772 -45.21872,38.28429 -95.23444,2.41071 z"
         style="fill:#699f44;stroke:none" />
      <path
         id="path3761"
         d="m 250.78125,496.25 c -3.22257,2.44329 -6.45236,4.93779 -9.6875,7.4375 l 16.5,52.25 -6.8125,-59.6875 z m -11.09375,8.53125 c -1.77714,1.37692 -3.56301,2.73095 -5.34375,4.125 -2.29525,1.79684 -4.48759,3.70392 -6.59375,5.71875 l 17.8125,49.625 -5.875,-59.46875 z m -13.15625,11.03125 c -5.18608,5.17792 -9.66939,11.08753 -13,17.90625 l 21.34375,42.375 -8.34375,-60.28125 z M 212.0625,537 c -6.33629,15.19804 -7.14723,34.65174 1.71875,60.03125 0.88837,2.54304 6.99858,7.64876 9.1875,9.21875 3.18239,2.28256 6.24712,4.3773 9.21875,6.25 -12.98031,-25.15897 -19.96782,-50.34104 -20.125,-75.5 z"
         style="fill:#5cdd1d;stroke:none"
         inkscape:connector-curvature="0" />
      <path
         sodipodi:nodetypes="cccc"
         inkscape:connector-curvature="0"
         id="path2985"
         d="m 128.05824,678.95418 c 13.89447,-8.64216 28.50775,-23.75353 40.63724,-16.51088 C 275.30266,541.96432 422.54551,447.70312 572.75649,355.35693 418.22511,441.49059 235.724,560.06232 128.05824,678.95418 z"
         style="fill:#4e8f13;fill-opacity:1;stroke:none" />
      <path
         sodipodi:nodetypes="ccccc"
         inkscape:connector-curvature="0"
         id="path3757"
         d="m 467.2703,420.0211 c -109.36186,66.13822 -228.60089,150.26777 -318.5,241.50893 13.71832,-10.82033 20.1085,-3.81558 23.46875,-5.07143 84.9559,-93.81848 188.99495,-167.80497 294.8125,-236.25 1.39556,-0.89872 2.36062,-1.47866 0.21875,-0.1875 z"
         style="fill:#7baa1e;fill-opacity:1;stroke:none" />
      <path
         id="path3766"
         d="m 631.65625,337.96875 -31.625,1.21875 31.5,6.5625 c 0.50491,-2.5928 0.56519,-5.17611 0.125,-7.78125 z m -1.8125,13.375 -45.96875,5.03125 37.71875,8.1875 c 3.54466,-4.5084 6.44288,-8.88601 8.25,-13.21875 z m -9.875,15.28125 -54.28125,0.84375 40.21875,14.625 c 5.12591,-5.39572 9.98974,-10.52127 14.0625,-15.46875 z m -57.3125,11.96875 26.4375,19.84375 c 4.76283,-4.19837 9.48,-8.68086 14.15625,-13.53125 l -40.59375,-6.3125 z M 546.5,381.625 575.78125,408.90625 535.375,389.6875 l 27.84375,28.78125 c 8.43824,-5.82326 16.54873,-11.93808 24.46875,-18.8125 L 546.5,381.625 z m -24.25,16.15625 27.125,29.84375 c 4.38031,-2.77951 8.65322,-5.56696 12.84375,-8.4375 L 522.25,397.78125 z m -18.1875,13.125 32.84375,24.4375 c 3.53545,-2.14726 7.0077,-4.26964 10.40625,-6.40625 l -43.25,-18.03125 z m -21.21875,10.125 37.375,24.34375 c 4.64045,-2.76965 9.26053,-5.53485 13.65625,-8.1875 l -51.03125,-16.15625 z"
         style="fill:#c6ac2e;stroke:none"
         inkscape:connector-curvature="0" />
    </g>
    <g
       id="g3802"
       transform="matrix(0.9809049,-0.19448798,0.19448798,0.9809049,505.06139,49.526772)">
      <path
         style="fill:#99c648;stroke:none"
         d="m 222.96362,606.26516 c -2.18892,-1.56999 -8.30806,-6.69889 -9.19643,-9.24193 -15.63186,-44.74735 -1.16746,-71.09168 20.5882,-88.12312 134.07209,-104.95848 258.11772,-161.23262 347.49248,-185.55118 19.73112,-5.36877 40.02551,-6.43512 47.47717,7.76434 8.99833,17.14671 -6.28922,32.96747 -24.85643,52.5069 -62.68733,65.9698 -129.39401,63.24078 -286.27055,220.23428 -22.05128,22.06772 -45.21872,38.28429 -95.23444,2.41071 z"
         id="path3804"
         inkscape:connector-curvature="0"
         sodipodi:nodetypes="ssssasss" />
      <path
         style="fill:#6da419;stroke:none"
         d="m 250.78125,496.25 c -3.22257,2.44329 -6.45236,4.93779 -9.6875,7.4375 l 16.5,52.25 -6.8125,-59.6875 z m -11.09375,8.53125 c -1.77714,1.37692 -3.56301,2.73095 -5.34375,4.125 -2.29525,1.79684 -4.48759,3.70392 -6.59375,5.71875 l 17.8125,49.625 -5.875,-59.46875 z m -13.15625,11.03125 c -5.18608,5.17792 -9.66939,11.08753 -13,17.90625 l 21.34375,42.375 -8.34375,-60.28125 z M 212.0625,537 c -6.33629,15.19804 -7.14723,34.65174 1.71875,60.03125 0.88837,2.54304 6.99858,7.64876 9.1875,9.21875 3.18239,2.28256 6.24712,4.3773 9.21875,6.25 -12.98031,-25.15897 -19.96782,-50.34104 -20.125,-75.5 z"
         id="path3806"
         inkscape:connector-curvature="0" />
      <path
         style="fill:#358f22;fill-opacity:1;stroke:none"
         d="m 128.05824,678.95418 c 13.89447,-8.64216 28.50775,-23.75353 40.63724,-16.51088 C 275.30266,541.96432 422.54551,447.70312 572.75649,355.35693 418.22511,441.49059 235.724,560.06232 128.05824,678.95418 z"
         id="path3808"
         inkscape:connector-curvature="0"
         sodipodi:nodetypes="cccc" />
      <path
         style="fill:#20d986;fill-opacity:1;stroke:none"
         d="m 467.2703,420.0211 c -109.36186,66.13822 -228.60089,150.26777 -318.5,241.50893 13.71832,-10.82033 20.1085,-3.81558 23.46875,-5.07143 84.9559,-93.81848 188.99495,-167.80497 294.8125,-236.25 1.39556,-0.89872 2.36062,-1.47866 0.21875,-0.1875 z"
         id="path3810"
         inkscape:connector-curvature="0"
         sodipodi:nodetypes="ccccc" />
      <path
         style="fill:#66d46f;stroke:none"
         d="m 631.65625,337.96875 -31.625,1.21875 31.5,6.5625 c 0.50491,-2.5928 0.56519,-5.17611 0.125,-7.78125 z m -1.8125,13.375 -45.96875,5.03125 37.71875,8.1875 c 3.54466,-4.5084 6.44288,-8.88601 8.25,-13.21875 z m -9.875,15.28125 -54.28125,0.84375 40.21875,14.625 c 5.12591,-5.39572 9.98974,-10.52127 14.0625,-15.46875 z m -57.3125,11.96875 26.4375,19.84375 c 4.76283,-4.19837 9.48,-8.68086 14.15625,-13.53125 l -40.59375,-6.3125 z M 546.5,381.625 575.78125,408.90625 535.375,389.6875 l 27.84375,28.78125 c 8.43824,-5.82326 16.54873,-11.93808 24.46875,-18.8125 L 546.5,381.625 z m -24.25,16.15625 27.125,29.84375 c 4.38031,-2.77951 8.65322,-5.56696 12.84375,-8.4375 L 522.25,397.78125 z m -18.1875,13.125 32.84375,24.4375 c 3.53545,-2.14726 7.0077,-4.26964 10.40625,-6.40625 l -43.25,-18.03125 z m -21.21875,10.125 37.375,24.34375 c 4.64045,-2.76965 9.26053,-5.53485 13.65625,-8.1875 l -51.03125,-16.15625 z"
         id="path3812"
         inkscape:connector-curvature="0" />
    </g>
    <g
       id="g3778"
       transform="matrix(0.89744838,-0.44111949,0.44111949,0.89744838,348.09399,136.74825)">
      <path
         style="fill:#298d6a;stroke:none"
         d="m 222.96362,606.26516 c -2.18892,-1.56999 -8.30806,-6.69889 -9.19643,-9.24193 -15.63186,-44.74735 -1.16746,-71.09168 20.5882,-88.12312 134.07209,-104.95848 258.11772,-161.23262 347.49248,-185.55118 19.73112,-5.36877 40.02551,-6.43512 47.47717,7.76434 8.99833,17.14671 -6.28922,32.96747 -24.85643,52.5069 -62.68733,65.9698 -129.39401,63.24078 -286.27055,220.23428 -22.05128,22.06772 -45.21872,38.28429 -95.23444,2.41071 z"
         id="path3780"
         inkscape:connector-curvature="0"
         sodipodi:nodetypes="ssssasss" />
      <path
         style="fill:#b436b2;stroke:none"
         d="m 250.78125,496.25 c -3.22257,2.44329 -6.45236,4.93779 -9.6875,7.4375 l 16.5,52.25 -6.8125,-59.6875 z m -11.09375,8.53125 c -1.77714,1.37692 -3.56301,2.73095 -5.34375,4.125 -2.29525,1.79684 -4.48759,3.70392 -6.59375,5.71875 l 17.8125,49.625 -5.875,-59.46875 z m -13.15625,11.03125 c -5.18608,5.17792 -9.66939,11.08753 -13,17.90625 l 21.34375,42.375 -8.34375,-60.28125 z M 212.0625,537 c -6.33629,15.19804 -7.14723,34.65174 1.71875,60.03125 0.88837,2.54304 6.99858,7.64876 9.1875,9.21875 3.18239,2.28256 6.24712,4.3773 9.21875,6.25 -12.98031,-25.15897 -19.96782,-50.34104 -20.125,-75.5 z"
         id="path3782"
         inkscape:connector-curvature="0" />
      <path
         style="fill:#c03a58;fill-opacity:1;stroke:none"
         d="m 128.05824,678.95418 c 13.89447,-8.64216 28.50775,-23.75353 40.63724,-16.51088 C 275.30266,541.96432 422.54551,447.70312 572.75649,355.35693 418.22511,441.49059 235.724,560.06232 128.05824,678.95418 z"
         id="path3784"
         inkscape:connector-curvature="0"
         sodipodi:nodetypes="cccc" />
      <path
         style="fill:#68cf40;fill-opacity:1;stroke:none"
         d="m 467.2703,420.0211 c -109.36186,66.13822 -228.60089,150.26777 -318.5,241.50893 13.71832,-10.82033 20.1085,-3.81558 23.46875,-5.07143 84.9559,-93.81848 188.99495,-167.80497 294.8125,-236.25 1.39556,-0.89872 2.36062,-1.47866 0.21875,-0.1875 z"
         id="path3786"
         inkscape:connector-curvature="0"
         sodipodi:nodetypes="ccccc" />
      <path
         style="fill:#47b831;stroke:none"
         d="m 631.65625,337.96875 -31.625,1.21875 31.5,6.5625 c 0.50491,-2.5928 0.56519,-5.17611 0.125,-7.78125 z m -1.8125,13.375 -45.96875,5.03125 37.71875,8.1875 c 3.54466,-4.5084 6.44288,-8.88601 8.25,-13.21875 z m -9.875,15.28125 -54.28125,0.84375 40.21875,14.625 c 5.12591,-5.39572 9.98974,-10.52127 14.0625,-15.46875 z m -57.3125,11.96875 26.4375,19.84375 c 4.76283,-4.19837 9.48,-8.68086 14.15625,-13.53125 l -40.59375,-6.3125 z M 546.5,381.625 575.78125,408.90625 535.375,389.6875 l 27.84375,28.78125 c 8.43824,-5.82326 16.54873,-11.93808 24.46875,-18.8125 L 546.5,381.625 z m -24.25,16.15625 27.125,29.84375 c 4.38031,-2.77951 8.65322,-5.56696 12.84375,-8.4375 L 522.25,397.78125 z m -18.1875,13.125 32.84375,24.4375 c 3.53545,-2.14726 7.0077,-4.26964 10.40625,-6.40625 l -43.25,-18.03125 z m -21.21875,10.125 37.375,24.34375 c 4.64045,-2.76965 9.26053,-5.53485 13.65625,-8.1875 l -51.03125,-16.15625 z"
         id="path3788"
         inkscape:connector-curvature="0" />
    </g>
  </g>
  <g
     inkscape:groupmode="layer"
     id="layer2"
     inkscape:label="Layer"
     transform="translate(-154.4892,-308.75372)">
    <g
       id="g3037"
       transform="translate(-49.995541,-49.992083)">
      <path
         transform="matrix(1,0,0,0.94705882,31.332947,150.53221)"
         d="m 455.71429,396.64789 c 0,67.06315 -51.48725,121.42857 -115,121.42857 -63.51274,0 -115,-54.36542 -115,-121.42857 0,-67.06315 51.48726,-121.42858 115,-121.42858 63.51275,0 115,54.36543 115,121.42858 z"
         sodipodi:ry="121.42857"
         sodipodi:rx="115"
         sodipodi:cy="396.64789"
         sodipodi:cx="340.71429"
         id="path3815"
         style="fill:#aaffaa;fill-opacity:1;fill-rule:nonzero;stroke:#00d400;stroke-width:5.13785124;stroke-miterlimit:4;stroke-opacity:1;stroke-dasharray:none"
         sodipodi:type="arc" />
      <path
         sodipodi:type="arc"
         style="fill:url(#radialGradient3043);fill-opacity:1;fill-rule:nonzero;stroke:none"
         id="path3817"
         sodipodi:cx="340.71429"
         sodipodi:cy="396.64789"
         sodipodi:rx="115"
         sodipodi:ry="121.42857"
         d="m 455.71429,396.64789 c 0,67.06315 -51.48725,121.42857 -115,121.42857 -63.51274,0 -115,-54.36542 -115,-121.42857 0,-67.06315 51.48726,-121.42858 115,-121.42858 63.51275,0 115,54.36543 115,121.42858 z"
         transform="matrix(1,0,0,0.94705882,31.332947,150.53221)" />
      <path
         sodipodi:type="arc"
         style="fill:url(#linearGradient3045);fill-opacity:1;fill-rule:nonzero;stroke:none"
         id="path3827"
         sodipodi:cx="340.71429"
         sodipodi:cy="396.64789"
         sodipodi:rx="115"
         sodipodi:ry="121.42857"
         d="m 455.71429,396.64789 c 0,67.06315 -51.48725,121.42857 -115,121.42857 -63.51274,0 -115,-54.36542 -115,-121.42857 0,-67.06315 51.48726,-121.42858 115,-121.42858 63.51275,0 115,54.36543 115,121.42858 z"
         transform="matrix(1,0,0,0.94705882,31.332947,150.53221)" />
      <path
         transform="matrix(0.8136646,0,0,0.57058824,94.820081,252.71562)"
         d="m 455.71429,396.64789 c 0,67.06315 -51.48725,121.42857 -115,121.42857 -63.51274,0 -115,-54.36542 -115,-121.42857 0,-67.06315 51.48726,-121.42858 115,-121.42858 63.51275,0 115,54.36543 115,121.42858 z"
         sodipodi:ry="121.42857"
         sodipodi:rx="115"
         sodipodi:cy="396.64789"
         sodipodi:cx="340.71429"
         id="path3839"
         style="opacity:0.75;fill:url(#linearGradient3047);fill-opacity:1;fill-rule:nonzero;stroke:none"
         sodipodi:type="arc" />
    </g>
  </g>
</svg>
