/* XPM */
static char * pidgin_16x16_xpm[] = {
"16 16 149 2",
"  	c None",
". 	c #522259",
"+ 	c #56245F",
"@ 	c #5B2664",
"# 	c #411C48",
"$ 	c #421D49",
"% 	c #3D1A43",
"& 	c #421C48",
"* 	c #3F1B46",
"= 	c #422049",
"- 	c #8F6A97",
"; 	c #B18FB9",
"> 	c #C4A5CB",
", 	c #B796BE",
"' 	c #9A78A2",
") 	c #4F2E54",
"! 	c #3E1B45",
"~ 	c #5B3762",
"{ 	c #BA98C2",
"] 	c #B58ABF",
"^ 	c #A26DAF",
"/ 	c #9A60A8",
"( 	c #A06AAD",
"_ 	c #AE7FB9",
": 	c #C0A0C8",
"< 	c #6C4B73",
"[ 	c #3E1B44",
"} 	c #432049",
"| 	c #BB99C3",
"1 	c #A876B4",
"2 	c #985DA6",
"3 	c #9B61A8",
"4 	c #9D64AA",
"5 	c #9E66AB",
"6 	c #9F68AC",
"7 	c #A774B3",
"8 	c #C1A2C9",
"9 	c #4B2A51",
"0 	c #8E6996",
"a 	c #B78DC1",
"b 	c #B083BB",
"c 	c #EEE5F1",
"d 	c #F0E7F2",
"e 	c #C19DC9",
"f 	c #A672B2",
"g 	c #C7A6CE",
"h 	c #F5EFF6",
"i 	c #BFAAC4",
"j 	c #411C47",
"k 	c #B08DB8",
"l 	c #A875B3",
"m 	c #E6D8EA",
"n 	c #FFFFFF",
"o 	c #F1E9F3",
"p 	c #AD7EB8",
"q 	c #AF80B9",
"r 	c #F6F2F7",
"s 	c #401C47",
"t 	c #3C1A42",
"u 	c #C5A5CD",
"v 	c #A16CAE",
"w 	c #F9F5F9",
"x 	c #765E7A",
"y 	c #A595A8",
"z 	c #FBF9FC",
"A 	c #B489BE",
"B 	c #B68CC0",
"C 	c #705674",
"D 	c #AE9FB0",
"E 	c #513155",
"F 	c #3C1942",
"G 	c #C6A6CD",
"H 	c #A16BAE",
"I 	c #E1D0E5",
"J 	c #6B516F",
"K 	c #9E8DA1",
"L 	c #E5D7E9",
"M 	c #9C74A7",
"N 	c #906A9A",
"O 	c #684B6D",
"P 	c #FCFAFC",
"Q 	c #C2A0CA",
"R 	c #A36EB0",
"S 	c #AF83B9",
"T 	c #DCCDE0",
"U 	c #EADEEC",
"V 	c #966F9F",
"W 	c #EEE6DA",
"X 	c #D07E3C",
"Y 	c #ECE5DB",
"Z 	c #DDD3E0",
"` 	c #D2C2D5",
" .	c #47214D",
"..	c #3D1A44",
"+.	c #BC99C5",
"@.	c #A46FB0",
"#.	c #7F518B",
"$.	c #9E6E68",
"%.	c #976974",
"&.	c #8B5E79",
"*.	c #D59F69",
"=.	c #FBB558",
"-.	c #D86C13",
";.	c #955046",
">.	c #A95732",
",.	c #4D2855",
"'.	c #B792BF",
").	c #9A62A7",
"!.	c #794C7B",
"~.	c #DEA76A",
"{.	c #FDC26A",
"].	c #F57900",
"^.	c #F37901",
"/.	c #894B4A",
"(.	c #3F1B45",
"_.	c #B089B9",
":.	c #A36EAF",
"<.	c #965AA4",
"[.	c #7F4E89",
"}.	c #A3746A",
"|.	c #D49F69",
"1.	c #F4BA6A",
"2.	c #D06918",
"3.	c #8B4D50",
"4.	c #825D8A",
"5.	c #A27EAA",
"6.	c #A26DAE",
"7.	c #8F509E",
"8.	c #9154A0",
"9.	c #9457A2",
"0.	c #91579F",
"a.	c #855092",
"b.	c #774784",
"c.	c #814D8D",
"d.	c #A16DAD",
"e.	c #B596BD",
"f.	c #432149",
"g.	c #724E79",
"h.	c #9763A4",
"i.	c #864995",
"j.	c #8A4D98",
"k.	c #8C519A",
"l.	c #8E549C",
"m.	c #8F559D",
"n.	c #8F569D",
"o.	c #8D539B",
"p.	c #A273AC",
"q.	c #8E6697",
"r.	c #3F1C45",
"        . + @                   ",
"          # $ % & *             ",
"        = - ; > , ' ) !         ",
"      ~ { ] ^ / ( _ : < [       ",
"    } | 1 2 3 4 5 6 7 8 9       ",
"  * 0 a b c d e f 7 g h i *     ",
"  j k l m n n o p q d n r s     ",
"  t u v w x y z A B C D n E     ",
"  F G H I J K L M N O D P }     ",
"  % Q R S T U V W X Y Z `  .    ",
"  ..+.@.#.$.%.&.*.=.-.;.>.,.    ",
"  ! '.R ).!.~.{.{.{.].^./.      ",
"  (._.:.<.2 [.}.|.1.2.3.4.      ",
"  j 5.6.7.8.9.0.a.b.c.d.e.f.    ",
"  t g.h.i.j.k.l.m.n.m.o.p.q.r.  ",
"                                "};
