/* XPM */
static char * firefox_32x32_xpm[] = {
"32 32 106 2",
"  	c None",
". 	c #9E9EC5",
"+ 	c #7176AD",
"@ 	c #2C418E",
"# 	c #203384",
"$ 	c #22628E",
"% 	c #00599C",
"& 	c #0060A6",
"* 	c #00357C",
"= 	c #5B627C",
"- 	c #004890",
"; 	c #046BA9",
"> 	c #1290C9",
", 	c #18B4E4",
"' 	c #0576B2",
") 	c #00296D",
"! 	c #2C4269",
"~ 	c #005590",
"{ 	c #0982BF",
"] 	c #22BEEE",
"^ 	c #0EA2D6",
"/ 	c #1079B6",
"( 	c #7D4733",
"_ 	c #BA6221",
": 	c #593D33",
"< 	c #666666",
"[ 	c #EAC0A0",
"} 	c #00126A",
"| 	c #6D6D6D",
"1 	c #FFC13A",
"2 	c #FED553",
"3 	c #DC5F14",
"4 	c #D54C0C",
"5 	c #001859",
"6 	c #003366",
"7 	c #7E5550",
"8 	c #FEDAA2",
"9 	c #A27350",
"0 	c #004270",
"a 	c #FFEC61",
"b 	c #FFFF99",
"c 	c #F79F55",
"d 	c #C43F08",
"e 	c #D9530C",
"f 	c #F3914B",
"g 	c #BD9960",
"h 	c #E07D2E",
"i 	c #0099CC",
"j 	c #004381",
"k 	c #9C5322",
"l 	c #FFF47B",
"m 	c #FEB234",
"n 	c #A69082",
"o 	c #C32801",
"p 	c #F1741F",
"q 	c #FF8136",
"r 	c #EF6B18",
"s 	c #F77D29",
"t 	c #BA3B0B",
"u 	c #002C52",
"v 	c #E9A631",
"w 	c #CD7631",
"x 	c #E55B08",
"y 	c #E45201",
"z 	c #B52C05",
"A 	c #2E1E26",
"B 	c #008EC4",
"C 	c #EC6411",
"D 	c #A62606",
"E 	c #7B2F0E",
"F 	c #301B0D",
"G 	c #FFD73A",
"H 	c #BC7344",
"I 	c #F0AF83",
"J 	c #FFE836",
"K 	c #FFCC33",
"L 	c #D34108",
"M 	c #F07E30",
"N 	c #CC3300",
"O 	c #EB8932",
"P 	c #9C653F",
"Q 	c #9E1703",
"R 	c #5E5750",
"S 	c #002167",
"T 	c #F9C025",
"U 	c #B70F00",
"V 	c #5A321F",
"W 	c #000D4F",
"X 	c #333333",
"Y 	c #00073F",
"Z 	c #FF9933",
"` 	c #9E1C05",
" .	c #E76212",
"..	c #B40100",
"+.	c #000326",
"@.	c #999999",
"#.	c #C31801",
"$.	c #FF8F37",
"%.	c #E5781B",
"&.	c #000033",
"*.	c #F3A81B",
"=.	c #ED9317",
"-.	c #FDB64D",
";.	c #BE1900",
">.	c #DF6E17",
",.	c #7B7B7B",
"                          . . . . .                             ",
"                    + @ # $ % & % @ * # = .                     ",
"                + # - ; > > , , , > > ' % ) ! .                 ",
"              # ) ~ ; ; { > , ] ] ^ { / & ( _ : <               ",
"        [   } ) - ~ ~ ~ | / , , ] > / / & ~ : 1 2 _             ",
"      3 4 ! 5 6 6 6 7 8 9 { , , ^ > / ' & ~ 0 : a b c           ",
"      d 4 e 9 f g f c h % ^ ^ > > > > ^ i ~ j 0 k l b m n       ",
"      o e p q h f r s t ' i ^ ^ ^ ^ ^ i i % j * u v b l w       ",
"    n 4 x y x x x r r z A ' B i ^ i i i i B % ; % : 2 l 2 9     ",
"    ( y y y y x x C x y D E F $ i i i B B { { ' ; 0 1 a a w     ",
"    y y y y x x x x x e o c n ' B B B B { ' ; ' ; ~ _ 2 G G n   ",
"  H y y y y y x x x C r I n & { B { ' ; ' - j & & * ( J K K 9   ",
"  t L y y y x x x r r M h ~ ' ' ' ' & j - * * - - * : 1 K K 9   ",
"  ( N y y x x x r p M O f ! ' ' ' ' & * * ) ) * % j ( 1 1 1 P   ",
"  Q L y y y x 3 z D E : 7 R & ; & ; & ~ * ) S S * 6 ( m 1 T P   ",
"  U N y y y y D D z V j ~ % % & & % & % S S 5 5 5 W w v m m P   ",
"  U o y y y 4 t z t 3 X j - - j 0 j - - ) 5 5 W Y u Z m Z m P   ",
"  ` U y y y e d d d  .3 V X V _ q f 9 j * 5 W W W k O m Z Z 7   ",
"  ` ..L y y x d 4 4 e  .r r p p p 3 f 5 W W Y Y +.O Z m Z Z @.  ",
"  7 ..#.y y x x e 3 3 ` d d 4 L t u S Y Y Y A A _ Z a $.Z w     ",
"    ....N y x x  . .%.e ` D E V S ) W Y &.+._ ( Z 1 b Z Z (     ",
"    E ....L y x x C C r 3 +.Y } } * &.&.+.k Z $.*.b a $.h       ",
"      U ..U L x C x C C r r k A 5 W Y V %.s $.*.l l Z Z :       ",
"      E ......o y C C C r r r p p p s =.r p m a a -.Z k         ",
"        Q ........#.L x r r r r r  .x e %.*.T 2 1 Z w           ",
"          Q ..............U o L N N e %.=.*.T T $.O <           ",
"            Q ..................;.N e >.=.=.=.p w <             ",
"              ` ................U ;.L e x 3 r _ ,.              ",
"                  ` U ............U o N d 4 :                   ",
"                      : Q U U U z D D E =                       ",
"                            . = .                               ",
"                                                                "};
