/* XPM */
static char *libreoffice___x__[] = {
/* columns rows colors chars-per-pixel */
"16 16 48 1",
"  c #353535",
". c #383838",
"X c #3B3B3B",
"o c #3E3E3E",
"O c #414141",
"+ c #444444",
"@ c #484848",
"# c #4B4B4B",
"$ c #4E4E4E",
"% c #515151",
"& c #545454",
"* c #575757",
"= c #5B5B5B",
"- c #5E5E5E",
"; c #616161",
": c #646464",
"> c #929292",
", c #969696",
"< c #999999",
"1 c #9E9E9E",
"2 c #A3A3A3",
"3 c #A6A6A6",
"4 c #B4B4B4",
"5 c #B8B8B8",
"6 c #BCBCBC",
"7 c #C0C0C0",
"8 c #C3C3C3",
"9 c #C7C7C7",
"0 c #CBCBCB",
"q c #CECECE",
"w c #D2D2D2",
"e c #D6D6D6",
"r c #D9D9D9",
"t c #DDDDDD",
"y c #DFDFDF",
"u c #E1E1E1",
"i c #E2E2E2",
"p c #E4E4E4",
"a c #E7E7E7",
"s c #E9E9E9",
"d c #F5F5F5",
"f c #F6F6F6",
"g c #F7F7F7",
"h c #F8F8F8",
"j c #F9F9F9",
"k c #FAFAFA",
"l c #FBFBFB",
"z c None",
/* pixels */
"z::::::::zz::::z",
"z;ppuupp3;zz;;;z",
"z-ullllls3-zz--z",
"z=tllllglp1=zz=z",
"z*ellllllgp<*zzz",
"z*ellglglllu,*zz",
"z%wgggllglggt>%z",
"z$qlglgggglglq$z",
"z#0lggggggggg0#z",
"z+9gggggggggg9#z",
"z+7lggggggggl7Oz",
"zO6gggdgggggg7Oz",
"zo6ggdgddgggg6oz",
"zX4gdddddddgd4Xz",
"zX444444444444Xz",
"z              z"
};
