/* XPM */
static char * depthA_xpm[] = {
"15 34 32 1",
" 	c None",
".	c #858686",
"+	c #9A9A9A",
"@	c #AEAEAE",
"#	c #363636",
"$	c #0D0E13",
"%	c #040404",
"&	c #C2C2C2",
"*	c #4A4A4A",
"=	c #2D333D",
"-	c #56657A",
";	c #5D6E86",
">	c #D6D6D6",
",	c #4D5868",
"'	c #677B98",
")	c #6E809C",
"!	c #58667E",
"~	c #EAEAEA",
"{	c #232D3A",
"]	c #798EAA",
"^	c #7E96B6",
"/	c #FEFEFE",
"(	c #3C4553",
"_	c #8CA3C5",
":	c #111214",
"<	c #323F4F",
"[	c #435165",
"}	c #C7CDD4",
"|	c #717273",
"1	c #181C22",
"2	c #1D2632",
"3	c #5D5D5E",
"...............",
"+++++++++++++++",
"@@@@.#$%$#.@@@@",
"&&&*=-;;;-=*&&&",
">>,*-;')';!*,>>",
"~@{,;)]^]);,{@~",
"/*(-;)^_^);,(,/",
"~:(,;)<(<);,*:~",
">%([!=)))}![(%>",
"&:=*[-}}&-,[=$&",
"@#=<*[,-,[(<{#@",
"+|:{<(((*(<=:|+",
"..#1{=<==={1#..",
"|||{$12221$=|||",
"3333(1%%%1(3333",
"***************",
"###############",
"...............",
"+++++++++++++++",
"@@@@|{$%%=|@@@@",
"&&&(2**[[(2(&&&",
">>*=([,3,,*#*>>",
"~+1([3!;!,[(2+~",
"/(#([,;'!-[(#(/",
"~:=([,{={,[<=:~",
">%{<(2,-,+(<=%>",
"&$2#((^+.[<=2$&",
"@=2{=#<<(<#{1=@",
"+3$2{===={{2$!+",
"..=:122{221:=..",
"|||{%1111:$2|||",
"3333#1%%%:*3333",
"***************",
"###############"};
