/* XPM */
static char * lxappearance_32x32_xpm[] = {
"32 32 264 2",
"  	c None",
". 	c #4F75A5",
"+ 	c #3767A4",
"@ 	c #3465A4",
"# 	c #3565A4",
"$ 	c #4770A3",
"% 	c #5A7AA4",
"& 	c #678BBA",
"* 	c #B8CAE0",
"= 	c #BECFE3",
"- 	c #B2C7DF",
"; 	c #A4BEDB",
"> 	c #96B5D7",
", 	c #88ACD3",
"' 	c #79A2CF",
") 	c #5180B7",
"! 	c #4D74A2",
"~ 	c #5777A1",
"{ 	c #4B73A6",
"] 	c #3C6BA7",
"^ 	c #91AED1",
"/ 	c #546B8B",
"( 	c #15325C",
"_ 	c #15325D",
": 	c #15335E",
"< 	c #3F5D86",
"[ 	c #6794C7",
"} 	c #3667A5",
"| 	c #57779F",
"1 	c #3868A5",
"2 	c #658DBE",
"3 	c #81A6CF",
"4 	c #4F7BB3",
"5 	c #87A7CD",
"6 	c #7D95B4",
"7 	c #193A6B",
"8 	c #193C6E",
"9 	c #193D70",
"0 	c #4C6D97",
"a 	c #6392C5",
"b 	c #3D6DAA",
"c 	c #82A6CF",
"d 	c #668FBF",
"e 	c #3867A5",
"f 	c #9EBDDE",
"g 	c #83AAD5",
"h 	c #7397C4",
"i 	c #9AB8D9",
"j 	c #94ADCC",
"k 	c #7995BA",
"l 	c #7794BC",
"m 	c #7392BA",
"n 	c #7998BE",
"o 	c #83A8D2",
"p 	c #5587BF",
"q 	c #4373AE",
"r 	c #9EBCDD",
"s 	c #729FCF",
"t 	c #5D8BC1",
"u 	c #5782B7",
"v 	c #8CAFD5",
"w 	c #89ADD4",
"x 	c #83A5CF",
"y 	c #517BB0",
"z 	c #7A9FCB",
"A 	c #77A1CF",
"B 	c #6494C8",
"C 	c #4A7BB5",
"D 	c #507FB6",
"E 	c #6C98C9",
"F 	c #99B8D9",
"G 	c #6C9ACB",
"H 	c #3B69A8",
"I 	c #8CAED5",
"J 	c #638CBE",
"K 	c #3B66A3",
"L 	c #505A91",
"M 	c #5C88BD",
"N 	c #6797CA",
"O 	c #4977B0",
"P 	c #5B88BD",
"Q 	c #6591C3",
"R 	c #95B3D4",
"S 	c #9BBADB",
"T 	c #6D9ACA",
"U 	c #3C6CA9",
"V 	c #3A6AA7",
"W 	c #4166A2",
"X 	c #5E3F70",
"Y 	c #6B4572",
"Z 	c #5A3C6D",
"` 	c #406BA6",
" .	c #4572AB",
"..	c #3968A7",
"+.	c #608BBE",
"@.	c #5F8ABC",
"#.	c #91ADD0",
"$.	c #97B6D7",
"%.	c #6792C4",
"&.	c #4F7DB5",
"*.	c #4B79B2",
"=.	c #5F5B8D",
"-.	c #623C6C",
";.	c #66406E",
">.	c #633E6C",
",.	c #5D5C8D",
"'.	c #4976AF",
").	c #4977AF",
"!.	c #5A84B7",
"~.	c #5983B6",
"{.	c #8CA9CC",
"].	c #9A9A9A",
"^.	c #959595",
"/.	c #949494",
"(.	c #949598",
"_.	c #93ACC9",
":.	c #5F8ABD",
"<.	c #5E89BB",
"[.	c #5D87BA",
"}.	c #5D4071",
"|.	c #714B78",
"1.	c #75507B",
"2.	c #714C78",
"3.	c #5D3E70",
"4.	c #567FB3",
"5.	c #547EB2",
"6.	c #537DB1",
"7.	c #527CB0",
"8.	c #88A4C8",
"9.	c #B5B5B5",
"0.	c #E9E9E9",
"a.	c #ECECEC",
"b.	c #E8E8E8",
"c.	c #E4E4E4",
"d.	c #E0E0E0",
"e.	c #DCDCDC",
"f.	c #D7D7D7",
"g.	c #B4B4B4",
"h.	c #979A9D",
"i.	c #5A84B8",
"j.	c #5882B5",
"k.	c #5680B4",
"l.	c #5C3666",
"m.	c #754F7B",
"n.	c #5C3566",
"o.	c #4F78AD",
"p.	c #86A2C7",
"q.	c #969696",
"r.	c #9C9C9C",
"s.	c #D4D4D4",
"t.	c #C1C1C1",
"u.	c #A3A3A3",
"v.	c #A2A2A2",
"w.	c #A1A1A1",
"x.	c #BDBDBD",
"y.	c #CECECE",
"z.	c #999A9C",
"A.	c #84909D",
"B.	c #607FA8",
"C.	c #5079AE",
"D.	c #7B5881",
"E.	c #C9C9C9",
"F.	c #E7E7E7",
"G.	c #ADADAD",
"H.	c #D1D1D1",
"I.	c #D5D5D5",
"J.	c #989898",
"K.	c #979797",
"L.	c #CCCCCC",
"M.	c #9E9E9E",
"N.	c #CBCBCB",
"O.	c #846389",
"P.	c #F9F9F9",
"Q.	c #F3F3F3",
"R.	c #BABABA",
"S.	c #C8C8C8",
"T.	c #E3E3E3",
"U.	c #E6E6E6",
"V.	c #D3D3D3",
"W.	c #C2C2C2",
"X.	c #A8A8A8",
"Y.	c #8D6F92",
"Z.	c #EFEFEF",
"`.	c #D0D0D0",
" +	c #B7B7B7",
".+	c #DEDEDE",
"++	c #D9D9D9",
"@+	c #DDDDDD",
"#+	c #BFBFBF",
"$+	c #EAEAEA",
"%+	c #F7F7F7",
"&+	c #977B9B",
"*+	c #9B9B9B",
"=+	c #C4C4C4",
"-+	c #919191",
";+	c #828381",
">+	c #929292",
",+	c #C0C0C0",
"'+	c #D6D6D6",
")+	c #ACACAC",
"!+	c #F5F5F5",
"~+	c #A086A4",
"{+	c #F8F8F8",
"]+	c #EBEBEB",
"^+	c #3F4344",
"/+	c #4F5351",
"(+	c #3C4042",
"_+	c #9E9E9F",
":+	c #A4A4A4",
"<+	c #E2E2E2",
"[+	c #E1E1E1",
"}+	c #A992AD",
"|+	c #F6F6F6",
"1+	c #BBBBBB",
"2+	c #7F8081",
"3+	c #393F3F",
"4+	c #3C4141",
"5+	c #808384",
"6+	c #F2F2F2",
"7+	c #B29EB5",
"8+	c #76517C",
"9+	c #F4F4F4",
"0+	c #44494B",
"a+	c #4E514E",
"b+	c #545753",
"c+	c #4E524E",
"d+	c #434849",
"e+	c #DBDBDB",
"f+	c #DADADA",
"g+	c #D8D8D8",
"h+	c #F0F0F0",
"i+	c #A891AB",
"j+	c #B5A2B9",
"k+	c #2F3537",
"l+	c #5B5E5A",
"m+	c #5C5F5B",
"n+	c #2E3436",
"o+	c #405690",
"p+	c #5E3C6C",
"q+	c #947999",
"r+	c #603E6E",
"s+	c #41558E",
"t+	c #456A99",
"u+	c #F1F1F1",
"v+	c #6D6F6B",
"w+	c #666964",
"x+	c #7F827D",
"y+	c #6F736D",
"z+	c #91948E",
"A+	c #797D76",
"B+	c #9B9E99",
"C+	c #7B7F78",
"D+	c #A4A7A2",
"E+	c #ADAFAB",
"F+	c #B5B8B4",
"G+	c #7C8079",
"H+	c #A4A8A4",
"I+	c #B9BBB7",
"J+	c #A7A9A6",
"K+	c #747677",
"L+	c #3A4040",
"M+	c #868A88",
"N+	c #3C4143",
"O+	c #717373",
"                                                                ",
"                                  . + @ @ @ @ @ # $             ",
"                                % & * = - ; > , ' ) !           ",
"                            ~ { ] ^ / ( _ : : _ < [ } { |       ",
"                          1 2 3 4 5 6 7 8 9 9 8 0 a b c d e     ",
"                          @ f g ) h i j k l m n o p q g r @     ",
"                          @ f s t u v w x y z A B C D E F @     ",
"                          @ f s G H I J K L K M N O P Q R @     ",
"                          @ S T E U V W X Y Z `  ...+.@.#.@     ",
"                          @ $.%.Q &.*.=.-.;.>.,.'.).!.~.{.@     ",
"          ].^./././././.^.(._.+.:.<.[.}.|.1.2.3.4.5.6.7.8.@     ",
"        ].9.0.a.b.c.d.e.f.g.h.i.~.j.k.l.m.1.1.n.o.o.o.o.p.@     ",
"    q.r.].s.t.u.v.w.w.v.x.y.q.z.A.B.C.n.D.1.D.n.o.o.o.o.p.@     ",
"  ^.E.F.G.H.I.].J.K.K.J.t.L.M.F.N.^.o.n.O.1.O.n.o.o.o.o.p.@     ",
"  /.P.Q.R.S.T.U.V.H.H.e.F.W.X.Q.P./.o.n.Y.1.Y.n.o.o.o.o.p.@     ",
"  /.P.Z.`. +d..+e.9.++@+H.g.#+$+%+/.o.n.&+1.&+n.o.o.o.o.p.@     ",
"  /.P.Z.F.*+F.=+-+;+>+,+'+)+I.U.!+/.o.n.~+1.~+n.o.o.o.o.p.@     ",
"  /.{+]+$+w.r./.^+/+(+_+:+].<+[+Q./.o.n.}+1.}+n.o.o.o.o.p.@     ",
"  /.|+F.U.t.1+2+3+4+4+5+1+x.@+@+6+/.o.n.7+8+7+n.o.o.o.o.p.@     ",
"  /.9+<+[+[+d.0+a+b+c+d+e+f+++g+h+/.p.n.i+j+}+n.p.p.p.p.p.#     ",
"  /.6+.+@+e.e+k+l+m+m+n+'+'+'+'+Z./.@ o+p+q+r+s+@ @ @ @ @ t+    ",
"  /.u+++g+f.f.n+v+w+v+n+'+'+'+'+Z./.      n.                    ",
"  /.Z.'+'+'+'+n+x+y+x+n+'+'+'+'+Z./.                            ",
"  /.Z.'+'+'+'+n+z+A+z+n+'+'+'+'+Z./.                            ",
"  /.Z.'+'+'+'+n+B+C+B+n+'+'+'+'+Z./.                            ",
"  /.Z.'+'+'+'+n+D+C+D+n+'+'+'+'+Z./.                            ",
"  /.Z.'+'+'+'+n+E+C+E+n+'+'+'+'+Z./.                            ",
"  /.Z.'+'+'+'+n+F+G+F+n+'+'+'+'+Z./.                            ",
"  /.Z.Z.Z.Z.Z.n+H+I+J+n+Z.Z.Z.Z.Z./.                            ",
"  /./././././.K+L+M+N+O+/././././.-+                            ",
"                  n+                                            ",
"                                                                "};
