/* XPM */
static char * wine_16x16_xpm[] = {
"16 16 89 1",
" 	c None",
".	c #E3DAD8",
"+	c #E9E1DE",
"@	c #E6E0DD",
"#	c #DEDBD8",
"$	c #D2D6D2",
"%	c #B7BAB5",
"&	c #D1D5D0",
"*	c #DFDBD8",
"=	c #E9E2DF",
"-	c #F0E6E5",
";	c #EEE5E3",
">	c #E6DFDD",
",	c #DAD9D5",
"'	c #CAD1CC",
")	c #A39F9B",
"!	c #E4E1DF",
"~	c #E9E3E1",
"{	c #F4EAE8",
"]	c #F6EBEB",
"^	c #EFE8E6",
"/	c #C39EA0",
"(	c #A8797F",
"_	c #DDE3DE",
":	c #F3EBEA",
"<	c #E5DEDB",
"[	c #F2E7E6",
"}	c #FFFFFD",
"|	c #A9626C",
"1	c #71000C",
"2	c #770011",
"3	c #895258",
"4	c #DFC4C6",
"5	c #CEB0B2",
"6	c #C28C93",
"7	c #962636",
"8	c #880015",
"9	c #830319",
"0	c #7C0619",
"a	c #8C444E",
"b	c #92394A",
"c	c #C9959F",
"d	c #900013",
"e	c #A00215",
"f	c #A40214",
"g	c #9A0216",
"h	c #890317",
"i	c #7D1524",
"j	c #7C2F3B",
"k	c #B26A78",
"l	c #BD5764",
"m	c #B1000F",
"n	c #BE0011",
"o	c #AA0113",
"p	c #930316",
"q	c #780011",
"r	c #7D182A",
"s	c #BA6976",
"t	c #B82737",
"u	c #B20011",
"v	c #A60214",
"w	c #910416",
"x	c #7E1525",
"y	c #80172A",
"z	c #9D2F40",
"A	c #9B091C",
"B	c #810215",
"C	c #93535C",
"D	c #7F323E",
"E	c #7E0F23",
"F	c #7C0014",
"G	c #8F3E4B",
"H	c #AFA5A3",
"I	c #C3D1CB",
"J	c #BDC8C2",
"K	c #BBCAC3",
"L	c #CBD2CD",
"M	c #DAD6D3",
"N	c #E5E0DD",
"O	c #D6D9D4",
"P	c #D3D8D3",
"Q	c #D0D8D2",
"R	c #CAD2CD",
"S	c #C5CAC6",
"T	c #B7BCB1",
"U	c #B5ABA8",
"V	c #B7B1AC",
"W	c #B7B1AD",
"X	c #B1AAA6",
"   .+@#$        ",
"%&*=-;>,'       ",
")!~+{]^/(       ",
" _:<[}|12       ",
" 34567890a      ",
"  bcdefghi      ",
"  jklmnopq      ",
"   rstuvwx      ",
"    yzApBC      ",
"     DEFG       ",
"       H        ",
"        I       ",
"        J       ",
"        KL      ",
"      MNOPQRST  ",
"     UVWX       "};
