/* XPM */
static char *totem_32x32[] = {
/* columns rows colors chars-per-pixel */
"32 32 190 2 ",
"   c #0D1A2D",
".  c #1F2424",
"X  c #0E233E",
"o  c #12253D",
"O  c #1B2A3C",
"+  c #1C2834",
"@  c #262B2C",
"#  c #2A2F2F",
"$  c #202424",
"%  c #232E36",
"&  c #2B3131",
"*  c #2F3638",
"=  c #323736",
"-  c #353A3A",
";  c #393D3C",
":  c #323837",
">  c #0F2341",
",  c #112849",
"<  c #112745",
"1  c #142F56",
"2  c #16325C",
"3  c #18355D",
"4  c #1E3554",
"5  c #233449",
"6  c #253446",
"7  c #313E4A",
"8  c #313C45",
"9  c #1B3963",
"0  c #183A6B",
"q  c #1B3F73",
"w  c #3D4343",
"e  c #3B434A",
"r  c #3C4A5C",
"t  c #394754",
"y  c #1D437A",
"u  c #244068",
"i  c #364C67",
"p  c #2A4973",
"a  c #39557A",
"s  c #424646",
"d  c #454949",
"f  c #4A4D4C",
"g  c #444847",
"h  c #50534F",
"j  c #434B50",
"k  c #4D5356",
"l  c #555753",
"z  c #565854",
"x  c #585A56",
"c  c #5B5D5A",
"v  c #575B5B",
"b  c #5E615D",
"n  c #61625F",
"m  c #455361",
"M  c #4A5662",
"N  c #415469",
"B  c #555F69",
"V  c #465D74",
"C  c #5D6160",
"Z  c #5E6A6A",
"A  c #4F6070",
"S  c #626663",
"D  c #676966",
"F  c #636C6C",
"G  c #6B6D6A",
"H  c #6D706D",
"J  c #70726F",
"K  c #646F7D",
"L  c #667171",
"P  c #6C7474",
"I  c #747573",
"U  c #767876",
"Y  c #7A7C79",
"T  c #737A79",
"R  c #7E807E",
"E  c #1D4682",
"W  c #1E4884",
"Q  c #1F4A89",
"!  c #204A87",
"~  c #234E8B",
"^  c #26518C",
"/  c #2B548D",
"(  c #365A88",
")  c #214F90",
"_  c #245294",
"`  c #2E5A99",
"'  c #275595",
"]  c #315B95",
"[  c #385D92",
"{  c #345F98",
"}  c #35609B",
"|  c #3A639C",
" . c #3E6397",
".. c #295BA2",
"X. c #2D60A6",
"o. c #3562A1",
"O. c #3A66A5",
"+. c #3C6BAA",
"@. c #3D69A4",
"#. c #3F6EB3",
"$. c #366AB0",
"%. c #426DA5",
"&. c #426EA9",
"*. c #4572AD",
"=. c #4B74AA",
"-. c #5577A6",
";. c #406EB0",
":. c #4976B6",
">. c #4E7BB3",
",. c #4473B8",
"<. c #4776B6",
"1. c #517DB2",
"2. c #507FBC",
"3. c #7C8384",
"4. c #7D8A98",
"5. c #5481B7",
"6. c #5684BB",
"7. c #5886BC",
"8. c #7F93AF",
"9. c #6589B8",
"0. c #6990BD",
"q. c #7E98B9",
"w. c #5B8AC2",
"e. c #5987C1",
"r. c #628EC4",
"t. c #6D94CA",
"y. c #6792C8",
"u. c #7596C6",
"i. c #7397CB",
"p. c #759ACD",
"a. c #799CCE",
"s. c #7A9DD1",
"d. c #7298D0",
"f. c #838583",
"g. c #8C8E8B",
"h. c #848C8C",
"j. c #8D908D",
"k. c #818F9F",
"l. c #949693",
"z. c #969896",
"x. c #9D9F9B",
"c. c #919999",
"v. c #8E9595",
"b. c #9EA09E",
"n. c #A0A19F",
"m. c #8596AE",
"M. c #9DA3A3",
"N. c #99A9B8",
"B. c #A3A5A4",
"V. c #ABAEAE",
"C. c #A8A9A6",
"Z. c #B0B0AD",
"A. c #AFB2B2",
"S. c #B4B5B4",
"D. c #BCBCBC",
"F. c #B6BAB8",
"G. c #C1C2BF",
"H. c #849EC3",
"J. c #8AA4C6",
"K. c #8CA8CF",
"L. c #8EADD4",
"P. c #83A8D3",
"I. c #91AFD3",
"U. c #93B3D8",
"Y. c #90B0D7",
"T. c #B8BFC6",
"R. c #BBC3CD",
"E. c #BCC0C0",
"W. c #BFC8D0",
"Q. c #C4C4C4",
"!. c #C6C8C8",
"~. c #CBCCCC",
"^. c #C4CCD4",
"/. c #CBCFD4",
"(. c #D4D4D4",
"). c #D8D8D7",
"_. c #DCDCDB",
"`. c #D6D8D8",
"'. c #E0E0DF",
"]. c #DBDEE1",
"[. c #DFE0E0",
"{. c #DAE6F4",
"}. c #DEE8F6",
"|. c #E3E3E3",
" X c #EBEBEB",
".X c #F0F0EF",
"XX c #E1EAF6",
"oX c #F3F3F3",
"OX c #FAFAFA",
"+X c None",
/* pixels */
"+X+X+X+X+X+X+X+X+X+X+X+X+X+X+X+X& l = l } =.y >   0 } =.l = h & ",
"+X+X+X+X+X+X+X+X+X+X+X+X+X+X+X+X& z l l W %.>.( / *.5.Q l l h # ",
"+X+X+X+X+X+X+X+XP F Z H F +X+X+X& x = l W Q ^ | %._ W Q l : z & ",
"+X+X+X+X+XL h.F./._.].!.A.v.F +X& x l l N k m m k m m m l z x & ",
"+X+X+X+XL ~.oX X|._.(.(.(.).Q.T - b = l W ~ =.>.>.%.Q ~ l : b & ",
"+X+X+X3. XoX X X|._.(.~.Q.T.!.`.f b l l ^ 5./ q y | 5./ l l b & ",
"+X+XF ].oXoX.X X X_.).~.Q.D.S.E.C S I l 1.^ W 1   | =.=.l : D & ",
"+XL F. X|..XoX.X X|._.).Q.G.D.G.v S l l 1.! ! q i | ^ >.l l D & ",
"+X3. X[._.). X.X X X|._._.~.Q.Q.x D B.l 1.~ ~ ~ < y ^ 5.l = D & ",
"+XC.|.].).(.). X.X|.).|.[._.(.(.v G l l 1.} _ , X ~ @.&.l l H & ",
"P T.[._.(.(._._.A.P F h.|.|.|._.C G D.l ` 7.&.` ] *.5.' l : J & ",
"L (._.`.(.(._.`.P +X+X+X~. X|.|.C H l z ` ` *.6.5.@.` ] l l I & ",
"F (.).(.~.(._.).L +X+X+X!. X X XS I F.l z z z z z z z z l : Y & ",
"P F.)./.~.!.).'.c.+X+XT  XoX XoXS U x x o.O.O.*.*.| } } x x R & ",
"+XM.(.~.Q.Q.~.).[.~.F._.|..XoXOXD U D.x O.6.6.:.:.w.:.O.x : f.& ",
"+X3.`.!.Q.G.G.~.`._.[._.[.|.oXOXS Y c c 6.:.O.9 p ;.w.:.b b f.# ",
"+XF A.!.G.D.S.D.!.(.)._._.[. XOXF Y D.n r.#.#.O.p e.2.e.n - g.# ",
"+X+XL Q.D.F.F.G.Q.~.(.).[. X XoXF Y n S w.,.,.{ ( ,.,.y.J I l.# ",
"+X+XF f.n.C d j f d d d d d s w - ; - - - - * 8 m r.y.p.Y ; z.# ",
"+X+X+Xf # v U f.h.J.L.H.q.H.J.L.L.L.k.G n f 8 7 * 9.P.t.f.f.x.# ",
"+X+X+X* S.~.(.{.{.{.XXXXXXXXXXXXXX_.Z.n.Y @ & m j j s.a.g.w n.# ",
"+X+X@ Y ).Q.T.T.T.^.R.^.^.^.^.^./.l.f.Z.# 6 5 * k w U l.z.z.n.# ",
"+X+X& S.n.m.u.u.u.i.i.p.p.p.a.J.g.Y n.g 6 4 4 6 l s e N.I I j.& ",
"+X@ B Z.3.:.,.r.P.Y.Y.L.d.d.i.m.-.f.Y # 4 3 9 2 t M e 4.f.x.v # ",
"+X# C.Z.( ..w.$.E u =.a.U.s.u.f.* S ; % O O O O + A ; - D H @ +X",
"+X# U c ' e.....E 0 4 :.t.a.-.n z l @             % - - * . +X+X",
"@ d  XH o.*._ _ E o O.X.X.5.( C.D.f $ +X+X+X+X+X+X+X+X+X+X+X+X+X",
"@ d f.z O.X.) _ ) X E _ *.+.a D n g $ +X+X+X+X+X+X+X+X+X+X+X+X+X",
"@ J '.l { =.Q 1 ,   Q ' r.~ N G.x.w +X+X+X+X+X+X+X+X+X+X+X+X+X+X",
"@ b Y -. .0.-.[ a [ =.9. .] B n c ; +X+X+X+X+X+X+X+X+X+X+X+X+X+X",
"@ = +Xe j i V i t i V t 7 7 - & = # +X+X+X+X+X+X+X+X+X+X+X+X+X+X",
"+X+X+X+X+X+X+X+X+X+X+X+X+X+X+X+X+X+X+X+X+X+X+X+X+X+X+X+X+X+X+X+X"
};
