/* XPM */
static char * poweroff_16x16_xpm[] = {
"16 16 156 2",
"  	c None",
". 	c #EE1D1D",
"+ 	c #E91F1F",
"@ 	c #FF7F7F",
"# 	c #FFA7A7",
"$ 	c #FF9F9F",
"% 	c #FF8484",
"& 	c #FF5959",
"* 	c #FF3A3A",
"= 	c #FE1E1E",
"- 	c #F10606",
"; 	c #E50303",
"> 	c #DE0101",
", 	c #DA0000",
"' 	c #D20000",
") 	c #951212",
"! 	c #FFB5B5",
"~ 	c #FFE2E2",
"{ 	c #FFD5D5",
"] 	c #FFBBBB",
"^ 	c #FFE3E3",
"/ 	c #FFFEFE",
"( 	c #F1F2F2",
"_ 	c #DDAAAA",
": 	c #E21A1A",
"< 	c #DD0202",
"[ 	c #D70000",
"} 	c #D00000",
"| 	c #A31717",
"1 	c #FFB3B3",
"2 	c #FFDDDD",
"3 	c #FFE8E8",
"4 	c #FFFFFF",
"5 	c #FFC8C8",
"6 	c #FF7C7C",
"7 	c #FB5F5F",
"8 	c #E28484",
"9 	c #C2CFCF",
"0 	c #CD4D4D",
"a 	c #D60000",
"b 	c #CF0000",
"c 	c #AD1C1C",
"d 	c #FF9898",
"e 	c #FFC7C7",
"f 	c #FFABAB",
"g 	c #FF6565",
"h 	c #FECDCD",
"i 	c #EFB3B3",
"j 	c #F00505",
"k 	c #DB2B2B",
"l 	c #B5C2C2",
"m 	c #D11212",
"n 	c #CE0000",
"o 	c #AE1818",
"p 	c #FF6C6C",
"q 	c #FFE7E7",
"r 	c #FFCACA",
"s 	c #FF7272",
"t 	c #FF4949",
"u 	c #F7D8D8",
"v 	c #E1BEBE",
"w 	c #EA0303",
"x 	c #DD0303",
"y 	c #C26868",
"z 	c #B58686",
"A 	c #AD1616",
"B 	c #FF4848",
"C 	c #FF8C8C",
"D 	c #FF4C4C",
"E 	c #FF2C2C",
"F 	c #E7C3C3",
"G 	c #D3AFAF",
"H 	c #E30000",
"I 	c #D90404",
"J 	c #C83737",
"K 	c #AAABAB",
"L 	c #CB0000",
"M 	c #B42020",
"N 	c #A91616",
"O 	c #FF2626",
"P 	c #F9F8F8",
"Q 	c #FD6E6E",
"R 	c #FF2B2B",
"S 	c #FC1515",
"T 	c #D4B1B1",
"U 	c #C8A4A4",
"V 	c #DD0000",
"W 	c #D50202",
"X 	c #C53636",
"Y 	c #A6A8A8",
"Z 	c #C80000",
"` 	c #B32020",
" .	c #A51717",
"..	c #FB0A0A",
"+.	c #E3B1B1",
"@.	c #E78888",
"#.	c #F21212",
"$.	c #EC0505",
"%.	c #C6A4A4",
"&.	c #BE9D9D",
"*.	c #D80000",
"=.	c #D30000",
"-.	c #B86161",
";.	c #AC7E7E",
">.	c #A01D1D",
",.	c #EB0606",
"'.	c #E51D1D",
").	c #C5D3D3",
"!.	c #DD2C2C",
"~.	c #E00000",
"{.	c #C18585",
"].	c #BB8181",
"^.	c #D40000",
"/.	c #C72222",
"(.	c #A1AEAE",
"_.	c #C61010",
":.	c #C40000",
"<.	c #951919",
"[.	c #E40202",
"}.	c #DF0303",
"|.	c #D04F4F",
"1.	c #B7C3C3",
"2.	c #C36A6A",
"3.	c #CB2F2F",
"4.	c #C82E2E",
"5.	c #B86262",
"6.	c #B94242",
"7.	c #C70000",
"8.	c #C10000",
"9.	c #861717",
"0.	c #D90101",
"a.	c #D21313",
"b.	c #B78787",
"c.	c #ABACAC",
"d.	c #A7A8A8",
"e.	c #AD7E7E",
"f.	c #BE0000",
"g.	c #741A1A",
"h.	c #DB0000",
"i.	c #D50000",
"j.	c #D10000",
"k.	c #CC0000",
"l.	c #CA0000",
"m.	c #C60000",
"n.	c #C00000",
"o.	c #B70000",
"p.	c #5C1212",
"q.	c #6D1C1C",
"r.	c #771515",
"s.	c #852121",
"t.	c #851A1A",
"u.	c #851818",
"v.	c #831B1B",
"w.	c #812323",
"x.	c #701313",
"y.	c #681E1E",
"                                ",
"              . +               ",
"    @ # $ % & * = - ; > , '     ",
"  ) ! ~ { ] ^ / ( _ : < [ }     ",
"  | 1 2 3 4 5 6 7 8 9 0 a b     ",
"  c d e 4 f g h i j k l m n     ",
"  o p q r s t u v w x y z n     ",
"  A B / C D E F G H I J K L M   ",
"  N O P Q R S T U V W X Y Z `   ",
"   ...+.@.#.$.%.&.*.=.-.;.Z     ",
"  >.,.'.).!.~.{.].^./.(._.:.    ",
"  <.[.}.|.1.2.3.4.5.(.6.7.8.    ",
"  9.~.0.*.a.b.c.d.e._.7.:.f.    ",
"  g.h.i.=.' j.n k.l.m.:.n.o.    ",
"    p.q.r.s.t.9.u.v.w.x.y.      ",
"                                "};
