/* XPM */
static char * meld_16x16_xpm[] = {
"16 16 188 2",
"  	c None",
". 	c #BA641E",
"+ 	c #F1CAA0",
"@ 	c #FFE9C4",
"# 	c #FFEAC5",
"$ 	c #FFEDCC",
"% 	c #ECDAC8",
"& 	c #D0DCEA",
"* 	c #CFDFF0",
"= 	c #CDDDEF",
"- 	c #A0B7D4",
"; 	c #EDBE8C",
"> 	c #FDD395",
", 	c #FDD397",
"' 	c #FDD79F",
") 	c #D7BDA7",
"! 	c #ADCAE8",
"~ 	c #B1CDEA",
"{ 	c #C0C9D6",
"] 	c #C8C1BD",
"^ 	c #C5C2C5",
"/ 	c #BBD0E8",
"( 	c #AFCAE7",
"_ 	c #AFC8E4",
": 	c #88A3C7",
"< 	c #ECB77F",
"[ 	c #FCC57C",
"} 	c #FDC780",
"| 	c #E2B88E",
"1 	c #9FC1E4",
"2 	c #B1C0D2",
"3 	c #E5BC96",
"4 	c #F9C889",
"5 	c #FFD290",
"6 	c #FECF8E",
"7 	c #F4C084",
"8 	c #DCBB9C",
"9 	c #B0C2D8",
"0 	c #8AA6CA",
"a 	c #ECB073",
"b 	c #FBB862",
"c 	c #FCBF73",
"d 	c #ABA9AD",
"e 	c #A2B6CF",
"f 	c #EFB87A",
"g 	c #FEC774",
"h 	c #FFCD80",
"i 	c #FFCD81",
"j 	c #FDC471",
"k 	c #FDC472",
"l 	c #FFCA7C",
"m 	c #F2B773",
"n 	c #9597A2",
"o 	c #E9A35A",
"p 	c #F9A136",
"q 	c #F09F4B",
"r 	c #7BA8D8",
"s 	c #BDA088",
"t 	c #FFC66D",
"u 	c #DFAA72",
"v 	c #A49893",
"w 	c #A39691",
"x 	c #E3A362",
"y 	c #FEBC5A",
"z 	c #FCB348",
"A 	c #FCAF3F",
"B 	c #EAA75E",
"C 	c #E89C50",
"D 	c #F8911B",
"E 	c #EC8E31",
"F 	c #5E98D5",
"G 	c #BB936C",
"H 	c #F6A94A",
"I 	c #6E90B9",
"J 	c #9598A1",
"K 	c #869AB5",
"L 	c #6492C5",
"M 	c #D99652",
"N 	c #FCAC3D",
"O 	c #FCAA3A",
"P 	c #EAA65D",
"Q 	c #E8994C",
"R 	c #F78A13",
"S 	c #F2902B",
"T 	c #7B91AF",
"U 	c #888285",
"V 	c #F6AB55",
"W 	c #A58068",
"X 	c #C46F29",
"Y 	c #ED8F35",
"Z 	c #7E91AC",
"` 	c #82828E",
" .	c #FBAD48",
"..	c #FAA534",
"+.	c #E9A55B",
"@.	c #E89548",
"#.	c #F6830B",
"$.	c #F88A16",
"%.	c #C1895B",
"&.	c #5691D0",
"*.	c #968073",
"=.	c #A98466",
"-.	c #6595CB",
";.	c #EF8C2D",
">.	c #AC886E",
",.	c #558BC8",
"'.	c #EE983A",
").	c #FAA02D",
"!.	c #E9A259",
"~.	c #E99446",
"{.	c #F57B01",
"].	c #F57D05",
"^.	c #F4871B",
"/.	c #BB865E",
"(.	c #7394BC",
"_.	c #7096C3",
":.	c #BB8256",
"<.	c #F98B1B",
"[.	c #AF8462",
"}.	c #518AC9",
"|.	c #ED9336",
"1.	c #F99A26",
"2.	c #E9A055",
"3.	c #A87E61",
"4.	c #F7871B",
"5.	c #F47600",
"6.	c #F47800",
"7.	c #F7810D",
"8.	c #EE8019",
"9.	c #EB7F1A",
"0.	c #F7800C",
"a.	c #F68920",
"b.	c #72798C",
"c.	c #73819A",
"d.	c #F79D37",
"e.	c #F89622",
"f.	c #E99E53",
"g.	c #5380B7",
"h.	c #7E7275",
"i.	c #E88224",
"j.	c #F88717",
"k.	c #F67C04",
"l.	c #F57800",
"m.	c #F8820F",
"n.	c #F18520",
"o.	c #7C757C",
"p.	c #477EBD",
"q.	c #B8865C",
"r.	c #FA992A",
"s.	c #F7911C",
"t.	c #E89B51",
"u.	c #557CAE",
"v.	c #4677B1",
"w.	c #4578B5",
"x.	c #7D6E6E",
"y.	c #9E7B64",
"z.	c #AB7D5B",
"A.	c #8D7367",
"B.	c #5375A2",
"C.	c #4577B3",
"D.	c #87848E",
"E.	c #F39532",
"F.	c #F78D18",
"G.	c #F78C16",
"H.	c #E8994D",
"I.	c #3A6096",
"J.	c #5A81B2",
"K.	c #3F6FA8",
"L.	c #3F6EA7",
"M.	c #3E6EA9",
"N.	c #3D6EAA",
"O.	c #3E6EA7",
"P.	c #4778B4",
"Q.	c #8E7B75",
"R.	c #E88928",
"S.	c #ED800C",
"T.	c #ED810E",
"U.	c #ED7F0A",
"V.	c #DE9249",
"W.	c #47628A",
"X.	c #49648C",
"Y.	c #44638F",
"Z.	c #9D6941",
"`.	c #AE7748",
" +	c #AD7A4E",
".+	c #AD7B50",
"++	c #AE7B51",
"@+	c #A76937",
"  .                             ",
"  + @ # @ $ % & * * * * = -     ",
"  ; > , ' ) ! ~ { ] ^ / ( _ :   ",
"  < [ } | 1 2 3 4 5 6 7 8 9 0   ",
"  a b c d e f g h i j k l m n   ",
"  o p q r s t u v w x y z A B   ",
"  C D E F G H I J K L M N O P   ",
"  Q R S T U V W X Y Z `  ...+.  ",
"  @.#.$.%.&.*.=.-.;.>.,.'.).!.  ",
"  ~.{.].^./.(._.:.<.[.}.|.1.2.  ",
"  3.4.5.6.7.8.9.0.a.b.c.d.e.f.  ",
"  g.h.i.j.k.l.m.n.o.p.q.r.s.t.  ",
"  u.v.w.x.y.z.A.B.C.D.E.F.G.H.  ",
"  I.J.K.L.M.N.O.P.Q.R.S.T.U.V.  ",
"      W.X.X.X.Y.Z.`. +.+.+++@+  ",
"                                "};
