<?xml version="1.0" encoding="UTF-8" standalone="no"?>
<!-- Created with Inkscape (http://www.inkscape.org/) -->

<svg
   xmlns:dc="http://purl.org/dc/elements/1.1/"
   xmlns:cc="http://creativecommons.org/ns#"
   xmlns:rdf="http://www.w3.org/1999/02/22-rdf-syntax-ns#"
   xmlns:svg="http://www.w3.org/2000/svg"
   xmlns="http://www.w3.org/2000/svg"
   xmlns:sodipodi="http://sodipodi.sourceforge.net/DTD/sodipodi-0.dtd"
   xmlns:inkscape="http://www.inkscape.org/namespaces/inkscape"
   width="640"
   height="640"
   id="svg2"
   version="1.1"
   inkscape:version="0.48.4 r9939"
   sodipodi:docname="thinstation-logo-fire.svg">
  <defs
     id="defs4" />
  <sodipodi:namedview
     id="base"
     pagecolor="#000000"
     bordercolor="#666666"
     borderopacity="1.0"
     inkscape:pageopacity="0"
     inkscape:pageshadow="2"
     inkscape:zoom="1"
     inkscape:cx="375"
     inkscape:cy="287.16406"
     inkscape:document-units="px"
     inkscape:current-layer="layer1"
     showgrid="false"
     inkscape:window-width="1920"
     inkscape:window-height="1018"
     inkscape:window-x="-8"
     inkscape:window-y="-8"
     inkscape:window-maximized="1"
     inkscape:object-paths="false" />
  <metadata
     id="metadata7">
    <rdf:RDF>
      <cc:Work
         rdf:about="">
        <dc:format>image/svg+xml</dc:format>
        <dc:type
           rdf:resource="http://purl.org/dc/dcmitype/StillImage" />
        <dc:title />
      </cc:Work>
    </rdf:RDF>
  </metadata>
  <g
     inkscape:label="Layer 1"
     inkscape:groupmode="layer"
     id="layer1"
     transform="translate(0,-412.36218)">
    <path
       transform="matrix(1.214219,0,0,1.1667439,-27.426572,-148.13081)"
       inkscape:connector-curvature="0"
       id="path4848"
       style="font-size:599.99914551px;font-style:normal;font-variant:normal;font-weight:normal;font-stretch:normal;text-align:start;line-height:125%;letter-spacing:0px;word-spacing:0px;writing-mode:lr-tb;text-anchor:start;fill:#aa8800;fill-opacity:1;stroke:none;filter:url(#filter4897);font-family:Bradley Hand ITC;-inkscape-font-specification:Bradley Hand ITC"
       d="m 119.35536,683.26051 41.30853,1.75781 39.55073,-1.75781 9.66795,0.58594 4.10156,-0.58594 21.67965,0 c 4.10136,2.3e-4 6.15213,1.75804 6.15234,5.27343 -2.1e-4,4.10178 -3.22286,6.73849 -9.66796,7.91015 -1.17206,-0.78104 -2.83222,-1.17166 -4.98046,-1.17188 -2.73456,2.2e-4 -5.27361,0.97678 -7.61717,2.92969 l -8.49609,-1.75781 -16.11325,0.58593 c -7.42202,4.10177 -14.84388,6.15255 -22.2656,6.15234 l -11.42576,-2.05078 -5.85937,5.5664 -5.5664,0 0,-3.51562 -10.25389,4.68749 -5.27343,0 -1.75781,5.27343 c -3.3204,-0.97636 -9.17976,-1.75761 -17.5781,-2.34374 -0.58601,2.34394 -1.56257,3.51581 -2.92968,3.51562 -0.78133,1.9e-4 -1.9532,-0.78106 -3.51562,-2.34375 l -8.49608,1.17187 -5.85937,6.15234 -1.75781,29.29683 1.171873,17.5781 -1.75781,22.55856 0.585937,25.19528 1.75781,12.0117 0,10.83983 7.03124,14.94138 0,2.63672 c -7e-5,6.83597 4.00383,13.37893 12.0117,19.62888 l 1.75781,4.98046 10.83983,2.34375 7.91014,8.49608 22.2656,4.10155 29.29683,-6.73827 8.49608,2.63672 20.80075,-9.66796 7.91015,1.17188 c 2.73418,2.73439 4.10137,5.27345 4.10156,7.61717 -1.9e-4,2.9297 -2.53925,6.15235 -7.61718,9.66796 l -4.39453,-1.75781 -9.37498,7.91014 -19.92185,2.34375 -6.73827,4.10156 -7.03124,-4.10156 c -6.64075,3.51562 -13.67198,5.27343 -21.09372,5.27343 l -12.0117,-2.34375 -6.44531,0 -21.67965,-12.59764 -10.25389,-14.35544 -7.031243,-7.91015 -10.839829,-28.7109 -4.980461,-26.95308 2.636715,-10.83983 -4.980462,-5.85937 2.343747,-6.73827 -2.343747,-10.83983 6.152335,-4.68749 -2.636715,-5.5664 1.464842,-7.03124 -2.636715,-7.91014 1.171873,-11.42577 -1.171873,-5.85937 2.636715,-1.75781 0,-21.67965 c -1.171917,-5.27324 -2.832069,-7.90995 -4.980462,-7.91015 -1.367224,2e-4 -2.539096,0.78145 -3.51562,2.34375 l -6.738272,-2.92968 -9.374986,2.34374 -9.667955,-7.03124 -4.980462,0 c -4.687494,2.1e-4 -7.031238,-2.63651 -7.03124,-7.91014 l 0.585937,-9.08202 -4.101557,-2.92968 2.343747,-5.27343 8.78905,1.17187 6.738271,-1.17187 9.667955,2.92968 25.195277,0 1.171873,-13.76951 0,-13.76951 -4.101556,-10.25389 4.687493,-3.51562 c 0.781199,-2.34348 1.171823,-3.80832 1.171873,-4.39453 -5e-5,-2.53879 -1.562546,-4.68722 -4.687493,-6.4453 l 1.171873,-23.43747 -4.980461,-7.32421 1.171873,-5.27343 c -3.906284,-0.78093 -5.859404,-2.34343 -5.859367,-4.68749 L 76.58198,575.1552 c 3.320263,-4.29653 5.175727,-7.0309 5.566398,-8.20311 11.913987,5.8597 17.871002,9.27766 17.871072,10.25389 l 0,0.58593 -2.34375,5.85937 c 2.73431,5.66437 4.10149,10.05889 4.10156,13.18358 l 0,1.75781 c -1.17194,3.1253 -1.75788,5.95732 -1.75781,8.49608 -7e-5,1.95342 0.58587,3.51591 1.75781,4.68749 l -0.58594,4.98046 0.58594,6.44531 -5.273433,8.49608 3.515623,14.94138 -2.34375,18.16404 2.34375,3.51562 -3.515623,5.27343 4.687493,14.94138 10.83983,0 z" />
    <path
       transform="matrix(1.091471,0,0,1.091471,-23.744131,-79.454665)"
       inkscape:connector-curvature="0"
       id="path4851"
       style="font-size:499.99996948px;font-style:normal;font-variant:normal;font-weight:900;font-stretch:normal;text-align:start;line-height:125%;letter-spacing:0px;word-spacing:0px;writing-mode:lr-tb;text-anchor:start;fill:#aa8800;fill-opacity:1;stroke:none;filter:url(#filter4925);font-family:Arial Black;-inkscape-font-specification:'Arial Black, Heavy'"
       d="m 273.7793,787.85047 105.2246,-6.5918 c 2.27852,17.08996 6.91719,30.11077 13.91601,39.0625 11.39308,14.48575 27.66911,21.72858 48.82813,21.72852 15.78755,6e-5 27.95388,-3.70273 36.49902,-11.1084 8.54469,-7.40552 12.81714,-15.99112 12.81738,-25.75684 -2.4e-4,-9.27723 -4.06924,-17.578 -12.20703,-24.90234 -8.13824,-7.32408 -27.01842,-14.24139 -56.64062,-20.75195 -48.50272,-10.90479 -83.08927,-25.39045 -103.75976,-43.45703 -20.83338,-18.0662 -31.25003,-41.09677 -31.25,-69.09179 -3e-5,-18.39165 5.33037,-35.76631 15.99121,-52.12402 10.66075,-16.35709 26.69263,-29.21515 48.0957,-38.57422 21.40288,-9.35836 50.74041,-14.03772 88.01269,-14.03808 45.73545,3.6e-4 80.60683,8.50458 104.61425,25.51269 24.00685,17.00879 38.28906,44.06768 42.84668,81.17675 l -104.24804,6.10352 c -2.76715,-16.11301 -8.58583,-27.83175 -17.45606,-35.15625 -8.87064,-7.32392 -21.11835,-10.98603 -36.74316,-10.98633 -12.85823,3e-4 -22.54246,2.72654 -29.05273,8.17871 -6.51055,5.45276 -9.76576,12.08524 -9.76562,19.89746 -1.4e-4,5.69688 2.68541,10.82383 8.05664,15.38086 5.20818,4.7203 17.57796,9.11483 37.10937,13.1836 48.33961,10.41689 82.96685,20.95562 103.88183,31.6162 20.91441,10.66101 36.13249,23.88528 45.65429,39.67285 9.52115,15.78792 14.28189,33.4474 14.28223,52.97852 -3.4e-4,22.94931 -6.34799,44.10814 -19.04297,63.47655 -12.69562,19.36853 -30.43649,34.05764 -53.22265,44.06738 -22.78671,10.00977 -51.51389,15.01465 -86.18164,15.01465 -60.87251,0 -103.02742,-11.71874 -126.46483,-35.15625 -23.43754,-23.43744 -36.7025,-53.22257 -39.79492,-89.35546 z" />
  </g>
</svg>
