/* XPM */
static char *restore_xpm[] = {
"20 40 3 1",
"  c #c0c0c0",
"W c #FFFFFF",
"D c #808080",
"                    ",
"                    ",
"  WW           WW   ",
"  W D          W D  ",
"  W D          W D  ",
"  W D WWWWWWW  W D  ",
"  W D W      D W D  ",
"  W D W DDD  D W D  ",
"  W D W D  W D W D  ",
"  W D W D  W D W D  ",
"  W D W D  W D W D  ",
"  W D W D  W D W D  ",
"  W D W  WWW D W D  ",
"  W D W      D W D  ",
"  W D  DDDDDD  W D  ",
"  W D          W D  ",
"  W D          W D  ",
"   DD           DD  ",
"                    ",
"                    ",
"                    ",
"                    ",
"  DD           DD   ",
"  D W          D W  ",
"  D W          D W  ",
"  D W DDDDDDD  D W  ",
"  D W D      W D W  ",
"  D W D WWW  W D W  ",
"  D W D W  D W D W  ",
"  D W D W  D W D W  ",
"  D W D W  D W D W  ",
"  D W D W  D W D W  ",
"  D W D  DDD W D W  ",
"  D W D      W D W  ",
"  D W  WWWWWW  D W  ",
"  D W          D W  ",
"  D W          D W  ",
"   WW           WW  ",
"                    ",
"                    "};
