/* XPM */
static char * closeA_xpm[] = {
"20 40 36 1",
" 	c None",
".	c #FFFFFF",
"+	c #DDC5A7",
"@	c #FDFBFA",
"#	c #FBF8F5",
"$	c #DFC8AC",
"%	c #F9F5F0",
"&	c #E1CCB1",
"*	c #F7F2EB",
"=	c #E3CFB7",
"-	c #000000",
";	c #F5EEE6",
">	c #E5D3BD",
",	c #F3EBE1",
"'	c #E7D7C2",
")	c #F1E8DD",
"!	c #E9DAC7",
"~	c #EFE5D8",
"{	c #EBDECD",
"]	c #EEE1D3",
"^	c #EEE1D2",
"/	c #ECDECE",
"(	c #F0E5D8",
"_	c #EADBC9",
":	c #F2E9DE",
"<	c #E8D8C5",
"[	c #F4ECE3",
"}	c #E6D5C0",
"|	c #F6F0E8",
"1	c #E4D1BB",
"2	c #F8F4EE",
"3	c #E2CEB6",
"4	c #FAF7F4",
"5	c #E0CBB1",
"6	c #FCFBF9",
"7	c #DEC8AC",
"....................",
"..++++++++++++++++..",
"@++++++++++++++++++@",
"#$$##############$$#",
"%&&%%%%%%%%%%%%%%&&%",
"*==**--******--**==*",
";>>;;---;;;;---;;>>;",
",'',,,---,,---,,,'',",
")!!))))------))))!!)",
"~{{~~~~~----~~~~~{{~",
"]^^]]]]]----]]]]]^^]",
"/((////------////((/",
"_::___---__---___::_",
"<[[<<---<<<<---<<[[<",
"}||}}--}}}}}}--}}||}",
"12211111111111111221",
"34431333333333333443",
"56666666666666666665",
"77................77",
"++++++++++++++++++++",
"....................",
"..++++++++++++++++..",
"@++++++++++++++++++@",
"#$$11111111111111$$#",
"%&&11111111111111&&%",
"*==11--111111--11==*",
";>>11---1111---11>>;",
",''111---11---111'',",
")!!1111------1111!!)",
"~{{11111----11111{{~",
"]^^11111----11111^^]",
"/((1111------1111((/",
"_::111---11---111::_",
"<[[11---1111---11[[<",
"}||11--11}111--11||}",
"12211111111111111221",
"34411111111111111443",
"56666666666666666665",
"77................77",
"++++++++++++++++++++"};
