/* XPM */
static char * menuButtonI_xpm[] = {
"20 40 21 1",
" 	c None",
".	c #FFFFFF",
"+	c #FBFBFB",
"@	c #F8F8F8",
"#	c #F4F4F4",
"$	c #F1F1F1",
"%	c #EDEDED",
"&	c #EAEAEA",
"*	c #E6E6E6",
"=	c #E3E3E3",
"-	c #E0E0E0",
";	c #DDDDDD",
">	c #D9D9D9",
",	c #D6D6D6",
"'	c #D2D2D2",
")	c #CFCFCF",
"!	c #CBCBCB",
"~	c #C8C8C8",
"{	c #C4C4C4",
"]	c #C2C2C2",
"^	c #CCCCCC",
"....................",
"....................",
"++++++++++++++++++++",
"@@@@@@@@@@@@@@@@@@@@",
"####################",
"$$$$$$$$$$$$$$$$$$$$",
"%%%%%%%%%%%%%%%%%%%%",
"&&&&&&&&&&&&&&&&&&&&",
"********************",
"====================",
"--------------------",
";;;;;;;;;;;;;;;;;;;;",
">>>>>>>>>>>>>>>>>>>>",
",,,,,,,,,,,,,,,,,,,,",
"''''''''''''''''''''",
"))))))))))))))))))))",
"!!!!!!!!!!!!!!!!!!!!",
"~~~~~~~~~~~~~~~~~~~~",
"{{{{{{{{{{{{{{{{{{{{",
"]]]]]]]]]]]]]]]]]]]]",
"....................",
"....................",
"++^^^^^^^^^^^^^^^^++",
"@@^^^^^^^^^^^^^^^^@@",
"##^^^^^^^^^^^^^^^^##",
"$$^^^^^^^^^^^^^^^^$$",
"%%^^^^^^^^^^^^^^^^%%",
"&&^^^^^^^^^^^^^^^^&&",
"**^^^^^^^^^^^^^^^^**",
"==^^^^^^^^^^^^^^^^==",
"--^^^^^^^^^^^^^^^^--",
";;^^^^^^^^^^^^^^^^;;",
">>^^^^^^^^^^^^^^^^>>",
",,^^^^^^^^^^^^^^^^,,",
"''^^^^^^^^^^^^^^^^''",
"))^^^^^^^^^^^^^^^^))",
"!!^^^^^^^^^^^^^^^^!!",
"~~^^^^^^^^^^^^^^^^~~",
"{{{{{{{{{{{{{{{{{{{{",
"]]]]]]]]]]]]]]]]]]]]"};
