/* XPM */
static char *printer_32x32[] = {
/* columns rows colors chars-per-pixel */
"32 32 167 2 ",
"   c #474746",
".  c #494949",
"X  c gray35",
"o  c #5A5A5A",
"O  c #5F5F5F",
"+  c #656565",
"@  c gray40",
"#  c #676767",
"$  c #686868",
"%  c DimGray",
"&  c #6A6A69",
"*  c gray42",
"=  c #6C6C6C",
"-  c gray43",
";  c #717171",
":  c #858583",
">  c gray52",
",  c #898989",
"<  c gray54",
"1  c #8C8C8B",
"2  c #909090",
"3  c #929292",
"4  c #979795",
"5  c #9B9B9B",
"6  c #A2A2A2",
"7  c #A6A6A4",
"8  c #ACACAC",
"9  c gray68",
"0  c gray72",
"q  c #BBBAB9",
"w  c #BCBCBA",
"e  c #BEBDBC",
"r  c #BFBEBD",
"t  c #C0C0BE",
"y  c #C1C1C1",
"u  c #C2C1C0",
"i  c #C3C2C1",
"p  c #C3C3C1",
"a  c gray76",
"s  c #C3C3C2",
"d  c #C3C3C3",
"f  c #C5C4C2",
"g  c gray77",
"h  c #C5C5C5",
"j  c #C6C5C4",
"k  c #C7C7C5",
"l  c #C6C6C6",
"z  c #C9C8C6",
"x  c #C9C8C7",
"c  c #C9C9C7",
"v  c #CAC9C7",
"b  c #CBCBC9",
"n  c #CACACA",
"m  c #CBCBCB",
"M  c #CCCBCB",
"N  c #CDCCCA",
"B  c #CDCDCB",
"V  c #CECECB",
"C  c #CDCCCC",
"Z  c #CDCDCD",
"A  c #CECDCD",
"S  c #CFCECD",
"D  c #CFCFCD",
"F  c #D0D0CE",
"G  c #D1D0CE",
"H  c #D2D2CF",
"J  c #D1D1D0",
"K  c #D2D2D1",
"L  c #D3D3D1",
"P  c LightGray",
"I  c #D4D3D1",
"U  c #D5D5D2",
"Y  c #D4D4D3",
"T  c #D6D5D3",
"R  c #D6D6D3",
"E  c gray83",
"W  c #D5D5D4",
"Q  c #D7D6D4",
"!  c #D7D7D5",
"~  c #D7D6D6",
"^  c #D7D7D7",
"/  c #D9D9D6",
"(  c #D8D8D7",
")  c #DAD9D7",
"_  c #DADAD7",
"`  c #D8D8D8",
"'  c gray85",
"]  c #DAD9D9",
"[  c #DADAD8",
"{  c #DBDBD9",
"}  c #DADADA",
"|  c #DBDBDA",
" . c gray86",
".. c #DCDBDA",
"X. c #DDDCDA",
"o. c #DCDCDB",
"O. c #DDDCDB",
"+. c #DDDDDB",
"@. c gainsboro",
"#. c #DDDDDC",
"$. c #DEDDDD",
"%. c #DEDEDD",
"&. c #DFDEDD",
"*. c gray87",
"=. c #DFDFDF",
"-. c #E0DEDE",
";. c #E0E0DD",
":. c #E0E0DE",
">. c #E1E0DE",
",. c #E1E0DF",
"<. c #E1E1E0",
"1. c #E1E1E1",
"2. c #E2E1E1",
"3. c #E3E3E0",
"4. c #E2E2E1",
"5. c #E3E2E1",
"6. c #E3E3E1",
"7. c gray89",
"8. c #E4E3E1",
"9. c #E5E4E2",
"0. c #E5E4E3",
"q. c #E4E4E4",
"w. c #E6E5E4",
"e. c #E6E5E5",
"r. c #E7E7E7",
"t. c #E8E7E5",
"y. c #E8E7E7",
"u. c #E8E8E6",
"i. c #E9E8E6",
"p. c gray91",
"a. c #E9E9E9",
"s. c #EBEAE9",
"d. c #EBEBE9",
"f. c gray92",
"g. c #EEECEB",
"h. c #EEEDEB",
"j. c gray93",
"k. c #EEEDEC",
"l. c #EEEEEC",
"z. c #EFEEEC",
"x. c #EFEEED",
"c. c #EEEEEE",
"v. c #EFEFEF",
"b. c #F0EFED",
"n. c #F0EFEE",
"m. c #F1EFEE",
"M. c #F1F0EE",
"N. c #F0F0EF",
"B. c #F1F0EF",
"V. c #F2F1EF",
"C. c gray94",
"Z. c #F1F1F1",
"A. c gray95",
"S. c #F3F3F2",
"D. c #F3F3F3",
"F. c #F4F4F4",
"G. c #F6F6F5",
"H. c #F7F6F5",
"J. c gray97",
"K. c #F8F8F8",
"L. c #F9F9F9",
"P. c gray98",
"I. c #FBFBFB",
"U. c gray99",
"Y. c #FDFDFD",
"T. c #FEFEFE",
"R. c None",
/* pixels */
"R.R.R.R.R.R.R.R.R.R.R.R.R.R.R.R.R.R.R.R.R.R.R.R.R.R.R.R.R.R.R.R.",
"R.R.R.R.R.R.R.R.R.R.R.R.R.R.R.R.R.R.R.R.R.R.R.R.R.R.R.R.R.R.R.R.",
"R.R.R.R.R.R.2 , , , , , , , , , , , , , , , , , , 2 R.R.R.R.R.R.",
"R.R.R.R.R.R., J.J.J.K.K.J.J.J.J.J.J.J.J.J.J.K.K.J., R.R.R.R.R.R.",
"R.R.R.R.R.R., K.=.=.=.=.=.=.=.=.$.<.=.=.=.=.=.=.K., R.R.R.R.R.R.",
"R.R.R.R.R.R., J.$.a a a a a a a a a a d a a =.=.J., R.R.R.R.R.R.",
"R.R.R.R.R.R., J.q.q.q.q.q.q.q.q.q.q.q.<.q.q.<.q.J., R.R.R.R.R.R.",
"R.R.R.R.R.R., J.f.m m m m m m m m n n n n n p.p.J., R.R.R.R.R.R.",
"R.R.R.R.R.R., J.c.c.c.c.c.c.c.c.c.c.f.c.f.c.c.c.J., R.R.R.R.R.R.",
"R.R.R.R.R.R., J.Z.W W W P P P P P P P P P P Z.Z.J., R.R.R.R.R.R.",
"R.R.R.R.R.R., J.K.K.K.K.K.J.K.K.J.J.K.J.K.J.K.J.J., R.R.R.R.R.R.",
"R.R.R.R.R.R., J.Y.@.@.@.@.@.' @.c.K.U.U.U.I.U.U.J., R.R.R.R.R.R.",
"R.R.R.R.R.R., J.v.v.v.Z.v.Z.Z.Z.Z.D.Z.J.Z.F.F.F.K., R.R.R.R.R.R.",
"R.R.R.R.R.R., Z.^ ^ ' ^ ' ' ' ' ' ' ' ' @.@.@.@.Z., R.R.R.R.R.R.",
"R.R.R.R.* * , $.a d d d d d h d g h h h h h l h $., # * R.R.R.R.",
"R.R.R.; f.K., 0 8 8 8 8 9 8 8 8 8 8 8 9 9 9 9 9 0 > Z.<.- R.R.R.",
"R.R.- C U.Y.5 6 6 6 6 6 6 6 6 6 6 6 6 6 6 6 6 6 6 2 y.c.a R.R.R.",
"R.R.- Y.Y.Y.Y.Y.Y.Y.Y.Y.Y.Y.Y.Y.Y.Y.Y.Y.Y.Y.Y.Y.Y.Y.Y.Y.K.* R.R.",
"R.R.+ Y.8.i.C R i.w.w.w.w.w.<.<.,.-.,.$.-.X.X.X.X.' V z K.+ R.R.",
"R.R.$ K.R M.z 8.Z.M.M.n.n.n.n.h.n.n.c.n.b.h.c.h.c.h.i q J.* R.R.",
"R.R.+ J.1 h.w.f.H.H.H.H.H.H.H.H.J.H.J.H.H.H.H.H.H.h.> q f.* R.R.",
"R.R.+ H.7 - + + + $ + + + + + + + + + + + + + + + * 4 q y.+ R.R.",
"R.R.+ Z./ / R R R I H H H V V z z z z j j t t t r w w q <.* R.R.",
"R.R.# h./ / W R R I H D V V M V z z k j t j j t r r w q ' + R.R.",
"R.R.# d./ / / R L H H H V V M n z z h j i j t t r w w q ( $ R.R.",
"R.R.# u./ / ! R R R H H C V V b z z k j j i i t r r q q P + R.R.",
"R.R.* { 3.3.<.:.,.$.X.X.X.' / / / Q R R H P P D D C V M t * R.R.",
"R.R.O # # # # # + + * # # # # # + $ # # + $ + $ $ $ $ + $ X R.R.",
"R.R.R.  X X X X X X X X X X X X X X X X X X X X X X X X . R.R.R.",
"R.R.R.R.R.R.R.R.R.R.R.R.R.R.R.R.R.R.R.R.R.R.R.R.R.R.R.R.R.R.R.R.",
"R.R.R.R.R.R.R.R.R.R.R.R.R.R.R.R.R.R.R.R.R.R.R.R.R.R.R.R.R.R.R.R.",
"R.R.R.R.R.R.R.R.R.R.R.R.R.R.R.R.R.R.R.R.R.R.R.R.R.R.R.R.R.R.R.R."
};
