/* XPM */
static char * printer_16x16_xpm[] = {
"16 16 68 1",
" 	c None",
".	c #AAABA9",
"+	c #F9F9F9",
"@	c #F8F8F8",
"#	c #C4C4C4",
"$	c #F1F1F1",
"%	c #F2F2F2",
"&	c #F3F3F3",
"*	c #F7F7F7",
"=	c #C6C6C6",
"-	c #C7C7C7",
";	c #E0E0E0",
">	c #E2E2E2",
",	c #E3E3E3",
"'	c #E4E4E4",
")	c #E5E5E5",
"!	c #E6E6E6",
"~	c #E7E7E7",
"{	c #F6F6F6",
"]	c #A1A1A1",
"^	c #A2A2A2",
"/	c #A4A4A4",
"(	c #E1E1E1",
"_	c #7D7E7C",
":	c #858684",
"<	c #ABABAB",
"[	c #A9A9A9",
"}	c #AAAAAA",
"|	c #FCFCFC",
"1	c #F4F4F4",
"2	c #E8E8E8",
"3	c #FDFDFD",
"4	c #D4D4D4",
"5	c #EDEDED",
"6	c #AEAEAE",
"7	c #DFDFDF",
"8	c #DCDCDC",
"9	c #9F9F9F",
"0	c #CDCCCB",
"a	c #F0F0F0",
"b	c #CCCBCB",
"c	c #DDDDDD",
"d	c #DEDEDE",
"e	c #D9D9D9",
"f	c #8C8B8A",
"g	c #C5C5C5",
"h	c #BEBEBE",
"i	c #868584",
"j	c #7A7978",
"k	c #767574",
"l	c #787675",
"m	c #767472",
"n	c #72716F",
"o	c #747372",
"p	c #B2B2B2",
"q	c #BBBBBB",
"r	c #B9B9B9",
"s	c #B8B8B8",
"t	c #B8B8B7",
"u	c #B6B6B6",
"v	c #B3B3B3",
"w	c #B5B5B5",
"x	c #B7B7B7",
"y	c #ECECEC",
"z	c #D7D7D7",
"A	c #D8D8D8",
"B	c #D5D5D5",
"C	c #D6D6D6",
"                ",
"   ...........  ",
"   .++++++++@.  ",
"   .+#######@.  ",
"   .+$$$%%&&*.  ",
"   .*##===--@.  ",
"   .*;>,')!~*.  ",
"   .{]^^/(((*.  ",
" __:<[<<<<<[}:__",
" _|+111111111!2_",
" _3456&7,(>;890_",
" _abccddd8ccefg_",
" _%hijjklmnolpg_",
" _%qrrsstuvwxs-_",
" _yzAAzzzzzBzC4_",
" _______________"};
