/* XPM */
static char *shutdown-32_16x16[] = {
/* columns rows colors chars-per-pixel */
"16 16 32 1",
"  c black",
". c #B93918",
"X c #BA2B04",
"o c #BE4223",
"O c #BF401E",
"+ c #CA3308",
"@ c #E13F09",
"# c #DC512B",
"$ c #DB5330",
"% c #DA4924",
"& c #E3440D",
"* c #E24A18",
"= c #E5572A",
"- c #E25834",
"; c #E4582E",
": c #E56748",
"> c #E77459",
", c #E66D50",
"< c #E87E64",
"1 c #EA8369",
"2 c #EB8A72",
"3 c #EE9176",
"4 c #D99585",
"5 c #ED9883",
"6 c #F1A894",
"7 c #F3BBAD",
"8 c #F6C6B9",
"9 c #FBE3DB",
"0 c gray100",
"q c #F9F9F8",
"w c #FCECE8",
"e c None",
/* pixels */
"eq000000000000qe",
"q721>,,::::-$%4q",
"0366521<<>>,:$.0",
"0255<6qq0w5:-$.0",
"0>327q721706$$o0",
"0>2605::--102$o0",
"0,<w7,:00$*79#o0",
"0:>05,:00-=10#O0",
"0:,03,:00==1q&%q",
"0$,w8,:00==89*.0",
"0#:505::-;302&X0",
"0%$:70823806&&X0",
"0@--:390093*&@+q",
"0+%$$$$$#**&@+X0",
"q4X......+XXXX2q",
"eq000000000000qe"
};
