/* XPM */
static char * titleIB_xpm[] = {
"3 17 3 1",
" 	c None",
".	c #000000",
"+	c #CCCCCC",
"   ",
"   ",
"   ",
"   ",
"   ",
"   ",
"...",
"+++",
"+++",
"+++",
"+++",
"+++",
"+++",
"+++",
"+++",
"+++",
"..."};
