/* XPM */
static char *titleIT[] = {
/* columns rows colors chars-per-pixel */
"2 20 11 1 ",
"  c #1B1B1B",
". c #737373",
"X c #969696",
"o c #9D9D9D",
"O c gray80",
"+ c #CECECE",
"@ c #DFDFDF",
"# c #E7E7E7",
"$ c #E9E9E9",
"% c #F6F6F6",
"& c #FCFCFC",
/* pixels */
"  ",
"..",
"++",
"&&",
"&&",
"$$",
"@@",
"##",
"%%",
"&&",
"&&",
"&&",
"&&",
"&&",
"%%",
"$%",
"XX",
"oo",
"++",
"++"
};
