/* XPM */
static char * minimize_xpm[] = {
"16 16 3 1",
"  c #C0C0C0",
"W c #FFFFFF",
"D c #808080",
"                ",
"                ",
"                ",
"                ",
"                ",
"                ",
"     WWWWW      ",
"     W    D     ",
"     W    D     ",
"     W    D     ",
"     W    D     ",
"      DDDDD     ",
"                ",
"                ",
"                ",
"                ",
"                ",
"                "};
