/* XPM */
static char * spice_32x32_xpm[] = {
"32 32 199 2",
"  	c None",
". 	c #FFFFFF",
"+ 	c #BCBFBC",
"@ 	c #FFFFFE",
"# 	c #FAFAFA",
"$ 	c #B48383",
"% 	c #D0A5A5",
"& 	c #C9EBC9",
"* 	c #D1D4D1",
"= 	c #F7F7F9",
"- 	c #FCFCFF",
"; 	c #F9F9FA",
"> 	c #E18B8B",
", 	c #FFBDBD",
"' 	c #CDA6A6",
") 	c #90CB90",
"! 	c #C2FFC2",
"~ 	c #D8F3D8",
"{ 	c #E4E5E4",
"] 	c #FCFCFC",
"^ 	c #E8E8F6",
"/ 	c #F2F2FF",
"( 	c #F1F1FA",
"_ 	c #F7F7F8",
": 	c #AC4F4F",
"< 	c #FF8D8D",
"[ 	c #FFA6A6",
"} 	c #FABDBD",
"| 	c #C0A0A4",
"1 	c #628F62",
"2 	c #7FFF7F",
"3 	c #ADFFAD",
"4 	c #D0FFD0",
"5 	c #D9EBD9",
"6 	c #FBFBFA",
"7 	c #D2D2E3",
"8 	c #DBDBFF",
"9 	c #E5E5FF",
"0 	c #EBEBFF",
"a 	c #DCDCE7",
"b 	c #FF6262",
"c 	c #FF7A7A",
"d 	c #FF9494",
"e 	c #FFAEAE",
"f 	c #F1B5BE",
"g 	c #4ABC46",
"h 	c #63FF63",
"i 	c #93FF93",
"j 	c #B9FFB9",
"k 	c #D7FDD7",
"l 	c #C8D0C7",
"m 	c #B3B2F6",
"n 	c #C8C8FF",
"o 	c #D3D3FF",
"p 	c #E2E2FF",
"q 	c #CDCDD8",
"r 	c #DE2F2F",
"s 	c #FF4E4E",
"t 	c #FF6868",
"u 	c #FF8181",
"v 	c #FF9B9B",
"w 	c #FFB8B9",
"x 	c #DCBFB4",
"y 	c #3DDC3D",
"z 	c #73FF73",
"A 	c #9DFF9D",
"B 	c #DCFBDB",
"C 	c #A3A6D9",
"D 	c #AFAFFF",
"E 	c #BCBCFF",
"F 	c #C7C7FF",
"G 	c #D0D0FF",
"H 	c #D4D4F9",
"I 	c #C6C6D1",
"J 	c #A00909",
"K 	c #FD2121",
"L 	c #FF3C3C",
"M 	c #FF5555",
"N 	c #FF6F6F",
"O 	c #FF8989",
"P 	c #FFA2A2",
"Q 	c #FFBFBF",
"R 	c #ADBD92",
"S 	c #4AF44B",
"T 	c #7CFF7C",
"U 	c #A3FFA3",
"V 	c #C7FFC7",
"W 	c #D4EDDA",
"X 	c #9192E8",
"Y 	c #A1A1FF",
"Z 	c #AEAEFF",
"` 	c #BABAFF",
" .	c #C5C5FF",
"..	c #BBBBE3",
"+.	c #E90101",
"@.	c #FF1010",
"#.	c #FF2929",
"$.	c #FF4343",
"%.	c #FF5D5D",
"&.	c #FF7676",
"*.	c #FF9090",
"=.	c #FFAAAA",
"-.	c #F9BEC0",
";.	c #69C05C",
">.	c #53FF53",
",.	c #81FF81",
"'.	c #A9FFA9",
").	c #CCFFCB",
"!.	c #ACBCCB",
"~.	c #8080FD",
"{.	c #9292FF",
"].	c #A0A0FF",
"^.	c #ADADFF",
"/.	c #9B9BC2",
"(.	c #CE0000",
"_.	c #FF0000",
":.	c #FF0202",
"<.	c #FF1717",
"[.	c #FF3030",
"}.	c #FF4A4A",
"|.	c #FF6464",
"1.	c #FF7E7E",
"2.	c #FF9797",
"3.	c #FFB2B2",
"4.	c #F3BDC1",
"5.	c #2BC529",
"6.	c #58FF58",
"7.	c #84FF84",
"8.	c #D7FFD3",
"9.	c #7780B4",
"0.	c #706FFF",
"a.	c #8181FF",
"b.	c #9090FF",
"c.	c #B1B1FF",
"d.	c #6D6D92",
"e.	c #9E0000",
"f.	c #FF0505",
"g.	c #FF1E1E",
"h.	c #FF3838",
"i.	c #FF5252",
"j.	c #FF6B6B",
"k.	c #FF8585",
"l.	c #FF9F9F",
"m.	c #FFBCBC",
"n.	c #D1B0A9",
"o.	c #2DE42D",
"p.	c #5BFF5B",
"q.	c #88FF88",
"r.	c #B3FFB3",
"s.	c #D4FBCF",
"t.	c #5559C8",
"u.	c #5C5CFF",
"v.	c #7070FF",
"w.	c #8383FF",
"x.	c #9898FF",
"y.	c #A8A8F7",
"z.	c #DC0000",
"A.	c #FF0C0C",
"B.	c #FF2525",
"C.	c #FF3F3F",
"D.	c #FF5959",
"E.	c #FF7272",
"F.	c #FF8C8C",
"G.	c #FFC0C1",
"H.	c #93B679",
"I.	c #3CFA3C",
"J.	c #67FF67",
"K.	c #91FF91",
"L.	c #BEFFBE",
"M.	c #AECCC1",
"N.	c #4547EA",
"O.	c #5959FF",
"P.	c #6F6FFF",
"Q.	c #8484FF",
"R.	c #9B9BFF",
"S.	c #8D8DD1",
"T.	c #9A0000",
"U.	c #FD0000",
"V.	c #FE0000",
"W.	c #FD0101",
"X.	c #FD1313",
"Y.	c #FD2D2D",
"Z.	c #FD4646",
"`.	c #FD6060",
" +	c #FD7A79",
".+	c #FD9393",
"++	c #FDADAD",
"@+	c #FABDC3",
"#+	c #46BC3E",
"$+	c #4AFF4B",
"%+	c #75FD75",
"&+	c #A0FDA0",
"*+	c #CDFFCA",
"=+	c #7789AA",
"-+	c #4242FE",
";+	c #5959FB",
">+	c #6F6FFC",
",+	c #8585FD",
"'+	c #696999",
"                                                                ",
"                                                                ",
"                                                                ",
"                                                                ",
"                                                                ",
"                                                                ",
"                                                                ",
"                                                                ",
"                                                                ",
"                                                                ",
"                                                                ",
"                                    . .                         ",
"                              . . . . . . .                     ",
"                            . . . . . . . . .                   ",
"                            . . . . . . . . . .                 ",
"                        +   . . . @ # . . . . .                 ",
"            $ %         & * . . . = - ; . . . .                 ",
"            > , '     ) ! ~ { . ] ^ / ( _ . . .                 ",
"          : < [ } | 1 2 3 4 5 6 7 8 9 0 a . .                   ",
"          b c d e f g h i j k l m n o 8 p q                     ",
"        r s t u v w x y z A ! B C D E F G H I                   ",
"      J K L M N O P Q R S T U V W X Y Z `  ...                  ",
"      +.@.#.$.%.&.*.=.-.;.>.,.'.).!.~.{.].^.E /.                ",
"    (._.:.<.[.}.|.1.2.3.4.5.6.7.3 8.9.0.a.b.].c.d.              ",
"  e._._._.f.g.h.i.j.k.l.m.n.o.p.q.r.s.t.u.v.w.x.y.              ",
"  z._._._._.A.B.C.D.E.F.[ G.H.I.J.K.L.M.N.O.P.Q.R.S.            ",
"T._.U.U.V.U.W.X.Y.Z.`. +.+++@+#+$+%+&+*+=+-+;+>+,+].'+          ",
"                                                                ",
"                                                                ",
"                                                                ",
"                                                                ",
"                                                                "};
