/* XPM */
static char * geany_16x16_xpm[] = {
"16 16 133 2",
"  	c None",
". 	c #E4E5E1",
"+ 	c #E7E8E6",
"@ 	c #DDDFDC",
"# 	c #FDFDFD",
"$ 	c #F7F7F6",
"% 	c #E4E5E2",
"& 	c #DDDEDB",
"* 	c #F9F9F9",
"= 	c #F3F3F2",
"- 	c #DFE0DD",
"; 	c #E9EAE8",
"> 	c #EAEBE9",
", 	c #E4D065",
"' 	c #D2B628",
") 	c #CBCEC8",
"! 	c #FCFCFB",
"~ 	c #E3E4E1",
"{ 	c #DFC95B",
"] 	c #FCF39F",
"^ 	c #E4CD3C",
"/ 	c #E4D15E",
"( 	c #DBBE04",
"_ 	c #E9D438",
": 	c #DAC13A",
"< 	c #D3D5D6",
"[ 	c #EDE199",
"} 	c #F8EFB2",
"| 	c #E9D867",
"1 	c #F7E761",
"2 	c #E2CA34",
"3 	c #F3E047",
"4 	c #EBD752",
"5 	c #D4B729",
"6 	c #E2CB38",
"7 	c #CDC8AC",
"8 	c #DBDCDA",
"9 	c #E3D170",
"0 	c #FCF4A4",
"a 	c #FAEF92",
"b 	c #F8E659",
"c 	c #DDC000",
"d 	c #EBD314",
"e 	c #EFD607",
"f 	c #EAD214",
"g 	c #E8D459",
"h 	c #DABF2B",
"i 	c #D0B949",
"j 	c #D1B223",
"k 	c #F6EC9A",
"l 	c #E3CC52",
"m 	c #E6D46F",
"n 	c #E7D365",
"o 	c #E7D150",
"p 	c #E4CE45",
"q 	c #E3CC44",
"r 	c #DCBF11",
"s 	c #E3CB32",
"t 	c #D9BE1F",
"u 	c #DFCB60",
"v 	c #EADC8B",
"w 	c #F9F3A5",
"x 	c #C54D3A",
"y 	c #F6E479",
"z 	c #FCEF75",
"A 	c #EFC84D",
"B 	c #F8E629",
"C 	c #F2DE0D",
"D 	c #C14717",
"E 	c #E5C933",
"F 	c #D8BC12",
"G 	c #F1E383",
"H 	c #F8F180",
"I 	c #C63B38",
"J 	c #E9C169",
"K 	c #F7E675",
"L 	c #D14D4E",
"M 	c #DC9D17",
"N 	c #F1DE0A",
"O 	c #C73D32",
"P 	c #DAA92F",
"Q 	c #D8BC06",
"R 	c #DAC242",
"S 	c #F5E66B",
"T 	c #EBCA65",
"U 	c #FAF081",
"V 	c #ECC566",
"W 	c #E7666A",
"X 	c #D07112",
"Y 	c #EFD80B",
"Z 	c #DAAA00",
"` 	c #E4CF41",
" .	c #DFC424",
"..	c #D3B504",
"+.	c #DEC641",
"@.	c #F9EC7B",
"#.	c #F7E971",
"$.	c #FCF07E",
"%.	c #D48022",
"&.	c #F5E427",
"*.	c #EDD503",
"=.	c #EED83E",
"-.	c #D4B931",
";.	c #D8BD32",
">.	c #DEC742",
",.	c #E5D372",
"'.	c #E8D03F",
").	c #E8D55D",
"!.	c #FCEE81",
"~.	c #FDEF68",
"{.	c #F8E753",
"].	c #E8D143",
"^.	c #DFC619",
"/.	c #E2CC4D",
"(.	c #FFF386",
"_.	c #FCE94A",
":.	c #E9D136",
"<.	c #C4A100",
"[.	c #C19B00",
"}.	c #C29D00",
"|.	c #CDAE05",
"1.	c #E4CB00",
"2.	c #DCC012",
"3.	c #CDB436",
"4.	c #C5AC2E",
"5.	c #E6D35D",
"6.	c #F9E86E",
"7.	c #FCEE73",
"8.	c #F8EB72",
"9.	c #F4E45C",
"0.	c #F2DF42",
"a.	c #E3CC33",
"b.	c #CDB42F",
"  . +                           ",
"@ # $ %                         ",
"& * = -                         ",
"; $ >                     , '   ",
") ! ~       { ] ^       / ( _ : ",
"  # <   [ } | 1 2 3 4 5       6 ",
"7 8   9 0 a b c d e f g       h ",
"  i j k l m n o p q r s       t ",
"  u v w x y z A B C D E       F ",
"    G H I J K L M N O P       Q ",
"    R S T U V W X Y Z `      ...",
"      +.@.#.$.%.&.*.=.-.;.>.    ",
"      ,.'.).!.~.{.].^./.        ",
"      (._.:.<.[.}.|.1.2.3.      ",
"      4.5.6.7.8.9.0.a.b.        ",
"                                "};
