/* XPM */
static char * minicom_16x16_xpm[] = {
"16 16 127 2",
"  	c None",
". 	c #234D8B",
"+ 	c #214B88",
"@ 	c #224D8B",
"# 	c #224C8A",
"$ 	c #2F5892",
"% 	c #82A3D0",
"& 	c #A3BEE4",
"* 	c #B6CCEC",
"= 	c #A3BDE3",
"- 	c #224C89",
"; 	c #4B72A9",
"> 	c #A4C0E4",
", 	c #82A8B4",
"' 	c #749D7D",
") 	c #87B146",
"! 	c #608EC5",
"~ 	c #85ACBA",
"{ 	c #A4C0E2",
"] 	c #4A72A9",
"^ 	c #2D5791",
"/ 	c #9CB9E3",
"( 	c #739E85",
"_ 	c #689885",
": 	c #5183A9",
"< 	c #477BBC",
"[ 	c #5C929E",
"} 	c #8ABA59",
"| 	c #83B062",
"1 	c #9BB9E0",
"2 	c #224D8A",
"3 	c #6F93C7",
"4 	c #7AA1B0",
"5 	c #8DB32D",
"6 	c #6C9B7B",
"7 	c #4579BA",
"8 	c #4478BB",
"9 	c #75A982",
"0 	c #8ABA5C",
"a 	c #97C235",
"b 	c #7EA58F",
"c 	c #6E92C6",
"d 	c #82A5D6",
"e 	c #6D987E",
"f 	c #64917B",
"g 	c #4376B9",
"h 	c #487CB0",
"i 	c #94C858",
"j 	c #7CAC61",
"k 	c #577F61",
"l 	c #274D79",
"m 	c #81A4D4",
"n 	c #888A85",
"o 	c #667583",
"p 	c #1B3C67",
"q 	c #153055",
"r 	c #1B4074",
"s 	c #84A7D7",
"t 	c #204B88",
"u 	c #898B86",
"v 	c #F6F6F5",
"w 	c #FFFFFF",
"x 	c #F7F7F6",
"y 	c #102648",
"z 	c #11223D",
"A 	c #5A6168",
"B 	c #7487A1",
"C 	c #829ABB",
"D 	c #7F97BA",
"E 	c #829ABC",
"F 	c #274E89",
"G 	c #616363",
"H 	c #727370",
"I 	c #89898A",
"J 	c #335586",
"K 	c #6A86AF",
"L 	c #7C9DC8",
"M 	c #2B5276",
"N 	c #63696C",
"O 	c #F0F0F0",
"P 	c #D8D8D7",
"Q 	c #838683",
"R 	c #5575A4",
"S 	c #6E95C7",
"T 	c #6B93C6",
"U 	c #5683BE",
"V 	c #27508B",
"W 	c #5482B2",
"X 	c #6987B0",
"Y 	c #A5A7A3",
"Z 	c #FAFAFA",
"` 	c #858682",
" .	c #406498",
"..	c #638FC8",
"+.	c #5988C5",
"@.	c #4A7EC0",
"#.	c #487CBF",
"$.	c #204A87",
"%.	c #4772AC",
"&.	c #395A89",
"*.	c #898B87",
"=.	c #F7F7F7",
"-.	c #2B538D",
";.	c #28508B",
">.	c #234C88",
",.	c #355786",
"'.	c #868984",
").	c #AEAEAC",
"!.	c #D9D9D8",
"~.	c #858783",
"{.	c #FDFDFD",
"].	c #8D8D8D",
"^.	c #A8A9A7",
"/.	c #F4F4F4",
"(.	c #BEBEBE",
"_.	c #878984",
":.	c #8E908B",
"<.	c #9A9B97",
"[.	c #EFEFEF",
"}.	c #D7D8D6",
"|.	c #C2C2C2",
"1.	c #626360",
"2.	c #72746F",
"3.	c #7F817C",
"4.	c #8D8F8A",
"5.	c #636561",
"6.	c #7B7B7B",
"              . . + . @         ",
"          # $ % & * = % $ -     ",
"        # ; > , ' ) ! ~ { ] -   ",
"        ^ / ( _ : < [ } | 1 ^   ",
"      2 3 4 5 6 7 8 9 0 a b c # ",
"      2 d e f g g h i j k l m 2 ",
"  n n n n n n n n n o p q r s t ",
"u v w w w w w w w x n y z A B - ",
"n w C D D D D D E w n F G H I J ",
"n w K L L L L L K w n M N O P Q ",
"n w R S S S T U V w n W X Y Z ` ",
"n w  .....+.@.#.$.w n %.&.*.=.` ",
"n w -.;.>.$.$.$.$.w n ,.'.).!.~.",
"n {.w w w w w w w {.n ].^./.(._.",
":.n n n n n n n n n <.[.}.|.~.  ",
"    1.2.3.4.3.2.5.6.~.` ` 6.    "};
