<?xml version="1.0" encoding="UTF-8" standalone="no"?>
<!-- Created with Inkscape (http://www.inkscape.org/) -->

<svg
   xmlns:dc="http://purl.org/dc/elements/1.1/"
   xmlns:cc="http://creativecommons.org/ns#"
   xmlns:rdf="http://www.w3.org/1999/02/22-rdf-syntax-ns#"
   xmlns:svg="http://www.w3.org/2000/svg"
   xmlns="http://www.w3.org/2000/svg"
   xmlns:sodipodi="http://sodipodi.sourceforge.net/DTD/sodipodi-0.dtd"
   xmlns:inkscape="http://www.inkscape.org/namespaces/inkscape"
   width="640mm"
   height="640mm"
   viewBox="0 0 640 640"
   version="1.1"
   id="svg8"
   inkscape:version="0.92.4 (unknown)"
   sodipodi:docname="TS.svg">
  <defs
     id="defs2">
    <style
       id="style279">.cls-1{fill:#e1b435;}.cls-2{fill:#050503;}.cls-3{fill:#efd99c;}</style>
  </defs>
  <sodipodi:namedview
     id="base"
     pagecolor="#ffffff"
     bordercolor="#666666"
     borderopacity="1.0"
     inkscape:pageopacity="0.0"
     inkscape:pageshadow="2"
     inkscape:zoom="0.35"
     inkscape:cx="-102.85714"
     inkscape:cy="548.57143"
     inkscape:document-units="mm"
     inkscape:current-layer="layer1"
     showgrid="false"
     inkscape:pagecheckerboard="true"
     inkscape:window-width="3840"
     inkscape:window-height="2109"
     inkscape:window-x="0"
     inkscape:window-y="27"
     inkscape:window-maximized="1" />
  <metadata
     id="metadata5">
    <rdf:RDF>
      <cc:Work
         rdf:about="">
        <dc:format>image/svg+xml</dc:format>
        <dc:type
           rdf:resource="http://purl.org/dc/dcmitype/StillImage" />
        <dc:title></dc:title>
      </cc:Work>
    </rdf:RDF>
  </metadata>
  <g
     inkscape:label="Layer 1"
     inkscape:groupmode="layer"
     id="layer1"
     transform="translate(0,343)">
    <g
       id="g621"
       transform="matrix(1.5339724,0,0,1.5339724,54.198271,-327.99933)">
      <path
         id="path285"
         transform="translate(-138.76,-266.38)"
         d="m 346.86,363.86 a 3.45,3.45 0 0 1 0.14,0.42 l 13.57,21.66 a 10.83,10.83 0 0 0 0.12,-2.46 c -2.35,-0.69 -1.59,-2.64 -1.92,-4.2 -0.27,-1.27 -0.6,-2.95 -1.51,-3.59 -2.1,-1.46 -1.87,-3 -1.2,-4.25 -1.13,-1.19 -2.47,-2 -2.95,-3.19 -2.13,-5.28 -4.08,-10.64 -6,-16 a 15.24,15.24 0 0 1 -0.38,-3.73 h 0.23 c -1.35,-4.41 -2.69,-8.82 -4.25,-13.95 1.27,0.63 2.06,1 2.83,1.41 0.61,0.32 1.2,0.71 1.8,1.07 l 0.63,-2.15 v 0 c 1.53,-0.13 2.75,2.3 4.53,0.47 1,-1 2.08,-1.79 3.13,-2.69 v 0 c 0.23,3 2.51,4.63 4.31,6.59 v 0 a 14,14 0 0 0 0.77,2.43 c 2.61,5 5.43,9.87 7.86,14.94 2.33,4.85 4.52,9.74 8.27,13.71 a 2,2 0 0 1 0.17,0.4 c 0.34,1 0.71,1.91 1,2.89 0.29,0.98 0.24,2.86 0.89,3.17 2,0.94 1.83,2.95 2.77,4.37 0.77,1.18 1.12,2.66 1.92,3.82 0.41,0.59 1.41,0.76 2.64,1.36 -0.5,-1.78 -0.79,-2.79 -1.3,-4.61 2.2,1 4,1.27 5,2.32 1.24,1.33 1.81,3.28 2.73,4.93 a 24.94,24.94 0 0 1 2.18,3.65 55.52,55.52 0 0 1 1.43,6 l 2.8,-0.23 c -0.35,1.55 3.36,3 0.11,4.33 a 8.26,8.26 0 0 1 1.12,2.05 c 1,5 2,10.08 2.8,15.16 0.35,2.44 2.67,3.36 3.42,5.25 a 22.47,22.47 0 0 1 1.36,11.52 c 0,0.27 -0.66,0.46 -1,0.69 a 8.74,8.74 0 0 1 -1.22,-1 c -6.17,-7.64 -14.89,-9.66 -23.93,-10 -7,-0.27 -13.38,2.55 -19,7.05 -14.85,11.93 -13.29,33.69 3.18,42.75 11.85,6.52 25.87,4.87 37.1,-4.37 0.22,3.37 0.38,6.74 0.68,10.1 0.11,1.29 0.7,2.55 0.73,3.84 0,0.76 -0.6,2.15 -1,2.19 -2.32,0.22 -4.67,0.1 -7.27,0.1 -1.13,6.73 1.18,13 3.81,19.16 a 25.88,25.88 0 0 0 2.53,3.89 c 0.05,1.62 0.09,3.24 0.14,4.87 -0.07,0.55 -0.41,1.32 -0.17,1.63 2.33,3 2,6.08 0.6,9.27 -8,-3.3 -16.06,-4.2 -24.28,-0.85 -4.72,-7.64 -8.17,-16.26 -16.75,-21.19 q 0.66,3.35 1.34,6.7 l -0.09,0.09 c -1.86,1.11 -0.65,2 0.24,2.86 a 29.86,29.86 0 0 1 3.08,3 c 1.71,2.24 3.26,4.62 4.91,7 1.34,-2.76 2,-2.78 3.74,-0.41 a 20.13,20.13 0 0 0 2.34,2.37 42,42 0 0 0 -13.8,10.36 l -3.09,-2.42 -4.92,-4.83 a 1,1 0 0 0 -0.14,-0.44 L 347,519.2 c -1.07,-1 -2.15,-2.07 -3.22,-3.12 a 19.28,19.28 0 0 1 -2.32,-2.38 c -3.26,-4.67 -7.1,-8.43 -13.12,-9.09 l -10.35,-2 -0.44,1.46 12.57,5.29 7.33,6.33 -4.21,0.51 a 4.81,4.81 0 0 0 2.27,1.94 31.73,31.73 0 0 1 3.62,1.59 33.67,33.67 0 0 1 3.43,2.81 l 2.66,2.26 -2.93,1.83 c 3.11,2 6.07,3.89 9,5.81 a 5.8,5.8 0 0 1 2,1.62 c 1.22,2.25 2.23,4.61 3.33,6.92 a 8.89,8.89 0 0 0 -2.71,1.32 5.92,5.92 0 0 1 -5.33,2.17 c -2.5,-0.23 -4,1.14 -3.94,3.6 0,1.13 0.08,2.26 0.12,3.39 l -0.47,0.72 c -2.94,-0.9 -3,-1.26 -0.85,-4.16 -1.81,-2.76 -3.77,-0.14 -5.57,0.07 -0.37,0 -1.08,2.71 -0.58,3.49 1.36,2.11 -0.1,2.92 -1.23,4 -1.13,1.08 -2.2,1.49 -3.49,0.15 a 2.07,2.07 0 0 0 -1.6,-0.19 c -0.83,2.09 -3,1.12 -4.35,2 -2.3,-4.23 -5,-8.15 -9.06,-10.91 -13.38,-9.15 -32.21,-5.22 -41.84,8.26 -6.59,9.22 -6.15,19.11 -4,29.36 0.07,0.31 0.41,0.57 0.65,0.83 l 2.52,2.75 c -3.37,2.31 -5.58,6.24 -10,7.09 a 34.61,34.61 0 0 0 -3.67,1.15 L 258,598 c -0.2,-0.73 -0.41,-1.46 -0.77,-2.74 l -7.32,2.69 v 0 c -2,0.85 -4,1.81 -6.08,2.49 a 8.12,8.12 0 0 1 -2.84,-0.14 c 4,-5.53 6.35,-11.76 6.05,-18.56 a 25.5,25.5 0 0 0 -10.33,-20 c 0.77,-2 2.52,-2.28 4.35,-2.89 2.36,-0.79 4.39,-2.51 6.68,-3.59 1.22,-0.58 2.74,-0.5 4,-1 a 18.88,18.88 0 0 0 3.42,-2.09 c 2.21,-1.53 4.31,-3.22 6.59,-4.62 1.59,-1 3.72,-1.23 5,-2.43 2.77,-2.52 6,-3.47 9.53,-4.14 1,-0.19 2.39,-0.79 2.64,-1.53 0.51,-1.52 1.46,-1.54 2.65,-1.67 a 12.62,12.62 0 0 0 2.23,-0.73 c 3.86,-1.19 7.26,-3.85 11.58,-3.66 0.47,0 0.94,-0.42 1.44,-0.59 3.6,-1.25 7.16,-2.68 10.83,-3.65 2.68,-0.71 4.39,-2.39 6,-4.38 a 29,29 0 0 0 13.92,-4.94 l -0.14,-0.91 -7.82,0.42 c -1.63,-0.92 -3.15,-2.23 -4.9,-2.69 -4.39,-1.18 -8.87,-1.71 -13.42,-0.15 1.3,2.42 1.25,3.18 -0.86,4 -3.94,1.52 -8.12,2.49 -12,4.21 -4.14,1.86 -8,4.31 -12,6.51 a 1.14,1.14 0 0 0 -0.44,0.14 c -2.32,1.26 -6,-0.84 -7.09,2.79 -1.24,0 -2.42,-0.31 -3.32,0.05 -4.09,1.67 -8.11,3.49 -12.13,5.32 -4.39,2 -8.87,3.82 -13.06,6.16 -2,1.13 -5.5,0.9 -5.49,4.58 -0.66,-0.07 -1.32,-0.12 -2,-0.23 -0.15,0 -0.27,-0.26 -0.51,-0.52 l -0.73,2.32 c -1.39,0 -3,-0.44 -4.11,0.13 -0.94,0.48 -1.28,2.12 -1.89,3.25 l -3.14,1.24 c -1.05,-0.47 -2.29,-1.55 -3.09,-1.28 a 54.64,54.64 0 0 0 -6.8,3.21 c -8.67,4.15 -17.38,8.21 -26,12.48 -3.7,1.83 -7.2,4.09 -11.1,6.33 v -2.09 c 0.37,-2.7 0.75,-5.41 1.12,-8.12 1.07,-0.78 2.12,-1.58 3.2,-2.33 2,-1.4 4.34,-2.23 5.68,-4.76 a 8.2,8.2 0 0 0 1.06,-5.07 c 0,-0.15 0.65,-0.38 1,-0.57 l 4.18,1 c 0.29,-3.06 -0.79,-3.56 -4.22,-2.25 l -7.37,0.1 c 1.74,-4.22 3.21,-8.58 5.29,-12.63 2.2,-4.28 5,-8.27 7.48,-12.39 3,-0.08 6.11,0 9.13,-0.3 4.7,-0.52 9.39,-1.21 14,-2.09 a 24.31,24.31 0 0 0 11,-4.76 c -1.51,0.16 -2.46,0.2 -3.4,0.37 -2.53,0.45 -5.05,1 -7.59,1.42 a 89.52,89.52 0 0 1 -9.82,1.57 c -3.42,0.22 -6.87,-0.15 -10.31,-0.26 l 3.54,-4.31 c 2.63,-0.56 5.28,-1 7.86,-1.73 1.1,-0.31 2,-1.38 3.07,-1.74 2.27,-0.75 4.63,-1.18 6.92,-1.87 2.88,-0.87 5.7,-2 8.6,-2.78 2.64,-0.73 5.48,-0.86 8,-1.82 3.16,-1.19 6,-3.13 9.5,-3.51 0.53,-0.06 1,-0.34 1.55,-0.43 1.46,-0.24 2.92,-0.51 4.39,-0.63 1.25,-0.1 2.52,0 4.15,0 L 252,502.88 v 0 c 1.43,-0.08 3,0.18 4.28,-0.29 3.38,-1.2 6.66,-2.72 10,-4.12 2.2,-0.11 4.59,1 6.47,-1 1.25,-0.9 5.63,-0.64 7.63,0.71 l -6.52,1 0.13,0.67 10.32,-1.44 c 0.19,-0.86 0.35,-1.62 0.52,-2.38 l 0.67,0.1 c 0.07,0.48 0,1.28 0.25,1.39 a 8.28,8.28 0 0 0 2.15,0.42 l -1.65,-3.42 1.23,-1.42 c 3.48,0.05 7,0 10.44,0.18 4.31,0.19 8.62,0.51 12.93,0.77 l 7.17,0.75 c -2.29,-2.95 -4.75,-2.2 -7,-2.28 -3.55,-0.82 -7.06,-2.07 -10.66,-2.38 -5.17,-0.44 -10.4,-0.21 -15.6,-0.27 l -1,-2.53 a 18.18,18.18 0 0 1 2.91,-0.85 20.82,20.82 0 0 1 3.53,0 q 9.57,0.51 19.15,1.06 l 1.05,-0.25 -0.66,-0.65 -1.14,-1 -15.54,-9.54 -3.06,-1.86 c 4.06,0.1 8.11,0.36 12.16,0.27 a 24.53,24.53 0 0 1 12.17,2.91 c 3.15,1.64 6.65,2.6 10,3.87 1.41,0.53 3.12,0.65 3.18,-1.11 0.05,-1.12 -1.22,-2.64 -2.31,-3.39 -2.07,-1.46 -4.55,-2.34 -6.66,-3.76 -1.82,-1.22 -3.15,-3.54 -5.09,-4.17 a 64.68,64.68 0 0 0 -13.52,-3 73.44,73.44 0 0 0 -24.95,2 c -0.35,-0.33 -0.65,-0.82 -1.07,-1 -4.2,-1.46 -8.37,-3 -12.64,-4.25 -3.41,-1 -6.94,-1.53 -10.42,-2.27 q -8.26,-0.9 -16.53,-1.78 a 4.09,4.09 0 0 0 -1.28,0.3 c -1.65,-6.6 0.88,-11.73 5.68,-16.05 l 11.8,3.42 0.43,-1 c -1.19,-0.86 -2.41,-1.68 -3.55,-2.6 -1.76,-1.41 -3.47,-2.89 -5.2,-4.34 l 1.6,-3.13 c 3.13,1.38 6.32,2.65 9.39,4.16 3.64,1.79 7.17,3.79 10.75,5.7 a 2.85,2.85 0 0 0 0.5,0.14 l 1.6,1 v 0 a 22.84,22.84 0 0 0 3.59,2.92 c 3,1.59 5.76,4 9.52,3.58 1.56,-0.16 3.13,-0.36 4.75,-0.55 0.21,-0.69 0.48,-1.61 0.84,-2.78 l -2.22,-1.14 v 0 l -3.29,-2.17 q -6.78,-4.71 -13.57,-9.42 l -17.94,-12.54 -1.09,-1 h -0.06 l -1.23,-1.08 c -0.2,-0.87 -0.39,-1.74 -0.59,-2.6 0.93,0.26 1.89,0.44 2.79,0.79 1.46,0.58 2.87,1.3 4.32,1.9 2.8,1.16 5.7,2.1 8.38,3.47 2.84,1.46 5.41,3.44 8.21,5 2.8,1.56 5.47,2.68 8.24,4 a 24.92,24.92 0 0 0 2.71,0.84 c -2.93,-4.71 -7.18,-6.61 -11.15,-8.83 -2.32,-1.29 -4.81,-2.26 -7.2,-3.43 -2,-1 -3.92,-2.11 -5.91,-3.11 -2.67,-1.33 -5.63,-2.25 -7.95,-4 a 6.39,6.39 0 0 0 -4,-1.47 c -1.92,-3.42 -3.77,-6.87 -5.77,-10.24 -1.68,-2.84 -3.52,-5.59 -5.29,-8.38 3.91,1.46 7.85,2.84 11.71,4.42 2.22,0.9 4.21,2.34 6.44,3.2 4.95,1.91 10.08,3.41 15,5.47 5.44,2.29 10.7,5 16,7.56 1.17,0.55 2.34,1.13 3.5,1.7 l 1.77,-0.26 c 0.92,1.15 1.46,2.26 3.27,3 3.52,1.38 6.57,4 9.76,6.13 1.8,1.21 3.52,2.55 5.27,3.84 4.67,4.06 8.74,9.06 15.53,9.83 a 4,4 0 0 1 2.05,1 c 1.55,1.39 3,2.89 4.73,4.59 a 8.67,8.67 0 0 0 -0.2,-1.93 c -1.48,-3.65 -5.67,-5.81 -5.65,-10.32 0,-0.3 -0.67,-0.57 -0.94,-0.93 -3.73,-4.85 -7.43,-9.71 -11.16,-14.56 -1.86,-2.41 -3.93,-4.67 -5.62,-7.2 a 25.25,25.25 0 0 0 -4.24,-4.89 c -2.41,-2.16 -4.51,-4.86 -4.89,-8.37 a 8.42,8.42 0 0 0 1.5,-1.41 c 5.37,-8.42 8.39,-17.46 6.16,-27.52 -2.56,-11.58 -8.93,-20.25 -20.86,-23.19 -11.26,-2.77 -20.87,0.92 -28.59,9.53 -9.08,-7.47 -15.93,-16.93 -23.51,-25.91 l 3,-0.87 c -0.74,-1.61 -1.39,-3 -2,-4.41 a 94.72,94.72 0 0 1 7,-7.45 c 6.06,-5.3 13.25,-7.19 21.21,-6.19 1.75,3.6 5.16,4.7 8.64,5.51 1.85,0.44 4,0 5.65,0.75 2,1 3.57,2.85 5.43,4.43 l -2.2,-6.07 c 0,-2 1.81,-4 0,-5.95 a 4.31,4.31 0 0 1 0.37,-0.37 c 0.31,-0.46 0.79,-0.89 0.88,-1.39 0.13,-0.68 -0.34,-1.6 0,-2.09 1.32,-2.13 -0.09,-3.46 -1.19,-4.92 l -2.05,-2.86 c -0.29,-1 -1,-2.18 1,-2.08 l 7.76,3.68 a 6.94,6.94 0 0 0 7.66,3.81 c 1.66,0.36 3.4,0.56 3.94,2.67 0.1,0.4 0.73,0.72 1.18,1 5.29,2.95 9.08,7.39 12.38,12.35 a 3.05,3.05 0 0 0 1.91,1.33 c 2.5,0.19 2.87,2.66 4.39,3.77 3.75,2.74 5.06,7.24 8.09,10.51 3.59,3.87 6.61,8.26 9.89,12.42 a 4.32,4.32 0 0 0 0.86,0.65 c 1.09,2.1 1.7,4.57 4.31,5.47 v 0 a 9.82,9.82 0 0 0 0.3,2.85 c 0.24,0.59 1.44,0.78 1.71,1.38 1.29,2.91 2.18,3.15 4.21,0.91 l 0.08,0.1 z m -57.76,133.58 0.1,0.15 -0.12,-0.13 -0.13,-0.13 z m 25.43,-42.87 -0.56,0.68 c 0.88,0.69 1.81,1.33 2.63,2.09 0.82,0.76 2.6,2.41 2.46,2.6 -1.4,2 0.57,2 1.36,2.68 0.79,0.68 1.5,1.26 2.29,1.83 2.19,1.59 4.41,3.15 6.61,4.73 l 0.4,-0.55 c -4.97,-4.78 -9.23,-10.34 -15.19,-14.06 z"
         class="cls-1"
         inkscape:connector-curvature="0"
         style="fill:#e1b435" />
      <path
         id="path287"
         transform="translate(-138.76,-266.38)"
         d="m 193,528.09 c -2.52,4.12 -5.28,8.11 -7.48,12.39 -2.08,4 -3.55,8.41 -5.29,12.63 Q 178.52,560 176.75,567 c -0.37,2.71 -0.75,5.42 -1.11,8.11 0,-0.34 0.09,-0.65 0.13,-1 -1.85,8.75 0.65,17 2.67,25.37 l 1.49,4.55 c 0.08,0.53 0.13,1.06 0.25,1.58 2.71,11.68 10.94,19.43 19.29,27.09 l 4.78,4.38 c 4.59,4.57 10.4,7.36 16.27,9.46 11.17,4 22.73,6.71 34.8,5.74 l 7.72,-0.53 15.16,-2.68 14,-4.09 a 141.37,141.37 0 0 0 26.72,-12.42 c 6.7,-4.13 13.39,-8.35 19.65,-13.1 a 79.82,79.82 0 0 0 17.61,-18.55 5.25,5.25 0 0 1 1.3,-1 c 0.31,0.47 0.94,1 0.87,1.38 a 10.08,10.08 0 0 1 -1.23,4 127.85,127.85 0 0 1 -18.54,19.71 c -3.58,3.19 -7.09,6.47 -10.72,9.6 -13.16,11.33 -27.55,20.27 -45,23.21 -8.3,1.39 -16.55,3.28 -24.9,4.23 a 77.26,77.26 0 0 1 -36.87,-4.28 c -9.33,-3.55 -17.72,-8.25 -24.7,-15.38 l -5.41,-4.72 c -1.06,-1.22 -2.17,-2.4 -3.17,-3.67 -6.23,-8 -12,-16.31 -14.79,-26.28 -0.51,-1.29 -1,-2.58 -1.54,-3.88 a 57.77,57.77 0 0 1 -4,-20.49 141.24,141.24 0 0 1 0.08,-15.94 c 0.38,-4.48 1.69,-8.89 2.6,-13.33 q 2.22,-6.4 4.46,-12.8 1,-2.34 2,-4.66 1.11,-2.88 2.24,-5.76 c 0.19,-0.24 0.38,-0.48 0.58,-0.71 l 2.07,-3.46 12.84,-16.68 9.64,-9.08 c 3.73,-2.78 7.56,-5.43 11.17,-8.35 10.76,-8.69 23.22,-14 36.23,-18.16 6.73,-2.15 13.57,-3.93 20.36,-5.89 l 3.22,-0.53 a 73.44,73.44 0 0 1 24.95,-2 64.68,64.68 0 0 1 13.52,3 c 1.94,0.63 3.27,2.95 5.09,4.17 2.11,1.42 4.59,2.3 6.66,3.76 1.09,0.75 2.36,2.27 2.31,3.39 -0.06,1.76 -1.77,1.64 -3.18,1.11 -3.35,-1.27 -6.85,-2.23 -10,-3.87 a 24.53,24.53 0 0 0 -12.17,-2.91 c -4,0.09 -8.1,-0.17 -12.16,-0.27 -4.12,0.23 -8.34,0 -12.34,0.78 a 133.32,133.32 0 0 0 -31.77,11.1 l -6.88,3.6 a 27.45,27.45 0 0 0 -3.32,1.73 q -10.2,7.19 -20.32,14.46 c -1.16,0.84 -2.18,1.89 -3.26,2.84 l -7.1,5.39 -5.36,5.46 -3.55,4.27 z"
         class="cls-2"
         inkscape:connector-curvature="0"
         style="fill:#050503" />
      <path
         id="path289"
         transform="translate(-138.76,-266.38)"
         d="m 387.38,617 a 49,49 0 0 1 -21,-3.88 15.16,15.16 0 0 1 -4.39,-3.64 2.39,2.39 0 0 1 0.6,-2.16 18.42,18.42 0 0 1 5.35,-1.78 63.53,63.53 0 0 1 7.31,-0.14 67.16,67.16 0 0 0 18.24,-2.09 c 5.3,-0.42 10.13,-2.35 14.87,-4.57 8.46,-3.94 15.69,-9.7 22.63,-15.78 6.06,-5.3 11.26,-11.31 12.23,-19.83 l 0.64,-12 q -0.51,-10.92 -1,-21.83 c 0,-0.35 -0.2,-0.69 -0.22,-1 -0.14,-2.46 -0.26,-4.92 -0.39,-7.38 q 1,-6.23 2.08,-12.43 c 3.21,-10.87 11.05,-18.33 19,-25.69 2.92,-2.71 5.73,-5.73 9.87,-6.42 a 32.63,32.63 0 0 1 7.65,-0.27 c 2.2,0.17 3.25,1.73 3,4 -0.28,2.67 -0.66,5.33 -0.86,8 -0.38,4.89 -3.61,8.24 -6.3,11.9 -4.63,6.28 -9.54,12.39 -13.77,18.94 -1.47,2.29 -1.53,5.62 -1.8,8.52 -0.44,4.78 -0.69,9.59 -0.71,14.39 0,5.15 0.83,10.35 0.39,15.45 -0.76,8.63 -0.73,17.46 -3.74,25.73 -3.01,8.27 -8.29,14.79 -14.67,20.74 -6.66,6.21 -15,8.35 -23.22,10.9 -3.31,1 -6.76,1.57 -10.14,2.34 -2,0 -4,-0.08 -6,-0.07 -5.21,-0.04 -10.43,0.05 -15.65,0.05 z"
         class="cls-2"
         inkscape:connector-curvature="0"
         style="fill:#050503" />
      <path
         id="path291"
         transform="translate(-138.76,-266.38)"
         d="m 394.45,359.71 -0.74,-0.94 -0.93,-1.2 -1.21,-1.57 c -0.32,-0.42 -0.64,-0.83 -0.95,-1.25 l -0.74,-0.92 -2,-2.42 a 0.32,0.32 0 0 0 -0.24,-0.31 l -0.25,-0.3 a 0.31,0.31 0 0 0 -0.24,-0.27 l -0.78,-0.95 -1,-1.17 c -0.09,-0.09 -0.17,-0.19 -0.26,-0.29 -4.25,-4.46 -8.34,-9.08 -12.8,-13.33 -5.55,-5.3 -10.75,-11 -17.42,-15.1 -11.81,-7.23 -23.57,-14.52 -37.28,-17.76 -4.32,-1 -8.63,-2.13 -13,-3.12 -0.52,-0.11 -1.17,0.3 -2.39,0.66 L 279,292.78 c 0.51,-3.3 3.07,-4 5.53,-4.17 7.59,-0.37 15.21,-0.79 22.79,-0.49 5.81,0.22 11.58,1.45 17.35,2.36 11,1.71 20.57,6.67 29.57,12.85 a 135.25,135.25 0 0 1 12.71,10.06 c 8,7.07 16.12,14.1 23.73,21.61 a 201.4,201.4 0 0 1 27.38,32.63 c 7.69,11.71 12.26,24.88 15.54,38.42 4,16.41 7.35,32.92 6.7,50 -0.21,5.52 0.5,11.06 0.39,16.58 -0.15,7.66 -0.56,15.32 -1.16,22.95 -0.1,1.22 -1.79,2.31 -2.75,3.46 -1,-1.43 -3,-2.84 -3,-4.31 -0.28,-7 0.1,-14 0,-20.93 A 173.25,173.25 0 0 0 424.93,422 c -2.88,-8.77 -5.93,-17.48 -8.9,-26.21 l -0.34,-0.66 c -0.13,-0.32 -0.25,-0.63 -0.38,-0.94 l 0.07,-0.18 h -0.21 c -0.1,-0.3 -0.21,-0.6 -0.32,-0.89 v -0.22 h -0.21 c -0.37,-0.82 -0.74,-1.64 -1.12,-2.45 l 0.1,-0.13 h -0.17 a 0.32,0.32 0 0 0 -0.15,-0.36 c -0.47,-1 -0.95,-2 -1.42,-2.95 a 0.33,0.33 0 0 0 -0.17,-0.36 l -0.9,-1.86 c -0.3,-0.65 -0.59,-1.3 -0.88,-1.94 -3.83,-8.65 -9.47,-16.02 -15.48,-23.14 z"
         class="cls-2"
         inkscape:connector-curvature="0"
         style="fill:#050503" />
      <path
         id="path293"
         transform="translate(-138.76,-266.38)"
         d="m 278.2,649.08 -15.2,2.68 -2.52,-1.17 c 0.55,-1.54 1,-3.08 1.64,-4.5 0.64,-1.42 1.31,-2.74 -0.41,-3.9 -0.28,-0.19 -0.71,-0.66 -0.64,-0.81 1.54,-3.55 -2,-3.5 -3.59,-5.15 2,-2.3 4.07,-4.65 6.14,-7 2.07,-2.35 4,-4.43 6,-6.65 l -0.77,-0.69 c -3.38,2.71 -6.89,5.27 -10.07,8.2 -1.51,1.4 -1.84,0.66 -2.44,-0.51 -1,-1.92 1.21,-8.68 3.1,-10 a 38.74,38.74 0 0 0 3.91,-3.23 42.73,42.73 0 0 0 3.8,-3.69 c 1.13,-1.3 1.89,-2.94 3.08,-4.17 2,-2.06 4.68,-3.59 6.15,-5.93 1.91,-3 4.68,-4.83 7.27,-7 l 6.94,2.54 c -1.52,1.68 -3.07,3.33 -4.55,5 a 13.63,13.63 0 0 0 -1.14,1.88 11.42,11.42 0 0 0 2.29,-0.66 c 0.4,-0.2 0.51,-0.92 0.89,-1.23 1.79,-1.43 2.52,-4.17 5.35,-4.31 a 77.63,77.63 0 0 0 8.91,-0.51 c 11.27,-1.86 19,-8.36 23.93,-18.55 2.46,-5.06 2,-10.37 2.16,-15.66 0.09,0 0.2,0 0.26,0 2.65,-2 5.26,-4.15 8.9,-2.27 a 0.65,0.65 0 0 0 0.53,0 l 9.41,-4.82 2.61,-1.79 c 1.4,-0.25 2.79,-0.62 4.2,-0.73 a 21.31,21.31 0 0 1 3.27,0.22 c 0.42,3.76 0.64,7.58 3.43,10.56 0,0.06 0,0.18 0,0.27 -0.87,1.28 -1.74,3.64 -2.61,3.64 -4.07,0 -4.38,3.2 -5.59,5.7 l -1.78,2.1 -11.32,9.33 0.46,0.53 c -0.82,0.8 -1.62,1.62 -2.46,2.4 a 60.69,60.69 0 0 0 -4.85,5.18 c -1.93,2.24 -3.57,4.75 -5.59,6.92 -0.25,0.26 -0.76,0.6 -1,0.51 -1.81,-0.83 -2.07,0.83 -2.69,1.71 -1.16,1.65 -2.17,3.41 -3.23,5.14 a 5.23,5.23 0 0 0 -0.7,1.37 c -0.7,2.95 -2.73,4.43 -5.5,5.45 a 12.09,12.09 0 0 0 -5.28,4 c -2.16,3 -3.17,6.71 -6.33,9 -3.16,2.29 -4.06,6.66 -8.36,7.48 a 1,1 0 0 0 -0.43,0.32 l -2.78,2.85 c 1,1.67 -0.07,2.57 -2.14,3.61 -3.7,1.86 -7.13,4.2 -10.66,6.34 z"
         class="cls-1"
         inkscape:connector-curvature="0"
         style="fill:#e1b435" />
      <path
         id="path295"
         transform="translate(-138.76,-266.38)"
         d="m 442.25,520.86 c 0.13,2.46 0.25,4.92 0.39,7.38 0,0.36 0.2,0.7 0.22,1 q 0.52,10.92 1,21.82 l -2.85,1.79 a 19.74,19.74 0 0 1 -0.95,2.62 c -1.76,3.46 -3.72,6.81 -5.36,10.33 -1.07,2.29 -1.63,4.82 -2.56,7.19 -0.65,1.66 -1.54,3.23 -2.32,4.84 l 0.66,0.52 c 1.77,-1.65 3.84,-3.09 5.25,-5 1.62,-2.22 2.54,-4.94 4,-7.29 0.8,-1.28 1,-3.6 3.47,-3 -1,8.52 -6.17,14.53 -12.23,19.83 -6.94,6.08 -14.17,11.84 -22.63,15.78 -4.74,2.22 -9.57,4.15 -14.87,4.57 -7.69,1.11 -14.12,-3 -21.61,-4.56 -1.16,0.2 -3.14,1.17 -4.68,0.7 -2.56,-0.79 -4.82,-2.5 -7.21,-3.82 -0.31,-0.32 -0.92,-0.83 -0.87,-0.92 1.34,-2.1 -0.43,-3.36 -1.17,-4.94 -0.32,-0.69 -0.05,-1.66 -0.05,-2.75 l 3.38,0.93 -2.26,-2.5 c 4.13,-4 8.87,-1.55 13.33,-1.59 2.42,0 4.84,-0.13 7.25,-0.19 3.66,-1.11 7.47,-1.86 10.89,-3.46 1.51,-0.71 4,-2.42 2.18,-5.21 -0.13,-0.2 0.16,-0.68 0.26,-1 16.2,-6.87 22.48,-16.47 21.48,-32.84 0.58,-2.58 1,-5.2 1.76,-7.74 a 66.54,66.54 0 0 1 2.73,-7.79 24.59,24.59 0 0 1 2.71,-4.22 c 1.9,-2.73 3.86,-5.43 6.06,-8.53 a 4.11,4.11 0 0 0 2.26,-0.18 c 2.16,-1.34 3.64,-0.23 4.83,1.21 1.19,1.44 2.05,1.28 3.35,0.24 0.68,-0.55 2,-1.12 2.51,-0.82 0.51,0.3 0.95,1.61 1.1,2.52 0.3,1.7 0.4,3.39 0.55,5.08 z"
         class="cls-1"
         inkscape:connector-curvature="0"
         style="fill:#e1b435" />
      <path
         id="path297"
         transform="translate(-138.76,-266.38)"
         d="m 414.45,541.12 c 1,16.37 -5.28,26 -21.47,32.84 l -12.64,1.64 c -7.24,-0.24 -13.16,-3.29 -18.11,-8.45 -0.39,-0.53 -0.77,-1.07 -1.16,-1.61 0,-0.09 0,-0.21 0,-0.27 -2.79,-3 -3,-6.8 -3.43,-10.55 0,-1.29 0.07,-2.58 0.11,-3.88 a 33.86,33.86 0 0 1 6,-14 42,42 0 0 1 13.8,-10.36 l 1.19,-0.38 c 8.22,-3.35 16.3,-2.45 24.28,0.85 l 2.31,1.46 4.51,3.94 z"
         class="cls-2"
         inkscape:connector-curvature="0"
         style="fill:#050503" />
      <path
         id="path299"
         transform="translate(-138.76,-266.38)"
         d="m 414.45,541.12 -4.62,-8.79 c 1.52,-1.72 3.12,-3.39 4.52,-5.21 a 2.15,2.15 0 0 0 0,-2 c -1.5,-2.17 -0.17,-2.23 1.53,-2.57 0.88,-0.18 2.23,-1.15 2.28,-1.84 a 10.42,10.42 0 0 0 -0.81,-4.88 c -1.52,-3.22 0.51,-5.75 0.83,-8.59 l 0.85,-0.14 c 1,2.9 1.91,5.8 3,9.13 1.22,-1.61 2.33,-3 3.32,-4.46 0.17,-0.25 -0.16,-0.83 -0.27,-1.26 -0.34,-1.28 -0.59,-2.59 -1,-3.83 -0.58,-1.6 -1.23,-3.24 -3.52,-2.68 -0.93,0.22 -1.89,0.32 -3.28,0.55 0.12,-2.16 0.22,-4 0.33,-5.93 l 0.92,-0.06 c 0.49,1.45 1,2.89 1.54,4.5 2.06,-1.1 2,-2.73 1.91,-4.46 -0.09,-1.5 0,-3 0,-4.53 0,-1.25 0.4,-3.39 -0.05,-3.59 -2.24,-1 -1.38,-2.92 -1.84,-4.42 a 11.66,11.66 0 0 0 -0.61,-2.2 8.06,8.06 0 0 0 -1.48,-1.56 c -0.38,0.67 -1.09,1.36 -1.08,2 0,2.07 0.39,4.12 0.55,6.19 0.14,1.87 0.19,3.75 0.28,5.63 h -0.76 l -0.5,-4.24 -3.77,2 c -0.35,-0.73 -0.72,-1.52 -1.21,-2.56 -0.1,1.48 -0.18,2.63 -0.27,3.77 l -3,0.53 c 0,1.38 -0.47,2.93 0.09,3.84 1.76,2.84 0.39,5.44 -0.31,8 -0.25,0.91 -1.61,1.52 -2.47,2.26 l -0.61,-0.65 0.5,-1.78 -3.35,0.2 c 3.57,1 0.36,2.51 0.46,3.63 a 25.88,25.88 0 0 1 -2.53,-3.89 c -2.63,-6.17 -4.94,-12.43 -3.81,-19.16 2.6,0 4.95,0.12 7.27,-0.1 0.43,0 1,-1.43 1,-2.19 0,-1.29 -0.62,-2.55 -0.73,-3.84 -0.3,-3.36 -0.46,-6.73 -0.68,-10.1 a 25.75,25.75 0 0 0 8.2,-12.75 24.6,24.6 0 0 0 -4.34,-21.65 c 0.36,-0.23 1,-0.42 1,-0.69 a 22.47,22.47 0 0 0 -1.36,-11.52 c -0.75,-1.89 -3.07,-2.81 -3.42,-5.25 -0.75,-5.08 -1.8,-10.12 -2.8,-15.16 a 8.26,8.26 0 0 0 -1.12,-2.05 c 3.25,-1.36 -0.46,-2.78 -0.11,-4.33 l -2.8,0.23 a 55.52,55.52 0 0 0 -1.43,-6 24.94,24.94 0 0 0 -2.18,-3.65 c -0.92,-1.65 -1.49,-3.6 -2.73,-4.93 -1,-1.05 -2.77,-1.34 -5,-2.32 0.51,1.82 0.8,2.83 1.3,4.61 -1.23,-0.6 -2.23,-0.77 -2.64,-1.36 -0.8,-1.16 -1.15,-2.64 -1.92,-3.82 -0.94,-1.42 -0.79,-3.43 -2.77,-4.37 -0.65,-0.31 -0.57,-2.09 -0.89,-3.17 -0.32,-1.08 -0.66,-1.93 -1,-2.89 h 3.47 c 0.07,-0.92 0.13,-1.76 0.2,-2.78 l -1.92,-0.09 a 23.26,23.26 0 0 1 0,-2.8 c 0,-0.34 0.49,-0.63 0.75,-0.94 l 1.71,1.82 c 0.24,-0.36 0.61,-0.94 1,-1.52 h 0.67 c 0.12,1.18 0.19,2.37 0.39,3.54 0.07,0.39 0.4,1 0.7,1.05 2.93,0.63 3.05,3.36 4.2,5.35 a 11.12,11.12 0 0 0 2,2.05 c 0.06,0.06 0.22,0.07 0.23,0.12 0.48,2.8 3.19,4 4.64,6.11 1.57,2.29 2.2,5 3.89,7.13 0.75,1 1.51,2.55 1.24,3.59 -0.87,3.4 2,4.77 3.25,7 a 3.71,3.71 0 0 1 0.4,1.26 c 0.36,2.59 0.69,5.18 1.09,8.2 l 1.59,-1.66 1.6,5.15 2.16,-1.09 c 0,2.23 -0.54,4.38 0.13,6 0.82,2 2.6,3.55 1.52,6 2.63,1.86 1.1,4.71 1.78,7.45 3.4,-1.14 3.82,2.08 4.69,3.9 0.77,1.62 0.16,3.9 0.16,6.43 l 3.32,-1.14 c -0.62,1.36 -1.61,2.58 -1.66,3.85 -0.07,1.46 0.73,2.95 1.08,4.44 a 24.41,24.41 0 0 1 0.55,3.28 c 0.19,1.88 -0.37,4.09 2.87,4 0.54,0 1.41,2.06 1.62,3.26 0.31,1.77 0.1,3.63 0.24,5.43 0.14,1.8 0.41,3.5 0.67,5.63 l -1.22,0.68 v 18 h -2.57 c 0.42,3.87 6.47,4.87 5.1,9.57 a 5.53,5.53 0 0 1 0.26,2 c -0.81,2.79 1.77,3.75 3.08,4.8 3,2.39 4.14,1.58 4.58,-2.62 l 2.64,-1.27 5.18,6.34 q -1.05,6.23 -2.08,12.44 c -0.15,-1.69 -0.21,-3.38 -0.49,-5.05 -0.15,-0.91 -0.45,-2.15 -1.1,-2.52 -0.65,-0.37 -1.83,0.27 -2.51,0.82 -1.3,1 -2.15,1.21 -3.35,-0.24 -1.2,-1.45 -2.67,-2.55 -4.83,-1.21 a 4.11,4.11 0 0 1 -2.26,0.18 c -2.2,3.1 -4.16,5.8 -6.06,8.53 a 24.59,24.59 0 0 0 -2.71,4.22 66.54,66.54 0 0 0 -2.73,7.79 c -0.73,2.67 -1.22,5.29 -1.77,7.87 z m 7.07,-66.33 c 2.84,-5.5 -1.27,-10.08 -1.34,-15.17 -0.05,-2.79 -1.88,-5.53 -2.86,-8.32 -0.19,-0.54 -0.39,-1.56 -0.19,-1.68 2.31,-1.35 0.81,-3.12 0.56,-4.69 a 13.35,13.35 0 0 0 -1.08,-4 c -0.92,-1.75 1.2,-5.23 -3.52,-5.16 a 64.92,64.92 0 0 0 0.78,6.74 c 1.23,5.67 2.65,11.3 4,16.95 a 6.14,6.14 0 0 1 0,1.35 c 0,4.48 0,9 0,13.43 z m -3.6,3.77 -1.19,0.45 a 17.68,17.68 0 0 0 0.83,1.94 5.69,5.69 0 0 0 1.09,-0.39 z"
         class="cls-3"
         inkscape:connector-curvature="0"
         style="fill:#efd99c" />
      <path
         id="path301"
         transform="translate(-138.76,-266.38)"
         d="m 238.71,442.92 c -4.8,4.32 -7.33,9.45 -5.68,16.05 a 23.07,23.07 0 0 0 2.35,3.9 c 1.72,1.93 1.27,3.1 -1.44,4.29 -2,-3 -4,-6 -6,-9 -3.3,-5.38 -3.12,-10.71 0.26,-16 l 2.52,-3.56 3.25,-4.93 1.7,-3.18 a 24.41,24.41 0 0 0 1.52,-4.79 c 0.69,-6.67 -1.66,-12.41 -5.78,-17.52 l -12.25,-17.77 -2.33,-4.74 c -1.24,-4.32 -2.81,-8.59 -3.64,-13 -1.95,-10.36 -2.65,-20.81 0.08,-31.14 a 35.3,35.3 0 0 1 3.77,-8 c 2.16,-3.82 4.53,-7.53 6.8,-11.29 l 2.78,-3.79 v 0 a 0.36,0.36 0 0 0 0.33,-0.29 l 5.49,-4.47 2.37,-1.48 10.72,-5.09 8.57,-0.06 a 20.14,20.14 0 0 1 4.07,1.19 c 1,0.51 1.89,1.57 0.16,2.51 -8,-1 -15.16,0.89 -21.22,6.19 a 94.72,94.72 0 0 0 -7,7.45 l -6.23,10.41 -4.12,13.24 -0.46,3.11 c -0.26,2.05 -0.91,4.13 -0.74,6.14 a 80.31,80.31 0 0 0 9.52,32.3 l 4.08,6.29 c 1.77,2.79 3.61,5.54 5.29,8.38 2,3.37 3.85,6.82 5.77,10.24 0.52,1.64 1,3.28 1.57,4.92 0.2,0.86 0.39,1.73 0.59,2.6 0.07,1.09 0.13,2.17 0.2,3.26 l 0.09,1.39 c -0.62,2.86 -1.25,5.72 -1.87,8.58 l -1.6,3.13 z"
         class="cls-2"
         inkscape:connector-curvature="0"
         style="fill:#050503" />
      <path
         id="path303"
         transform="translate(-138.76,-266.38)"
         d="m 216.8,385.67 2.33,4.74 c -6,-1.55 -11.94,-3.17 -17.95,-4.63 -3.2,-0.77 -6.51,-1.14 -9.71,-1.91 -2.15,-0.51 -4.15,-1.75 -6.31,-2.05 -5.84,-0.83 -11.61,0.08 -17.3,1.4 -0.38,0.08 -0.62,0.74 -1.4,1.75 3.93,1.57 7.48,3.07 11.1,4.4 3.62,1.33 7.42,2.39 11,3.81 3.58,1.42 7.32,3.39 11.06,4.88 3.74,1.49 7.56,2.64 11.32,4 3.4,1.23 6.73,2.61 10.14,3.81 2.94,1.05 5.94,2 8.94,2.84 0.36,0.11 0.88,-0.35 1.33,-0.54 4.12,5.11 6.47,10.85 5.78,17.52 a 24.41,24.41 0 0 1 -1.52,4.79 13,13 0 0 1 -2.51,-1 c -3.52,-2.23 -6.88,-4.71 -10.5,-6.75 a 75.76,75.76 0 0 0 -8.69,-3.82 c -1.32,-0.54 -2.73,-0.88 -4.1,-1.3 l -0.23,0.75 c 3.53,2.23 7,4.5 10.61,6.69 2.65,1.63 5.4,3.1 8,4.74 1.94,1.2 3.79,2.55 5.68,3.83 l -3.25,4.93 c -1.27,-0.59 -2.6,-1.1 -3.81,-1.79 -4.69,-2.66 -9.36,-5.32 -14,-8.11 a 16.58,16.58 0 0 1 -2.57,-2.59 26.32,26.32 0 0 0 -3.05,-2.84 c -2.67,-1.88 -5.44,-3.64 -8.46,-5.64 l 4.21,-3.77 -7.13,-5.81 c 3.62,1.3 7.22,2.64 10.86,3.87 8.05,2.72 16,5.67 23.36,10 a 49.63,49.63 0 0 0 5,2.28 c 0.89,-1.7 0.78,-3 -0.83,-3.8 -1.61,-0.8 -3.54,-1.63 -5.17,-2.66 -9.8,-6.2 -20.32,-11 -31,-15.51 -2.39,-1 -5.28,-2.7 -8.09,-0.54 a 20.41,20.41 0 0 0 -2.12,2.14 c -1.13,-3.17 -4.38,-2.34 -6.61,-3.43 -3.45,-1.69 -7.29,-2.71 -10.52,-4.72 -3,-1.84 -5.29,-4.73 -8.07,-6.94 -1.54,-1.23 -1.13,-2.13 0,-3 1.9,-1.4 3.93,-2.63 5.88,-4 a 19,19 0 0 0 1.64,-1.46 c -1.24,-0.66 -2.36,-1.17 -3.37,-1.83 -0.53,-0.36 -1.27,-1.06 -1.2,-1.49 a 2,2 0 0 1 1.45,-1.3 46,46 0 0 1 6.21,0 48.52,48.52 0 0 1 5.63,0.77 c 3.41,0.62 6.81,1.33 10.21,2 1.59,0.31 3.2,0.5 4.74,0.95 2.86,0.82 5.66,1.8 8.5,2.68 2.62,0.81 5.26,1.05 7.61,3.18 1.4,1.23 4.55,0.4 6.88,0.48 z"
         class="cls-3"
         inkscape:connector-curvature="0"
         style="fill:#efd99c" />
      <path
         id="path305"
         transform="translate(-138.76,-266.38)"
         d="m 173,607.73 c 2.8,10 8.56,18.26 14.79,26.28 1,1.27 2.11,2.45 3.17,3.67 -0.71,2.75 -2.44,4.25 -5.12,5.37 -1.91,0.8 -3.24,2.91 -5.61,3.27 -0.45,0.07 -0.75,0.93 -1.17,1.37 -0.42,0.44 -1.14,1.1 -1.73,1.61 -1.44,1.24 -4.71,0.44 -4.06,3.74 l -2.47,0.64 -0.53,0.24 c -0.71,-1 -1.82,-2 -2,-3.18 a 32.57,32.57 0 0 1 -0.14,-5.77 c 0,-2.22 0,-4.45 0,-7 l -6.83,2.19 -0.67,-0.46 1.82,-3.33 -7.68,1 -0.79,-1.1 c 0.94,-1.6 1.93,-3.16 2.79,-4.8 0.6,-1.13 1.54,-2.43 1.39,-3.52 -0.49,-3.45 1,-5.42 4,-6.71 a 3.49,3.49 0 0 0 0.82,-0.49 c -0.09,-1.37 -0.58,-2.66 -0.14,-3.17 a 68.49,68.49 0 0 1 5.17,-5.05 z"
         class="cls-1"
         inkscape:connector-curvature="0"
         style="fill:#e1b435" />
      <path
         id="path307"
         transform="translate(-138.76,-266.38)"
         d="m 274.78,295.76 c -2,-0.1 -1.27,1.09 -1,2.08 -1.55,0.44 -2.18,1.33 -1.25,3 l -2.47,0.39 c -0.26,2.29 -0.53,4.58 -0.82,7 a 11.79,11.79 0 0 1 -6.54,-4.31 47.63,47.63 0 0 0 -7.32,-7.22 c -0.93,-0.81 -2.1,-2.22 -3.75,-0.89 -0.16,0.12 -0.85,-0.2 -1.12,-0.48 -3.78,-3.89 -7.68,-7.66 -11.22,-11.75 -2.62,-3 -4.71,-6.49 -7.15,-9.67 -1.08,-1.42 -1.13,-2.56 0.14,-3.78 0.39,-0.37 1,-0.77 1.06,-1.18 0.14,-3.75 2.45,-2.49 4.59,-2.24 a 65.22,65.22 0 0 0 6.56,0 2.93,2.93 0 0 1 1.63,0.53 c 2,1.55 4.09,3.08 6,4.79 1.73,1.55 3.27,3.3 4.88,5 0.56,0.59 1.13,1.18 1.64,1.81 3.25,4 5.32,8.79 7.91,13.22 1.26,2.16 3.38,4 6.52,2.94 0.44,-0.08 1.13,0.51 1.71,0.76 z"
         class="cls-3"
         inkscape:connector-curvature="0"
         style="fill:#efd99c" />
      <path
         id="path309"
         transform="translate(-138.76,-266.38)"
         d="m 204,500.87 -9.63,9.07 -5.41,0.8 c -2.75,0.41 -5.53,0.68 -8.25,1.23 -6.57,1.34 -13.11,2.77 -19.65,4.24 a 26.43,26.43 0 0 0 -3.68,1.39 c 9.65,1 19.13,-2.16 28.61,0.36 -2,0.2 -3.93,0.35 -5.88,0.6 -4.74,0.61 -9.46,1.27 -14.19,1.9 l -0.19,-0.2 c -0.66,-0.37 -1.31,-1 -2,-1.06 -2.44,-0.1 -4.9,0.07 -7.34,0 a 10.24,10.24 0 0 1 -2.41,-0.68 l 1.76,-2.18 -1.8,-0.89 c 0.53,-0.64 1,-1.16 1.4,-1.71 1.78,-2.39 2.47,-5.73 5.84,-6.78 a 7.85,7.85 0 0 0 -0.21,-1.13 C 175,500.82 189.42,500.1 204,500.87 Z"
         class="cls-3"
         inkscape:connector-curvature="0"
         style="fill:#efd99c" />
      <path
         id="path311"
         transform="translate(-138.76,-266.38)"
         d="m 173,607.73 -5.07,4.81 a 68.49,68.49 0 0 0 -5.17,5.05 c -0.44,0.51 0,1.8 0.14,3.17 a 3.49,3.49 0 0 1 -0.82,0.49 c -2.94,1.29 -4.45,3.26 -4,6.71 0.15,1.09 -0.79,2.39 -1.39,3.52 -0.86,1.64 -1.85,3.2 -2.79,4.8 l 0.79,1.1 7.68,-1 -1.82,3.33 0.67,0.46 6.83,-2.19 c 0,2.57 0,4.8 0,7 a 32.57,32.57 0 0 0 0.14,5.77 c 0.22,1.15 1.33,2.13 2,3.18 -1.72,0.15 -3.32,1 -5.11,-0.46 -1.6,-1.32 -2,-2.41 -0.44,-3.64 2.63,-2 1.08,-5 2,-7.43 0.06,-0.16 -0.87,-1 -1,-0.89 a 4.2,4.2 0 0 0 -1,0.85 l -9.26,1 c 0.06,-0.88 0.13,-1.78 0.2,-2.67 a 7.62,7.62 0 0 1 -2.13,0.49 2.63,2.63 0 0 1 -1.79,-0.83 c -1.11,-1.52 -1.31,-4 -4.26,-1.39 -1.54,1.38 -4.48,1.35 -6.83,1.62 -0.75,0.09 -1.63,-0.91 -1.86,-1 a 15.52,15.52 0 0 1 0.73,-3.62 20.83,20.83 0 0 1 2.18,-2.84 c 0.49,-0.65 0.88,-1.38 1.33,-2.07 0.3,-0.47 0.6,-1 0.94,-1.41 0.78,-1.07 1.61,-2.11 2.38,-3.19 0.25,-0.34 0.26,-0.9 0.55,-1.17 2,-1.8 4.06,-3.48 6,-5.33 1.05,-1 1.78,-2.34 2.83,-3.35 a 20.14,20.14 0 0 1 3.16,-2.22 c 0.65,-0.42 1.86,-0.6 2,-1.1 0.68,-2.66 3,-3.25 4.95,-4.38 a 11.87,11.87 0 0 0 1.87,-1.54 q 1.9,-1.71 3.79,-3.44 c 0.58,1.23 1.05,2.52 1.58,3.81 z"
         class="cls-3"
         inkscape:connector-curvature="0"
         style="fill:#efd99c" />
      <path
         id="path313"
         transform="translate(-138.76,-266.38)"
         d="m 278.2,649.08 c 3.53,-2.14 7,-4.48 10.63,-6.34 2.07,-1 3.17,-1.94 2.14,-3.61 l 2.87,-2.76 a 1,1 0 0 1 0.43,-0.32 c 4.3,-0.82 5.34,-5.26 8.36,-7.48 3.02,-2.22 4.17,-6.07 6.33,-9 a 12.09,12.09 0 0 1 5.28,-4 c 2.77,-1 4.8,-2.5 5.5,-5.45 a 5.23,5.23 0 0 1 0.7,-1.37 c 1.06,-1.73 2.07,-3.49 3.23,-5.14 0.62,-0.88 0.88,-2.54 2.69,-1.71 0.21,0.09 0.72,-0.25 1,-0.51 2,-2.17 3.66,-4.68 5.59,-6.92 a 60.69,60.69 0 0 1 4.85,-5.18 c 0.84,-0.78 1.64,-1.6 2.46,-2.4 l -0.46,-0.53 11.29,-9.36 c 0.66,3.12 -2.55,3.59 -3.82,5.38 -2.37,3.33 -5.29,6.27 -8,9.39 -0.22,0.26 -0.32,0.82 -0.54,0.86 -3.05,0.54 -3.36,3.38 -4.74,5.37 a 30.59,30.59 0 0 1 -4.55,5.16 40.79,40.79 0 0 0 -8.81,11.32 c -0.88,1.7 -2.51,3 -3.86,4.44 -0.45,0.47 -1.19,0.67 -1.62,1.15 -3.47,3.82 -6.76,7.8 -10.36,11.48 -3.32,3.38 -7,6.36 -10.43,9.68 -1,1 -1.5,2.5 -2.23,3.78 z"
         class="cls-3"
         inkscape:connector-curvature="0"
         style="fill:#efd99c" />
      <path
         id="path315"
         transform="translate(-138.76,-266.38)"
         d="m 187.87,403.79 a 20.41,20.41 0 0 1 2.12,-2.14 c 2.81,-2.16 5.7,-0.47 8.09,0.54 10.64,4.5 21.16,9.31 31,15.51 1.63,1 3.45,1.76 5.17,2.66 1.72,0.9 1.72,2.1 0.83,3.8 a 49.63,49.63 0 0 1 -5,-2.28 c -7.37,-4.33 -15.31,-7.28 -23.36,-10 -3.64,-1.23 -7.24,-2.57 -10.86,-3.87 -2.82,-1.27 -5.64,-2.53 -8.46,-3.81 0,0 0,-0.12 0.05,-0.14 0.05,-0.02 0.26,-0.18 0.42,-0.27 z"
         class="cls-1"
         inkscape:connector-curvature="0"
         style="fill:#e1b435" />
      <path
         id="path317"
         transform="translate(-138.76,-266.38)"
         d="m 355.65,332.71 c -1,0.9 -2.18,1.71 -3.13,2.69 -1.78,1.83 -3,-0.6 -4.53,-0.47 -0.06,-0.19 -0.12,-0.38 0,-0.11 -0.15,-0.24 0,-0.08 0.06,0.09 l -0.63,2.15 c -0.6,-0.36 -1.19,-0.75 -1.8,-1.07 -0.77,-0.41 -1.56,-0.78 -2.83,-1.41 1.56,5.13 2.9,9.54 4.25,13.95 h -0.23 a 15.24,15.24 0 0 0 0.38,3.73 c 1.88,5.37 3.83,10.73 6,16 0.48,1.18 1.82,2 2.95,3.19 -0.67,1.26 -0.9,2.79 1.2,4.25 0.91,0.64 1.24,2.32 1.51,3.59 0.33,1.56 -0.43,3.51 1.92,4.2 a 10.83,10.83 0 0 1 -0.12,2.46 L 347,364.28 c 1.41,0.19 2.49,-0.17 2.06,-1.84 a 33.88,33.88 0 0 0 -1.7,-4.7 c -1.65,-3.94 -3.39,-7.84 -5,-11.8 -0.19,-0.45 0.3,-1.15 0.39,-1.74 0.13,-0.85 0.17,-1.7 0.25,-2.55 l -2.29,1.55 -1.37,-2.58 2.84,-0.58 v -0.44 l -2.37,-0.46 -2.07,-4.14 c 0.76,-1 2.78,-2.61 0.13,-5 l 3,-1 -1.93,-1.24 c 0.35,-0.23 0.61,-0.5 0.71,-0.45 0.64,0.31 1.49,0.55 1.79,1.08 0.93,1.64 1.81,3 3.44,1.72 l 6.12,4.29 c 0.12,-0.7 0.26,-1.54 0.44,-2.64 1.4,0.59 3.37,-2.69 4.21,0.95 z"
         class="cls-3"
         inkscape:connector-curvature="0"
         style="fill:#efd99c" />
      <path
         id="path319"
         transform="translate(-138.76,-266.38)"
         d="m 181.56,526.7 -2.07,3.46 c -5.85,-0.22 -11.55,0.84 -17.28,1.84 -3.57,0.62 -7.33,1.06 -10.84,-0.85 -2.8,-1.53 -1.85,-4.15 -1.64,-6.29 0.08,-0.73 2.2,-1.42 3.49,-1.83 2.37,-0.74 4.79,-1.29 7.22,-1.83 1.74,-0.39 3.52,-0.63 5.28,-0.94 l 0.19,0.2 c -3.18,0.76 -3.85,3.33 -4.45,6.7 1.42,0.31 2.9,1 4.34,0.9 5.26,-0.32 10.51,-0.89 15.76,-1.36 z"
         class="cls-3"
         inkscape:connector-curvature="0"
         style="fill:#efd99c" />
      <path
         id="path321"
         transform="translate(-138.76,-266.38)"
         d="m 228.17,442.16 c -3.38,5.27 -3.56,10.6 -0.26,16 l -10.81,-1.06 -4.19,-3.42 5.44,-3.86 -1.3,-0.93 -3.19,-1.56 c 3.13,-3.22 7.21,-4.39 11.42,-5.21 a 13.34,13.34 0 0 1 2.89,0.04 z"
         class="cls-1"
         inkscape:connector-curvature="0"
         style="fill:#e1b435" />
      <path
         id="path323"
         transform="translate(-138.76,-266.38)"
         d="m 170.78,653.68 2.47,-0.64 c -0.65,-3.3 2.62,-2.5 4.06,-3.74 0.59,-0.51 1.18,-1 1.73,-1.61 0.55,-0.61 0.72,-1.3 1.17,-1.37 2.37,-0.36 3.7,-2.47 5.61,-3.27 2.68,-1.12 4.41,-2.62 5.12,-5.37 l 5.41,4.72 -5.15,3 0.25,0.84 c -1.93,0.91 -4.1,1.49 -5.68,2.78 -2.67,2.21 -6.59,2.05 -8.85,5 -0.32,0.41 -1.33,0.35 -2,0.41 -1.29,0.11 -2.58,0.15 -4,0.22 z"
         class="cls-3"
         inkscape:connector-curvature="0"
         style="fill:#efd99c" />
      <path
         id="path325"
         transform="translate(-138.76,-266.38)"
         d="m 234.77,312.25 -2.37,1.48 c -1.11,-2 -3,-1.14 -3.72,-0.24 -1,1.22 -1.21,3.11 -1.77,4.71 a 0.36,0.36 0 0 1 -0.34,0.29 l -0.2,-0.06 0.22,0.07 -2.78,3.79 c -2.06,-1.54 -1,-2.39 0.75,-3 -1.81,-4.31 0.84,-7.22 3.2,-10.29 4.83,0.25 4.83,0.25 3.85,-2.46 l 8.1,-1.57 -0.56,-1.86 c 5,2.14 10.67,-0.12 14.92,3.94 l -8.58,0.06 c -1,0 -2.37,-0.52 -3,0 a 4.66,4.66 0 0 1 -5.31,0.3 c -1.64,-0.89 -2.23,-0.63 -2.67,1 a 16.29,16.29 0 0 1 -0.95,2.25 l -0.91,0.63 0.3,0.34 0.69,-0.86 z"
         class="cls-3"
         inkscape:connector-curvature="0"
         style="fill:#efd99c" />
      <path
         id="path327"
         transform="translate(-138.76,-266.38)"
         d="m 360,595.61 c 2.39,1.32 4.65,3 7.21,3.82 1.54,0.47 3.52,-0.5 4.68,-0.7 7.49,1.52 13.92,5.67 21.61,4.56 a 67.16,67.16 0 0 1 -18.24,2.09 c -2.37,-1.4 -4.73,-2.83 -7.12,-4.21 -2.39,-1.38 -4.78,-2.67 -7.12,-4.09 -0.43,-0.28 -0.66,-0.97 -1.02,-1.47 z"
         class="cls-3"
         inkscape:connector-curvature="0"
         style="fill:#efd99c" />
      <path
         id="path329"
         transform="translate(-138.76,-266.38)"
         d="M 380.34,575.6 393,574 c -0.11,0.34 -0.4,0.82 -0.27,1 1.79,2.79 -0.67,4.5 -2.18,5.21 -3.42,1.6 -7.23,2.35 -10.89,3.46 a 18,18 0 0 0 1.94,-1 15.83,15.83 0 0 0 1.6,-1.47 c -0.16,-0.16 -0.33,-0.32 -0.49,-0.49 l -3.58,0.79 c 2.97,-2.82 3.41,-4.59 1.21,-5.9 z"
         class="cls-3"
         inkscape:connector-curvature="0"
         style="fill:#efd99c" />
      <path
         id="path331"
         transform="translate(-138.76,-266.38)"
         d="m 174.62,541.29 q -2.24,6.4 -4.46,12.8 c -1,0 -2.12,0.24 -2.95,-0.14 a 6.11,6.11 0 0 1 -2.14,-2.1 c 1.14,-1.49 0.58,-2.69 -0.06,-4.17 a 3,3 0 0 1 1,-2.73 c 2.79,-1.41 5.73,-2.47 8.61,-3.66 z"
         class="cls-3"
         inkscape:connector-curvature="0"
         style="fill:#efd99c" />
      <path
         id="path333"
         transform="translate(-138.76,-266.38)"
         d="m 376.86,370.4 c -3.75,-4 -5.94,-8.86 -8.27,-13.71 -2.43,-5.07 -5.25,-9.95 -7.86,-14.94 a 14,14 0 0 1 -0.77,-2.43 c 1.33,-0.21 2.05,0 2.39,1.66 0.28,1.37 1.6,2.49 2.33,3.8 0.44,0.8 0.53,1.8 1,2.62 1.3,2.45 2.21,5.4 4.17,7.13 2.15,1.9 2.84,4.2 3.77,6.52 1.17,3.07 2.16,6.23 3.24,9.35 z"
         class="cls-3"
         inkscape:connector-curvature="0"
         style="fill:#efd99c" />
      <path
         id="path335"
         transform="translate(-138.76,-266.38)"
         d="m 275,467.94 -3.22,0.53 c -1.58,-0.47 -3.13,-1.05 -4.73,-1.39 -4.22,-0.9 -7.67,-4.2 -12.41,-3.81 -0.63,0.05 -3.72,-0.3 -3.77,-2.82 3.48,0.74 7,1.29 10.42,2.27 4.27,1.23 8.44,2.79 12.64,4.25 0.39,0.15 0.69,0.64 1.07,0.97 z"
         class="cls-3"
         inkscape:connector-curvature="0"
         style="fill:#efd99c" />
      <path
         id="path337"
         transform="translate(-138.76,-266.38)"
         d="m 387.38,617 c 5.22,0 10.44,-0.07 15.67,-0.09 2,0 4,0 6,0.07 -0.28,2 -1.55,2.63 -3.4,2.61 -3.69,0 -7.41,0.27 -11.05,-0.16 -2.48,-0.3 -4.82,-1.6 -7.22,-2.43 z"
         class="cls-3"
         inkscape:connector-curvature="0"
         style="fill:#efd99c" />
      <path
         id="path339"
         transform="translate(-138.76,-266.38)"
         d="m 275.83,309.47 c 1.78,2 0,4 0,5.95 -0.43,-0.19 -1.22,-0.34 -1.25,-0.58 -0.32,-2.93 -0.53,-5.88 -0.76,-8.82 h 1.12 l 0.48,0.14 -0.49,-0.12 c -1.54,-2.11 -1.23,-3.87 1,-5.31 1.09,1.46 2.5,2.79 1.18,4.92 -0.3,0.49 0.17,1.41 0,2.09 -0.09,0.5 -0.57,0.93 -0.88,1.39 l -0.84,-0.79 c -0.11,0.11 -0.32,0.31 -0.3,0.33 0.21,0.26 0.48,0.53 0.74,0.8 z"
         class="cls-3"
         inkscape:connector-curvature="0"
         style="fill:#efd99c" />
      <path
         id="path341"
         transform="translate(-138.76,-266.38)"
         d="m 213.86,447.31 3.19,1.56 1.3,0.93 -5.44,3.86 4.19,3.42 c -1.95,0.1 -4.07,0.52 -5.22,-1.65 -1.3,-2.48 -0.73,-5.06 0.08,-7.54 0.12,-0.36 1.24,-0.39 1.9,-0.58 z"
         class="cls-3"
         inkscape:connector-curvature="0"
         style="fill:#efd99c" />
      <path
         id="path343"
         transform="translate(-138.76,-266.38)"
         d="m 394.45,359.71 c 6,7.12 11.65,14.49 15.52,23.06 -1.78,-2.66 -3.47,-5.37 -5.34,-7.95 -2.86,-3.94 -5.89,-7.75 -8.74,-11.7 a 16.71,16.71 0 0 1 -1.44,-3.41 z"
         class="cls-3"
         inkscape:connector-curvature="0"
         style="fill:#efd99c" />
      <path
         id="path345"
         transform="translate(-138.76,-266.38)"
         d="m 343.38,358.55 c -2,2.24 -2.92,2 -4.21,-0.91 -0.27,-0.6 -1.47,-0.79 -1.71,-1.38 a 9.82,9.82 0 0 1 -0.3,-2.85 l 2.92,2.15 0.56,-2.83 0.48,-0.16 c 0.29,0.84 0.59,1.68 0.89,2.53 a 0.54,0.54 0 0 0 -0.19,0.07 c 0,0 0,0.09 0,0.14 l 0.21,-0.23 c 2.08,0.5 1.61,2.03 1.35,3.47 z"
         class="cls-3"
         inkscape:connector-curvature="0"
         style="fill:#efd99c" />
      <path
         id="path347"
         transform="translate(-138.76,-266.38)"
         d="m 290.2,303.25 a 6.94,6.94 0 0 1 -7.66,-3.81 c 2.12,-2.13 2.82,-2.14 4.66,0 1.04,1.27 2,2.56 3,3.81 z"
         class="cls-3"
         inkscape:connector-curvature="0"
         style="fill:#efd99c" />
      <path
         id="path349"
         transform="translate(-138.76,-266.38)"
         d="m 361.07,565.54 c 0.39,0.54 0.77,1.08 1.16,1.61 0.38,2.42 -2,2.8 -3.17,3.86 -1.78,1.61 -4.1,2.61 -6.19,3.87 1.21,-2.5 1.52,-5.68 5.59,-5.7 0.87,0 1.74,-2.36 2.61,-3.64 z"
         class="cls-3"
         inkscape:connector-curvature="0"
         style="fill:#efd99c" />
      <path
         id="path351"
         transform="translate(-138.76,-266.38)"
         d="m 178.91,530.87 q -1.12,2.88 -2.24,5.76 l -2.11,-0.32 c 1.31,-2.17 2.16,-4.31 4.35,-5.44 z"
         class="cls-3"
         inkscape:connector-curvature="0"
         style="fill:#efd99c" />
      <path
         id="path353"
         transform="translate(-138.76,-266.38)"
         d="m 337.15,353.39 c -2.61,-0.9 -3.22,-3.37 -4.31,-5.47 2.73,0.8 3.66,3.02 4.31,5.47 z"
         class="cls-3"
         inkscape:connector-curvature="0"
         style="fill:#efd99c" />
      <path
         id="path355"
         transform="translate(-138.76,-266.38)"
         d="m 360,339.31 c -1.8,-2 -4.08,-3.61 -4.31,-6.59 a 9,9 0 0 1 4.31,6.59 z"
         class="cls-3"
         inkscape:connector-curvature="0"
         style="fill:#efd99c" />
      <path
         id="path357"
         transform="translate(-138.76,-266.38)"
         d="m 346.86,363.86 -3.4,-5.21 c 2.54,0.29 3.54,1.69 3.4,5.21 z"
         class="cls-3"
         inkscape:connector-curvature="0"
         style="fill:#efd99c" />
      <path
         id="path359"
         transform="translate(-138.76,-266.38)"
         d="m 387.92,351.45 2,2.42 z"
         class="cls-3"
         inkscape:connector-curvature="0"
         style="fill:#efd99c" />
      <path
         id="path361"
         transform="translate(-138.76,-266.38)"
         d="m 411.92,386.93 c 0.47,1 0.95,2 1.42,2.95 -0.47,-0.99 -0.95,-1.97 -1.42,-2.95 z"
         class="cls-3"
         inkscape:connector-curvature="0"
         style="fill:#efd99c" />
      <path
         id="path363"
         transform="translate(-138.76,-266.38)"
         d="m 410.85,384.71 0.9,1.86 z"
         class="cls-3"
         inkscape:connector-curvature="0"
         style="fill:#efd99c" />
      <path
         id="path365"
         transform="translate(-138.76,-266.38)"
         d="m 390.62,354.79 c 0.31,0.42 0.63,0.83 0.95,1.25 -0.32,-0.42 -0.64,-0.83 -0.95,-1.25 z"
         class="cls-3"
         inkscape:connector-curvature="0"
         style="fill:#efd99c" />
      <path
         id="path367"
         transform="translate(-138.76,-266.38)"
         d="m 392.78,357.57 0.93,1.2 z"
         class="cls-3"
         inkscape:connector-curvature="0"
         style="fill:#efd99c" />
      <path
         id="path369"
         transform="translate(-138.76,-266.38)"
         d="m 386.41,349.62 0.78,0.95 z"
         class="cls-3"
         inkscape:connector-curvature="0"
         style="fill:#efd99c" />
      <path
         id="path371"
         transform="translate(-138.76,-266.38)"
         d="m 415.69,395.16 0.34,0.66 z"
         class="cls-3"
         inkscape:connector-curvature="0"
         style="fill:#efd99c" />
      <polygon
         id="polygon373"
         points="276.62,127.66 276.55,127.84 276.37,127.81 276.41,127.62 "
         class="cls-3"
         style="fill:#efd99c" />
      <polygon
         id="polygon375"
         points="274.9,123.89 274.8,124.02 274.67,123.99 274.73,123.86 "
         class="cls-3"
         style="fill:#efd99c" />
      <path
         id="path377"
         transform="translate(-138.76,-266.38)"
         d="m 385.19,348.16 c 0.09,0.1 0.17,0.2 0.26,0.29 l -0.23,-0.05 z"
         class="cls-3"
         inkscape:connector-curvature="0"
         style="fill:#efd99c" />
      <path
         id="path379"
         transform="translate(-138.76,-266.38)"
         d="m 387.43,350.84 0.25,0.3 -0.24,-0.05 z"
         class="cls-3"
         inkscape:connector-curvature="0"
         style="fill:#efd99c" />
      <polygon
         id="polygon381"
         points="276.13,126.52 276.09,126.73 275.88,126.68 275.92,126.47 "
         class="cls-3"
         style="fill:#efd99c" />
      <path
         id="path383"
         transform="translate(-138.76,-266.38)"
         d="m 252.69,355.63 c 7.72,-8.61 17.33,-12.3 28.59,-9.53 11.93,2.94 18.3,11.61 20.86,23.19 2.23,10.06 -0.79,19.1 -6.16,27.52 a 8.71,8.71 0 0 1 -1.49,1.41 l -2.71,2.67 c -7.16,5.38 -15,7.92 -24,5.94 l -12.37,-7 a 92.17,92.17 0 0 1 -5.59,-7.87 c -4.21,-7.46 -4.71,-15.5 -3.1,-23.77 0.85,-2.35 1.7,-4.69 2.54,-7 l 1.26,-2.24 z"
         class="cls-2"
         inkscape:connector-curvature="0"
         style="fill:#050503" />
      <path
         id="path385"
         transform="translate(-138.76,-266.38)"
         d="m 290.59,598.14 -6.94,-2.54 -8.76,-7.73 -2.52,-2.75 c -0.24,-0.26 -0.58,-0.52 -0.65,-0.83 -2.13,-10.25 -2.57,-20.14 4,-29.36 9.63,-13.48 28.46,-17.41 41.84,-8.26 4,2.76 6.76,6.68 9.06,10.91 0.6,2.19 1.19,4.38 1.79,6.57 -0.21,5.28 0.3,10.59 -2.16,15.65 -4.95,10.19 -12.66,16.69 -23.93,18.55 a 77.63,77.63 0 0 1 -8.91,0.51 z"
         class="cls-2"
         inkscape:connector-curvature="0"
         style="fill:#050503" />
      <path
         id="path387"
         transform="translate(-138.76,-266.38)"
         d="m 406.85,437.48 a 24.6,24.6 0 0 1 4.34,21.65 25.75,25.75 0 0 1 -8.2,12.75 c -11.23,9.24 -25.25,10.89 -37.1,4.37 -16.47,-9.06 -18,-30.82 -3.18,-42.75 5.61,-4.5 12,-7.32 19,-7.05 9,0.34 17.76,2.36 23.93,10 a 8.74,8.74 0 0 0 1.21,1.03 z"
         class="cls-2"
         inkscape:connector-curvature="0"
         style="fill:#050503" />
      <path
         id="path389"
         transform="translate(-138.76,-266.38)"
         d="m 236.69,561.75 a 25.5,25.5 0 0 1 10.33,20 c 0.3,6.8 -2,13 -6.05,18.56 l -4.9,5.25 h -0.2 l -1.35,1 -2.74,1.65 c -0.67,0.24 -1.36,0.43 -2,0.72 a 24.09,24.09 0 0 1 -15.05,1.72 c -10.32,-2.1 -16.5,-8.72 -19.27,-18.72 -0.23,-1.31 -0.47,-2.62 -0.7,-3.93 0.5,-3.53 0.66,-7.16 1.59,-10.57 2.38,-8.77 8.3,-14.59 16.38,-18.38 l 9.91,-1.64 11.82,2.8 z"
         class="cls-2"
         inkscape:connector-curvature="0"
         style="fill:#050503" />
      <path
         id="path391"
         transform="translate(-138.76,-266.38)"
         d="m 274.89,587.87 8.76,7.73 c -2.59,2.15 -5.36,4 -7.27,7 -1.47,2.34 -4.17,3.87 -6.15,5.93 -1.19,1.23 -2,2.87 -3.08,4.17 a 42.73,42.73 0 0 1 -3.8,3.69 38.74,38.74 0 0 1 -3.91,3.23 c -1.89,1.31 -4.08,8.07 -3.1,10 0.6,1.17 0.93,1.91 2.44,0.51 3.18,-2.93 6.69,-5.49 10.07,-8.2 l 0.77,0.69 c -2,2.22 -4,4.42 -6,6.65 -2,2.23 -4.12,4.69 -6.14,7 1.55,1.65 5.13,1.6 3.59,5.15 -0.07,0.15 0.36,0.62 0.64,0.81 1.72,1.16 1.09,2.45 0.41,3.9 -0.68,1.45 -1.09,3 -1.64,4.5 l 2.52,1.17 -7.71,0.53 c -1,-3.11 1.64,-4.56 2.94,-6.73 l -3.42,1.31 -0.61,-0.46 a 21.51,21.51 0 0 0 1.59,-2.79 23.42,23.42 0 0 0 0.79,-3.23 c -0.84,0 -1.68,-0.06 -2.52,-0.11 a 2.7,2.7 0 0 1 -0.54,-0.17 l 1.58,-1.31 -0.73,0.47 c -0.35,-0.75 -0.52,-1.77 -1.11,-2.16 a 4.7,4.7 0 0 0 -3,-0.9 c -3.32,0.48 -6.58,1.3 -9.89,1.84 -0.8,0.13 -1.69,-0.39 -2.56,-0.51 a 18.62,18.62 0 0 0 -3.92,-0.35 c -1.94,0.15 -3.84,0.79 -5.77,0.87 -3.44,0.14 -6.9,0.15 -10.33,0 -4.53,-0.21 -9.05,-0.63 -13.58,-1 l -4.78,-4.38 c 1,-1.4 1.8,-3.15 3.14,-4.11 1.73,-1.25 3.93,-1.83 5.88,-2.77 a 9.53,9.53 0 0 0 1.92,-1.38 c 0.72,-0.62 1.26,-1.53 2.07,-1.92 a 26.76,26.76 0 0 1 4,-1.23 l 4.87,0.51 -0.46,-1.55 c 1.09,-0.83 1.93,-1.56 2.86,-2.15 a 5.92,5.92 0 0 1 1.63,-0.44 c 0,0.58 0.33,1.39 0.06,1.69 -1.15,1.25 -2.35,3.14 -3.73,3.33 -3.16,0.43 -4,3 -5.71,4.69 0.6,1.13 1.11,2.11 1.44,2.74 2.24,-0.24 4.22,-0.85 6.06,-0.55 2.24,0.37 3.52,-0.39 4.89,-2 a 3.45,3.45 0 0 1 2.9,-0.86 c 2.07,0.57 11.68,-0.38 13.44,-1.66 0.15,-0.11 0.4,-0.15 0.45,-0.28 1.1,-2.87 4.19,-3 6.24,-4.62 l 0.27,0.24 -0.24,-0.27 4.08,-5.33 -0.75,-0.59 -6.93,4.26 c 0.19,-1.32 0,-2.32 0.45,-2.71 1.4,-1.33 2.84,-3 4.57,-3.53 3.72,-1.12 6.05,-4 8.87,-6.19 2.3,-1.82 4.06,-4.29 7.53,-4.14 0.84,0 1.73,-1.23 2.54,-1.85 l -4.07,-1.48 a 14.56,14.56 0 0 0 2,-1.92 4.54,4.54 0 0 0 0.39,-1.62 c -0.62,0.12 -1.56,0 -1.81,0.4 a 29.21,29.21 0 0 0 -1.57,3.29 6.64,6.64 0 0 1 -1,1.21 c 0.7,-2.14 0.35,-3.14 -1.91,-3.25 a 15.29,15.29 0 0 1 -2.62,-0.61 34.61,34.61 0 0 1 3.67,-1.15 c 4.46,-0.81 6.67,-4.74 10.04,-7.05 z"
         class="cls-3"
         inkscape:connector-curvature="0"
         style="fill:#efd99c" />
      <path
         id="path393"
         transform="translate(-138.76,-266.38)"
         d="m 245.88,486.13 c 0.52,0.41 1,1.18 1.57,1.2 5.42,0.15 10.84,0.33 16.25,0.19 3.92,-0.1 7.82,-0.74 11.73,-1 1.86,-0.13 4,0.63 5.55,0 5,-2 10,-0.79 15.08,-0.45 3.68,0.25 7.36,0.63 11.05,0.81 0.47,0 1,-0.79 1.48,-1.22 l 1.14,1 -0.39,0.9 q -9.57,-0.54 -19.15,-1.06 a 20.82,20.82 0 0 0 -3.53,0 18.18,18.18 0 0 0 -2.91,0.85 l 1,2.53 -6,-0.31 c 1.07,2.69 2.54,3.86 4.93,3.55 a 28.19,28.19 0 0 1 3.79,0 l -1.23,1.42 1.65,3.42 a 8.28,8.28 0 0 1 -2.15,-0.42 c -0.25,-0.11 -0.18,-0.91 -0.25,-1.39 l -0.67,-0.1 c -0.17,0.76 -0.33,1.52 -0.52,2.38 l -10.32,1.44 -0.13,-0.67 6.52,-1 c -2,-1.35 -6.38,-1.61 -7.63,-0.71 -0.41,-0.55 -0.71,-1.31 -1.25,-1.59 a 14.17,14.17 0 0 0 -2.89,-0.81 c 0.2,-0.63 0.37,-1.15 0.63,-2 -1.38,0.39 -2.49,1.05 -3.45,0.88 -0.96,-0.17 -1.68,-1.65 -2.58,-1.73 -3.29,-0.26 -6.63,0 -9.9,-0.3 -3.61,-0.38 -7.16,-1.26 -10.75,-1.85 a 31,31 0 0 0 -3.49,-0.2 z"
         class="cls-3"
         inkscape:connector-curvature="0"
         style="fill:#efd99c" />
      <path
         id="path395"
         transform="translate(-138.76,-266.38)"
         d="m 304.87,431 c 4.65,1.25 8.93,3.17 12.24,7.14 1.24,-2.86 -1.37,-3.71 -2.48,-4.93 -1.73,-1.91 -3.71,-3.49 -3.89,-6.43 l -2.62,-0.46 c -1.08,-2.39 -0.86,-5.37 -3.6,-7 -0.63,-0.38 -0.44,-2.11 -0.67,-3.47 -4,0.68 -4.89,-2.91 -6.52,-5.57 -0.19,-0.3 -0.52,-0.67 -0.46,-0.94 0.86,-3.61 -1.47,-5.29 -4.05,-6.89 -0.47,-0.29 -0.7,-1 -1,-1.51 l 2.71,-2.67 c 0.37,3.51 2.47,6.21 4.88,8.37 a 25.25,25.25 0 0 1 4.24,4.89 c 1.69,2.53 3.76,4.79 5.62,7.2 3.73,4.85 7.43,9.71 11.16,14.56 0.27,0.36 0.94,0.63 0.94,0.93 0,4.51 4.17,6.67 5.65,10.32 a 8.67,8.67 0 0 1 0.2,1.93 c -1.74,-1.7 -3.18,-3.2 -4.73,-4.59 a 4,4 0 0 0 -2.05,-1 C 313.61,440 309.54,435 304.87,431 Z"
         class="cls-3"
         inkscape:connector-curvature="0"
         style="fill:#efd99c" />
      <path
         id="path397"
         transform="translate(-138.76,-266.38)"
         d="m 319.63,519.34 c -2.77,0.92 -5.59,1.69 -8.28,2.78 -6.73,2.74 -13.34,5.81 -20.16,8.29 -1.11,0.4 -4.25,1 -5,-2.07 v 2 c -3.22,1.17 -6.24,3.5 -9.67,0.9 4,-2.2 7.85,-4.65 12,-6.51 3.84,-1.72 8,-2.69 12,-4.21 2.11,-0.81 2.16,-1.57 0.86,-4 4.55,-1.56 9,-1 13.42,0.15 1.68,0.44 3.2,1.75 4.83,2.67 z"
         class="cls-3"
         inkscape:connector-curvature="0"
         style="fill:#efd99c" />
      <path
         id="path399"
         transform="translate(-138.76,-266.38)"
         d="m 234.46,560.16 c 0.66,-0.56 1.23,-1.37 2,-1.62 a 14.43,14.43 0 0 0 7.44,-5 c 0.89,-1.18 2.67,-1.77 4.13,-2.44 4.73,-2.15 9.67,-3.76 14.24,-6.36 1.77,-1 3.41,-2.06 5.08,-3.22 1.67,-1.16 4.1,-1.58 6,-2.66 2.35,-1.37 5.29,-1.39 7.32,-3.69 0.73,-0.83 2.84,-0.48 4.32,-0.6 1.32,-0.1 2.88,0.15 2.09,-2 3.7,-0.55 6.93,-1.15 10,-3.05 2,-1.25 4.95,-1 7.43,-1.63 a 13.5,13.5 0 0 0 3.66,-1.52 c 1.72,-1 3.32,-2.25 5.5,-1.6 -1.61,2 -3.32,3.67 -6,4.38 -3.67,1 -7.23,2.4 -10.83,3.65 -0.5,0.17 -1,0.62 -1.44,0.59 -4.32,-0.19 -7.72,2.47 -11.58,3.66 a 12.62,12.62 0 0 1 -2.23,0.73 c -1.19,0.13 -2.14,0.15 -2.65,1.67 -0.25,0.74 -1.66,1.34 -2.64,1.53 -3.5,0.67 -6.76,1.62 -9.53,4.14 -1.31,1.2 -3.44,1.46 -5,2.43 -2.28,1.4 -4.38,3.09 -6.59,4.62 a 18.88,18.88 0 0 1 -3.42,2.09 c -1.27,0.51 -2.79,0.43 -4,1 -2.29,1.08 -4.32,2.8 -6.68,3.59 -1.83,0.61 -3.58,0.86 -4.35,2.89 z"
         class="cls-3"
         inkscape:connector-curvature="0"
         style="fill:#efd99c" />
      <path
         id="path401"
         transform="translate(-138.76,-266.38)"
         d="m 267.77,406.83 c 0,0.36 -0.13,1 0,1 4.69,2.58 9.39,5.14 14.13,7.63 a 8.83,8.83 0 0 0 2.52,0.44 l 0.36,2.34 c -1.16,-0.57 -2.33,-1.15 -3.5,-1.7 -5.34,-2.54 -10.6,-5.27 -16,-7.56 -4.88,-2.06 -10,-3.56 -15,-5.47 -2.23,-0.86 -4.22,-2.3 -6.44,-3.2 -3.86,-1.58 -7.8,-3 -11.71,-4.42 l -4.08,-6.29 6,1.16 c -0.12,0.62 -0.22,1.16 -0.39,2.05 l 2.28,-0.59 a 15.67,15.67 0 0 0 2.14,1.68 73.49,73.49 0 0 0 8.87,4.24 c 2.69,0.93 5.63,1.13 8.45,1.65 z"
         class="cls-3"
         inkscape:connector-curvature="0"
         style="fill:#efd99c" />
      <path
         id="path403"
         transform="translate(-138.76,-266.38)"
         d="m 252.69,355.63 c -0.73,1.1 -1.46,2.19 -2.18,3.29 -0.38,-0.69 -0.59,-1.69 -1.17,-2 -4,-2.18 -6.77,-5.65 -9.77,-8.92 a 43.45,43.45 0 0 0 -4.26,-3.43 c -0.95,-0.81 -2.42,-1.62 -2.59,-2.61 -0.37,-2.27 -1.8,-2 -3.26,-1.85 -0.92,-2.93 -2.37,-5.06 -5.59,-5.26 l 6.23,-10.41 c 0.65,1.4 1.3,2.8 2,4.41 l -3,0.87 c 7.66,8.98 14.51,18.44 23.59,25.91 z"
         class="cls-3"
         inkscape:connector-curvature="0"
         style="fill:#efd99c" />
      <path
         id="path405"
         transform="translate(-138.76,-266.38)"
         d="m 276.06,531.35 c -1,1.57 -0.69,4.6 -4.16,3.09 0,0.88 0.06,1.43 0.06,1.31 -1.77,0.56 -3.21,0.93 -4.59,1.48 -2.47,1 -4.89,2.08 -7.34,3.12 -0.38,0.17 -1,0.56 -1.13,0.45 -2.2,-2.39 -3.15,0.59 -4.55,1.16 a 24.57,24.57 0 0 0 -4.38,3 l -0.64,-0.58 c -4,1.15 -6,5.68 -10.84,5.42 -1.85,-0.11 -3.8,1.72 -5.71,2.64 -0.56,0.27 -1.18,0.4 -1.73,0.67 -1.1,0.55 -2.14,1.21 -3.26,1.7 a 10.38,10.38 0 0 1 -2,0.4 c 0.61,-1.13 0.95,-2.77 1.89,-3.25 1.1,-0.57 2.72,-0.13 4.11,-0.13 l 0.73,-2.32 c 0.24,0.26 0.36,0.49 0.51,0.52 0.66,0.11 1.32,0.16 2,0.23 0,-3.68 3.47,-3.45 5.49,-4.58 4.19,-2.34 8.67,-4.17 13.06,-6.16 4,-1.83 8,-3.65 12.13,-5.32 0.9,-0.36 2.08,-0.05 3.32,-0.05 0.97,-3.64 4.71,-1.54 7.03,-2.8 z"
         class="cls-3"
         inkscape:connector-curvature="0"
         style="fill:#efd99c" />
      <path
         id="path407"
         transform="translate(-138.76,-266.38)"
         d="m 215,508.32 c 5.13,0 10.27,0 15.41,0 2.3,0 4.63,0.28 6.59,-1.72 0.7,-0.71 2.4,-0.43 3.82,-0.63 l -0.48,-1.56 11.66,-1.53 1.71,2.32 c -1.63,0 -2.9,-0.08 -4.15,0 -1.47,0.12 -2.93,0.39 -4.39,0.63 -0.52,0.09 -1,0.37 -1.55,0.43 -3.47,0.38 -6.34,2.32 -9.5,3.51 -2.53,1 -5.37,1.09 -8,1.82 -2.9,0.8 -5.72,1.91 -8.6,2.78 -2.29,0.69 -4.65,1.12 -6.92,1.87 -1.09,0.36 -2,1.43 -3.07,1.74 -2.58,0.72 -5.23,1.17 -7.86,1.73 l 5.36,-5.46 a 27.57,27.57 0 0 0 4,-0.22 c 2.08,-0.41 4.14,-1 6.17,-1.59 2.39,-0.7 4.74,-1.52 7.1,-2.29 l -0.06,-0.68 c -1.75,0 -3.51,0.1 -5.24,-0.06 -0.76,-0.04 -1.38,-0.7 -2,-1.09 z"
         class="cls-3"
         inkscape:connector-curvature="0"
         style="fill:#efd99c" />
      <path
         id="path409"
         transform="translate(-138.76,-266.38)"
         d="m 344.31,552.2 -4.47,2.35 c 2.87,1.11 4.55,3.87 7.69,2.46 l -9.41,4.82 a 0.65,0.65 0 0 1 -0.53,0 c -3.64,-1.88 -6.25,0.26 -8.9,2.27 -0.06,0 -0.17,0 -0.26,0 -0.6,-2.18 -1.19,-4.37 -1.79,-6.56 1.32,-0.92 3.52,0 4.35,-2 a 2.07,2.07 0 0 1 1.6,0.19 c 1.29,1.34 2.4,0.87 3.49,-0.15 1.09,-1.02 2.59,-1.87 1.23,-4 -0.5,-0.78 0.21,-3.45 0.58,-3.49 1.8,-0.21 3.76,-2.83 5.57,-0.07 -2.17,2.92 -2.09,3.28 0.85,4.18 z"
         class="cls-3"
         inkscape:connector-curvature="0"
         style="fill:#efd99c" />
      <path
         id="path411"
         transform="translate(-138.76,-266.38)"
         d="m 244.78,419.47 c -0.52,-1.64 -1.05,-3.28 -1.57,-4.92 a 6.39,6.39 0 0 1 4,1.47 c 2.32,1.77 5.28,2.69 7.95,4 2,1 3.92,2.12 5.91,3.11 2.39,1.17 4.88,2.14 7.2,3.43 4,2.22 8.22,4.12 11.15,8.83 a 24.92,24.92 0 0 1 -2.71,-0.84 c -2.77,-1.28 -5.57,-2.49 -8.24,-4 -2.67,-1.51 -5.37,-3.52 -8.21,-5 -2.68,-1.37 -5.58,-2.31 -8.38,-3.47 -1.45,-0.6 -2.86,-1.32 -4.32,-1.9 -0.89,-0.27 -1.85,-0.45 -2.78,-0.71 z"
         class="cls-3"
         inkscape:connector-curvature="0"
         style="fill:#efd99c" />
      <path
         id="path413"
         transform="translate(-138.76,-266.38)"
         d="m 378.73,526.08 -1.19,0.38 a 20.13,20.13 0 0 1 -2.34,-2.37 c -1.73,-2.37 -2.4,-2.35 -3.74,0.41 -1.65,-2.37 -3.2,-4.75 -4.91,-7 a 29.86,29.86 0 0 0 -3.08,-3 c -0.89,-0.87 -2.1,-1.75 -0.24,-2.86 l 0.47,0.87 0.47,-0.47 -0.85,-0.49 q -0.68,-3.36 -1.34,-6.7 c 8.58,4.97 12.02,13.59 16.75,21.23 z"
         class="cls-3"
         inkscape:connector-curvature="0"
         style="fill:#efd99c" />
      <path
         id="path415"
         transform="translate(-138.76,-266.38)"
         d="m 245.66,426.72 c 0.14,4 3.79,4.58 6.23,6.21 3.73,2.48 7.71,4.6 11.47,7 0.22,0.14 -0.46,1.68 -0.86,3 l 1.43,2.19 c -3.58,-1.91 -7.11,-3.91 -10.75,-5.7 -3.07,-1.51 -6.26,-2.78 -9.39,-4.16 0.62,-2.82 1.21,-5.68 1.87,-8.54 z"
         class="cls-3"
         inkscape:connector-curvature="0"
         style="fill:#efd99c" />
      <path
         id="path417"
         transform="translate(-138.76,-266.38)"
         d="m 342.54,522.56 a 33.67,33.67 0 0 0 -3.43,-2.81 31.73,31.73 0 0 0 -3.62,-1.59 4.81,4.81 0 0 1 -2.27,-1.94 l 4.21,-0.51 -7.34,-6.33 6.52,1 V 510 l -8.3,-5.36 c 6,0.66 9.86,4.42 13.12,9.09 a 19.28,19.28 0 0 0 2.32,2.38 c 1.07,1 2.15,2.08 3.22,3.12 l -0.21,0.22 -5,-1 -0.24,0.55 3.73,2.5 z"
         class="cls-3"
         inkscape:connector-curvature="0"
         style="fill:#efd99c" />
      <path
         id="path419"
         transform="translate(-138.76,-266.38)"
         d="m 193,528.09 3.05,-4.05 c 3.44,0.11 6.89,0.48 10.31,0.26 a 89.52,89.52 0 0 0 9.82,-1.57 c 2.54,-0.44 5.06,-1 7.59,-1.42 0.94,-0.17 1.89,-0.21 3.4,-0.37 a 24.31,24.31 0 0 1 -11,4.76 c -4.64,0.88 -9.33,1.57 -14,2.09 -3.02,0.34 -6.09,0.21 -9.17,0.3 z"
         class="cls-3"
         inkscape:connector-curvature="0"
         style="fill:#efd99c" />
      <path
         id="path421"
         transform="translate(-138.76,-266.38)"
         d="m 360.65,534.4 -5.42,1.08 c 1,1.85 1.72,3.23 2.37,4.67 0,0.11 -0.63,0.56 -1,0.85 -1.1,-2.31 -2.11,-4.67 -3.33,-6.92 a 5.8,5.8 0 0 0 -2,-1.62 c -2.94,-1.92 -5.9,-3.81 -9,-5.81 l 2.93,-1.83 3.45,-0.39 0.13,-1 -2.95,-2 c 0.31,-0.67 0.62,-1.35 0.94,-2 l 0.21,-0.22 8.61,9.93 -1.39,-0.65 c -2.31,-1.1 -4.48,-3.41 -7.65,-0.4 1.64,1 3.23,1.77 4.67,2.77 1.78,1.24 3.49,0.82 4.51,-1.28 z"
         class="cls-3"
         inkscape:connector-curvature="0"
         style="fill:#efd99c" />
      <path
         id="path423"
         transform="translate(-138.76,-266.38)"
         d="m 266.07,446.33 c 1.59,0.45 3.15,1 4.76,1.33 3.56,0.67 7.15,1.22 10.73,1.73 0.28,0 0.66,-0.67 1,-1 l 2.22,1.14 c -0.36,1.17 -0.63,2.09 -0.84,2.78 -1.62,0.19 -3.19,0.39 -4.75,0.55 -3.76,0.38 -6.51,-2 -9.52,-3.58 a 22.84,22.84 0 0 1 -3.6,-2.95 z"
         class="cls-3"
         inkscape:connector-curvature="0"
         style="fill:#efd99c" />
      <path
         id="path425"
         transform="translate(-138.76,-266.38)"
         d="m 252,502.88 -1.21,-2.25 c 0.21,-0.18 0.61,-0.81 1.09,-0.89 3,-0.46 5.94,-0.76 8.9,-1.18 1.2,-0.18 2.36,-0.65 3.56,-0.75 0.62,-0.05 1.27,0.43 1.91,0.66 -3.31,1.4 -6.59,2.92 -10,4.12 -1.25,0.47 -2.84,0.21 -4.25,0.29 z"
         class="cls-3"
         inkscape:connector-curvature="0"
         style="fill:#efd99c" />
      <path
         id="path427"
         transform="translate(-138.76,-266.38)"
         d="m 314.53,454.57 c 6,3.72 10.22,9.28 15.19,14.06 l -0.4,0.55 c -2.2,-1.58 -4.42,-3.14 -6.61,-4.73 -0.79,-0.57 -1.55,-1.2 -2.29,-1.83 -0.74,-0.63 -2.76,-0.7 -1.36,-2.68 0.14,-0.19 -1.55,-1.76 -2.46,-2.6 -0.91,-0.84 -1.75,-1.4 -2.63,-2.09 z"
         class="cls-3"
         inkscape:connector-curvature="0"
         style="fill:#efd99c" />
      <path
         id="path429"
         transform="translate(-138.76,-266.38)"
         d="m 238.71,442.92 3.48,-4.49 c 1.73,1.45 3.44,2.93 5.2,4.34 1.14,0.92 2.36,1.74 3.55,2.6 l -0.43,1 z"
         class="cls-3"
         inkscape:connector-curvature="0"
         style="fill:#efd99c" />
      <path
         id="path431"
         transform="translate(-138.76,-266.38)"
         d="m 249.89,597.91 c -0.4,0.64 -0.65,1.53 -1.22,1.86 q -4.92,2.81 -10,5.36 a 8.22,8.22 0 0 1 -2.62,0.38 l 4.9,-5.25 a 8.12,8.12 0 0 0 2.84,0.14 c 2.1,-0.68 4.08,-1.64 6.1,-2.49 z"
         class="cls-3"
         inkscape:connector-curvature="0"
         style="fill:#efd99c" />
      <path
         id="path433"
         transform="translate(-138.76,-266.38)"
         d="m 402.58,516 c 3.52,2.05 3.93,8.84 2.74,12.36 L 403,526.93 c 1.37,-3.19 1.73,-6.29 -0.6,-9.27 -0.23,-0.31 0.11,-1.08 0.18,-1.66 z"
         class="cls-3"
         inkscape:connector-curvature="0"
         style="fill:#efd99c" />
      <path
         id="path435"
         transform="translate(-138.76,-266.38)"
         d="m 258,598 c -1.89,0.74 -3.7,2.57 -5.74,0.1 -0.34,-0.41 -1.54,-0.12 -2.35,-0.15 l 7.32,-2.69 c 0.35,1.23 0.56,1.96 0.77,2.74 z"
         class="cls-3"
         inkscape:connector-curvature="0"
         style="fill:#efd99c" />
      <path
         id="path437"
         transform="translate(-138.76,-266.38)"
         d="m 222.61,556.44 v 0.92 l -9.88,1.64 c 0,-0.21 0,-0.42 0,-0.63 a 54.64,54.64 0 0 1 6.8,-3.21 c 0.79,-0.27 2.03,0.84 3.08,1.28 z"
         class="cls-3"
         inkscape:connector-curvature="0"
         style="fill:#efd99c" />
      <path
         id="path439"
         transform="translate(-138.76,-266.38)"
         d="m 310.8,494 c 0.05,-0.51 0.11,-1 0.17,-1.53 2.25,0.08 4.71,-0.67 7,2.28 z"
         class="cls-3"
         inkscape:connector-curvature="0"
         style="fill:#efd99c" />
      <path
         id="path441"
         transform="translate(-138.76,-266.38)"
         d="m 187.68,554.25 v -1.24 c 3.43,-1.31 4.51,-0.81 4.22,2.25 z"
         class="cls-3"
         inkscape:connector-curvature="0"
         style="fill:#efd99c" />
      <path
         id="path443"
         transform="translate(-138.76,-266.38)"
         d="m 348.6,544.49 c -1.66,1.14 -2.94,2.43 -2.76,4.74 0.06,0.72 -0.68,1.5 -1.06,2.25 0,-1.13 -0.09,-2.26 -0.12,-3.39 -0.07,-2.46 1.44,-3.83 3.94,-3.6 z"
         class="cls-3"
         inkscape:connector-curvature="0"
         style="fill:#efd99c" />
      <path
         id="path445"
         transform="translate(-138.76,-266.38)"
         d="m 282.55,448.36 c -1.75,0.26 -2.75,-0.6 -3.29,-2.17 z"
         class="cls-3"
         inkscape:connector-curvature="0"
         style="fill:#efd99c" />
      <path
         id="path447"
         transform="translate(-138.76,-266.38)"
         d="m 246.6,423.15 c -0.34,0.73 -0.69,1.46 -1,2.18 -0.07,-1.09 -0.13,-2.17 -0.2,-3.26 z"
         class="cls-3"
         inkscape:connector-curvature="0"
         style="fill:#efd99c" />
      <path
         id="path449"
         transform="translate(-138.76,-266.38)"
         d="m 264.43,445.3 1.6,1 z"
         class="cls-3"
         inkscape:connector-curvature="0"
         style="fill:#efd99c" />
      <path
         id="path451"
         transform="translate(-138.76,-266.38)"
         d="m 247.75,424.23 -1.09,-1 z"
         class="cls-3"
         inkscape:connector-curvature="0"
         style="fill:#efd99c" />
      <polygon
         id="polygon453"
         points="150.32,231.08 150.34,231.06 150.19,230.96 "
         class="cls-3"
         style="fill:#efd99c" />
      <polygon
         id="polygon455"
         points="150.34,231.06 150.32,231.08 150.44,231.21 "
         class="cls-3"
         style="fill:#efd99c" />
      <path
         id="path457"
         transform="translate(-138.76,-266.38)"
         d="m 217.07,620.14 -0.57,1.16 a 26.76,26.76 0 0 0 -4,1.23 c -0.81,0.39 -1.35,1.3 -2.07,1.92 a 9.53,9.53 0 0 1 -1.92,1.38 c -2,0.94 -4.15,1.52 -5.88,2.77 -1.34,1 -2.11,2.71 -3.14,4.11 -8.35,-7.66 -16.58,-15.41 -19.29,-27.09 -0.12,-0.52 -0.17,-1 -0.25,-1.58 l 2,-1.19 -0.17,-1.2 c 2.56,-2.06 5.21,-3.57 7,-5.78 a 11.71,11.71 0 0 1 6.7,-4 c 2.77,10 8.95,16.62 19.27,18.72 a 24.09,24.09 0 0 0 15.05,-1.72 c 0.64,-0.29 1.33,-0.48 2,-0.72 0,0.2 0.05,0.41 0.08,0.61 v 1.92 c -3.21,-0.57 -4.56,1.85 -6.49,3.78 -1.77,1.78 -4.38,2.71 -6.59,4.07 -0.32,0.2 -0.47,0.67 -0.7,1 z"
         class="cls-1"
         inkscape:connector-curvature="0"
         style="fill:#e1b435" />
      <path
         id="path459"
         transform="translate(-138.76,-266.38)"
         d="m 181.56,526.7 c -5.25,0.47 -10.5,1 -15.76,1.36 -1.44,0.09 -2.92,-0.59 -4.34,-0.9 0.6,-3.37 1.27,-5.94 4.45,-6.7 4.73,-0.63 9.45,-1.29 14.19,-1.9 2,-0.25 3.92,-0.4 5.88,-0.6 -9.48,-2.52 -19,0.66 -28.61,-0.36 a 26.43,26.43 0 0 1 3.68,-1.39 c 6.54,-1.47 13.08,-2.9 19.65,-4.24 2.72,-0.55 5.5,-0.82 8.25,-1.23 l 5.41,-0.8 q -6.36,8.38 -12.8,16.76 z"
         class="cls-1"
         inkscape:connector-curvature="0"
         style="fill:#e1b435" />
      <path
         id="path461"
         transform="translate(-138.76,-266.38)"
         d="m 215,508.32 c 0.65,0.39 1.27,1.05 2,1.11 1.73,0.16 3.49,0.06 5.24,0.06 l 0.06,0.68 c -2.36,0.77 -4.71,1.59 -7.1,2.29 -2,0.61 -4.09,1.18 -6.17,1.59 a 27.57,27.57 0 0 1 -4,0.22 l 7.13,-5.39 z"
         class="cls-1"
         inkscape:connector-curvature="0"
         style="fill:#e1b435" />
      <path
         id="path463"
         transform="translate(-138.76,-266.38)"
         d="m 195.46,591.88 a 11.71,11.71 0 0 0 -6.7,4 c -1.77,2.21 -4.42,3.72 -7,5.78 l 0.17,1.2 -2,1.19 -1.49,-4.55 c 3.06,1.53 4.18,-1.66 6.08,-2.7 a 50.09,50.09 0 0 0 7.67,-5.69 19.83,19.83 0 0 0 2.57,-3.15 c 0.24,1.3 0.47,2.61 0.7,3.92 z"
         class="cls-3"
         inkscape:connector-curvature="0"
         style="fill:#efd99c" />
      <path
         id="path465"
         transform="translate(-138.76,-266.38)"
         d="m 443.26,563.11 c -2.51,-0.61 -2.67,1.71 -3.47,3 -1.48,2.35 -2.4,5.07 -4,7.29 -1.41,1.92 -3.48,3.36 -5.25,5 l -0.66,-0.52 c 0.78,-1.61 1.67,-3.18 2.32,-4.84 0.93,-2.37 1.49,-4.9 2.56,-7.19 1.64,-3.52 3.6,-6.87 5.36,-10.33 a 19.74,19.74 0 0 0 0.95,-2.62 l 2.85,-1.79 q -0.33,6 -0.66,12 z"
         class="cls-3"
         inkscape:connector-curvature="0"
         style="fill:#efd99c" />
      <path
         id="path467"
         transform="translate(-138.76,-266.38)"
         d="m 290.59,598.14 2.84,0.72 c -2.83,0.14 -3.56,2.88 -5.35,4.31 -0.38,0.31 -0.49,1 -0.89,1.23 a 11.42,11.42 0 0 1 -2.29,0.66 13.63,13.63 0 0 1 1.14,-1.88 c 1.48,-1.71 3.03,-3.36 4.55,-5.04 z"
         class="cls-3"
         inkscape:connector-curvature="0"
         style="fill:#efd99c" />
      <path
         id="path469"
         transform="translate(-138.76,-266.38)"
         d="m 350.14,555.22 c 1.59,-1 3.16,-2 4.77,-3 0.9,-0.54 1.87,-0.94 2.81,-1.41 0,1.3 -0.07,2.59 -0.11,3.88 a 20.14,20.14 0 0 0 -3.27,-0.23 c -1.41,0.14 -2.8,0.54 -4.2,0.76 z"
         class="cls-3"
         inkscape:connector-curvature="0"
         style="fill:#efd99c" />
      <path
         id="path471"
         transform="translate(-138.76,-266.38)"
         d="m 421.52,474.79 -3.71,-0.58 c 0,-4.48 0,-8.95 0,-13.43 a 6.14,6.14 0 0 0 0,-1.35 c -1.32,-5.65 -2.74,-11.28 -4,-16.95 a 64.92,64.92 0 0 1 -0.78,-6.74 c 4.72,-0.07 2.6,3.41 3.52,5.16 a 13.35,13.35 0 0 1 1.08,4 c 0.25,1.57 1.75,3.34 -0.56,4.69 -0.2,0.12 0,1.14 0.19,1.68 1,2.79 2.81,5.53 2.86,8.32 0.13,5.12 4.24,9.7 1.4,15.2 z"
         class="cls-1"
         inkscape:connector-curvature="0"
         style="fill:#e1b435" />
      <path
         id="path473"
         transform="translate(-138.76,-266.38)"
         d="m 231.38,408.18 c -0.45,0.19 -1,0.65 -1.33,0.54 -3,-0.88 -6,-1.79 -8.94,-2.84 -3.41,-1.2 -6.74,-2.58 -10.14,-3.81 -3.76,-1.37 -7.61,-2.53 -11.32,-4 -3.71,-1.47 -7.31,-3.4 -11.06,-4.88 -3.75,-1.48 -7.38,-2.46 -11,-3.81 -3.62,-1.35 -7.17,-2.83 -11.1,-4.4 0.78,-1 1,-1.67 1.4,-1.75 5.69,-1.32 11.46,-2.23 17.3,-1.4 2.16,0.3 4.16,1.54 6.31,2.05 3.2,0.77 6.51,1.14 9.71,1.91 6,1.46 12,3.08 17.95,4.63 z"
         class="cls-1"
         inkscape:connector-curvature="0"
         style="fill:#e1b435" />
      <path
         id="path475"
         transform="translate(-138.76,-266.38)"
         d="m 233.94,433.67 c -1.89,-1.28 -3.74,-2.63 -5.68,-3.83 -2.64,-1.64 -5.39,-3.11 -8,-4.74 -3.57,-2.19 -7.08,-4.46 -10.61,-6.69 l 0.23,-0.75 c 1.37,0.42 2.78,0.76 4.1,1.3 a 75.76,75.76 0 0 1 8.69,3.82 c 3.62,2 7,4.52 10.5,6.75 a 13,13 0 0 0 2.51,1 z"
         class="cls-1"
         inkscape:connector-curvature="0"
         style="fill:#e1b435" />
      <path
         id="path477"
         transform="translate(-138.76,-266.38)"
         d="m 219.75,348.09 c 2.29,1.05 4.49,2.59 6.89,3 2.15,0.36 3.72,2.4 6.3,1.66 1,-0.28 2.47,1.19 3.73,1.87 0.16,0.3 0.25,0.77 0.5,0.87 2.25,0.94 1.9,2.11 0.41,3.49 -0.22,0.2 -0.24,0.63 -0.36,0.95 -3.13,-1.64 -6.23,-3.36 -9.41,-4.92 -2.79,-1.36 -5.67,-2.54 -8.52,-3.8 0.16,-1.05 0.31,-2.08 0.46,-3.12 z"
         class="cls-1"
         inkscape:connector-curvature="0"
         style="fill:#e1b435" />
      <path
         id="path479"
         transform="translate(-138.76,-266.38)"
         d="m 233.55,310.71 a 16.29,16.29 0 0 0 0.95,-2.25 c 0.44,-1.67 1,-1.93 2.67,-1 a 4.66,4.66 0 0 0 5.31,-0.3 c 0.64,-0.48 2,0 3,0 l -10.72,5.09 -1.14,-1.43 z"
         class="cls-1"
         inkscape:connector-curvature="0"
         style="fill:#e1b435" />
      <path
         id="path481"
         transform="translate(-138.76,-266.38)"
         d="m 226.91,318.2 c 0.56,-1.6 0.76,-3.49 1.77,-4.71 0.75,-0.9 2.61,-1.76 3.72,0.24 z"
         class="cls-1"
         inkscape:connector-curvature="0"
         style="fill:#e1b435" />
      <path
         id="path483"
         transform="translate(-138.76,-266.38)"
         d="m 226.59,318.5 -0.22,-0.07 0.2,0.06 z"
         class="cls-1"
         inkscape:connector-curvature="0"
         style="fill:#e1b435" />
      <path
         id="path485"
         transform="translate(-138.76,-266.38)"
         d="m 348,334.91 c -0.1,-0.17 -0.21,-0.33 -0.06,-0.09 -0.08,-0.27 0,-0.08 0,0.11 z"
         class="cls-1"
         inkscape:connector-curvature="0"
         style="fill:#e1b435" />
      <path
         id="path487"
         transform="translate(-138.76,-266.38)"
         d="m 275.83,309.47 c -0.26,-0.27 -0.53,-0.54 -0.77,-0.83 0,0 0.19,-0.22 0.3,-0.33 l 0.84,0.79 a 4.31,4.31 0 0 0 -0.37,0.37 z"
         class="cls-1"
         inkscape:connector-curvature="0"
         style="fill:#e1b435" />
      <path
         id="path489"
         transform="translate(-138.76,-266.38)"
         d="m 237.22,359.92 c 0.12,-0.32 0.14,-0.75 0.36,-0.95 1.49,-1.38 1.84,-2.55 -0.41,-3.49 -0.25,-0.1 -0.34,-0.57 -0.5,-0.87 2,-0.36 3.63,0.16 4.43,2.25 -2.29,3.52 -1.68,4.82 3.09,6.16 0.36,-0.86 0.74,-1.74 1.11,-2.61 l -0.59,-0.3 -1.24,1.67 -0.38,-0.16 1.2,-3.72 5,3.25 c -0.84,2.35 -1.69,4.69 -2.54,7 z m 9.12,2.06 -0.85,0.09 0.26,2 0.68,-0.08 z"
         class="cls-3"
         inkscape:connector-curvature="0"
         style="fill:#efd99c" />
      <path
         id="path491"
         transform="translate(-138.76,-266.38)"
         d="m 231.86,608.77 c 0,-0.2 -0.05,-0.41 -0.08,-0.61 l 2.74,-1.65 h 1.29 z"
         class="cls-3"
         inkscape:connector-curvature="0"
         style="fill:#efd99c" />
      <path
         id="path493"
         transform="translate(-138.76,-266.38)"
         d="m 235.81,606.54 h -1.29 l 1.35,-1 z"
         class="cls-1"
         inkscape:connector-curvature="0"
         style="fill:#e1b435" />
      <path
         id="path495"
         transform="translate(-138.76,-266.38)"
         d="m 217.07,620.14 1,-0.59 z"
         class="cls-3"
         inkscape:connector-curvature="0"
         style="fill:#efd99c" />
      <path
         id="path497"
         transform="translate(-138.76,-266.38)"
         d="m 363.32,511.59 0.85,0.49 -0.47,0.47 -0.47,-0.87 z"
         class="cls-1"
         inkscape:connector-curvature="0"
         style="fill:#e1b435" />
      <path
         id="path499"
         transform="translate(-138.76,-266.38)"
         d="m 345.26,521.45 a 1.4,1.4 0 0 0 0.54,0 z"
         class="cls-3"
         inkscape:connector-curvature="0"
         style="fill:#efd99c" />
      <path
         id="path501"
         transform="translate(-138.76,-266.38)"
         d="m 244.29,357.9 -1.2,3.72 0.38,0.16 1.24,-1.67 0.59,0.3 c -0.37,0.87 -0.75,1.75 -1.11,2.61 -4.77,-1.34 -5.38,-2.64 -3.09,-6.16 z"
         class="cls-1"
         inkscape:connector-curvature="0"
         style="fill:#e1b435" />
      <path
         id="path503"
         transform="translate(-138.76,-266.38)"
         d="m 246.34,362 0.09,2 -0.68,0.08 -0.26,-2 z"
         class="cls-1"
         inkscape:connector-curvature="0"
         style="fill:#e1b435" />
    </g>
  </g>
</svg>
