/* XPM */
static char * closeI_xpm[] = {
"15 46 505 2",
"  	c None",
". 	c #234785",
"+ 	c #9BB8DA",
"@ 	c #99B5DA",
"# 	c #99B3D8",
"$ 	c #9BB4DC",
"% 	c #9EB7DF",
"& 	c #A1B8E1",
"* 	c #A0B7E1",
"= 	c #A0B9E2",
"- 	c #9FB8E0",
"; 	c #9DB6DE",
"> 	c #9AB6DD",
", 	c #9DB9DE",
"' 	c #9FBDE1",
") 	c #9EBCDE",
"! 	c #9FB8D7",
"~ 	c #A2B9D9",
"{ 	c #A4BBDB",
"] 	c #A5BCDC",
"^ 	c #A7BBDC",
"/ 	c #A6BADB",
"( 	c #A3B5D9",
"_ 	c #9FB1D5",
": 	c #A6BBD6",
"< 	c #A2B7D2",
"[ 	c #9DB5CF",
"} 	c #9CB4CE",
"| 	c #9BB5CE",
"1 	c #9DB7D0",
"2 	c #9EB8D1",
"3 	c #9CAFCD",
"4 	c #9AADCB",
"5 	c #99ACCA",
"6 	c #9DAECA",
"7 	c #9BACC8",
"8 	c #9AA9C6",
"9 	c #9CABC8",
"0 	c #A2B1CE",
"a 	c #9CAEC6",
"b 	c #9DAFC7",
"c 	c #A0B2CA",
"d 	c #A2B3CD",
"e 	c #9FB3CC",
"f 	c #9BAFC8",
"g 	c #98AEC6",
"h 	c #A0AFCC",
"i 	c #A0B0CA",
"j 	c #97A7C1",
"k 	c #8B99B3",
"l 	c #7E8DA4",
"m 	c #76829A",
"n 	c #6F7B91",
"o 	c #7C8AA7",
"p 	c #7F8DAA",
"q 	c #8796B5",
"r 	c #92A1C0",
"s 	c #9AAACB",
"t 	c #9EAED0",
"u 	c #9DAECC",
"v 	c #95A5BF",
"w 	c #8494AD",
"x 	c #8796AD",
"y 	c #9AA9BE",
"z 	c #A9B6C9",
"A 	c #9FADCA",
"B 	c #97A5C2",
"C 	c #8D9ABA",
"D 	c #8998B9",
"E 	c #92A0C3",
"F 	c #9DADD1",
"G 	c #A0AFD6",
"H 	c #A1B1D2",
"I 	c #99AAC8",
"J 	c #8D9EBA",
"K 	c #8D9DB7",
"L 	c #9CACC3",
"M 	c #B1C0D5",
"N 	c #BCCBDE",
"O 	c #BBCBDB",
"P 	c #BBCCE0",
"Q 	c #B2C2D9",
"R 	c #9DADC6",
"S 	c #899AB4",
"T 	c #8A9BB9",
"U 	c #98ABCB",
"V 	c #A3B6D7",
"W 	c #A0B3D4",
"X 	c #879ABA",
"Y 	c #7F90AE",
"Z 	c #91A2BC",
"` 	c #A7B7D0",
" .	c #A9BACE",
"..	c #A7B8CA",
"+.	c #AABBCD",
"@.	c #AABCC8",
"#.	c #ACBFCD",
"$.	c #A1B4C3",
"%.	c #8B9EAF",
"&.	c #8095AA",
"*.	c #8B9FB7",
"=.	c #97ADC5",
"-.	c #98A9C5",
";.	c #798AA4",
">.	c #8E9EB5",
",.	c #96A7B9",
"'.	c #9BAABD",
").	c #9DACBF",
"!.	c #A0AFC6",
"~.	c #A6B2CC",
"{.	c #A7B3CD",
"].	c #9CABC2",
"^.	c #9EADC2",
"/.	c #97A6B9",
"(.	c #8B9CB0",
"_.	c #75859E",
":.	c #98A9C7",
"<.	c #97A8C4",
"[.	c #7E8FA9",
"}.	c #95A5BC",
"|.	c #9EAFC1",
"1.	c #A4B3C6",
"2.	c #A5B4C7",
"3.	c #A6B5CC",
"4.	c #A8B4CE",
"5.	c #A2B1C8",
"6.	c #A5B4C9",
"7.	c #9FAEC1",
"8.	c #96A7BB",
"9.	c #7E8EA7",
"0.	c #9AABC9",
"a.	c #8798B2",
"b.	c #9FAFC6",
"c.	c #A6B7C9",
"d.	c #ACBBCE",
"e.	c #ADBCCF",
"f.	c #B0BFD6",
"g.	c #B0BCD6",
"h.	c #ADBCD3",
"i.	c #ADBCD1",
"j.	c #A7B6C9",
"k.	c #A0B1C5",
"l.	c #8898B1",
"m.	c #9BACCA",
"n.	c #93A4C0",
"o.	c #A1B1C8",
"p.	c #AAB9CC",
"q.	c #B3C2D9",
"r.	c #B5C1DB",
"s.	c #B7C3DD",
"t.	c #A8B7CA",
"u.	c #A1B2C6",
"v.	c #8797B0",
"w.	c #93A4C2",
"x.	c #8A9BB7",
"y.	c #8697B1",
"z.	c #9EAEC5",
"A.	c #A5B6C8",
"B.	c #B1C0D7",
"C.	c #B8C4DE",
"D.	c #AEBDD4",
"E.	c #ABBACF",
"F.	c #A9B8CB",
"G.	c #9EAFC3",
"H.	c #8393AC",
"I.	c #899AB8",
"J.	c #9DADC4",
"K.	c #B5C4D7",
"L.	c #B0BFD2",
"M.	c #B7C6DD",
"N.	c #BCC8E2",
"O.	c #B4C3DA",
"P.	c #B4C3D8",
"Q.	c #AFBED1",
"R.	c #8A9AB3",
"S.	c #8E9FBD",
"T.	c #92A2B9",
"U.	c #A4B5C7",
"V.	c #B9C8DB",
"W.	c #B7C6D9",
"X.	c #BBCAE1",
"Y.	c #BAC6E0",
"Z.	c #B9C8DF",
"`.	c #B9C8DD",
" +	c #92A3B7",
".+	c #8F9FB8",
"++	c #8192AC",
"@+	c #7F8FA6",
"#+	c #93A4B6",
"$+	c #B1C0D3",
"%+	c #B5C4DB",
"&+	c #B3C2D7",
"*+	c #7C8DA1",
"=+	c #8999B2",
"-+	c #89A5BA",
";+	c #86A1B4",
">+	c #7C97AA",
",+	c #7590A3",
"'+	c #7B95A6",
")+	c #8CA6B7",
"!+	c #A0B7C7",
"~+	c #A8BFCF",
"{+	c #9CB6C7",
"]+	c #8FA8BC",
"^+	c #7F98AC",
"/+	c #7790A4",
"(+	c #7B94AA",
"_+	c #869FB5",
":+	c #90A8C0",
"<+	c #93A6C6",
"[+	c #92A5C5",
"}+	c #8B9EBC",
"|+	c #8394B2",
"1+	c #7D8EAA",
"2+	c #7C8BA8",
"3+	c #7988A5",
"4+	c #7686A0",
"5+	c #7889A5",
"6+	c #7889A7",
"7+	c #7A8BA9",
"8+	c #8192B0",
"9+	c #8B9BBC",
"0+	c #93A3C4",
"a+	c #96A6C8",
"b+	c #9EADCC",
"c+	c #9CA9C9",
"d+	c #96A4C1",
"e+	c #929DBB",
"f+	c #8E99B5",
"g+	c #8994B0",
"h+	c #868FAC",
"i+	c #8997B4",
"j+	c #8B99B6",
"k+	c #919FBC",
"l+	c #98A5C5",
"m+	c #9EABCB",
"n+	c #A1AECE",
"o+	c #A0ADCF",
"p+	c #94A8C0",
"q+	c #93A7BF",
"r+	c #93A5BD",
"s+	c #90A2B8",
"t+	c #8EA0B6",
"u+	c #8FA0B4",
"v+	c #8E9FB3",
"w+	c #8D9EB2",
"x+	c #8D9FB3",
"y+	c #8EA0B4",
"z+	c #92A4BA",
"A+	c #95A7BD",
"B+	c #96A8C0",
"C+	c #97A9C1",
"D+	c #8DA8C5",
"E+	c #8FA9C4",
"F+	c #8FA7C3",
"G+	c #8CA4BE",
"H+	c #8BA0BB",
"I+	c #899EB9",
"J+	c #88A0B8",
"K+	c #8BA3BB",
"L+	c #8EA6C0",
"M+	c #90A8C2",
"N+	c #90A8C4",
"O+	c #8FA6C5",
"P+	c #8BA2CB",
"Q+	c #8DA5CB",
"R+	c #91A7CE",
"S+	c #91A7CC",
"T+	c #91A5CA",
"U+	c #90A4C9",
"V+	c #91A5C8",
"W+	c #91A8CA",
"X+	c #90A6CB",
"Y+	c #8FA5CC",
"Z+	c #697993",
"`+	c #677590",
" @	c #66748F",
".@	c #67758F",
"+@	c #69758F",
"@@	c #68748C",
"#@	c #6B758E",
"$@	c #6E7891",
"%@	c #6B778D",
"&@	c #6A768C",
"*@	c #68748A",
"=@	c #6A768E",
"-@	c #6C7892",
";@	c #6E7A94",
">@	c #264D88",
",@	c #1F4681",
"'@	c #1E4580",
")@	c #244B86",
"!@	c #284F8A",
"~@	c #254C87",
"{@	c #274E89",
"]@	c #204782",
"^@	c #1D447F",
"/@	c #9EA6BD",
"(@	c #747C93",
"_@	c #3B435A",
":@	c #0A1229",
"<@	c #000017",
"[@	c #0C142B",
"}@	c #373F56",
"|@	c #727A91",
"1@	c #A1A9C0",
"2@	c #A1A5B0",
"3@	c #494D58",
"4@	c #4D4844",
"5@	c #A09B97",
"6@	c #C7B7B7",
"7@	c #DFCFCF",
"8@	c #CDB9BA",
"9@	c #A59192",
"0@	c #504943",
"a@	c #554E48",
"b@	c #94A6A8",
"c@	c #A5B2D4",
"d@	c #616570",
"e@	c #555964",
"f@	c #908B87",
"g@	c #DCD7D3",
"h@	c #FFF4F4",
"i@	c #F3E3E3",
"j@	c #FFF0F1",
"k@	c #E4D0D1",
"l@	c #99928C",
"m@	c #564F49",
"n@	c #526466",
"o@	c #ABBDBF",
"p@	c #797188",
"q@	c #5B1C24",
"r@	c #76373F",
"s@	c #AE4B4E",
"t@	c #CD6A6D",
"u@	c #FEA4AE",
"v@	c #F69CA6",
"w@	c #F99DA8",
"x@	c #C66A75",
"y@	c #B25256",
"z@	c #8C2C30",
"A@	c #4D1F22",
"B@	c #926467",
"C@	c #B1CBD8",
"D@	c #ACA4BB",
"E@	c #544C63",
"F@	c #6D2E36",
"G@	c #7A3B43",
"H@	c #6D0A0D",
"I@	c #5F0000",
"J@	c #913741",
"K@	c #B35963",
"L@	c #90343F",
"M@	c #5B000A",
"N@	c #6B0B0F",
"O@	c #97373B",
"P@	c #623437",
"Q@	c #91ABB8",
"R@	c #C29EAC",
"S@	c #4A2634",
"T@	c #AD3332",
"U@	c #B53B3A",
"V@	c #A71309",
"W@	c #9A0600",
"X@	c #78120D",
"Y@	c #942E29",
"Z@	c #77110D",
"`@	c #7D1713",
" #	c #A0110B",
".#	c #C2332D",
"+#	c #993537",
"@#	c #781416",
"##	c #A2A4B1",
"$#	c #BD99A7",
"%#	c #300C1A",
"&#	c #AB3130",
"*#	c #C34948",
"=#	c #E34F45",
"-#	c #E24E44",
";#	c #88221D",
">#	c #86201B",
",#	c #821C18",
"'#	c #BE5854",
")#	c #E1524C",
"!#	c #D1423C",
"~#	c #973335",
"{#	c #6B0709",
"]#	c #9D9FAC",
"^#	c #B28E9C",
"/#	c #3F1B29",
"(#	c #BD4338",
"_#	c #DC6257",
":#	c #FA6D51",
"<#	c #E5583C",
"[#	c #913B24",
"}#	c #943E27",
"|#	c #8D3623",
"1#	c #B7604D",
"2#	c #FC7361",
"3#	c #EB6250",
"4#	c #AB4745",
"5#	c #710D0B",
"6#	c #9496AB",
"7#	c #A17D8B",
"8#	c #532F3D",
"9#	c #C94F44",
"0#	c #E46A5F",
"a#	c #EB5E42",
"b#	c #B82B0F",
"c#	c #8E3821",
"d#	c #AA543D",
"e#	c #963F2C",
"f#	c #913A27",
"g#	c #EE6553",
"h#	c #F06755",
"i#	c #B5514F",
"j#	c #7B1715",
"k#	c #8C8EA3",
"l#	c #9B92A5",
"m#	c #554C5F",
"n#	c #9D4D44",
"o#	c #C07067",
"p#	c #AB341C",
"q#	c #9D260E",
"r#	c #E57D72",
"s#	c #FFA59A",
"t#	c #DE756F",
"u#	c #8B221C",
"v#	c #AC382B",
"w#	c #E16D60",
"x#	c #884A4B",
"y#	c #793B3C",
"z#	c #778FAB",
"A#	c #A69DB0",
"B#	c #655C6F",
"C#	c #85352C",
"D#	c #B96960",
"E#	c #DA634B",
"F#	c #F67F67",
"G#	c #FFA79C",
"H#	c #FFB6AB",
"I#	c #FFAAA4",
"J#	c #E47B75",
"K#	c #D66255",
"L#	c #D76356",
"M#	c #6F3132",
"N#	c #995B5C",
"O#	c #ADB2CF",
"P#	c #6E7390",
"Q#	c #5E4447",
"R#	c #604649",
"S#	c #B98077",
"T#	c #D9A097",
"U#	c #FFC2C4",
"V#	c #FFC1C3",
"W#	c #FFC3C8",
"X#	c #E89DA2",
"Y#	c #C48786",
"Z#	c #834645",
"`#	c #5C4B55",
" $	c #7F6E78",
".$	c #9FA4C1",
"+$	c #8B90AD",
"@$	c #674D50",
"#$	c #5D4346",
"$$	c #723930",
"%$	c #A0675E",
"&$	c #B67072",
"*$	c #CF898B",
"=$	c #B3686D",
"-$	c #A55A5F",
";$	c #713433",
">$	c #7E4140",
",$	c #5B4A54",
"'$	c #998892",
")$	c #A1A8C5",
"!$	c #94A1B1",
"~$	c #586575",
"{$	c #465157",
"]$	c #253036",
"^$	c #38373F",
"/$	c #36353D",
"($	c #48404B",
"_$	c #3B333E",
":$	c #4E4C59",
"<$	c #595764",
"[$	c #969EB1",
"}$	c #A2AFBF",
"|$	c #788389",
"1$	c #717C82",
"2$	c #5F5E66",
"3$	c #5D5C64",
"4$	c #615964",
"5$	c #776F7A",
"6$	c #7C7A87",
"7$	c #A3A1AE",
"8$	c #A6AEC1",
"9$	c #8BA9C1",
"0$	c #7896AE",
"a$	c #788AA2",
"b$	c #74869E",
"c$	c #838DA6",
"d$	c #8791AA",
"e$	c #A2ADC9",
"f$	c #98A3BF",
". . . . . . . . . . . . . . . ",
"+ + @ # $ % & * = - ; > , ' ) ",
"! ~ { ] ^ / ( _ : < [ } | 1 2 ",
"3 4 5 6 7 8 9 0 a b c d e f g ",
"7 h i j k l m n o p q r s t t ",
"u h v w x y z z A B C D E F G ",
"H I J K L M N O P Q R S T U V ",
"W X Y Z `  ...+.@.#.$.%.&.*.=.",
"-.;.>.,.'.).!.~.{.].^./.(._.:.",
"<.[.}.|.1.2.3.4.4.5.6.7.8.9.0.",
"-.a.b.c.d.e.f.g.g.h.i.j.k.l.m.",
"n.S o.c.p.d.q.r.s.f.i.t.u.v.w.",
"x.y.z.A.p.t.B.r.C.D.E.F.G.H.I.",
"J S J.+.K.L.M.C.N.O.P.Q.G.R.S.",
"<.S T.U.V.W.X.Y.N.Z.`.F. +.+:.",
"7 ++@+#+L.$+M.r.r.%+&+/.*+=+0.",
"-+;+>+,+'+)+!+~+{+]+^+/+(+_+:+",
"<+[+}+|+1+2+3+4+5+6+7+8+9+0+a+",
"b+b+c+d+e+f+g+h+i+j+k+l+m+n+o+",
"p+q+r+s+t+u+v+w+x+y+s+z+A+B+C+",
"D+D+E+E+F+G+H+I+J+K+L+M+N+N+O+",
"P+P+Q+R+S+T+U+V+W+W+W+S+X+Y+Y+",
"Z+`+ @.@+@@@#@$@%@&@*@@@=@-@;@",
">@,@'@)@!@>@~@{@]@'@^@^@,@]@]@",
"+ + @ # $ % & * = - ; > , ' ) ",
"! ~ { ] ^ / ( _ : < [ } | 1 2 ",
"3 4 5 6 7 8 9 0 a b c d e f g ",
"7 h i /@(@_@:@<@[@}@|@1@s t t ",
"u h 2@3@4@5@6@7@8@9@0@a@b@F G ",
"H c@d@e@f@g@h@i@j@k@l@m@n@o@V ",
"W p@q@r@s@t@u@v@w@x@y@z@A@B@C@",
"D@E@F@G@H@I@J@K@L@M@N@O@P@P@Q@",
"R@S@T@U@V@W@X@Y@Z@`@ #.#+#@###",
"$#%#&#*#=#-#;#>#,#'#)#!#~#{#]#",
"^#/#(#_#:#<#[#}#|#1#2#3#4#5#6#",
"7#8#9#0#a#b#c#d#e#f#g#h#i#j#k#",
"l#m#n#o#p#q#r#s#t#u#v#w#x#y#z#",
"A#B#C#D#E#F#G#H#I#J#K#L#M#N#F+",
"O#P#Q#R#S#T#U#V#W#X#Y#Z#`# $0.",
".$+$@$#$$$%$&$*$=$-$;$>$,$'$:+",
"<+)$!$~${$]$^$/$($_$:$<$[$0+a+",
"b+b+c+}$|$1$2$3$4$5$6$7$8$n+o+",
"p+q+r+s+9$0$a$b$c$d$e$f$A+B+C+",
"D+D+E+E+F+G+H+I+J+K+L+M+N+N+O+",
"P+P+Q+R+S+T+U+V+W+W+W+S+X+Y+Y+",
"Z+`+ @.@+@@@#@$@%@&@*@@@=@-@;@"};
