/* XPM */
static char * rolldownA_xpm[] = {
"15 46 215 2",
"  	c None",
". 	c #808483",
"+ 	c #FCFCFC",
"@ 	c #FFFFFF",
"# 	c #FDFDFD",
"$ 	c #FEFEFE",
"% 	c #F4F4F4",
"& 	c #ECECEC",
"* 	c #F0F0F0",
"= 	c #F5F5F5",
"- 	c #EFEFEF",
"; 	c #E9E9E9",
"> 	c #EEEEEE",
", 	c #EAEAEA",
"' 	c #F6F6F6",
") 	c #F2F2F2",
"! 	c #EDEDED",
"~ 	c #EBEBEB",
"{ 	c #E8E8E8",
"] 	c #DEDEDE",
"^ 	c #A6A6A6",
"/ 	c #5E5E5E",
"( 	c #2A2A2A",
"_ 	c #0F0F0F",
": 	c #2C2C2C",
"< 	c #606060",
"[ 	c #D9D9D9",
"} 	c #F7F7F7",
"| 	c #6A6A6A",
"1 	c #564E5F",
"2 	c #9584AD",
"3 	c #BBACCF",
"4 	c #CBBEDD",
"5 	c #BFB1D2",
"6 	c #9988AF",
"7 	c #494351",
"8 	c #6D6D6D",
"9 	c #D7D7D7",
"0 	c #747178",
"a 	c #574A68",
"b 	c #9D84BF",
"c 	c #D1C5E1",
"d 	c #DCD3E8",
"e 	c #EDE8F3",
"f 	c #E0D8EB",
"g 	c #CDC0DE",
"h 	c #A38BC3",
"i 	c #594C6A",
"j 	c #76737A",
"k 	c #9E9E9E",
"l 	c #3E354A",
"m 	c #70509A",
"n 	c #AD97C9",
"o 	c #C8BADB",
"p 	c #CCBFDE",
"q 	c #C7B8DA",
"r 	c #AF9ACB",
"s 	c #6C4D95",
"t 	c #443A51",
"u 	c #959595",
"v 	c #4C4554",
"w 	c #634788",
"x 	c #9F86C0",
"y 	c #967ABA",
"z 	c #A68FC5",
"A 	c #A892C6",
"B 	c #B5A2CF",
"C 	c #AE99CA",
"D 	c #9A80BD",
"E 	c #694B91",
"F 	c #DCDCDC",
"G 	c #DBDBDB",
"H 	c #413650",
"I 	c #8E70B5",
"J 	c #9E85C0",
"K 	c #A58DC4",
"L 	c #B4A1CE",
"M 	c #BCAAD3",
"N 	c #B6A3CF",
"O 	c #A993C7",
"P 	c #8363AE",
"Q 	c #473B57",
"R 	c #D2D2D2",
"S 	c #CCCCCC",
"T 	c #523F6C",
"U 	c #634789",
"V 	c #583F79",
"W 	c #543C73",
"X 	c #7856A5",
"Y 	c #A58EC4",
"Z 	c #584373",
"` 	c #D1D1D1",
" .	c #BABABA",
"..	c #5E4480",
"+.	c #BDACD4",
"@.	c #66498C",
"#.	c #604584",
"$.	c #73529E",
"%.	c #C6B7DA",
"&.	c #C4B4D8",
"*.	c #B7A4D0",
"=.	c #59417B",
"-.	c #BFBFBF",
";.	c #B7B7B7",
">.	c #654D85",
",.	c #C5B6D9",
"'.	c #D6CBE4",
").	c #71519C",
"!.	c #7755A4",
"~.	c #D9D0E6",
"{.	c #CFC2DF",
"].	c #6E538F",
"^.	c #AFAFAF",
"/.	c #BBBBBB",
"(.	c #756290",
"_.	c #D3C8E2",
":.	c #DAD1E7",
"<.	c #EEEAF4",
"[.	c #8768B1",
"}.	c #AB95C8",
"|.	c #EDE9F3",
"1.	c #E2DBEC",
"2.	c #E1D9EB",
"3.	c #9B81BE",
"4.	c #73608D",
"5.	c #B9B9B9",
"6.	c #CDCDCD",
"7.	c #847A93",
"8.	c #7E5DAB",
"9.	c #BFAFD5",
"0.	c #EAE4F1",
"a.	c #F0EDF5",
"b.	c #F0ECF5",
"c.	c #F3F0F7",
"d.	c #7C5AA9",
"e.	c #887E96",
"f.	c #CECECE",
"g.	c #D0D0D0",
"h.	c #66577A",
"i.	c #D7CDE5",
"j.	c #68587C",
"k.	c #9C9C9C",
"l.	c #CFCFCF",
"m.	c #79767D",
"n.	c #524662",
"o.	c #6A4C92",
"p.	c #DED5E9",
"q.	c #9478B9",
"r.	c #694B90",
"s.	c #564967",
"t.	c #7E7B82",
"u.	c #D6D6D6",
"v.	c #8B8B8B",
"w.	c #5F576A",
"x.	c #493C59",
"y.	c #3D2E4F",
"z.	c #3C2B53",
"A.	c #3D2F50",
"B.	c #463B56",
"C.	c #625A6D",
"D.	c #8C8C8C",
"E.	c #B5B5B5",
"F.	c #DFDFDF",
"G.	c #A1A1A1",
"H.	c #929292",
"I.	c #828282",
"J.	c #767676",
"K.	c #818181",
"L.	c #A3A3A3",
"M.	c #C0C0C0",
"N.	c #D3D3D3",
"O.	c #C4C4C4",
"P.	c #B8B8B8",
"Q.	c #B3B3B3",
"R.	c #A5A5A5",
"S.	c #BEBEBE",
"T.	c #C9C9C9",
"U.	c #E1E1E1",
"V.	c #E4E4E4",
"W.	c #C8C8C8",
"X.	c #D4D4D4",
"Y.	c #C6C6C6",
"Z.	c #CACACA",
"`.	c #D5D5D5",
" +	c #DADADA",
".+	c #DBD4CE",
"++	c #CFD4D7",
"@+	c #BDD7D4",
"#+	c #DFD3D3",
"$+	c #DADCD9",
"%+	c #DCD3E6",
"&+	c #CADAE7",
"*+	c #D6DBE1",
"=+	c #C8DADA",
"-+	c #D2DDDF",
";+	c #D9DEE2",
">+	c #DEDBE2",
",+	c #DFDAE1",
"'+	c #DCD9E0",
")+	c #DBDCE1",
"!+	c #72736B",
"~+	c #777C7F",
"{+	c #7B8F86",
"]+	c #80685E",
"^+	c #867666",
"/+	c #8E726F",
"(+	c #817F73",
"_+	c #89816C",
":+	c #7C8278",
"<+	c #7E7F77",
"[+	c #807D76",
"}+	c #827D77",
"|+	c #838079",
"1+	c #81827A",
"2+	c #7C8479",
". . . . . . . . . . . . . . . ",
"+ + @ @ @ @ @ @ + # @ @ @ @ @ ",
"@ $ + $ # # @ @ @ @ # # @ @ @ ",
"% & * = - ; > % , * = ' ) ! & ",
"~ { & ] ^ / ( _ : < ^ [ > > ~ ",
"! } [ | 1 2 3 4 5 6 7 8 9 - - ",
"@ * 0 a b c d e f g h i j > @ ",
"~ k l m n o g p 4 q r s t u ~ ",
"9 v w x y z r A B C D x E v F ",
"G H I J K L L M N O O D P Q R ",
"S T K x U V W W V U X z Y Z ` ",
" ...L +.p @.#.#.@.$.%.&.*.=.-.",
";.>.n ,.'.n ).).!.*.~.{.O ].^.",
"/.(.b _.:.<.Y [.}.|.1.2.3.4.5.",
"6.7.8.9.0.a.b.9.0.c.a.+.d.e.f.",
"g.k h.P {.<.c.c.c.c.i.[.j.k.6.",
"l./.m.n.o.D ,.p.%.q.r.s.t.-.R ",
"u.f.5.v.w.x.y.z.A.B.C.D.E.S [ ",
"= F.9 -.G.H.I.J.K.H.L.M.] ~ > ",
"u.F G N.O.P.Q.R.^.S.T.f.9 U.V.",
"g.G W.l.X.Y.f.6.6.Z.`.9  +] X.",
".+++@+#+$+%+&+*+=+-+;+>+,+'+)+",
"!+~+{+]+^+/+(+_+:+<+[+}+|+1+2+",
". . . . . . . . . . . . . . . ",
"+ + @ @ @ @ @ @ + # @ @ @ @ @ ",
"@ $ + $ # # @ @ @ @ # # @ @ @ ",
"% & * = - ; > % , * = ' ) ! & ",
"~ { & ] ^ / ( _ : < ^ [ > > ~ ",
"! } [ | 1 2 3 4 5 6 7 8 9 - - ",
"@ * 0 a b c d e f g h i j > @ ",
"~ k l m n o g p 4 q r s t u ~ ",
"9 v w x y z r A B C D x E v F ",
"G H I J K L L M N O O D P Q R ",
"S T K x U V W W V U X z Y Z ` ",
" ...L +.p @.#.#.@.$.%.&.*.=.-.",
";.>.n ,.'.n ).).!.*.~.{.O ].^.",
"/.(.b _.:.<.Y [.}.|.1.2.3.4.5.",
"6.7.8.9.0.a.b.9.0.c.a.+.d.e.f.",
"g.k h.P {.<.c.c.c.c.i.[.j.k.6.",
"l./.m.n.o.D ,.p.%.q.r.s.t.-.R ",
"u.f.5.v.w.x.y.z.A.B.C.D.E.S [ ",
"= F.9 -.G.H.I.J.K.H.L.M.] ~ > ",
"u.F G N.O.P.Q.R.^.S.T.f.9 U.V.",
"g.G W.l.X.Y.f.6.6.Z.`.9  +] X.",
".+++@+#+$+%+&+*+=+-+;+>+,+'+)+",
"!+~+{+]+^+/+(+_+:+<+[+}+|+1+2+"};
