/* XPM */
static char * rollupI_xpm[] = {
"15 46 450 2",
"  	c None",
". 	c #234785",
"+ 	c #9EBCDE",
"@ 	c #9FBDE1",
"# 	c #9DB9DE",
"$ 	c #9AB6DD",
"% 	c #9DB6DE",
"& 	c #9FB8E0",
"* 	c #A0B9E2",
"= 	c #A0B7E1",
"- 	c #A1B8E1",
"; 	c #9EB7DF",
"> 	c #9BB4DC",
", 	c #99B3D8",
"' 	c #99B5DA",
") 	c #9BB8DA",
"! 	c #9EB8D1",
"~ 	c #9DB7D0",
"{ 	c #9BB5CE",
"] 	c #9CB4CE",
"^ 	c #9DB5CF",
"/ 	c #A2B7D2",
"( 	c #A6BBD6",
"_ 	c #9FB1D5",
": 	c #A3B5D9",
"< 	c #A6BADB",
"[ 	c #A7BBDC",
"} 	c #A5BCDC",
"| 	c #A4BBDB",
"1 	c #A2B9D9",
"2 	c #9FB8D7",
"3 	c #98AEC6",
"4 	c #9BAFC8",
"5 	c #9FB3CC",
"6 	c #A2B3CD",
"7 	c #A0B2CA",
"8 	c #9DAFC7",
"9 	c #9CAEC6",
"0 	c #A2B1CE",
"a 	c #9CABC8",
"b 	c #9AA9C6",
"c 	c #9BACC8",
"d 	c #9DAECA",
"e 	c #99ACCA",
"f 	c #9AADCB",
"g 	c #9CAFCD",
"h 	c #9EAED0",
"i 	c #9AAACB",
"j 	c #92A1C0",
"k 	c #8796B5",
"l 	c #7F8DAA",
"m 	c #7C8AA7",
"n 	c #6F7B91",
"o 	c #76829A",
"p 	c #7E8DA4",
"q 	c #8B99B3",
"r 	c #97A7C1",
"s 	c #A0B0CA",
"t 	c #A0AFCC",
"u 	c #A0AFD6",
"v 	c #9DADD1",
"w 	c #92A0C3",
"x 	c #8998B9",
"y 	c #8D9ABA",
"z 	c #97A5C2",
"A 	c #9FADCA",
"B 	c #A9B6C9",
"C 	c #9AA9BE",
"D 	c #8796AD",
"E 	c #8494AD",
"F 	c #95A5BF",
"G 	c #9DAECC",
"H 	c #A3B6D7",
"I 	c #98ABCB",
"J 	c #8A9BB9",
"K 	c #899AB4",
"L 	c #9DADC6",
"M 	c #B2C2D9",
"N 	c #BBCCE0",
"O 	c #BBCBDB",
"P 	c #BCCBDE",
"Q 	c #B1C0D5",
"R 	c #9CACC3",
"S 	c #8D9DB7",
"T 	c #8D9EBA",
"U 	c #99AAC8",
"V 	c #A1B1D2",
"W 	c #97ADC5",
"X 	c #8B9FB7",
"Y 	c #8095AA",
"Z 	c #8B9EAF",
"` 	c #A1B4C3",
" .	c #ACBFCD",
"..	c #AABCC8",
"+.	c #AABBCD",
"@.	c #A7B8CA",
"#.	c #A9BACE",
"$.	c #A7B7D0",
"%.	c #91A2BC",
"&.	c #7F90AE",
"*.	c #879ABA",
"=.	c #A0B3D4",
"-.	c #98A9C7",
";.	c #75859E",
">.	c #8B9CB0",
",.	c #97A6B9",
"'.	c #9EADC2",
").	c #9CABC2",
"!.	c #A7B3CD",
"~.	c #A6B2CC",
"{.	c #A0AFC6",
"].	c #9DACBF",
"^.	c #9BAABD",
"/.	c #96A7B9",
"(.	c #8E9EB5",
"_.	c #798AA4",
":.	c #98A9C5",
"<.	c #9AABC9",
"[.	c #7E8EA7",
"}.	c #96A7BB",
"|.	c #9FAEC1",
"1.	c #A5B4C9",
"2.	c #A2B1C8",
"3.	c #A8B4CE",
"4.	c #A6B5CC",
"5.	c #A5B4C7",
"6.	c #A4B3C6",
"7.	c #9EAFC1",
"8.	c #95A5BC",
"9.	c #7E8FA9",
"0.	c #97A8C4",
"a.	c #9BACCA",
"b.	c #8898B1",
"c.	c #A0B1C5",
"d.	c #A7B6C9",
"e.	c #ADBCD1",
"f.	c #ADBCD3",
"g.	c #B0BCD6",
"h.	c #B0BFD6",
"i.	c #ADBCCF",
"j.	c #ACBBCE",
"k.	c #A6B7C9",
"l.	c #9FAFC6",
"m.	c #8798B2",
"n.	c #93A4C2",
"o.	c #8797B0",
"p.	c #A1B2C6",
"q.	c #A8B7CA",
"r.	c #B7C3DD",
"s.	c #B5C1DB",
"t.	c #B3C2D9",
"u.	c #AAB9CC",
"v.	c #A1B1C8",
"w.	c #93A4C0",
"x.	c #899AB8",
"y.	c #8393AC",
"z.	c #9EAFC3",
"A.	c #A9B8CB",
"B.	c #ABBACF",
"C.	c #AEBDD4",
"D.	c #B8C4DE",
"E.	c #B1C0D7",
"F.	c #A5B6C8",
"G.	c #9EAEC5",
"H.	c #8697B1",
"I.	c #8A9BB7",
"J.	c #8E9FBD",
"K.	c #8A9AB3",
"L.	c #AFBED1",
"M.	c #B4C3D8",
"N.	c #B4C3DA",
"O.	c #BCC8E2",
"P.	c #B7C6DD",
"Q.	c #B0BFD2",
"R.	c #B5C4D7",
"S.	c #9DADC4",
"T.	c #8F9FB8",
"U.	c #92A3B7",
"V.	c #B9C8DD",
"W.	c #B9C8DF",
"X.	c #BAC6E0",
"Y.	c #BBCAE1",
"Z.	c #B7C6D9",
"`.	c #B9C8DB",
" +	c #A4B5C7",
".+	c #92A2B9",
"++	c #8999B2",
"@+	c #7C8DA1",
"#+	c #B3C2D7",
"$+	c #B5C4DB",
"%+	c #B1C0D3",
"&+	c #93A4B6",
"*+	c #7F8FA6",
"=+	c #8192AC",
"-+	c #90A8C0",
";+	c #869FB5",
">+	c #7B94AA",
",+	c #7790A4",
"'+	c #7F98AC",
")+	c #8FA8BC",
"!+	c #9CB6C7",
"~+	c #A8BFCF",
"{+	c #A0B7C7",
"]+	c #8CA6B7",
"^+	c #7B95A6",
"/+	c #7590A3",
"(+	c #7C97AA",
"_+	c #86A1B4",
":+	c #89A5BA",
"<+	c #96A6C8",
"[+	c #93A3C4",
"}+	c #8B9BBC",
"|+	c #8192B0",
"1+	c #7A8BA9",
"2+	c #7889A7",
"3+	c #7889A5",
"4+	c #7686A0",
"5+	c #7988A5",
"6+	c #7C8BA8",
"7+	c #7D8EAA",
"8+	c #8394B2",
"9+	c #8B9EBC",
"0+	c #92A5C5",
"a+	c #93A6C6",
"b+	c #A0ADCF",
"c+	c #A1AECE",
"d+	c #9EABCB",
"e+	c #98A5C5",
"f+	c #919FBC",
"g+	c #8B99B6",
"h+	c #8997B4",
"i+	c #868FAC",
"j+	c #8994B0",
"k+	c #8E99B5",
"l+	c #929DBB",
"m+	c #96A4C1",
"n+	c #9CA9C9",
"o+	c #9EADCC",
"p+	c #97A9C1",
"q+	c #96A8C0",
"r+	c #95A7BD",
"s+	c #92A4BA",
"t+	c #90A2B8",
"u+	c #8EA0B4",
"v+	c #8D9FB3",
"w+	c #8D9EB2",
"x+	c #8E9FB3",
"y+	c #8FA0B4",
"z+	c #8EA0B6",
"A+	c #93A5BD",
"B+	c #93A7BF",
"C+	c #94A8C0",
"D+	c #8FA6C5",
"E+	c #90A8C4",
"F+	c #90A8C2",
"G+	c #8EA6C0",
"H+	c #8BA3BB",
"I+	c #88A0B8",
"J+	c #899EB9",
"K+	c #8BA0BB",
"L+	c #8CA4BE",
"M+	c #8FA7C3",
"N+	c #8FA9C4",
"O+	c #8DA8C5",
"P+	c #8FA5CC",
"Q+	c #90A6CB",
"R+	c #91A7CC",
"S+	c #91A8CA",
"T+	c #91A5C8",
"U+	c #90A4C9",
"V+	c #91A5CA",
"W+	c #91A7CE",
"X+	c #8DA5CB",
"Y+	c #8BA2CB",
"Z+	c #6E7A94",
"`+	c #6C7892",
" @	c #6A768E",
".@	c #68748C",
"+@	c #68748A",
"@@	c #6A768C",
"#@	c #6B778D",
"$@	c #6E7891",
"%@	c #6B758E",
"&@	c #69758F",
"*@	c #67758F",
"=@	c #66748F",
"-@	c #677590",
";@	c #697993",
">@	c #8D9CBB",
",@	c #A6A6A6",
"'@	c #5E5E5E",
")@	c #2A2A2A",
"!@	c #0F0F0F",
"~@	c #2C2C2C",
"{@	c #606060",
"]@	c #92A2BC",
"^@	c #8D9BBE",
"/@	c #6A6A6A",
"(@	c #56545A",
"_@	c #BBB2C8",
":@	c #CCC0DE",
"<@	c #CCBEE0",
"[@	c #CDC1DE",
"}@	c #BDB4CA",
"|@	c #49474D",
"1@	c #6D6D6D",
"2@	c #90A0BA",
"3@	c #757575",
"4@	c #817792",
"5@	c #B2A0D2",
"6@	c #D4C9E6",
"7@	c #D6CBE7",
"8@	c #DBD1EA",
"9@	c #D1C5E4",
"0@	c #B4A2D3",
"a@	c #7E758E",
"b@	c #777777",
"c@	c #94A5C3",
"d@	c #92A8C0",
"e@	c #9E9E9E",
"f@	c #625A6F",
"g@	c #9A7FC4",
"h@	c #C8BADF",
"i@	c #D8CEE8",
"j@	c #AE99D0",
"k@	c #9174BF",
"l@	c #635B70",
"m@	c #959595",
"n@	c #9BADCE",
"o@	c #8999B7",
"p@	c #4C4A50",
"q@	c #8060B5",
"r@	c #BDACD9",
"s@	c #CDC0E2",
"t@	c #D7CDE8",
"u@	c #7854B0",
"v@	c #9478C1",
"w@	c #C9BBE0",
"x@	c #B9A6D6",
"y@	c #7D5CB3",
"z@	c #8999B5",
"A@	c #8596B4",
"B@	c #564E64",
"C@	c #9E84C6",
"D@	c #C0AFDA",
"E@	c #A68ECB",
"F@	c #6A499E",
"G@	c #644595",
"H@	c #9B81C5",
"I@	c #CFC2E3",
"J@	c #BAA8D7",
"K@	c #9376C0",
"L@	c #564D63",
"M@	c #8393AF",
"N@	c #8696B5",
"O@	c #5F4B7D",
"P@	c #AF9AD0",
"Q@	c #BCABD8",
"R@	c #B5A2D4",
"S@	c #664698",
"T@	c #5A3E86",
"U@	c #553B7F",
"V@	c #A891CC",
"W@	c #8394B0",
"X@	c #7F8FAE",
"Y@	c #60448E",
"Z@	c #B29ED2",
"`@	c #6B4A9F",
" #	c #593D84",
".#	c #4F3776",
"+#	c #4A336E",
"@#	c #573E82",
"##	c #7F8FAC",
"$#	c #7787A5",
"%#	c #6A548D",
"&#	c #AA93CD",
"*#	c #A992CD",
"=#	c #AB95CE",
"-#	c #B29DD2",
";#	c #AD97CF",
">#	c #AC96CE",
",#	c #A087C8",
"'#	c #6B548E",
")#	c #7788A4",
"!#	c #7B8BA9",
"~#	c #786C8B",
"{#	c #987CC3",
"]#	c #C6B7DE",
"^#	c #DBD2EA",
"/#	c #DFD6EC",
"(#	c #9072BE",
"_#	c #756988",
":#	c #7A8AA6",
"<#	c #85828B",
"[#	c #7452AD",
"}#	c #DDD4EB",
"|#	c #6D4DA3",
"1#	c #89868F",
"2#	c #5B6984",
"3#	c #686075",
"4#	c #7956B1",
"5#	c #BEADD9",
"6#	c #C5B6DD",
"7#	c #675F74",
"8#	c #56657F",
"9#	c #8B9CB8",
"0#	c #6F869D",
"a#	c #526379",
"b#	c #534D5D",
"c#	c #614590",
"d#	c #8C6DBC",
"e#	c #B4A0D3",
"f#	c #CABCE0",
"g#	c #B5A1D4",
"h#	c #8362B7",
"i#	c #5D428A",
"j#	c #554E5F",
"k#	c #52657A",
"l#	c #6F889C",
"m#	c #84A0B5",
"n#	c #8E9EBF",
"o#	c #7383A3",
"p#	c #566582",
"q#	c #4C536D",
"r#	c #484154",
"s#	c #392E4B",
"t#	c #372851",
"u#	c #3B2F4D",
"v#	c #443E50",
"w#	c #4E556F",
"x#	c #576684",
"y#	c #7385A3",
"z#	c #8DA0C0",
"A#	c #99A6C6",
"B#	c #8995B5",
"C#	c #74819E",
"D#	c #5C6987",
"E#	c #525E7C",
"F#	c #505A76",
"G#	c #525C79",
"H#	c #5E6986",
"I#	c #747F9E",
"J#	c #8795B2",
"K#	c #97A4C4",
"L#	c #8B9DB3",
"M#	c #8091A6",
"N#	c #7A8BA0",
"O#	c #7A8A9F",
"P#	c #7B8BA0",
"Q#	c #899BB1",
". . . . . . . . . . . . . . . ",
"+ @ # $ % & * = - ; > , ' ) ) ",
"! ~ { ] ^ / ( _ : < [ } | 1 2 ",
"3 4 5 6 7 8 9 0 a b c d e f g ",
"h h i j k l m n o p q r s t c ",
"u v w x y z A B B C D E F t G ",
"H I J K L M N O P Q R S T U V ",
"W X Y Z `  ...+.@.#.$.%.&.*.=.",
"-.;.>.,.'.).!.~.{.].^./.(._.:.",
"<.[.}.|.1.2.3.3.4.5.6.7.8.9.0.",
"a.b.c.d.e.f.g.g.h.i.j.k.l.m.:.",
"n.o.p.q.e.h.r.s.t.j.u.k.v.K w.",
"x.y.z.A.B.C.D.s.E.q.u.F.G.H.I.",
"J.K.z.L.M.N.O.D.P.Q.R.+.S.K T ",
"-.T.U.A.V.W.O.X.Y.Z.`. +.+K 0.",
"<.++@+,.#+$+s.s.P.%+Q.&+*+=+c ",
"-+;+>+,+'+)+!+~+{+]+^+/+(+_+:+",
"<+[+}+|+1+2+3+4+5+6+7+8+9+0+a+",
"b+c+d+e+f+g+h+i+j+k+l+m+n+o+o+",
"p+q+r+s+t+u+v+w+x+y+z+t+A+B+C+",
"D+E+E+F+G+H+I+J+K+L+M+N+N+O+O+",
"P+P+Q+R+S+S+S+T+U+V+R+W+X+Y+Y+",
"Z+`+ @.@+@@@#@$@%@.@&@*@=@-@;@",
". . . . . . . . . . . . . . . ",
"+ @ # $ % & * = - ; > , ' ) ) ",
"! ~ { ] ^ / ( _ : < [ } | 1 2 ",
"3 4 5 6 7 8 9 0 a b c d e f g ",
"h h i >@,@'@)@!@~@{@,@]@s t c ",
"u v ^@/@(@_@:@<@[@}@|@1@2@t G ",
"H a+3@4@5@6@7@8@7@9@0@a@b@c@V ",
"d@e@f@g@h@i@7@j@i@7@h@k@l@m@n@",
"o@p@q@r@s@t@g@u@v@7@w@x@y@p@z@",
"A@B@C@D@9@E@F@G@G@H@I@J@K@L@M@",
"N@O@P@Q@R@S@T@U@U@T@V@J@V@O@W@",
"X@Y@Z@R@`@ #.#+#+#.# #P@Z@@###",
"$#%#&#*#=#-#j@P@;#>#;#Z@,#'#)#",
"!#~#{#]#s@^#/#8@/#8@9@s@(#_#:#",
"8+<#[#Z@t@}#^#/#t@/#}#>#|#1#M@",
"J 2#3#4#5#8@/#/#/#/#6#u@7#8#9#",
"H+0#a#b#c#d#e#f#g#h#i#j#k#l#m#",
"<+n#o#p#q#r#s#t#u#v#w#x#y#z#a+",
"b+c+A#B#C#D#E#F#G#H#I#J#K#o+o+",
"p+q+r+s+L#M#N#O#P#M#Q#t+A+B+C+",
"D+E+E+F+G+H+I+J+K+L+M+N+N+O+O+",
"P+P+Q+R+S+S+S+T+U+V+R+W+X+Y+Y+",
"Z+`+ @.@+@@@#@$@%@.@&@*@=@-@;@"};
