/* XPM */
static char * taskbuttonactive_xpm[] = {
"159 25 129 2",
"  	c None",
". 	c #D4D0C8",
"+ 	c #D3CFC7",
"@ 	c #C9C5BE",
"# 	c #D5D1CA",
"$ 	c #C9C6BE",
"% 	c #414141",
"& 	c #474747",
"* 	c #4F4F4E",
"= 	c #E6E6E6",
"- 	c #D9D5CE",
"; 	c #828282",
"> 	c #8E8E8D",
", 	c #929292",
"' 	c #8F8E8D",
") 	c #929191",
"! 	c #8F8F8E",
"~ 	c #919190",
"{ 	c #908F8E",
"] 	c #919090",
"^ 	c #90908F",
"/ 	c #908F8F",
"( 	c #919191",
"_ 	c #8E8D8C",
": 	c #939393",
"< 	c #8D8D8C",
"[ 	c #939292",
"} 	c #8D8D8B",
"| 	c #929291",
"1 	c #8F8E8E",
"2 	c #909090",
"3 	c #939392",
"4 	c #C8C5BE",
"5 	c #F9F8F7",
"6 	c #E1DED9",
"7 	c #F1F0ED",
"8 	c #E3E0DB",
"9 	c #EFEEEB",
"0 	c #E5E3DE",
"a 	c #EDEBE8",
"b 	c #E7E5E0",
"c 	c #EBE9E6",
"d 	c #E9E7E3",
"e 	c #EBE9E5",
"f 	c #E7E5E1",
"g 	c #EFEDEA",
"h 	c #E3E1DC",
"i 	c #F0EFEC",
"j 	c #E2DFD9",
"k 	c #F2F1EF",
"l 	c #E0DDD7",
"m 	c #F4F3F1",
"n 	c #DEDBD4",
"o 	c #F6F5F3",
"p 	c #F3F2F0",
"q 	c #DFDCD6",
"r 	c #F5F4F2",
"s 	c #DDDAD4",
"t 	c #DEDBD5",
"u 	c #F2F1EE",
"v 	c #E2DFDA",
"w 	c #E4E1DC",
"x 	c #EEECE9",
"y 	c #E6E4DF",
"z 	c #ECEAE7",
"A 	c #E8E6E1",
"B 	c #EAE8E4",
"C 	c #E8E6E2",
"D 	c #ECEAE6",
"E 	c #E6E4E0",
"F 	c #E4E2DD",
"G 	c #F0EEEB",
"H 	c #F1F0EE",
"I 	c #E1DED8",
"J 	c #F5F4F3",
"K 	c #E0DDD8",
"L 	c #F3F2EF",
"M 	c #DAD7D0",
"N 	c #E5E2DD",
"O 	c #EDECE9",
"P 	c #EBEAE6",
"Q 	c #E1DFD9",
"R 	c #F3F1EF",
"S 	c #E0DED8",
"T 	c #F2F0EE",
"U 	c #EEEDEA",
"V 	c #E6E3DE",
"W 	c #E8E5E1",
"X 	c #D6D2CA",
"Y 	c #8E8D8D",
"Z 	c #E3E1DB",
"` 	c #EAE8E5",
" .	c #EDECE8",
"..	c #F1EFEC",
"+.	c #E2E0DA",
"@.	c #F0EEEC",
"#.	c #E9E7E2",
"$.	c #EDEBE7",
"%.	c #E6E3DF",
"&.	c #DAD6CF",
"*.	c #E5E2DE",
"=.	c #ECEBE7",
"-.	c #F1EFED",
";.	c #EEEDE9",
">.	c #E7E4E0",
",.	c #D6D3CB",
"'.	c #D9D6CF",
").	c #EAE9E5",
"!.	c #E9E6E2",
"~.	c #D7D3CC",
"{.	c #D8D4CD",
"].	c #E9E8E4",
"^.	c #EAE7E3",
"/.	c #EAE7E4",
"(.	c #D8D5CD",
"_.	c #D7D4CC",
":.	c #D7D3CB",
"<.	c #D6D2CB",
"[.	c #4F4E4E",
"}.	c #CAC7C0",
"|.	c #D5D2CA",
"1.	c #D8D5CE",
"2.	c #D5D1C9",
"3.	c #DAD6D0",
"4.	c #D4D1C9",
"5.	c #D9D6CE",
"6.	c #EBEBEB",
"7.	c #FAFAF9",
"8.	c #FEFEFE",
". . . . . . . . . . . . . . . . . . . . . . . . . . . . . . . . . . . . . . . . . . . . . . . . . . . . . . . . . . . . . . . . . . . . . . . . . . . . . . . . . . . . . . . . . . . . . . . . . . . . . . . . . . . . . . . . . . . . . . . . . . . . . . . . . . . . . . . . . . . . . . . . . . . . . . . . . . . . . . . ",
". + @ @ @ @ @ @ @ @ @ @ @ @ @ @ @ @ @ @ @ @ @ @ @ @ @ @ @ @ @ @ @ @ @ @ @ @ @ @ @ @ @ @ @ @ @ @ @ @ @ @ @ @ @ @ @ @ @ @ @ @ @ @ @ @ @ @ @ @ @ @ @ @ @ @ @ @ @ @ @ @ @ @ @ @ @ @ @ @ @ @ @ @ @ @ @ @ @ @ @ @ @ @ @ @ @ @ @ @ @ @ @ @ @ @ @ @ @ @ @ @ @ @ @ @ @ @ @ @ @ @ @ @ @ @ @ @ @ @ @ @ @ @ @ @ @ @ @ @ @ @ @ @ @ # . . . ",
". $ % & & & & & & & & & & & & & & & & & & & & & & & & & & & & & & & & & & & & & & & & & & & & & & & & & & & & & & & & & & & & & & & & & & & & & & & & & & & & & & & & & & & & & & & & & & & & & & & & & & & & & & & & & & & & & & & & & & & & & & & & & & & & & & & & & & & & & & & & & & & & & & & & & & & & & & & * = - . . ",
". $ & ; > , ' ) ! ~ { ] ^ ^ ] / ~ ! ( ' , > , _ : < : < : _ , > , ' ( ! ~ / ] ^ ^ ] { ~ ! ) ' , > [ _ : } : < : _ , > | 1 ( ! ~ / 2 ^ ^ ~ ! ( ! | > , _ 3 _ : } : _ 3 _ , > | ! ( ! ~ ^ ^ 2 / ~ ! ( 1 | > , _ : < : } : _ [ > , ' ) ! ~ { ] ^ ^ ] / ~ ! ( ' , > , _ : < : < : _ , > , ' ( ! ~ / ] ^ ^ ] { ~ ! ) ' , 4 5 - . . ",
". $ & < 6 7 8 9 0 a b c d d e f a 0 g h i j k l m n o n m l k j i h g 0 a f e d d c b a 0 9 8 7 6 p q r s o t m l u v i w x y z A B B C D E x F G 8 H I p q J s J q p I H 8 G F x E D C B B A z y x w i v u K m t o s r q L 6 7 8 9 0 a b c d d e f a 0 g h i j k l m n o n m l k j i h g 0 a f e d d c b a 0 9 8 7 M 5 - . . ",
". $ & ( 7 8 9 N O y D C B B C P b a 0 g h i v k l m q m l k v i h g 0 a b P C B B C D y O N 9 8 7 Q R l m q p S T v i w U V a f e d d e W z y x F G 8 7 I p q m q p I 7 8 G F x y z W e d d e f a V U w i v T S p q m l R Q 7 8 9 N O y D C B B C P b a 0 g h i v k l m q m l k v i h g 0 a b P C B B C D y O N 9 8 X 5 - . . ",
". $ & Y Z 9 N x y z W e d d ` A D E  .0 g w i v T I L I T v i w g 0  .E D A ` d d e W z y x N 9 Z ..v u K L 6 7 +.@.w U 0 a b P C B B #.c b $.%.x F 9 8 7 Q k K k Q 7 8 9 F x %.$.b c #.B B C P b a 0 U w @.+.7 6 L K u v ..Z 9 N x y z W e d d ` A D E  .0 g w i v T I L I T v i w g 0  .E D A ` d d e W z y x N 9 &.5 - . . ",
". $ & ] g *.x y =.f c C B B d e W z y  .0 U w G 8 7 v 7 8 G w U 0  .y z W e d B B C c f =.y x *.g w i +.7 v -.8 9 F ;.0 a >.D A e d d B C P b a %.x N 9 h i v 7 v i h 9 N x %.a b P C B d d e A D >.a 0 ;.F 9 8 -.v 7 +.i w g *.x y =.f c C B B d e W z y  .0 U w G 8 7 v 7 8 G w U 0  .y z W e d B B C c f =.y x *.,.5 - . . ",
". $ & > 0  .y =.f c C ` d d B C e f z E a V x N g w G w g N x V a E z f c C B d d ` C c f =.y  .0 U F 9 h G w g *.x %.a >.D A e #.B B d e C D b $.y O 0 U F 9 h 9 F U 0 O y $.b D C e d B B #.e A D >.a %.x *.g w G h 9 F U 0  .y =.f c C ` d d B C e f z E a V x N g w G w g N x V a E z f c C B d d ` C c f =.y  .'.5 - . . ",
". $ & ^ a >.z f c C ).d B B d ` C e W D b =.y  .0 x *.x 0  .y =.b D W e C ` d B B d ).C c f z >.a y  .0 ;.*.x %.a y =.b D A e !.B d d B #.e C P f z >.a %.x 0 ;.0 x %.a >.z f P C e #.B d d B !.e A D b =.y a %.x *.;.0  .y a >.z f c C ).d B B d ` C e W D b =.y  .0 x *.x 0  .y =.b D W e C ` d B B d ).C c f z >.~.5 - . . ",
". $ & ! f P A e C ` d B d d B d B C e C c W D b z >.$.>.z b D W c C e C B d B d d B d ` C e A P f D b =.E $.>.z f D W c C e #.B d B B d B #.e C e A P f z b =.E =.b z f P A e C e d B d B B d B #.e C c W D f z >.$.E =.b D f P A e C ` d B d d B d B C e C c W D b z >.$.>.z b D W c C e C B d B d d B d ` C e A P - 5 - . . ",
". $ & / e !.` d B d B d B B d B d B d B #.).C e C e C e C e C ).#.B d B d B d B B d B d B d ` !.e C e C e C e C e C ).#.B d B d B d d B d B d B d ` !.e C e C e C e C e !.` d B d B d B d d B d B d B #.).C e C e C e C e C e !.` d B d B d B B d B d B d B #.).C e C e C e C e C ).#.B d B d B d B B d B d B d ` !.{.5 - . . ",
". $ & ! B B B B B B B B B B B B B ].B B B B B B d B B B B B B B B B B B B B B B B B B B B B B B B B B ^.B B B B B B B B B B B B B B B B B B ].B B B B B B /.B B B B B B B B B B B B B B B ].B B B B B B B B B B ^.B B B B B B B B B B B B B B B B B B ].B B B B B B d B B B B B B B B B B B B B B B B B B B B B B B {.5 - . . ",
". $ & ! C ).#.B d B d B d d B d B d B d ` !.e C e C e C e C e !.` d B d B d B d d B d B d B #.).C e C e C e C e C e !.` d B d B d B B d B d B d B #.).C e C e C e C e C ).#.B d B d B d B B d B d B d ` !.e C e C e C e C e C ).#.B d B d B d d B d B d B d ` !.e C e C e C e C e !.` d B d B d B d d B d B d B #.).(.5 - . . ",
". $ & ^ D W c C e #.B d B B d B #.e C e A P f z b =.E =.b z f P A e C e #.B d B B d B #.e C c W D b z >.$.E =.b z f P A e C ` d B d d B d B C e C c W D b z >.$.>.z b D W c C e C ` d B d d B d ` C e A P f z b =.E $.>.z b D W c C e #.B d B B d B #.e C e A P f z b =.E =.b z f P A e C e #.B d B B d B #.e C c W _.5 - . . ",
". $ & 1 y =.b D A e !.B d d B #.e C P f z >.a %.x 0 ;.0 x %.a >.z f P C e #.B d d B !.e A D b =.y a %.x *.;.0  .y a >.z f c C ).d B B d ` C e W D b =.y  .0 x *.x 0  .y =.b D W e C ` d B B d ).C c f z >.a y  .0 ;.*.x %.a y =.b D A e !.B d d B #.e C P f z >.a %.x 0 ;.0 x %.a >.z f P C e #.B d d B !.e A D b =.- 5 - . . ",
". $ & 2 x %.a >.D A e #.B B d e A D b $.y O 0 U F 9 h 9 F U 0 O y $.b D C e d B B #.e A D >.a %.x *.g w G h 9 F U 0  .y =.f c C ` d d B C e f z E a V x N g w G w g N x V a E z f c C B d d ` C c f =.y  .0 U F 9 h G w g *.x %.a >.D A e #.B B d e A D b $.y O 0 U F 9 h 9 F U 0 O y $.b D C e d B B #.e A D >.a %.:.5 - . . ",
". $ & > F ;.0 a >.D A e d d B C P b a %.x N 9 h i v 7 v i h 9 N x %.a b P C B d d e A D >.a 0 ;.F 9 8 -.v 7 +.i w g *.x y =.f c C B B d e W z y  .0 U w G 8 7 v 7 8 G w U 0  .y z W e d B B C c f =.y x *.g w i +.7 v -.8 9 F ;.0 a >.D A e d d B C P b a %.x N 9 h i v 7 v i h 9 N x %.a b P C B d d e A D >.a 0 ;.'.5 - . . ",
". $ & ~ @.w U 0 a b P C B B #.c b $.%.x F 9 8 7 Q k K k Q 7 8 9 F x %.$.b c #.B B C P b a 0 U w @.+.7 6 L K u v -.Z 9 N x y z W e d d ` A D E  .0 g w i v T I L I T v i w g 0  .E z A ` d d e W z y x N 9 Z -.v u K L 6 7 +.@.w U 0 a b P C B B #.c b $.%.x F 9 8 7 Q k K k Q 7 8 9 F x %.$.b c #.B B C P b a 0 U w <.5 - . . ",
". $ & _ v i w U V a f e d d e W z y x F G 8 7 I p q m q p I 7 8 G F x y z W e d d e f a V U w i v T S p q m l R Q 7 8 9 N O y D C B B C P b a 0 g h i v k l m q m l k v i h g 0 a b P C B B C D y O N 9 8 7 Q R l m q p S T v i w U V a f e d d e W z y x F G 8 7 I p q m q p I 7 8 G F x y z W e d d e f a V U w i M 5 - . . ",
". $ & ( u v i w x y z A B B C D y x F G 8 H I p q J s J q p I H 8 G F x E D C B B A z y x w i v u l m t o s r q p 6 7 8 9 0 a b c d d e f $.0 g h i j k l m n o n m l k j i h g 0 a f e d d c b a 0 9 8 7 6 p q r s o t m K u v i w x y z A B B C D y x F G 8 H I p q J s J q p I H 8 G F x E D C B B A z y x w i v X 5 - . . ",
". $ [.}.'.|.- X 1.,.{.~._._.~.{.:.1.<.- X '.2.&.2.M . M 2.&.2.'.X - <.1.:.{.~._._.~.{.,.1.X - |.'.2.3.4.M . M 2.&.# '.X - <.(.:.{.~._.{.~.{.<.- X 5.# &.2.M . M . M 2.&.# 5.X - <.{.~.{._.~.{.:.(.<.- X '.# &.2.M . M 4.3.2.'.|.- X 1.,.{.~._._.~.{.:.1.<.- X '.2.&.2.M . M 2.&.2.'.X - <.1.:.{.~._._.~.{.,.1.X - |.. 5 - . . ",
". X 6.7.7.7.7.7.7.7.7.7.7.7.7.7.7.7.7.7.7.7.7.7.7.7.7.7.7.7.7.7.7.7.7.7.7.7.7.7.7.7.7.7.7.7.7.7.7.7.7.7.7.7.7.7.7.7.7.7.7.7.7.7.7.7.7.7.7.7.7.7.7.7.7.7.7.7.7.7.7.7.7.7.7.7.7.7.7.7.7.7.7.7.7.7.7.7.7.7.7.7.7.7.7.7.7.7.7.7.7.7.7.7.7.7.7.7.7.7.7.7.7.7.7.7.7.7.7.7.7.7.7.7.7.7.7.7.7.7.7.7.7.7.7.7.7.7.7.7.7.7.7.7.7.8.- . . ",
". . _._._._._._._._._._._._._._._._._._._._._._._._._._._._._._._._._._._._._._._._._._._._._._._._._._._._._._._._._._._._._._._._._._._._._._._._._._._._._._._._._._._._._._._._._._._._._._._._._._._._._._._._._._._._._._._._._._._._._._._._._._._._._._._._._._._._._._._._._._._._._._._._._._._._._._._._._._.. . . ",
". . . . . . . . . . . . . . . . . . . . . . . . . . . . . . . . . . . . . . . . . . . . . . . . . . . . . . . . . . . . . . . . . . . . . . . . . . . . . . . . . . . . . . . . . . . . . . . . . . . . . . . . . . . . . . . . . . . . . . . . . . . . . . . . . . . . . . . . . . . . . . . . . . . . . . . . . . . . . . . "};
