/* XPM */
static char * lxappearance_16x16_xpm[] = {
"16 16 152 2",
"  	c None",
". 	c #3B5B86",
"+ 	c #204A87",
"@ 	c #6B89AF",
"# 	c #839FC2",
"$ 	c #809BBD",
"% 	c #7A97BB",
"& 	c #7091B8",
"* 	c #4673AA",
"= 	c #395987",
"- 	c #214A86",
"; 	c #204A86",
"> 	c #87A7CD",
", 	c #1A345B",
"' 	c #15315A",
") 	c #15315B",
"! 	c #668AB6",
"~ 	c #4D6688",
"{ 	c #295086",
"] 	c #7A9FCA",
"^ 	c #30558E",
"/ 	c #608DBF",
"( 	c #506C91",
"_ 	c #1B3D6F",
": 	c #1B3E71",
"< 	c #395E8F",
"[ 	c #5287C2",
"} 	c #3F6CA6",
"| 	c #82A9D2",
"1 	c #335686",
"2 	c #87ABD3",
"3 	c #385C92",
"4 	c #5080B7",
"5 	c #6C98CA",
"6 	c #98B7D9",
"7 	c #9BB9DB",
"8 	c #80A8D3",
"9 	c #407ABB",
"0 	c #4471A9",
"a 	c #7BA4D1",
"b 	c #446086",
"c 	c #95B4D7",
"d 	c #5273A2",
"e 	c #5582B7",
"f 	c #5082BB",
"g 	c #4D5D93",
"h 	c #5C5888",
"i 	c #4874AF",
"j 	c #477BB7",
"k 	c #4874AB",
"l 	c #739AC9",
"m 	c #5B6E85",
"n 	c #9BB3D1",
"o 	c #7797BE",
"p 	c #3E6191",
"q 	c #6C6F99",
"r 	c #5F4773",
"s 	c #633F6B",
"t 	c #606191",
"u 	c #295490",
"v 	c #608ABC",
"w 	c #6A91C0",
"x 	c #757E85",
"y 	c #C4CFDE",
"z 	c #A0B4CC",
"A 	c #8EA8C6",
"B 	c #6B5A7A",
"C 	c #64486A",
"D 	c #65476C",
"E 	c #654E77",
"F 	c #6188B7",
"G 	c #5C84B4",
"H 	c #658BB8",
"I 	c #838785",
"J 	c #DDE0E5",
"K 	c #C2C9D3",
"L 	c #B0BCCC",
"M 	c #6C6376",
"N 	c #6C5B6F",
"O 	c #6D5971",
"P 	c #665476",
"Q 	c #688AB4",
"R 	c #6286B2",
"S 	c #6B8DB9",
"T 	c #254D86",
"U 	c #858885",
"V 	c #E2E3E5",
"W 	c #D0D2D4",
"X 	c #C8CCD1",
"Y 	c #73727A",
"Z 	c #766F76",
"` 	c #766B77",
" .	c #6D6278",
"..	c #88A0BE",
"+.	c #7D98BA",
"@.	c #839FC3",
"#.	c #305486",
"$.	c #E3E4E5",
"%.	c #D2D3D5",
"&.	c #D2D3D4",
"*.	c #7A7A7C",
"=.	c #828381",
"-.	c #817F7F",
";.	c #74727B",
">.	c #B0BBCA",
",.	c #A5B4C7",
"'.	c #AEBFD5",
").	c #4A6486",
"!.	c #7A8185",
"~.	c #DDE0E3",
"{.	c #D1D3D4",
"].	c #D3D4D5",
"^.	c #7B7E7E",
"/.	c #888985",
"(.	c #858783",
"_.	c #7A7D7E",
":.	c #C9CDD2",
"<.	c #C5CAD0",
"[.	c #D4DBE5",
"}.	c #6C7985",
"|.	c #6D7985",
"1.	c #D6DAE0",
"2.	c #CED0D3",
"3.	c #7D7F80",
"4.	c #8C8E89",
"5.	c #898B86",
"6.	c #7E8080",
"7.	c #D1D2D4",
"8.	c #E9EBED",
"9.	c #7F8485",
"0.	c #647485",
"a.	c #D3DAE2",
"b.	c #E4E7EA",
"c.	c #EDEEF0",
"d.	c #8C8D89",
"e.	c #7E8180",
"f.	c #E6E7E7",
"g.	c #ECEDEE",
"h.	c #EFF0F1",
"i.	c #848785",
"j.	c #637385",
"k.	c #737D85",
"l.	c #7C8285",
"m.	c #808185",
"n.	c #9C9C9B",
"o.	c #989896",
"p.	c #7C7F80",
"q.	c #828685",
"r.	c #828083",
"s.	c #5C5C61",
"t.	c #636468",
"u.	c #848283",
"        . + + + + + + +         ",
"        + @ # $ % & * +         ",
"    = - ; > , ' ) ' ! + + ~     ",
"    { ] ^ / ( _ : < [ } | +     ",
"    1 2 3 4 5 6 7 8 9 0 a +     ",
"    b c d e f g h i j k l +     ",
"    m n o p q r s t u v w +     ",
"    x y z A B C D E F G H -     ",
"    I J K L M N O P Q R S T     ",
"    U V W X Y Z `  ...+.@.#.    ",
"    I $.%.&.*.=.-.;.>.,.'.).    ",
"    !.~.{.].^./.(._.:.<.[.}.    ",
"    |.1.2.%.3.4.5.6.%.7.8.9.    ",
"    0.a.b.c.3.d.5.e.f.g.h.i.    ",
"    j.k.l.9.m.n.o.p.U U U q.    ",
"            r.s.t.u.            "};
