/* XPM */
static char * taskbuttonbg_xpm[] = {
"1 24 24 1",
" 	c None",
".	c #7FDCFF",
"+	c #55CFFF",
"@	c #04AEFF",
"#	c #0696FD",
"$	c #028FFC",
"%	c #008BFC",
"&	c #088BFB",
"*	c #048AFC",
"=	c #0088FD",
"-	c #028AFC",
";	c #028BFD",
">	c #008BFD",
",	c #008EFE",
"'	c #008FFE",
")	c #0293FE",
"!	c #0497FF",
"~	c #069CFF",
"{	c #08A4FF",
"]	c #08ADFF",
"^	c #00B1FE",
"/	c #00AAFF",
"(	c #0A99FF",
"_	c #0664FB",
".",
"+",
"@",
"#",
"$",
"%",
"&",
"*",
"=",
"-",
";",
";",
">",
",",
"'",
")",
"!",
"~",
"{",
"]",
"^",
"/",
"(",
"_"};
