/* XPM */
static char * file_roller_16x16_xpm[] = {
"16 16 141 2",
"  	c None",
". 	c #535857",
"+ 	c #F3F3F2",
"@ 	c #80817D",
"# 	c #898A86",
"$ 	c #A4A5A2",
"% 	c #72736F",
"& 	c #71726F",
"* 	c #515555",
"= 	c #686A65",
"- 	c #6A6C67",
"; 	c #B4B5B2",
"> 	c #9FA09D",
", 	c #9D9E9B",
"' 	c #8A8A87",
") 	c #BDBEBC",
"! 	c #545856",
"~ 	c #3D4243",
"{ 	c #393E3E",
"] 	c #3F4444",
"^ 	c #3F4445",
"/ 	c #6F706C",
"( 	c #9C9D99",
"_ 	c #767773",
": 	c #C0C2C0",
"< 	c #898A87",
"[ 	c #747571",
"} 	c #9A9B98",
"| 	c #5D5F59",
"1 	c #888A85",
"2 	c #7A7C77",
"3 	c #979894",
"4 	c #737470",
"5 	c #9FA19D",
"6 	c #C3C4C3",
"7 	c #949691",
"8 	c #A7A8A5",
"9 	c #B3B4B2",
"0 	c #B1B2B0",
"a 	c #B8B8B7",
"b 	c #7A7A77",
"c 	c #868785",
"d 	c #D7D7D7",
"e 	c #FAFAFA",
"f 	c #969894",
"g 	c #B1B2AF",
"h 	c #CDCDCC",
"i 	c #E2E2E2",
"j 	c #878985",
"k 	c #72746F",
"l 	c #71736E",
"m 	c #274B76",
"n 	c #2C568A",
"o 	c #2D588D",
"p 	c #2F5D95",
"q 	c #D9D9D6",
"r 	c #DBDBD7",
"s 	c #DCDCD9",
"t 	c #949692",
"u 	c #BCBCBA",
"v 	c #EAEAEA",
"w 	c #777974",
"x 	c #9E9F9C",
"y 	c #999A96",
"z 	c #325E93",
"A 	c #BFD3EB",
"B 	c #B6CCE8",
"C 	c #B9CEE9",
"D 	c #4C83C6",
"E 	c #2C578C",
"F 	c #91928D",
"G 	c #9D9E9A",
"H 	c #757772",
"I 	c #8F908D",
"J 	c #BEBFBD",
"K 	c #989995",
"L 	c #2B4F7C",
"M 	c #ADC6E5",
"N 	c #99B8DF",
"O 	c #AFC7E5",
"P 	c #9BB9DF",
"Q 	c #33639F",
"R 	c #939591",
"S 	c #C4C4C2",
"T 	c #797B76",
"U 	c #848582",
"V 	c #9E9E9D",
"W 	c #757674",
"X 	c #676A66",
"Y 	c #2B4A70",
"Z 	c #92B3DC",
"` 	c #79A2D5",
" .	c #78A1D4",
"..	c #76A0D4",
"+.	c #7F817C",
"@.	c #7D7F7A",
"#.	c #737471",
"$.	c #7B7C78",
"%.	c #5D5F5B",
"&.	c #2C4561",
"*.	c #5287C7",
"=.	c #6392CD",
"-.	c #588BCA",
";.	c #578AC9",
">.	c #3364A1",
",.	c #7E7E77",
"'.	c #8A7D64",
").	c #81837E",
"!.	c #82847F",
"~.	c #595B54",
"{.	c #444A49",
"].	c #3668A5",
"^.	c #4A81C6",
"/.	c #3C76BE",
"(.	c #3C75BC",
"_.	c #3B74BB",
":.	c #6191CD",
"<.	c #305F98",
"[.	c #A3A5A0",
"}.	c #A5A7A3",
"|.	c #898B86",
"1.	c #3D77BE",
"2.	c #394652",
"3.	c #33619A",
"4.	c #5D8ECB",
"5.	c #5488C8",
"6.	c #4980C5",
"7.	c #3B73B9",
"8.	c #3D78C1",
"9.	c #407AC2",
"0.	c #447DC3",
"a.	c #407AC1",
"b.	c #363E43",
"c.	c #274466",
"d.	c #23456F",
"e.	c #254873",
"f.	c #254872",
"g.	c #2A486D",
"h.	c #2D4B6E",
"i.	c #31547E",
"j.	c #3B4C5E",
"            . . . . . . . .     ",
"          . + @ @ @ @ # $ . %   ",
"        & * $ = = = - - ; > , % ",
"      ' ) ! ~ { { { { ] ^ / ( % ",
"      _ : <               [ } [ ",
"    | 1 1 1 1 1 1 1 1 1 1 2 3 4 ",
"    5 6 7 7 7 7 8 9 9 0 a b ( [ ",
"  c d 5 e e e e f g h i j k ( l ",
"m n o o p q r s t u v l w x y 4 ",
"z A B C D n n E F G i H I J K 4 ",
"L M N N O P P N Q R S T U V W X ",
"Y Z ` `  . .....p +.0 @.@.#.$.%.",
"&.*.=.-.-.-.;.;.>.,.'., ).!.5 ~.",
"{.].^./.(._._._.:.<.<.< [.}.|.1.",
"  2.3.4.5.6.^.6.6.7.(.8.9.9.0.a.",
"    b.c.d.d.d.d.d.d.e.f.g.h.i.j."};
