/* XPM */
static char * xpdf_32x32[] = {
"32 32 222 2",
"  	c None",
". 	c #000000",
"+ 	c #540000",
"@ 	c #E40000",
"# 	c #E90000",
"$ 	c #D80000",
"% 	c #300000",
"& 	c #0D0000",
"* 	c #B20000",
"= 	c #4C0000",
"- 	c #F30000",
"; 	c #FF0000",
"> 	c #EE0000",
", 	c #3E0000",
"' 	c #150000",
") 	c #C70000",
"! 	c #F20000",
"~ 	c #360000",
"{ 	c #E70000",
"] 	c #F50000",
"^ 	c #500000",
"/ 	c #200000",
"( 	c #D60000",
"_ 	c #E50000",
": 	c #350000",
"< 	c #220000",
"[ 	c #FA0000",
"} 	c #630000",
"| 	c #161616",
"1 	c #432E2E",
"2 	c #E20606",
"3 	c #FF1A1A",
"4 	c #FF4A4A",
"5 	c #E23838",
"6 	c #210000",
"7 	c #130000",
"8 	c #C10000",
"9 	c #FD0000",
"0 	c #780000",
"a 	c #827C7C",
"b 	c #FFFFFF",
"c 	c #EB3A3A",
"d 	c #FF3838",
"e 	c #FFF5F5",
"f 	c #FCFCFC",
"g 	c #C5C5C5",
"h 	c #090000",
"i 	c #A70000",
"j 	c #8F0000",
"k 	c #020000",
"l 	c #4B0000",
"m 	c #F47C7C",
"n 	c #EA3C3C",
"o 	c #FF7777",
"p 	c #686868",
"q 	c #141414",
"r 	c #191919",
"s 	c #2D2D2D",
"t 	c #050303",
"u 	c #AF3434",
"v 	c #FF6868",
"w 	c #FF5A5A",
"x 	c #FF1919",
"y 	c #A30000",
"z 	c #060000",
"A 	c #030303",
"B 	c #3F3F3F",
"C 	c #696969",
"D 	c #7D5656",
"E 	c #FA0F0F",
"F 	c #FF7C7C",
"G 	c #FF2525",
"H 	c #F09090",
"I 	c #5F5F5F",
"J 	c #212121",
"K 	c #878787",
"L 	c #FAFAFA",
"M 	c #AFAFAF",
"N 	c #EDEDED",
"O 	c #FFF7F7",
"P 	c #FD6969",
"Q 	c #B91616",
"R 	c #C7C7C7",
"S 	c #FEFEFE",
"T 	c #F3F2F2",
"U 	c #F5F2F2",
"V 	c #FEE7E7",
"W 	c #FDACAC",
"X 	c #E63C3C",
"Y 	c #EDC3C3",
"Z 	c #FDFDFD",
"` 	c #C6C6C6",
" .	c #E2E2E2",
"..	c #3E3E3E",
"+.	c #0C0C0C",
"@.	c #471F1F",
"#.	c #F0B6B6",
"$.	c #FEFCFC",
"%.	c #F83A3A",
"&.	c #FFABAB",
"*.	c #DB7E7E",
"=.	c #F11616",
"-.	c #F60E0E",
";.	c #F66666",
">.	c #FFFDFD",
",.	c #5A3C3C",
"'.	c #0F0F0F",
").	c #858585",
"!.	c #4D4D4D",
"~.	c #6A6A6A",
"{.	c #402727",
"].	c #F09F9F",
"^.	c #FF0F0F",
"/.	c #FFF8F8",
"(.	c #E7CCCC",
"_.	c #FC0404",
":.	c #FFBFBF",
"<.	c #3C3C3C",
"[.	c #777777",
"}.	c #3B3B3B",
"|.	c #313131",
"1.	c #EDC2C2",
"2.	c #FF2828",
"3.	c #E9A3A3",
"4.	c #AA8C8C",
"5.	c #282828",
"6.	c #0D0D0D",
"7.	c #E8B8B8",
"8.	c #FF1717",
"9.	c #EDA8A8",
"0.	c #960000",
"a.	c #8D8A8A",
"b.	c #5C5C5C",
"c.	c #585858",
"d.	c #E38080",
"e.	c #FF0202",
"f.	c #FFD3D3",
"g.	c #F6E1E1",
"h.	c #FD0707",
"i.	c #F7C9C9",
"j.	c #E9E9E9",
"k.	c #5A5A5A",
"l.	c #252525",
"m.	c #565656",
"n.	c #EDE7E7",
"o.	c #EE1E1E",
"p.	c #FE5555",
"q.	c #FDA5A5",
"r.	c #FF3030",
"s.	c #FF3232",
"t.	c #FFA2A2",
"u.	c #3D3C3C",
"v.	c #9E9E9E",
"w.	c #F3F3F3",
"x.	c #FBFBFB",
"y.	c #E4D1D1",
"z.	c #706565",
"A.	c #E7DEDE",
"B.	c #E69999",
"C.	c #F0F0F0",
"D.	c #BE3B3B",
"E.	c #1F0000",
"F.	c #6D6D6D",
"G.	c #393939",
"H.	c #323232",
"I.	c #531111",
"J.	c #E63131",
"K.	c #E92626",
"L.	c #FB0707",
"M.	c #B30000",
"N.	c #0B0000",
"O.	c #090909",
"P.	c #2F2B2B",
"Q.	c #BA2E2E",
"R.	c #F70D0D",
"S.	c #FE0202",
"T.	c #F90A0A",
"U.	c #FD0303",
"V.	c #340303",
"W.	c #8C3232",
"X.	c #F90000",
"Y.	c #9C0000",
"Z.	c #050000",
"`.	c #110000",
" +	c #C50000",
".+	c #F10000",
"++	c #480000",
"@+	c #EA3232",
"#+	c #FE0000",
"$+	c #810000",
"%+	c #010000",
"&+	c #0A0000",
"*+	c #B60000",
"=+	c #080000",
"-+	c #A40E0E",
";+	c #EC2626",
">+	c #680000",
",+	c #A50000",
"'+	c #7E0000",
")+	c #140000",
"!+	c #BF0000",
"~+	c #930000",
"{+	c #240000",
"]+	c #D70000",
"^+	c #EB0000",
"/+	c #3C0000",
"(+	c #800000",
"_+	c #0E0000",
":+	c #3A0000",
"<+	c #E80000",
"[+	c #DE0000",
"}+	c #2A0000",
"|+	c #6D0000",
"1+	c #FB0000",
"2+	c #CD0000",
"3+	c #1A0000",
"4+	c #D10000",
"5+	c #DB0000",
"6+	c #1C0000",
"7+	c #5B0000",
"8+	c #DA0000",
"9+	c #BA0000",
". . . . . . . . . . . . . . . . . . . . . . . . . . . . . . . . ",
". . . . . . . . . . . . . . . . . . . . . . . . . . . . . . . . ",
". . . . . . . . . . . . . . . . . . . . . . . . . . . . . . . . ",
". . . . . . . . . . . . . . . . . . . . . . . . . . . . . . . . ",
". . . . . . . . . . . . . . . . . . . . . . . . . . . . . . . . ",
"+ @ # # # # $ % . . . . . . . . . . . . . . . . & * # # # # @ + ",
". = - ; ; ; ; > , . . . . . . . . . . . . . . ' ) ; ; ; ; ! = . ",
". . ~ { ; ; ; ; ] ^ . . . . . . . . . . . . / ( ; ; ; ; _ : . . ",
". . . < ( ; ; ; ; [ } . . . . . . . . . | 1 2 ; ; 3 4 5 6 . . . ",
". . . . 7 8 ; ; ; ; 9 0 . . . . . . . . a b c ; d e f g . . . . ",
". . . . . h i ; ; ; ; ; j k . . . . . l m b n ; o b p q . . . . ",
". . . . r s t u v w x ; ; y z A B C D E F b n G H b I J . . . . ",
". . . . K L M L N L O P ; ; Q R S T U V W b X Y Z b f ` . . . . ",
". . . . K b  ...+.@.#.$.%.; &.f *.=.-.;.>.b ,.'.).b !.| . . . . ",
". . . . K b ~.. . . {.b ].^./.(._.; ; ; :.b <.. [.b }.. . . . . ",
". . . . K S |.. . . A b 1.2.b 3.; ; ; ( 4.b <.. [.b }.. . . . . ",
". . . . K Z 5.. . . 6.b 7.8.>.9.; ; ; 0.a.b <.. [.b }.. . . . . ",
". . . . K b b.. . . c.b d.e.f.g.h.; ; e.i.b <.. [.b }.. . . . . ",
". . . . K b j.k.l.m.j.n.o.; p.>.q.r.s.t.Z b u.. [.b }.. . . . . ",
". . . . K b v.w.b x.y.X ; ; ) z.j.b S A.B.C.D.E.F.C.G.. . . . . ",
". . . . K b H.I.J.K.L.; ; M.N.. O.P.Q.R.S.T.U._ V.O.A . . . . . ",
". . . . K b W.X.; ; ; ; Y.Z.. . . . `. +; ; ; ; .+++. . . . . . ",
". . . . ).Z @+; ; ; #+$+%+. . . . . . &+*+; ; ; ; X.} . . . . . ",
". . . =+-+;+T.; ; [ >+. . . . . . . . . Z.,+; ; ; ; #+'+k . . . ",
". . )+!+; ; ; ; ] ^ . . . . . . . . . . . k ~+; ; ; ; ; Y.z . . ",
". {+]+; ; ; ; ^+/+. . . . . . . . . . . . . %+(+#+; ; ; ; *+_+. ",
":+<+; ; ; ; [+}+. . . . . . . . . . . . . . . . |+1+; ; ; ; 2+3+",
"4+5+5+5+5+!+6+. . . . . . . . . . . . . . . . . . 7+8+5+5+5+5+9+",
". . . . . . . . . . . . . . . . . . . . . . . . . . . . . . . . ",
". . . . . . . . . . . . . . . . . . . . . . . . . . . . . . . . ",
". . . . . . . . . . . . . . . . . . . . . . . . . . . . . . . . ",
". . . . . . . . . . . . . . . . . . . . . . . . . . . . . . . . "};
