/* XPM */
static char * hideI_xpm[] = {
"20 42 6 1",
" 	c None",
".	c #CFCFCF",
"+	c #000000",
"@	c #656565",
"#	c #FFFFFF",
"c	c #9a9a9a",
"....................",
"....................",
"....................",
"......+++++++++++...",
"......+@@@@@@@@@@#..",
"......+@#######+@#..",
"......+@#......+@#..",
"......+@#......+@#..",
"..+++++@#......+@#..",
"..+@@@@@#......+@#..",
"..+@##+@++++++++@#..",
"..+@#.+@@@@@@@@@@#..",
"..+@#..###########..",
"..+@#......+@#......",
"..+@#......+@#......",
"..+@++++++++@#......",
"..+@@@@@@@@@@#......",
"...###########......",
"....................",
"....................",
"@@@@@@@@@@@@@@@@@@@@",
"....................",
"....................",
"....................",
"......+++++++++++...",
"......+++++++++++#..",
"......++ccccccc++#..",
"......++ccccccc++#..",
"......++ccccccc++#..",
"..++++++ccccccc++#..",
"..++++++ccccccc++#..",
"..++cc+++++++++++#..",
"..++cc+++++++++++#..",
"..++cc############..",
"..++ccccccc++#......",
"..++ccccccc++#......",
"..+++++++++++#......",
"..+++++++++++#......",
"...###########......",
"....................",
"....................",
"@@@@@@@@@@@@@@@@@@@@"};
