/* XPM */
static char *maximize_xpm[] = {
"16 16 3 1",
". c #666666",
"  c #00c000",
"a c #c0c0c0",
"a...............",
"................",
"..              ",
"..              ",
"..              ",
"..              ",
"..              ",
"..              ",
"..              ",
"..              ",
"..              ",
"..              ",
"..              ",
"..              ",
"..              ",
"..              "
};
