/* XPM */
static char *frameABR[] = {
/* width height num_colors chars_per_pixel */
"    16    16        3            1",
/* colors */
". c #666699",
"# c #000000",
"a c #c0c0c0",
/* pixels */
"##############..",
"##############..",
"##############..",
"##############..",
"##############..",
"##############..",
"##############..",
"##############..",
"##############..",
"##############..",
"##############..",
"##############..",
"##############..",
"##############..",
"................",
"...............a"
};
