/* XPM */
static char *frameAB[] = {
/* width height num_colors chars_per_pixel */
"   1     6        6            1",
/* colors */
". c #ffffff",
"# c #ccccff",
"a c #cccccc",
"b c #999999",
"c c #666666",
"d c #c0c0c0",
/* pixels */
"b",
"b",
"c",
"a",
"b",
"b"
};
