/* XPM */
static char *frameATL[] = {
/* width height num_colors chars_per_pixel */
"    16    16        6            1",
/* colors */
". c #ffffff",
"# c #ccccff",
"a c #9999cc",
"b c #666699",
"c c #000000",
"d c #c0c0c0",
/* pixels */
"dbbbbbbbbbbbbbbb",
"bbbbbbbbbbbbbbbb",
"bbbbbbbbbbbbbbbc",
"bbbbbbbbbbbbbbbb",
"bbbbbbbbbbbbbbbb",
"bbbbbbbbbbbbbbbb",
"bbbbbbb.........",
"bbbbbb..########",
"bbbbbb.#########",
"bbbbbb.####bbbbb",
"bbbbbb.####bbbbb",
"bbbbbb.####bb###",
"bbbbbb.####bb#.#",
"bbbbbb.####bb##b",
"bbbbbb.####bb###",
"bbcbbb.####bbbbb"
};
