/* XPM */
static char *menuButtonA[] = {
/* width height num_colors chars_per_pixel */
"    23    42        7            1",
/* colors */
". c #ffffff",
"# c #cccccc",
"a c #9999cc",
"b c #666699",
"c c #666666",
"d c #ffffff",
"e c #999999",
/* pixels */
"b######################",
"#######################",
"#######################",
"#######################",
"#######################",
"#######################",
"#######################",
"#######################",
"#######################",
"#######################",
"#######################",
"#######################",
"#######################",
"#######################",
"#######################",
"#######################",
"#######################",
"#######################",
"#######################",
"#######################",
"bbbbbbbbbbbbbbbbbbbbbbb",
"b######################",
"##cccccccccccccccc#####",
"#ceeeeeeeeeeeeeeeed####",
"#ceeeeeeeeeeeeeeeed####",
"#ceeeeeeeeeeeeeeeed####",
"#ceeeeeeeeeeeeeeeed####",
"#ceeeeeeeeeeeeeeeed####",
"#ceeeeeeeeeeeeeeeed####",
"#ceeeeeeeeeeeeeeeed####",
"#ceeeeeeeeeeeeeeeed####",
"#ceeeeeeeeeeeeeeeed####",
"#ceeeeeeeeeeeeeeeed####",
"#ceeeeeeeeeeeeeeeed####",
"#ceeeeeeeeeeeeeeeed####",
"#ceeeeeeeeeeeeeeeed####",
"#ceeeeeeeeeeeeeeeed####",
"#ceeeeeeeeeeeeeeeed####",
"#ceeeeeeeeeeeeeeeed####",
"##ddddddddddddddddd####",
"#######################",
"bbbbbbbbbbbbbbbbbbbbbbb",
};
