/* XPM */
static char *min0[] = {
/* width height num_colors chars_per_pixel */
"    20    42        5            1",
/* colors */
". c #000000",
"# c #ffffff",
"a c #cfcfcf",
"b c #656565",
"c c #9a9a9a",
/* pixels */
"aaaaaaaaaaaaaaaaaaaa",
"aaaaaaaaaaaaaaaaaaaa",
"aaaaaaaaaaaaaaaaaaaa",
"aaaaaaaaaaaaaaa.aaaa",
"aaaaaaaaaa..aa.bbaaa",
"aaaaaaaaaa.b#.bb#aaa",
"aaaaaaaaaa.b.bb#aaaa",
"aaaaaaaaaa.bbb#aaaaa",
"aaaaaaaaaa.bbb..aaaa",
"aaaaaaaaaa.bbbbb#aaa",
"aaa.......a######aaa",
"aaa.bbbbbbaaaaaaaaaa",
"aaa.b###bb#aaaaaaaaa",
"aaa.b#aa.b#aaaaaaaaa",
"aaa.b#aa.b#aaaaaaaaa",
"aaa.bb...b#aaaaaaaaa",
"aaa.bbbbbb#aaaaaaaaa",
"aaaa#######aaaaaaaaa",
"aaaaaaaaaaaaaaaaaaaa",
"aaaaaaaaaaaaaaaaaaaa",
"bbbbbbbbbbbbbbbbbbbb",
"aaaaaaaaaaaaaaaaaaaa",
"aaaaaaaaaaaaaaaaaaaa",
"aaaaaaaaaaaaaaaaaaaa",
"aaaaaaaaaaaaaaa.aaaa",
"aaaaaaaaaa..aa...aaa",
"aaaaaaaaaa..#...#aaa",
"aaaaaaaaaa.....#aaaa",
"aaaaaaaaaa....#aaaaa",
"aaaaaaaaaa......aaaa",
"aaaaaaaaaa......#aaa",
"aaa.......a######aaa",
"aaa.......aaaaaaaaaa",
"aaa..ccc..#aaaaaaaaa",
"aaa..ccc..#aaaaaaaaa",
"aaa..ccc..#aaaaaaaaa",
"aaa.......#aaaaaaaaa",
"aaa.......#aaaaaaaaa",
"aaaa#######aaaaaaaaa",
"aaaaaaaaaaaaaaaaaaaa",
"aaaaaaaaaaaaaaaaaaaa",
"bbbbbbbbbbbbbbbbbbbb"
};
