/* XPM */
static char *titleAL[] = {
/* width height num_colors chars_per_pixel */
"     2    21        4            1",
/* colors */
". c #ffffff",
"# c #cccccc",
"a c #9999cc",
"b c #666699",
/* pixels */
"##",
"##",
"##",
"##",
"##",
"##",
"##",
"##",
"##",
"##",
"##",
"##",
"##",
"##",
"##",
"##",
"##",
"##",
"##",
"##",
"bb"
};
