/* XPM */
static char *titleAM[] = {
/* width height num_colors chars_per_pixel */
"     5    21        4            1",
/* colors */
". c #ffffff",
"# c #cccccc",
"a c #9999cc",
"b c #666699",
/* pixels */
"#####",
"#####",
"#####",
"#####",
"#####",
"#####",
"#####",
"#####",
"#####",
"#####",
"#####",
"#####",
"#####",
"#####",
"#####",
"#####",
"#####",
"#####",
"#####",
"#####",
"bbbbb"
};
