/* XPM */
static char * xbmc_16x16_xpm[] = {
"16 16 110 2",
"  	c None",
". 	c #343C51",
"+ 	c #38435D",
"@ 	c #37425C",
"# 	c #38435F",
"$ 	c #394662",
"% 	c #3C4967",
"& 	c #414E6B",
"* 	c #445271",
"= 	c #475574",
"- 	c #4B5877",
"; 	c #4E5B79",
"> 	c #4F5C7A",
", 	c #54607D",
"' 	c #606C89",
") 	c #283044",
"! 	c #29364E",
"~ 	c #293157",
"{ 	c #2C355B",
"] 	c #2D3562",
"^ 	c #44624E",
"/ 	c #384A63",
"( 	c #303B6B",
"_ 	c #314062",
": 	c #2A395B",
"< 	c #2F3D5C",
"[ 	c #273453",
"} 	c #2A3552",
"| 	c #1F2A45",
"1 	c #253049",
"2 	c #596580",
"3 	c #283144",
"4 	c #283152",
"5 	c #4B7B2E",
"6 	c #60A124",
"7 	c #619C2B",
"8 	c #70B520",
"9 	c #5C8C38",
"0 	c #77B81F",
"a 	c #8997B5",
"b 	c #8F9FB2",
"c 	c #B2C3D5",
"d 	c #8697AD",
"e 	c #92A5B8",
"f 	c #93A7BA",
"g 	c #5F6F85",
"h 	c #444E69",
"i 	c #2C3753",
"j 	c #262A5E",
"k 	c #71BF16",
"l 	c #2C316D",
"m 	c #68A22D",
"n 	c #282E72",
"o 	c #67A021",
"p 	c #97A2C3",
"q 	c #28375A",
"r 	c #98A8BB",
"s 	c #2B3959",
"t 	c #C1D6E6",
"u 	c #2D3954",
"v 	c #26314B",
"w 	c #4A556F",
"x 	c #334748",
"y 	c #508A22",
"z 	c #32484C",
"A 	c #5F992A",
"B 	c #3C5651",
"C 	c #69A02B",
"D 	c #4E675D",
"E 	c #4F5F7B",
"F 	c #29385B",
"G 	c #5D6C87",
"H 	c #2D3C5C",
"I 	c #55647D",
"J 	c #8395AA",
"K 	c #48556E",
"L 	c #283147",
"M 	c #525D73",
"N 	c #49556E",
"O 	c #424F6B",
"P 	c #4A5977",
"Q 	c #2B3C60",
"R 	c #4D5B79",
"S 	c #505D7B",
"T 	c #4E5D7B",
"U 	c #3E4E6C",
"V 	c #4B5972",
"W 	c #3F4D67",
"X 	c #35425C",
"Y 	c #3C3C4E",
"Z 	c #3C3D4F",
"` 	c #3E4154",
" .	c #424559",
"..	c #43475C",
"+.	c #45485A",
"@.	c #484A59",
"#.	c #4D4B57",
"$.	c #544C53",
"%.	c #5A4B4B",
"&.	c #654C44",
"*.	c #704731",
"=.	c #252D3F",
"-.	c #303C58",
";.	c #303E5A",
">.	c #34415F",
",.	c #364362",
"'.	c #33405E",
").	c #2F3B56",
"!.	c #2E3851",
"~.	c #2B364B",
"                                ",
"                                ",
"                                ",
"                                ",
". + @ # $ % & * = - ; > , '     ",
") ! ~ { ] ^ / ( _ : < [ } | 1 2 ",
"3 4 5 6 7 8 9 0 a b c d e f g h ",
"  i j k l m n o p q r s t u v w ",
"  x y z A B C D E F G H I J K   ",
"  L M N O P P Q R S T U V W X   ",
"    Y Z `  ...+.@.#.$.%.&.*.    ",
"    =.-.;.>.,.'.).!.~.          ",
"                                ",
"                                ",
"                                ",
"                                "};
