/* XPM */
static char * printer_32x32_xpm[] = {
"32 32 167 2",
"  	c None",
". 	c #909090",
"+ 	c #898989",
"@ 	c #8A8A8A",
"# 	c #F7F7F7",
"$ 	c #DFDFDF",
"% 	c #C2C2C2",
"& 	c #E4E4E4",
"* 	c #E3E3E3",
"= 	c #E9E9E9",
"- 	c #CBCBCB",
"; 	c #CACACA",
"> 	c #E8E8E8",
", 	c #EEEEEE",
"' 	c #EDEDED",
") 	c #F3F3F3",
"! 	c #D4D4D4",
"~ 	c #D3D3D3",
"{ 	c #F2F2F2",
"] 	c #F8F8F8",
"^ 	c #FDFDFD",
"/ 	c #DCDCDC",
"( 	c #DBDBDB",
"_ 	c #EBEBEB",
": 	c #FCFCFC",
"< 	c #EFEFEF",
"[ 	c #F0F0F0",
"} 	c #F1F1F1",
"| 	c #F4F4F4",
"1 	c #D7D7D7",
"2 	c #D8D8D8",
"3 	c #D9D9D9",
"4 	c #DADADA",
"5 	c #6B6B6B",
"6 	c #676767",
"7 	c #DEDEDE",
"8 	c #C3C3C3",
"9 	c #C4C4C4",
"0 	c #C5C5C5",
"a 	c #C6C6C6",
"b 	c #717171",
"c 	c #FBFBFB",
"d 	c #B8B8B8",
"e 	c #ACACAC",
"f 	c #ADADAD",
"g 	c #858585",
"h 	c #E1E1E1",
"i 	c #6E6E6E",
"j 	c #CDCDCD",
"k 	c #9B9B9B",
"l 	c #A2A2A2",
"m 	c #929292",
"n 	c #E7E7E7",
"o 	c #C1C1C1",
"p 	c #6C6C6C",
"q 	c #FEFEFE",
"r 	c #6A6A69",
"s 	c #E4E3E1",
"t 	c #E9E8E6",
"u 	c #CDCCCC",
"v 	c #D6D5D3",
"w 	c #E8E7E5",
"x 	c #E6E5E5",
"y 	c #E6E5E4",
"z 	c #E5E4E3",
"A 	c #E5E4E2",
"B 	c #E3E2E1",
"C 	c #E2E1E1",
"D 	c #E1E1E0",
"E 	c #E1E0DF",
"F 	c #E1E0DE",
"G 	c #E0DEDE",
"H 	c #DFDEDD",
"I 	c #DEDDDD",
"J 	c #DDDDDC",
"K 	c #DDDCDB",
"L 	c #DCDBDA",
"M 	c #DAD9D9",
"N 	c #CDCDCB",
"O 	c #C9C8C7",
"P 	c #FAFAFA",
"Q 	c #F9F9F9",
"R 	c #D4D3D1",
"S 	c #F2F1EF",
"T 	c #C9C9C7",
"U 	c #E3E3E1",
"V 	c #F1F0EF",
"W 	c #F1F0EE",
"X 	c #F1EFEE",
"Y 	c #F0EFEE",
"Z 	c #F0EFED",
"` 	c #EFEEED",
" .	c #EFEEEC",
"..	c #EEEDEC",
"+.	c #EEEDEB",
"@.	c #EEECEB",
"#.	c #C3C3C2",
"$.	c #BBBAB9",
"%.	c #F6F6F5",
"&.	c #8C8C8B",
"*.	c #EBEAE9",
"=.	c #F7F6F5",
"-.	c #858583",
";.	c #F3F3F2",
">.	c #A6A6A4",
",.	c #666666",
"'.	c #656565",
").	c #979795",
"!.	c #E8E7E7",
"~.	c #F0F0EF",
"{.	c #DADAD7",
"].	c #D9D9D6",
"^.	c #D7D7D5",
"/.	c #D6D6D3",
"(.	c #D5D5D2",
"_.	c #D3D3D1",
":.	c #D2D2CF",
"<.	c #D1D0CE",
"[.	c #CFCFCD",
"}.	c #CECECB",
"|.	c #CDCCCA",
"1.	c #CBCBC9",
"2.	c #CAC9C7",
"3.	c #C9C8C6",
"4.	c #C7C7C5",
"5.	c #C6C5C4",
"6.	c #C5C4C2",
"7.	c #C3C3C1",
"8.	c #C2C1C0",
"9.	c #C0C0BE",
"0.	c #BFBEBD",
"a.	c #BEBDBC",
"b.	c #BCBCBA",
"c.	c #E2E2E1",
"d.	c #EEEEEC",
"e.	c #DCDCDB",
"f.	c #EBEBE9",
"g.	c #D7D6D6",
"h.	c #E8E8E6",
"i.	c #D1D1D0",
"j.	c #696969",
"k.	c #DBDBD9",
"l.	c #E3E3E0",
"m.	c #E0E0DE",
"n.	c #E0E0DD",
"o.	c #DEDEDD",
"p.	c #DDDDDB",
"q.	c #DDDCDA",
"r.	c #DBDBDA",
"s.	c #DADAD8",
"t.	c #DAD9D7",
"u.	c #D8D8D7",
"v.	c #D7D6D4",
"w.	c #D5D5D4",
"x.	c #D4D4D3",
"y.	c #D2D2D1",
"z.	c #D0D0CE",
"A.	c #CFCECD",
"B.	c #CECDCD",
"C.	c #CCCBCB",
"D.	c #C3C2C1",
"E.	c #686868",
"F.	c #5F5F5F",
"G.	c #595959",
"H.	c #474746",
"I.	c #5A5A5A",
"J.	c #494949",
"                                                                ",
"                                                                ",
"            . + + + + + + + + + + + + + + + + + + .             ",
"            @ # # # # # # # # # # # # # # # # # # @             ",
"            + # $ $ $ $ $ $ $ $ $ $ $ $ $ $ $ $ # +             ",
"            + # $ % % % % % % % % % % % % % $ $ # +             ",
"            + # & & & & & & & & & & * * * * * * # +             ",
"            + # = - - - - - - - - ; ; ; ; ; > > # +             ",
"            + # , , , , , , , , ' ' ' ' ' ' ' ' # +             ",
"            + # ) ! ! ! ! ! ~ ~ ~ ~ ~ ~ ~ ~ { { # +             ",
"            + # ] ] ] ] ] # # # # # # # # # # # # +             ",
"            + # ^ / / / ( ( ( ( _ : : : : : : : # +             ",
"            + # < < [ [ [ } } } { { { ) ) ) | | # +             ",
"            + } 1 1 2 2 2 3 3 3 4 4 4 ( ( ( / / } +             ",
"        5 6 + 7 % 8 8 8 8 9 9 9 9 0 0 0 0 a a a $ + 6 5         ",
"      b _ c + d e e e e f e e e e e e e f e e f d g } h i       ",
"    i j c c k l l l l l l l l l l l l l l l l l l m n ' o       ",
"    p ^ q q q q q q q q q q ^ ^ ^ ^ ^ ^ ^ ^ ^ ^ ^ ^ ^ ^ : r     ",
"    6 : s t u v w x y z A s B C D E F G H I J K L M N O P 6     ",
"    6 Q R S T U V V W X Y Y Z Z ` ` ` `  .......+.@.#.$.) 6     ",
"    6 %.&...y *.=.=.=.=.=.=.=.=.=.=.=.=.=.=.=.=.=...-.$.' 6     ",
"    6 ;.>.5 ,.,.,.,.'.'.'.'.'.'.'.'.'.'.'.'.'.'.'.r ).$.!.6     ",
"    6 ~.{.].^./.(._.:.<.[.}.|.1.2.3.4.5.6.7.8.9.0.a.b.$.c.6     ",
"    6 d.{.].^./.(._.:.<.[.}.|.1.2.3.4.5.6.7.8.9.0.a.b.$.e.6     ",
"    6 f.{.].^./.(._.:.<.[.}.|.1.2.3.4.5.6.7.8.9.0.a.b.$.g.6     ",
"    6 h.{.].^./.(._.:.<.[.}.|.1.2.3.4.5.6.7.8.9.0.a.b.$.i.6     ",
"    j.k.U l.D m.n.o.p.q.r.s.t.u.^.v.w.x.R y.i.z.A.B.N C.D.E.    ",
"    F.E.6 6 6 6 6 6 6 6 6 6 6 6 6 6 6 6 6 6 6 6 6 6 6 6 E.G.    ",
"      H.I.G.G.G.G.G.G.G.G.G.G.G.G.G.G.G.G.G.G.G.G.G.G.G.J.      ",
"                                                                ",
"                                                                ",
"                                                                "};
