/* XPM */
static char *magick[] = {
/* columns rows colors chars-per-pixel */
"20 40 4 1",
"  c #D0D0D0",
". c #808080",
"X c #FFFFFF",
"o c #000000",
/* pixels */
"                    ",
"                    ",
"                    ",
"                    ",
"       .oooo.       ",
"      oooooooo      ",
"     .oooooooo.     ",
"     oooXXXXooo     ",
"     oooXXXXooo     ",
"     oooXXXXooo     ",
"     oooXXXXooo     ",
"     .oooooooo.     ",
"      oooooooo      ",
"       .oooo.       ",
"                    ",
"                    ",
"                    ",
"                    ",
"                    ",
"                    ",
"                    ",
"                    ",
"       oooooo       ",
"     .oooooooo.     ",
"    .oooooooooo.    ",
"    oooooooooooo    ",
"   oooooooooooooo   ",
"   oooooXXXXooooo   ",
"   oooooXXXXooooo   ",
"   oooooXXXXooooo   ",
"   oooooXXXXooooo   ",
"   oooooooooooooo   ",
"    oooooooooooo    ",
"    .oooooooooo.    ",
"     .oooooooo.     ",
"       oooooo       ",
"                    ",
"                    ",
"                    ",
"                    "
};
