<?xml version="1.0" encoding="UTF-8" standalone="no"?>
<svg
   xmlns:dc="http://purl.org/dc/elements/1.1/"
   xmlns:cc="http://creativecommons.org/ns#"
   xmlns:rdf="http://www.w3.org/1999/02/22-rdf-syntax-ns#"
   xmlns:svg="http://www.w3.org/2000/svg"
   xmlns="http://www.w3.org/2000/svg"
   xmlns:xlink="http://www.w3.org/1999/xlink"
   xmlns:sodipodi="http://sodipodi.sourceforge.net/DTD/sodipodi-0.dtd"
   xmlns:inkscape="http://www.inkscape.org/namespaces/inkscape"
   width="170.66666666666666"
   height="170.66666666666666"
   id="svg3088"
   version="1.1"
   inkscape:version="0.48.3.1 r9886"
   sodipodi:docname="microsoft-windows-icon.svg">
  <metadata
     id="metadata3151">
    <rdf:RDF>
      <cc:Work
         rdf:about="">
        <dc:format>image/svg+xml</dc:format>
        <dc:type
           rdf:resource="http://purl.org/dc/dcmitype/StillImage" />
        <dc:title></dc:title>
      </cc:Work>
    </rdf:RDF>
  </metadata>
  <sodipodi:namedview
     pagecolor="#ffffff"
     bordercolor="#666666"
     borderopacity="1"
     objecttolerance="10"
     gridtolerance="10"
     guidetolerance="10"
     inkscape:pageopacity="0"
     inkscape:pageshadow="2"
     inkscape:window-width="1920"
     inkscape:window-height="978"
     id="namedview3149"
     showgrid="true"
     inkscape:zoom="4.6757811"
     inkscape:cx="47.050962"
     inkscape:cy="85.333336"
     inkscape:window-x="0"
     inkscape:window-y="31"
     inkscape:window-maximized="1"
     inkscape:current-layer="svg3088"
     inkscape:snap-bbox="true"
     showguides="false" />
  <defs
     id="defs3090">
    <linearGradient
       y2="458.04459"
       y1="415.15011"
       xlink:href="#linearGradient4215"
       x2="588.13915"
       x1="566.74342"
       id="linearGradient4033"
       gradientTransform="scale(1.0355106,0.96570716)"
       gradientUnits="userSpaceOnUse" />
    <linearGradient
       y2="382.54685"
       y1="330.16993"
       xlink:href="#linearGradient4215"
       x2="620.33303"
       x1="591.27605"
       id="linearGradient3983"
       gradientTransform="scale(1.0443574,0.95752663)"
       gradientUnits="userSpaceOnUse" />
    <linearGradient
       y2="399.38114"
       y1="327.76368"
       xlink:href="#linearGradient4215"
       x2="544.85999"
       x1="509.06757"
       id="linearGradient3978"
       gradientTransform="scale(0.97224886,1.0285432)"
       gradientUnits="userSpaceOnUse" />
    <linearGradient
       y2="342.66924"
       y1="277.27749"
       xlink:href="#linearGradient4215"
       x2="575.11403"
       x1="538.89509"
       id="linearGradient3969"
       gradientTransform="scale(0.99820596,1.0017973)"
       gradientUnits="userSpaceOnUse" />
    <linearGradient
       y2="683.81138"
       y1="693.73278"
       xlink:href="#linearGradient4215"
       x2="629.89737"
       x1="647.99906"
       id="linearGradient4018"
       gradientTransform="scale(0.97571818,1.0248861)"
       gradientUnits="userSpaceOnUse" />
    <linearGradient
       id="linearGradient4215">
      <stop
         stop-color="#ffffff"
         offset="0"
         id="stop4216" />
      <stop
         stop-color="#ffffff"
         stop-opacity="0"
         offset="1"
         id="stop4217" />
    </linearGradient>
    <linearGradient
       y2="668.9182"
       y1="677.24336"
       xlink:href="#linearGradient4215"
       x2="630.47514"
       x1="649.57258"
       id="linearGradient4019"
       gradientTransform="scale(0.98880611,1.0113206)"
       gradientUnits="userSpaceOnUse" />
    <linearGradient
       y2="705.91297"
       y1="728.77385"
       xlink:href="#linearGradient4021"
       x2="641.37301"
       x1="681.34051"
       id="linearGradient4017"
       gradientTransform="scale(0.98677688,1.0134003)"
       gradientUnits="userSpaceOnUse" />
    <linearGradient
       id="linearGradient4021">
      <stop
         stop-color="#000000"
         offset="0"
         id="stop4022" />
      <stop
         stop-color="#000000"
         stop-opacity="0"
         offset="1"
         id="stop4023" />
    </linearGradient>
    <linearGradient
       y2="677.27411"
       y1="697.24729"
       xlink:href="#linearGradient4021"
       x2="657.74752"
       x1="693.25425"
       id="linearGradient4020"
       gradientTransform="scale(0.98378362,1.0164837)"
       gradientUnits="userSpaceOnUse" />
    <linearGradient
       y2="-0.023438"
       y1="1.601563"
       xlink:href="#linearGradient4823"
       x2="0.283019"
       x1="0.245283"
       id="linearGradient4905" />
    <linearGradient
       y2="0.554688"
       y1="-0.148438"
       xlink:href="#linearGradient4823"
       x2="0.401869"
       x1="0.897196"
       id="linearGradient4909" />
    <linearGradient
       y2="0.507813"
       y1="-0.273438"
       xlink:href="#linearGradient4823"
       x2="0.364706"
       x1="0.905882"
       id="linearGradient4902" />
    <linearGradient
       y2="0.59375"
       y1="-0.125"
       xlink:href="#linearGradient4823"
       x2="0.490272"
       x1="0.568093"
       id="linearGradient4898" />
    <linearGradient
       y2="0.414063"
       y1="1.25"
       xlink:href="#linearGradient4823"
       x2="0.422018"
       x1="1.412844"
       id="linearGradient4830" />
    <linearGradient
       y2="0.359375"
       y1="1.164063"
       xlink:href="#linearGradient4823"
       x2="0.533333"
       x1="0.084848"
       id="linearGradient4828" />
    <linearGradient
       y2="0.539063"
       y1="-0.53125"
       xlink:href="#linearGradient4823"
       x2="0.685714"
       x1="0.761905"
       id="linearGradient4822" />
    <linearGradient
       id="linearGradient4823">
      <stop
         stop-color="#ffffff"
         stop-opacity="0.836158"
         offset="0"
         id="stop4824" />
      <stop
         stop-color="#ffffff"
         stop-opacity="0"
         offset="1"
         id="stop4826" />
    </linearGradient>
    <linearGradient
       y2="-0.28125"
       y1="2.03125"
       xlink:href="#linearGradient4823"
       x2="0.561644"
       x1="2.205479"
       id="linearGradient4907" />
    <linearGradient
       y2="0.304688"
       y1="1.039063"
       xlink:href="#linearGradient1806"
       x2="0.558376"
       x1="0.888325"
       id="linearGradient4900" />
    <linearGradient
       y2="0.296875"
       y1="0.960938"
       xlink:href="#linearGradient1806"
       x2="0.86087"
       x1="0.852174"
       id="linearGradient4832" />
    <linearGradient
       y2="0.3125"
       y1="1.4375"
       xlink:href="#linearGradient3970"
       x2="0.220183"
       x1="0.06422"
       id="linearGradient3976" />
    <linearGradient
       id="linearGradient3970">
      <stop
         stop-color="#ffffff"
         offset="0"
         id="stop3971" />
      <stop
         stop-color="#ffffff"
         stop-opacity="0"
         offset="1"
         id="stop3972" />
    </linearGradient>
    <linearGradient
       y2="0.570313"
       y1="0.742188"
       xlink:href="#linearGradient3970"
       x2="0.033708"
       x1="1.101124"
       id="linearGradient4037" />
    <linearGradient
       id="linearGradient1806">
      <stop
         stop-color="#000000"
         stop-opacity="0.293785"
         offset="0"
         id="stop1807" />
      <stop
         stop-color="#000000"
         stop-opacity="0.062147"
         offset="0.647778"
         id="stop3276" />
      <stop
         stop-color="#000000"
         stop-opacity="0"
         offset="1"
         id="stop1808" />
    </linearGradient>
    <radialGradient
       xlink:href="#linearGradient1806"
       r="83.611485"
       id="radialGradient4069"
       fy="939.95301"
       fx="329.93467"
       cy="968.14813"
       cx="298.43038"
       gradientTransform="scale(1.8627844,0.53683079)"
       gradientUnits="userSpaceOnUse" />
    <linearGradient
       inkscape:collect="always"
       xlink:href="#linearGradient4021"
       id="linearGradient3995"
       gradientUnits="userSpaceOnUse"
       gradientTransform="scale(0.98378362,1.0164837)"
       x1="693.25425"
       y1="697.24729"
       x2="657.74752"
       y2="677.27411" />
    <linearGradient
       inkscape:collect="always"
       xlink:href="#linearGradient4021"
       id="linearGradient3997"
       gradientUnits="userSpaceOnUse"
       gradientTransform="scale(0.98677688,1.0134003)"
       x1="681.34051"
       y1="728.77385"
       x2="641.37301"
       y2="705.91297" />
    <linearGradient
       inkscape:collect="always"
       xlink:href="#linearGradient4215"
       id="linearGradient3999"
       gradientUnits="userSpaceOnUse"
       gradientTransform="scale(0.98880611,1.0113206)"
       x1="649.57258"
       y1="677.24336"
       x2="630.47514"
       y2="668.9182" />
    <linearGradient
       inkscape:collect="always"
       xlink:href="#linearGradient4215"
       id="linearGradient4001"
       gradientUnits="userSpaceOnUse"
       gradientTransform="scale(0.97571818,1.0248861)"
       x1="647.99906"
       y1="693.73278"
       x2="629.89737"
       y2="683.81138" />
    <linearGradient
       inkscape:collect="always"
       xlink:href="#linearGradient4215"
       id="linearGradient4003"
       gradientUnits="userSpaceOnUse"
       gradientTransform="scale(0.99820596,1.0017973)"
       x1="538.89509"
       y1="277.27749"
       x2="575.11403"
       y2="342.66924" />
    <linearGradient
       inkscape:collect="always"
       xlink:href="#linearGradient4215"
       id="linearGradient4005"
       gradientUnits="userSpaceOnUse"
       gradientTransform="scale(0.97224886,1.0285432)"
       x1="509.06757"
       y1="327.76368"
       x2="544.85999"
       y2="399.38114" />
    <linearGradient
       inkscape:collect="always"
       xlink:href="#linearGradient4215"
       id="linearGradient4007"
       gradientUnits="userSpaceOnUse"
       gradientTransform="scale(1.0443574,0.95752663)"
       x1="591.27605"
       y1="330.16993"
       x2="620.33303"
       y2="382.54685" />
    <linearGradient
       inkscape:collect="always"
       xlink:href="#linearGradient4215"
       id="linearGradient4009"
       gradientUnits="userSpaceOnUse"
       gradientTransform="scale(1.0355106,0.96570716)"
       x1="566.74342"
       y1="415.15011"
       x2="588.13915"
       y2="458.04459" />
  </defs>
  <g
     id="g4532"
     transform="matrix(0.80282577,0,0,0.81703147,-391.61268,-235.8428)">
    <g
       transform="matrix(3.410966,0,0,3.410966,-1551.297,-1986.944)"
       id="g4282">
      <path
         id="path3996"
         d="m 641.25513,677.9776 -9.9375,17.90625 c 9.10846,1.53125 15.22918,5.92572 18.65625,10.8125 l 10.1875,-18.5 c 0,0 -5.40119,-8.93567 -18.90625,-10.21875 z"
         inkscape:connector-curvature="0"
         style="fill:#0bd300;fill-rule:evenodd;stroke-width:1pt" />
      <path
         id="path4006"
         d="m 619.84192,667.16852 -9.78125,17.62506 c 1.53827,4.16772 7.29889,9.72656 17.81256,10.6875 l 9.90625,-17.81256 c -13.61676,-1.20301 -17.93756,-10.5 -17.93756,-10.5 z"
         inkscape:connector-curvature="0"
         style="fill:#d33500;fill-rule:evenodd;stroke-width:1pt" />
      <path
         id="path4007"
         d="m 607.86713,688.49915 -10.03125,18.0625 c 0,0 3.44738,8.73822 17.9375,10.46875 l 10.25,-18.4375 c -9.02717,-1.18689 -15.24677,-5.39026 -18.15625,-10.09375 z"
         inkscape:connector-curvature="0"
         style="fill:#0079d3;fill-rule:evenodd;stroke-width:1pt" />
      <path
         id="path4008"
         d="m 629.45886,699.22363 -10.21875,18.40631 c 14.0249,1.97272 18.75,10.875 18.75,10.875 l 10.125,-18.40625 c -2.62561,-4.70111 -8.70514,-9.531 -18.65625,-10.87506 z"
         inkscape:connector-curvature="0"
         style="fill:#eadd00;fill-rule:evenodd;stroke-width:1pt" />
      <path
         id="path4010"
         d="m 641.41626,677.36401 -9.9375,18.58197 c 9.10852,1.58899 15.22925,6.1493 18.65625,11.22052 l 10.1875,-19.19812 c 0,0 -5.40112,-9.27288 -18.90625,-10.60437 z"
         style="fill:url(#linearGradient3995);fill-rule:evenodd;stroke-width:1pt"
         inkscape:connector-curvature="0" />
      <path
         id="path4013"
         d="m 629.26019,698.69202 -10.21875,19.10089 c 14.0249,2.04718 19.11609,10.55316 19.11609,10.55316 l 9.75891,-18.36865 c -2.62567,-4.87848 -8.70514,-9.89063 -18.65625,-11.2854 z"
         style="fill:url(#linearGradient3997);fill-rule:evenodd;stroke-width:1pt"
         inkscape:connector-curvature="0" />
      <path
         id="path4011"
         d="m 619.91315,667.40668 -9.69129,16.85052 c 1.53821,4.32501 7.08783,10.41022 17.6015,11.40735 l 10.02729,-18.08142 c -13.6167,-1.24847 -18.11744,-9.00684 -17.9375,-10.17645 z"
         style="fill:url(#linearGradient3999);fill-rule:evenodd;stroke-width:1pt"
         inkscape:connector-curvature="0" />
      <path
         id="path4012"
         d="m 608.11829,687.65619 -10.03125,18.74414 c 0,0 3.44738,9.06793 17.9375,10.86377 l 10.25,-19.13324 c -9.02716,-1.23175 -15.24677,-5.59369 -18.15625,-10.47467 z"
         style="fill:url(#linearGradient4001);fill-rule:evenodd;stroke-width:1pt"
         inkscape:connector-curvature="0" />
    </g>
    <path
       id="path4528"
       d="m 533.77948,346.30594 21.37647,-38.68124 c 3.48028,-6.29764 10.34893,-8.82203 14.25097,-5.08963 3.77729,3.61306 12.21515,14.75994 22.90338,15.77789 10.68824,1.01791 16.28687,6.10754 16.28687,6.10754 4.07171,6.10758 -20.35858,51.91431 -29.5199,51.91431 -9.16138,0 -42.24402,-16.28684 -45.29779,-30.02887 z"
       style="fill:url(#linearGradient4003);fill-rule:evenodd;stroke-width:1pt"
       inkscape:connector-curvature="0" />
    <path
       id="path4529"
       d="m 517.52881,377.65091 c 3.13861,-5.42896 10.60339,-4.49585 14.25098,-2.03586 2.95794,1.99491 23.92132,19.34061 31.04681,18.32269 7.12549,-1.01794 -21.37646,54.96808 -30.02887,53.95014 -8.6524,-1.01792 -42.75296,-22.39438 -38.68124,-27.48404 4.07171,-5.08963 20.38333,-37.51358 23.41232,-42.75293 z"
       style="fill:url(#linearGradient4005);fill-rule:evenodd;stroke-width:1pt"
       inkscape:connector-curvature="0" />
    <path
       id="path4530"
       d="m 610.37634,380.80423 19.43415,-38.86832 c 4.00616,-8.0123 16.94012,-13.42523 25.19244,-9.35717 8.51746,4.19873 32.39026,10.79675 33.11005,17.27481 0.71978,6.47805 -27.35175,55.42331 -36.70899,52.54419 -9.35718,-2.87915 -42.46716,-19.43415 -41.02765,-21.59351 z"
       style="fill:url(#linearGradient4007);fill-rule:evenodd;stroke-width:1pt"
       inkscape:connector-curvature="0" />
    <path
       id="path4531"
       d="m 566.9856,456.36563 21.88549,-40.20813 c 3.98993,-7.33038 15.60822,-15.43857 22.39435,-11.1972 5.98395,3.73993 25.95715,7.12548 33.08264,19.3406 7.12555,12.21515 -11.70611,37.66333 -13.742,39.19022 -2.03583,1.52689 -11.19721,15.77786 -18.83167,13.74203 -7.63446,-2.03588 -37.15435,-26.97509 -44.78881,-20.86752 z"
       style="fill:url(#linearGradient4009);fill-rule:evenodd;stroke-width:1pt"
       inkscape:connector-curvature="0" />
  </g>
</svg>
