/* XPM */
static char * ica_32x32_xpm[] = {
"32 32 406 2",
"  	c None",
". 	c #686868",
"+ 	c #696969",
"@ 	c #6A6A6A",
"# 	c #6B6B6B",
"$ 	c #6C6C6C",
"% 	c #6D6D6D",
"& 	c #707070",
"* 	c #6F6F6F",
"= 	c #626262",
"- 	c #616161",
"; 	c #636363",
"> 	c #656565",
", 	c #666666",
"' 	c #676767",
") 	c #5E5E5E",
"! 	c #585858",
"~ 	c #595959",
"{ 	c #5A5A5A",
"] 	c #5C5C5C",
"^ 	c #5D5D5D",
"/ 	c #5F5F5F",
"( 	c #5B5B5B",
"_ 	c #51504F",
": 	c #454441",
"< 	c #312F2B",
"[ 	c #33312D",
"} 	c #34312D",
"| 	c #322F2C",
"1 	c #515151",
"2 	c #525252",
"3 	c #535353",
"4 	c #545454",
"5 	c #565656",
"6 	c #575757",
"7 	c #454341",
"8 	c #282521",
"9 	c #322E2A",
"0 	c #615F5C",
"a 	c #73716F",
"b 	c #615E5C",
"c 	c #312E2A",
"d 	c #555555",
"e 	c #4C4C4C",
"f 	c #474747",
"g 	c #484848",
"h 	c #4A4A4A",
"i 	c #4B4B4B",
"j 	c #4D4D4D",
"k 	c #4F4F4F",
"l 	c #474645",
"m 	c #2C2825",
"n 	c #393531",
"o 	c #82807D",
"p 	c #A6A5A4",
"q 	c #B3B3B2",
"r 	c #8D8C89",
"s 	c #8D8B89",
"t 	c #B5B4B3",
"u 	c #A4A4A3",
"v 	c #797674",
"w 	c #332F2B",
"x 	c #474646",
"y 	c #4E4E4E",
"z 	c #414141",
"A 	c #424242",
"B 	c #444444",
"C 	c #454545",
"D 	c #41403F",
"E 	c #211D19",
"F 	c #524F4C",
"G 	c #BDBDBC",
"H 	c #B0AFAE",
"I 	c #7A7775",
"J 	c #5C5853",
"K 	c #5C5955",
"L 	c #5C5854",
"M 	c #5F5B57",
"N 	c #5D5A55",
"O 	c #827F7D",
"P 	c #BDBCBB",
"Q 	c #B7B6B4",
"R 	c #45423E",
"S 	c #211D1A",
"T 	c #424040",
"U 	c #464646",
"V 	c #383838",
"W 	c #3A3A3A",
"X 	c #3C3C3C",
"Y 	c #3F3F3F",
"Z 	c #393837",
"` 	c #1E1A16",
" .	c #7E7C7A",
"..	c #C2C1C0",
"+.	c #706E6A",
"@.	c #4E4A46",
"#.	c #504C48",
"$.	c #524E49",
"%.	c #534F4B",
"&.	c #54504C",
"*.	c #959391",
"=.	c #D4D4D3",
"-.	c #6E6B68",
";.	c #504C47",
">.	c #514D49",
",.	c #858380",
"'.	c #C4C4C3",
").	c #6D6A68",
"!.	c #1F1B16",
"~.	c #3D3D3D",
"{.	c #323232",
"].	c #343434",
"^.	c #373737",
"/.	c #393939",
"(.	c #221D1A",
"_.	c #565350",
":.	c #BFBFBE",
"<.	c #716E6B",
"[.	c #4C4844",
"}.	c #514C49",
"|.	c #54514D",
"1.	c #55514D",
"2.	c #878482",
"3.	c #E4E4E4",
"4.	c #CCCBCA",
"5.	c #66635F",
"6.	c #4E4946",
"7.	c #4C4845",
"8.	c #878582",
"9.	c #C3C2C2",
"0.	c #45413E",
"a.	c #231F1B",
"b.	c #2A2A2A",
"c.	c #2C2C2C",
"d.	c #2F2F2F",
"e.	c #252321",
"f.	c #3D3935",
"g.	c #BCBBBB",
"h.	c #6B6966",
"i.	c #4D4A46",
"j.	c #4F4B47",
"k.	c #504C49",
"l.	c #514D4A",
"m.	c #BAB9B9",
"n.	c #C1C0C0",
"o.	c #5C5956",
"p.	c #7D7A78",
"q.	c #F0F0F0",
"r.	c #C5C4C4",
"s.	c #524F4B",
"t.	c #868381",
"u.	c #262421",
"v.	c #2D2D2D",
"w.	c #202020",
"x.	c #262626",
"y.	c #272626",
"z.	c #16120E",
"A.	c #898885",
"B.	c #A3A1A0",
"C.	c #524E4B",
"D.	c #615E5B",
"E.	c #5D5956",
"F.	c #93908F",
"G.	c #E8E8E8",
"H.	c #A1A09E",
"I.	c #595552",
"J.	c #B4B4B2",
"K.	c #F4F4F4",
"L.	c #7C7A77",
"M.	c #504D49",
"N.	c #54504D",
"O.	c #BABAB9",
"P.	c #757371",
"Q.	c #17130F",
"R.	c #060606",
"S.	c #0D0D0D",
"T.	c #151312",
"U.	c #2C2924",
"V.	c #6C6967",
"W.	c #5E5C58",
"X.	c #D8D8D8",
"Y.	c #BAB9B8",
"Z.	c #595652",
"`.	c #969493",
" +	c #E3E2E2",
".+	c #807E7B",
"++	c #6F6C69",
"@+	c #D8D7D7",
"#+	c #BFBEBD",
"$+	c #5A5754",
"%+	c #7E7C79",
"&+	c #161513",
"*+	c #090909",
"=+	c #0E0B09",
"-+	c #4B4845",
";+	c #989897",
">+	c #2D2925",
",+	c #302C28",
"'+	c #37322E",
")+	c #6F6D6B",
"!+	c #93918F",
"~+	c #DDDDDD",
"{+	c #7C7A78",
"]+	c #55514E",
"^+	c #D5D5D5",
"/+	c #A9A7A6",
"(+	c #ABAAA9",
"_+	c #CDCCCC",
":+	c #5C5855",
"<+	c #36322E",
"[+	c #2F2C27",
"}+	c #403C39",
"|+	c #070707",
"1+	c #0A0A0A",
"2+	c #0D0A06",
"3+	c #0A0500",
"4+	c #0B0601",
"5+	c #2F2A27",
"6+	c #C5C5C5",
"7+	c #7A7876",
"8+	c #201A16",
"9+	c #A2A09F",
"0+	c #9B9A98",
"a+	c #1A1611",
"b+	c #82807F",
"c+	c #C3C3C3",
"d+	c #0F0A05",
"e+	c #605D5B",
"f+	c #CECECE",
"g+	c #4A4744",
"h+	c #110C07",
"i+	c #0C0803",
"j+	c #0C0702",
"k+	c #939291",
"l+	c #B8B8B8",
"m+	c #0D0803",
"n+	c #807F7D",
"o+	c #ADACAC",
"p+	c #2A2622",
"q+	c #63605E",
"r+	c #CDCDCD",
"s+	c #191511",
"t+	c #494643",
"u+	c #CFCFCF",
"v+	c #585653",
"w+	c #0C0703",
"x+	c #BFBFBF",
"y+	c #797775",
"z+	c #ADACAB",
"A+	c #2C2824",
"B+	c #5C5957",
"C+	c #C9C9C9",
"D+	c #1D1914",
"E+	c #44413E",
"F+	c #CBCBCB",
"G+	c #5A5755",
"H+	c #0B0B0B",
"I+	c #0D0905",
"J+	c #090400",
"K+	c #1C1814",
"L+	c #B1B1B1",
"M+	c #959493",
"N+	c #15100C",
"O+	c #8F8D8C",
"P+	c #9D9C9B",
"Q+	c #201C17",
"R+	c #C2C2C2",
"S+	c #0E0A05",
"T+	c #514F4C",
"U+	c #C6C6C6",
"V+	c #4D4947",
"W+	c #0E0904",
"X+	c #0D0A07",
"Y+	c #949493",
"Z+	c #120E09",
"`+	c #2F2B27",
" @	c #4E4C49",
".@	c #666462",
"+@	c #A4A3A3",
"@@	c #939292",
"#@	c #777573",
"$@	c #B3B2B2",
"%@	c #35312E",
"&@	c #201C18",
"*@	c #080808",
"=@	c #0D0B08",
"-@	c #14100B",
";@	c #979796",
">@	c #25211D",
",@	c #1B1712",
"'@	c #A6A5A5",
")@	c #AAA9A9",
"!@	c #1B1713",
"~@	c #3D3A37",
"{@	c #BABABA",
"]@	c #565451",
"^@	c #1F1B17",
"/@	c #989796",
"(@	c #1F1A16",
"_@	c #3B3835",
":@	c #999998",
"<@	c #0D0B09",
"[@	c #040404",
"}@	c #0B0B09",
"|@	c #6F6E6C",
"1@	c #605F5C",
"2@	c #2B2724",
"3@	c #322E2B",
"4@	c #9F9E9D",
"5@	c #848281",
"6@	c #191411",
"7@	c #5B5956",
"8@	c #595754",
"9@	c #838180",
"0@	c #5A5856",
"a@	c #0C0804",
"b@	c #0B0B0A",
"c@	c #050505",
"d@	c #0C0906",
"e@	c #949392",
"f@	c #898786",
"g@	c #A8A7A7",
"h@	c #292421",
"i@	c #A7A7A7",
"j@	c #A7A7A6",
"k@	c #17130E",
"l@	c #393633",
"m@	c #26221E",
"n@	c #0E0E0D",
"o@	c #4E4B48",
"p@	c #888886",
"q@	c #24201C",
"r@	c #221E1A",
"s@	c #908F8F",
"t@	c #A6A6A5",
"u@	c #3C3936",
"v@	c #979695",
"w@	c #0C0C0C",
"x@	c #0E0E0E",
"y@	c #101010",
"z@	c #110F0D",
"A@	c #0E0905",
"B@	c #6D6B69",
"C@	c #888685",
"D@	c #62605F",
"E@	c #B0B0B0",
"F@	c #4D4B48",
"G@	c #312D2A",
"H@	c #5F5D5A",
"I@	c #111111",
"J@	c #0F0F0F",
"K@	c #131313",
"L@	c #151515",
"M@	c #171717",
"N@	c #151310",
"O@	c #919190",
"P@	c #5F5C5A",
"Q@	c #16110D",
"R@	c #0A0501",
"S@	c #0B0602",
"T@	c #282420",
"U@	c #0D0804",
"V@	c #716F6D",
"W@	c #413E3B",
"X@	c #141414",
"Y@	c #181818",
"Z@	c #191919",
"`@	c #1B1B1B",
" #	c #1D1D1D",
".#	c #181513",
"+#	c #0D0904",
"@#	c #35312D",
"##	c #969695",
"$#	c #7B7977",
"%#	c #595654",
"&#	c #676563",
"*#	c #1C1C1C",
"=#	c #1F1F1F",
"-#	c #222222",
";#	c #242424",
">#	c #242322",
",#	c #15120E",
"'#	c #53504E",
")#	c #6C6A68",
"!#	c #55524F",
"~#	c #211C18",
"{#	c #252525",
"]#	c #212121",
"^#	c #1A1A1A",
"/#	c #232323",
"(#	c #282828",
"_#	c #292929",
":#	c #2A2A29",
"<#	c #252422",
"[#	c #1C1916",
"}#	c #130F0B",
"|#	c #0B0702",
"1#	c #2E2E2E",
"2#	c #303030",
"3#	c #313131",
"4#	c #30302F",
"5#	c #313030",
"6#	c #272727",
"7#	c #353535",
"8#	c #363636",
"9#	c #2B2B2B",
"                                                                ",
"          . + + + @ # $ $ % % % % % % $ $ # @ @ + + .           ",
"      & + + + + + @ # $ $ % % % % % % $ $ # @ @ + + + + *       ",
"    = = - - = ; ; > , ' ' ' . . . . ' ' ' , > ; ; = - - = )     ",
"    ! ! ! ~ { ] ^ ) / ( _ : < [ } | : _ ( / ) ^ ] ( ~ ! ! !     ",
"  1 1 1 2 3 4 5 6 ~ 7 8 9 0 a a a a b c 8 7 ~ 6 5 d 3 2 1 1 e   ",
"  f f g h i j k l m n o p q r s s r t u v w m x k y e h g f f   ",
"  z z A B C g D E F G H I J K L L M N O P Q R S T g U B A z z   ",
"  V V W X Y Z `  ...+.@.#.$.%.&.*.=.-.;.>.,.'.).!.Z Y ~.W V V   ",
"  {.{.].^./.(._.:.<.[.@.#.}.|.1.2.3.4.5.6.7.8.9.0.a./.^.].{.{.  ",
"  b.b.c.d.e.f.g.h.i.j.k.l.%.m.n.o.p.q.r.s.j.i.t.t 9 u.d.v.b.b.  ",
"  w.w.x.y.z.A.B.l.l.C.%.D.E.F.G.H.I.J.K.L.>.M.N.O.P.Q.y.x.w.w.  ",
"  R.R.S.T.U.u V.C.C.s.W.X.Y.Z.`. +.+++@+#+$+l.k.%+u U.&+S.R.R.  ",
"  R.R.*+=+-+;+>+,+'+)+l.!+~+{+]+^+/+[.(+_+:+<+[+}+;+-+=+*+R.R.  ",
"  |+|+1+2+r a 3+4+5+6+7+8+9+0+a+b+c+d+e+f+g+4+4+h+a r 2+1+|+|+  ",
"  |+|+1+i+s a 3+4+j+k+l+m+n+o+p+q+r+s+t+u+v+4+4+4+a s i+1+|+|+  ",
"  |+|+1+w+s a 3+3+3+n+x+4+y+z+A+B+C+D+E+F+G+3+3+3+a s w+H+|+|+  ",
"  |+|+1+I+r a J+3+K+L+M+N+O+P+Q+)+R+S+T+U+V+3+3+W+a r I+1+|+|+  ",
"  R.R.*+X+g+Y+d+J+Z+)+`+ @l+.@S++@@@i+#@$@%@J+J+&@Y+g+X+*+R.R.  ",
"  R.R.*@=@-@;@>@J+J+m+,@'@)@!@~@{@]@^@/@/@(@J+J+_@:@,@<@*@R.R.  ",
"  [@[@|+}@i+|@1@J+J+J+J+E+2@3@4@5@6@7@m.8@3+J+4+9@0@a@b@*@c@c@  ",
"  [@[@R.1+d@} e@D+J+J+J+J+J+f@g@h@^@i@j@k@J+J+l@M+m@d@1+R.[@[@  ",
"  [@[@|+1+n@m+o@p@q@J+J+J+J+r@a.p+s@t@u@J+J+l@v@_@w+n@1+|+c@c@  ",
"  *+*+w@x@y@z@A@B@C@D+J+J+J+J+J+D@E@F@A@3+G@Y+H@i+z@I@J@w@*+*+  ",
"  J@J@I@K@L@M@N@A@o@O@P@Q@R@J+J+S@T@U@s+V@k+W@m+N@M@L@K@I@J@J@  ",
"  X@X@L@Y@Z@`@ #.#+#@#|@##$#%#v+v+v+$#;@&#>+U@.# #`@Z@Y@L@X@X@  ",
"  *#*#*# #=#w.-#;#>#,#S+N+'#)#&#&#)#!#~#S+,#>#{#-#]#=# #*#*#^#  ",
"    /#-#-#/#{#x.(#_#:#<#[#}#j+4+3+|#}#[#<#:#b.(#x.{#/#-#-#/#X@  ",
"    /#b.b.b.b.c.v.1#2#2#3#{.{.4#5#{.{.3#3#2#1#v.c.b.b.b.b.w.    ",
"      6#3#2#2#2#{.{.].].7#8#8#8#8#8#8#7#].].{.{.2#2#2#3#{#      ",
"          9#2#2#{.{.].].7#8#8#8#8#8#8#7#].].{.{.2#2#v.          ",
"                                                                "};
