/* XPM */
static char * xbmc_32x32_xpm[] = {
"32 32 372 2",
"  	c None",
". 	c #48536D",
"+ 	c #4A556F",
"@ 	c #47526D",
"# 	c #45506A",
"$ 	c #444F6A",
"% 	c #444F6B",
"& 	c #45516D",
"* 	c #46526F",
"= 	c #485572",
"- 	c #4A5774",
"; 	c #4D5A77",
"> 	c #505D7B",
", 	c #53607E",
"' 	c #556382",
") 	c #596685",
"! 	c #5D6A89",
"~ 	c #626F8E",
"{ 	c #687695",
"] 	c #6E7B9A",
"^ 	c #73819F",
"/ 	c #7B89A8",
"( 	c #8794B5",
"_ 	c #222734",
": 	c #313B53",
"< 	c #28334B",
"[ 	c #2A354D",
"} 	c #2B3650",
"| 	c #2B3751",
"1 	c #2D3854",
"2 	c #2E3A56",
"3 	c #2F3C58",
"4 	c #303D5A",
"5 	c #313F5C",
"6 	c #33405E",
"7 	c #34415F",
"8 	c #344360",
"9 	c #344362",
"0 	c #354362",
"a 	c #344361",
"b 	c #33415F",
"c 	c #323F5E",
"d 	c #313E5C",
"e 	c #303C58",
"f 	c #35405B",
"g 	c #3E4964",
"h 	c #4A5671",
"i 	c #5C6884",
"j 	c #717E9B",
"k 	c #8F9DBD",
"l 	c #1E2432",
"m 	c #303B54",
"n 	c #2A364F",
"o 	c #2C3853",
"p 	c #2E3A55",
"q 	c #2F3B57",
"r 	c #313D59",
"s 	c #323F5C",
"t 	c #354262",
"u 	c #446150",
"v 	c #364366",
"w 	c #364567",
"x 	c #364566",
"y 	c #364565",
"z 	c #364363",
"A 	c #344260",
"B 	c #313E5B",
"C 	c #2D3954",
"D 	c #57627D",
"E 	c #191F2B",
"F 	c #303A53",
"G 	c #29354E",
"H 	c #2A3650",
"I 	c #2D3952",
"J 	c #2E3B54",
"K 	c #2B345A",
"L 	c #303D59",
"M 	c #303C5D",
"N 	c #313C62",
"O 	c #344263",
"P 	c #69AA22",
"Q 	c #527B46",
"R 	c #3A4D61",
"S 	c #334267",
"T 	c #344266",
"U 	c #354465",
"V 	c #314062",
"W 	c #344364",
"X 	c #314060",
"Y 	c #2E3B5A",
"Z 	c #374461",
"` 	c #2A3653",
" .	c #2F3A56",
"..	c #2A3651",
"+.	c #344059",
"@.	c #303C55",
"#.	c #2D374F",
"$.	c #6B7793",
"%.	c #323D56",
"&.	c #2B3455",
"*.	c #599D1B",
"=.	c #75D10B",
"-.	c #73C813",
";.	c #3D574E",
">.	c #5E9830",
",.	c #82DA0C",
"'.	c #7FD310",
").	c #7FCF14",
"!.	c #86D710",
"~.	c #89DC10",
"{.	c #92E60E",
"].	c #5C8743",
"^.	c #314065",
"/.	c #A1B1C4",
"(.	c #E3F5FF",
"_.	c #93A4BA",
":.	c #7D8DA5",
"<.	c #D7EBF9",
"[.	c #D7ECFA",
"}.	c #A9BCCF",
"|.	c #2A3753",
"1.	c #8A9EB2",
"2.	c #CDE5F6",
"3.	c #C1D9EB",
"4.	c #5A6980",
"5.	c #2F3952",
"6.	c #6D7996",
"7.	c #2D364C",
"8.	c #2B3750",
"9.	c #2A3354",
"0.	c #262C56",
"a.	c #4C7B30",
"b.	c #79CF10",
"c.	c #5F992B",
"d.	c #2E3961",
"e.	c #282E67",
"f.	c #8BE20B",
"g.	c #324162",
"h.	c #2D3866",
"i.	c #3C534F",
"j.	c #97EA0C",
"k.	c #9DAFB8",
"l.	c #A6B6C7",
"m.	c #2B395A",
"n.	c #32405F",
"o.	c #CFE1EE",
"p.	c #B8CADB",
"q.	c #313F5D",
"r.	c #273351",
"s.	c #B0C4D5",
"t.	c #B7CBDC",
"u.	c #9BAEC2",
"v.	c #243049",
"w.	c #212B45",
"x.	c #2F3851",
"y.	c #727F9C",
"z.	c #283043",
"A.	c #2C3851",
"B.	c #2D3953",
"C.	c #2E3B56",
"D.	c #3F5C46",
"E.	c #7DD60E",
"F.	c #344063",
"G.	c #3A4E5C",
"H.	c #8BE00E",
"I.	c #313C6D",
"J.	c #364667",
"K.	c #2E386A",
"L.	c #92E304",
"M.	c #E6F5FE",
"N.	c #465675",
"O.	c #314163",
"P.	c #B7C7D6",
"Q.	c #657690",
"R.	c #364665",
"S.	c #344160",
"T.	c #8B9CB1",
"U.	c #CBE0F0",
"V.	c #44526C",
"W.	c #353F58",
"X.	c #202736",
"Y.	c #2F3A53",
"Z.	c #2B3652",
"`.	c #293058",
" +	c #303C56",
".+	c #69B11D",
"++	c #7BD110",
"@+	c #425E50",
"#+	c #303969",
"$+	c #31405E",
"%+	c #8FE50D",
"&+	c #425B58",
"*+	c #64923C",
"=+	c #8CCF24",
"-+	c #EDFAFF",
";+	c #2C3B5D",
">+	c #354464",
",+	c #2A395A",
"'+	c #D9E9F4",
")+	c #4A5977",
"!+	c #354363",
"~+	c #2F3D5B",
"{+	c #A3B6C7",
"]+	c #6D7D94",
"^+	c #222D48",
"/+	c #26324C",
"(+	c #2A354E",
"_+	c #3D475F",
":+	c #323C58",
"<+	c #4C7C32",
"[+	c #74CE0E",
"}+	c #75CE0E",
"|+	c #4C7838",
"1+	c #466D3A",
"2+	c #82DA0E",
"3+	c #86DC0F",
"4+	c #5C8A40",
"5+	c #517B3A",
"6+	c #95E90E",
"7+	c #99EA10",
"8+	c #81C121",
"9+	c #5E6F80",
"0+	c #B7C7D3",
"a+	c #324163",
"b+	c #374667",
"c+	c #E0F0FA",
"d+	c #313F5E",
"e+	c #ACBECF",
"f+	c #69798F",
"g+	c #C9DFEF",
"h+	c #C9E0F1",
"i+	c #9EB2C7",
"j+	c #28334E",
"k+	c #48526C",
"l+	c #2A3347",
"m+	c #29374A",
"n+	c #28344A",
"o+	c #262F53",
"p+	c #313D5A",
"q+	c #2C3959",
"r+	c #2D385D",
"s+	c #303F59",
"t+	c #334164",
"u+	c #303D60",
"v+	c #303F5B",
"w+	c #313E67",
"x+	c #374665",
"y+	c #2B3A5C",
"z+	c #2D3C5C",
"A+	c #334263",
"B+	c #303E5D",
"C+	c #2C3855",
"D+	c #2D3A57",
"E+	c #26314C",
"F+	c #2F3B55",
"G+	c #2E3952",
"H+	c #525D78",
"I+	c #212838",
"J+	c #323D58",
"K+	c #5E667A",
"L+	c #7A8292",
"M+	c #23314F",
"N+	c #9297A5",
"O+	c #6D768B",
"P+	c #606B86",
"Q+	c #5D6982",
"R+	c #2D3D60",
"S+	c #9097A7",
"T+	c #324164",
"U+	c #303F61",
"V+	c #7E879A",
"W+	c #404E6F",
"X+	c #7A8296",
"Y+	c #4B5775",
"Z+	c #5F6A83",
"`+	c #6E788F",
" @	c #354462",
".@	c #6E768A",
"+@	c #44506A",
"@@	c #7B8292",
"#@	c #25324F",
"$@	c #9196A1",
"%@	c #455066",
"&@	c #37415B",
"*@	c #303A50",
"=@	c #2C3852",
"-@	c #2B3752",
";@	c #3A4660",
">@	c #35425F",
",@	c #3A4763",
"'@	c #354364",
")@	c #303F60",
"!@	c #374666",
"~@	c #3E4B68",
"{@	c #394765",
"]@	c #3B4A69",
"^@	c #31405F",
"/@	c #3D4860",
"(@	c #3C4660",
"_@	c #3C3237",
":@	c #4A3F46",
"<@	c #493F47",
"[@	c #4A4049",
"}@	c #4B434B",
"|@	c #4C444D",
"1@	c #4E4650",
"2@	c #504952",
"3@	c #514A54",
"4@	c #524B54",
"5@	c #544C54",
"6@	c #564E53",
"7@	c #584F52",
"8@	c #5C5151",
"9@	c #615350",
"0@	c #66554F",
"a@	c #6D574D",
"b@	c #745A4B",
"c@	c #7D5B46",
"d@	c #825C42",
"e@	c #845A3F",
"f@	c #82573D",
"g@	c #7F543C",
"h@	c #7E523A",
"i@	c #7C4F38",
"j@	c #85533A",
"k@	c #293755",
"l@	c #2B3956",
"m@	c #2D3B5A",
"n@	c #2E3D5C",
"o@	c #2F3E5F",
"p@	c #314061",
"q@	c #314264",
"r@	c #324366",
"s@	c #314366",
"t@	c #314265",
"u@	c #304266",
"v@	c #2F4165",
"w@	c #2E4165",
"x@	c #2C3F64",
"y@	c #2A3D61",
"z@	c #273A5F",
"A@	c #26385A",
"B@	c #2C3955",
"C@	c #393D50",
"D@	c #494149",
"E@	c #543E38",
"F@	c #663E26",
"G@	c #894C25",
"H@	c #333F5A",
"I@	c #303D58",
"J@	c #32405D",
"K@	c #364463",
"L@	c #374565",
"M@	c #374566",
"N@	c #374567",
"O@	c #394667",
"P@	c #364462",
"Q@	c #313D58",
"R@	c #2A3349",
"S@	c #262D40",
"T@	c #212836",
"U@	c #212839",
"V@	c #2F3B58",
"W@	c #303E5A",
"X@	c #34425F",
"Y@	c #364260",
"Z@	c #34415D",
"`@	c #323E59",
" #	c #2A344A",
".#	c #273043",
"+#	c #242B3C",
"@#	c #1B222F",
"                                                                ",
"                                                                ",
"                                                                ",
"                                                                ",
"                                                                ",
"                                                                ",
"                                                                ",
"                                                                ",
"  . + @ # $ $ % & * = - ; > , ' ) ! ~ { ] ^ / (                 ",
"_ : < [ } | 1 2 3 4 5 6 7 8 9 0 9 a b c d 4 3 e f g h i j k     ",
"l m n | o p q r s 6 t u v w w w w w x y z A 6 B r q C | } m D   ",
"E F G H I J K L M N O P Q R S T U V W x X b Y Z `  ...n +.@.#.$.",
"  %.} &.*.=.-.;.>.,.'.).!.~.{.].^./.(.(._.:.<.[.}.|.1.2.3.4.5.6.",
"  7.G 8.9.0.a.b.c.d.e.f.g.h.i.j.k.l.m.n.o.p.q.r.s.t.u.v.w.G x.y.",
"  z.A.B.C.e D.E.F.y G.H.I.J.K.L.M.N.J.O.P.Q.R.S.T.U.V.p B.8.W.  ",
"  X.Y.Z.`. +.+++@+#+$+%+&+K.*+=+-+;+>+,+'+)+!+~+{+U.]+^+/+(+_+  ",
"    :+<+[+}+|+1+2+3+4+5+6+7+8+9+0+a+b+;+c+V y d+e+f+g+h+i+j+k+  ",
"    l+m+n+o+p+q+r+s+$+t+u+v+w+x+y+W V W z+A+0 B+C+D+E+p F+G+H+  ",
"    I+J+K+L+M+N+A O+P+Q+R+S+T+U+V+W+X+Y+Z+`+ @.@+@@@#@$@%@&@    ",
"      *@=@-@q ;@>@,@g.'@>+)@!@U ~@A+{@]@>+^@A s 3 /@C j+m (@    ",
"      _@:@<@[@}@|@1@2@3@4@5@6@7@8@9@0@a@b@c@d@e@f@g@h@i@j@      ",
"        B.k@l@m@n@o@p@q@r@s@s@t@u@v@w@x@y@z@A@B@C@D@E@F@G@      ",
"        l H@2 I@B J@7 0 K@L@M@b+b+N@M@O@P@Q@R@S@T@              ",
"          U@J+C.V@W@s X@Y@Z@`@G+ #.#+#@#                        ",
"                                                                ",
"                                                                ",
"                                                                ",
"                                                                ",
"                                                                ",
"                                                                ",
"                                                                ",
"                                                                "};
