/* XPM */
static char * gnome_16x16_xpm[] = {
"16 16 5 1",
" 	c None",
".	c #4F453E",
"+	c #D9D5D1",
"@	c #96897F",
"#	c #0D0C0A",
"       ..       ",
"      ++@#      ",
"    .@@@@#      ",
"   .+@####      ",
"  .+@##.++.     ",
"  @## .+@@#     ",
" .++..+@@@#     ",
" .+@#+@@@##..   ",
"  .##+@@##.++.  ",
"    .+@@#.+@@#  ",
"     .@@#..@@#  ",
"     .@@@++@@#  ",
"      #@@@@@#   ",
"       #@@@##   ",
"        ####    ",
"                "};
