/* XPM */
static char *window_list_16x16[] = {
/* columns rows colors chars-per-pixel */
"17 16 33 1",
"  c #075474",
". c #0a5c7c",
"X c #225956",
"o c #255c58",
"O c #26615e",
"+ c #256462",
"@ c #2c6863",
"# c #2b6e6a",
"$ c #337973",
"% c #555555",
"& c #466e6c",
"* c #075d83",
"= c #0c6484",
"- c #0f6c8d",
"; c #096990",
": c #0c739a",
"> c #127394",
", c #147a9c",
"< c #0f7ca4",
"1 c #38837d",
"2 c #1386af",
"3 c #168fb8",
"4 c #3e8c85",
"5 c #1998c2",
"6 c #409088",
"7 c #588496",
"8 c gray53",
"9 c #c3c3c3",
"0 c #e6e6e6",
"q c #ebebeb",
"w c #f4f4f4",
"e c #fcfcfc",
"r c None",
/* pixels */
"rrrrrOOrrrrrrrrrr",
"rrrrrOeOOrrrrrrrr",
"rrrr%8986OOrrrrrr",
"rrrr%e8$61$OOrrrr",
"rrr%wwew@@$#+OOrr",
"rrr%wwwwwqooXe9&r",
"rr%wqwwww000898&r",
"************08%rr",
"*e9532<,;e9*00%rr",
"*98,>-=* 98*0%rrr",
"%eeeeewww00%0%rrr",
"%eeeewwwqq0%%rrrr",
"%eeeewwww00%%rrrr",
"%eeeewwwq00%rrrrr",
"%wwwwwwq000%rrrrr",
"%%%%%%%%%%%%rrrrr"
};
