/* XPM */
static char *closeA0[] = {
/* width height num_colors chars_per_pixel */
"    28    42        5            1",
/* colors */
". c #000000",
"# c #ffffff",
"a c #cfcfff",
"b c #65659a",
"c c #9a9acf",
/* pixels */
"aaaaaaaaaaaaaaaaaaaaaaaaaaab",
"aaaaaaaaaaaaaaaaaaaaaaaaaaaa",
"aaaaaaaaaaaaaaaaaaaaaaaaaaaa",
"aaaaaaaaa..............aaaaa",
"aaaaaaaaa.bbbbbbbbbbbbb#aaaa",
"aaaaaaaaa.baaaaaaaaaabb#aaaa",
"aaaaaaaaa.baa.aaaa.aa.b#aaaa",
"aaaaaaaaa.ba.bbaa.bba.b#aaaa",
"aaaaaaaaa.baabbb.bb#a.b#aaaa",
"aaaaaaaaa.baaabbbb#aa.b#aaaa",
"aaaaaaaaa.baaa.bbb#aa.b#aaaa",
"aaaaaaaaa.baa.bbbbbaa.b#aaaa",
"aaaaaaaaa.ba.bb##bbba.b#aaaa",
"aaaaaaaaa.baab#aaab##.b#aaaa",
"aaaaaaaaa.baaaaaaaa#a.b#aaaa",
"aaaaaaaaa.bb..........b#aaaa",
"aaaaaaaaa.bbbbbbbbbbbbb#aaaa",
"aaaaaaaaaa##############aaaa",
"aaaaaaaaaaaaaaaaaaaaaaaaaaaa",
"aaaaaaaaaaaaaaaaaaaaaaaaaaaa",
"bbbbbbbbbbbbbbbbbbbbbbbbbbbb",
"aaaaaaaaaaaaaaaaaaaaaaaaaaab",
"aaaaaaaaaaaaaaaaaaaaaaaaaaaa",
"aaaaaaaaaaaaaaaaaaaaaaaaaaaa",
"aaaaaaaaa..............aaaaa",
"aaaaaaaaa..............#aaaa",
"aaaaaaaaa..cccccccccc..#aaaa",
"aaaaaaaaa..cc.cccc.cc..#aaaa",
"aaaaaaaaa..c...cc...c..#aaaa",
"aaaaaaaaa..cc......cc..#aaaa",
"aaaaaaaaa..ccc....ccc..#aaaa",
"aaaaaaaaa..ccc....ccc..#aaaa",
"aaaaaaaaa..cc......cc..#aaaa",
"aaaaaaaaa..c...cc...c..#aaaa",
"aaaaaaaaa..cc.cccc.cc..#aaaa",
"aaaaaaaaa..cccccccccc..#aaaa",
"aaaaaaaaa..............#aaaa",
"aaaaaaaaa..............#aaaa",
"aaaaaaaaaa##############aaaa",
"aaaaaaaaaaaaaaaaaaaaaaaaaaaa",
"aaaaaaaaaaaaaaaaaaaaaaaaaaaa",
"bbbbbbbbbbbbbbbbbbbbbbbbbbbb"
};
