/* XPM */
static char *frameABL[] = {
/* width height num_colors chars_per_pixel */
"    16    16        6            1",
/* colors */
". c #ffffff",
"# c #cccccc",
"a c #666666",
"b c #999999",
"c c #000000",
"d c #c0c0c0",
/* pixels */
"bbb#bb..........",
"bbbbbb..........",
"bbbbbb..........",
"bbbbbb..........",
"bbbbbb..........",
"bbbbbb..........",
"bbbbbb..........",
"bbbbbb..........",
"bbbbbb..........",
"bbbbbb..........",
"bbbbbbbbbbbbbbbb",
"bbbbbbbbbbbbbbbb",
"bbbbbbbbbbbbbbba",
"bbbbbbbbbbbbbbbb",
"bbbbbbbbbbbbbbbb",
"dbbbbbbbbbbbbbbb"
};
