/* XPM */
static char * ssh_16x16_xpm[] = {
"16 16 149 2",
"  	c None",
". 	c #4B3716",
"+ 	c #8D6608",
"@ 	c #5B461A",
"# 	c #8D6204",
"$ 	c #EDA905",
"% 	c #BA8205",
"& 	c #DE9D04",
"* 	c #DD9D05",
"= 	c #986B05",
"- 	c #9B6E09",
"; 	c #65541F",
"> 	c #D69905",
", 	c #DB9805",
"' 	c #C58A05",
") 	c #F9B203",
"! 	c #C68B04",
"~ 	c #F8B202",
"{ 	c #B98004",
"] 	c #E7A505",
"^ 	c #77550C",
"/ 	c #895F05",
"( 	c #D29204",
"_ 	c #D69903",
": 	c #E4A305",
"< 	c #D59406",
"[ 	c #F9B204",
"} 	c #D59604",
"| 	c #E4A105",
"1 	c #F5AF04",
"2 	c #E0A008",
"3 	c #9B700A",
"4 	c #C08B07",
"5 	c #D89A03",
"6 	c #E8A605",
"7 	c #E09D05",
"8 	c #E5A205",
"9 	c #EAA704",
"0 	c #F6AE04",
"a 	c #EAA605",
"b 	c #EAA505",
"c 	c #CD8F0A",
"d 	c #C29A5A",
"e 	c #A47408",
"f 	c #BA8405",
"g 	c #DB9C04",
"h 	c #DF9E03",
"i 	c #E1A007",
"j 	c #F2AD04",
"k 	c #F5AE04",
"l 	c #F6AF05",
"m 	c #F0AB05",
"n 	c #A67718",
"o 	c #C9B399",
"p 	c #78571E",
"q 	c #7C694E",
"r 	c #C78E04",
"s 	c #D49604",
"t 	c #D39404",
"u 	c #F8B004",
"v 	c #FBB305",
"w 	c #F9B104",
"x 	c #FBB203",
"y 	c #F7AF04",
"z 	c #F3AC02",
"A 	c #E5A105",
"B 	c #C09F59",
"C 	c #966E1F",
"D 	c #836831",
"E 	c #EAA703",
"F 	c #BF8806",
"G 	c #C48A07",
"H 	c #E5A305",
"I 	c #FDB404",
"J 	c #EEAA06",
"K 	c #F4AE05",
"L 	c #EFAB04",
"M 	c #F8B005",
"N 	c #D89905",
"O 	c #DA9903",
"P 	c #FFB401",
"Q 	c #D49502",
"R 	c #A27935",
"S 	c #9D7431",
"T 	c #987417",
"U 	c #B4810B",
"V 	c #F0A903",
"W 	c #CE9304",
"X 	c #C08706",
"Y 	c #CF9405",
"Z 	c #EFA903",
"` 	c #E8A405",
" .	c #D69806",
"..	c #CC8E02",
"+.	c #FDB402",
"@.	c #A67403",
"#.	c #94713D",
"$.	c #8C5F04",
"%.	c #7D5506",
"&.	c #705618",
"*.	c #B8860C",
"=.	c #956904",
"-.	c #D09204",
";.	c #CC8E05",
">.	c #E1A104",
",.	c #F2AC06",
"'.	c #E7A306",
").	c #C78C05",
"!.	c #C78804",
"~.	c #DFA006",
"{.	c #826130",
"].	c #7A5208",
"^.	c #8D6406",
"/.	c #393017",
"(.	c #EAA705",
"_.	c #DC9B04",
":.	c #E8A504",
"<.	c #F2AB04",
"[.	c #DC9D05",
"}.	c #F2AD05",
"|.	c #DB9B05",
"1.	c #DB9B03",
"2.	c #E7A406",
"3.	c #C28806",
"4.	c #B17E07",
"5.	c #5A481C",
"6.	c #765715",
"7.	c #C18806",
"8.	c #CA8E04",
"9.	c #EBA803",
"0.	c #DF9E05",
"a.	c #EBA705",
"b.	c #C58903",
"c.	c #F1AC05",
"d.	c #CA8D05",
"e.	c #5D4617",
"f.	c #6F5B20",
"g.	c #8C6203",
"h.	c #D59806",
"i.	c #BF8505",
"j.	c #BD8305",
"k.	c #C88D05",
"l.	c #BE8604",
"m.	c #B98406",
"n.	c #5F4613",
"o.	c #634A0B",
"p.	c #885F07",
"q.	c #986C08",
"r.	c #70530E",
"                                ",
"              . + @             ",
"          # $ % & * = -         ",
"      ; > , ' ) ! ~ { ] ^       ",
"      / ( _ : < [ } | 1 2 3     ",
"    4 5 6 7 8 9 0 a b c d e     ",
"    f g h i j k l 1 m n o p q   ",
"    r s t u v w x y z A B C D   ",
"E F G H I J K L M N O P Q R S T ",
"U V W X Y w Z l `  ...+.@.#.$.%.",
"&.*.=.-.;.>.] ,.'.).!.N ~.{.].^.",
"    /.(._.:.<.[.}.|.1.2.3.4.5.  ",
"      6.7.8.9.0.a.'.b.c.d.e.    ",
"        f.g.h.i.j.k.l.m.n.      ",
"              o.p.q.r.          ",
"                                "};
