/* XPM */
static char * restoreA_xpm[] = {
"24 52 664 2",
"  	c None",
". 	c #0465F0",
"+ 	c #0765ED",
"@ 	c #0C65E7",
"# 	c #0B63E1",
"$ 	c #0C64E2",
"% 	c #0C64E0",
"& 	c #0B65E0",
"* 	c #0965E4",
"= 	c #0766E8",
"- 	c #0466EF",
"; 	c #0971F4",
"> 	c #065CE3",
", 	c #0C5BD4",
"' 	c #175BC0",
") 	c #1C59B4",
"! 	c #1C59B2",
"~ 	c #1D59B1",
"{ 	c #1D58B2",
"] 	c #1859BD",
"^ 	c #055BE2",
"/ 	c #1058D0",
"( 	c #5D97FB",
"_ 	c #BFF1FF",
": 	c #D6FFFF",
"< 	c #D5FFFF",
"[ 	c #D4FFFF",
"} 	c #CFFFFF",
"| 	c #5A98FF",
"1 	c #1158CE",
"2 	c #005CEB",
"3 	c #5D95F6",
"4 	c #BFE7FF",
"5 	c #769BEC",
"6 	c #678DE2",
"7 	c #5C85DF",
"8 	c #537FE0",
"9 	c #4E7BE0",
"0 	c #4878DE",
"a 	c #4A79E1",
"b 	c #4574DE",
"c 	c #4475DE",
"d 	c #4272DE",
"e 	c #4073E0",
"f 	c #396BDA",
"g 	c #396DDD",
"h 	c #366BDF",
"i 	c #3064DA",
"j 	c #2A5ED4",
"k 	c #3669D4",
"l 	c #B2DFFF",
"m 	c #6194EF",
"n 	c #0058E6",
"o 	c #799CED",
"p 	c #8FAEFE",
"q 	c #8EB2FF",
"r 	c #80A7FF",
"s 	c #729CFF",
"t 	c #6B97FF",
"u 	c #6492FF",
"v 	c #6191FF",
"w 	c #5F8EFF",
"x 	c #5B8DFF",
"y 	c #5A8BFF",
"z 	c #5588FE",
"A 	c #5286FF",
"B 	c #4C82FF",
"C 	c #467DFE",
"D 	c #3C75F8",
"E 	c #326BF0",
"F 	c #2A5CCF",
"G 	c #3B5CA9",
"H 	c #C6EFFF",
"I 	c #0056E4",
"J 	c #D9FFFF",
"K 	c #6B8FE3",
"L 	c #91B4FF",
"M 	c #94B7FF",
"N 	c #86AAFF",
"O 	c #78A0FF",
"P 	c #709AFE",
"Q 	c #6A95FD",
"R 	c #6692FD",
"S 	c #638EFE",
"T 	c #608EFE",
"U 	c #5F8CFF",
"V 	c #5B8AFE",
"W 	c #5687FE",
"X 	c #5082FB",
"Y 	c #497FFD",
"Z 	c #4178F9",
"` 	c #366FF2",
" .	c #2E60D1",
"..	c #244690",
"+.	c #DBFFFF",
"@.	c #0054E3",
"#.	c #5F87DF",
"$.	c #85AAFF",
"%.	c #89ADFF",
"&.	c #7FA3F9",
"*.	c #7299F6",
"=.	c #6993F7",
"-.	c #5980DF",
";.	c #4F75D2",
">.	c #4B6FCD",
",.	c #476DCF",
"'.	c #446CCF",
").	c #3F69CD",
"!.	c #3F6AD1",
"~.	c #3A66D0",
"{.	c #3562CF",
"].	c #3B72F3",
"^.	c #346DF0",
"/.	c #2F61D2",
"(.	c #284893",
"_.	c #0055E4",
":.	c #5981E0",
"<.	c #779FFF",
"[.	c #7AA1FE",
"}.	c #6791F5",
"|.	c #608BF4",
"1.	c #4B6FCC",
"2.	c #FFFFFF",
"3.	c #2B5BCD",
"4.	c #316BF0",
"5.	c #2F68ED",
"6.	c #3163D4",
"7.	c #2C4C97",
"8.	c #D8FFFF",
"9.	c #537FE2",
"0.	c #6C97FF",
"a.	c #6F99FD",
"b.	c #628DF6",
"c.	c #5B86F6",
"d.	c #4870D7",
"e.	c #2759CE",
"f.	c #2E69F1",
"g.	c #2F69EF",
"h.	c #2B4D97",
"i.	c #4E79E1",
"j.	c #6692FF",
"k.	c #6893FC",
"l.	c #577DD9",
"m.	c #5074D2",
"n.	c #4A6ECE",
"o.	c #436BD0",
"p.	c #7298F6",
"q.	c #749AF7",
"r.	c #6D96F7",
"s.	c #6A95F8",
"t.	c #6594F6",
"u.	c #1F54CA",
"v.	c #2A69F4",
"w.	c #2D68F0",
"x.	c #2F62D5",
"y.	c #4D79E4",
"z.	c #5E8BFE",
"A.	c #618DFA",
"B.	c #5076D3",
"C.	c #5E8FF8",
"D.	c #6999F8",
"E.	c #1D56CE",
"F.	c #2567F3",
"G.	c #2969F1",
"H.	c #2E63D5",
"I.	c #2A4B98",
"J.	c #0055E6",
"K.	c #4373E1",
"L.	c #5687FD",
"M.	c #5C8AFA",
"N.	c #4E75D3",
"O.	c #6896F8",
"P.	c #6898F8",
"Q.	c #1C58CF",
"R.	c #2368F3",
"S.	c #2668F0",
"T.	c #2C63D7",
"U.	c #274B97",
"V.	c #0056E9",
"W.	c #3D6FE0",
"X.	c #4F81FA",
"Y.	c #5685F9",
"Z.	c #4A72D1",
"`.	c #759BF7",
" +	c #7099F7",
".+	c #6C97F8",
"++	c #6393F6",
"@+	c #7295E0",
"#+	c #6A93E1",
"$+	c #1A5BD0",
"%+	c #216AF4",
"&+	c #2469F2",
"*+	c #2962D6",
"=+	c #244997",
"-+	c #0057EC",
";+	c #396CE1",
">+	c #4A7DFC",
",+	c #5283F9",
"'+	c #4870D1",
")+	c #789FF8",
"!+	c #759CF8",
"~+	c #6D99F7",
"{+	c #6493F8",
"]+	c #195ED1",
"^+	c #1C6CF5",
"/+	c #1D69F2",
"(+	c #2362D6",
"_+	c #214897",
":+	c #0059EE",
"<+	c #3367DF",
"[+	c #4279FA",
"}+	c #4C7EF7",
"|+	c #466DC7",
"1+	c #709BF7",
"2+	c #6A98F8",
"3+	c #4570D3",
"4+	c #416CD1",
"5+	c #1C62D3",
"6+	c #1860D3",
"7+	c #1A6EF5",
"8+	c #1969F2",
"9+	c #1D5ED4",
"0+	c #1E4797",
"a+	c #005BF2",
"b+	c #D2FFFF",
"c+	c #2C62DE",
"d+	c #3B74F9",
"e+	c #7B98E0",
"f+	c #7F9CE1",
"g+	c #7B9BE0",
"h+	c #789AE1",
"i+	c #7198E2",
"j+	c #1A63D0",
"k+	c #2077FA",
"l+	c #1A72F8",
"m+	c #176FF7",
"n+	c #1568F2",
"o+	c #185DD4",
"p+	c #1B4496",
"q+	c #025FF8",
"r+	c #D1FFFF",
"s+	c #265DDB",
"t+	c #356FF7",
"u+	c #476FCB",
"v+	c #1964D5",
"w+	c #1E76FB",
"x+	c #1773FA",
"y+	c #116DF6",
"z+	c #1065F3",
"A+	c #1359D3",
"B+	c #174193",
"C+	c #0061F8",
"D+	c #2059DA",
"E+	c #2E68F7",
"F+	c #4065B8",
"G+	c #3C5EAC",
"H+	c #305BBD",
"I+	c #2F5CBD",
"J+	c #2D5CBF",
"K+	c #2A5EC2",
"L+	c #235DC2",
"M+	c #1A67DD",
"N+	c #2A79F0",
"O+	c #1E76FC",
"P+	c #1672FB",
"Q+	c #0F6CF7",
"R+	c #0C63F1",
"S+	c #0E55D1",
"T+	c #143E92",
"U+	c #0064F8",
"V+	c #CEFFFF",
"W+	c #1C57D9",
"X+	c #2562F1",
"Y+	c #316BF3",
"Z+	c #3E70E9",
"`+	c #396BE4",
" @	c #3A6CDF",
".@	c #396CDF",
"+@	c #386DDF",
"@@	c #366DE1",
"#@	c #326FE4",
"$@	c #2B70E9",
"%@	c #2F75E4",
"&@	c #2574F3",
"*@	c #1B71F8",
"=@	c #126EF7",
"-@	c #0C67F4",
";@	c #095FF0",
">@	c #0D52D1",
",@	c #133D91",
"'@	c #046AFD",
")@	c #CDFFFF",
"!@	c #1651D1",
"~@	c #1E5BEA",
"{@	c #2962ED",
"]@	c #3167EB",
"^@	c #246DED",
"/@	c #1D6BF1",
"(@	c #1669F3",
"_@	c #0A5FEE",
":@	c #0759EB",
"<@	c #0A4ECB",
"[@	c #113A8A",
"}@	c #026AFD",
"|@	c #B6F5FF",
"1@	c #2960D4",
"2@	c #1B4FC9",
"3@	c #2255CB",
"4@	c #2859CF",
"5@	c #2D5CD0",
"6@	c #2D5CCE",
"7@	c #2A5DD0",
"8@	c #295ED0",
"9@	c #255ED1",
"0@	c #225FD2",
"a@	c #1E5FD3",
"b@	c #1A5DD2",
"c@	c #165BD4",
"d@	c #1258D2",
"e@	c #0D53CF",
"f@	c #0C46B4",
"g@	c #264F9E",
"h@	c #056DFF",
"i@	c #5AA1FF",
"j@	c #AFDEFF",
"k@	c #3357A5",
"l@	c #1C408E",
"m@	c #234493",
"n@	c #244592",
"o@	c #224694",
"p@	c #1F4492",
"q@	c #1E4594",
"r@	c #1A4393",
"s@	c #1A4496",
"t@	c #174195",
"u@	c #153F95",
"v@	c #123A8F",
"w@	c #244EA0",
"x@	c #AFDDFF",
"y@	c #639FFF",
"z@	c #1762DF",
"A@	c #659AF8",
"B@	c #C1F0FF",
"C@	c #639AFE",
"D@	c #1C62D4",
"E@	c #0466FB",
"F@	c #0D5DEA",
"G@	c #125CE3",
"H@	c #155BDF",
"I@	c #165BDC",
"J@	c #165BDD",
"K@	c #165CDE",
"L@	c #165ADF",
"M@	c #055FF4",
"N@	c #0349CB",
"O@	c #0449CB",
"P@	c #0349CD",
"Q@	c #044ACC",
"R@	c #054ECF",
"S@	c #164398",
"T@	c #184298",
"U@	c #164299",
"V@	c #164499",
"W@	c #1B57AF",
"X@	c #1A57B4",
"Y@	c #1657BB",
"Z@	c #0F58C9",
"`@	c #0559DD",
" #	c #FEFE00",
".#	c #8AA9C8",
"+#	c #7D9DC0",
"@#	c #7497BD",
"##	c #6C91BE",
"$#	c #688EBE",
"%#	c #638BBC",
"&#	c #648CBF",
"*#	c #6088BC",
"=#	c #5F89BC",
"-#	c #5E86BC",
";#	c #5C87BE",
">#	c #5680B9",
",#	c #5682BC",
"'#	c #5380BD",
")#	c #4E7AB9",
"!#	c #4975B4",
"~#	c #5681B1",
"{#	c #89A7D0",
"]#	c #9FB9D8",
"^#	c #9EBDD9",
"/#	c #92B3D9",
"(#	c #86AAD9",
"_#	c #80A6D9",
":#	c #7AA2D9",
"<#	c #78A1D9",
"[#	c #769ED9",
"}#	c #739DD9",
"|#	c #729CD9",
"1#	c #6E99D8",
"2#	c #6B97D9",
"3#	c #6694D9",
"4#	c #6190D8",
"5#	c #5889D3",
"6#	c #5080CC",
"7#	c #4974B0",
"8#	c #5F7A89",
"9#	c #7899CE",
"0#	c #A4C1D1",
"a#	c #A3C1D9",
"b#	c #97B6D9",
"c#	c #8BAED9",
"d#	c #85A8D8",
"e#	c #80A4D7",
"f#	c #7CA2D7",
"g#	c #7A9ED8",
"h#	c #779ED8",
"i#	c #769CD9",
"j#	c #739BD8",
"k#	c #6F98D8",
"l#	c #6994D5",
"m#	c #6391D7",
"n#	c #5D8BD3",
"o#	c #5384CD",
"p#	c #4C77B1",
"q#	c #4F6A73",
"r#	c #799ABA",
"s#	c #9AB9D9",
"t#	c #8AABE2",
"u#	c #86A8D1",
"v#	c #7FA2D2",
"w#	c #7192BD",
"x#	c #6989B2",
"y#	c #6584AE",
"z#	c #6282B0",
"A#	c #5F81B0",
"B#	c #5B7FAE",
"C#	c #5B80B1",
"D#	c #577CB1",
"E#	c #567BAC",
"F#	c #5886CE",
"G#	c #5282CC",
"H#	c #4D78B2",
"I#	c #536D75",
"J#	c #7193BE",
"K#	c #8DAED5",
"L#	c #8DAED8",
"M#	c #83A5D8",
"N#	c #7FA2CC",
"O#	c #779CCF",
"P#	c #6584AD",
"Q#	c #4A73AE",
"R#	c #4F80CC",
"S#	c #4D7EC9",
"T#	c #527CB1",
"U#	c #536D7A",
"V#	c #6C91C0",
"W#	c #81A6D9",
"X#	c #84A8D7",
"Y#	c #799DD1",
"Z#	c #7397D1",
"`#	c #5E81BC",
" $	c #4771AF",
".$	c #4C7FCD",
"+$	c #4D7FCB",
"@$	c #5780AA",
"#$	c #557078",
"$$	c #6A8EBB",
"%$	c #7CA2D9",
"&$	c #80A4D2",
"*$	c #6F90B8",
"=$	c #5F80BF",
"-$	c #6483AF",
";$	c #5E80B1",
">$	c #91AFC5",
",$	c #88A9DA",
"'$	c #85A7DA",
")$	c #81A5DB",
"!$	c #7FA7D3",
"~$	c #406DAB",
"{$	c #497FCF",
"]$	c #4C7ECC",
"^$	c #567FAB",
"/$	c #4A6780",
"($	c #658AC4",
"_$	c #759CD8",
":$	c #789DD4",
"<$	c #698AB3",
"[$	c #FEFE0D",
"}$	c #84AAD5",
"|$	c #85ACD0",
"1$	c #4271AC",
"2$	c #457DCE",
"3$	c #487FCD",
"4$	c #6E9292",
"5$	c #516C7B",
"6$	c #648CB8",
"7$	c #6F98D7",
"8$	c #749BD4",
"9$	c #6A8BB0",
"0$	c #8CAFCD",
"a$	c #81A9D4",
"b$	c #3D70B0",
"c$	c #437ECE",
"d$	c #4980C8",
"e$	c #5A85A5",
"f$	c #476580",
"g$	c #5C86BB",
"h$	c #6993D4",
"i$	c #6F97D3",
"j$	c #6486B1",
"k$	c #97B3C3",
"l$	c #9AB6C2",
"m$	c #96B3C2",
"n$	c #88ABD1",
"o$	c #7EA6D6",
"p$	c #94AFBB",
"q$	c #8CACBF",
"r$	c #3B73B1",
"s$	c #4180CF",
"t$	c #447FCD",
"u$	c #6A9193",
"v$	c #446380",
"w$	c #5C86B8",
"x$	c #6490D6",
"y$	c #6B95D3",
"z$	c #6385B1",
"A$	c #91B0D0",
"B$	c #97B4C0",
"C$	c #95B4BD",
"D$	c #8DB0BF",
"E$	c #86ADD1",
"F$	c #3B75B1",
"G$	c #3D81D0",
"H$	c #3E7FCD",
"I$	c #4379B6",
"J$	c #48687B",
"K$	c #547FBA",
"L$	c #5E8CD4",
"M$	c #6691D2",
"N$	c #6182A9",
"O$	c #89ABD4",
"P$	c #89ACCB",
"Q$	c #8BAFCE",
"R$	c #87ADD0",
"S$	c #6085B3",
"T$	c #698AA4",
"U$	c #467FAB",
"V$	c #3A77B3",
"W$	c #3B83D0",
"X$	c #3B7FCD",
"Y$	c #3E75B4",
"Z$	c #48697A",
"`$	c #517EB5",
" %	c #5888D3",
".%	c #6484A6",
"+%	c #93ABC4",
"@%	c #96AEC1",
"#%	c #8FABC4",
"$%	c #8BA8C4",
"%%	c #8DACC0",
"&%	c #437EAA",
"*%	c #488FCC",
"=%	c #448CC9",
"-%	c #3984D2",
";%	c #377ECD",
">%	c #3A74B4",
",%	c #43657A",
"'%	c #4070C0",
")%	c #5284D2",
"!%	c #6284AC",
"~%	c #4480AC",
"{%	c #4A91C8",
"]%	c #4B91C7",
"^%	c #458EC8",
"/%	c #3482D1",
"(%	c #337BCE",
"_%	c #3974B0",
":%	c #3D607A",
"<%	c #4474B6",
"[%	c #4C7ED2",
"}%	c #5D80B2",
"|%	c #5C7B9C",
"1%	c #587592",
"2%	c #4E73A0",
"3%	c #4D74A0",
"4%	c #4C74A2",
"5%	c #4975A5",
"6%	c #4374A5",
"7%	c #3B7DBC",
"8%	c #498CCC",
"9%	c #428CD2",
"0%	c #3F8BCD",
"a%	c #3281D2",
"b%	c #307ACD",
"c%	c #316EB1",
"d%	c #406276",
"e%	c #3D6FB8",
"f%	c #4579CD",
"g%	c #4F80CE",
"h%	c #5A85C6",
"i%	c #5680C2",
"j%	c #5781BD",
"k%	c #5681BD",
"l%	c #5582BD",
"m%	c #5382BF",
"n%	c #5084C2",
"o%	c #4A85C6",
"p%	c #4D89C2",
"q%	c #4588CE",
"r%	c #3C86D3",
"s%	c #3583D2",
"t%	c #307DCF",
"u%	c #2D76CC",
"v%	c #346EAE",
"w%	c #395C79",
"x%	c #2A60BE",
"y%	c #4275C3",
"z%	c #4879C9",
"A%	c #4F7DC7",
"B%	c #4482C9",
"C%	c #3E80CD",
"D%	c #387FCE",
"E%	c #2E76CA",
"F%	c #2B71C7",
"G%	c #2E68AC",
"H%	c #345775",
"I%	c #4F7CAD",
"J%	c #406BA7",
"K%	c #426EAC",
"L%	c #4771B0",
"M%	c #4C74B1",
"N%	c #4C74AF",
"O%	c #4974B1",
"P%	c #4875B1",
"Q%	c #4575B1",
"R%	c #4276B2",
"S%	c #3F76B3",
"T%	c #3B74B2",
"U%	c #3873B4",
"V%	c #3570B2",
"W%	c #306CB0",
"X%	c #3D6B8F",
"Y%	c #40648A",
"Z%	c #516F8C",
"`%	c #3D5C78",
" &	c #435F7D",
".&	c #44607C",
"+&	c #42617D",
"@&	c #405F7C",
"#&	c #3F607D",
"$&	c #3B5E7D",
"%&	c #3B5F7F",
"&&	c #395D7E",
"*&	c #375B7E",
"=&	c #385A77",
"-&	c #2F5697",
";&	c #1258DC",
">&	c #165CE0",
",&	c #1256DB",
"'&	c #0F57DF",
")&	c #0955E7",
"!&	c #074DCF",
"~&	c #064CCE",
"{&	c #0448CD",
"]&	c #0548CD",
". + @ # $ % $ % $ $ $ $ $ % $ % & & * = - ; ; ; ",
"> , ' ) ! ~ { ~ { { { { { ~ { ~ ~ ~ ] , ^ . . . ",
"/ ( _ : : : : < < < < < < < < [ [ [ } | 1 2 2 2 ",
"3 4 5 6 7 8 9 0 a b c d e f g h i j k l m n n n ",
": o p q r s t u v w x y z A B C D E F G H I I I ",
"J K L M N O P Q R S T U V W X Y Z `  ...+.@.@.@.",
"+.#.$.%.&.*.=.-.;.>.,.'.).!.~.{.].^./.(.+._._._.",
"J :.<.[.*.}.|.1.2.2.2.2.2.2.2.3.4.5.6.7.+._._._.",
"8.9.0.a.=.b.c.d.2.2.2.2.2.2.2.e.f.g.6.h.+._._._.",
"8.i.j.k.l.m.n.o.2.p.q.r.s.t.2.u.v.w.x.h.+._._._.",
": y.z.A.B.2.2.2.2.2.2.2.C.D.2.E.F.G.H.I.+.J.J.J.",
": K.L.M.N.2.2.2.2.2.2.2.O.P.2.Q.R.S.T.U.+.V.V.V.",
"< W.X.Y.Z.2.p.`. +.+++2.@+#+2.$+%+&+*+=+J -+-+-+",
"< ;+>+,+'+2.)+!+~+{+D.2.2.2.2.]+^+/+(+_+8.:+:+:+",
"[ <+[+}+|+2.)+!+1+2+D.2.3+4+5+6+7+8+9+0+: a+a+a+",
"b+c+d+}+|+2.e+f+g+h+i+2.j+k+k+l+m+n+o+p+: q+q+q+",
"r+s+t+}+u+2.2.2.2.2.2.2.v+w+w+x+y+z+A+B+< C+C+C+",
"} D+E+}+u+F+G+H+I+J+K+L+M+N+O+P+Q+R+S+T+< U+U+U+",
"V+W+X+Y+Z+`+ @.@+@@@#@$@%@&@*@=@-@;@>@,@< '@'@'@",
")@!@~@{@]@`+ @.@+@@@#@$@^@/@(@z+_@:@<@[@< }@}@}@",
"|@1@2@3@4@5@6@F 7@8@9@0@a@b@c@d@e@<@f@g@b+h@h@h@",
"i@j@k@l@m@m@n@m@o@o@p@q@r@s@t@u@u@v@w@x@y@'@'@'@",
"z@A@J J J +.+.J J J J 8.: 8.: 8.8.8.B@C@D@E@E@E@",
"F@G@H@I@I@I@I@J@J@J@J@J@J@K@H@L@L@J@H@G@F@M@M@M@",
"N@N@N@N@N@N@O@O@N@N@P@P@Q@N@P@N@N@N@N@N@N@R@R@R@",
"S@S@S@S@S@S@T@T@S@S@U@U@S@S@U@S@S@S@S@S@S@V@V@V@",
". + @ # $ % $ % $ $ $ $ $ % $ % & & * = - ; ; ; ",
"> , ' ) ! ~ { ~ { { { { { ~ { ~ W@X@Y@Z@`@. . . ",
"/ (  # # # # # # # # # # # # # # # # #| 1 2 2 2 ",
"3  #.#+#@###$#%#&#*#=#-#;#>#,#'#)#!#~# #m n n n ",
" #{#]#^#/#(#_#:#<#[#}#|#1#2#3#4#5#6#7#8# #I I I ",
" #9#0#a#b#c#d#e#f#g#h#i#j#k#l#m#n#o#p#q# #@.@.@.",
" #r#b#s#t#u#v#w#x#y#z#A#B#C#D#E#F#G#H#I# #_._._.",
" #J#K#L#M#N#O#P# # # # # # # #Q#R#S#T#U# #_._._.",
" #V#W#X#v#Y#Z#`# # # # # # # # $.$+$@$#$ #_._._.",
" #$$%$&$*$=$-$;$ #>$,$'$)$!$ #~${$]$^$/$ #_._._.",
" #($_$:$<$ # # # # # #[$}$|$ #1$2$3$4$5$ #J.J.J.",
" #6$7$8$9$ # # # # # # #0$a$ #b$c$d$e$f$ #V.V.V.",
" #g$h$i$j$ #k$l$m$n$o$ #p$q$ #r$s$t$u$v$ #-+-+-+",
" #w$x$y$z$ #A$B$C$D$E$ # # # #F$G$H$I$J$ #:+:+:+",
" #K$L$M$N$ #A$O$P$Q$R$ #S$T$U$V$W$X$Y$Z$ #a+a+a+",
" #`$ %M$.% #+%@%#%$%%% #&%*%*%=%-%;%>%,% #q+q+q+",
" #'%)%M$!% # # # # # # #~%{%]%^%/%(%_%:% #C+C+C+",
" #<%[%M$}%|%1%2%3%4%5%6%7%8%9%0%a%b%c%d% #U+U+U+",
" #e%f%g%h%i%j%k%l%m%n%o%p%q%r%s%t%u%v%w% #'@'@'@",
" #x%y%z%A%i%j%k%l%m%n%o%B%C%D%(%E%F%G%H% #}@}@}@",
" #I%J%K%L%M%N%7#O%P%Q%R%S%T%U%V%W%G%X%Y% #h@h@h@",
"i@ #Z%`% & &.& &+&+&@&#&$&%&&&*&*&=&-& #y@'@'@'@",
"z@A@ # # # # # # # # # # # # # # # # #C@D@E@E@E@",
"F@G@H@I@I@I@I@J@J@J@J@J@J@K@J@;&>&;&,&'&)&M@M@M@",
"N@N@N@N@N@N@O@O@N@N@P@P@Q@N@N@!&~&Q@{&{&]&R@R@R@",
"S@S@S@S@S@S@T@T@S@S@U@U@S@S@S@S@S@S@U@S@S@V@V@V@"};
