/* XPM */
static char * dillo_32x32_xpm[] = {
"32 32 773 2",
"  	c None",
". 	c #4E73F8",
"+ 	c #5177F8",
"@ 	c #5978F8",
"# 	c #5E7BF8",
"$ 	c #637CF8",
"% 	c #657DF8",
"& 	c #687DF8",
"* 	c #687FF8",
"= 	c #6B7FF8",
"- 	c #6A81F8",
"; 	c #6981F8",
"> 	c #6A83F8",
", 	c #6782F8",
"' 	c #6581F8",
") 	c #657EF8",
"! 	c #6385F8",
"~ 	c #6186F8",
"{ 	c #6487F8",
"] 	c #6288F8",
"^ 	c #6588F8",
"/ 	c #6289F8",
"( 	c #6589F8",
"_ 	c #648BF8",
": 	c #628AF8",
"< 	c #648CF8",
"[ 	c #668DF8",
"} 	c #648DF8",
"| 	c #648EF8",
"1 	c #5670F8",
"2 	c #5875F8",
"3 	c #5C7AF8",
"4 	c #6480F8",
"5 	c #6A80F8",
"6 	c #6B81F8",
"7 	c #6F82F8",
"8 	c #6F84F8",
"9 	c #7184F8",
"0 	c #7385F8",
"a 	c #7186F8",
"b 	c #7187F8",
"c 	c #7387F8",
"d 	c #6E89F8",
"e 	c #6F7DF8",
"f 	c #6774F8",
"g 	c #6B89F8",
"h 	c #688CF8",
"i 	c #668CF8",
"j 	c #688DF8",
"k 	c #688EF8",
"l 	c #688FF8",
"m 	c #6790F8",
"n 	c #6890F8",
"o 	c #6B91F8",
"p 	c #6891F8",
"q 	c #6A91F8",
"r 	c #6893F8",
"s 	c #6A92F8",
"t 	c #6A93F8",
"u 	c #6B94F8",
"v 	c #5E6EF8",
"w 	c #606CF8",
"x 	c #6273F8",
"y 	c #6A7CF8",
"z 	c #7086F8",
"A 	c #7388F8",
"B 	c #7688F8",
"C 	c #7889F8",
"D 	c #7A8AF8",
"E 	c #798BF8",
"F 	c #7A8BF8",
"G 	c #788EF8",
"H 	c #788BF8",
"I 	c #7375F8",
"J 	c #6E66F8",
"K 	c #6F86F8",
"L 	c #6C93F8",
"M 	c #6E93F8",
"N 	c #6B92F8",
"O 	c #6D94F8",
"P 	c #6E94F8",
"Q 	c #6D95F8",
"R 	c #6E95F8",
"S 	c #6E96F8",
"T 	c #6F96F8",
"U 	c #6D97F8",
"V 	c #6D98F8",
"W 	c #7099F8",
"X 	c #6E99F8",
"Y 	c #6F99F8",
"Z 	c #6473F8",
"` 	c #696BF8",
" .	c #6667F8",
"..	c #686AF8",
"+.	c #7179F8",
"@.	c #7E8CF8",
"#.	c #7F8EF8",
"$.	c #828EF8",
"%.	c #828FF8",
"&.	c #8191F8",
"*.	c #8292F8",
"=.	c #7D8FF8",
"-.	c #756DF8",
";.	c #705AF8",
">.	c #7276F8",
",.	c #7697F8",
"'.	c #7097F8",
").	c #7299F8",
"!.	c #7098F8",
"~.	c #7399F8",
"{.	c #729AF8",
"].	c #749BF8",
"^.	c #739CF8",
"/.	c #729DF8",
"(.	c #749DF8",
"_.	c #749FF8",
":.	c #74A0F8",
"<.	c #6B7CF8",
"[.	c #6D73F8",
"}.	c #6E6BF8",
"|.	c #6F63F8",
"1.	c #6E61F8",
"2.	c #736DF8",
"3.	c #7E82F8",
"4.	c #8692F8",
"5.	c #8998F8",
"6.	c #8B96F8",
"7.	c #8A98F8",
"8.	c #8997F8",
"9.	c #8997F7",
"0.	c #8490F8",
"a.	c #7767F8",
"b.	c #6D59F8",
"c.	c #6E5EF8",
"d.	c #7A99F8",
"e.	c #789DF7",
"f.	c #769EF8",
"g.	c #78A0F8",
"h.	c #769FF8",
"i.	c #78A1F8",
"j.	c #79A1F8",
"k.	c #7AA2F8",
"l.	c #7AA3F8",
"m.	c #7AA4F8",
"n.	c #79A5F8",
"o.	c #727DF8",
"p.	c #7473F8",
"q.	c #7369F8",
"r.	c #7361F8",
"s.	c #735AF8",
"t.	c #745EF8",
"u.	c #7F74F8",
"v.	c #8E96F8",
"w.	c #91A1F8",
"x.	c #92A1F8",
"y.	c #92A0F8",
"z.	c #909FF8",
"A.	c #888DF6",
"B.	c #7664F6",
"C.	c #6955F7",
"D.	c #634EF3",
"E.	c #778DF4",
"F.	c #7DA3F8",
"G.	c #7CA2F8",
"H.	c #79A2F8",
"I.	c #7CA3F8",
"J.	c #7BA4F8",
"K.	c #7CA5F8",
"L.	c #7DA6F8",
"M.	c #7EA7F8",
"N.	c #7FA8F8",
"O.	c #7FA9F8",
"P.	c #7EAAF8",
"Q.	c #748FF8",
"R.	c #7788F8",
"S.	c #797EF8",
"T.	c #7A72F8",
"U.	c #7A69F8",
"V.	c #7861F8",
"W.	c #7858F7",
"X.	c #7656F8",
"Y.	c #7A60F8",
"Z.	c #8F8BF8",
"`.	c #98A7F7",
" +	c #98A8F7",
".+	c #9AA8F8",
"++	c #898CF1",
"@+	c #7862EF",
"#+	c #6551EC",
"$+	c #5840E3",
"%+	c #6B79DE",
"&+	c #85A7F8",
"*+	c #7FA7F8",
"=+	c #80A7F8",
"-+	c #80A8F8",
";+	c #81A9F8",
">+	c #81ABF8",
",+	c #81AAF8",
"'+	c #83ABF8",
")+	c #80ACF8",
"!+	c #80ABF8",
"~+	c #7D98F8",
"{+	c #7A93F8",
"]+	c #7E88F8",
"^+	c #817DF8",
"/+	c #8073F8",
"(+	c #8069F8",
"_+	c #7E5FF8",
":+	c #7856F7",
"<+	c #754FF5",
"[+	c #744DF4",
"}+	c #7B6CE8",
"|+	c #8C93DE",
"1+	c #9BACF4",
"2+	c #8C8EEE",
"3+	c #7361E4",
"4+	c #6148DB",
"5+	c #4938CB",
"6+	c #595BBB",
"7+	c #88A7F6",
"8+	c #86AEFE",
"9+	c #86AFFF",
"0+	c #85AFFF",
"a+	c #82AAFC",
"b+	c #7DA9F8",
"c+	c #7DA7F7",
"d+	c #7DA8F8",
"e+	c #7AA7F8",
"f+	c #7BA7F8",
"g+	c #7BA8F8",
"h+	c #7CA9F8",
"i+	c #859CF8",
"j+	c #839DF8",
"k+	c #8094F8",
"l+	c #8589F8",
"m+	c #8880F8",
"n+	c #8774F8",
"o+	c #8568F8",
"p+	c #815AF5",
"q+	c #754FE5",
"r+	c #6944DD",
"s+	c #653CDE",
"t+	c #503AA3",
"u+	c #525683",
"v+	c #6E71B3",
"w+	c #685BCC",
"x+	c #5743C5",
"y+	c #3E2EB3",
"z+	c #3B358E",
"A+	c #6376B5",
"B+	c #455684",
"C+	c #344466",
"D+	c #3C517B",
"E+	c #5A7BBB",
"F+	c #7FACFF",
"G+	c #7AA7F9",
"H+	c #7AA6F7",
"I+	c #7CA7F8",
"J+	c #7BA9F8",
"K+	c #7EA9F8",
"L+	c #7BAAF8",
"M+	c #7FABF8",
"N+	c #88A1F8",
"O+	c #8EA2F8",
"P+	c #8A9FF8",
"Q+	c #8797F8",
"R+	c #8D8CF8",
"S+	c #907FF8",
"T+	c #8D73F8",
"U+	c #8961F5",
"V+	c #784FDB",
"W+	c #6640C0",
"X+	c #5735B8",
"Y+	c #4C2AB5",
"Z+	c #231356",
"`+	c #0E0C1A",
" @	c #262047",
".@	c #362A7E",
"+@	c #332487",
"@@	c #090721",
"#@	c #020201",
"$@	c #020205",
"%@	c #020100",
"&@	c #000203",
"*@	c #030202",
"=@	c #222C48",
"-@	c #749CE8",
";@	c #7EABF8",
">@	c #7CAAF8",
",@	c #8DA5F8",
"'@	c #92A7F8",
")@	c #96A7F8",
"!@	c #93A4F8",
"~@	c #8F9BF8",
"{@	c #938CF8",
"]@	c #927BF8",
"^@	c #8C66F3",
"/@	c #7650D2",
"(@	c #603DB2",
"_@	c #4B2F95",
":@	c #412490",
"<@	c #2F1979",
"[@	c #0A051C",
"}@	c #000000",
"|@	c #04050E",
"1@	c #020001",
"2@	c #000001",
"3@	c #020101",
"4@	c #000100",
"5@	c #26324D",
"6@	c #6A92D7",
"7@	c #7CA6F5",
"8@	c #7FAEFD",
"9@	c #7DABFA",
"0@	c #7DABF7",
"a@	c #7FACF8",
"b@	c #8AA1F8",
"c@	c #8EA0F8",
"d@	c #95A2F8",
"e@	c #95A8F8",
"f@	c #93A5F8",
"g@	c #9397F8",
"h@	c #9687F8",
"i@	c #9370F2",
"j@	c #7B55CF",
"k@	c #603FA2",
"l@	c #462C80",
"m@	c #341E68",
"n@	c #2B156A",
"o@	c #0F092B",
"p@	c #010102",
"q@	c #010101",
"r@	c #010100",
"s@	c #11131E",
"t@	c #26364E",
"u@	c #435987",
"v@	c #6184BE",
"w@	c #78A6F2",
"x@	c #87B6FF",
"y@	c #7EAEFA",
"z@	c #8493F8",
"A@	c #8C99F8",
"B@	c #93A1F8",
"C@	c #98A7F8",
"D@	c #9DAEF8",
"E@	c #9CA8F8",
"F@	c #9B97F8",
"G@	c #9C7EF4",
"H@	c #805DCE",
"I@	c #603F97",
"J@	c #432A6D",
"K@	c #281A4E",
"L@	c #1F1142",
"M@	c #11092F",
"N@	c #030002",
"O@	c #000002",
"P@	c #030000",
"Q@	c #162130",
"R@	c #1D2235",
"S@	c #192133",
"T@	c #111521",
"U@	c #070A0F",
"V@	c #243046",
"W@	c #6E95DB",
"X@	c #8B99F8",
"Y@	c #91A0F8",
"Z@	c #9EAFF8",
"`@	c #A7B5F8",
" #	c #A4ABF8",
".#	c #A18FF5",
"+#	c #8864CD",
"@#	c #5E4191",
"##	c #3D295D",
"$#	c #221539",
"%#	c #130B2E",
"&#	c #07040F",
"*#	c #121925",
"=#	c #5B78B6",
"-#	c #80AFFF",
";#	c #83AFFF",
">#	c #84B1FF",
",#	c #85B2FF",
"'#	c #84B2FF",
")#	c #759CE7",
"!#	c #6184C3",
"~#	c #8291F8",
"{#	c #99A7F8",
"]#	c #9DADF8",
"^#	c #A6B5F8",
"/#	c #ACB9F8",
"(#	c #AAA9F8",
"_#	c #8F75D4",
":#	c #584088",
"<#	c #34244F",
"[#	c #19112B",
"}#	c #0A0710",
"|#	c #010001",
"1#	c #04050A",
"2#	c #374C72",
"3#	c #6E94E1",
"4#	c #80A8FF",
"5#	c #7AA6F8",
"6#	c #7CA4F8",
"7#	c #7BA5F8",
"8#	c #7CA6F8",
"9#	c #7EA9F9",
"0#	c #7FABFB",
"a#	c #8491F8",
"b#	c #909EF8",
"c#	c #96A3F8",
"d#	c #9BABF8",
"e#	c #A4B2F8",
"f#	c #A8B7F8",
"g#	c #AFBCF8",
"h#	c #A099E9",
"i#	c #5B4C8A",
"j#	c #291C40",
"k#	c #0F0D19",
"l#	c #040105",
"m#	c #010200",
"n#	c #010003",
"o#	c #5772AF",
"p#	c #7A9EF5",
"q#	c #7BA3F9",
"r#	c #7AA2F7",
"s#	c #7BA2F8",
"t#	c #7BA3F8",
"u#	c #7EA5F8",
"v#	c #7DA7F8",
"w#	c #8794F8",
"x#	c #8E9BF8",
"y#	c #94A1F8",
"z#	c #A2ADF8",
"A#	c #A3B3F8",
"B#	c #ABB9F8",
"C#	c #ADB8F8",
"D#	c #7977B4",
"E#	c #2C2643",
"F#	c #0A0711",
"G#	c #010002",
"H#	c #536DB0",
"I#	c #7A9EF8",
"J#	c #79A0F8",
"K#	c #7AA1F8",
"L#	c #7CA1F8",
"M#	c #909DF8",
"N#	c #9BA9F8",
"O#	c #A1AEF8",
"P#	c #A4B1F7",
"Q#	c #A8B7F9",
"R#	c #A4AFF0",
"S#	c #646696",
"T#	c #12131D",
"U#	c #000200",
"V#	c #020002",
"W#	c #4E66A3",
"X#	c #799DF8",
"Y#	c #789DF8",
"Z#	c #789EF8",
"`#	c #7BA0F8",
" $	c #7B9FF8",
".$	c #7A9FF8",
"+$	c #7CA0F8",
"@$	c #7DA0F8",
"#$	c #7C8CF8",
"$$	c #818EF8",
"%$	c #8793F8",
"&$	c #8C9AF8",
"*$	c #919DF8",
"=$	c #9BA8F8",
"-$	c #9EACF8",
";$	c #A1ADF7",
">$	c #A1B1F8",
",$	c #A0ACF4",
"'$	c #6B72A3",
")$	c #040509",
"!$	c #030001",
"~$	c #000101",
"{$	c #030101",
"]$	c #5770B7",
"^$	c #789CF8",
"/$	c #789AF8",
"($	c #799BF8",
"_$	c #799CF8",
":$	c #7A9CF8",
"<$	c #7C9DF8",
"[$	c #7B9CF8",
"}$	c #7A9DF8",
"|$	c #798AF8",
"1$	c #7D8AF8",
"2$	c #848FF8",
"3$	c #929DF8",
"4$	c #93A0F8",
"5$	c #97A4F8",
"6$	c #9BA6F8",
"7$	c #9BA7F8",
"8$	c #9EA9F9",
"9$	c #8E97E5",
"0$	c #070A0B",
"a$	c #010000",
"b$	c #000103",
"c$	c #030304",
"d$	c #5E78C6",
"e$	c #7597F7",
"f$	c #7998F8",
"g$	c #7798F8",
"h$	c #7898F8",
"i$	c #7899F8",
"j$	c #7B99F8",
"k$	c #7A9AF8",
"l$	c #7999F8",
"m$	c #7489F8",
"n$	c #7A88F8",
"o$	c #7F8AF8",
"p$	c #8993F8",
"q$	c #8A97F8",
"r$	c #909AF8",
"s$	c #919EF8",
"t$	c #939FF8",
"u$	c #95A0F8",
"v$	c #96A1F8",
"w$	c #98A3FF",
"x$	c #0B0B0F",
"y$	c #000004",
"z$	c #101324",
"A$	c #6683D9",
"B$	c #7693F8",
"C$	c #7694F8",
"D$	c #7594F8",
"E$	c #7695F8",
"F$	c #7895F8",
"G$	c #7896F8",
"H$	c #7795F8",
"I$	c #7996F8",
"J$	c #7686F8",
"K$	c #7B87F8",
"L$	c #7E89F8",
"M$	c #828CF8",
"N$	c #8B94F8",
"O$	c #8995F8",
"P$	c #8C98F8",
"Q$	c #8D98F8",
"R$	c #8D99F7",
"S$	c #94A1FF",
"T$	c #272846",
"U$	c #020202",
"V$	c #020302",
"W$	c #030203",
"X$	c #010204",
"Y$	c #010300",
"Z$	c #273052",
"`$	c #7490F6",
" %	c #7490F8",
".%	c #7491F8",
"+%	c #7691F8",
"@%	c #7692F8",
"#%	c #7591F8",
"$%	c #7592F8",
"%%	c #7893F8",
"&%	c #7892F8",
"*%	c #7792F8",
"=%	c #6C85F8",
"-%	c #7785F8",
";%	c #7A85F8",
">%	c #7C87F8",
",%	c #808AF8",
"'%	c #838CF8",
")%	c #848EF8",
"!%	c #8790F8",
"~%	c #8591F8",
"{%	c #8791F8",
"]%	c #8B97FF",
"^%	c #484A82",
"/%	c #020500",
"(%	c #09090A",
"_%	c #0A090A",
":%	c #080908",
"<%	c #0B0807",
"[%	c #06090D",
"}%	c #0C0B0C",
"|%	c #5264B0",
"1%	c #758FFB",
"2%	c #738EF8",
"3%	c #758EF8",
"4%	c #748EF8",
"5%	c #768EF8",
"6%	c #768FF8",
"7%	c #778FF8",
"8%	c #788FF8",
"9%	c #6783F8",
"0%	c #6D83F8",
"a%	c #7484F8",
"b%	c #7784F8",
"c%	c #7C85F8",
"d%	c #7F88F8",
"e%	c #7F89F8",
"f%	c #828AF8",
"g%	c #8690FF",
"h%	c #3A3D6D",
"i%	c #0D0C08",
"j%	c #0D0F0C",
"k%	c #0F0E0F",
"l%	c #0E0E0D",
"m%	c #0E0E10",
"n%	c #0E0F0A",
"o%	c #12121A",
"p%	c #5F74CE",
"q%	c #728BFA",
"r%	c #748AF8",
"s%	c #718AF8",
"t%	c #728AF8",
"u%	c #748BF8",
"v%	c #728BF8",
"w%	c #738CF8",
"x%	c #768BF8",
"y%	c #738BF8",
"z%	c #758BF8",
"A%	c #768CF8",
"B%	c #6781F8",
"C%	c #6881F8",
"D%	c #6B82F8",
"E%	c #6F81F8",
"F%	c #7183F8",
"G%	c #7381F8",
"H%	c #7783F8",
"I%	c #7983F8",
"J%	c #7984F8",
"K%	c #7B83F8",
"L%	c #7E89FF",
"M%	c #3B3D69",
"N%	c #111210",
"O%	c #131514",
"P%	c #141414",
"Q%	c #141412",
"R%	c #141415",
"S%	c #161314",
"T%	c #38416F",
"U%	c #7087F7",
"V%	c #7187F7",
"W%	c #7287F8",
"X%	c #7288F8",
"Y%	c #7488F8",
"Z%	c #7389F8",
"`%	c #7289F8",
" &	c #6880F8",
".&	c #6C82F8",
"+&	c #7083F8",
"@&	c #7382F8",
"#&	c #7282F8",
"$&	c #7483F8",
"%&	c #7482F8",
"&&	c #7685FA",
"*&	c #6572DB",
"=&	c #151409",
"-&	c #1C1A1C",
";&	c #1A191A",
">&	c #1A1A1A",
",&	c #1B191B",
"'&	c #191A19",
")&	c #191B1B",
"!&	c #1A1D20",
"~&	c #5D6DC9",
"{&	c #6E86F8",
"]&	c #7285F8",
"^&	c #7085F8",
"/&	c #7286F8",
"(&	c #7386F8",
"_&	c #7486F8",
":&	c #667EF8",
"<&	c #657FF8",
"[&	c #667FF8",
"}&	c #6780F8",
"|&	c #6C81F8",
"1&	c #6D81F8",
"2&	c #6E81F8",
"3&	c #6E81F7",
"4&	c #7086FE",
"5&	c #3A406E",
"6&	c #1E1D18",
"7&	c #20211F",
"8&	c #212021",
"9&	c #202122",
"0&	c #21201E",
"a&	c #1E1E19",
"b&	c #2F3041",
"c&	c #6B7CEB",
"d&	c #7084F9",
"e&	c #6F83F7",
"f&	c #7084F8",
"g&	c #7185F8",
"h&	c #7384F8",
"i&	c #677EF8",
"j&	c #697FF8",
"k&	c #6A7FF8",
"l&	c #6C7FF8",
"m&	c #5E73DA",
"n&	c #2E2E39",
"o&	c #282728",
"p&	c #272828",
"q&	c #262826",
"r&	c #2A2728",
"s&	c #282A2D",
"t&	c #414876",
"u&	c #272623",
"v&	c #383E60",
"w&	c #6F81F9",
"x&	c #7081F8",
"y&	c #7281F8",
"z&	c #647EF8",
"A&	c #647DF8",
"B&	c #667DF8",
"C&	c #687EF8",
"D&	c #697EF8",
"E&	c #6B7FF7",
"F&	c #697FF9",
"G&	c #505BA2",
"H&	c #2F2F2F",
"I&	c #2F2E31",
"J&	c #302F2E",
"K&	c #2E2F2D",
"L&	c #2F3238",
"M&	c #6270D5",
"N&	c #5D6DCE",
"O&	c #343236",
"P&	c #464F7F",
"Q&	c #6F81FA",
"R&	c #6D7FF8",
"S&	c #6E7FF8",
"T&	c #6D80F8",
"U&	c #7080F8",
"V&	c #6E80F8",
"W&	c #7280F8",
"X&	c #637EF8",
"Y&	c #677DF8",
"Z&	c #677FF8",
"`&	c #6A82FE",
" *	c #485281",
".*	c #353535",
"+*	c #383635",
"@*	c #373635",
"#*	c #37393F",
"$*	c #6071D3",
"%*	c #6F80FD",
"&*	c #677BF0",
"**	c #47517D",
"=*	c #626FD1",
"-*	c #6B7EF8",
";*	c #617DF8",
">*	c #687EF7",
",*	c #6880FD",
"'*	c #515D9D",
")*	c #403F40",
"!*	c #3E3C39",
"~*	c #3E4144",
"{*	c #6476E3",
"]*	c #687EF9",
"^*	c #6B7FF9",
"/*	c #6E80FE",
"(*	c #697FF7",
"_*	c #6C7EF8",
":*	c #6D7EF8",
"<*	c #607CF8",
"[*	c #627DF8",
"}*	c #637DF8",
"|*	c #627EF8",
"1*	c #667DF7",
"2*	c #6071D4",
"3*	c #51557A",
"4*	c #4C5678",
"5*	c #6A7EFF",
"6*	c #697DF8",
"7*	c #6A7EF8",
"8*	c #6A7DF8",
". + @ # $ % & * = - ; ; > , ' ) ! ~ { ] ] ^ / ( _ : _ < [ } [ | ",
"1 2 3 4 5 6 7 8 9 0 a b c d e f g h i j k k l m n o p q r s t u ",
"v w x y z A B C C D E F G H I J K L M N O P Q R S T U V W X W Y ",
"Z `  ...+.C @.#.$.%.&.&.*.=.-.;.>.,.'.).!.).).~.{.].^.^./.(._.:.",
"<.[.}.|.1.2.3.4.5.6.7.8.9.0.a.b.c.d.e.f.f.g.h.g.i.i.j.k.l.m.m.n.",
"K o.p.q.r.s.t.u.v.w.x.y.z.A.B.C.D.E.F.G.H.I.J.K.K.K.L.M.M.N.O.P.",
"Q.R.S.T.U.V.W.X.Y.Z.`. +.+++@+#+$+%+&+*+M.=+-+;+;+>+,+'+)+,+!+P.",
"~+{+]+^+/+(+_+:+<+[+}+|+1+2+3+4+5+6+7+8+9+0+a+b+c+d+e+e+f+g+h+P.",
"i+j+k+l+m+n+o+p+q+r+s+t+u+v+w+x+y+z+A+B+C+D+E+F+G+H+f+I+J+K+L+M+",
"N+O+P+Q+R+S+T+U+V+W+X+Y+Z+`+ @.@+@@@#@$@%@&@*@=@-@I+g+g+O.L+;@>@",
",@'@)@!@~@{@]@^@/@(@_@:@<@[@}@|@1@}@2@}@3@4@}@}@5@6@7@8@9@!+0@a@",
"b@c@d@e@f@g@h@i@j@k@l@m@n@o@p@}@}@1@}@2@q@r@2@p@}@s@t@u@v@w@x@y@",
"z@A@B@C@D@E@F@G@H@I@J@K@L@M@}@}@N@2@}@4@O@P@4@O@}@Q@R@S@T@U@V@W@",
"z@X@Y@E@Z@`@ #.#+#@###$#%#&#}@}@}@}@}@}@q@%@}@*#=#-#;#>#,#'#)#!#",
"~#A@z.{#]#^#/#(#_#:#<#[#}#}@}@}@}@}@}@|#}@1#2#3#4#5#6#7#=+8#9#0#",
"a#8.b#c#d#e#f#g#h#i#j#k#l#}@}@}@}@2@m#n#}@o#p#q#r#s#7#t#K.u#K.v#",
"%.w#x#y#{#z#A#B#C#D#E#F#}@2@4@}@G#q@}@q@}@H#I#J#J#j.K#L#s#s#t#F.",
"#.a#7.M#d@N#O#P#Q#R#S#T#4@2@3@}@U#V#}@U#}@W#X#Y#I#Z#`# $.$+$`#@$",
"#$$$%$&$*$c#=$-$;$>$,$'$)$!$~$2@{$}@2@{$}@]$^$/$($_$($:$^$<$[$}$",
"|$1$2$w#A@3$4$5$6$7$8$9$0$G#q@}@p@a$b$a$c$d$e$f$f$g$h$i$j$g$k$l$",
"m$n$o$%.p$q$r$s$t$u$v$w$x$y$r@G#4@q@a$a$z$A$B$C$D$E$F$G$H$I$I$I$",
"K J$K$L$M$0.N$O$P$Q$R$S$T$r@U$V$3@W$X$Y$Z$`$ %.%+%@%#%$%%%&%*%*%",
"=%9 -%;%>%,%'%)%!%~%{%]%^%/%(%_%:%<%[%}%|%1%2%2%3%4%4%5%Q.6%7%8%",
"9%0%8 a%b%;%c%d%e%f%,%g%h%i%j%k%l%m%n%o%p%q%r%s%t%u%v%w%x%y%z%A%",
"B%C%D%E%F%G%H%I%J%K%J%L%M%N%O%P%Q%R%P%S%T%U%V%W%W%X%A Y%Z%`%Y%m$",
"4  &B%- .&E%+&@&#&$&%&&&*&=&-&;&>&,&'&)&!&~&{&]&^&a /&a (&/&_&_&",
":&<&[&}& &- |&6 1&2&|&3&4&5&6&7&8&9&0&9&a&b&c&d&e&F%f&+&F%g&9 h&",
":&<&[&i&i&i&[&* j&k&* 5 l&m&n&o&p&q&r&s&t&u&v&7 w&3&E%E%E%#&x&y&",
"z&:&z&A&& B&:&C&B& &D&D&E&F&G&H&I&J&K&L&M&N&O&P&Q&R&S&T&U&V&W&W&",
"X&A&z&) z&% :&:&i&Y&i&Z&j&C&`& *.*+*@*#*$*%*&***=*R&-*S&l&S&T&R&",
";*X&z&z&) A&Z&z&) ) Y&% Z&>*C&,*'*)*!*~*{*]*^*/*-*(*_*k&:*-*= -*",
"<*[*}*[*}*|*A&}*A&z&A&B&z&z&1*z&1*2*3*4*5*C&>*6*D&>*7*C&8*-*D&7*"};
