<?xml version="1.0" encoding="UTF-8" standalone="no"?>
<!-- Created by Keith Packard -->

<svg
   xmlns:dc="http://purl.org/dc/elements/1.1/"
   xmlns:cc="http://creativecommons.org/ns#"
   xmlns:rdf="http://www.w3.org/1999/02/22-rdf-syntax-ns#"
   xmlns:svg="http://www.w3.org/2000/svg"
   xmlns="http://www.w3.org/2000/svg"
   xmlns:sodipodi="http://sodipodi.sourceforge.net/DTD/sodipodi-0.dtd"
   xmlns:inkscape="http://www.inkscape.org/namespaces/inkscape"
   version="1.0"
   x="0"
   y="0"
   width="244"
   height="244"
   id="glider"
   inkscape:version="0.48.4 r9939"
   sodipodi:docname="Glider.svg">
  <metadata
     id="metadata31">
    <rdf:RDF>
      <cc:Work
         rdf:about="">
        <dc:format>image/svg+xml</dc:format>
        <dc:type
           rdf:resource="http://purl.org/dc/dcmitype/StillImage" />
      </cc:Work>
    </rdf:RDF>
  </metadata>
  <defs
     id="defs29" />
  <sodipodi:namedview
     pagecolor="#ffffff"
     bordercolor="#666666"
     borderopacity="1"
     objecttolerance="10"
     gridtolerance="10"
     guidetolerance="10"
     inkscape:pageopacity="0"
     inkscape:pageshadow="2"
     inkscape:window-width="1568"
     inkscape:window-height="870"
     id="namedview27"
     showgrid="false"
     inkscape:zoom="1.6857143"
     inkscape:cx="70"
     inkscape:cy="70"
     inkscape:window-x="0"
     inkscape:window-y="31"
     inkscape:window-maximized="0"
     inkscape:current-layer="glider" />
  <g
     transform="translate(62,62)"
     id="g3">&gt;
    <g
   id="scale"
   transform="scale(20,20)">
  <g
     id="grid"
     style="fill:none;stroke:#ffffff;stroke-width:0.1;stroke-linecap:butt;stroke-linejoin:round">
    <!-- outside -->
    <path
       d="M 0,0 6,0 6,6 0,6 z"
       id="path7"
       inkscape:connector-curvature="0" />
    <!-- inside -->
    <path
       d="M 0,2 6,2"
       id="path9"
       inkscape:connector-curvature="0" />
    <path
       d="M 0,4 6,4"
       id="path11"
       inkscape:connector-curvature="0" />
    <path
       d="M 2,0 2,6"
       id="path13"
       inkscape:connector-curvature="0" />
    <path
       d="M 4,0 4,6"
       id="path15"
       inkscape:connector-curvature="0" />
  </g>
  <g
     id="dots"
     style="fill:#ffffff">
    <ellipse
       cx="3"
       cy="1"
       rx="0.69999999"
       ry="0.69999999"
       id="C1"
       d="M 3.7,1 C 3.7,1.3865993 3.3865993,1.7 3,1.7 2.6134007,1.7 2.3,1.3865993 2.3,1 2.3,0.61340068 2.6134007,0.30000001 3,0.30000001 3.3865993,0.30000001 3.7,0.61340068 3.7,1 z"
       sodipodi:cx="3"
       sodipodi:cy="1"
       sodipodi:rx="0.69999999"
       sodipodi:ry="0.69999999" />
    <ellipse
       cx="5"
       cy="3"
       rx="0.69999999"
       ry="0.69999999"
       id="ellipse19"
       d="M 5.7,3 C 5.7,3.3865993 5.3865993,3.7 5,3.7 4.6134007,3.7 4.3,3.3865993 4.3,3 4.3,2.6134007 4.6134007,2.3 5,2.3 5.3865993,2.3 5.7,2.6134007 5.7,3 z"
       sodipodi:cx="5"
       sodipodi:cy="3"
       sodipodi:rx="0.69999999"
       sodipodi:ry="0.69999999" />
    <ellipse
       cx="1"
       cy="5"
       rx="0.69999999"
       ry="0.69999999"
       id="ellipse21"
       d="M 1.7,5 C 1.7,5.3865993 1.3865993,5.7 1,5.7 0.61340068,5.7 0.30000001,5.3865993 0.30000001,5 0.30000001,4.6134007 0.61340068,4.3 1,4.3 1.3865993,4.3 1.7,4.6134007 1.7,5 z"
       sodipodi:cx="1"
       sodipodi:cy="5"
       sodipodi:rx="0.69999999"
       sodipodi:ry="0.69999999" />
    <ellipse
       cx="3"
       cy="5"
       rx="0.69999999"
       ry="0.69999999"
       id="ellipse23"
       d="M 3.7,5 C 3.7,5.3865993 3.3865993,5.7 3,5.7 2.6134007,5.7 2.3,5.3865993 2.3,5 2.3,4.6134007 2.6134007,4.3 3,4.3 3.3865993,4.3 3.7,4.6134007 3.7,5 z"
       sodipodi:cx="3"
       sodipodi:cy="5"
       sodipodi:rx="0.69999999"
       sodipodi:ry="0.69999999" />
    <ellipse
       cx="5"
       cy="5"
       rx="0.69999999"
       ry="0.69999999"
       id="ellipse25"
       d="M 5.7,5 C 5.7,5.3865993 5.3865993,5.7 5,5.7 4.6134007,5.7 4.3,5.3865993 4.3,5 4.3,4.6134007 4.6134007,4.3 5,4.3 5.3865993,4.3 5.7,4.6134007 5.7,5 z"
       sodipodi:cx="5"
       sodipodi:cy="5"
       sodipodi:rx="0.69999999"
       sodipodi:ry="0.69999999" />
  </g>
</g>
</g>
</svg>
