/* XPM */
static char *paint_16x16[] = {
"16 16 45 1",
"  c black",
". c #020000",
"X c #000004",
"o c #515052",
"O c #645F63",
"+ c #606161",
"@ c #626164",
"# c #656061",
"$ c #736F71",
"% c #727073",
"& c #000082",
"* c #010187",
"= c #020288",
"- c #0101FD",
"; c #008682",
": c #008684",
"> c #00FEFE",
", c #820001",
"< c #FE0001",
"1 c #CC0063",
"2 c #D00065",
"3 c #838700",
"4 c #848500",
"5 c #818800",
"6 c #FFFE00",
"7 c #828684",
"8 c #848582",
"9 c #848584",
"0 c #858786",
"q c #858688",
"w c #959698",
"e c #9B9E9B",
"r c #A6A7A2",
"t c #A5A5A6",
"y c #B1B6B2",
"u c #C6C6C5",
"i c #C6C7C9",
"p c #C5C8C5",
"a c #C7C9C8",
"s c #D5D6D5",
"d c #EEEEED",
"f c #EFEFF1",
"g c gray97",
"h c #FEFEFF",
"j c None",
"jjjjj#9.@9.jjjjj",
"# jjjo .o .jjj.j",
"+8 jj8h.:u.jj 8.",
"#gq.j<,.:>=j4h..",
"j8u- <,X:>*5u9.j",
"jj*:-1,.;0563.jj",
"jjj&:2, :463.jjj",
"jj99$99%99%80.jj",
"jj9hhhfsyuu%8.jj",
"jjj8a00$9%OX.jjj",
"jjj9ddsate9@.jjj",
"jjj8hdsire8@.jjj",
"jjj9hhdsuw8+.jjj",
"jjj8hhdspt8@.jjj",
"jjj8hhdspre@.jjj",
"jjjj........jjjj"
};
