/* XPM */
static char * wifi_connect_16x16_xpm[] = {
"16 16 32 1",
" 	c None",
".	c #B0EBF8",
"+	c #D1F3FB",
"@	c #A2EAF7",
"#	c #CFF4FB",
"$	c #A8EEF9",
"%	c #A4EFF9",
"&	c #A3EEF9",
"*	c #A4A7AF",
"=	c #BCBBC4",
"-	c #919B9E",
";	c #BCBBC3",
">	c #939DA0",
",	c #BCBAC3",
"'	c #92A0A3",
")	c #94A2A4",
"!	c #BBB9C2",
"~	c #95A5A6",
"{	c #BCB8C2",
"]	c #8CA0A3",
"^	c #BFBEC8",
"/	c #DADAE1",
"(	c #C9C8D0",
"_	c #9CA2A8",
":	c #BCBEC5",
"<	c #D0D5D9",
"[	c #8F8E9B",
"}	c #D7D4D9",
"|	c #ECEAEC",
"1	c #7F868B",
"2	c #60696D",
"3	c #B9BABB",
"                ",
"    .+          ",
"   @     #      ",
"    $           ",
"   %            ",
"          &     ",
"                ",
"       *        ",
"       =-       ",
"       ;>       ",
"       ,'       ",
"       ,)       ",
"       !~       ",
"       {]       ",
"     ^/(_:<     ",
"     [}|123     "};
