/* XPM */
static char * gpicview_16x16_xpm[] = {
"16 16 203 2",
"  	c None",
". 	c #202020",
"+ 	c #2A2929",
"@ 	c #2A2A29",
"# 	c #1F201F",
"$ 	c #8F8D88",
"% 	c #3D5F81",
"& 	c #436486",
"* 	c #446587",
"= 	c #395D82",
"- 	c #8A8A87",
"; 	c #CCC8C0",
"> 	c #6AA4DE",
", 	c #6BA4E0",
"' 	c #6CA5E0",
") 	c #69A2E0",
"! 	c #6AA3E0",
"~ 	c #5F9DDF",
"{ 	c #C1C1BD",
"] 	c #D1CDC5",
"^ 	c #77ACDF",
"/ 	c #76AAE0",
"( 	c #72A8E0",
"_ 	c #71A8E0",
": 	c #71A7E0",
"< 	c #70A7E0",
"[ 	c #7FB0E1",
"} 	c #85B5E2",
"| 	c #86B6E2",
"1 	c #83B2E1",
"2 	c #6AA4E0",
"3 	c #69A3E0",
"4 	c #C5C5C1",
"5 	c #D2CEC8",
"6 	c #82B2DF",
"7 	c #8CB7E1",
"8 	c #8DB9E1",
"9 	c #8BB7E1",
"0 	c #8AB6E1",
"a 	c #8FBAE1",
"b 	c #8DB9E2",
"c 	c #80B0E0",
"d 	c #86B3E1",
"e 	c #85B4E1",
"f 	c #70A7DE",
"g 	c #C9C8C4",
"h 	c #CFCDC7",
"i 	c #93C0E2",
"j 	c #95C1E3",
"k 	c #97C2E3",
"l 	c #99C4E4",
"m 	c #9BC6E5",
"n 	c #96C2E8",
"o 	c #83B0DA",
"p 	c #88B5DE",
"q 	c #95C2E9",
"r 	c #91BDE5",
"s 	c #8BB7E2",
"t 	c #8AB6E0",
"u 	c #81B1DF",
"v 	c #C9C8C5",
"w 	c #D5D2CC",
"x 	c #638AA9",
"y 	c #7FA8C6",
"z 	c #93C2E9",
"A 	c #77A1C4",
"B 	c #577B9A",
"C 	c #2F506B",
"D 	c #3B5870",
"E 	c #4A6475",
"F 	c #466074",
"G 	c #507089",
"H 	c #65849A",
"I 	c #90BAD9",
"J 	c #A0CCED",
"K 	c #95C5EA",
"L 	c #CAC9C4",
"M 	c #DBDBD7",
"N 	c #081E31",
"O 	c #192B3B",
"P 	c #182B3A",
"Q 	c #23384A",
"R 	c #213548",
"S 	c #1F3244",
"T 	c #1E3142",
"U 	c #1F3245",
"V 	c #1E3346",
"W 	c #1E3042",
"X 	c #233648",
"Y 	c #2A3C48",
"Z 	c #33495D",
"` 	c #27445C",
" .	c #B7BABA",
"..	c #DAD8D2",
"+.	c #1F3B53",
"@.	c #2E465A",
"#.	c #2C4357",
"$.	c #2D4458",
"%.	c #2E4659",
"&.	c #2C4458",
"*.	c #2B4357",
"=.	c #2B4356",
"-.	c #2C4356",
";.	c #2D4558",
">.	c #1F374C",
",.	c #BDC4C7",
"'.	c #D6D4CE",
").	c #41627D",
"!.	c #56758D",
"~.	c #5F829C",
"{.	c #51718B",
"].	c #304759",
"^.	c #1E3143",
"/.	c #1E3144",
"(.	c #1D3143",
"_.	c #1D3041",
":.	c #1C2F40",
"<.	c #45627A",
"[.	c #597890",
"}.	c #52738C",
"|.	c #BDC3C5",
"1.	c #D4D1CA",
"2.	c #547B9C",
"3.	c #5D819D",
"4.	c #5E819D",
"5.	c #6184A1",
"6.	c #6488A5",
"7.	c #476782",
"8.	c #4B6A80",
"9.	c #537188",
"0.	c #506F86",
"a.	c #547895",
"b.	c #5B7C99",
"c.	c #547590",
"d.	c #5D829E",
"e.	c #527897",
"f.	c #BCC2C4",
"g.	c #D6D4CD",
"h.	c #325D82",
"i.	c #41688C",
"j.	c #40688C",
"k.	c #3E678C",
"l.	c #3F668A",
"m.	c #406585",
"n.	c #3F6380",
"o.	c #3C5F7D",
"p.	c #395F83",
"q.	c #2E4A62",
"r.	c #1F3243",
"s.	c #233F56",
"t.	c #B2BABD",
"u.	c #DCDAD3",
"v.	c #264968",
"w.	c #37576F",
"x.	c #37546B",
"y.	c #35536A",
"z.	c #325169",
"A.	c #31506A",
"B.	c #395770",
"C.	c #395871",
"D.	c #486172",
"E.	c #223B52",
"F.	c #263F55",
"G.	c #243D54",
"H.	c #243D52",
"I.	c #203C54",
"J.	c #BCC1BF",
"K.	c #8E9196",
"L.	c #A7A5A5",
"M.	c #959698",
"N.	c #A7A6A6",
"O.	c #969699",
"P.	c #A5A3A3",
"Q.	c #98989A",
"R.	c #A6A5A6",
"S.	c #96979A",
"T.	c #A9A8A8",
"U.	c #97979B",
"V.	c #ADABAA",
"W.	c #8F9295",
"X.	c #95989B",
"Y.	c #8E9195",
"Z.	c #787D85",
"`.	c #8C8F94",
" +	c #797E86",
".+	c #8E9095",
"++	c #777C84",
"@+	c #8F9397",
"#+	c #797F86",
"$+	c #7A8086",
"%+	c #787E86",
"&+	c #97999D",
"*+	c #95979B",
"=+	c #868A8E",
"-+	c #93959A",
";+	c #8D9096",
">+	c #96999C",
",+	c #8D9095",
"'+	c #96989C",
")+	c #929599",
"!+	c #929498",
"~+	c #929499",
"{+	c #868A8D",
". + @ @ @ @ @ @ @ @ @ @ @ @ + # ",
"$ % & * * * * * * * * * * * = - ",
"; > , , , , , , , ' ) , ! , ~ { ",
"] ^ / ( _ : < [ } | 1 2 3 ! ~ 4 ",
"5 6 7 8 7 7 7 9 0 a b c d e f g ",
"h i j k l m n o p q r s 0 t u v ",
"w x y z A B C D E F G H I J K L ",
"M N O P Q R S T U V W X Y Z `  .",
"..+.@.#.$.%.&.*.=.-.$.;.-.#.>.,.",
"'.).!.~.{.].^./.(.(._.:.<.[.}.|.",
"1.2.3.4.5.6.7.8.9.0.a.b.c.d.e.f.",
"g.h.i.j.k.l.m.n.o.p.q._.r._.s.t.",
"u.v.w.x.y.z.A.B.C.D.E.F.G.H.I.J.",
"K.L.M.N.O.N.M.P.Q.Q.R.S.T.U.V.W.",
"X.Y.Z.`. +.+++@+#+$+K.++K.%+&+*+",
"=+-+;+>+,+'+K.)+!+~+)+K.X.,+X.{+"};
