/* XPM */
static char * rxvt_16x16_xpm[] = {
"16 16 154 2",
"  	c None",
". 	c #C0BEBA",
"+ 	c #817F7C",
"@ 	c #828282",
"# 	c #FCF8EE",
"$ 	c #C480B2",
"% 	c #C888B7",
"& 	c #CC91BC",
"* 	c #D09AC0",
"= 	c #D4A2C5",
"- 	c #D8ABCA",
"; 	c #DCB4CF",
"> 	c #DEBAD1",
", 	c #E2C3D6",
"' 	c #EDDEE0",
") 	c #7C7A75",
"! 	c #F8F4E9",
"~ 	c #8E0F78",
"{ 	c #962082",
"] 	c #9E328C",
"^ 	c #A64396",
"/ 	c #AE549F",
"( 	c #B666A9",
"_ 	c #BE77B2",
": 	c #C688BC",
"< 	c #CE9AC6",
"[ 	c #DEC5D4",
"} 	c #74726E",
"| 	c #F5F1E6",
"1 	c #941C80",
"2 	c #9C2D89",
"3 	c #A43E93",
"4 	c #AC509C",
"5 	c #B461A6",
"6 	c #BC72B0",
"7 	c #C484BA",
"8 	c #CC95C3",
"9 	c #D4A6CD",
"0 	c #DAC5D2",
"a 	c #6E6C68",
"b 	c #F0ECE3",
"c 	c #9A2986",
"d 	c #A23A90",
"e 	c #AA4B9A",
"f 	c #B25CA4",
"g 	c #BA6EAE",
"h 	c #C27FB7",
"i 	c #CA90C0",
"j 	c #D2A2CA",
"k 	c #DAB3D4",
"l 	c #D7C6D0",
"m 	c #656460",
"n 	c #ECE8DF",
"o 	c #A0368E",
"p 	c #A84798",
"q 	c #B058A1",
"r 	c #B869AB",
"s 	c #C07AB4",
"t 	c #C88CBE",
"u 	c #D09DC8",
"v 	c #D8AED2",
"w 	c #E0C0DB",
"x 	c #D4C5CE",
"y 	c #5E5E5C",
"z 	c #EAE6DD",
"A 	c #A64295",
"B 	c #AE549E",
"C 	c #B665A8",
"D 	c #BE76B2",
"E 	c #C687BC",
"F 	c #CE98C5",
"G 	c #D6AACF",
"H 	c #DEBBD8",
"I 	c #E6CCE2",
"J 	c #CFC5CB",
"K 	c #585755",
"L 	c #E2E0D8",
"M 	c #AC4F9C",
"N 	c #B460A6",
"O 	c #C483B9",
"P 	c #CC94C3",
"Q 	c #D4A5CC",
"R 	c #DCB6D6",
"S 	c #E4C8E0",
"T 	c #ECD9EA",
"U 	c #CCC4C9",
"V 	c #504F4E",
"W 	c #DEDDD5",
"X 	c #C397B8",
"Y 	c #C69DBA",
"Z 	c #C7A3BD",
"` 	c #C8A9BF",
" .	c #C9AEC2",
"..	c #C9B3C2",
"+.	c #C9B8C4",
"@.	c #C8BBC4",
"#.	c #C7BFC4",
"$.	c #AEACAC",
"%.	c #4B4B4A",
"&.	c #DAD8D0",
"*.	c #D6D5CD",
"=.	c #CBC9C2",
"-.	c #C4C2BD",
";.	c #BCBAB6",
">.	c #B6B4B0",
",.	c #AEADA9",
"'.	c #A5A4A2",
").	c #9B9A98",
"!.	c #939290",
"~.	c #898988",
"{.	c #444443",
"].	c #020202",
"^.	c #424242",
"/.	c #737373",
"(.	c #636363",
"_.	c #5D5D5D",
":.	c #595959",
"<.	c #494949",
"[.	c #363636",
"}.	c #242424",
"|.	c #ABAAA7",
"1.	c #807E7A",
"2.	c #A5A4A1",
"3.	c #B6B3AC",
"4.	c #7B7974",
"5.	c #7C7A74",
"6.	c #7E7C76",
"7.	c #7F7D78",
"8.	c #7D7B76",
"9.	c #787672",
"0.	c #72706C",
"a.	c #A4A29C",
"b.	c #696864",
"c.	c #767574",
"d.	c #747472",
"e.	c #A5A4A0",
"f.	c #71706F",
"g.	c #9C9C99",
"h.	c #9A9997",
"i.	c #969694",
"j.	c #929190",
"k.	c #686867",
"l.	c #656565",
"m.	c #848483",
"n.	c #626262",
"o.	c #535353",
"p.	c #3D3D3D",
"q.	c #3E3E3E",
"r.	c #3F3F3F",
"s.	c #404040",
"t.	c #414141",
"u.	c #3C3C3C",
"v.	c #393939",
"w.	c #323232",
"    . . . . . . . . . . . +     ",
"  @ # $ % & * = - ; > , ' )     ",
"  @ ! ~ { ] ^ / ( _ : < [ }     ",
"  @ | 1 2 3 4 5 6 7 8 9 0 a     ",
"  @ b c d e f g h i j k l m     ",
"  @ n o p q r s t u v w x y     ",
"  @ z A B C D E F G H I J K     ",
"  @ L M N 6 O P Q R S T U V     ",
"  @ W X Y Z `  ...+.@.#.$.%.    ",
"  @ &.*.=.-.;.>.,.'.).!.~.{.    ",
"    ].].^.^.^.^.^.^.^.].].      ",
"        /.(._.:.<.[.}.].        ",
"    |.. 1.1.1.1.1.1.1.1.1.      ",
"  2.3.4.5.6.7.1.8.9.0.a.b.m     ",
"@ ,.c.d.e.f.g.h.i.j.k.k.l.m.n.  ",
"o.p.q.q.r.s.s.t.r.p.u.v.[.w.w.  "};
