/* XPM */
static char *magick[] = {
/* columns rows colors chars-per-pixel */
"19 42 75 1",
"  c #34479c",
". c #3c66ae",
"X c #3c66b3",
"o c #3d6ab5",
"O c #3e6bba",
"+ c #3e79bb",
"@ c #55719f",
"# c #406dbd",
"$ c #4571bf",
"% c #5571a0",
"& c #5b77a8",
"* c #5d79a9",
"= c #467cc1",
"- c #4b73c3",
"; c #497ac2",
": c #6c8a90",
"> c #6b9292",
", c #6380b0",
"< c #6685b9",
"1 c #6887b7",
"2 c #6887bb",
"3 c #6888b8",
"4 c #6f8fc5",
"5 c #6f90c7",
"6 c #7192c4",
"7 c #7293cb",
"8 c #779dca",
"9 c #799ecc",
"0 c #7697d0",
"q c #7798d1",
"w c #7a9cd2",
"e c #79a0cd",
"r c #7da3d3",
"t c #7ea8d3",
"y c #9daa6f",
"u c #91a37e",
"i c #9ead72",
"p c #b6bd57",
"a c #a0af76",
"s c #a1b376",
"d c #a2b17a",
"f c #c1c145",
"g c #809184",
"h c #85988f",
"j c #8599b7",
"k c #93a782",
"l c #96af86",
"z c #98af8a",
"x c #8ea3c6",
"c c #83a5d6",
"v c #84aad6",
"b c #88a9d7",
"n c #8bacd8",
"m c #8bb0d8",
"M c #92b5db",
"N c #97bbdc",
"B c #9cb5d6",
"V c #9bbcdc",
"C c #a2b7d8",
"Z c #a4badb",
"A c #acbfda",
"S c #9ec5df",
"D c #a1c4df",
"F c #adc4de",
"G c #a1c7e0",
"H c #a5cce1",
"J c #acc3e1",
"K c #a9cee2",
"L c #acd2e3",
"P c #b6c7e0",
"I c #bbcbe4",
"U c #bfcfe8",
"Y c #c0d1e9",
"T c #dce6f1",
"R c white",
/* pixels */
"ttrtttttrtttttttttt",
"<=<=====<=====+<===",
"O8VPLILIIIIILIIUV8+",
"XNLHGNMmvvrrrrw5<MX",
"XPKGNMnbrwqqq772*F.",
".IHNNmnRRRRRR772*F.",
"XPSNmnbRRRRRR772*AX",
"XPNnnbcRwwqqR772*A.",
"XIMbcRRRRRR7R77<*AX",
"XIncrRRRRRR7R77<&AX",
"XIvwwRwqqqRRR77<&FX",
"oIvwwRqqq7R7777<&Ao",
"OItq0R7777R7777<&AO",
"OIr77RRRRRR7777<&FO",
"-Ur777577745444*%J-",
";Ue777757574544xjJ;",
";JTweeeeee8888ww8V;",
"+eVJJJJGFFJFJHJJB8+",
"======+=====;=++===",
"-------=-------=---",
"                   ",
"ttttttttttttttttttt",
"<=======+<====+<===",
"O:kiaiiaaiiiaaddk:O",
"XkLHGSMmvvrrwww61uX",
".yHSNmnvrwwq0772*y.",
".ySNNmbffffff772*y.",
"XySMmnvffffff772*iX",
"XiNMnbcfrwqqf772*y.",
"XiMbbffffff0f77<&yX",
"Ximcrffffff7f77<*yX",
"Xibrwfqqqqfff77<&io",
"oirwwfqqq7f7777<&io",
"Oirq7fq7q7f7777<&iO",
"#ir07ffpfff7777<&a#",
"-le766677776444,@a$",
";de777777577444h:s;",
"=zp8e8r8888888888z;",
"+>laaaaaaaaaaaasl>+",
";;=================",
"-------------------",
"                   "
};
