/* XPM */
static char *frameABR[] = {
/* width height num_colors chars_per_pixel */
"    16    16        5            1",
/* colors */
". c #ffffff",
"# c #9999cc",
"a c #666699",
"b c #000000",
"c c #c0c0c0",
/* pixels */
"..........aaa#aa",
"..........aaaaaa",
"..........aaaaaa",
"..........aaaaaa",
"..........aaaaaa",
"..........aaaaaa",
"..........aaaaaa",
"..........aaaaaa",
"..........aaaaaa",
"..........aaaaaa",
"aaaaaaaaaaaaaaaa",
"aaaaaaaaaaaaaaaa",
"aaaaaaaaaaaaaaaa",
"#aaaaaaaaaaaaaaa",
"aaaaaaaaaaaaaaaa",
"aaaaaaaaaaaaaaac"
};
