/* XPM */
static char * minimize_xpm[] = {
"20 40 3 1",
"  c #C0C0C0",
"W c #FFFFFF",
"D c #808080",
"                    ",
"                    ",
"                    ",
"                    ",
"                    ",
"     WWWWWWWWW      ",
"     W        D     ",
"     W DDDDD  D     ",
"     W D    W D     ",
"     W D    W D     ",
"     W D    W D     ",
"     W D    W D     ",
"     W  WWWWW D     ",
"     W        D     ",
"      DDDDDDDDD     ",
"                    ",
"                    ",
"                    ",
"                    ",
"                    ",
"                    ",
"                    ",
"                    ",
"                    ",
"                    ",
"     DDDDDDDDD      ",
"     D        W     ",
"     D WWWWW  W     ",
"     D W    D W     ",
"     D W    D W     ",
"     D W    D W     ",
"     D W    D W     ",
"     D  DDDDD W     ",
"     D        W     ",
"      WWWWWWWWW     ",
"                    ",
"                    ",
"                    ",
"                    ",
"                    "};
