/* XPM */
static char * restoreI_xpm[] = {
"18 34 127 2",
"  	c None",
". 	c #191919",
"+ 	c #1E1E1E",
"@ 	c #000000",
"# 	c #404040",
"$ 	c #9E9E9E",
"% 	c #A2A2A2",
"& 	c #828282",
"* 	c #616161",
"= 	c #4C4C4C",
"- 	c #F6F6F6",
"; 	c #FFFFFF",
"> 	c #E5E5E5",
", 	c #D0D0D0",
"' 	c #6E6E6E",
") 	c #4A4A4A",
"! 	c #F5F5F5",
"~ 	c #FDFDFD",
"{ 	c #E0E0E0",
"] 	c #B6B6B6",
"^ 	c #818181",
"/ 	c #E6E6E6",
"( 	c #DEDEDE",
"_ 	c #DDDDDD",
": 	c #C4C4C4",
"< 	c #BFBFBF",
"[ 	c #D3D3D3",
"} 	c #BBBBBB",
"| 	c #939393",
"1 	c #636363",
"2 	c #D5D5D5",
"3 	c #C2C2C2",
"4 	c #484848",
"5 	c #4E4E4E",
"6 	c #DFDFDF",
"7 	c #D8D8D8",
"8 	c #CECECE",
"9 	c #AFAFAF",
"0 	c #838383",
"a 	c #686868",
"b 	c #F2F2F2",
"c 	c #E7E7E7",
"d 	c #C8C8C8",
"e 	c #A9A9A9",
"f 	c #CACACA",
"g 	c #F4F4F4",
"h 	c #EEEEEE",
"i 	c #A0A0A0",
"j 	c #515151",
"k 	c #D2D2D2",
"l 	c #545454",
"m 	c #F9F9F9",
"n 	c #DCDCDC",
"o 	c #B3B3B3",
"p 	c #595959",
"q 	c #CCCCCC",
"r 	c #FBFBFB",
"s 	c #D4D4D4",
"t 	c #B1B1B1",
"u 	c #FEFEFE",
"v 	c #BDBDBD",
"w 	c #797979",
"x 	c #DADADA",
"y 	c #555555",
"z 	c #E4E4E4",
"A 	c #AEAEAE",
"B 	c #FCFCFC",
"C 	c #D9D9D9",
"D 	c #8C8C8C",
"E 	c #F7F7F7",
"F 	c #C6C6C6",
"G 	c #929292",
"H 	c #EDEDED",
"I 	c #ECECEC",
"J 	c #A8A8A8",
"K 	c #767676",
"L 	c #868686",
"M 	c #1C1C1C",
"N 	c #111111",
"O 	c #424242",
"P 	c #9B9B9B",
"Q 	c #9C9C9C",
"R 	c #7D7D7D",
"S 	c #4F4F4F",
"T 	c #444444",
"U 	c #FAFAFA",
"V 	c #EAEAEA",
"W 	c #BABABA",
"X 	c #747474",
"Y 	c #757575",
"Z 	c #ABABAB",
"` 	c #A6A6A6",
" .	c #BEBEBE",
"..	c #A7A7A7",
"+.	c #969696",
"@.	c #B4B4B4",
"#.	c #A1A1A1",
"$.	c #3E3E3E",
"%.	c #434343",
"&.	c #3F3F3F",
"*.	c #9F9F9F",
"=.	c #7C7C7C",
"-.	c #666666",
";.	c #646464",
">.	c #D7D7D7",
",.	c #989898",
"'.	c #949494",
").	c #7F7F7F",
"!.	c #505050",
"~.	c #C7C7C7",
"{.	c #DBDBDB",
"].	c #D1D1D1",
"^.	c #C9C9C9",
"/.	c #B0B0B0",
"(.	c #909090",
"_.	c #4D4D4D",
":.	c #E9E9E9",
"<.	c #E1E1E1",
"[.	c #C0C0C0",
"}.	c #717171",
"|.	c #F0F0F0",
"1.	c #EFEFEF",
"2.	c #8B8B8B",
"3.	c #EBEBEB",
"4.	c #F8F8F8",
"5.	c #737373",
"6.	c #8A8A8A",
". . + . . . . @ . @ #               ",
"$ $ % $ $ $ $ $ $ $ & * =           ",
"- - ; - - - - - - - > , ' )         ",
"; ; ! ; ; ; ; ; ; ; ~ { ] ^ =       ",
"/ / ( _ : < < < : _ > [ } | 1       ",
"( ( 2 3 = 4 5 4 = 3 6 7 8 9 0 a     ",
"b b c d ) e f e ) d g h / f i j @ @ ",
"; ; g k l , m , l k ; m g n o p q q ",
"; ; r s 5 t [ t 5 s ; u ~ c v w q q ",
"; ; ; x y 5 l 5 y x ; ; ; z A q q q ",
"; ; B ! C k k k C ! ; ; ~ 8 D q q q ",
"E E ; E E E E E E E g ~ F G q q q q ",
"H H I H H H H H H H q J & q q q q q ",
"K K ^ K K K K K K K L q q q q q q q ",
"q q q q q q q q q q q q q q q q q q ",
"q q q q q q q q q q q q q q q q q q ",
"@ @ @ @ @ @ @ @ @ @ @ @ @ @ @ @ @ @ ",
"M M M M M M M M M N O               ",
"P P P P P P P P P Q R S T           ",
"! ! ! ! ! ! ! ! ! U V W X T         ",
"H H H H H H H H H I _ f $ Y =       ",
"< < < < Z ` ` ` Z  .] ..+.X l       ",
"@.@.@.#.# $.%.$.&.*.J *.+.=.-.;.    ",
">.>.>.t O ,.] ,.O A : } Z '.).%.@ @ ",
"g g g d !.~.h ~.S 3 {.].^./.(.4 q q ",
"; ; ; k _.9 ].9 _.8 :.<.{ [.G }.q q ",
"; ; ; x y 5 l 5 l C E |.1.^.2.q q q ",
"; ; ; E x s s s x E U 1.3. .=.q q q ",
"4.4.4.4.4.4.4.4.4.~ g ( < 5.q q q q ",
"C C C C C C C C C C v *.^ q q q q q ",
"R R R R R R R R R X 6.e q q q q q q ",
"q q q q q q q q q q q q q q q q q q ",
"q q q q q q q q q q q q q q q q q q ",
"@ @ @ @ @ @ @ @ @ @ @ @ @ @ @ @ @ @ "};
