/* XPM */
static char * titleIB_xpm[] = {
"19 21 12 1",
" 	c None",
".	c #7EA8D3",
"+	c #467CC1",
"@	c #3E79BB",
"#	c #3D6AB5",
"$	c #3C66B3",
"%	c #3E6BBA",
"&	c #3C66AE",
"*	c #406DBD",
"=	c #4B73C3",
"-	c #497AC2",
";	c #34479C",
"...................",
"++@@++++++++++++@+@",
"##$$##%$###########",
"$$$$$$$&$$####&&$$$",
"&&&&&&&&&&&&&&&&&&&",
"&&&&&&&&&&&&&&&&&$&",
"$$$&$$$$$&$$$$$$$$$",
"&$&&&&$$&&$&$&&&$$$",
"$$$$$$$$$$$$$$$$$$$",
"$$$$$$$$$$$$$$$$$$$",
"$$$$$$$$$$$$$$$$$$$",
"%%$%%%$$$$%%%$%%$%%",
"%%%%%%%%%%%%%%%%%%%",
"*******************",
"=**==**==*=**=****=",
"---------------+=--",
"+++++++-+++---+++-+",
"@@@@@@@@@@@@@@@@@@@",
"--++++++----+------",
"===================",
";;;;;;;;;;;;;;;;;;;"};
