/* XPM */
static char * galculator_16x16_xpm[] = {
"16 16 93 2",
"  	c None",
". 	c #555753",
"+ 	c #B8BBB3",
"@ 	c #858971",
"# 	c #787C66",
"$ 	c #83876F",
"% 	c #7A7E68",
"& 	c #7D816A",
"* 	c #777B5E",
"= 	c #555843",
"- 	c #585B45",
"; 	c #474938",
"> 	c #393B2D",
", 	c #717559",
"' 	c #989C8A",
") 	c #969A88",
"! 	c #979B89",
"~ 	c #44494A",
"{ 	c #3A4041",
"] 	c #3F4446",
"^ 	c #383D3F",
"/ 	c #303638",
"( 	c #303537",
"_ 	c #2F3537",
": 	c #313739",
"< 	c #9C9FA1",
"[ 	c #5B5C5C",
"} 	c #595A5C",
"| 	c #737678",
"1 	c #5B5C5E",
"2 	c #595A5B",
"3 	c #66696B",
"4 	c #595A5A",
"5 	c #585858",
"6 	c #616365",
"7 	c #626567",
"8 	c #515354",
"9 	c #535555",
"0 	c #535455",
"a 	c #5E605C",
"b 	c #6B6D6B",
"c 	c #808080",
"d 	c #7F7F7F",
"e 	c #535353",
"f 	c #7E7E7E",
"g 	c #818181",
"h 	c #555555",
"i 	c #575757",
"j 	c #565758",
"k 	c #848484",
"l 	c #898989",
"m 	c #696A69",
"n 	c #545454",
"o 	c #555556",
"p 	c #787878",
"q 	c #545657",
"r 	c #878787",
"s 	c #888888",
"t 	c #87898A",
"u 	c #505051",
"v 	c #505152",
"w 	c #646667",
"x 	c #535354",
"y 	c #515151",
"z 	c #616364",
"A 	c #515252",
"B 	c #606365",
"C 	c #5B5B5B",
"D 	c #5A5A5A",
"E 	c #7D7D7D",
"F 	c #828282",
"G 	c #545455",
"H 	c #585859",
"I 	c #696A68",
"J 	c #858585",
"K 	c #565656",
"L 	c #838383",
"M 	c #8A8A8A",
"N 	c #8D8D8D",
"O 	c #858788",
"P 	c #646666",
"Q 	c #525353",
"R 	c #616262",
"S 	c #555757",
"T 	c #5E5F5F",
"U 	c #9B9B9B",
"V 	c #858686",
"W 	c #888989",
"X 	c #868686",
"Y 	c #878888",
"Z 	c #6C6D6B",
"` 	c #757674",
" .	c #787977",
". . . . . . . . . . . . . . . . ",
". + + + + + + + + + + + + + + . ",
". + @ @ @ @ @ @ @ # $ % & @ + . ",
". + * * * * * * * = - ; > , + . ",
". + ' ' ' ' ' ' ' ) ! ) ! ' + . ",
". ~ + + + + + + + + + + + + { . ",
". ] ^ / / ( _ _ _ _ _ _ _ _ : . ",
". < [ } | 1 2 3 4 5 6 7 8 9 0 . ",
"a b c d e f g h d g i j k l k . ",
". m d f n f f o p d i q r s r . ",
". t u v w x y z A y 6 B 5 C D . ",
". m c d 9 E g n F k G H r s s . ",
". I k E y c J K L J K 5 M N M . ",
". O n G P Q K R S K T 5 M U M . ",
". O V V W V X Y X X Y Z `  .` . ",
". . . . . . . . . . . . . . . . "};
