/* XPM */
static char * galculator_32x32_xpm[] = {
"32 32 220 2",
"  	c None",
". 	c #393939",
"+ 	c #343434",
"@ 	c #BDBEC1",
"# 	c #DADBDC",
"$ 	c #D9DADC",
"% 	c #D9DADB",
"& 	c #D8D9DB",
"* 	c #D8D9DA",
"= 	c #D7D9DA",
"- 	c #BABBBD",
"; 	c #3A3A3A",
"> 	c #787C7F",
", 	c #303638",
"' 	c #2E3436",
") 	c #D7D8DA",
"! 	c #373D3F",
"~ 	c #898D89",
"{ 	c #B9BCB5",
"] 	c #BABDB6",
"^ 	c #373D3E",
"/ 	c #D1D2D4",
"( 	c #9FA392",
"_ 	c #777B5E",
": 	c #4B4D3B",
"< 	c #6E7157",
"[ 	c #6A6E54",
"} 	c #555843",
"| 	c #676A51",
"1 	c #575A45",
"2 	c #ABAEA2",
"3 	c #CBCDCE",
"4 	c #9A9E8C",
"5 	c #73775B",
"6 	c #37382B",
"7 	c #5A5D47",
"8 	c #6B6F55",
"9 	c #393B2D",
"0 	c #464938",
"a 	c #3A3C2E",
"b 	c #A6A99C",
"c 	c #C5C6C8",
"d 	c #767A5D",
"e 	c #696D53",
"f 	c #72765A",
"g 	c #707459",
"h 	c #686C52",
"i 	c #BFC0C2",
"j 	c #D5D6D7",
"k 	c #9DA19B",
"l 	c #A3A6A0",
"m 	c #B8BABC",
"n 	c #D0D1D2",
"o 	c #343A3C",
"p 	c #33393A",
"q 	c #6A706E",
"r 	c #949993",
"s 	c #A6A9A4",
"t 	c #A7ABA5",
"u 	c #979B96",
"v 	c #727875",
"w 	c #363C3E",
"x 	c #323839",
"y 	c #B2B3B5",
"z 	c #C9CBCD",
"A 	c #686C6E",
"B 	c #2F3537",
"C 	c #4C5153",
"D 	c #ABADAF",
"E 	c #C4C5C6",
"F 	c #8D9093",
"G 	c #6E7275",
"H 	c #43474A",
"I 	c #393E41",
"J 	c #505457",
"K 	c #65676A",
"L 	c #A6A7A9",
"M 	c #BDBFC1",
"N 	c #838588",
"O 	c #818386",
"P 	c #7F8285",
"Q 	c #7D8083",
"R 	c #7B7E81",
"S 	c #7A7C7F",
"T 	c #787B7E",
"U 	c #76797C",
"V 	c #74777A",
"W 	c #727578",
"X 	c #717376",
"Y 	c #6F7275",
"Z 	c #6D7073",
"` 	c #6B6E71",
" .	c #696C6F",
"..	c #686B6E",
"+.	c #66696C",
"@.	c #64676A",
"#.	c #626568",
"$.	c #606366",
"%.	c #5F6265",
"&.	c #5D6063",
"*.	c #5B5E61",
"=.	c #A0A2A3",
"-.	c #B8BABB",
";.	c #4B4C4D",
">.	c #4A4A4B",
",.	c #48494A",
"'.	c #474849",
").	c #464748",
"!.	c #444546",
"~.	c #4D4F51",
"{.	c #9FA1A3",
"].	c #6E7174",
"^.	c #828282",
"/.	c #6B6E6F",
"(.	c #646668",
"_.	c #636567",
":.	c #383838",
"<.	c #7F7F7F",
"[.	c #8D8D8D",
"}.	c #5D6062",
"|.	c #9FA0A2",
"1.	c #ACADAF",
"2.	c #636669",
"3.	c #727272",
"4.	c #6C706E",
"5.	c #979797",
"6.	c #696D6D",
"7.	c #9EA0A1",
"8.	c #454646",
"9.	c #4A4B4A",
"0.	c #6C6F6F",
"a.	c #9D9FA1",
"b.	c #626466",
"c.	c #7A7C7A",
"d.	c #636667",
"e.	c #7A7C79",
"f.	c #626666",
"g.	c #616465",
"h.	c #797C79",
"i.	c #626566",
"j.	c #545657",
"k.	c #616260",
"l.	c #696C6C",
"m.	c #9D9EA0",
"n.	c #A5A7A8",
"o.	c #434445",
"p.	c #5A5E60",
"q.	c #5A5D60",
"r.	c #5B5E60",
"s.	c #737673",
"t.	c #7A7C78",
"u.	c #747675",
"v.	c #5B5F60",
"w.	c #9B9E9F",
"x.	c #A4A6A7",
"y.	c #626565",
"z.	c #616565",
"A.	c #4B4E4F",
"B.	c #595D5F",
"C.	c #A3A5A6",
"D.	c #6B6F6D",
"E.	c #6A6F6D",
"F.	c #818181",
"G.	c #383938",
"H.	c #9B9D9E",
"I.	c #5A5D5F",
"J.	c #6A6E6D",
"K.	c #686C6B",
"L.	c #999C9D",
"M.	c #A2A4A5",
"N.	c #606364",
"O.	c #797B79",
"P.	c #606263",
"Q.	c #616464",
"R.	c #606464",
"S.	c #9C9C9C",
"T.	c #6B6E6D",
"U.	c #999B9C",
"V.	c #A1A4A5",
"W.	c #434444",
"X.	c #595C5E",
"Y.	c #585C5E",
"Z.	c #585C5D",
"`.	c #A1A2A3",
" +	c #989A9B",
".+	c #6A6E6C",
"++	c #696E6C",
"@+	c #8B8B8B",
"#+	c #97999A",
"$+	c #9FA2A2",
"%+	c #454645",
"&+	c #4A4A4A",
"*+	c #454545",
"=+	c #696E6B",
"-+	c #525555",
";+	c #393A39",
">+	c #5F605E",
",+	c #686B6A",
"'+	c #5F6262",
")+	c #797B78",
"!+	c #5F6463",
"~+	c #5E6261",
"{+	c #787B78",
"]+	c #5F6462",
"^+	c #727571",
"/+	c #797C78",
"(+	c #727673",
"_+	c #5B5E5F",
":+	c #353535",
"<+	c #818485",
"[+	c #9DA0A0",
"}+	c #9D9FA0",
"|+	c #9C9F9F",
"1+	c #9C9E9E",
"2+	c #9A9D9D",
"3+	c #9A9C9D",
"4+	c #989B9B",
"5+	c #7D7F80",
"6+	c #353636",
"7+	c #2B2B2B",
"                                                                ",
"        . + + + + + + + + + + + + + + + + + + + + + + + .       ",
"      . @ # # # # # # # # $ $ $ $ $ $ % & & & & * * = = - ;     ",
"      + # > , ' ' ' ' ' ' ' ' ' ' ' ' ' ' ' ' ' ' ' , > ) +     ",
"      + # ! ~ { ] ] ] ] ] ] ] ] ] ] ] ] ] ] ] ] ] { ~ ^ / +     ",
"      + # ' { ( _ _ _ _ _ _ _ _ _ _ : < [ } | 1 _ 2 { ' 3 +     ",
"      + # ' ] 4 _ _ _ _ _ _ _ _ _ 5 6 7 8 9 0 a _ b ] ' c +     ",
"      + # ' ] ( _ _ _ _ _ _ _ _ _ d e f g h _ g _ 2 ] ' i +     ",
"      + j ' k ] ] ] ] ] ] ] ] ] ] ] ] ] ] ] ] ] ] ] l ' m +     ",
"      + n o p q r s t t t t t t t t t t t t t s u v w x y +     ",
"      + z A B ' ' ' ' ' ' ' ' ' ' ' ' ' ' ' ' ' ' ' ' C D +     ",
"      + E F G H B ' ' ' ' ' ' ' ' ' ' ' ' ' ' ' B I J K L +     ",
"      + M N O P Q R S T U V W X Y Z `  ...+.@.#.$.%.&.*.=.+     ",
"      + -.T ;.+ + >.Y ,.+ + '.+.).+ + !.&.~.. + + . ~.*.{.+     ",
"      + y ].+ ^.^.+ /.+ ^.^.+ (.+ ^.^.+ _.:.<.[.[.<.. }.|.+     ",
"      + 1.2.+ 3.3.+ 4.+ 3.3.+ 4.+ 3.3.+ 4.+ [.5.5.[.+ 6.7.+     ",
"      + L *.8.+ + 9.4.8.+ + 9.4.8.+ + 9.4.. <.[.[.<.. 0.a.+     ",
"      + L *.b.c.c.c.d.b.e.c.e.f.g.h.c.e.i.j.; + + ; k.l.m.+     ",
"      + n.*.o.+ + o.p.o.+ + o.q.o.+ + o.q.r.s.t.c.e.u.v.w.+     ",
"      + x.p.+ ^.^.+ i.+ ^.^.+ y.+ ^.^.+ z.A.. + + . A.B.w.+     ",
"      + C.q.+ 3.3.+ D.+ 3.3.+ E.+ 3.3.+ E.:.F.[.[.F.G.r.H.+     ",
"      + C.I.8.+ + 9.E.8.+ + 9.E.8.+ + 9.J.+ [.[.[.[.+ K.L.+     ",
"      + M.B.N.O.c.h.z.P.O.e.O.Q.P.O.e.O.R.+ [.S.S.[.+ T.U.+     ",
"      + V.B.W.+ + W.X.W.+ + W.Y.W.+ + W.Z.+ [.S.S.[.+ T.U.+     ",
"      + `.X.+ ^.^.+ R.+ ^.^.+ R.+ ^.^.+ R.+ [.[.[.[.+ J. ++     ",
"      + =.Y.+ 3.3.+ .++ 3.3.+ .++ 3.3.+ ++:.<.@+@+<.. .+#++     ",
"      + $+Z.%++ + &+.+*++ + &+++*++ + &+=+-+;++ + ;+>+,+#++     ",
"      + |.X.'+)+O.O.!+~+{+O.)+]+~+{+O.)+]+Z.^+/+O./+(+_+#++     ",
"      :+<+[+}+}+|+|+1+1+H.H.2+2+3+3+U.U.4+4+ +#+#+#+#+#+5+:+    ",
"        + 6+6+6+6+6+6+6+6+6+6+6+6+6+6+6+6+6+6+6+6+6+6+6++ 7+    ",
"                                                                ",
"                                                                "};
