<?xml version="1.0" encoding="UTF-8" standalone="no"?>
<!-- Created with Inkscape (http://www.inkscape.org/) -->
<svg
   xmlns:dc="http://purl.org/dc/elements/1.1/"
   xmlns:cc="http://web.resource.org/cc/"
   xmlns:rdf="http://www.w3.org/1999/02/22-rdf-syntax-ns#"
   xmlns:svg="http://www.w3.org/2000/svg"
   xmlns="http://www.w3.org/2000/svg"
   xmlns:sodipodi="http://inkscape.sourceforge.net/DTD/sodipodi-0.dtd"
   xmlns:inkscape="http://www.inkscape.org/namespaces/inkscape"
   width="600.00000pt"
   height="600.00000pt"
   id="svg2"
   sodipodi:version="0.32"
   inkscape:version="0.43"
   sodipodi:docbase="/home/support/Source/ezix-workspace/packages/lshw/development/src/gui/artwork"
   sodipodi:docname="amd.svg">
  <defs
     id="defs3" />
  <sodipodi:namedview
     gridtolerance="4.0000000px"
     id="base"
     pagecolor="#ffffff"
     bordercolor="#666666"
     borderopacity="1.0"
     inkscape:pageopacity="0.0"
     inkscape:pageshadow="2"
     inkscape:zoom="0.35"
     inkscape:cx="581.38338"
     inkscape:cy="243.3966"
     inkscape:document-units="px"
     inkscape:current-layer="layer1"
     inkscape:grid-points="true"
     showgrid="true"
     gridspacingx="10.000000px"
     gridspacingy="10.000000px"
     inkscape:window-width="842"
     inkscape:window-height="676"
     inkscape:window-x="0"
     inkscape:window-y="26" />
  <metadata
     id="metadata4">
    <rdf:RDF>
      <cc:Work
         rdf:about="">
        <dc:format>image/svg+xml</dc:format>
        <dc:type
           rdf:resource="http://purl.org/dc/dcmitype/StillImage" />
        <dc:title>AMD</dc:title>
        <dc:date>2006/01/24</dc:date>
        <dc:creator>
          <cc:Agent>
            <dc:title>Lyonel Vincent</dc:title>
          </cc:Agent>
        </dc:creator>
        <dc:publisher>
          <cc:Agent>
            <dc:title>ezIX.org</dc:title>
          </cc:Agent>
        </dc:publisher>
        <dc:identifier>amd</dc:identifier>
        <dc:language>C</dc:language>
        <dc:subject>
          <rdf:Bag>
            <rdf:li>amd logo</rdf:li>
          </rdf:Bag>
        </dc:subject>
        <cc:license
           rdf:resource="http://creativecommons.org/licenses/GPL/2.0/" />
        <dc:source>$Id: amd.svg 1822 2007-08-07 19:51:34Z lyonel $</dc:source>
      </cc:Work>
      <cc:License
         rdf:about="http://creativecommons.org/licenses/GPL/2.0/">
        <cc:permits
           rdf:resource="http://web.resource.org/cc/Reproduction" />
        <cc:permits
           rdf:resource="http://web.resource.org/cc/Distribution" />
        <cc:requires
           rdf:resource="http://web.resource.org/cc/Notice" />
        <cc:permits
           rdf:resource="http://web.resource.org/cc/DerivativeWorks" />
        <cc:requires
           rdf:resource="http://web.resource.org/cc/ShareAlike" />
        <cc:requires
           rdf:resource="http://web.resource.org/cc/SourceCode" />
      </cc:License>
    </rdf:RDF>
  </metadata>
  <g
     inkscape:label="Layer 1"
     inkscape:groupmode="layer"
     id="layer1">
    <g
       id="g5773"
       transform="translate(22.85714,-200)">
      <g
         transform="translate(-5.714286,0)"
         id="g4875">
        <path
           style="fill:#00824a;fill-opacity:1;fill-rule:evenodd;stroke:none;stroke-width:0.25pt;stroke-linecap:butt;stroke-linejoin:miter;stroke-opacity:1"
           d="M 550,500 L 590,540 L 660,540 L 660,610 L 700,650 L 700,500 L 550,500 z "
           id="path1368" />
        <path
           style="fill:#00824a;fill-opacity:1;fill-rule:evenodd;stroke:none;stroke-width:0.25pt;stroke-linecap:butt;stroke-linejoin:miter;stroke-opacity:1"
           d="M 590,550 L 550,590 L 550,650 L 610,650 L 650,610 L 590,610 L 590,550 z "
           id="path3118"
           sodipodi:nodetypes="ccccccc" />
      </g>
      <g
         transform="translate(10,185)"
         id="g5768">
        <path
           style="fill:#000000;fill-opacity:1;fill-rule:evenodd;stroke:none;stroke-width:0.25pt;stroke-linecap:butt;stroke-linejoin:miter;stroke-opacity:1"
           d="M 60,320 L 0,460 L 40,460 L 50,430 L 110,430 L 120,460 L 160,460 L 100,320 L 60,320 z M 80,350 L 100,400 L 60,400 L 80,350 z "
           id="path4883"
           sodipodi:nodetypes="ccccccccccccc" />
        <path
           style="fill:#000000;fill-opacity:1;fill-rule:evenodd;stroke:none;stroke-width:0.25pt;stroke-linecap:butt;stroke-linejoin:miter;stroke-opacity:1"
           d="M 180,460 L 180,320 L 220,320 L 255,360 L 290,320 L 330,320 L 330,460 L 290,460 L 290,370 L 255,410 L 220,370 L 220,460 L 180,460 z "
           id="path5761"
           sodipodi:nodetypes="ccccccccccccc" />
        <path
           style="fill:#000000;fill-opacity:1;fill-rule:evenodd;stroke:none;stroke-width:0.25pt;stroke-linecap:butt;stroke-linejoin:miter;stroke-opacity:1"
           d="M 360,320 L 360,460 C 360,460 430,460 450,460 C 480,460 500,429.28571 500,390 C 500,350.71429 480,320 450,320 C 430,320 360,320 360,320 z M 400,350 C 400,350 415,350 435,350 C 455,350 460,380 460,390 C 460,403.46291 455,430 435,430 C 415,430 400,430 400,430 L 400,350 z "
           id="path5763"
           sodipodi:nodetypes="ccsssccssscc" />
      </g>
    </g>
  </g>
</svg>
