<?xml version="1.0" encoding="UTF-8" standalone="no"?>
<!-- Created with Inkscape (http://www.inkscape.org/) -->
<svg
   xmlns:dc="http://purl.org/dc/elements/1.1/"
   xmlns:cc="http://web.resource.org/cc/"
   xmlns:rdf="http://www.w3.org/1999/02/22-rdf-syntax-ns#"
   xmlns:svg="http://www.w3.org/2000/svg"
   xmlns="http://www.w3.org/2000/svg"
   xmlns:sodipodi="http://inkscape.sourceforge.net/DTD/sodipodi-0.dtd"
   xmlns:inkscape="http://www.inkscape.org/namespaces/inkscape"
   width="600.00000pt"
   height="600.00000pt"
   id="svg2"
   sodipodi:version="0.32"
   inkscape:version="0.41"
   sodipodi:docbase="/home/support/Source/ezix-workspace/packages/lshw/development/src/gui/artwork"
   sodipodi:docname="audio.svg">
  <defs
     id="defs3" />
  <sodipodi:namedview
     gridtolerance="4.0000000px"
     id="base"
     pagecolor="#ffffff"
     bordercolor="#666666"
     borderopacity="1.0"
     inkscape:pageopacity="0.0"
     inkscape:pageshadow="2"
     inkscape:zoom="0.49497475"
     inkscape:cx="461.33575"
     inkscape:cy="327.32759"
     inkscape:document-units="px"
     inkscape:current-layer="layer1"
     inkscape:grid-points="true"
     showgrid="true"
     gridspacingx="10.000000px"
     gridspacingy="10.000000px"
     inkscape:window-width="842"
     inkscape:window-height="676"
     inkscape:window-x="0"
     inkscape:window-y="26" />
  <metadata
     id="metadata4">
    <rdf:RDF
       id="RDF5">
      <cc:Work
         rdf:about=""
         id="Work6">
        <dc:format
           id="format7">image/svg+xml</dc:format>
        <dc:type
           id="type9"
           rdf:resource="http://purl.org/dc/dcmitype/StillImage" />
        <dc:title
           id="title2866">Audio</dc:title>
        <dc:date
           id="date2868">2005/03/28</dc:date>
        <dc:creator
           id="creator2870">
          <cc:Agent
             id="Agent2872">
            <dc:title
               id="title2874">Lyonel Vincent</dc:title>
          </cc:Agent>
        </dc:creator>
        <dc:publisher
           id="publisher2876">
          <cc:Agent
             id="Agent2878">
            <dc:title
               id="title2880">ezIX.org</dc:title>
          </cc:Agent>
        </dc:publisher>
        <dc:identifier
           id="identifier2882">audio</dc:identifier>
        <dc:language
           id="language2884">C</dc:language>
        <dc:subject
           id="subject2886">
          <rdf:Bag
             id="Bag2888">
            <rdf:li
               id="li2130">sound audio music</rdf:li>
          </rdf:Bag>
        </dc:subject>
        <cc:license
           id="license2918"
           rdf:resource="http://creativecommons.org/licenses/GPL/2.0/" />
        <dc:source
           id="source1314">$Id: audio.svg 1822 2007-08-07 19:51:34Z lyonel $</dc:source>
      </cc:Work>
      <cc:License
         rdf:about="http://creativecommons.org/licenses/GPL/2.0/"
         id="License2920">
        <cc:permits
           rdf:resource="http://web.resource.org/cc/Reproduction"
           id="permits2922" />
        <cc:permits
           rdf:resource="http://web.resource.org/cc/Distribution"
           id="permits2924" />
        <cc:requires
           rdf:resource="http://web.resource.org/cc/Notice"
           id="requires2926" />
        <cc:permits
           rdf:resource="http://web.resource.org/cc/DerivativeWorks"
           id="permits2928" />
        <cc:requires
           rdf:resource="http://web.resource.org/cc/ShareAlike"
           id="requires2930" />
        <cc:requires
           rdf:resource="http://web.resource.org/cc/SourceCode"
           id="requires2932" />
      </cc:License>
    </rdf:RDF>
  </metadata>
  <g
     inkscape:label="Layer 1"
     inkscape:groupmode="layer"
     id="layer1">
    <path
       style="fill:#000000;fill-opacity:1.0000000;fill-rule:evenodd;stroke:#000000;stroke-width:1.0000000pt;stroke-linecap:butt;stroke-linejoin:miter;stroke-opacity:1.0000000"
       d="M 602.37500,32.000000 L 602.37500,290.65625 C 586.08086,283.85871 561.49534,288.45556 540.00000,303.96875 C 511.86478,324.27393 499.69153,355.55729 512.84375,373.78125 C 525.99597,392.00520 559.48979,390.30517 587.62500,370.00000 C 607.46340,355.68265 619.31980,335.92794 620.00000,319.12500 L 620.96880,319.12500 L 620.96880,109.43750 C 660.78890,106.85049 683.50960,115.68144 729.78120,172.31250 L 729.78120,121.28125 C 724.71250,68.976500 684.19800,50.686060 620.96880,32.531250 L 620.96880,32.000000 L 602.37500,32.000000 z "
       id="path1323" />
    <path
       style="fill:#000000;fill-opacity:1.0000000;fill-rule:evenodd;stroke:#000000;stroke-width:1.0000003pt;stroke-linecap:butt;stroke-linejoin:miter;stroke-opacity:1.0000000"
       d="M 350.48317,240.62500 L 350.48317,424.45795 C 338.90255,419.62678 321.42905,422.89387 306.15182,433.91945 C 286.15547,448.35081 277.50366,470.58461 286.85125,483.53680 C 296.19883,496.48898 320.00366,495.28073 340.00000,480.84938 C 354.09959,470.67371 362.52626,456.63358 363.00966,444.69135 L 363.69817,444.69135 L 363.69817,295.66162 C 391.99927,293.82297 408.14741,300.09933 441.03372,340.34833 L 441.03372,304.07924 C 437.43125,266.90505 408.63668,253.90562 363.69817,241.00258 L 363.69817,240.62500 L 350.48317,240.62500 z "
       id="path2092" />
    <path
       style="fill:#000000;fill-opacity:1.0000000;fill-rule:evenodd;stroke:#000000;stroke-width:1.0000006pt;stroke-linecap:butt;stroke-linejoin:miter;stroke-opacity:1.0000000"
       d="M 150.00000,295.18666 L 150.00000,450.18711 C 140.23570,446.11367 125.50275,448.86835 112.62161,458.16468 C 95.761500,470.33261 88.466660,489.07924 96.348160,500.00000 C 104.22966,510.92074 124.30092,509.90200 141.16102,497.73408 C 153.04923,489.15437 160.15424,477.31630 160.56183,467.24710 L 161.14235,467.24710 L 161.14235,341.59130 C 185.00469,340.04102 198.62014,345.33300 226.34854,379.26931 L 226.34854,348.68870 C 223.31107,317.34493 199.03267,306.38434 161.14235,295.50502 L 161.14235,295.18666 L 150.00000,295.18666 z "
       id="path1319" />
    <path
       style="fill:none;fill-opacity:0.75000000;fill-rule:evenodd;stroke:#000000;stroke-width:12.000000;stroke-linecap:round;stroke-linejoin:round;stroke-opacity:1.0000000;stroke-dasharray:none;stroke-miterlimit:4.0000000"
       d="M 30.000000,560.00000 C 206.14204,470.81220 182.27858,305.40935 330.00000,240.00000 C 475.71429,175.47938 525.97993,270.00000 740.00000,130.00000"
       id="path1346"
       sodipodi:nodetypes="czz" />
    <path
       style="stroke-dasharray:none;stroke-opacity:1.0000000;stroke-miterlimit:4.0000000;stroke-linejoin:round;stroke-linecap:round;stroke-width:12.000000;stroke:#000000;fill-rule:evenodd;fill-opacity:0.75000000;fill:none"
       d="M 30.000000,610.00000 C 206.14204,520.81220 190.31250,366.89838 330.15625,308.44919 C 470.00000,250.00000 560.00000,310.00000 720.00000,220.00000"
       id="path2108"
       sodipodi:nodetypes="czz" />
    <path
       style="stroke-dasharray:none;stroke-opacity:1.0000000;stroke-miterlimit:4.0000000;stroke-linejoin:round;stroke-linecap:round;stroke-width:12.000000;stroke:#000000;fill-rule:evenodd;fill-opacity:0.75000000;fill:none"
       d="M 30.000000,644.90209 C 206.14204,555.71429 204.78564,450.00000 336.29829,375.94919 C 463.87129,304.11668 544.55136,394.28571 724.28571,300.00000"
       id="path2110"
       sodipodi:nodetypes="czz" />
    <path
       style="stroke-dasharray:none;stroke-opacity:1.0000000;stroke-miterlimit:4.0000000;stroke-linejoin:round;stroke-linecap:round;stroke-width:12.000000;stroke:#000000;fill-rule:evenodd;fill-opacity:0.75000000;fill:none"
       d="M 35.286532,680.00000 C 211.42857,590.81220 222.02473,519.02049 360.15625,440.00000 C 500.00000,360.00000 617.40851,443.36159 725.71429,384.28571"
       id="path2112"
       sodipodi:nodetypes="czz" />
  </g>
</svg>
