<?xml version="1.0" encoding="UTF-8" standalone="no"?>
<!-- Created with Inkscape (http://www.inkscape.org/) -->
<svg
   xmlns:dc="http://purl.org/dc/elements/1.1/"
   xmlns:cc="http://web.resource.org/cc/"
   xmlns:rdf="http://www.w3.org/1999/02/22-rdf-syntax-ns#"
   xmlns:svg="http://www.w3.org/2000/svg"
   xmlns="http://www.w3.org/2000/svg"
   xmlns:xlink="http://www.w3.org/1999/xlink"
   xmlns:sodipodi="http://inkscape.sourceforge.net/DTD/sodipodi-0.dtd"
   xmlns:inkscape="http://www.inkscape.org/namespaces/inkscape"
   sodipodi:docname="cpu.svg"
   sodipodi:docbase="/home/support/Source/ezix/packages/lshw/development/src/gui/artwork"
   inkscape:version="0.42"
   sodipodi:version="0.32"
   id="svg2"
   height="600.00000pt"
   width="600.00000pt">
  <defs
     id="defs3">
    <linearGradient
       id="linearGradient2403">
      <stop
         style="stop-color:#adadad;stop-opacity:1;"
         offset="0"
         id="stop2405" />
      <stop
         style="stop-color:#adadad;stop-opacity:0.50000000;"
         offset="1.0000000"
         id="stop2407" />
    </linearGradient>
    <linearGradient
       id="linearGradient2390">
      <stop
         style="stop-color:#000000;stop-opacity:1.0000000;"
         offset="0.0000000"
         id="stop2392" />
      <stop
         id="stop2401"
         offset="0.50000000"
         style="stop-color:#ffffff;stop-opacity:0.64179105;" />
      <stop
         style="stop-color:#7f7f7f;stop-opacity:0;"
         offset="1"
         id="stop2394" />
    </linearGradient>
    <linearGradient
       id="linearGradient2681">
      <stop
         style="stop-color:#000000;stop-opacity:1;"
         offset="0"
         id="stop2683" />
      <stop
         style="stop-color:#000000;stop-opacity:0;"
         offset="1"
         id="stop2685" />
    </linearGradient>
    <radialGradient
       inkscape:collect="always"
       xlink:href="#linearGradient2403"
       id="radialGradient2409"
       cx="762.41937"
       cy="299.94128"
       fx="762.41937"
       fy="299.94128"
       r="176.44526"
       gradientTransform="matrix(-2.509884,2.833740,-0.727950,-0.644768,2470.498,-1562.820)"
       gradientUnits="userSpaceOnUse" />
  </defs>
  <sodipodi:namedview
     inkscape:window-y="46"
     inkscape:window-x="82"
     inkscape:window-height="908"
     inkscape:window-width="1101"
     inkscape:current-layer="layer1"
     inkscape:document-units="px"
     inkscape:cy="437.39351"
     inkscape:cx="407.06245"
     inkscape:zoom="0.35000000"
     inkscape:pageshadow="2"
     inkscape:pageopacity="0.0"
     borderopacity="1.0"
     bordercolor="#666666"
     pagecolor="#ffffff"
     id="base"
     showgrid="true"
     inkscape:grid-points="true" />
  <metadata
     id="metadata4">
    <rdf:RDF>
      <cc:Work
         rdf:about="">
        <dc:format>image/svg+xml</dc:format>
        <dc:type
           rdf:resource="http://purl.org/dc/dcmitype/StillImage" />
        <dc:date>2005/09/01</dc:date>
        <dc:creator>
          <cc:Agent>
            <dc:title>Lyonel Vincent</dc:title>
          </cc:Agent>
        </dc:creator>
        <dc:publisher>
          <cc:Agent>
            <dc:title>ezIX.org</dc:title>
          </cc:Agent>
        </dc:publisher>
        <dc:identifier>cpu</dc:identifier>
        <dc:source>$Id: cpu.svg 1822 2007-08-07 19:51:34Z lyonel $</dc:source>
        <dc:language>C</dc:language>
        <dc:subject>
          <rdf:Bag>
            <rdf:li>CPU chip component</rdf:li>
          </rdf:Bag>
        </dc:subject>
        <cc:license
           rdf:resource="http://creativecommons.org/licenses/GPL/2.0/" />
        <dc:title>CPU</dc:title>
      </cc:Work>
      <cc:License
         rdf:about="http://creativecommons.org/licenses/GPL/2.0/">
        <cc:permits
           rdf:resource="http://web.resource.org/cc/Reproduction" />
        <cc:permits
           rdf:resource="http://web.resource.org/cc/Distribution" />
        <cc:requires
           rdf:resource="http://web.resource.org/cc/Notice" />
        <cc:permits
           rdf:resource="http://web.resource.org/cc/DerivativeWorks" />
        <cc:requires
           rdf:resource="http://web.resource.org/cc/ShareAlike" />
        <cc:requires
           rdf:resource="http://web.resource.org/cc/SourceCode" />
      </cc:License>
    </rdf:RDF>
  </metadata>
  <g
     id="layer1"
     inkscape:groupmode="layer"
     inkscape:label="Layer 1">
    <g
       id="g2413">
      <path
         id="path1417"
         d="M 13.000000,207.00000 L 523.00000,53.000000 L 734.00000,517.00000 L 207.00000,706.00000 L 13.000000,207.00000 z "
         style="fill:#1e661f;fill-opacity:1.0000000;fill-rule:evenodd;stroke:#36b738;stroke-width:3.0000000;stroke-linecap:round;stroke-linejoin:round;stroke-miterlimit:4.0000000;stroke-dasharray:none;stroke-opacity:1.0000000" />
      <path
         sodipodi:nodetypes="ccccccc"
         id="path2151"
         d="M 167.00000,277.00000 L 183.00000,263.00000 L 471.42857,168.57143 L 594.00000,440.00000 L 588.57143,451.42857 L 278.57143,560.00000 L 167.00000,277.00000 z "
         style="fill:#353535;fill-opacity:1.0000000;fill-rule:evenodd;stroke:#000000;stroke-width:1.0000000px;stroke-linecap:butt;stroke-linejoin:miter;stroke-opacity:1.0000000" />
      <path
         style="opacity:1.0000000;fill:#a3a3a3;fill-opacity:1.0000000;fill-rule:evenodd;stroke:#000000;stroke-width:1.0000000px;stroke-linecap:butt;stroke-linejoin:miter;stroke-opacity:1.0000000"
         d="M 270.00000,243.00000 C 324.10262,227.35050 369.14286,210.14286 408.57143,198.57143 C 448.00000,187.00000 466.18515,185.89295 480.00000,210.00000 C 494.00000,234.43014 536.33919,332.28459 551.00000,368.42857 C 565.42857,404.00000 575.00000,424.87253 546.00000,438.42857 C 518.85288,451.11849 422.00000,482.00000 363.00000,503.00000 C 304.30920,523.88995 301.00000,511.00000 290.00000,488.57143 C 278.94850,466.03785 232.00000,343.00000 218.57143,303.00000 C 205.24073,263.29154 213.00000,259.48758 270.00000,243.00000 z "
         id="path2411"
         sodipodi:nodetypes="czzzzzzzz" />
      <path
         id="path2149"
         d="M 181.42857,263.00000 L 473.00000,168.57143 L 594.00000,443.00000 L 290.00000,547.00000 L 181.42857,263.00000 z "
         style="fill:#000000;fill-opacity:1.0000000;fill-rule:evenodd;stroke:#000000;stroke-width:1.0000000px;stroke-linecap:butt;stroke-linejoin:miter;stroke-opacity:1.0000000" />
      <path
         sodipodi:nodetypes="czzzzzzzz"
         id="path1419"
         d="M 270.00000,243.00000 C 324.10262,227.35050 369.14286,210.14286 408.57143,198.57143 C 448.00000,187.00000 466.18515,185.89295 480.00000,210.00000 C 494.00000,234.43014 536.33919,332.28459 551.00000,368.42857 C 565.42857,404.00000 575.00000,424.87253 546.00000,438.42857 C 518.85288,451.11849 422.00000,482.00000 363.00000,503.00000 C 304.30920,523.88995 301.00000,511.00000 290.00000,488.57143 C 278.94850,466.03785 232.00000,343.00000 218.57143,303.00000 C 205.24073,263.29154 213.00000,259.48758 270.00000,243.00000 z "
         style="opacity:1.0000000;fill:url(#radialGradient2409);fill-opacity:1.0000000;fill-rule:evenodd;stroke:#000000;stroke-width:1.0000000px;stroke-linecap:butt;stroke-linejoin:miter;stroke-opacity:1.0000000" />
      <g
         transform="translate(-30.00000,0.000000)"
         id="g2224">
        <path
           sodipodi:nodetypes="ccccccc"
           id="path2166"
           d="M 627.00000,397.00000 L 633.00000,389.00000 L 678.00000,375.00000 L 697.00000,411.00000 L 694.00000,418.00000 L 643.07143,435.50000 L 627.00000,397.00000 z "
           style="fill:#353535;fill-opacity:1.0000000;fill-rule:evenodd;stroke:#000000;stroke-width:1.0000000px;stroke-linecap:butt;stroke-linejoin:miter;stroke-opacity:1.0000000" />
        <path
           id="path2222"
           d="M 669.49425,380.04251 L 678.44099,376.88722 L 676.34233,373.50000 L 673.90736,372.50000 L 665.50000,375.50000 L 667.90736,376.50000 L 669.49425,380.04251 z "
           style="fill:#858585;fill-opacity:1.0000000;fill-rule:evenodd;stroke:#000000;stroke-width:1.0000000px;stroke-linecap:butt;stroke-linejoin:miter;stroke-opacity:1.0000000"
           sodipodi:nodetypes="ccccccc" />
        <path
           sodipodi:nodetypes="ccccccc"
           style="fill:#858585;fill-opacity:1.0000000;fill-rule:evenodd;stroke:#000000;stroke-width:1.0000000px;stroke-linecap:butt;stroke-linejoin:miter;stroke-opacity:1.0000000"
           d="M 657.99425,384.00000 L 666.94099,380.84471 L 664.84233,377.45749 L 662.40736,376.45749 L 654.00000,379.45749 L 656.40736,380.45749 L 657.99425,384.00000 z "
           id="path2218" />
        <path
           id="path2220"
           d="M 645.55326,388.00000 L 654.50000,384.84471 L 652.40134,381.45749 L 649.96637,380.45749 L 641.55901,383.45749 L 643.96637,384.45749 L 645.55326,388.00000 z "
           style="fill:#858585;fill-opacity:1.0000000;fill-rule:evenodd;stroke:#000000;stroke-width:1.0000000px;stroke-linecap:butt;stroke-linejoin:miter;stroke-opacity:1.0000000"
           sodipodi:nodetypes="ccccccc" />
        <path
           id="path2216"
           d="M 633.55326,392.00000 L 642.50000,388.84471 L 640.40134,385.45749 L 637.96637,384.45749 L 629.55901,387.45749 L 631.96637,388.45749 L 633.55326,392.00000 z "
           style="fill:#858585;fill-opacity:1.0000000;fill-rule:evenodd;stroke:#000000;stroke-width:1.0000000px;stroke-linecap:butt;stroke-linejoin:miter;stroke-opacity:1.0000000"
           sodipodi:nodetypes="ccccccc" />
        <path
           style="fill:#000000;fill-opacity:1.0000000;fill-rule:evenodd;stroke:#000000;stroke-width:1.0000000px;stroke-linecap:butt;stroke-linejoin:miter;stroke-opacity:1.0000000"
           d="M 633.00000,388.57143 L 650.00000,427.00000 L 697.00000,411.42857 L 680.00000,373.00000 L 633.00000,388.57143 z "
           id="path2692"
           sodipodi:nodetypes="ccccc" />
        <path
           style="fill:#858585;fill-opacity:1.0000000;fill-rule:evenodd;stroke:#000000;stroke-width:1.0000000px;stroke-linecap:butt;stroke-linejoin:miter;stroke-opacity:1.0000000"
           d="M 650.00000,431.00000 L 659.00000,428.00000 L 660.00000,432.50000 L 659.00000,436.42857 L 651.00000,439.00000 L 651.42857,435.00000 L 650.00000,431.00000 z "
           id="path2178" />
        <path
           id="path2180"
           d="M 673.50000,423.00000 L 682.50000,420.00000 L 683.50000,424.50000 L 682.50000,428.42857 L 674.50000,431.00000 L 674.92857,427.00000 L 673.50000,423.00000 z "
           style="fill:#858585;fill-opacity:1.0000000;fill-rule:evenodd;stroke:#000000;stroke-width:1.0000000px;stroke-linecap:butt;stroke-linejoin:miter;stroke-opacity:1.0000000" />
        <path
           style="fill:#858585;fill-opacity:1.0000000;fill-rule:evenodd;stroke:#000000;stroke-width:1.0000000px;stroke-linecap:butt;stroke-linejoin:miter;stroke-opacity:1.0000000"
           d="M 661.50000,427.00000 L 670.50000,424.00000 L 671.50000,428.50000 L 670.50000,432.42857 L 662.50000,435.00000 L 662.92857,431.00000 L 661.50000,427.00000 z "
           id="path2182" />
        <path
           style="fill:#858585;fill-opacity:1.0000000;fill-rule:evenodd;stroke:#000000;stroke-width:1.0000000px;stroke-linecap:butt;stroke-linejoin:miter;stroke-opacity:1.0000000"
           d="M 685.00000,419.00000 L 694.00000,416.00000 L 695.00000,420.50000 L 694.00000,424.42857 L 686.00000,427.00000 L 686.42857,423.00000 L 685.00000,419.00000 z "
           id="path2184" />
      </g>
      <g
         transform="translate(-118.5000,-195.0000)"
         id="g2236">
        <path
           style="fill:#353535;fill-opacity:1.0000000;fill-rule:evenodd;stroke:#000000;stroke-width:1.0000000px;stroke-linecap:butt;stroke-linejoin:miter;stroke-opacity:1.0000000"
           d="M 627.00000,397.00000 L 633.00000,389.00000 L 678.00000,375.00000 L 697.00000,411.00000 L 694.00000,418.00000 L 643.07143,435.50000 L 627.00000,397.00000 z "
           id="path2238"
           sodipodi:nodetypes="ccccccc" />
        <path
           sodipodi:nodetypes="ccccccc"
           style="fill:#858585;fill-opacity:1.0000000;fill-rule:evenodd;stroke:#000000;stroke-width:1.0000000px;stroke-linecap:butt;stroke-linejoin:miter;stroke-opacity:1.0000000"
           d="M 669.49425,380.04251 L 678.44099,376.88722 L 676.34233,373.50000 L 673.90736,372.50000 L 665.50000,375.50000 L 667.90736,376.50000 L 669.49425,380.04251 z "
           id="path2240" />
        <path
           id="path2242"
           d="M 657.99425,384.00000 L 666.94099,380.84471 L 664.84233,377.45749 L 662.40736,376.45749 L 654.00000,379.45749 L 656.40736,380.45749 L 657.99425,384.00000 z "
           style="fill:#858585;fill-opacity:1.0000000;fill-rule:evenodd;stroke:#000000;stroke-width:1.0000000px;stroke-linecap:butt;stroke-linejoin:miter;stroke-opacity:1.0000000"
           sodipodi:nodetypes="ccccccc" />
        <path
           sodipodi:nodetypes="ccccccc"
           style="fill:#858585;fill-opacity:1.0000000;fill-rule:evenodd;stroke:#000000;stroke-width:1.0000000px;stroke-linecap:butt;stroke-linejoin:miter;stroke-opacity:1.0000000"
           d="M 645.55326,388.00000 L 654.50000,384.84471 L 652.40134,381.45749 L 649.96637,380.45749 L 641.55901,383.45749 L 643.96637,384.45749 L 645.55326,388.00000 z "
           id="path2244" />
        <path
           sodipodi:nodetypes="ccccccc"
           style="fill:#858585;fill-opacity:1.0000000;fill-rule:evenodd;stroke:#000000;stroke-width:1.0000000px;stroke-linecap:butt;stroke-linejoin:miter;stroke-opacity:1.0000000"
           d="M 633.55326,392.00000 L 642.50000,388.84471 L 640.40134,385.45749 L 637.96637,384.45749 L 629.55901,387.45749 L 631.96637,388.45749 L 633.55326,392.00000 z "
           id="path2246" />
        <path
           sodipodi:nodetypes="ccccc"
           id="path2248"
           d="M 633.00000,388.57143 L 650.00000,427.00000 L 697.00000,411.42857 L 680.00000,373.00000 L 633.00000,388.57143 z "
           style="fill:#000000;fill-opacity:1.0000000;fill-rule:evenodd;stroke:#000000;stroke-width:1.0000000px;stroke-linecap:butt;stroke-linejoin:miter;stroke-opacity:1.0000000" />
        <path
           id="path2250"
           d="M 650.00000,431.00000 L 659.00000,428.00000 L 660.00000,432.50000 L 659.00000,436.42857 L 651.00000,439.00000 L 651.42857,435.00000 L 650.00000,431.00000 z "
           style="fill:#858585;fill-opacity:1.0000000;fill-rule:evenodd;stroke:#000000;stroke-width:1.0000000px;stroke-linecap:butt;stroke-linejoin:miter;stroke-opacity:1.0000000" />
        <path
           style="fill:#858585;fill-opacity:1.0000000;fill-rule:evenodd;stroke:#000000;stroke-width:1.0000000px;stroke-linecap:butt;stroke-linejoin:miter;stroke-opacity:1.0000000"
           d="M 673.50000,423.00000 L 682.50000,420.00000 L 683.50000,424.50000 L 682.50000,428.42857 L 674.50000,431.00000 L 674.92857,427.00000 L 673.50000,423.00000 z "
           id="path2252" />
        <path
           id="path2254"
           d="M 661.50000,427.00000 L 670.50000,424.00000 L 671.50000,428.50000 L 670.50000,432.42857 L 662.50000,435.00000 L 662.92857,431.00000 L 661.50000,427.00000 z "
           style="fill:#858585;fill-opacity:1.0000000;fill-rule:evenodd;stroke:#000000;stroke-width:1.0000000px;stroke-linecap:butt;stroke-linejoin:miter;stroke-opacity:1.0000000" />
        <path
           id="path2256"
           d="M 685.00000,419.00000 L 694.00000,416.00000 L 695.00000,420.50000 L 694.00000,424.42857 L 686.00000,427.00000 L 686.42857,423.00000 L 685.00000,419.00000 z "
           style="fill:#858585;fill-opacity:1.0000000;fill-rule:evenodd;stroke:#000000;stroke-width:1.0000000px;stroke-linecap:butt;stroke-linejoin:miter;stroke-opacity:1.0000000" />
      </g>
      <g
         transform="translate(-30.00000,0.000000)"
         id="g2291">
        <path
           sodipodi:nodetypes="ccccccc"
           id="path2260"
           d="M 360.00000,127.52538 L 364.00000,121.00000 L 401.00000,110.52538 L 409.50508,123.00000 L 406.00000,132.55076 L 367.57143,145.00000 L 360.00000,127.52538 z "
           style="fill:#353535;fill-opacity:1.0000000;fill-rule:evenodd;stroke:#000000;stroke-width:1.0000000px;stroke-linecap:butt;stroke-linejoin:miter;stroke-opacity:1.0000000" />
        <path
           style="fill:#a5a5a5;fill-opacity:1.0000000;fill-rule:evenodd;stroke:#000000;stroke-width:1.0000000px;stroke-linecap:butt;stroke-linejoin:miter;stroke-opacity:1.0000000"
           d="M 365.00000,121.00000 L 373.48985,135.48985 L 410.00000,123.45395 L 401.00000,110.00000 L 365.00000,121.00000 z "
           id="path2270"
           sodipodi:nodetypes="ccccc" />
      </g>
      <g
         transform="translate(33.50000,-21.00000)"
         id="g2295">
        <path
           style="fill:#353535;fill-opacity:1.0000000;fill-rule:evenodd;stroke:#000000;stroke-width:1.0000000px;stroke-linecap:butt;stroke-linejoin:miter;stroke-opacity:1.0000000"
           d="M 360.00000,127.52538 L 364.00000,121.00000 L 401.00000,110.52538 L 409.50508,123.00000 L 406.00000,132.55076 L 367.57143,145.00000 L 360.00000,127.52538 z "
           id="path2297"
           sodipodi:nodetypes="ccccccc" />
        <path
           sodipodi:nodetypes="ccccc"
           id="path2299"
           d="M 365.00000,121.00000 L 373.48985,135.48985 L 410.00000,123.45395 L 401.00000,110.00000 L 365.00000,121.00000 z "
           style="fill:#a5a5a5;fill-opacity:1.0000000;fill-rule:evenodd;stroke:#000000;stroke-width:1.0000000px;stroke-linecap:butt;stroke-linejoin:miter;stroke-opacity:1.0000000" />
      </g>
      <g
         id="g2301"
         transform="translate(-99.00000,21.50000)">
        <path
           sodipodi:nodetypes="ccccccc"
           id="path2303"
           d="M 360.00000,127.52538 L 364.00000,121.00000 L 401.00000,110.52538 L 409.50508,123.00000 L 406.00000,132.55076 L 367.57143,145.00000 L 360.00000,127.52538 z "
           style="fill:#353535;fill-opacity:1.0000000;fill-rule:evenodd;stroke:#000000;stroke-width:1.0000000px;stroke-linecap:butt;stroke-linejoin:miter;stroke-opacity:1.0000000" />
        <path
           style="fill:#a5a5a5;fill-opacity:1.0000000;fill-rule:evenodd;stroke:#000000;stroke-width:1.0000000px;stroke-linecap:butt;stroke-linejoin:miter;stroke-opacity:1.0000000"
           d="M 365.00000,121.00000 L 373.48985,135.48985 L 410.00000,123.45395 L 401.00000,110.00000 L 365.00000,121.00000 z "
           id="path2305"
           sodipodi:nodetypes="ccccc" />
      </g>
      <g
         transform="translate(-167.0000,43.00000)"
         id="g2307">
        <path
           style="fill:#353535;fill-opacity:1.0000000;fill-rule:evenodd;stroke:#000000;stroke-width:1.0000000px;stroke-linecap:butt;stroke-linejoin:miter;stroke-opacity:1.0000000"
           d="M 360.00000,127.52538 L 364.00000,121.00000 L 401.00000,110.52538 L 409.50508,123.00000 L 406.00000,132.55076 L 367.57143,145.00000 L 360.00000,127.52538 z "
           id="path2309"
           sodipodi:nodetypes="ccccccc" />
        <path
           sodipodi:nodetypes="ccccc"
           id="path2311"
           d="M 365.00000,121.00000 L 373.48985,135.48985 L 410.00000,123.45395 L 401.00000,110.00000 L 365.00000,121.00000 z "
           style="fill:#a5a5a5;fill-opacity:1.0000000;fill-rule:evenodd;stroke:#000000;stroke-width:1.0000000px;stroke-linecap:butt;stroke-linejoin:miter;stroke-opacity:1.0000000" />
      </g>
      <g
         id="g2313"
         transform="translate(-236.5000,62.00000)">
        <path
           sodipodi:nodetypes="ccccccc"
           id="path2315"
           d="M 360.00000,127.52538 L 364.00000,121.00000 L 401.00000,110.52538 L 409.50508,123.00000 L 406.00000,132.55076 L 367.57143,145.00000 L 360.00000,127.52538 z "
           style="fill:#353535;fill-opacity:1.0000000;fill-rule:evenodd;stroke:#000000;stroke-width:1.0000000px;stroke-linecap:butt;stroke-linejoin:miter;stroke-opacity:1.0000000" />
        <path
           style="fill:#a5a5a5;fill-opacity:1.0000000;fill-rule:evenodd;stroke:#000000;stroke-width:1.0000000px;stroke-linecap:butt;stroke-linejoin:miter;stroke-opacity:1.0000000"
           d="M 365.00000,121.00000 L 373.48985,135.48985 L 410.00000,123.45395 L 401.00000,110.00000 L 365.00000,121.00000 z "
           id="path2317"
           sodipodi:nodetypes="ccccc" />
      </g>
      <g
         transform="translate(-302.5000,84.00000)"
         id="g2319">
        <path
           style="fill:#353535;fill-opacity:1.0000000;fill-rule:evenodd;stroke:#000000;stroke-width:1.0000000px;stroke-linecap:butt;stroke-linejoin:miter;stroke-opacity:1.0000000"
           d="M 360.00000,127.52538 L 364.00000,121.00000 L 401.00000,110.52538 L 409.50508,123.00000 L 406.00000,132.55076 L 367.57143,145.00000 L 360.00000,127.52538 z "
           id="path2321"
           sodipodi:nodetypes="ccccccc" />
        <path
           sodipodi:nodetypes="ccccc"
           id="path2323"
           d="M 365.00000,121.00000 L 373.48985,135.48985 L 410.00000,123.45395 L 401.00000,110.00000 L 365.00000,121.00000 z "
           style="fill:#a5a5a5;fill-opacity:1.0000000;fill-rule:evenodd;stroke:#000000;stroke-width:1.0000000px;stroke-linecap:butt;stroke-linejoin:miter;stroke-opacity:1.0000000" />
      </g>
      <g
         id="g2325"
         transform="translate(-117.5000,519.5000)">
        <path
           sodipodi:nodetypes="ccccccc"
           id="path2327"
           d="M 360.00000,127.52538 L 364.00000,121.00000 L 401.00000,110.52538 L 409.50508,123.00000 L 406.00000,132.55076 L 367.57143,145.00000 L 360.00000,127.52538 z "
           style="fill:#353535;fill-opacity:1.0000000;fill-rule:evenodd;stroke:#000000;stroke-width:1.0000000px;stroke-linecap:butt;stroke-linejoin:miter;stroke-opacity:1.0000000" />
        <path
           style="fill:#a5a5a5;fill-opacity:1.0000000;fill-rule:evenodd;stroke:#000000;stroke-width:1.0000000px;stroke-linecap:butt;stroke-linejoin:miter;stroke-opacity:1.0000000"
           d="M 365.00000,121.00000 L 373.48985,135.48985 L 410.00000,123.45395 L 401.00000,110.00000 L 365.00000,121.00000 z "
           id="path2329"
           sodipodi:nodetypes="ccccc" />
      </g>
      <g
         transform="translate(-52.00000,497.5000)"
         id="g2331">
        <path
           style="fill:#353535;fill-opacity:1.0000000;fill-rule:evenodd;stroke:#000000;stroke-width:1.0000000px;stroke-linecap:butt;stroke-linejoin:miter;stroke-opacity:1.0000000"
           d="M 360.00000,127.52538 L 364.00000,121.00000 L 401.00000,110.52538 L 409.50508,123.00000 L 406.00000,132.55076 L 367.57143,145.00000 L 360.00000,127.52538 z "
           id="path2333"
           sodipodi:nodetypes="ccccccc" />
        <path
           sodipodi:nodetypes="ccccc"
           id="path2335"
           d="M 365.00000,121.00000 L 373.48985,135.48985 L 410.00000,123.45395 L 401.00000,110.00000 L 365.00000,121.00000 z "
           style="fill:#a5a5a5;fill-opacity:1.0000000;fill-rule:evenodd;stroke:#000000;stroke-width:1.0000000px;stroke-linecap:butt;stroke-linejoin:miter;stroke-opacity:1.0000000" />
      </g>
      <g
         id="g2337"
         transform="translate(24.00000,471.5000)">
        <path
           sodipodi:nodetypes="ccccccc"
           id="path2339"
           d="M 360.00000,127.52538 L 364.00000,121.00000 L 401.00000,110.52538 L 409.50508,123.00000 L 406.00000,132.55076 L 367.57143,145.00000 L 360.00000,127.52538 z "
           style="fill:#353535;fill-opacity:1.0000000;fill-rule:evenodd;stroke:#000000;stroke-width:1.0000000px;stroke-linecap:butt;stroke-linejoin:miter;stroke-opacity:1.0000000" />
        <path
           style="fill:#a5a5a5;fill-opacity:1.0000000;fill-rule:evenodd;stroke:#000000;stroke-width:1.0000000px;stroke-linecap:butt;stroke-linejoin:miter;stroke-opacity:1.0000000"
           d="M 365.00000,121.00000 L 373.48985,135.48985 L 410.00000,123.45395 L 401.00000,110.00000 L 365.00000,121.00000 z "
           id="path2341"
           sodipodi:nodetypes="ccccc" />
      </g>
      <g
         transform="translate(90.50000,448.0000)"
         id="g2343">
        <path
           style="fill:#353535;fill-opacity:1.0000000;fill-rule:evenodd;stroke:#000000;stroke-width:1.0000000px;stroke-linecap:butt;stroke-linejoin:miter;stroke-opacity:1.0000000"
           d="M 360.00000,127.52538 L 364.00000,121.00000 L 401.00000,110.52538 L 409.50508,123.00000 L 406.00000,132.55076 L 367.57143,145.00000 L 360.00000,127.52538 z "
           id="path2345"
           sodipodi:nodetypes="ccccccc" />
        <path
           sodipodi:nodetypes="ccccc"
           id="path2347"
           d="M 365.00000,121.00000 L 373.48985,135.48985 L 410.00000,123.45395 L 401.00000,110.00000 L 365.00000,121.00000 z "
           style="fill:#a5a5a5;fill-opacity:1.0000000;fill-rule:evenodd;stroke:#000000;stroke-width:1.0000000px;stroke-linecap:butt;stroke-linejoin:miter;stroke-opacity:1.0000000" />
      </g>
      <g
         id="g2349"
         transform="translate(158.5000,425.0000)">
        <path
           sodipodi:nodetypes="ccccccc"
           id="path2351"
           d="M 360.00000,127.52538 L 364.00000,121.00000 L 401.00000,110.52538 L 409.50508,123.00000 L 406.00000,132.55076 L 367.57143,145.00000 L 360.00000,127.52538 z "
           style="fill:#353535;fill-opacity:1.0000000;fill-rule:evenodd;stroke:#000000;stroke-width:1.0000000px;stroke-linecap:butt;stroke-linejoin:miter;stroke-opacity:1.0000000" />
        <path
           style="fill:#a5a5a5;fill-opacity:1.0000000;fill-rule:evenodd;stroke:#000000;stroke-width:1.0000000px;stroke-linecap:butt;stroke-linejoin:miter;stroke-opacity:1.0000000"
           d="M 365.00000,121.00000 L 373.48985,135.48985 L 410.00000,123.45395 L 401.00000,110.00000 L 365.00000,121.00000 z "
           id="path2353"
           sodipodi:nodetypes="ccccc" />
      </g>
      <g
         transform="translate(225.0000,401.0000)"
         id="g2355">
        <path
           style="fill:#353535;fill-opacity:1.0000000;fill-rule:evenodd;stroke:#000000;stroke-width:1.0000000px;stroke-linecap:butt;stroke-linejoin:miter;stroke-opacity:1.0000000"
           d="M 360.00000,127.52538 L 364.00000,121.00000 L 401.00000,110.52538 L 409.50508,123.00000 L 406.00000,132.55076 L 367.57143,145.00000 L 360.00000,127.52538 z "
           id="path2357"
           sodipodi:nodetypes="ccccccc" />
        <path
           sodipodi:nodetypes="ccccc"
           id="path2359"
           d="M 365.00000,121.00000 L 373.48985,135.48985 L 410.00000,123.45395 L 401.00000,110.00000 L 365.00000,121.00000 z "
           style="fill:#a5a5a5;fill-opacity:1.0000000;fill-rule:evenodd;stroke:#000000;stroke-width:1.0000000px;stroke-linecap:butt;stroke-linejoin:miter;stroke-opacity:1.0000000" />
      </g>
      <path
         id="path2362"
         d="M 589.00000,257.00000 L 599.00000,280.00000 L 590.00000,283.00000 L 580.00000,260.00000 L 589.00000,257.00000 z "
         style="fill:#adadad;fill-opacity:1.0000000;fill-rule:evenodd;stroke:#000000;stroke-width:1.0000000px;stroke-linecap:butt;stroke-linejoin:miter;stroke-opacity:1.0000000" />
      <path
         style="fill:#adadad;fill-opacity:1.0000000;fill-rule:evenodd;stroke:#000000;stroke-width:1.0000000px;stroke-linecap:butt;stroke-linejoin:miter;stroke-opacity:1.0000000"
         d="M 592.00000,304.50000 L 602.00000,327.50000 L 593.00000,330.50000 L 583.00000,307.50000 L 592.00000,304.50000 z "
         id="path2364" />
      <path
         id="path2366"
         d="M 571.50000,263.50000 L 581.50000,286.50000 L 572.50000,289.50000 L 562.50000,266.50000 L 571.50000,263.50000 z "
         style="fill:#adadad;fill-opacity:1.0000000;fill-rule:evenodd;stroke:#000000;stroke-width:1.0000000px;stroke-linecap:butt;stroke-linejoin:miter;stroke-opacity:1.0000000" />
      <path
         style="fill:#adadad;fill-opacity:1.0000000;fill-rule:evenodd;stroke:#000000;stroke-width:1.0000000px;stroke-linecap:butt;stroke-linejoin:miter;stroke-opacity:1.0000000"
         d="M 610.50000,298.50000 L 620.50000,321.50000 L 611.50000,324.50000 L 601.50000,301.50000 L 610.50000,298.50000 z "
         id="path2368" />
      <path
         id="path2370"
         d="M 553.00000,270.50000 L 563.00000,293.50000 L 554.00000,296.50000 L 544.00000,273.50000 L 553.00000,270.50000 z "
         style="fill:#adadad;fill-opacity:1.0000000;fill-rule:evenodd;stroke:#000000;stroke-width:1.0000000px;stroke-linecap:butt;stroke-linejoin:miter;stroke-opacity:1.0000000" />
      <path
         style="fill:#adadad;fill-opacity:1.0000000;fill-rule:evenodd;stroke:#000000;stroke-width:1.0000000px;stroke-linecap:butt;stroke-linejoin:miter;stroke-opacity:1.0000000"
         d="M 572.50000,311.00000 L 582.50000,334.00000 L 573.50000,337.00000 L 563.50000,314.00000 L 572.50000,311.00000 z "
         id="path2372" />
      <path
         id="path2374"
         d="M 589.50000,351.50000 L 599.50000,374.50000 L 590.50000,377.50000 L 580.50000,354.50000 L 589.50000,351.50000 z "
         style="fill:#adadad;fill-opacity:1.0000000;fill-rule:evenodd;stroke:#000000;stroke-width:1.0000000px;stroke-linecap:butt;stroke-linejoin:miter;stroke-opacity:1.0000000" />
      <path
         style="fill:#adadad;fill-opacity:1.0000000;fill-rule:evenodd;stroke:#000000;stroke-width:1.0000000px;stroke-linecap:butt;stroke-linejoin:miter;stroke-opacity:1.0000000"
         d="M 610.00000,345.50000 L 620.00000,368.50000 L 611.00000,371.50000 L 601.00000,348.50000 L 610.00000,345.50000 z "
         id="path2376" />
      <path
         id="path2378"
         d="M 628.50000,339.50000 L 638.50000,362.50000 L 629.50000,365.50000 L 619.50000,342.50000 L 628.50000,339.50000 z "
         style="fill:#adadad;fill-opacity:1.0000000;fill-rule:evenodd;stroke:#000000;stroke-width:1.0000000px;stroke-linecap:butt;stroke-linejoin:miter;stroke-opacity:1.0000000" />
      <path
         style="fill:#adadad;fill-opacity:1.0000000;fill-rule:evenodd;stroke:#000000;stroke-width:1.0000000px;stroke-linecap:butt;stroke-linejoin:miter;stroke-opacity:1.0000000"
         d="M 535.50000,139.00000 L 545.50000,162.00000 L 536.50000,165.00000 L 526.50000,142.00000 L 535.50000,139.00000 z "
         id="path2380" />
      <path
         id="path2382"
         d="M 517.50000,145.00000 L 527.50000,168.00000 L 518.50000,171.00000 L 508.50000,148.00000 L 517.50000,145.00000 z "
         style="fill:#adadad;fill-opacity:1.0000000;fill-rule:evenodd;stroke:#000000;stroke-width:1.0000000px;stroke-linecap:butt;stroke-linejoin:miter;stroke-opacity:1.0000000" />
      <path
         style="fill:#adadad;fill-opacity:1.0000000;fill-rule:evenodd;stroke:#000000;stroke-width:1.0000000px;stroke-linecap:butt;stroke-linejoin:miter;stroke-opacity:1.0000000"
         d="M 497.50000,152.00000 L 507.50000,175.00000 L 498.50000,178.00000 L 488.50000,155.00000 L 497.50000,152.00000 z "
         id="path2384" />
    </g>
  </g>
</svg>
