<?xml version="1.0" encoding="UTF-8" standalone="no"?>
<!-- Created with Inkscape (http://www.inkscape.org/) -->
<svg
   xmlns:dc="http://purl.org/dc/elements/1.1/"
   xmlns:cc="http://web.resource.org/cc/"
   xmlns:rdf="http://www.w3.org/1999/02/22-rdf-syntax-ns#"
   xmlns:svg="http://www.w3.org/2000/svg"
   xmlns="http://www.w3.org/2000/svg"
   xmlns:xlink="http://www.w3.org/1999/xlink"
   xmlns:sodipodi="http://inkscape.sourceforge.net/DTD/sodipodi-0.dtd"
   xmlns:inkscape="http://www.inkscape.org/namespaces/inkscape"
   sodipodi:docname="desktopcomputer.svg"
   sodipodi:docbase="/home/support/Source/ezix-workspace/packages/lshw/development/src/gui/artwork"
   inkscape:version="0.41"
   sodipodi:version="0.32"
   id="svg2"
   height="600.00000pt"
   width="600.00000pt">
  <defs
     id="defs3">
    <linearGradient
       id="linearGradient2211">
      <stop
         id="stop2213"
         offset="0"
         style="stop-color:#646464;stop-opacity:1;" />
      <stop
         id="stop2215"
         offset="1.0000000"
         style="stop-color:#000000;stop-opacity:1.0000000;" />
    </linearGradient>
    <linearGradient
       id="linearGradient2102"
       inkscape:collect="always">
      <stop
         id="stop2104"
         offset="0"
         style="stop-color:#726d7f;stop-opacity:1;" />
      <stop
         id="stop2106"
         offset="1"
         style="stop-color:#726d7f;stop-opacity:0;" />
    </linearGradient>
    <linearGradient
       id="linearGradient2838">
      <stop
         style="stop-color:#000000;stop-opacity:1.0000000;"
         offset="0.0000000"
         id="stop2840" />
      <stop
         style="stop-color:#000000;stop-opacity:0.0000000;"
         offset="1.0000000"
         id="stop2842" />
    </linearGradient>
    <linearGradient
       inkscape:collect="always"
       xlink:href="#linearGradient2838"
       id="linearGradient2844"
       gradientTransform="scale(1.235013,0.809708)"
       x1="117.34206"
       y1="188.58949"
       x2="422.29895"
       y2="336.16794"
       gradientUnits="userSpaceOnUse" />
    <linearGradient
       gradientUnits="userSpaceOnUse"
       y2="243.77264"
       x2="573.30255"
       y1="104.67563"
       x1="202.28809"
       gradientTransform="scale(0.943567,1.059808)"
       id="linearGradient2112"
       xlink:href="#linearGradient2102"
       inkscape:collect="always" />
    <linearGradient
       y2="243.77264"
       x2="573.30255"
       y1="104.67563"
       x1="202.28809"
       gradientTransform="scale(0.943567,1.059808)"
       gradientUnits="userSpaceOnUse"
       id="linearGradient2118"
       xlink:href="#linearGradient2102"
       inkscape:collect="always" />
    <linearGradient
       inkscape:collect="always"
       xlink:href="#linearGradient2211"
       id="linearGradient1371"
       gradientUnits="userSpaceOnUse"
       gradientTransform="scale(1.116927,0.895313)"
       x1="195.99141"
       y1="140.13626"
       x2="449.07547"
       y2="236.54916" />
  </defs>
  <sodipodi:namedview
     inkscape:window-y="37"
     inkscape:window-x="32"
     inkscape:window-height="675"
     inkscape:window-width="812"
     inkscape:current-layer="layer1"
     inkscape:document-units="px"
     inkscape:cy="280.48618"
     inkscape:cx="457.53247"
     inkscape:zoom="0.35000001"
     inkscape:pageshadow="2"
     inkscape:pageopacity="0.0"
     borderopacity="1.0"
     bordercolor="#666666"
     pagecolor="#ffffff"
     id="base" />
  <metadata
     id="metadata4">
    <rdf:RDF
       id="RDF5">
      <cc:Work
         id="Work6"
         rdf:about="">
        <dc:format
           id="format7">image/svg+xml</dc:format>
        <dc:type
           rdf:resource="http://purl.org/dc/dcmitype/StillImage"
           id="type9" />
        <dc:date
           id="date2068">2005/04/30</dc:date>
        <dc:creator
           id="creator2070">
          <cc:Agent
             id="Agent2072">
            <dc:title
               id="title2074">Lyonel Vincent</dc:title>
          </cc:Agent>
        </dc:creator>
        <dc:publisher
           id="publisher2076">
          <cc:Agent
             id="Agent2078">
            <dc:title
               id="title2080">ezIX.org</dc:title>
          </cc:Agent>
        </dc:publisher>
        <dc:identifier
           id="identifier2082">desktop</dc:identifier>
        <dc:source
           id="source2084">$Id: desktopcomputer.svg 1822 2007-08-07 19:51:34Z lyonel $</dc:source>
        <dc:language
           id="language2086">C</dc:language>
        <dc:subject
           id="subject2088">
          <rdf:Bag
             id="Bag2090">
            <rdf:li
               id="li1363">desktop computer</rdf:li>
          </rdf:Bag>
        </dc:subject>
        <cc:license
           rdf:resource="http://creativecommons.org/licenses/GPL/2.0/"
           id="license2122" />
        <dc:title
           id="title2138">desktop computer</dc:title>
      </cc:Work>
      <cc:License
         id="License2124"
         rdf:about="http://creativecommons.org/licenses/GPL/2.0/">
        <cc:permits
           id="permits2126"
           rdf:resource="http://web.resource.org/cc/Reproduction" />
        <cc:permits
           id="permits2128"
           rdf:resource="http://web.resource.org/cc/Distribution" />
        <cc:requires
           id="requires2130"
           rdf:resource="http://web.resource.org/cc/Notice" />
        <cc:permits
           id="permits2132"
           rdf:resource="http://web.resource.org/cc/DerivativeWorks" />
        <cc:requires
           id="requires2134"
           rdf:resource="http://web.resource.org/cc/ShareAlike" />
        <cc:requires
           id="requires2136"
           rdf:resource="http://web.resource.org/cc/SourceCode" />
      </cc:License>
    </rdf:RDF>
  </metadata>
  <g
     id="layer1"
     inkscape:groupmode="layer"
     inkscape:label="Layer 1">
    <path
       sodipodi:nodetypes="czzzccccz"
       id="path4523"
       d="M 184.99999,395.71430 C 185.01287,394.53586 186.32305,393.27511 187.49999,393.21430 L 401.78570,382.14287 C 403.93887,382.03162 406.15495,382.21860 408.21427,382.85715 L 546.42856,425.71429 L 227.85714,455.35715 L 229.64285,557.50001 L 184.28571,461.07144 L 184.99999,395.71430 z "
       style="fill:#c2c2c2;fill-opacity:1.0000000;fill-rule:evenodd;stroke:#000000;stroke-width:4.8000000;stroke-linecap:round;stroke-linejoin:round;stroke-miterlimit:4.0000000;stroke-opacity:1.0000000;stroke-dasharray:none" />
    <path
       sodipodi:nodetypes="czzzzzzzzzzzcz"
       id="path4525"
       d="M 232.14285,452.14287 C 230.88168,452.16039 229.43451,452.41073 228.57142,453.39287 C 227.70833,454.37501 226.93998,456.39818 226.96428,458.03572 L 228.39285,554.28572 C 228.47116,559.56165 238.71011,565.95914 243.92856,565.17857 L 539.99999,520.89286 C 543.50058,520.36925 547.13536,516.57525 547.14284,513.03572 L 547.32141,428.57144 C 547.32413,427.28375 546.42781,425.66946 545.17856,425.35715 L 541.60713,424.46429 C 540.13487,424.09622 538.64951,425.17562 537.14284,425.35715 C 535.63617,425.53868 517.41094,428.02114 507.49999,428.92858 L 257.85714,451.78572 C 249.28571,451.90477 233.40402,452.12535 232.14285,452.14287 z "
       style="stroke-dasharray:none;stroke-opacity:1.0000000;stroke-miterlimit:4.0000000;stroke-linejoin:round;stroke-linecap:round;stroke-width:5.0000000;stroke:#000000;fill-rule:evenodd;fill-opacity:1.0000000;fill:#c2c2c2" />
    <path
       id="path4527"
       d="M 187.85714,396.42858 L 224.99999,449.28572"
       style="fill:none;fill-opacity:0.75000000;fill-rule:evenodd;stroke:#000000;stroke-width:1.0000000;stroke-linecap:round;stroke-linejoin:round;stroke-miterlimit:4.0000000;stroke-opacity:1.0000000" />
    <path
       sodipodi:nodetypes="czzzzzzzz"
       id="path4529"
       d="M 416.68791,458.06592 C 415.03238,458.25826 413.10610,459.93544 413.15238,461.60146 L 414.66761,516.14969 C 414.72619,518.25841 418.13887,519.50362 420.22345,519.18015 L 537.40114,500.99740 C 540.26344,500.55325 541.94682,497.07543 541.94682,494.17888 L 541.94683,448.97455 C 541.94683,446.91947 540.45264,443.68662 538.41129,443.92379 L 416.68791,458.06592 z "
       style="fill:#5c5c5c;fill-opacity:1.0000000;fill-rule:evenodd;stroke:#000000;stroke-width:1.0000000;stroke-linecap:round;stroke-linejoin:round;stroke-miterlimit:4.0000000;stroke-opacity:1.0000000" />
    <path
       transform="matrix(0.626915,-0.616847,0.616847,0.626915,-174.3418,449.4777)"
       d="M 416.68790 530.79688 A 9.0913725 7.0710678 0 1 1  398.50515,530.79688 A 9.0913725 7.0710678 0 1 1  416.68790 530.79688 z"
       sodipodi:ry="7.0710678"
       sodipodi:rx="9.0913725"
       sodipodi:cy="530.79688"
       sodipodi:cx="407.59653"
       id="path4531"
       style="stroke-opacity:1.0000000;stroke-miterlimit:4.0000000;stroke-linejoin:round;stroke-linecap:round;stroke-width:1.1370075;stroke:#000000;fill-rule:evenodd;fill-opacity:0.74901962;fill:none"
       sodipodi:type="arc" />
    <path
       sodipodi:nodetypes="czzzzzzzz"
       id="path4533"
       d="M 246.47721,462.61161 C 244.37577,462.79620 243.39846,466.05847 243.44676,468.16745 L 244.96199,534.33244 C 245.02474,537.07240 248.30170,540.21445 251.02290,539.88828 L 398.50517,522.21061 C 401.51873,521.84940 403.65539,517.66796 403.55593,514.63446 L 401.53563,453.01516 C 401.46370,450.82121 398.16650,449.28755 395.97979,449.47963 L 246.47721,462.61161 z "
       style="fill:none;fill-opacity:0.75000000;fill-rule:evenodd;stroke:#000000;stroke-width:1.0000000;stroke-linecap:round;stroke-linejoin:round;stroke-miterlimit:4.0000000;stroke-opacity:1.0000000" />
    <path
       sodipodi:nodetypes="ccczzc"
       id="path4535"
       d="M 394.46456,449.98470 L 394.96963,489.88573 L 244.45691,507.05832 L 242.94168,467.66237 C 242.85017,465.28318 245.62029,462.81611 247.99244,462.61161 L 394.46456,449.98470 z "
       style="fill:none;fill-opacity:1.0000000;fill-rule:evenodd;stroke:#000000;stroke-width:1.0000000;stroke-linecap:round;stroke-linejoin:round;stroke-miterlimit:4.0000000;stroke-opacity:1.0000000" />
    <path
       id="path4537"
       d="M 394.96963,490.39080 L 401.53563,518.67507"
       style="fill:none;fill-opacity:0.75000000;fill-rule:evenodd;stroke:#000000;stroke-width:1.0000000;stroke-linecap:round;stroke-linejoin:round;stroke-miterlimit:4.0000000;stroke-opacity:1.0000000" />
    <path
       id="path4539"
       d="M 254.05336,475.74359 L 388.40364,464.12684"
       style="fill:none;fill-opacity:0.75000000;fill-rule:evenodd;stroke:#000000;stroke-width:2.0000000;stroke-linecap:round;stroke-linejoin:round;stroke-miterlimit:4.0000000;stroke-opacity:1.0000000" />
    <path
       sodipodi:nodetypes="cczzzzzcccc"
       id="path2991"
       d="M 254.05335,400.48723 L 246.22467,404.52783 L 244.45691,415.13444 C 243.32296,421.93817 260.79776,426.44941 273.24626,427.50881 C 286.19614,428.61087 319.01791,429.21394 351.28053,429.52912 C 383.79570,429.84431 411.85664,427.84912 430.83005,424.73089 C 449.55751,421.65307 454.09899,413.83181 453.81102,412.10398 L 452.80087,406.04307 C 446.06652,398.88782 436.04917,400.82394 428.30467,396.95169 L 282.08509,396.69915 L 254.05335,400.48723 z "
       style="stroke-dasharray:none;stroke-opacity:1.0000000;stroke-miterlimit:4.0000000;stroke-linejoin:round;stroke-linecap:round;stroke-width:5.0000000;stroke:#000000;fill-rule:evenodd;fill-opacity:1.0000000;fill:#c2c2c2" />
    <path
       sodipodi:nodetypes="czczzzzcczz"
       id="path2989"
       d="M 251.07142,400.00001 C 245.83333,402.38096 244.02323,409.45610 246.87237,412.50745 C 249.84505,415.69110 253.29924,417.90398 299.28571,420.71429 C 341.65657,421.75333 401.91255,421.90468 421.28371,419.10190 C 440.40747,416.33491 452.07913,411.20987 452.49999,408.23968 C 452.94905,405.07048 448.69047,400.65477 443.92856,398.57144 C 439.16665,396.48811 433.92856,394.52382 423.92856,393.21430 C 413.92856,391.90478 397.26189,391.54763 383.92856,390.71430 C 361.30951,391.19049 338.69047,391.66668 316.07142,392.14287 C 302.97618,392.73811 287.61905,392.61906 276.78571,393.92858 C 265.95237,395.23811 256.30951,397.61906 251.07142,400.00001 z "
       style="stroke-dasharray:none;stroke-opacity:1.0000000;stroke-miterlimit:4.0000000;stroke-linejoin:round;stroke-linecap:round;stroke-width:5.0000000;stroke:#000000;fill-rule:evenodd;fill-opacity:1.0000000;fill:#c2c2c2" />
    <path
       sodipodi:nodetypes="czzzzcc"
       id="path1448"
       d="M 317.14285,356.42858 L 316.42856,402.85715 C 316.39230,405.21389 319.07172,407.88625 321.42856,407.85715 L 379.28570,407.14287 C 381.64254,407.11377 384.43047,404.49544 384.28570,402.14287 L 381.42856,355.71430 L 317.14285,356.42858 z "
       style="stroke-dasharray:none;stroke-opacity:1.0000000;stroke-miterlimit:4.0000000;stroke-linejoin:miter;stroke-linecap:butt;stroke-width:5.0000000;stroke:#000000;fill-rule:evenodd;fill-opacity:1.0000000;fill:#c2c2c2" />
    <path
       sodipodi:nodetypes="cczzzzc"
       id="path1444"
       d="M 181.82745,364.62681 L 514.67270,360.08113 L 512.14733,70.167357 C 512.13023,68.204046 509.05994,67.130783 507.09656,67.136899 L 182.83761,68.147052 C 180.68157,68.153769 177.75705,70.031822 177.78684,72.187662 L 181.82745,364.62681 z "
       style="stroke-dasharray:none;stroke-opacity:1.0000000;stroke-miterlimit:4.0000000;stroke-linejoin:round;stroke-linecap:round;stroke-width:5.0000000;stroke:#000000;fill-rule:evenodd;fill-opacity:1.0000000;fill:#c2c2c2" />
    <path
       sodipodi:nodetypes="ccccc"
       id="path1446"
       d="M 192.14285,87.857161 L 499.28570,86.428590 L 501.42856,331.42858 L 195.00000,336.42859 L 192.14285,87.857161 z "
       style="fill:url(#linearGradient1371);fill-opacity:1.0000000;fill-rule:evenodd;stroke:#000000;stroke-width:0.25000000pt;stroke-linecap:butt;stroke-linejoin:miter;stroke-opacity:1.0000000" />
    <path
       sodipodi:nodetypes="czzzzcczzczzz"
       id="path4556"
       d="M 124.89126,555.58154 C 122.00666,555.62605 119.87765,555.21890 109.73897,563.66276 C 99.809609,571.93229 61.710971,621.90459 56.517778,630.66893 C 51.229457,639.59381 45.825292,649.11963 46.109873,653.80092 L 46.405739,658.66786 C 46.622932,662.24062 54.540829,667.52437 58.119664,667.46336 C 203.12707,670.25949 622.18035,660.38635 727.30981,656.05582 C 729.93927,656.01100 733.37073,653.63490 733.37073,651.00505 L 733.37073,644.94414 C 733.37073,639.37047 730.12980,633.47050 725.94252,629.79185 C 702.50185,598.86460 645.53217,557.03942 637.40624,552.01011 C 629.53691,547.13961 624.75044,547.86863 618.21334,547.96950 L 124.89126,555.58154 z "
       style="stroke-dasharray:none;stroke-opacity:1.0000000;stroke-miterlimit:4.0000000;stroke-linejoin:round;stroke-linecap:round;stroke-width:5.0000000;stroke:#000000;fill-rule:evenodd;fill-opacity:1.0000000;fill:#c2c2c2" />
    <path
       sodipodi:nodetypes="czzzzzzcc"
       id="path4558"
       d="M 63.571427,631.42857 C 61.716149,633.76485 64.873853,639.30099 67.857141,639.28572 L 486.42856,637.14286 C 490.15529,637.12378 492.78660,630.61340 491.42856,627.14286 L 472.14284,577.85715 C 470.43824,573.50096 463.24899,574.23679 458.57142,574.28572 L 117.14285,577.85715 C 111.87268,577.91228 105.42046,578.72979 102.14285,582.85715 C 89.773867,590.52004 75.528230,613.43493 63.571427,631.42857 z "
       style="fill:#626262;fill-opacity:1.0000000;fill-rule:evenodd;stroke:none;stroke-width:0.25000000pt;stroke-linecap:butt;stroke-linejoin:miter;stroke-opacity:1.0000000" />
    <path
       sodipodi:nodetypes="czzzzzzzzzzzzzzzz"
       id="path4560"
       d="M 511.42856,637.14286 C 508.86528,637.21758 505.18611,636.68681 504.28570,634.28572 L 499.99999,622.85715 C 499.17238,620.65020 502.64297,617.85715 504.99999,617.85715 L 521.42856,617.85715 C 523.02575,617.85715 524.22009,615.03096 523.57141,613.57143 L 520.71427,607.14286 C 520.09509,605.74971 522.76199,604.33651 524.28570,604.28572 L 545.71427,603.57143 C 547.76131,603.50320 549.90745,605.26029 550.71427,607.14286 L 552.85713,612.14286 C 554.00199,614.81419 557.09366,617.14286 559.99998,617.14286 L 577.14284,617.14286 C 580.68238,617.14286 585.35937,617.65691 587.14284,620.71429 L 592.14284,629.28572 C 593.58746,631.76221 589.29438,634.87314 586.42855,634.95668 L 511.42856,637.14286 z "
       style="fill:#626262;fill-opacity:1.0000000;fill-rule:evenodd;stroke:none;stroke-width:0.25000000pt;stroke-linecap:butt;stroke-linejoin:miter;stroke-opacity:1.0000000" />
    <path
       sodipodi:nodetypes="czzzzcczz"
       id="path4562"
       d="M 567.20064,571.20300 C 565.38052,571.26209 563.12394,574.25815 564.17018,575.74869 L 601.04075,628.27662 C 603.38022,631.60956 607.57711,634.45904 611.64735,634.33754 L 713.16768,631.30708 C 715.24924,631.24494 716.19577,626.67724 714.68291,625.24616 C 709.63452,613.20848 666.07153,575.94531 658.61944,572.21316 C 655.20796,568.98609 649.67588,568.52523 644.98238,568.67762 L 567.20064,571.20300 z "
       style="fill:#626262;fill-opacity:1.0000000;fill-rule:evenodd;stroke:none;stroke-width:0.25000000pt;stroke-linecap:butt;stroke-linejoin:miter;stroke-opacity:1.0000000" />
    <path
       sodipodi:nodetypes="czzzzzzzz"
       id="path4564"
       d="M 483.35798,574.23346 C 481.80709,574.29702 479.65415,576.37047 480.32752,577.76900 L 486.89351,591.40605 C 488.03672,593.78040 491.33049,595.01906 493.96458,594.94159 L 562.65495,592.92128 C 564.41191,592.86960 565.24931,589.25798 564.17018,587.87052 L 553.56358,574.23346 C 551.73200,571.87857 547.95810,571.58592 544.97728,571.70808 L 483.35798,574.23346 z "
       style="fill:#626262;fill-opacity:1.0000000;fill-rule:evenodd;stroke:none;stroke-width:0.25000000pt;stroke-linecap:butt;stroke-linejoin:miter;stroke-opacity:1.0000000" />
  </g>
</svg>
