<?xml version="1.0" encoding="UTF-8" standalone="no"?>
<!-- Created with Inkscape (http://www.inkscape.org/) -->
<svg
   xmlns:dc="http://purl.org/dc/elements/1.1/"
   xmlns:cc="http://web.resource.org/cc/"
   xmlns:rdf="http://www.w3.org/1999/02/22-rdf-syntax-ns#"
   xmlns:svg="http://www.w3.org/2000/svg"
   xmlns="http://www.w3.org/2000/svg"
   xmlns:sodipodi="http://inkscape.sourceforge.net/DTD/sodipodi-0.dtd"
   xmlns:inkscape="http://www.inkscape.org/namespaces/inkscape"
   sodipodi:docname="disc.svg"
   sodipodi:docbase="/home/support/Source/ezix-workspace/packages/lshw/development/src/gui/artwork"
   inkscape:version="0.41"
   sodipodi:version="0.32"
   id="svg2"
   height="600.00000pt"
   width="600.00000pt">
  <defs
     id="defs3" />
  <sodipodi:namedview
     inkscape:window-y="26"
     inkscape:window-x="0"
     inkscape:window-height="615"
     inkscape:window-width="883"
     inkscape:current-layer="layer1"
     inkscape:document-units="px"
     inkscape:cy="358.37609"
     inkscape:cx="374.99974"
     inkscape:zoom="0.49497475"
     inkscape:pageshadow="2"
     inkscape:pageopacity="0.0"
     borderopacity="1.0"
     bordercolor="#666666"
     pagecolor="#ffffff"
     id="base" />
  <metadata
     id="metadata4">
    <rdf:RDF
       id="RDF5">
      <cc:Work
         id="Work6"
         rdf:about="">
        <dc:format
           id="format7">image/svg+xml</dc:format>
        <dc:type
           rdf:resource="http://purl.org/dc/dcmitype/StillImage"
           id="type9" />
        <dc:title
           id="title1294">Hard disc</dc:title>
        <dc:date
           id="date1296">2003/03/28</dc:date>
        <dc:creator
           id="creator1298">
          <cc:Agent
             id="Agent1300">
            <dc:title
               id="title1302">Lyonel Vincent</dc:title>
          </cc:Agent>
        </dc:creator>
        <dc:publisher
           id="publisher1304">
          <cc:Agent
             id="Agent1306">
            <dc:title
               id="title1308">ezIX.org</dc:title>
          </cc:Agent>
        </dc:publisher>
        <dc:identifier
           id="identifier1310">disc</dc:identifier>
        <dc:source
           id="source1312">$Id: disc.svg 1822 2007-08-07 19:51:34Z lyonel $</dc:source>
        <dc:language
           id="language1314">C</dc:language>
        <dc:subject
           id="subject1316">
          <rdf:Bag
             id="Bag1318">
            <rdf:li
               id="li1380">disc disk hard drive storage</rdf:li>
          </rdf:Bag>
        </dc:subject>
        <cc:license
           id="license1382"
           rdf:resource="http://creativecommons.org/licenses/GPL/2.0/" />
      </cc:Work>
      <cc:License
         rdf:about="http://creativecommons.org/licenses/GPL/2.0/"
         id="License1384">
        <cc:permits
           rdf:resource="http://web.resource.org/cc/Reproduction"
           id="permits1386" />
        <cc:permits
           rdf:resource="http://web.resource.org/cc/Distribution"
           id="permits1388" />
        <cc:requires
           rdf:resource="http://web.resource.org/cc/Notice"
           id="requires1390" />
        <cc:permits
           rdf:resource="http://web.resource.org/cc/DerivativeWorks"
           id="permits1392" />
        <cc:requires
           rdf:resource="http://web.resource.org/cc/ShareAlike"
           id="requires1394" />
        <cc:requires
           rdf:resource="http://web.resource.org/cc/SourceCode"
           id="requires1396" />
      </cc:License>
    </rdf:RDF>
  </metadata>
  <g
     id="layer1"
     inkscape:groupmode="layer"
     inkscape:label="Layer 1">
    <g
       transform="translate(2.020268,-22.22335)"
       id="g2120">
      <path
         id="path2110"
         d="M 665.03125,441.12500 C 648.76234,454.02737 628.38345,465.22351 604.56250,474.81250 C 546.41563,498.21921 467.97218,512.18750 381.40625,512.18750 C 294.84032,512.18751 216.39686,498.21921 158.25000,474.81250 C 134.44576,465.23023 114.05221,454.04712 97.781250,441.15625 C 91.587959,449.82676 88.656250,458.26523 88.656250,466.56250 C 88.656250,478.61959 94.616400,490.96705 108.21875,503.90625 C 121.82110,516.84545 142.81333,529.53267 169.43750,540.25000 C 222.68584,561.68466 298.10697,575.43751 381.40625,575.43750 C 464.70555,575.43751 540.12667,561.68466 593.37500,540.25000 C 619.99917,529.53267 640.99140,516.84545 654.59375,503.90625 C 668.19610,490.96705 674.12500,478.61960 674.12500,466.56250 C 674.12500,458.25862 671.22561,449.80278 665.03125,441.12500 z "
         style="fill:#000000;fill-opacity:1.0000000;fill-rule:evenodd;stroke:#000000;stroke-width:1.0000000;stroke-linecap:butt;stroke-linejoin:miter;stroke-miterlimit:4.0000000;stroke-opacity:1.0000000" />
      <path
         id="path2102"
         d="M 665.09375,347.93750 C 664.96309,348.03131 664.84975,348.15696 664.71875,348.25000 C 606.62321,390.86491 533.76674,406.06236 463.56250,414.59375 C 361.25584,424.51350 254.97510,418.68829 158.25000,381.56250 C 137.73761,373.05704 115.80659,362.40225 97.656250,348.03125 C 91.542626,356.65179 88.687500,365.06032 88.687500,373.31250 C 88.687500,385.36989 94.617192,397.71737 108.21875,410.65625 C 121.82031,423.59513 142.81441,436.25177 169.43750,446.96875 C 222.68369,468.40272 298.10689,482.18751 381.40625,482.18750 C 464.70561,482.18750 540.09756,468.40271 593.34375,446.96875 C 619.96684,436.25177 640.99219,423.59513 654.59375,410.65625 C 668.19531,397.71737 674.12500,385.36990 674.12500,373.31250 C 674.12500,365.03107 671.25279,356.59025 665.09375,347.93750 z "
         style="fill:#000000;fill-opacity:1.0000000;fill-rule:evenodd;stroke:#000000;stroke-width:1.0000000;stroke-linecap:butt;stroke-linejoin:miter;stroke-miterlimit:4.0000000;stroke-opacity:1.0000000" />
      <path
         id="path2092"
         d="M 381.40625,171.18750 C 318.89553,171.38893 255.83859,178.33901 195.96875,196.90625 C 157.93350,210.01484 115.34129,225.73825 93.343750,261.71875 C 78.661450,288.29289 101.51118,315.55135 123.09375,329.40625 C 183.79053,368.63532 257.23544,380.93687 328.03125,387.03125 C 420.68583,392.70584 516.65226,385.75549 603.09375,349.62500 C 631.66004,335.86200 666.54041,318.52918 673.84375,284.59375 C 675.86271,252.82689 645.12958,232.91180 620.84375,219.18750 C 547.18062,181.89221 462.97881,172.10817 381.40625,171.18750 z M 381.40625,244.34375 C 405.55749,244.91172 444.88790,249.55218 447.84375,280.06250 C 443.99966,310.46674 406.35493,315.39866 381.40625,315.78125 C 356.44523,315.40201 318.82385,310.45470 314.93750,280.06250 C 318.82383,249.67030 356.44523,244.72299 381.40625,244.34375 z "
         style="fill:#000000;fill-opacity:1.0000000;fill-rule:evenodd;stroke:#000000;stroke-width:1.0000000;stroke-linecap:butt;stroke-linejoin:miter;stroke-miterlimit:4.0000000;stroke-opacity:1.0000000" />
    </g>
  </g>
</svg>
