<?xml version="1.0" encoding="UTF-8" standalone="no"?>
<!-- Created with Inkscape (http://www.inkscape.org/) -->
<svg
   xmlns:dc="http://purl.org/dc/elements/1.1/"
   xmlns:cc="http://web.resource.org/cc/"
   xmlns:rdf="http://www.w3.org/1999/02/22-rdf-syntax-ns#"
   xmlns:svg="http://www.w3.org/2000/svg"
   xmlns="http://www.w3.org/2000/svg"
   xmlns:xlink="http://www.w3.org/1999/xlink"
   xmlns:sodipodi="http://inkscape.sourceforge.net/DTD/sodipodi-0.dtd"
   xmlns:inkscape="http://www.inkscape.org/namespaces/inkscape"
   width="600.00000pt"
   height="600.00000pt"
   id="svg2"
   sodipodi:version="0.32"
   inkscape:version="0.42"
   sodipodi:docbase="/home/support/Source/ezix-workspace/packages/lshw/development/src/gui/artwork"
   sodipodi:docname="emac.svg">
  <defs
     id="defs3">
    <linearGradient
       inkscape:collect="always"
       id="linearGradient7889">
      <stop
         style="stop-color:#8e8e8e;stop-opacity:1;"
         offset="0"
         id="stop7891" />
      <stop
         style="stop-color:#8e8e8e;stop-opacity:0;"
         offset="1"
         id="stop7893" />
    </linearGradient>
    <linearGradient
       id="linearGradient2055">
      <stop
         style="stop-color:#6a6a6a;stop-opacity:1.0000000;"
         offset="0.0000000"
         id="stop2057" />
      <stop
         style="stop-color:#000000;stop-opacity:0;"
         offset="1"
         id="stop2059" />
    </linearGradient>
    <linearGradient
       id="linearGradient2047">
      <stop
         style="stop-color:#000000;stop-opacity:1;"
         offset="0"
         id="stop2049" />
      <stop
         style="stop-color:#4536f1;stop-opacity:1.0000000;"
         offset="1.0000000"
         id="stop2051" />
    </linearGradient>
    <linearGradient
       id="linearGradient2282">
      <stop
         id="stop2284"
         offset="0"
         style="stop-color:#646464;stop-opacity:1;" />
      <stop
         id="stop2286"
         offset="1.0000000"
         style="stop-color:#090909;stop-opacity:0.0000000;" />
    </linearGradient>
    <linearGradient
       inkscape:collect="always"
       id="linearGradient2102">
      <stop
         style="stop-color:#726d7f;stop-opacity:1;"
         offset="0"
         id="stop2104" />
      <stop
         style="stop-color:#726d7f;stop-opacity:0;"
         offset="1"
         id="stop2106" />
    </linearGradient>
    <linearGradient
       id="linearGradient2838">
      <stop
         id="stop2840"
         offset="0.0000000"
         style="stop-color:#000000;stop-opacity:1.0000000;" />
      <stop
         id="stop2842"
         offset="1.0000000"
         style="stop-color:#000000;stop-opacity:0.0000000;" />
    </linearGradient>
    <linearGradient
       gradientUnits="userSpaceOnUse"
       y2="336.16794"
       x2="422.29895"
       y1="188.58949"
       x1="117.34206"
       gradientTransform="scale(1.235013,0.809708)"
       id="linearGradient2844"
       xlink:href="#linearGradient2838"
       inkscape:collect="always" />
    <linearGradient
       inkscape:collect="always"
       xlink:href="#linearGradient2102"
       id="linearGradient2112"
       gradientTransform="scale(0.943567,1.059808)"
       x1="202.28809"
       y1="104.67563"
       x2="573.30255"
       y2="243.77264"
       gradientUnits="userSpaceOnUse" />
    <linearGradient
       inkscape:collect="always"
       xlink:href="#linearGradient2102"
       id="linearGradient2118"
       gradientUnits="userSpaceOnUse"
       gradientTransform="scale(0.943567,1.059808)"
       x1="202.28809"
       y1="104.67563"
       x2="573.30255"
       y2="243.77264" />
    <linearGradient
       inkscape:collect="always"
       xlink:href="#linearGradient2055"
       id="linearGradient2061"
       x1="416.18286"
       y1="154.51508"
       x2="728.82507"
       y2="517.66492"
       gradientUnits="userSpaceOnUse" />
    <radialGradient
       inkscape:collect="always"
       xlink:href="#linearGradient7889"
       id="radialGradient7895"
       cx="595.71429"
       cy="700.00000"
       fx="595.71429"
       fy="700.00000"
       r="227.14285"
       gradientTransform="matrix(1.000000,0.000000,0.000000,0.144654,1.254552e-14,598.7421)"
       gradientUnits="userSpaceOnUse" />
  </defs>
  <sodipodi:namedview
     id="base"
     pagecolor="#ffffff"
     bordercolor="#666666"
     borderopacity="1.0"
     inkscape:pageopacity="0.0"
     inkscape:pageshadow="2"
     inkscape:zoom="0.17500000"
     inkscape:cx="505.02882"
     inkscape:cy="134.47273"
     inkscape:document-units="px"
     inkscape:current-layer="layer1"
     inkscape:window-width="959"
     inkscape:window-height="608"
     inkscape:window-x="33"
     inkscape:window-y="78" />
  <metadata
     id="metadata4">
    <rdf:RDF>
      <cc:Work
         rdf:about="">
        <dc:format>image/svg+xml</dc:format>
        <dc:type
           rdf:resource="http://purl.org/dc/dcmitype/StillImage" />
        <dc:date>2005/07/10</dc:date>
        <dc:creator>
          <cc:Agent>
            <dc:title>Lyonel Vincent</dc:title>
          </cc:Agent>
        </dc:creator>
        <dc:publisher>
          <cc:Agent>
            <dc:title>ezIX.org</dc:title>
          </cc:Agent>
        </dc:publisher>
        <dc:identifier>emac</dc:identifier>
        <dc:source>$Id: emac.svg 1822 2007-08-07 19:51:34Z lyonel $</dc:source>
        <dc:language>C</dc:language>
        <dc:subject>
          <rdf:Bag>
            <rdf:li>eMac apple mac computer g4</rdf:li>
          </rdf:Bag>
        </dc:subject>
        <cc:license
           rdf:resource="http://creativecommons.org/licenses/GPL/2.0/" />
        <dc:title>Apple eMac</dc:title>
      </cc:Work>
      <cc:License
         rdf:about="http://creativecommons.org/licenses/GPL/2.0/">
        <cc:permits
           rdf:resource="http://web.resource.org/cc/Reproduction" />
        <cc:permits
           rdf:resource="http://web.resource.org/cc/Distribution" />
        <cc:requires
           rdf:resource="http://web.resource.org/cc/Notice" />
        <cc:permits
           rdf:resource="http://web.resource.org/cc/DerivativeWorks" />
        <cc:requires
           rdf:resource="http://web.resource.org/cc/ShareAlike" />
        <cc:requires
           rdf:resource="http://web.resource.org/cc/SourceCode" />
      </cc:License>
    </rdf:RDF>
  </metadata>
  <g
     inkscape:label="Layer 1"
     inkscape:groupmode="layer"
     id="layer1">
    <path
       sodipodi:type="arc"
       style="fill:url(#radialGradient7895);fill-opacity:1.0000000;fill-rule:evenodd;stroke:none;stroke-width:1.0000000pt;stroke-linecap:butt;stroke-linejoin:miter;stroke-opacity:1.0000000"
       id="path6418"
       sodipodi:cx="595.71429"
       sodipodi:cy="700.00000"
       sodipodi:rx="227.14285"
       sodipodi:ry="32.857143"
       d="M 822.85715 700.00000 A 227.14285 32.857143 0 1 1  368.57144,700.00000 A 227.14285 32.857143 0 1 1  822.85715 700.00000 z"
       transform="matrix(1.496855,0.000000,0.000000,1.264151,-517.4124,-236.3342)" />
    <path
       style="fill:#ffffff;fill-opacity:1.0000000;fill-rule:evenodd;stroke:#000000;stroke-width:4.0000000;stroke-linecap:round;stroke-linejoin:round;stroke-opacity:1.0000000;stroke-miterlimit:4.0000000;stroke-dasharray:none"
       d="M 61.619305,297.45166 C 87.883270,254.85689 106.23437,232.97025 148.49242,187.34503 C 190.75047,141.71981 309.60251,23.700320 315.16759,23.700320 L 347.49248,23.700320 L 460.62956,654.03551 L 395.97980,659.08627 C 358.56679,662.00916 399.02794,672.86525 236.37570,633.83246 C 73.097586,594.64947 34.008470,495.77828 27.274119,448.97454 C 20.539768,402.17080 35.629684,339.60150 61.619305,297.45166 z "
       id="path1406"
       sodipodi:nodetypes="czzcczzzz" />
    <path
       style="fill:#ffffff;fill-opacity:1.0000000;fill-rule:evenodd;stroke:#000000;stroke-width:4.0000000;stroke-linecap:round;stroke-linejoin:round;stroke-opacity:1.0000000;stroke-miterlimit:4.0000000;stroke-dasharray:none"
       d="M 351.53309,24.710473 C 399.56205,32.710927 566.64604,92.319939 591.42857,102.85714 C 615.35293,113.02946 623.23848,123.51723 628.31488,151.98969 C 633.56592,181.44170 686.27238,583.66154 687.91388,604.53803 C 689.63023,626.36640 689.93419,642.08204 657.60931,644.94414 C 624.04991,647.91555 440.08901,658.77799 415.17270,658.07612 C 391.26576,657.40268 370.26299,654.62476 362.64476,604.53803 C 354.89727,553.60145 304.49789,78.911137 303.04576,54.004897 C 301.65680,30.182133 303.50413,16.710019 351.53309,24.710473 z "
       id="path1404"
       sodipodi:nodetypes="czzzzzzzz" />
    <path
       style="fill:url(#linearGradient2061);fill-opacity:1.0;fill-rule:evenodd;stroke:#2e2e2e;stroke-width:3.1120000;stroke-linecap:round;stroke-linejoin:round;stroke-opacity:1.0000000;stroke-miterlimit:4.0000000;stroke-dasharray:none"
       d="M 380.00000,84.285714 C 396.22037,88.236281 589.47590,150.82732 602.35206,154.79079 C 615.07794,158.70799 622.62691,171.77775 624.04061,182.54025 C 625.44726,193.24905 660.41141,470.47088 662.85714,488.57143 C 665.31284,506.74577 659.07480,504.55270 652.85714,504.28571 C 646.64065,504.01877 446.37243,492.58298 428.06635,491.51523 C 410.26362,490.47683 411.56233,484.23861 409.75490,473.62219 C 407.96363,463.10069 368.74624,125.13467 366.30602,102.61204 C 363.87225,80.149032 363.30325,80.219122 380.00000,84.285714 z "
       id="path1318"
       sodipodi:nodetypes="czzzzzzzz" />
    <path
       sodipodi:type="arc"
       style="fill:none;fill-opacity:0.75000000;fill-rule:evenodd;stroke:#000000;stroke-width:1.0000000pt;stroke-linecap:butt;stroke-linejoin:miter;stroke-opacity:1.0000000"
       id="path2052"
       sodipodi:cx="447.49759"
       sodipodi:cy="577.26392"
       sodipodi:rx="23.233509"
       sodipodi:ry="43.436558"
       d="M 470.73110 577.26392 A 23.233509 43.436558 0 1 1  424.26408,577.26392 A 23.233509 43.436558 0 1 1  470.73110 577.26392 z"
       transform="matrix(0.989407,-0.145165,0.145165,0.989407,-85.11950,68.04543)" />
    <path
       sodipodi:type="arc"
       style="fill:none;fill-opacity:0.75000000;fill-rule:evenodd;stroke:#000000;stroke-width:1.0000000pt;stroke-linecap:butt;stroke-linejoin:miter;stroke-opacity:1.0000000"
       id="path2054"
       sodipodi:cx="658.61945"
       sodipodi:cy="576.25378"
       sodipodi:rx="17.172594"
       sodipodi:ry="35.355339"
       d="M 675.79204 576.25378 A 17.172594 35.355339 0 1 1  641.44685,576.25378 A 17.172594 35.355339 0 1 1  675.79204 576.25378 z"
       transform="matrix(0.992987,-0.118220,0.118220,0.992987,-63.50596,81.90279)" />
    <path
       style="fill:none;fill-opacity:0.75000000;fill-rule:evenodd;stroke:#000000;stroke-width:1.0000000;stroke-linecap:round;stroke-linejoin:round;stroke-opacity:1.0000000;stroke-miterlimit:4.0000000;stroke-dasharray:none"
       d="M 509.28570,541.42858 C 494.04761,542.14287 493.09287,566.85066 493.57142,577.85715 C 494.04761,588.80953 497.38094,606.66667 516.42856,607.14286 L 604.28570,605.71429 C 622.61903,605.47619 625.15321,592.37935 624.28570,575.00000 C 623.41569,557.57051 617.85713,545.23809 603.57141,543.57143 L 509.28570,541.42858 z "
       id="path1330"
       sodipodi:nodetypes="czcczcc" />
    <path
       sodipodi:type="arc"
       style="fill:#c0c0c0;fill-opacity:1.0000000;fill-rule:evenodd;stroke:#000000;stroke-width:0.99999952;stroke-linecap:butt;stroke-linejoin:miter;stroke-miterlimit:4.0000000;stroke-dasharray:none;stroke-opacity:1.0000000"
       id="path3510"
       sodipodi:cx="313.65234"
       sodipodi:cy="516.14972"
       sodipodi:rx="7.5761437"
       sodipodi:ry="12.121830"
       d="M 321.22849 516.14972 A 7.5761437 12.121830 0 1 1  306.07620,516.14972 A 7.5761437 12.121830 0 1 1  321.22849 516.14972 z"
       transform="matrix(0.996939,-7.818099e-2,7.818099e-2,0.996939,-39.39306,26.10149)" />
    <path
       transform="matrix(0.994789,0.101958,-0.101958,0.994789,16.88462,-376.7821)"
       d="M 321.22849 516.14972 A 7.5761437 12.121830 0 1 1  306.07620,516.14972 A 7.5761437 12.121830 0 1 1  321.22849 516.14972 z"
       sodipodi:ry="12.121830"
       sodipodi:rx="7.5761437"
       sodipodi:cy="516.14972"
       sodipodi:cx="313.65234"
       id="path3512"
       style="fill:#c0c0c0;fill-opacity:1.0000000;fill-rule:evenodd;stroke:#000000;stroke-width:0.99999942;stroke-linecap:butt;stroke-linejoin:miter;stroke-opacity:1.0000000;stroke-miterlimit:4.0000000;stroke-dasharray:none"
       sodipodi:type="arc" />
    <g
       id="g12146"
       style="fill:#c0c0c0;fill-opacity:1.0000000;stroke:none"
       transform="matrix(0.384375,-1.380231e-2,1.050323e-2,0.292501,472.0072,465.0009)">
      <path
         style="fill:#c0c0c0;fill-opacity:1.0000000;fill-rule:evenodd;stroke:none;stroke-width:5.0544500;stroke-linecap:butt;stroke-linejoin:miter;stroke-miterlimit:4.0000000;stroke-dasharray:none;stroke-opacity:1.0000000"
         d="M 220.21326,344.42375 C 233.76614,321.94786 240.50049,342.23509 241.17392,348.46436 C 234.52375,352.67332 229.47298,390.80659 242.43661,405.53798 C 241.51064,419.51176 234.86048,442.15601 230.31478,444.17632 C 225.67058,446.24041 224.50641,436.60017 219.20310,436.85271 C 213.89979,437.10525 214.97854,447.24786 210.61680,443.67124 C 206.40783,440.21988 189.23525,400.31886 205.06097,344.92883 C 207.75471,338.53120 213.73145,333.81714 220.21326,344.42375 z "
         id="path8320"
         sodipodi:nodetypes="ccczzzcc" />
      <path
         style="fill:#c0c0c0;fill-opacity:1.0000000;fill-rule:evenodd;stroke:none;stroke-width:5.0544500;stroke-linecap:butt;stroke-linejoin:miter;stroke-miterlimit:4.0000000;stroke-dasharray:none;stroke-opacity:1.0000000"
         d="M 219.20311,333.05954 C 219.20311,333.05954 219.32937,310.83617 225.01148,301.74480 C 230.69359,292.65343 231.54334,295.05645 231.32493,298.08300 L 230.44105,310.33110 C 229.24395,326.91956 219.20311,333.05954 219.20311,333.05954 z "
         id="path9080"
         sodipodi:nodetypes="czzzz" />
    </g>
  </g>
</svg>
