<?xml version="1.0" encoding="UTF-8" standalone="no"?>
<!-- Created with Inkscape (http://www.inkscape.org/) -->
<svg
   xmlns:dc="http://purl.org/dc/elements/1.1/"
   xmlns:cc="http://web.resource.org/cc/"
   xmlns:rdf="http://www.w3.org/1999/02/22-rdf-syntax-ns#"
   xmlns:svg="http://www.w3.org/2000/svg"
   xmlns="http://www.w3.org/2000/svg"
   xmlns:sodipodi="http://inkscape.sourceforge.net/DTD/sodipodi-0.dtd"
   xmlns:inkscape="http://www.inkscape.org/namespaces/inkscape"
   width="600.00000pt"
   height="600.00000pt"
   id="svg2"
   sodipodi:version="0.32"
   inkscape:version="0.42"
   sodipodi:docbase="/home/support/Source/ezix/packages/lshw/development/src/gui/artwork"
   sodipodi:docname="md.svg">
  <defs
     id="defs3" />
  <sodipodi:namedview
     gridspacingy="10.000000px"
     gridspacingx="10.000000px"
     gridtolerance="5.0000000px"
     inkscape:grid-points="true"
     inkscape:grid-bbox="true"
     showgrid="true"
     id="base"
     pagecolor="#ffffff"
     bordercolor="#666666"
     borderopacity="1.0"
     inkscape:pageopacity="0.0"
     inkscape:pageshadow="2"
     inkscape:zoom="0.49497475"
     inkscape:cx="374.99974"
     inkscape:cy="328.03162"
     inkscape:document-units="px"
     inkscape:current-layer="layer1"
     inkscape:window-width="883"
     inkscape:window-height="615"
     inkscape:window-x="0"
     inkscape:window-y="26" />
  <metadata
     id="metadata4">
    <rdf:RDF>
      <cc:Work
         rdf:about="">
        <dc:format>image/svg+xml</dc:format>
        <dc:type
           rdf:resource="http://purl.org/dc/dcmitype/StillImage" />
        <dc:title>Multi-disc</dc:title>
        <dc:date>2005/05/11</dc:date>
        <dc:creator>
          <cc:Agent>
            <dc:title>Lyonel Vincent</dc:title>
          </cc:Agent>
        </dc:creator>
        <dc:publisher>
          <cc:Agent>
            <dc:title>ezIX.org</dc:title>
          </cc:Agent>
        </dc:publisher>
        <dc:identifier>raid</dc:identifier>
        <dc:source>$Id: md.svg 1822 2007-08-07 19:51:34Z lyonel $</dc:source>
        <dc:language>C</dc:language>
        <dc:subject>
          <rdf:Bag>
            <rdf:li>disc disk hard drive storage raid redundancy md lvm</rdf:li>
          </rdf:Bag>
        </dc:subject>
        <cc:license
           rdf:resource="http://creativecommons.org/licenses/GPL/2.0/" />
      </cc:Work>
      <cc:License
         rdf:about="http://creativecommons.org/licenses/GPL/2.0/">
        <cc:permits
           rdf:resource="http://web.resource.org/cc/Reproduction" />
        <cc:permits
           rdf:resource="http://web.resource.org/cc/Distribution" />
        <cc:requires
           rdf:resource="http://web.resource.org/cc/Notice" />
        <cc:permits
           rdf:resource="http://web.resource.org/cc/DerivativeWorks" />
        <cc:requires
           rdf:resource="http://web.resource.org/cc/ShareAlike" />
        <cc:requires
           rdf:resource="http://web.resource.org/cc/SourceCode" />
      </cc:License>
    </rdf:RDF>
  </metadata>
  <g
     inkscape:label="Layer 1"
     inkscape:groupmode="layer"
     id="layer1">
    <g
       id="g1361"
       transform="matrix(0.567937,0.000000,0.000000,0.567937,163.3942,371.4064)">
      <path
         style="fill:#000000;fill-opacity:1.0000000;fill-rule:evenodd;stroke:#000000;stroke-width:1.7607598;stroke-linecap:butt;stroke-linejoin:miter;stroke-miterlimit:4.0000000;stroke-opacity:1.0000000"
         d="M 665.03125,441.12500 C 648.76234,454.02737 628.38345,465.22351 604.56250,474.81250 C 546.41563,498.21921 467.97218,512.18750 381.40625,512.18750 C 294.84032,512.18751 216.39686,498.21921 158.25000,474.81250 C 134.44576,465.23023 114.05221,454.04712 97.781250,441.15625 C 91.587959,449.82676 88.656250,458.26523 88.656250,466.56250 C 88.656250,478.61959 94.616400,490.96705 108.21875,503.90625 C 121.82110,516.84545 142.81333,529.53267 169.43750,540.25000 C 222.68584,561.68466 298.10697,575.43751 381.40625,575.43750 C 464.70555,575.43751 540.12667,561.68466 593.37500,540.25000 C 619.99917,529.53267 640.99140,516.84545 654.59375,503.90625 C 668.19610,490.96705 674.12500,478.61960 674.12500,466.56250 C 674.12500,458.25862 671.22561,449.80278 665.03125,441.12500 z "
         id="path1363" />
      <path
         style="fill:#000000;fill-opacity:1.0000000;fill-rule:evenodd;stroke:#000000;stroke-width:1.7607598;stroke-linecap:butt;stroke-linejoin:miter;stroke-miterlimit:4.0000000;stroke-opacity:1.0000000"
         d="M 665.09375,347.93750 C 664.96309,348.03131 664.84975,348.15696 664.71875,348.25000 C 606.62321,390.86491 533.76674,406.06236 463.56250,414.59375 C 361.25584,424.51350 254.97510,418.68829 158.25000,381.56250 C 137.73761,373.05704 115.80659,362.40225 97.656250,348.03125 C 91.542626,356.65179 88.687500,365.06032 88.687500,373.31250 C 88.687500,385.36989 94.617192,397.71737 108.21875,410.65625 C 121.82031,423.59513 142.81441,436.25177 169.43750,446.96875 C 222.68369,468.40272 298.10689,482.18751 381.40625,482.18750 C 464.70561,482.18750 540.09756,468.40271 593.34375,446.96875 C 619.96684,436.25177 640.99219,423.59513 654.59375,410.65625 C 668.19531,397.71737 674.12500,385.36990 674.12500,373.31250 C 674.12500,365.03107 671.25279,356.59025 665.09375,347.93750 z "
         id="path1365" />
      <path
         style="fill:#000000;fill-opacity:1.0000000;fill-rule:evenodd;stroke:#000000;stroke-width:1.7607598;stroke-linecap:butt;stroke-linejoin:miter;stroke-miterlimit:4.0000000;stroke-opacity:1.0000000"
         d="M 381.40625,171.18750 C 318.89553,171.38893 255.83859,178.33901 195.96875,196.90625 C 157.93350,210.01484 115.34129,225.73825 93.343750,261.71875 C 78.661450,288.29289 101.51118,315.55135 123.09375,329.40625 C 183.79053,368.63532 257.23544,380.93687 328.03125,387.03125 C 420.68583,392.70584 516.65226,385.75549 603.09375,349.62500 C 631.66004,335.86200 666.54041,318.52918 673.84375,284.59375 C 675.86271,252.82689 645.12958,232.91180 620.84375,219.18750 C 547.18062,181.89221 462.97881,172.10817 381.40625,171.18750 z M 381.40625,244.34375 C 405.55749,244.91172 444.88790,249.55218 447.84375,280.06250 C 443.99966,310.46674 406.35493,315.39866 381.40625,315.78125 C 356.44523,315.40201 318.82385,310.45470 314.93750,280.06250 C 318.82383,249.67030 356.44523,244.72299 381.40625,244.34375 z "
         id="path1367" />
    </g>
    <g
       id="g1320">
      <g
         transform="matrix(0.567937,0.000000,0.000000,0.567937,346.6395,-76.97371)"
         id="g2120">
        <path
           id="path2110"
           d="M 665.03125,441.12500 C 648.76234,454.02737 628.38345,465.22351 604.56250,474.81250 C 546.41563,498.21921 467.97218,512.18750 381.40625,512.18750 C 294.84032,512.18751 216.39686,498.21921 158.25000,474.81250 C 134.44576,465.23023 114.05221,454.04712 97.781250,441.15625 C 91.587959,449.82676 88.656250,458.26523 88.656250,466.56250 C 88.656250,478.61959 94.616400,490.96705 108.21875,503.90625 C 121.82110,516.84545 142.81333,529.53267 169.43750,540.25000 C 222.68584,561.68466 298.10697,575.43751 381.40625,575.43750 C 464.70555,575.43751 540.12667,561.68466 593.37500,540.25000 C 619.99917,529.53267 640.99140,516.84545 654.59375,503.90625 C 668.19610,490.96705 674.12500,478.61960 674.12500,466.56250 C 674.12500,458.25862 671.22561,449.80278 665.03125,441.12500 z "
           style="fill:#000000;fill-opacity:1.0000000;fill-rule:evenodd;stroke:#000000;stroke-width:1.7607598;stroke-linecap:butt;stroke-linejoin:miter;stroke-miterlimit:4.0000000;stroke-opacity:1.0000000" />
        <path
           id="path2102"
           d="M 665.09375,347.93750 C 664.96309,348.03131 664.84975,348.15696 664.71875,348.25000 C 606.62321,390.86491 533.76674,406.06236 463.56250,414.59375 C 361.25584,424.51350 254.97510,418.68829 158.25000,381.56250 C 137.73761,373.05704 115.80659,362.40225 97.656250,348.03125 C 91.542626,356.65179 88.687500,365.06032 88.687500,373.31250 C 88.687500,385.36989 94.617192,397.71737 108.21875,410.65625 C 121.82031,423.59513 142.81441,436.25177 169.43750,446.96875 C 222.68369,468.40272 298.10689,482.18751 381.40625,482.18750 C 464.70561,482.18750 540.09756,468.40271 593.34375,446.96875 C 619.96684,436.25177 640.99219,423.59513 654.59375,410.65625 C 668.19531,397.71737 674.12500,385.36990 674.12500,373.31250 C 674.12500,365.03107 671.25279,356.59025 665.09375,347.93750 z "
           style="fill:#000000;fill-opacity:1.0000000;fill-rule:evenodd;stroke:#000000;stroke-width:1.7607598;stroke-linecap:butt;stroke-linejoin:miter;stroke-miterlimit:4.0000000;stroke-opacity:1.0000000" />
        <path
           id="path2092"
           d="M 381.40625,171.18750 C 318.89553,171.38893 255.83859,178.33901 195.96875,196.90625 C 157.93350,210.01484 115.34129,225.73825 93.343750,261.71875 C 78.661450,288.29289 101.51118,315.55135 123.09375,329.40625 C 183.79053,368.63532 257.23544,380.93687 328.03125,387.03125 C 420.68583,392.70584 516.65226,385.75549 603.09375,349.62500 C 631.66004,335.86200 666.54041,318.52918 673.84375,284.59375 C 675.86271,252.82689 645.12958,232.91180 620.84375,219.18750 C 547.18062,181.89221 462.97881,172.10817 381.40625,171.18750 z M 381.40625,244.34375 C 405.55749,244.91172 444.88790,249.55218 447.84375,280.06250 C 443.99966,310.46674 406.35493,315.39866 381.40625,315.78125 C 356.44523,315.40201 318.82385,310.45470 314.93750,280.06250 C 318.82383,249.67030 356.44523,244.72299 381.40625,244.34375 z "
           style="fill:#000000;fill-opacity:1.0000000;fill-rule:evenodd;stroke:#000000;stroke-width:1.7607598;stroke-linecap:butt;stroke-linejoin:miter;stroke-miterlimit:4.0000000;stroke-opacity:1.0000000" />
      </g>
      <g
         id="g1312"
         transform="matrix(0.567937,0.000000,0.000000,0.567937,-19.85116,-76.97371)">
        <path
           style="fill:#000000;fill-opacity:1.0000000;fill-rule:evenodd;stroke:#000000;stroke-width:1.7607598;stroke-linecap:butt;stroke-linejoin:miter;stroke-miterlimit:4.0000000;stroke-opacity:1.0000000"
           d="M 665.03125,441.12500 C 648.76234,454.02737 628.38345,465.22351 604.56250,474.81250 C 546.41563,498.21921 467.97218,512.18750 381.40625,512.18750 C 294.84032,512.18751 216.39686,498.21921 158.25000,474.81250 C 134.44576,465.23023 114.05221,454.04712 97.781250,441.15625 C 91.587959,449.82676 88.656250,458.26523 88.656250,466.56250 C 88.656250,478.61959 94.616400,490.96705 108.21875,503.90625 C 121.82110,516.84545 142.81333,529.53267 169.43750,540.25000 C 222.68584,561.68466 298.10697,575.43751 381.40625,575.43750 C 464.70555,575.43751 540.12667,561.68466 593.37500,540.25000 C 619.99917,529.53267 640.99140,516.84545 654.59375,503.90625 C 668.19610,490.96705 674.12500,478.61960 674.12500,466.56250 C 674.12500,458.25862 671.22561,449.80278 665.03125,441.12500 z "
           id="path1314" />
        <path
           style="fill:#000000;fill-opacity:1.0000000;fill-rule:evenodd;stroke:#000000;stroke-width:1.7607598;stroke-linecap:butt;stroke-linejoin:miter;stroke-miterlimit:4.0000000;stroke-opacity:1.0000000"
           d="M 665.09375,347.93750 C 664.96309,348.03131 664.84975,348.15696 664.71875,348.25000 C 606.62321,390.86491 533.76674,406.06236 463.56250,414.59375 C 361.25584,424.51350 254.97510,418.68829 158.25000,381.56250 C 137.73761,373.05704 115.80659,362.40225 97.656250,348.03125 C 91.542626,356.65179 88.687500,365.06032 88.687500,373.31250 C 88.687500,385.36989 94.617192,397.71737 108.21875,410.65625 C 121.82031,423.59513 142.81441,436.25177 169.43750,446.96875 C 222.68369,468.40272 298.10689,482.18751 381.40625,482.18750 C 464.70561,482.18750 540.09756,468.40271 593.34375,446.96875 C 619.96684,436.25177 640.99219,423.59513 654.59375,410.65625 C 668.19531,397.71737 674.12500,385.36990 674.12500,373.31250 C 674.12500,365.03107 671.25279,356.59025 665.09375,347.93750 z "
           id="path1316" />
        <path
           style="fill:#000000;fill-opacity:1.0000000;fill-rule:evenodd;stroke:#000000;stroke-width:1.7607598;stroke-linecap:butt;stroke-linejoin:miter;stroke-miterlimit:4.0000000;stroke-opacity:1.0000000"
           d="M 381.40625,171.18750 C 318.89553,171.38893 255.83859,178.33901 195.96875,196.90625 C 157.93350,210.01484 115.34129,225.73825 93.343750,261.71875 C 78.661450,288.29289 101.51118,315.55135 123.09375,329.40625 C 183.79053,368.63532 257.23544,380.93687 328.03125,387.03125 C 420.68583,392.70584 516.65226,385.75549 603.09375,349.62500 C 631.66004,335.86200 666.54041,318.52918 673.84375,284.59375 C 675.86271,252.82689 645.12958,232.91180 620.84375,219.18750 C 547.18062,181.89221 462.97881,172.10817 381.40625,171.18750 z M 381.40625,244.34375 C 405.55749,244.91172 444.88790,249.55218 447.84375,280.06250 C 443.99966,310.46674 406.35493,315.39866 381.40625,315.78125 C 356.44523,315.40201 318.82385,310.45470 314.93750,280.06250 C 318.82383,249.67030 356.44523,244.72299 381.40625,244.34375 z "
           id="path1318" />
      </g>
    </g>
    <g
       id="g1332"
       transform="translate(3.074487,4.234314)">
      <path
         style="fill:#000000;fill-opacity:1.0000000;fill-rule:evenodd;stroke:none;stroke-width:0.25000000pt;stroke-linecap:butt;stroke-linejoin:miter;stroke-opacity:1.0000000"
         d="M 189.55224,272.50615 L 170.00000,347.70096 L 193.35134,334.21906 L 233.79705,404.27308 L 210.44571,417.75498 L 284.11218,437.49385 L 303.85107,363.82737 L 280.49973,377.30927 L 240.05402,307.25525 L 263.40536,293.77335 L 189.55224,272.50615 z "
         id="path1371" />
      <path
         id="path1330"
         d="M 565.34244,272.80742 L 490.44570,293.47209 L 513.79704,306.95399 L 473.35133,377.00801 L 450.00000,363.52611 L 469.73887,437.19258 L 543.40536,417.45372 L 520.05402,403.97181 L 560.49972,333.91779 L 583.85106,347.39970 L 565.34244,272.80742 z "
         style="fill:#000000;fill-opacity:1.0000000;fill-rule:evenodd;stroke:none;stroke-width:0.25000000pt;stroke-linecap:butt;stroke-linejoin:miter;stroke-opacity:1.0000000" />
    </g>
  </g>
</svg>
