<?xml version="1.0" encoding="UTF-8" standalone="no"?>
<!-- Created with Inkscape (http://www.inkscape.org/) -->
<svg
   xmlns:dc="http://purl.org/dc/elements/1.1/"
   xmlns:cc="http://web.resource.org/cc/"
   xmlns:rdf="http://www.w3.org/1999/02/22-rdf-syntax-ns#"
   xmlns:svg="http://www.w3.org/2000/svg"
   xmlns="http://www.w3.org/2000/svg"
   xmlns:xlink="http://www.w3.org/1999/xlink"
   xmlns:sodipodi="http://inkscape.sourceforge.net/DTD/sodipodi-0.dtd"
   xmlns:inkscape="http://www.inkscape.org/namespaces/inkscape"
   width="600.00000pt"
   height="600.00000pt"
   id="svg2"
   sodipodi:version="0.32"
   inkscape:version="0.41"
   sodipodi:docbase="/home/support/Source/ezix/packages/lshw/development/src/gui/artwork"
   sodipodi:docname="mini.svg">
  <defs
     id="defs3">
    <linearGradient
       id="linearGradient2282">
      <stop
         id="stop2284"
         offset="0"
         style="stop-color:#646464;stop-opacity:1;" />
      <stop
         id="stop2286"
         offset="1.0000000"
         style="stop-color:#090909;stop-opacity:0.0000000;" />
    </linearGradient>
    <linearGradient
       inkscape:collect="always"
       id="linearGradient2102">
      <stop
         style="stop-color:#726d7f;stop-opacity:1;"
         offset="0"
         id="stop2104" />
      <stop
         style="stop-color:#726d7f;stop-opacity:0;"
         offset="1"
         id="stop2106" />
    </linearGradient>
    <linearGradient
       id="linearGradient2838">
      <stop
         id="stop2840"
         offset="0.0000000"
         style="stop-color:#000000;stop-opacity:1.0000000;" />
      <stop
         id="stop2842"
         offset="1.0000000"
         style="stop-color:#000000;stop-opacity:0.0000000;" />
    </linearGradient>
    <linearGradient
       gradientUnits="userSpaceOnUse"
       y2="336.16794"
       x2="422.29895"
       y1="188.58949"
       x1="117.34206"
       gradientTransform="scale(1.235013,0.809708)"
       id="linearGradient2844"
       xlink:href="#linearGradient2838"
       inkscape:collect="always" />
    <linearGradient
       inkscape:collect="always"
       xlink:href="#linearGradient2102"
       id="linearGradient2112"
       gradientTransform="scale(0.943567,1.059808)"
       x1="202.28809"
       y1="104.67563"
       x2="573.30255"
       y2="243.77264"
       gradientUnits="userSpaceOnUse" />
    <linearGradient
       inkscape:collect="always"
       xlink:href="#linearGradient2102"
       id="linearGradient2118"
       gradientUnits="userSpaceOnUse"
       gradientTransform="scale(0.943567,1.059808)"
       x1="202.28809"
       y1="104.67563"
       x2="573.30255"
       y2="243.77264" />
    <linearGradient
       y2="633.58173"
       x2="468.77469"
       y1="633.58173"
       x1="64.752121"
       spreadMethod="reflect"
       gradientTransform="matrix(1.757588,0.000000,0.000000,0.943160,-91.12832,-220.9652)"
       gradientUnits="userSpaceOnUse"
       id="linearGradient1342"
       xlink:href="#linearGradient2282"
       inkscape:collect="always" />
  </defs>
  <sodipodi:namedview
     id="base"
     pagecolor="#ffffff"
     bordercolor="#666666"
     borderopacity="1.0"
     inkscape:pageopacity="0.0"
     inkscape:pageshadow="2"
     inkscape:zoom="0.70000000"
     inkscape:cx="459.25119"
     inkscape:cy="374.45696"
     inkscape:document-units="px"
     inkscape:current-layer="layer1"
     inkscape:window-width="853"
     inkscape:window-height="664"
     inkscape:window-x="54"
     inkscape:window-y="32" />
  <metadata
     id="metadata4">
    <rdf:RDF
       id="RDF5">
      <cc:Work
         rdf:about=""
         id="Work6">
        <dc:format
           id="format7">image/svg+xml</dc:format>
        <dc:type
           id="type9"
           rdf:resource="http://purl.org/dc/dcmitype/StillImage" />
        <dc:date
           id="date2068">2005/07/10</dc:date>
        <dc:creator
           id="creator2070">
          <cc:Agent
             id="Agent2072">
            <dc:title
               id="title2074">Lyonel Vincent</dc:title>
          </cc:Agent>
        </dc:creator>
        <dc:publisher
           id="publisher2076">
          <cc:Agent
             id="Agent2078">
            <dc:title
               id="title2080">ezIX.org</dc:title>
          </cc:Agent>
        </dc:publisher>
        <dc:identifier
           id="identifier2082">mini</dc:identifier>
        <dc:source
           id="source2084">$Id: mini.svg 1822 2007-08-07 19:51:34Z lyonel $</dc:source>
        <dc:language
           id="language2086">C</dc:language>
        <dc:subject
           id="subject2088">
          <rdf:Bag
             id="Bag2090">
            <rdf:li
               id="li3818">mini apple mac computer g4</rdf:li>
          </rdf:Bag>
        </dc:subject>
        <cc:license
           id="license2122"
           rdf:resource="http://creativecommons.org/licenses/GPL/2.0/" />
        <dc:title
           id="title2138">Apple Mac mini</dc:title>
      </cc:Work>
      <cc:License
         rdf:about="http://creativecommons.org/licenses/GPL/2.0/"
         id="License2124">
        <cc:permits
           rdf:resource="http://web.resource.org/cc/Reproduction"
           id="permits2126" />
        <cc:permits
           rdf:resource="http://web.resource.org/cc/Distribution"
           id="permits2128" />
        <cc:requires
           rdf:resource="http://web.resource.org/cc/Notice"
           id="requires2130" />
        <cc:permits
           rdf:resource="http://web.resource.org/cc/DerivativeWorks"
           id="permits2132" />
        <cc:requires
           rdf:resource="http://web.resource.org/cc/ShareAlike"
           id="requires2134" />
        <cc:requires
           rdf:resource="http://web.resource.org/cc/SourceCode"
           id="requires2136" />
      </cc:License>
    </rdf:RDF>
  </metadata>
  <g
     inkscape:label="Layer 1"
     inkscape:groupmode="layer"
     id="layer1">
    <g
       id="g2105">
      <path
         sodipodi:nodetypes="cczzczzczzzz"
         id="path1332"
         d="M 71.444419,206.22659 L 23.322892,325.88010 L 24.623474,542.42696 C 24.686085,552.85168 52.540655,563.74957 68.843250,563.88656 L 378.38171,566.48772 L 676.21493,562.58598 C 696.10358,562.32542 730.71772,555.81403 730.83937,535.92404 L 732.13993,323.27894 L 687.92016,202.32483 C 684.45509,192.84687 654.88730,186.71785 637.19747,186.71785 L 132.57176,186.71785 C 91.258536,186.71785 76.540558,193.55512 71.444419,206.22659 z "
         style="fill:#ffffff;fill-opacity:1.0000000;fill-rule:evenodd;stroke:#000000;stroke-width:1.2875103px;stroke-linecap:butt;stroke-linejoin:miter;stroke-opacity:1.0000000" />
      <path
         sodipodi:nodetypes="cczzczzczzzz"
         id="path1457"
         d="M 71.444419,206.22659 L 23.322892,325.88010 L 24.623474,542.42696 C 24.686085,552.85168 52.540655,563.74957 68.843250,563.88656 L 378.38171,566.48772 L 676.21493,562.58598 C 696.10358,562.32542 730.71772,555.81403 730.83937,535.92404 L 732.13993,323.27894 L 687.92016,202.32483 C 684.45509,192.84687 654.88730,186.71785 637.19747,186.71785 L 132.57176,186.71785 C 91.258536,186.71785 76.540558,193.55512 71.444419,206.22659 z "
         style="fill:url(#linearGradient1342);fill-opacity:1.0000000;fill-rule:evenodd;stroke:#000000;stroke-width:5.0000000;stroke-linecap:butt;stroke-linejoin:round;stroke-miterlimit:4.0000000;stroke-opacity:1.0000000;stroke-dasharray:none" />
      <rect
         ry="3.0000000"
         rx="3.0000000"
         y="374.65192"
         x="110.46188"
         height="12.355536"
         width="532.58820"
         id="rect1461"
         style="fill:#a4a4a4;fill-opacity:1.0000000;fill-rule:nonzero;stroke:#000000;stroke-width:1.2500000;stroke-miterlimit:4.0000000;stroke-opacity:1.0000000" />
      <path
         transform="matrix(1.287510,0.000000,0.000000,1.287510,-91.12831,-220.9652)"
         d="M 568.57140 577.14288 A 5.7142859 5.7142859 0 1 1  557.14283,577.14288 A 5.7142859 5.7142859 0 1 1  568.57140 577.14288 z"
         sodipodi:ry="5.7142859"
         sodipodi:rx="5.7142859"
         sodipodi:cy="577.14288"
         sodipodi:cx="562.85712"
         id="path2227"
         style="fill:#a4a4a4;fill-opacity:1.0000000;fill-rule:nonzero;stroke:#000000;stroke-width:0.97086626;stroke-miterlimit:4.0000000;stroke-opacity:1.0000000;stroke-dasharray:none"
         sodipodi:type="arc" />
      <path
         sodipodi:nodetypes="czzzzzzzzz"
         id="path2229"
         d="M 86.401104,203.62541 L 39.580167,320.67777 C 38.122172,324.32275 40.447216,333.25006 46.083068,336.93505 C 51.718931,340.62003 62.015726,342.79999 73.395290,342.78767 L 674.26406,342.13737 C 684.72724,342.12605 719.35352,338.40175 715.23237,326.53040 L 671.66288,201.02426 C 668.71895,192.54398 644.82277,187.95457 620.94021,188.01843 L 134.52263,189.31902 C 109.04065,189.38716 89.029528,197.05434 86.401104,203.62541 z "
         style="fill:#ffffff;fill-opacity:1.0000000;fill-rule:evenodd;stroke:#000000;stroke-width:1.2500000;stroke-linecap:butt;stroke-linejoin:miter;stroke-miterlimit:4.0000000;stroke-opacity:1.0000000" />
      <g
         id="g2112">
        <path
           sodipodi:nodetypes="czzzzczzczzzczc"
           id="path2260"
           d="M 372.70975,244.63975 C 355.45394,242.87935 340.78346,243.14405 333.19748,243.72010 C 325.62204,244.29534 302.53769,247.18034 300.97705,254.37975 C 299.45005,261.42396 311.61783,266.66485 319.28158,270.49673 C 326.94533,274.32860 338.22288,275.67792 346.95955,275.90785 C 355.69622,276.13776 366.27220,273.76199 375.92853,272.68907 C 385.89140,273.30217 396.69729,274.75828 405.81715,274.52837 C 414.93700,274.29846 423.86801,273.50113 430.64770,271.30959 C 437.42740,269.11806 443.48880,264.85187 446.17018,261.70429 C 438.26947,262.68132 435.75887,261.76575 431.89728,260.89620 C 426.88250,259.76699 423.60408,257.41961 423.37417,255.35041 C 423.14425,253.28120 425.94368,250.27184 428.40436,249.29378 C 430.72400,248.37178 435.73978,246.18950 443.79695,245.69408 C 428.64583,241.39760 413.48490,241.64811 403.05821,241.42098 C 392.62670,241.19374 382.82590,243.56683 372.70975,244.63975 z "
           style="stroke-opacity:1.0000000;stroke-miterlimit:4.0000000;stroke-linejoin:miter;stroke-linecap:butt;stroke-width:1.2500000;stroke:none;fill-rule:evenodd;fill-opacity:1.0000000;fill:#a4a4a4" />
        <path
           sodipodi:nodetypes="czzzz"
           id="path2262"
           d="M 373.34184,241.17950 C 372.17674,240.14988 381.68724,235.32690 387.81080,233.70117 C 393.93437,232.07544 408.91815,230.39553 410.08326,231.42515 C 411.24837,232.45477 400.92499,238.25320 394.80143,239.87893 C 388.67786,241.50465 374.50695,242.20913 373.34184,241.17950 z "
           style="stroke-opacity:1.0000000;stroke-miterlimit:4.0000000;stroke-linejoin:miter;stroke-linecap:butt;stroke-width:1.2500000;stroke:none;fill-rule:evenodd;fill-opacity:1.0000000;fill:#a4a4a4" />
      </g>
    </g>
  </g>
</svg>
