<?xml version="1.0" encoding="UTF-8" standalone="no"?>
<svg
   xmlns:dc="http://purl.org/dc/elements/1.1/"
   xmlns:cc="http://web.resource.org/cc/"
   xmlns:rdf="http://www.w3.org/1999/02/22-rdf-syntax-ns#"
   xmlns:svg="http://www.w3.org/2000/svg"
   xmlns="http://www.w3.org/2000/svg"
   xmlns:sodipodi="http://inkscape.sourceforge.net/DTD/sodipodi-0.dtd"
   xmlns:inkscape="http://www.inkscape.org/namespaces/inkscape"
   width="600.00000pt"
   height="600.00000pt"
   id="svg1"
   sodipodi:version="0.32"
   inkscape:version="0.41"
   sodipodi:docname="modem.svg"
   sodipodi:docbase="/home/support/Source/ezix-workspace/packages/lshw/development/src/gui/artwork">
  <sodipodi:namedview
     id="base"
     pagecolor="#ffffff"
     bordercolor="#666666"
     borderopacity="1.0"
     inkscape:pageopacity="0.0"
     inkscape:pageshadow="2"
     inkscape:zoom="0.45118858"
     inkscape:cx="407.28484"
     inkscape:cy="539.79333"
     inkscape:window-width="1024"
     inkscape:window-height="721"
     inkscape:window-x="0"
     inkscape:window-y="26"
     inkscape:current-layer="layer1" />
  <defs
     id="defs2">
    <marker
       id="ArrowEnd"
       viewBox="0 0 10 10"
       refX="0"
       refY="5"
       markerUnits="strokeWidth"
       markerWidth="4"
       markerHeight="3"
       orient="auto">
      <path
         d="M 0 0 L 10 5 L 0 10 z"
         id="path4" />
    </marker>
    <marker
       id="ArrowStart"
       viewBox="0 0 10 10"
       refX="10"
       refY="5"
       markerUnits="strokeWidth"
       markerWidth="4"
       markerHeight="3"
       orient="auto">
      <path
         d="M 10 0 L 0 5 L 10 10 z"
         id="path6" />
    </marker>
  </defs>
  <path
     sodipodi:nodetypes="cccccccccccccscccccccccccc"
     style="fill:#000000;fill-opacity:1.0000000;stroke:none"
     d="M 451.74623,129.23122 C 449.09618,125.08813 437.06923,111.45734 437.06923,111.45734 C 437.06923,111.45734 300.95341,209.68513 303.50526,219.67747 C 304.49106,226.92698 335.90995,247.68001 345.46974,248.92581 C 355.02875,250.17224 363.52871,250.05427 363.52870,250.05426 L 455.70168,177.01127 C 455.70168,177.01127 462.45587,171.80977 459.12923,150.71722 C 457.46612,140.17079 454.39628,133.37430 451.74623,129.23122 z M 437.50808,111.44212 C 437.50808,111.44212 356.14308,8.4605416 263.98394,81.513279 C 171.82543,154.56684 103.98326,236.89120 81.960846,303.28896 C 59.935692,369.68817 1.0208209,541.85018 82.803437,622.99645 C 82.803444,622.99644 126.56941,660.28570 174.15955,677.42308 L 175.06986,502.56749 C 175.06986,502.56747 129.87428,485.72740 141.30066,444.68383 C 152.72701,403.64025 229.49471,243.52377 229.49471,243.52377 C 229.49471,243.52377 256.51680,194.80008 304.21104,220.46129 L 437.50808,111.44212 z M 231.93272,523.12741 C 231.29452,522.34153 230.88088,521.96523 230.88088,521.96523 C 213.21745,515.97584 191.77044,508.48646 174.10701,502.49708 L 172.22497,676.49544 C 185.67154,682.88720 215.72371,675.56737 227.25342,670.99597 C 238.78716,666.42149 239.61181,650.72401 239.61180,650.72402 C 239.61180,650.72402 240.52544,559.70258 238.96698,543.69888 C 237.79744,531.70148 233.84734,525.48504 231.93272,523.12741 z "
     id="path11" />
  <metadata
     id="metadata16">
    <rdf:RDF
       id="RDF18">
      <cc:Work
         rdf:about=""
         id="Work20">
        <dc:title
           id="title22">Modem</dc:title>
        <dc:description
           id="description24" />
        <dc:subject
           id="subject26">
          <rdf:Bag
             id="Bag28">
            <rdf:li
               id="li2331">telephone modem binary serial</rdf:li>
          </rdf:Bag>
        </dc:subject>
        <dc:publisher
           id="publisher38">
          <cc:Agent
             rdf:about="http://www.openclipart.org"
             id="Agent40">
            <dc:title
               id="title42">ezIX.org</dc:title>
          </cc:Agent>
        </dc:publisher>
        <dc:creator
           id="creator44">
          <cc:Agent
             rdf:about=""
             id="Agent46">
            <dc:title
               id="title48">Lyonel Vincent</dc:title>
          </cc:Agent>
        </dc:creator>
        <dc:rights
           id="rights50">
          <cc:Agent
             rdf:about=""
             id="Agent52">
            <dc:title
               id="title54" />
          </cc:Agent>
        </dc:rights>
        <dc:date
           id="date56" />
        <dc:format
           id="format58">image/svg+xml</dc:format>
        <dc:type
           rdf:resource="http://purl.org/dc/dcmitype/StillImage"
           id="type60" />
        <cc:license
           rdf:resource="http://creativecommons.org/licenses/GPL/2.0/"
           id="license62">
          <dc:date
             id="date64" />
        </cc:license>
        <dc:language
           id="language66">C</dc:language>
        <dc:identifier
           id="identifier2259">modem</dc:identifier>
        <dc:source
           id="source2261">$Id: modem.svg 1822 2007-08-07 19:51:34Z lyonel $</dc:source>
      </cc:Work>
      <cc:License
         rdf:about="http://creativecommons.org/licenses/GPL/2.0/"
         id="License2333">
        <cc:permits
           rdf:resource="http://web.resource.org/cc/Reproduction"
           id="permits2335" />
        <cc:permits
           rdf:resource="http://web.resource.org/cc/Distribution"
           id="permits2337" />
        <cc:requires
           rdf:resource="http://web.resource.org/cc/Notice"
           id="requires2339" />
        <cc:permits
           rdf:resource="http://web.resource.org/cc/DerivativeWorks"
           id="permits2341" />
        <cc:requires
           rdf:resource="http://web.resource.org/cc/ShareAlike"
           id="requires2343" />
        <cc:requires
           rdf:resource="http://web.resource.org/cc/SourceCode"
           id="requires2345" />
      </cc:License>
    </rdf:RDF>
  </metadata>
  <g
     id="layer1"
     inkscape:groupmode="layer"
     inkscape:label="Layer 1"
     transform="translate(833.8187,439.2361)">
    <g
       id="g2250"
       transform="matrix(0.673213,0.000000,0.000000,0.673213,-596.8299,-89.26539)">
      <path
         id="path1291"
         d="M 350.53211,290.37507 C 304.96821,290.37507 267.99319,327.34876 267.99319,372.91441 C 267.99319,418.48007 304.96821,455.45375 350.53211,455.45375 C 396.09601,455.45375 433.07102,418.48008 433.07102,372.91441 C 433.07102,327.34875 396.09602,290.37507 350.53211,290.37507 z M 350.53211,320.93762 C 379.22992,320.93763 402.50610,344.21546 402.50610,372.91441 C 402.50610,401.61334 379.22993,424.91675 350.53211,424.91675 C 321.83427,424.91676 298.52408,401.61335 298.52408,372.91441 C 298.52408,344.21546 321.83427,320.93762 350.53211,320.93762 z "
         style="fill:#000000;fill-opacity:1.0000000;fill-rule:evenodd;stroke:#000000;stroke-width:1.4373587pt;stroke-linecap:butt;stroke-linejoin:miter;stroke-opacity:1.0000000" />
      <rect
         y="291.01590"
         x="448.06717"
         height="166.11839"
         width="33.543137"
         id="rect1298"
         style="fill:#000000;fill-opacity:1.0000000;stroke:none;stroke-width:0.60555232;stroke-linecap:round;stroke-linejoin:round;stroke-miterlimit:4.0000000;stroke-opacity:1.0000000" />
      <rect
         y="291.01590"
         x="676.68030"
         height="166.11839"
         width="33.543137"
         id="rect2060"
         style="fill:#000000;fill-opacity:1.0000000;stroke:none;stroke-width:0.60555232;stroke-linecap:round;stroke-linejoin:round;stroke-miterlimit:4.0000000;stroke-opacity:1.0000000" />
      <path
         id="path2062"
         d="M 579.14511,290.37507 C 533.58121,290.37507 496.60619,327.34876 496.60619,372.91441 C 496.60619,418.48007 533.58121,455.45375 579.14511,455.45375 C 624.70901,455.45375 661.68402,418.48008 661.68402,372.91441 C 661.68402,327.34875 624.70902,290.37507 579.14511,290.37507 z M 579.14511,320.93762 C 607.84293,320.93763 631.11910,344.21546 631.11910,372.91441 C 631.11911,401.61334 607.84293,424.91675 579.14511,424.91675 C 550.44728,424.91676 527.13708,401.61335 527.13708,372.91441 C 527.13708,344.21546 550.44728,320.93762 579.14511,320.93762 z "
         style="fill:#000000;fill-opacity:1.0000000;fill-rule:evenodd;stroke:#000000;stroke-width:1.4373587pt;stroke-linecap:butt;stroke-linejoin:miter;stroke-opacity:1.0000000" />
      <path
         id="path2064"
         d="M 121.91910,290.37507 C 76.355205,290.37507 39.380184,327.34876 39.380184,372.91441 C 39.380184,418.48007 76.355205,455.45375 121.91910,455.45375 C 167.48300,455.45375 204.45802,418.48008 204.45802,372.91441 C 204.45802,327.34875 167.48301,290.37507 121.91910,290.37507 z M 121.91910,320.93762 C 150.61692,320.93763 173.89309,344.21546 173.89309,372.91441 C 173.89310,401.61334 150.61692,424.91675 121.91910,424.91675 C 93.221267,424.91676 69.911075,401.61335 69.911075,372.91441 C 69.911075,344.21546 93.221267,320.93762 121.91910,320.93762 z "
         style="fill:#000000;fill-opacity:1.0000000;fill-rule:evenodd;stroke:#000000;stroke-width:1.4373587pt;stroke-linecap:butt;stroke-linejoin:miter;stroke-opacity:1.0000000" />
      <rect
         y="291.01590"
         x="219.45406"
         height="166.11839"
         width="33.543137"
         id="rect2066"
         style="fill:#000000;fill-opacity:1.0000000;stroke:none;stroke-width:0.60555232;stroke-linecap:round;stroke-linejoin:round;stroke-miterlimit:4.0000000;stroke-opacity:1.0000000" />
    </g>
  </g>
</svg>
