<?xml version="1.0" encoding="UTF-8" standalone="no"?>
<!-- Created with Inkscape (http://www.inkscape.org/) -->
<svg
   xmlns:dc="http://purl.org/dc/elements/1.1/"
   xmlns:cc="http://web.resource.org/cc/"
   xmlns:rdf="http://www.w3.org/1999/02/22-rdf-syntax-ns#"
   xmlns:svg="http://www.w3.org/2000/svg"
   xmlns="http://www.w3.org/2000/svg"
   xmlns:sodipodi="http://inkscape.sourceforge.net/DTD/sodipodi-0.dtd"
   xmlns:inkscape="http://www.inkscape.org/namespaces/inkscape"
   sodipodi:docname="parallel.svg"
   sodipodi:docbase="/home/support/Source/ezix-workspace/packages/lshw/development/src/gui/artwork"
   inkscape:version="0.41"
   sodipodi:version="0.32"
   id="svg2"
   height="600.00000pt"
   width="600.00000pt">
  <defs
     id="defs3" />
  <sodipodi:namedview
     inkscape:window-y="26"
     inkscape:window-x="0"
     inkscape:window-height="674"
     inkscape:window-width="946"
     inkscape:current-layer="layer1"
     inkscape:document-units="px"
     inkscape:cy="227.21459"
     inkscape:cx="213.00574"
     inkscape:zoom="0.49497475"
     inkscape:pageshadow="2"
     inkscape:pageopacity="0.0"
     borderopacity="1.0"
     bordercolor="#666666"
     pagecolor="#ffffff"
     id="base"
     showgrid="true"
     inkscape:grid-points="true"
     showguides="true"
     inkscape:guide-bbox="true" />
  <metadata
     id="metadata4">
    <rdf:RDF
       id="RDF5">
      <cc:Work
         id="Work6"
         rdf:about="">
        <dc:format
           id="format7">image/svg+xml</dc:format>
        <dc:type
           rdf:resource="http://purl.org/dc/dcmitype/StillImage"
           id="type9" />
        <dc:date
           id="date2068">2005/03/28</dc:date>
        <dc:creator
           id="creator2070">
          <cc:Agent
             id="Agent2072">
            <dc:title
               id="title2074">Lyonel Vincent</dc:title>
          </cc:Agent>
        </dc:creator>
        <dc:publisher
           id="publisher2076">
          <cc:Agent
             id="Agent2078">
            <dc:title
               id="title2080">ezIX.org</dc:title>
          </cc:Agent>
        </dc:publisher>
        <dc:identifier
           id="identifier2082">serial</dc:identifier>
        <dc:source
           id="source2084">$Id: parallel.svg 1822 2007-08-07 19:51:34Z lyonel $</dc:source>
        <dc:language
           id="language2086">C</dc:language>
        <dc:subject
           id="subject2088">
          <rdf:Bag
             id="Bag2090">
            <rdf:li
               id="li2120">serial binary</rdf:li>
          </rdf:Bag>
        </dc:subject>
        <cc:license
           rdf:resource="http://creativecommons.org/licenses/GPL/2.0/"
           id="license2122" />
        <dc:title
           id="title2138">Serial logo</dc:title>
      </cc:Work>
      <cc:License
         id="License2124"
         rdf:about="http://creativecommons.org/licenses/GPL/2.0/">
        <cc:permits
           id="permits2126"
           rdf:resource="http://web.resource.org/cc/Reproduction" />
        <cc:permits
           id="permits2128"
           rdf:resource="http://web.resource.org/cc/Distribution" />
        <cc:requires
           id="requires2130"
           rdf:resource="http://web.resource.org/cc/Notice" />
        <cc:permits
           id="permits2132"
           rdf:resource="http://web.resource.org/cc/DerivativeWorks" />
        <cc:requires
           id="requires2134"
           rdf:resource="http://web.resource.org/cc/ShareAlike" />
        <cc:requires
           id="requires2136"
           rdf:resource="http://web.resource.org/cc/SourceCode" />
      </cc:License>
    </rdf:RDF>
  </metadata>
  <g
     id="layer1"
     inkscape:groupmode="layer"
     inkscape:label="Layer 1">
    <path
       style="fill:#000000;fill-opacity:1.0000000;fill-rule:evenodd;stroke:none;stroke-width:2.0000000;stroke-linecap:butt;stroke-linejoin:round;stroke-miterlimit:4.0000000;stroke-opacity:1.0000000"
       d="M 69.511989,245.00273 C 54.869776,245.03952 41.000593,251.95448 32.460059,263.84811 C 23.919506,275.74165 21.746772,291.16617 26.391201,305.05242 L 77.497317,458.37077 C 83.642733,476.99313 101.00818,489.59916 120.61811,489.67327 L 631.67928,489.67327 C 651.28931,489.59916 668.65475,476.99313 674.80007,458.37077 L 725.90619,305.05242 C 730.55060,291.16617 728.05847,275.74173 719.51792,263.84811 C 710.97729,251.95448 697.42772,245.03952 682.78541,245.00273 L 376.14869,245.00273 L 69.511989,245.00273 z M 87.399131,293.23414 C 94.442888,293.23423 99.856243,298.96691 99.856243,306.01066 C 99.856243,313.05461 94.442888,318.78719 87.399131,318.78719 C 80.355484,318.78749 74.622608,313.05442 74.622608,306.01066 C 74.622608,298.96711 80.355387,293.23414 87.399131,293.23414 z M 131.79757,293.23414 C 138.84133,293.23423 144.57411,298.96691 144.57411,306.01066 C 144.57420,313.05461 138.84133,318.78719 131.79757,318.78719 C 124.75381,318.78749 119.02105,313.05442 119.02105,306.01066 C 119.02114,298.96711 124.75381,293.23414 131.79757,293.23414 z M 176.19600,293.23414 C 183.23966,293.23423 188.97254,298.96691 188.97254,306.01066 C 188.97254,313.05461 183.23977,318.78719 176.19600,318.78719 C 169.15226,318.78749 163.41948,313.05442 163.41948,306.01066 C 163.41948,298.96711 169.15226,293.23414 176.19600,293.23414 z M 220.59444,293.23414 C 227.63820,293.23423 233.37098,298.96691 233.37098,306.01066 C 233.37098,313.05461 227.63820,318.78719 220.59444,318.78719 C 213.55079,318.78749 207.81792,313.05442 207.81792,306.01066 C 207.81792,298.96711 213.55070,293.23414 220.59444,293.23414 z M 264.99287,293.23414 C 272.03664,293.23423 277.76942,298.96691 277.76942,306.01066 C 277.76952,313.05461 272.03664,318.78719 264.99287,318.78719 C 257.94914,318.78749 252.21636,313.05442 252.21636,306.01066 C 252.21646,298.96711 257.94914,293.23414 264.99287,293.23414 z M 309.39134,293.23414 C 316.43498,293.23423 322.16786,298.96691 322.16786,306.01066 C 322.16786,313.05461 316.43508,318.78719 309.39134,318.78719 C 302.34758,318.78749 296.61480,313.05442 296.61480,306.01066 C 296.61480,298.96711 302.34758,293.23414 309.39134,293.23414 z M 353.78978,293.23414 C 360.83352,293.23423 366.56630,298.96691 366.56630,306.01066 C 366.56630,313.05461 360.83352,318.78719 353.78978,318.78719 C 346.74612,318.78749 341.01324,313.05442 341.01324,306.01066 C 341.01324,298.96711 346.74602,293.23414 353.78978,293.23414 z M 398.18821,293.23414 C 405.23196,293.23423 410.96473,298.96691 410.96473,306.01066 C 410.96483,313.05461 405.23196,318.78719 398.18821,318.78719 C 391.14446,318.78749 385.41168,313.05442 385.41168,306.01066 C 385.41158,298.96711 391.14446,293.23414 398.18821,293.23414 z M 442.58665,293.23414 C 449.63040,293.23423 455.36318,298.96691 455.36318,306.01066 C 455.36308,313.05461 449.63040,318.78719 442.58665,318.78719 C 435.54290,318.78749 429.81012,313.05442 429.81012,306.01066 C 429.81002,298.96711 435.54290,293.23414 442.58665,293.23414 z M 486.98509,293.23414 C 494.02874,293.23423 499.76161,298.96691 499.76161,306.01066 C 499.76161,313.05461 494.02884,318.78719 486.98509,318.78719 C 479.94132,318.78749 474.20856,313.05442 474.20856,306.01066 C 474.20856,298.96711 479.94132,293.23414 486.98509,293.23414 z M 531.38353,293.23414 C 538.42727,293.23423 544.16005,298.96691 544.16005,306.01066 C 544.16005,313.05461 538.42727,318.78719 531.38353,318.78719 C 524.33988,318.78749 518.60699,313.05442 518.60699,306.01066 C 518.60699,298.96711 524.33976,293.23414 531.38353,293.23414 z M 575.78197,293.23414 C 582.82571,293.23423 588.55849,298.96691 588.55849,306.01066 C 588.55839,313.05461 582.82571,318.78719 575.78197,318.78719 C 568.73821,318.78749 563.32484,313.05442 563.32484,306.01066 C 563.32476,298.96711 568.73821,293.23414 575.78197,293.23414 z M 620.49982,293.23414 C 627.54348,293.23423 632.95693,298.96691 632.95693,306.01066 C 632.95693,313.05461 627.54358,318.78719 620.49982,318.78719 C 613.45606,318.78749 607.72328,313.05442 607.72328,306.01066 C 607.72328,298.96711 613.45606,293.23414 620.49982,293.23414 z M 664.89826,293.23414 C 671.94191,293.23423 677.67478,298.96691 677.67478,306.01066 C 677.67478,313.05461 671.94201,318.78719 664.89826,318.78719 C 657.85450,318.78749 652.12173,313.05442 652.12173,306.01066 C 652.12173,298.96711 657.85450,293.23414 664.89826,293.23414 z M 153.83707,409.50055 C 160.88074,409.50024 166.61362,415.23332 166.61362,422.27706 C 166.61362,429.32061 160.88083,435.05360 153.83707,435.05360 C 146.79333,435.05352 141.06056,429.32083 141.06056,422.27706 C 141.06056,415.23311 146.79333,409.50055 153.83707,409.50055 z M 198.23553,409.50055 C 205.27927,409.50024 211.01206,415.23332 211.01206,422.27706 C 211.01206,429.32061 205.27927,435.05360 198.23553,435.05360 C 191.19186,435.05352 185.45900,429.32083 185.45900,422.27706 C 185.45900,415.23311 191.19176,409.50055 198.23553,409.50055 z M 242.63397,409.50055 C 249.67772,409.50024 255.41050,415.23332 255.41050,422.27706 C 255.41039,429.32061 249.67772,435.05360 242.63397,435.05360 C 235.59022,435.05352 229.85742,429.32083 229.85742,422.27706 C 229.85733,415.23311 235.59022,409.50055 242.63397,409.50055 z M 287.03241,409.50055 C 294.07606,409.50024 299.80893,415.23332 299.80893,422.27706 C 299.80893,429.32061 294.07616,435.05360 287.03241,435.05360 C 279.98865,435.05352 274.25586,429.32083 274.25586,422.27706 C 274.25586,415.23311 279.98865,409.50055 287.03241,409.50055 z M 331.43085,409.50055 C 338.47459,409.50024 344.20736,415.23332 344.20736,422.27706 C 344.20736,429.32061 338.47459,435.05360 331.43085,435.05360 C 324.38720,435.05352 318.97373,429.32083 318.97373,422.27706 C 318.97373,415.23311 324.38709,409.50055 331.43085,409.50055 z M 376.14869,409.50055 C 383.19245,409.50024 388.92522,415.23332 388.92522,422.27706 C 388.92513,429.32061 383.19245,435.05360 376.14869,435.05360 C 369.10494,435.05352 363.37216,429.32083 363.37216,422.27706 C 363.37207,415.23311 369.10494,409.50055 376.14869,409.50055 z M 420.54714,409.50055 C 427.59079,409.50024 433.32366,415.23332 433.32366,422.27706 C 433.32366,429.32061 427.59088,435.05360 420.54714,435.05360 C 413.50338,435.05352 407.77060,429.32083 407.77060,422.27706 C 407.77070,415.23311 413.50338,409.50055 420.54714,409.50055 z M 464.94559,409.50055 C 471.98932,409.50024 477.72210,415.23332 477.72210,422.27706 C 477.72210,429.32061 471.98932,435.05360 464.94559,435.05360 C 457.90192,435.05352 452.16904,429.32083 452.16904,422.27706 C 452.16904,415.23311 457.90182,409.50055 464.94559,409.50055 z M 509.34403,409.50055 C 516.38768,409.50024 522.12054,415.23332 522.12054,422.27706 C 522.12054,429.32061 516.38776,435.05360 509.34403,435.05360 C 502.30026,435.05352 496.56748,429.32083 496.56748,422.27706 C 496.56748,415.23311 502.30026,409.50055 509.34403,409.50055 z M 553.74246,409.50055 C 560.78620,409.50024 566.51898,415.23332 566.51898,422.27706 C 566.51898,429.32061 560.78620,435.05360 553.74246,435.05360 C 546.69881,435.05352 540.96592,429.32083 540.96592,422.27706 C 540.96592,415.23311 546.69870,409.50055 553.74246,409.50055 z M 598.14089,409.50055 C 605.18465,409.50024 610.91742,415.23332 610.91742,422.27706 C 610.91753,429.32061 605.18465,435.05360 598.14089,435.05360 C 591.09714,435.05352 585.36436,429.32083 585.36436,422.27706 C 585.36448,415.23311 591.09714,409.50055 598.14089,409.50055 z "
       id="path2228" />
  </g>
</svg>
