<?xml version="1.0" encoding="UTF-8" standalone="no"?>
<!-- Created with Inkscape (http://www.inkscape.org/) -->
<svg
   xmlns:dc="http://purl.org/dc/elements/1.1/"
   xmlns:cc="http://web.resource.org/cc/"
   xmlns:rdf="http://www.w3.org/1999/02/22-rdf-syntax-ns#"
   xmlns:svg="http://www.w3.org/2000/svg"
   xmlns="http://www.w3.org/2000/svg"
   xmlns:sodipodi="http://inkscape.sourceforge.net/DTD/sodipodi-0.dtd"
   xmlns:inkscape="http://www.inkscape.org/namespaces/inkscape"
   width="600.00000pt"
   height="600.00000pt"
   id="svg2"
   sodipodi:version="0.32"
   inkscape:version="0.43"
   sodipodi:docbase="/home/support/Source/ezix-workspace/packages/lshw/development/src/gui/artwork"
   sodipodi:docname="powerpc.svg">
  <defs
     id="defs3" />
  <sodipodi:namedview
     gridtolerance="4.0000000px"
     id="base"
     pagecolor="#ffffff"
     bordercolor="#666666"
     borderopacity="1.0"
     inkscape:pageopacity="0.0"
     inkscape:pageshadow="2"
     inkscape:zoom="0.49497475"
     inkscape:cx="461.33575"
     inkscape:cy="327.32759"
     inkscape:document-units="px"
     inkscape:current-layer="layer1"
     inkscape:grid-points="true"
     showgrid="true"
     gridspacingx="10.000000px"
     gridspacingy="10.000000px"
     inkscape:window-width="842"
     inkscape:window-height="676"
     inkscape:window-x="0"
     inkscape:window-y="26" />
  <metadata
     id="metadata4">
    <rdf:RDF>
      <cc:Work
         rdf:about="">
        <dc:format>image/svg+xml</dc:format>
        <dc:type
           rdf:resource="http://purl.org/dc/dcmitype/StillImage" />
        <dc:title>PowerPC</dc:title>
        <dc:date>2006/01/24</dc:date>
        <dc:creator>
          <cc:Agent>
            <dc:title>Lyonel Vincent</dc:title>
          </cc:Agent>
        </dc:creator>
        <dc:publisher>
          <cc:Agent>
            <dc:title>ezIX.org</dc:title>
          </cc:Agent>
        </dc:publisher>
        <dc:identifier>powerpc</dc:identifier>
        <dc:language>C</dc:language>
        <dc:subject>
          <rdf:Bag>
            <rdf:li>powerpc ibm processor</rdf:li>
          </rdf:Bag>
        </dc:subject>
        <cc:license
           rdf:resource="http://creativecommons.org/licenses/GPL/2.0/" />
        <dc:source>$Id: powerpc.svg 1822 2007-08-07 19:51:34Z lyonel $</dc:source>
      </cc:Work>
      <cc:License
         rdf:about="http://creativecommons.org/licenses/GPL/2.0/">
        <cc:permits
           rdf:resource="http://web.resource.org/cc/Reproduction" />
        <cc:permits
           rdf:resource="http://web.resource.org/cc/Distribution" />
        <cc:requires
           rdf:resource="http://web.resource.org/cc/Notice" />
        <cc:permits
           rdf:resource="http://web.resource.org/cc/DerivativeWorks" />
        <cc:requires
           rdf:resource="http://web.resource.org/cc/ShareAlike" />
        <cc:requires
           rdf:resource="http://web.resource.org/cc/SourceCode" />
      </cc:License>
    </rdf:RDF>
  </metadata>
  <g
     inkscape:label="Layer 1"
     inkscape:groupmode="layer"
     id="layer1">
    <g
       id="g1351"
       inkscape:label="Layer 1"
       transform="matrix(1.812496,0,0,1.812496,-363.843,-615.6997)">
      <g
         id="g3130">
        <path
           style="fill:#000000;fill-opacity:1;fill-rule:evenodd;stroke:none;stroke-width:1px;stroke-linecap:butt;stroke-linejoin:miter;stroke-opacity:1"
           d="M 211.07143,580.57647 C 211.07143,580.69552 211.07143,580.81456 211.07143,580.57647 z "
           id="path1350" />
        <path
           style="fill:#000000;fill-opacity:1;fill-rule:evenodd;stroke:none;stroke-width:1px;stroke-linecap:square;stroke-linejoin:miter;stroke-opacity:1"
           d="M 210.71429,581.29075 L 238.21429,510.57647 C 238.21429,510.57647 259.46429,508.16575 270.35714,510.93361 C 281.25,513.70147 285.20851,526.4016 279.64286,538.43361 C 270.11576,559.02962 261.51786,559.59432 254.64286,561.29075 C 247.76786,562.98718 242.14286,561.29075 242.14286,561.29075 L 248.21429,546.29075 C 248.21429,546.29075 250.44123,545.92665 253.21429,545.57647 C 258.1134,544.95782 263.54713,529.66194 261.42857,527.71932 C 259.57073,526.01577 252.5,527.00504 252.5,527.00504 L 231.07143,581.6479 L 210.71429,581.29075 z "
           id="path1352"
           sodipodi:nodetypes="ccsssccssccc" />
        <path
           sodipodi:nodetypes="ccsssccssccc"
           id="path2233"
           d="M 476.71429,581.29075 L 504.21429,510.57647 C 504.21429,510.57647 525.46429,508.16575 536.35714,510.93361 C 547.25,513.70147 551.20851,526.4016 545.64286,538.43361 C 536.11576,559.02962 527.51786,559.59432 520.64286,561.29075 C 513.76786,562.98718 508.14286,561.29075 508.14286,561.29075 L 514.21429,546.29075 C 514.21429,546.29075 516.44123,545.92665 519.21429,545.57647 C 524.1134,544.95782 529.54713,529.66194 527.42857,527.71932 C 525.57073,526.01577 518.5,527.00504 518.5,527.00504 L 497.07143,581.6479 L 476.71429,581.29075 z "
           style="fill:#000000;fill-opacity:1;fill-rule:evenodd;stroke:none;stroke-width:1px;stroke-linecap:square;stroke-linejoin:miter;stroke-opacity:1" />
        <path
           style="fill:#000000;fill-opacity:1;fill-rule:evenodd;stroke:none;stroke-width:1px;stroke-linecap:butt;stroke-linejoin:miter;stroke-opacity:1"
           d="M 329.81481,526.57778 L 323.75389,581.6311 L 341.43156,581.6311 L 356.07877,558.90266 L 353.55339,581.12602 L 373.25137,581.12602 L 408.6067,526.57778 L 388.90873,526.57778 L 373.75644,550.31636 L 376.28182,526.07271 L 358.60415,526.07271 L 346.48232,549.81129 L 347.49248,526.57778 L 329.81481,526.57778 z "
           id="path2235"
           sodipodi:nodetypes="cccccccccccccc" />
        <path
           style="fill:#000000;fill-opacity:1;fill-rule:evenodd;stroke:none;stroke-width:1px;stroke-linecap:butt;stroke-linejoin:miter;stroke-opacity:1"
           d="M 604.5625,510.40625 L 579.0625,510.65625 C 579.0625,510.65625 554.39907,512.93862 546.59375,543.40625 L 567.1875,543.40625 C 567.94108,541.68241 568.82051,540.05981 569.71875,538.6875 C 574.1224,531.95975 581.86545,528.78548 582.34375,528.59375 L 598,528.09375 L 604.5625,510.40625 z M 545.75,547.125 C 543.96975,556.06836 537.55311,577.77589 560.625,581.11485 C 572.55117,582.8408 577.49225,581.99788 578.28125,582.09375 C 578.28703,582.09471 578.30769,582.09266 578.3125,582.09375 L 578.3125,582.125 C 578.31562,582.12268 578.34164,582.12715 578.34375,582.125 C 578.34385,582.12316 578.0921,583.10558 578.09121,583.1039 L 587.15371,562.44765 C 586.90119,563.45781 578.16568,563.01711 571.25,561.9375 C 564.27015,560.84788 564.06274,553.26658 565.84375,547.125 L 545.75,547.125 z "
           id="path3110"
           sodipodi:nodetypes="ccccsccccssccsccscc" />
        <path
           style="fill:#000000;fill-opacity:1;fill-rule:evenodd;stroke:none;stroke-width:1px;stroke-linecap:butt;stroke-linejoin:miter;stroke-opacity:1"
           d="M 457.09403,526.07271 L 435.88082,581.37856 L 456.33641,581.37856 C 456.33641,581.37856 461.00953,565.04899 466.43794,556.88236 C 473.57214,546.14949 486.89353,548.04352 486.89353,548.04352 L 495.22729,526.32524 C 495.22729,526.32524 488.8507,527.01972 483.61053,529.60824 C 478.37036,532.19676 474.26662,536.67931 474.26662,536.67931 L 477.80215,526.32524 L 457.09403,526.07271 z "
           id="path3115"
           sodipodi:nodetypes="cccsccsccc" />
        <path
           style="fill:#000000;fill-opacity:1;fill-rule:evenodd;stroke:none;stroke-width:1px;stroke-linecap:butt;stroke-linejoin:miter;stroke-opacity:1"
           d="M 416.43539,562.18566 L 440.93159,562.18566 C 440.93159,562.18566 445.57499,551.88398 446.23489,543.49783 C 447.75011,524.2418 428.55721,524.36808 419.97092,527.08286 C 411.38462,529.79765 405.58754,535.2333 401.53564,542.74023 C 395.63182,553.67818 393.70695,563.70089 396.48487,570.01434 C 399.26279,576.3278 403.28335,580.67348 412.89985,581.12602 C 423.63272,581.6311 433.35544,581.12602 433.35544,581.12602 L 439.6689,565.46866 C 439.6689,565.46866 425.9687,566.03687 419.21331,565.7212 C 412.52893,565.40884 413.65747,559.1552 413.65747,559.1552 C 413.65747,559.1552 415.67777,549.49562 419.21331,545.26561 C 422.74884,541.03559 425.58989,541.47754 427.7996,542.23515 C 430.00931,542.99276 428.05214,548.29606 428.05214,548.29606 L 420.98107,548.29606 L 416.43539,562.18566 z "
           id="path3117"
           sodipodi:nodetypes="ccsssssccscssccc" />
        <path
           style="fill:#000000;fill-opacity:1;fill-rule:evenodd;stroke:none;stroke-width:1px;stroke-linecap:butt;stroke-linejoin:miter;stroke-opacity:1"
           d="M 305.9375,525.5625 C 297.54743,525.84263 286.1849,529.20826 276.59375,551.125 L 295,551.125 C 297.18066,546.5554 299.64607,543.02411 302.75,542.71875 C 302.90052,542.70394 303.06508,542.71813 303.21875,542.71875 C 305.16724,542.72575 308.62464,542.89923 305.71875,551.125 L 324.65625,551.125 C 332.11709,528.79021 315.88185,525.62344 307.59375,525.5625 C 307.19127,525.55954 306.76254,525.55314 306.34375,525.5625 C 306.2107,525.56547 306.07211,525.55801 305.9375,525.5625 z M 275.15625,554.6875 C 268.00624,574.43157 279.03344,583.16497 286.875,583.40625 C 295.08353,583.65882 310.60142,586.59655 323.34375,554.6875 L 304.28125,554.6875 C 298.99895,566.67536 296.74909,568.43293 293.6875,567.90625 C 289.61297,567.20527 291.27684,560.10136 293.46875,554.6875 L 275.15625,554.6875 z "
           id="path3119" />
      </g>
    </g>
  </g>
</svg>
