<?xml version="1.0" encoding="UTF-8" standalone="no"?>
<!-- Created with Inkscape (http://www.inkscape.org/) -->
<svg
   xmlns:dc="http://purl.org/dc/elements/1.1/"
   xmlns:cc="http://web.resource.org/cc/"
   xmlns:rdf="http://www.w3.org/1999/02/22-rdf-syntax-ns#"
   xmlns:svg="http://www.w3.org/2000/svg"
   xmlns="http://www.w3.org/2000/svg"
   xmlns:xlink="http://www.w3.org/1999/xlink"
   xmlns:sodipodi="http://inkscape.sourceforge.net/DTD/sodipodi-0.dtd"
   xmlns:inkscape="http://www.inkscape.org/namespaces/inkscape"
   width="600.00000pt"
   height="600.00000pt"
   id="svg2"
   sodipodi:version="0.32"
   inkscape:version="0.41"
   sodipodi:docbase="/home/support/Source/ezix/packages/lshw/development/src/gui/artwork"
   sodipodi:docname="powermacg5.svg">
  <defs
     id="defs3">
    <linearGradient
       inkscape:collect="always"
       id="linearGradient3690">
      <stop
         style="stop-color:#c2c2c2;stop-opacity:1;"
         offset="0"
         id="stop3692" />
      <stop
         style="stop-color:#c2c2c2;stop-opacity:0;"
         offset="1"
         id="stop3694" />
    </linearGradient>
    <linearGradient
       inkscape:collect="always"
       id="linearGradient2102">
      <stop
         style="stop-color:#726d7f;stop-opacity:1;"
         offset="0"
         id="stop2104" />
      <stop
         style="stop-color:#726d7f;stop-opacity:0;"
         offset="1"
         id="stop2106" />
    </linearGradient>
    <linearGradient
       id="linearGradient2838">
      <stop
         id="stop2840"
         offset="0.0000000"
         style="stop-color:#000000;stop-opacity:1.0000000;" />
      <stop
         id="stop2842"
         offset="1.0000000"
         style="stop-color:#000000;stop-opacity:0.0000000;" />
    </linearGradient>
    <linearGradient
       gradientUnits="userSpaceOnUse"
       y2="336.16794"
       x2="422.29895"
       y1="188.58949"
       x1="117.34206"
       gradientTransform="scale(1.235013,0.809708)"
       id="linearGradient2844"
       xlink:href="#linearGradient2838"
       inkscape:collect="always" />
    <linearGradient
       inkscape:collect="always"
       xlink:href="#linearGradient2102"
       id="linearGradient2112"
       gradientTransform="scale(0.943567,1.059808)"
       x1="202.28809"
       y1="104.67563"
       x2="573.30255"
       y2="243.77264"
       gradientUnits="userSpaceOnUse" />
    <linearGradient
       inkscape:collect="always"
       xlink:href="#linearGradient2102"
       id="linearGradient2118"
       gradientUnits="userSpaceOnUse"
       gradientTransform="scale(0.943567,1.059808)"
       x1="202.28809"
       y1="104.67563"
       x2="573.30255"
       y2="243.77264" />
    <pattern
       patternUnits="userSpaceOnUse"
       width="13.500000"
       height="13.375000"
       patternTransform="translate(430.2187,155.7812)"
       id="pattern2881">
      <path
         style="fill:none;fill-opacity:1.0000000;fill-rule:nonzero;stroke:#000000;stroke-width:1.0000000;stroke-miterlimit:4.0000000;stroke-opacity:1.0000000"
         d="M 437.09375 156.28125 C 436.08309 156.28125 435.25001 157.16964 435.25000 158.25000 C 435.25000 159.33036 436.08311 160.18750 437.09375 160.18750 C 438.10441 160.18750 438.90626 159.33036 438.90625 158.25000 C 438.90625 157.16964 438.10442 156.28125 437.09375 156.28125 z M 432.53125 160.31250 C 431.52059 160.31250 430.71876 161.20090 430.71875 162.28125 C 430.71875 163.36161 431.52060 164.24999 432.53125 164.25000 C 433.54191 164.25000 434.37501 163.36161 434.37500 162.28125 C 434.37500 161.20089 433.54192 160.31250 432.53125 160.31250 z M 441.37500 160.68750 C 440.36434 160.68750 439.53126 161.57589 439.53125 162.65625 C 439.53125 163.73661 440.36435 164.62500 441.37500 164.62500 C 442.38566 164.62500 443.21876 163.73661 443.21875 162.65625 C 443.21875 161.57589 442.38567 160.68750 441.37500 160.68750 z M 437.21875 164.75000 C 436.20809 164.75000 435.37500 165.60715 435.37500 166.68750 C 435.37500 167.76786 436.20809 168.65626 437.21875 168.65625 C 438.22941 168.65625 439.03125 167.76786 439.03125 166.68750 C 439.03125 165.60714 438.22941 164.75000 437.21875 164.75000 z "
         id="path2883"
         transform="translate(-430.2187,-155.7812)" />
    </pattern>
    <pattern
       patternUnits="userSpaceOnUse"
       width="8.8125000"
       height="9.0625000"
       patternTransform="translate(486.4062,462.6250)"
       id="pattern3650">
      <path
         style="fill:#000000;fill-opacity:1.0000000;fill-rule:nonzero;stroke:#000000;stroke-width:1.0000000;stroke-miterlimit:4.0000000;stroke-opacity:1.0000000"
         d="M 488.65625 463.12500 C 487.68044 463.12500 486.90625 463.98214 486.90625 465.06250 C 486.90625 466.14286 487.68045 467.03124 488.65625 467.03125 C 489.63206 467.03125 490.43751 466.14286 490.43750 465.06250 C 490.43750 463.98214 489.63207 463.12501 488.65625 463.12500 z M 492.96875 467.28125 C 491.99294 467.28125 491.18750 468.16965 491.18750 469.25000 C 491.18750 470.33036 491.99295 471.18750 492.96875 471.18750 C 493.94456 471.18750 494.71876 470.33037 494.71875 469.25000 C 494.71875 468.16964 493.94456 467.28124 492.96875 467.28125 z "
         id="path3652"
         transform="translate(-486.4062,-462.6250)" />
    </pattern>
    <linearGradient
       inkscape:collect="always"
       xlink:href="#linearGradient3690"
       id="linearGradient3696"
       gradientTransform="scale(0.756577,1.321742)"
       x1="289.75656"
       y1="336.67502"
       x2="1204.6086"
       y2="410.98303"
       gradientUnits="userSpaceOnUse" />
  </defs>
  <sodipodi:namedview
     id="base"
     pagecolor="#ffffff"
     bordercolor="#666666"
     borderopacity="1.0"
     inkscape:pageopacity="0.0"
     inkscape:pageshadow="2"
     inkscape:zoom="0.49497475"
     inkscape:cx="584.73950"
     inkscape:cy="296.68483"
     inkscape:document-units="px"
     inkscape:current-layer="layer1"
     inkscape:window-width="1112"
     inkscape:window-height="924"
     inkscape:window-x="54"
     inkscape:window-y="32" />
  <metadata
     id="metadata4">
    <rdf:RDF
       id="RDF5">
      <cc:Work
         rdf:about=""
         id="Work6">
        <dc:format
           id="format7">image/svg+xml</dc:format>
        <dc:type
           id="type9"
           rdf:resource="http://purl.org/dc/dcmitype/StillImage" />
        <dc:date
           id="date2068">2005/07/11</dc:date>
        <dc:creator
           id="creator2070">
          <cc:Agent
             id="Agent2072">
            <dc:title
               id="title2074">Lyonel Vincent</dc:title>
          </cc:Agent>
        </dc:creator>
        <dc:publisher
           id="publisher2076">
          <cc:Agent
             id="Agent2078">
            <dc:title
               id="title2080">ezIX.org</dc:title>
          </cc:Agent>
        </dc:publisher>
        <dc:identifier
           id="identifier2082">powermac</dc:identifier>
        <dc:source
           id="source2084">$Id: powermacg5.svg 1822 2007-08-07 19:51:34Z lyonel $</dc:source>
        <dc:language
           id="language2086">C</dc:language>
        <dc:subject
           id="subject2088">
          <rdf:Bag
             id="Bag2090">
            <rdf:li
               id="li3688">powermac apple mac computer g5</rdf:li>
          </rdf:Bag>
        </dc:subject>
        <cc:license
           id="license2122"
           rdf:resource="http://creativecommons.org/licenses/GPL/2.0/" />
        <dc:title
           id="title2138">Apple PowerMac G5</dc:title>
      </cc:Work>
      <cc:License
         rdf:about="http://creativecommons.org/licenses/GPL/2.0/"
         id="License2124">
        <cc:permits
           rdf:resource="http://web.resource.org/cc/Reproduction"
           id="permits2126" />
        <cc:permits
           rdf:resource="http://web.resource.org/cc/Distribution"
           id="permits2128" />
        <cc:requires
           rdf:resource="http://web.resource.org/cc/Notice"
           id="requires2130" />
        <cc:permits
           rdf:resource="http://web.resource.org/cc/DerivativeWorks"
           id="permits2132" />
        <cc:requires
           rdf:resource="http://web.resource.org/cc/ShareAlike"
           id="requires2134" />
        <cc:requires
           rdf:resource="http://web.resource.org/cc/SourceCode"
           id="requires2136" />
      </cc:License>
    </rdf:RDF>
  </metadata>
  <g
     inkscape:label="Layer 1"
     inkscape:groupmode="layer"
     id="layer1">
    <path
       style="stroke-opacity:1.0000000;stroke-miterlimit:4.0000000;stroke-linejoin:miter;stroke-linecap:butt;stroke-width:4.7940731;stroke:#000000;fill-rule:evenodd;fill-opacity:1.0000000;fill:#ffffff"
       d="M 355.85066,8.3108016 C 349.53868,8.3020186 345.25954,8.4880786 343.71566,8.8800976 C 328.77587,10.944394 313.77632,21.426271 302.36678,32.101388 C 290.86563,42.862222 291.90293,58.041853 284.65868,68.925861 C 251.72801,86.682592 218.77152,104.44326 185.84085,122.19999 C 182.83729,120.58574 181.08161,119.07147 180.59733,116.32725 C 180.11306,113.58303 180.83593,109.27171 182.93444,105.72037 C 185.03297,102.16902 188.64839,99.091055 192.52259,95.862555 C 184.18222,99.413905 178.10232,103.77460 173.25641,108.86648 C 168.35259,114.01921 164.39209,122.74118 164.41734,128.97162 C 165.10208,297.93733 164.53718,460.53933 164.53719,629.71253 C 164.05767,634.89771 168.89307,642.12173 173.73582,646.64160 C 178.18828,650.79725 189.55594,657.07097 199.53392,658.95638 C 200.11305,659.16735 200.65374,659.41691 201.24181,659.61556 L 244.89784,658.65675 L 227.15977,650.05738 C 214.34124,650.13150 193.75842,650.55255 185.66107,649.63790 C 185.35639,649.33810 184.94710,649.11896 184.67230,648.79894 C 180.04768,643.41332 180.58145,640.26789 180.65726,638.76135 C 180.73297,637.25668 182.18847,633.36117 185.21163,628.72375 C 218.46514,646.15763 264.62176,665.87488 283.66990,680.08026 C 302.71803,694.28565 288.19360,702.67833 298.20193,713.00955 C 308.21027,723.34074 320.66920,730.51199 335.62567,739.16721 C 350.83791,747.97044 417.34850,739.36270 474.59385,736.44058 C 522.58723,733.99072 543.41070,734.20461 561.60628,724.81495 C 578.57648,716.05765 583.23281,690.95377 582.90994,679.33119 C 582.58709,469.47891 582.93315,265.77421 582.61031,55.921938 C 581.64175,38.407344 572.70077,27.583435 558.19050,22.303502 C 544.51566,17.327560 400.03451,8.3722836 355.85066,8.3108016 z M 326.30719,24.370946 L 362.62229,25.329760 L 520.01769,35.517165 C 539.59553,36.841981 550.16090,53.912470 547.37387,65.060640 L 544.94687,74.738674 L 319.26589,61.914529 C 319.18517,50.534081 319.52339,42.367986 320.73408,36.475980 C 321.94477,30.583973 324.53151,27.438018 326.30719,24.370946 z M 546.14539,674.98656 C 547.11394,677.08509 549.54827,690.73078 547.85328,695.33141 C 546.15833,699.93201 542.26893,705.99655 537.42617,709.14433 C 532.58343,712.29212 525.50321,715.09751 519.02892,715.43655 L 324.83900,725.59399 C 320.31910,718.32987 320.87284,715.91931 319.98500,709.62373 C 319.09717,703.32817 319.66702,695.07480 319.50560,687.81070 L 546.14539,674.98656 z "
       id="path1345" />
    <path
       style="stroke-opacity:1.0000000;stroke-miterlimit:4.0000000;stroke-linejoin:miter;stroke-linecap:butt;stroke-width:4.7940731;stroke:#000000;fill-rule:evenodd;fill-opacity:1.0;fill:url(#linearGradient3696)"
       d="M 355.85066,8.3108016 C 349.53868,8.3020186 345.25954,8.4880786 343.71566,8.8800976 C 328.77587,10.944394 313.77632,21.426271 302.36678,32.101388 C 290.86563,42.862222 291.90293,58.041853 284.65868,68.925861 C 251.72801,86.682592 218.77152,104.44326 185.84085,122.19999 C 182.83729,120.58574 181.08161,119.07147 180.59733,116.32725 C 180.11306,113.58303 180.83593,109.27171 182.93444,105.72037 C 185.03297,102.16902 188.64839,99.091055 192.52259,95.862555 C 184.18222,99.413905 178.10232,103.77460 173.25641,108.86648 C 168.35259,114.01921 164.39209,122.74118 164.41734,128.97162 C 165.10208,297.93733 164.53718,460.53933 164.53719,629.71253 C 164.05767,634.89771 168.89307,642.12173 173.73582,646.64160 C 178.18828,650.79725 189.55594,657.07097 199.53392,658.95638 C 200.11305,659.16735 200.65374,659.41691 201.24181,659.61556 L 244.89784,658.65675 L 227.15977,650.05738 C 214.34124,650.13150 193.75842,650.55255 185.66107,649.63790 C 185.35639,649.33810 184.94710,649.11896 184.67230,648.79894 C 180.04768,643.41332 180.58145,640.26789 180.65726,638.76135 C 180.73297,637.25668 182.18847,633.36117 185.21163,628.72375 C 218.46514,646.15763 264.62176,665.87488 283.66990,680.08026 C 302.71803,694.28565 288.19360,702.67833 298.20193,713.00955 C 308.21027,723.34074 320.66920,730.51199 335.62567,739.16721 C 350.83791,747.97044 417.34850,739.36270 474.59385,736.44058 C 522.58723,733.99072 543.41070,734.20461 561.60628,724.81495 C 578.57648,716.05765 583.23281,690.95377 582.90994,679.33119 C 582.58709,469.47891 582.93315,265.77421 582.61031,55.921938 C 581.64175,38.407344 572.70077,27.583435 558.19050,22.303502 C 544.51566,17.327560 400.03451,8.3722836 355.85066,8.3108016 z M 326.30719,24.370946 L 362.62229,25.329760 L 520.01769,35.517165 C 539.59553,36.841981 550.16090,53.912470 547.37387,65.060640 L 544.94687,74.738674 L 319.26589,61.914529 C 319.18517,50.534081 319.52339,42.367986 320.73408,36.475980 C 321.94477,30.583973 324.53151,27.438018 326.30719,24.370946 z M 546.14539,674.98656 C 547.11394,677.08509 549.54827,690.73078 547.85328,695.33141 C 546.15833,699.93201 542.26893,705.99655 537.42617,709.14433 C 532.58343,712.29212 525.50321,715.09751 519.02892,715.43655 L 324.83900,725.59399 C 320.31910,718.32987 320.87284,715.91931 319.98500,709.62373 C 319.09717,703.32817 319.66702,695.07480 319.50560,687.81070 L 546.14539,674.98656 z "
       id="path2235" />
    <path
       sodipodi:nodetypes="ccccccc"
       id="path1457"
       d="M 319.53983,62.107152 C 320.45299,270.30688 318.94478,478.99090 319.85794,687.19063 C 400.67231,682.62485 483.90806,677.57478 564.72242,673.00900 C 575.55608,671.23808 578.03921,669.08219 579.78950,664.79059 C 585.96721,475.09178 579.78950,280.35160 579.78950,88.132119 C 578.42690,77.485208 571.73726,76.523787 563.35269,75.804503 C 481.11319,69.785895 400.81079,66.672936 319.53983,62.107152 z "
       style="fill:#a4a4a4;fill-opacity:1.0000000;fill-rule:nonzero;stroke:#000000;stroke-width:4.7940731;stroke-linecap:butt;stroke-linejoin:miter;stroke-miterlimit:4.0000000;stroke-opacity:1.0000000" />
    <g
       transform="matrix(0.807988,0.000000,0.000000,0.958815,52.03108,5.518315)"
       style="fill:#646464;fill-opacity:1.0000000"
       id="g12146">
      <path
         sodipodi:nodetypes="ccczzzcc"
         id="path8320"
         d="M 220.21326,344.42375 C 233.76614,321.94786 240.50049,342.23509 241.17392,348.46436 C 234.52375,352.67332 229.47298,390.80659 242.43661,405.53798 C 241.51064,419.51176 234.86048,442.15601 230.31478,444.17632 C 225.67058,446.24041 224.50641,436.60017 219.20310,436.85271 C 213.89979,437.10525 214.97854,447.24786 210.61680,443.67124 C 206.40783,440.21988 189.23525,400.31886 205.06097,344.92883 C 207.75471,338.53120 213.73145,333.81714 220.21326,344.42375 z "
         style="fill-rule:evenodd;stroke:#000000;stroke-width:1.0000000;stroke-linecap:butt;stroke-linejoin:miter;stroke-miterlimit:4.0000000;stroke-opacity:1.0000000" />
      <path
         sodipodi:nodetypes="czzzz"
         id="path9080"
         d="M 219.20311,333.05954 C 219.20311,333.05954 219.32937,310.83617 225.01148,301.74480 C 230.69359,292.65343 231.54334,295.05645 231.32493,298.08300 L 230.44105,310.33110 C 229.24395,326.91956 219.20311,333.05954 219.20311,333.05954 z "
         style="fill-rule:evenodd;stroke:#000000;stroke-width:1.0000000;stroke-linecap:butt;stroke-linejoin:miter;stroke-miterlimit:4.0000000;stroke-opacity:1.0000000" />
    </g>
    <path
       style="fill:#c2c2c2;fill-opacity:1.0000000;fill-rule:evenodd;stroke:#000000;stroke-width:4.7940731;stroke-linecap:butt;stroke-linejoin:miter;stroke-miterlimit:4.0000000;stroke-opacity:1.0000000"
       d="M 184.07434,103.76300 L 190.73607,97.059725 C 193.29316,94.486685 200.59761,91.950715 206.31533,91.757045 L 241.00143,92.383165 L 220.91891,103.19920 L 192.97761,101.70839 C 189.88879,101.90899 188.13172,102.47278 184.07434,103.76300 z "
       id="path1341"
       sodipodi:nodetypes="czccccc" />
    <path
       style="fill:#c2c2c2;fill-opacity:1.0000000;fill-rule:evenodd;stroke:#000000;stroke-width:1.1985183;stroke-linecap:butt;stroke-linejoin:miter;stroke-miterlimit:4.0000000;stroke-opacity:1.0000000"
       d="M 343.24364,111.53773 L 554.38732,123.16032 L 555.35587,154.15389 L 343.24364,144.46839 L 343.24364,111.53773 z "
       id="path1344" />
    <path
       style="fill:#c2c2c2;fill-opacity:1.0000000;fill-rule:evenodd;stroke:#000000;stroke-width:1.1985183;stroke-linecap:butt;stroke-linejoin:miter;stroke-miterlimit:4.0000000;stroke-opacity:1.0000000"
       d="M 339.36944,424.37905 L 365.03600,423.89478 L 365.03600,557.07027 L 339.36944,557.07027 L 339.36944,424.37905 z "
       id="path1346" />
    <path
       style="fill:none;fill-opacity:0.75000000;fill-rule:evenodd;stroke:#000000;stroke-width:4.7940731;stroke-linecap:butt;stroke-linejoin:miter;stroke-miterlimit:4.0000000;stroke-opacity:1.0000000"
       d="M 326.15219,24.368327 C 335.63738,12.227049 344.66263,9.8205076 365.16358,8.5291086"
       id="path3658"
       sodipodi:nodetypes="cc" />
    <path
       style="fill:none;fill-opacity:0.75000000;fill-rule:evenodd;stroke:#000000;stroke-width:4.7940731;stroke-linecap:butt;stroke-linejoin:miter;stroke-miterlimit:4.0000000;stroke-opacity:1.0000000"
       d="M 324.67635,725.74381 C 329.12799,730.88031 334.56219,735.42121 339.01703,737.61149 C 343.37173,739.75254 351.93969,742.85877 363.35416,742.63049"
       id="path3665"
       sodipodi:nodetypes="czc" />
    <path
       style="fill:none;fill-opacity:0.75000000;fill-rule:evenodd;stroke:#000000;stroke-width:4.7940731;stroke-linecap:butt;stroke-linejoin:miter;stroke-miterlimit:4.0000000;stroke-opacity:1.0000000"
       d="M 185.47702,649.72351 C 190.27109,654.17515 195.23638,656.91462 201.40019,659.48287"
       id="path3682"
       sodipodi:nodetypes="cc" />
    <g
       transform="matrix(0.958815,0.000000,0.000000,0.958815,-125.3263,159.6169)"
       style="fill:#cacaca;fill-opacity:1.0000000"
       id="g12127">
      <path
         transform="matrix(0.984572,-0.174978,0.174978,0.984572,-45.04825,92.45328)"
         d="M 507.85713 297.14285 A 8.5714283 10.714286 0 1 1  490.71428,297.14285 A 8.5714283 10.714286 0 1 1  507.85713 297.14285 z"
         sodipodi:ry="10.714286"
         sodipodi:rx="8.5714283"
         sodipodi:cy="297.14285"
         sodipodi:cx="499.28571"
         id="path9086"
         style="fill-rule:evenodd;stroke:#000000;stroke-width:1.0000000;stroke-linecap:butt;stroke-linejoin:miter;stroke-miterlimit:4.0000000;stroke-opacity:1.0000000"
         sodipodi:type="arc" />
      <path
         sodipodi:open="true"
         sodipodi:end="10.358529"
         sodipodi:start="5.2115531"
         transform="matrix(0.883993,0.000000,0.000000,1.000000,57.06429,-0.505076)"
         d="M 501.81732,293.07879 A 4.7982244,5.5558391 0 1 1 496.66635,293.49063"
         sodipodi:ry="5.5558391"
         sodipodi:rx="4.7982244"
         sodipodi:cy="297.95673"
         sodipodi:cx="499.52045"
         id="path9849"
         style="fill-rule:evenodd;stroke:#000000;stroke-width:1.5953898;stroke-linecap:round;stroke-linejoin:miter;stroke-miterlimit:4.0000000;stroke-opacity:1.0000000"
         sodipodi:type="arc" />
      <path
         id="path9851"
         d="M 498.51028,291.26850 L 498.51028,298.58395"
         style="fill-rule:evenodd;stroke:#000000;stroke-width:1.5000000;stroke-linecap:round;stroke-linejoin:miter;stroke-miterlimit:4.0000000;stroke-opacity:1.0000000" />
    </g>
  </g>
</svg>
