<?xml version="1.0" encoding="UTF-8" standalone="no"?>
<!-- Created with Inkscape (http://www.inkscape.org/) -->
<svg
   xmlns:dc="http://purl.org/dc/elements/1.1/"
   xmlns:cc="http://web.resource.org/cc/"
   xmlns:rdf="http://www.w3.org/1999/02/22-rdf-syntax-ns#"
   xmlns:svg="http://www.w3.org/2000/svg"
   xmlns="http://www.w3.org/2000/svg"
   xmlns:xlink="http://www.w3.org/1999/xlink"
   xmlns:sodipodi="http://inkscape.sourceforge.net/DTD/sodipodi-0.dtd"
   xmlns:inkscape="http://www.inkscape.org/namespaces/inkscape"
   sodipodi:docname="powermac.svg"
   sodipodi:docbase="/home/support/Source/ezix/packages/lshw/development/src/gui/artwork"
   inkscape:version="0.41"
   sodipodi:version="0.32"
   id="svg2"
   height="600.00000pt"
   width="600.00000pt">
  <defs
     id="defs3">
    <linearGradient
       id="linearGradient2102"
       inkscape:collect="always">
      <stop
         id="stop2104"
         offset="0"
         style="stop-color:#726d7f;stop-opacity:1;" />
      <stop
         id="stop2106"
         offset="1"
         style="stop-color:#726d7f;stop-opacity:0;" />
    </linearGradient>
    <linearGradient
       id="linearGradient2838">
      <stop
         style="stop-color:#000000;stop-opacity:1.0000000;"
         offset="0.0000000"
         id="stop2840" />
      <stop
         style="stop-color:#000000;stop-opacity:0.0000000;"
         offset="1.0000000"
         id="stop2842" />
    </linearGradient>
    <linearGradient
       inkscape:collect="always"
       xlink:href="#linearGradient2838"
       id="linearGradient2844"
       gradientTransform="scale(1.235013,0.809708)"
       x1="117.34206"
       y1="188.58949"
       x2="422.29895"
       y2="336.16794"
       gradientUnits="userSpaceOnUse" />
    <linearGradient
       gradientUnits="userSpaceOnUse"
       y2="243.77264"
       x2="573.30255"
       y1="104.67563"
       x1="202.28809"
       gradientTransform="scale(0.943567,1.059808)"
       id="linearGradient2112"
       xlink:href="#linearGradient2102"
       inkscape:collect="always" />
    <linearGradient
       y2="243.77264"
       x2="573.30255"
       y1="104.67563"
       x1="202.28809"
       gradientTransform="scale(0.943567,1.059808)"
       gradientUnits="userSpaceOnUse"
       id="linearGradient2118"
       xlink:href="#linearGradient2102"
       inkscape:collect="always" />
  </defs>
  <sodipodi:namedview
     inkscape:window-y="32"
     inkscape:window-x="54"
     inkscape:window-height="664"
     inkscape:window-width="853"
     inkscape:current-layer="layer1"
     inkscape:document-units="px"
     inkscape:cy="387.43616"
     inkscape:cx="489.43259"
     inkscape:zoom="0.49497475"
     inkscape:pageshadow="2"
     inkscape:pageopacity="0.0"
     borderopacity="1.0"
     bordercolor="#666666"
     pagecolor="#ffffff"
     id="base" />
  <metadata
     id="metadata4">
    <rdf:RDF
       id="RDF5">
      <cc:Work
         id="Work6"
         rdf:about="">
        <dc:format
           id="format7">image/svg+xml</dc:format>
        <dc:type
           rdf:resource="http://purl.org/dc/dcmitype/StillImage"
           id="type9" />
        <dc:date
           id="date2068">2005/07/10</dc:date>
        <dc:creator
           id="creator2070">
          <cc:Agent
             id="Agent2072">
            <dc:title
               id="title2074">Lyonel Vincent</dc:title>
          </cc:Agent>
        </dc:creator>
        <dc:publisher
           id="publisher2076">
          <cc:Agent
             id="Agent2078">
            <dc:title
               id="title2080">ezIX.org</dc:title>
          </cc:Agent>
        </dc:publisher>
        <dc:identifier
           id="identifier2082">powermac</dc:identifier>
        <dc:source
           id="source2084">$Id: powermac.svg 1822 2007-08-07 19:51:34Z lyonel $</dc:source>
        <dc:language
           id="language2086">C</dc:language>
        <dc:subject
           id="subject2088">
          <rdf:Bag
             id="Bag2090">
            <rdf:li
               id="li1338">powermac apple mac computer g4</rdf:li>
          </rdf:Bag>
        </dc:subject>
        <cc:license
           rdf:resource="http://creativecommons.org/licenses/GPL/2.0/"
           id="license2122" />
        <dc:title
           id="title2138">Apple PowerMac</dc:title>
      </cc:Work>
      <cc:License
         id="License2124"
         rdf:about="http://creativecommons.org/licenses/GPL/2.0/">
        <cc:permits
           id="permits2126"
           rdf:resource="http://web.resource.org/cc/Reproduction" />
        <cc:permits
           id="permits2128"
           rdf:resource="http://web.resource.org/cc/Distribution" />
        <cc:requires
           id="requires2130"
           rdf:resource="http://web.resource.org/cc/Notice" />
        <cc:permits
           id="permits2132"
           rdf:resource="http://web.resource.org/cc/DerivativeWorks" />
        <cc:requires
           id="requires2134"
           rdf:resource="http://web.resource.org/cc/ShareAlike" />
        <cc:requires
           id="requires2136"
           rdf:resource="http://web.resource.org/cc/SourceCode" />
      </cc:License>
    </rdf:RDF>
  </metadata>
  <g
     id="layer1"
     inkscape:groupmode="layer"
     inkscape:label="Layer 1">
    <path
       style="stroke-miterlimit:4.0000000;stroke-dasharray:none;stroke-opacity:1.0000000;stroke-linejoin:miter;stroke-linecap:butt;stroke-width:5.0000000;stroke:#000000;fill-rule:evenodd;fill-opacity:1.0000000;fill:#c2c2c2"
       d="M 471.43750 10.437500 C 460.60417 10.407738 449.76191 11.177083 440.00000 12.843750 C 420.47619 16.177083 407.62351 19.986607 385.71875 32.843750 C 363.81399 45.700893 333.32440 73.809524 308.56250 90.000000 C 283.80060 106.19048 259.29912 118.80952 237.15625 130.00000 C 215.01339 141.19048 205.02722 142.80803 188.84375 152.09375 C 175.58489 159.70139 154.05655 177.37202 151.43750 238.56250 C 148.81845 299.75297 146.90372 477.33884 150.59375 548.81250 C 154.28072 620.22705 169.42482 623.92634 176.71875 629.43750 C 184.63952 635.42230 240.21599 625.74232 292.84375 650.00000 C 345.86207 674.43770 355.94792 694.51044 374.28125 702.84375 C 392.61458 711.17708 401.67113 712.12948 425.71875 712.84375 C 449.76637 713.55804 493.56252 710.48956 518.56250 707.15625 C 543.56250 703.82292 562.86161 699.03425 575.71875 692.84375 C 588.57589 686.65327 618.31743 652.81704 618.56250 617.90625 C 618.80775 582.97376 621.61781 214.21414 621.43750 151.43750 C 621.25717 87.650704 570.72766 38.580356 557.15625 31.437500 C 543.58482 24.294643 522.36755 15.938988 502.84375 12.843750 C 493.08185 11.296131 482.27083 10.467262 471.43750 10.437500 z M 500.00000 60.562500 C 509.55310 60.747461 519.23770 61.586570 527.15625 62.156250 C 543.06033 63.300430 565.83631 69.230655 568.81250 76.968750 C 571.70657 84.493293 570.12202 86.572917 563.81250 89.906250 C 557.50299 93.239581 544.68453 96.056548 530.87500 95.937500 C 517.06547 95.818455 503.44809 95.295255 481.96875 91.218750 C 460.97673 87.234734 447.14285 85.242559 445.00000 80.718750 C 442.85715 76.194939 458.01542 67.072558 473.56250 62.843750 C 481.00297 60.819940 490.44690 60.377539 500.00000 60.562500 z M 531.53125 651.75000 C 536.89768 651.87627 541.95432 652.27364 546.50000 653.03125 C 555.59135 654.54651 568.04532 659.26290 568.71875 662.12500 C 569.39218 664.98707 559.79098 667.83048 550.53125 670.18750 C 541.27152 672.54453 525.78316 674.08164 513.15625 674.25000 C 500.52936 674.41838 486.73472 673.91249 474.78125 671.21875 C 462.82778 668.52498 441.10078 662.61913 441.43750 660.09375 C 441.77423 657.56835 463.65942 655.20976 475.78125 654.03125 C 487.90307 652.85272 503.07074 652.50508 514.68750 652.00000 C 520.49588 651.74747 526.16482 651.62373 531.53125 651.75000 z "
       id="path7558" />
    <path
       style="stroke-dasharray:none;stroke-opacity:1.0000000;stroke-miterlimit:4.0000000;stroke-linejoin:miter;stroke-linecap:butt;stroke-width:1.0000000;stroke:#000000;fill-rule:evenodd;fill-opacity:1.0000000;fill:#646464"
       d="M 502.34375 54.031250 C 467.48355 54.572220 430.81086 66.533304 403.56250 95.000000 C 359.60699 140.92086 366.79292 243.10275 367.15625 276.43750 L 370.00000 538.56250 C 370.28732 564.92402 380.70089 592.85268 392.84375 614.28125 C 404.98660 635.70982 422.36755 656.44197 442.84375 667.15625 C 463.31994 677.87051 520.55535 689.91185 570.71875 667.84375 C 621.74277 645.39707 611.72639 611.66005 611.96875 569.28125 L 614.28125 164.28125 C 614.42658 138.86898 607.14733 82.614583 560.71875 64.281250 C 543.53951 57.497656 523.25987 53.706668 502.34375 54.031250 z M 500.00000 60.562500 C 509.55310 60.747461 519.23770 61.586570 527.15625 62.156250 C 543.06033 63.300430 565.83631 69.230655 568.81250 76.968750 C 571.70657 84.493293 570.12202 86.572917 563.81250 89.906250 C 557.50299 93.239581 544.68453 96.056548 530.87500 95.937500 C 517.06547 95.818455 503.44809 95.295255 481.96875 91.218750 C 460.97673 87.234734 447.14285 85.242559 445.00000 80.718750 C 442.85715 76.194939 458.01542 67.072558 473.56250 62.843750 C 481.00297 60.819940 490.44690 60.377539 500.00000 60.562500 z M 531.53125 651.75000 C 536.89768 651.87627 541.95432 652.27364 546.50000 653.03125 C 555.59135 654.54651 568.04532 659.26290 568.71875 662.12500 C 569.39218 664.98707 559.79098 667.83048 550.53125 670.18750 C 541.27152 672.54453 525.78316 674.08164 513.15625 674.25000 C 500.52936 674.41838 486.73472 673.91249 474.78125 671.21875 C 462.82778 668.52498 441.10078 662.61913 441.43750 660.09375 C 441.77423 657.56835 463.65942 655.20976 475.78125 654.03125 C 487.90307 652.85272 503.07074 652.50508 514.68750 652.00000 C 520.49588 651.74747 526.16482 651.62373 531.53125 651.75000 z "
       id="path1485" />
    <g
       id="g12146"
       style="fill:#646464;fill-opacity:1.0000000">
      <path
         style="stroke-miterlimit:4.0000000;stroke-dasharray:none;stroke-opacity:1.0000000;stroke-linejoin:miter;stroke-linecap:butt;stroke-width:1.0000000;stroke:#000000;fill-rule:evenodd;fill-opacity:1.0000000;fill:#646464"
         d="M 220.21326,344.42375 C 233.76614,321.94786 240.50049,342.23509 241.17392,348.46436 C 234.52375,352.67332 229.47298,390.80659 242.43661,405.53798 C 241.51064,419.51176 234.86048,442.15601 230.31478,444.17632 C 225.67058,446.24041 224.50641,436.60017 219.20310,436.85271 C 213.89979,437.10525 214.97854,447.24786 210.61680,443.67124 C 206.40783,440.21988 189.23525,400.31886 205.06097,344.92883 C 207.75471,338.53120 213.73145,333.81714 220.21326,344.42375 z "
         id="path8320"
         sodipodi:nodetypes="ccczzzcc" />
      <path
         style="stroke-miterlimit:4.0000000;stroke-dasharray:none;stroke-opacity:1.0000000;stroke-linejoin:miter;stroke-linecap:butt;stroke-width:1.0000000;stroke:#000000;fill-rule:evenodd;fill-opacity:1.0000000;fill:#646464"
         d="M 219.20311,333.05954 C 219.20311,333.05954 219.32937,310.83617 225.01148,301.74480 C 230.69359,292.65343 231.54334,295.05645 231.32493,298.08300 L 230.44105,310.33110 C 229.24395,326.91956 219.20311,333.05954 219.20311,333.05954 z "
         id="path9080"
         sodipodi:nodetypes="czzzz" />
    </g>
    <g
       id="g12127"
       style="fill-opacity:1.0000000;fill:#cacaca">
      <path
         sodipodi:type="arc"
         style="stroke-opacity:1.0000000;stroke-miterlimit:4.0000000;stroke-linejoin:miter;stroke-linecap:butt;stroke-width:1.0000000;stroke:#000000;fill-rule:evenodd;fill-opacity:1.0000000;fill:#cacaca"
         id="path9086"
         sodipodi:cx="499.28571"
         sodipodi:cy="297.14285"
         sodipodi:rx="8.5714283"
         sodipodi:ry="10.714286"
         d="M 507.85713 297.14285 A 8.5714283 10.714286 0 1 1  490.71428,297.14285 A 8.5714283 10.714286 0 1 1  507.85713 297.14285 z"
         transform="matrix(0.984572,-0.174978,0.174978,0.984572,-45.04825,92.45328)" />
      <path
         sodipodi:type="arc"
         style="stroke-miterlimit:4.0000000;stroke-dasharray:none;stroke-opacity:1.0000000;stroke-linejoin:miter;stroke-linecap:round;stroke-width:1.5953899;stroke:#000000;fill-rule:evenodd;fill-opacity:1.0000000;fill:#cacaca"
         id="path9849"
         sodipodi:cx="499.52045"
         sodipodi:cy="297.95673"
         sodipodi:rx="4.7982244"
         sodipodi:ry="5.5558391"
         d="M 501.81732,293.07879 A 4.7982244,5.5558391 0 1 1 496.66635,293.49063"
         transform="matrix(0.883993,0.000000,0.000000,1.000000,57.06429,-0.505076)"
         sodipodi:start="5.2115531"
         sodipodi:end="10.358529"
         sodipodi:open="true" />
      <path
         style="fill:#cacaca;fill-opacity:1.0000000;fill-rule:evenodd;stroke:#000000;stroke-width:1.5000000;stroke-linecap:round;stroke-linejoin:miter;stroke-miterlimit:4.0000000;stroke-opacity:1.0000000;stroke-dasharray:none"
         d="M 498.51028,291.26850 L 498.51028,298.58395"
         id="path9851" />
    </g>
    <g
       id="g12947"
       style="fill-opacity:1.0000000;fill:#bbbbbb">
      <path
         sodipodi:type="arc"
         style="stroke-opacity:1.0000000;stroke-miterlimit:4.0000000;stroke-linejoin:miter;stroke-linecap:butt;stroke-width:1.0000000;stroke:#000000;fill-rule:evenodd;fill-opacity:1.0000000;fill:#bbbbbb"
         id="path9083"
         sodipodi:cx="486.89352"
         sodipodi:cy="182.29427"
         sodipodi:rx="24.243662"
         sodipodi:ry="30.304577"
         d="M 511.13719 182.29427 A 24.243662 30.304577 0 1 1  462.64986,182.29427 A 24.243662 30.304577 0 1 1  511.13719 182.29427 z"
         transform="matrix(0.993043,-0.117754,0.117754,0.993043,-6.461751,59.10717)" />
      <path
         sodipodi:type="arc"
         style="stroke-opacity:1.0000000;stroke-miterlimit:4.0000000;stroke-linejoin:miter;stroke-linecap:butt;stroke-width:1.1722323;stroke:#000000;fill-rule:evenodd;fill-opacity:1.0000000;fill:#bbbbbb"
         id="path12140"
         sodipodi:cx="486.89352"
         sodipodi:cy="182.29427"
         sodipodi:rx="24.243662"
         sodipodi:ry="30.304577"
         d="M 511.13719 182.29427 A 24.243662 30.304577 0 1 1  462.64986,182.29427 A 24.243662 30.304577 0 1 1  511.13719 182.29427 z"
         transform="matrix(0.811324,-0.104887,9.620596e-2,0.884534,84.42886,72.87552)" />
      <path
         sodipodi:type="arc"
         style="stroke-opacity:1.0000000;stroke-miterlimit:4.0000000;stroke-linejoin:miter;stroke-linecap:butt;stroke-width:1.6135577;stroke:#000000;fill-rule:evenodd;fill-opacity:1.0000000;fill:#bbbbbb"
         id="path12143"
         sodipodi:cx="486.89352"
         sodipodi:cy="182.29427"
         sodipodi:rx="24.243662"
         sodipodi:ry="30.304577"
         d="M 511.13719 182.29427 A 24.243662 30.304577 0 1 1  462.64986,182.29427 A 24.243662 30.304577 0 1 1  511.13719 182.29427 z"
         transform="matrix(0.610055,-7.362157e-2,7.233973e-2,0.620866,182.9879,107.1066)" />
    </g>
  </g>
</svg>
