<?xml version="1.0" encoding="UTF-8" standalone="no"?>
<!-- Created with Inkscape (http://www.inkscape.org/) -->
<svg
   xmlns:dc="http://purl.org/dc/elements/1.1/"
   xmlns:cc="http://web.resource.org/cc/"
   xmlns:rdf="http://www.w3.org/1999/02/22-rdf-syntax-ns#"
   xmlns:svg="http://www.w3.org/2000/svg"
   xmlns="http://www.w3.org/2000/svg"
   xmlns:sodipodi="http://inkscape.sourceforge.net/DTD/sodipodi-0.dtd"
   xmlns:inkscape="http://www.inkscape.org/namespaces/inkscape"
   width="600.00000pt"
   height="600.00000pt"
   id="svg2"
   sodipodi:version="0.32"
   inkscape:version="0.41"
   sodipodi:docbase="/home/support/Source/ezix-workspace/packages/lshw/development/src/gui/artwork"
   sodipodi:docname="printer.svg">
  <defs
     id="defs3" />
  <sodipodi:namedview
     id="base"
     pagecolor="#ffffff"
     bordercolor="#666666"
     borderopacity="1.0"
     inkscape:pageopacity="0.0"
     inkscape:pageshadow="2"
     inkscape:zoom="0.70000000"
     inkscape:cx="483.81026"
     inkscape:cy="436.53059"
     inkscape:document-units="px"
     inkscape:current-layer="layer1"
     inkscape:window-width="999"
     inkscape:window-height="678"
     inkscape:window-x="1"
     inkscape:window-y="26" />
  <metadata
     id="metadata4">
    <rdf:RDF
       id="RDF5">
      <cc:Work
         rdf:about=""
         id="Work6">
        <dc:format
           id="format7">image/svg+xml</dc:format>
        <dc:type
           id="type9"
           rdf:resource="http://purl.org/dc/dcmitype/StillImage" />
        <dc:title
           id="title2085">Printer symbol</dc:title>
        <dc:date
           id="date2087">2005/03/28</dc:date>
        <dc:creator
           id="creator2089">
          <cc:Agent
             id="Agent2091">
            <dc:title
               id="title2093">Lyonel Vincent</dc:title>
          </cc:Agent>
        </dc:creator>
        <dc:publisher
           id="publisher2095">
          <cc:Agent
             id="Agent2097">
            <dc:title
               id="title2099">ezIX.org</dc:title>
          </cc:Agent>
        </dc:publisher>
        <dc:identifier
           id="identifier2101">printer</dc:identifier>
        <dc:source
           id="source2103">$Id: printer.svg 1822 2007-08-07 19:51:34Z lyonel $</dc:source>
        <dc:language
           id="language2105">C</dc:language>
        <dc:subject
           id="subject2107">
          <rdf:Bag
             id="Bag2109">
            <rdf:li
               id="li2123">printer</rdf:li>
          </rdf:Bag>
        </dc:subject>
        <cc:license
           id="license2125"
           rdf:resource="http://creativecommons.org/licenses/GPL/2.0/" />
      </cc:Work>
      <cc:License
         rdf:about="http://creativecommons.org/licenses/GPL/2.0/"
         id="License2127">
        <cc:permits
           rdf:resource="http://web.resource.org/cc/Reproduction"
           id="permits2129" />
        <cc:permits
           rdf:resource="http://web.resource.org/cc/Distribution"
           id="permits2131" />
        <cc:requires
           rdf:resource="http://web.resource.org/cc/Notice"
           id="requires2133" />
        <cc:permits
           rdf:resource="http://web.resource.org/cc/DerivativeWorks"
           id="permits2135" />
        <cc:requires
           rdf:resource="http://web.resource.org/cc/ShareAlike"
           id="requires2137" />
        <cc:requires
           rdf:resource="http://web.resource.org/cc/SourceCode"
           id="requires2139" />
      </cc:License>
    </rdf:RDF>
  </metadata>
  <g
     inkscape:label="Layer 1"
     inkscape:groupmode="layer"
     id="layer1">
    <path
       style="fill:#c2c2c2;fill-opacity:1.0000000;fill-rule:evenodd;stroke:#000000;stroke-width:5.0000000;stroke-linecap:round;stroke-linejoin:round;stroke-miterlimit:4.0000000;stroke-opacity:1.0000000"
       d="M 491.25000,67.125000 L 159.71875,75.218750 L 184.15625,264.31250 L 70.000000,272.15625 L 64.281250,293.56250 C 64.257881,293.53508 64.178793,293.43275 64.156250,293.40625 L 54.562500,297.43750 L 53.531250,320.68750 L 68.687500,451.00000 C 69.366702,456.84117 71.034513,463.64275 75.750000,467.15625 L 127.28125,505.53125 C 135.73815,511.83246 147.10774,515.75114 157.59375,514.62500 L 255.93750,504.06250 C 257.23110,502.03390 258.37409,499.96994 259.43750,497.87500 L 287.15625,514.28125 L 318.18750,510.37500 L 370.00000,536.43750 C 384.04527,543.50120 401.59578,540.08807 417.15625,537.84375 L 714.28125,495.00000 L 713.56250,488.56250 L 652.25000,468.31250 L 672.84375,465.71875 L 673.31250,449.50000 C 678.36274,447.73074 682.79434,442.57048 689.43750,423.21875 C 697.99824,398.28097 698.89462,401.63614 704.25000,369.18750 L 704.15625,369.18750 C 704.17106,368.96717 704.27235,368.78508 704.28125,368.56250 C 704.64588,359.44575 707.00897,356.31862 703.56250,343.93750 C 681.63679,271.17321 634.06244,233.41451 621.43750,234.28125 L 522.96875,241.03125 L 491.25000,67.125000 z M 88.843750,323.65625 C 89.466144,324.47312 90.006016,325.23571 90.625000,326.06250 C 90.021175,325.25705 89.451928,324.45365 88.843750,323.65625 z M 106.18750,349.50000 C 120.53855,373.51428 141.54423,413.66088 147.84375,425.00000 C 153.95079,435.99268 169.58453,439.91639 182.96875,439.65625 L 180.81250,439.87500 C 169.24134,441.04511 152.22490,433.54794 148.50000,426.75000 L 108.09375,353.00000 C 107.57643,351.89542 106.80392,350.66235 106.18750,349.50000 z M 271.31250,430.00000 L 270.37500,437.09375 L 270.71875,430.78125 L 206.09375,437.31250 L 271.31250,430.00000 z "
       id="path5241" />
    <path
       style="fill:#c2c2c2;fill-opacity:1.0000000;fill-rule:evenodd;stroke:#000000;stroke-width:1.0000000;stroke-linecap:round;stroke-linejoin:round;stroke-miterlimit:4.0000000;stroke-opacity:1.0000000"
       d="M 248.57143,491.42857 L 287.14286,514.28571 L 672.85714,465.71429 L 674.28571,414.28571 L 245.71429,458.57143 L 248.57143,491.42857 z "
       id="path4463" />
    <path
       style="fill:#c2c2c2;fill-opacity:1.0000000;fill-rule:evenodd;stroke:#000000;stroke-width:1.0000000;stroke-linecap:round;stroke-linejoin:round;stroke-miterlimit:4.0000000;stroke-opacity:1.0000000"
       d="M 613.16260,372.20295 L 704.25489,369.17249 C 698.89950,401.62113 697.98985,398.27787 689.42911,423.21565 C 680.86837,448.15343 676.01091,449.63928 668.72099,450.48977 L 608.11183,457.56084 C 616.04542,428.65825 612.09117,401.57442 613.16260,372.20295 z "
       id="path2934"
       sodipodi:nodetypes="cczzcc" />
    <path
       style="fill:#c2c2c2;fill-opacity:1.0000000;fill-rule:evenodd;stroke:#000000;stroke-width:1.0000000;stroke-linecap:round;stroke-linejoin:round;stroke-miterlimit:4.0000000;stroke-opacity:1.0000000"
       d="M 417.14286,537.85714 C 401.58238,540.10144 384.04527,543.49227 370.00000,536.42857 L 247.85714,475.00000 L 560.00000,437.85714 L 713.57143,488.57143 L 714.28572,495.00000 L 417.14286,537.85714 z "
       id="path3694"
       sodipodi:nodetypes="czccccz" />
    <path
       style="fill:#c2c2c2;fill-opacity:1.0000000;fill-rule:evenodd;stroke:#000000;stroke-width:1.0000000;stroke-linecap:round;stroke-linejoin:round;stroke-miterlimit:4.0000000;stroke-opacity:1.0000000"
       d="M 64.144686,293.41105 L 54.548237,297.45166 L 53.538085,320.68517 L 68.690373,450.99485 C 69.369578,456.83601 71.045954,463.64379 75.761441,467.15729 L 127.27922,505.54308 C 135.73612,511.84430 147.09779,515.76060 157.58380,514.63446 L 255.94368,504.07118 C 265.07838,489.74624 268.15217,474.41115 269.71073,448.97454 L 270.72088,430.79180 L 180.81731,439.88317 C 169.24615,441.05329 152.21732,433.54913 148.49242,426.75119 L 108.08632,353.01005 C 98.270750,332.05186 69.501227,299.70843 64.144686,293.41105 z "
       id="path2174"
       sodipodi:nodetypes="ccczzzzccczzcc" />
    <path
       style="fill:#c2c2c2;fill-opacity:1.0000000;fill-rule:evenodd;stroke:#000000;stroke-width:0.99999994;stroke-linecap:round;stroke-linejoin:round;stroke-miterlimit:4.0000000;stroke-opacity:1.0000000"
       d="M 185.03048,271.18770 L 159.72389,75.218100 L 491.24015,67.136880 L 529.20002,275.22831 L 185.03048,271.18770 z "
       id="path3698" />
    <path
       style="fill:#646464;fill-opacity:1.0000000;fill-rule:evenodd;stroke:#000000;stroke-width:1.0000000;stroke-linecap:round;stroke-linejoin:round;stroke-miterlimit:4.0000000;stroke-opacity:1.0000000"
       d="M 64.285714,293.57143 L 70.000000,272.14286 L 621.42857,234.28572 C 634.05353,233.41898 681.64572,271.16428 703.57143,343.92857 C 707.01788,356.30968 704.65035,359.45468 704.28572,368.57143 C 703.92024,377.70940 698.53598,385.00355 691.42857,385.71429 L 612.85714,393.57143 L 612.85714,387.14286 L 272.14286,423.57143 L 271.42857,430.00000 L 188.57143,439.28571 C 174.27830,440.88753 154.84195,437.57266 147.85714,425.00000 C 140.87233,412.42734 115.35714,363.33333 101.42857,341.42857 C 87.499999,319.52381 64.180481,293.96605 64.285714,293.57143 z "
       id="path1411"
       sodipodi:nodetypes="cczczzcccczzzc" />
    <path
       style="fill:#c2c2c2;fill-opacity:1.0000000;fill-rule:evenodd;stroke:#000000;stroke-width:1.0000000;stroke-linecap:round;stroke-linejoin:round;stroke-miterlimit:4.0000000;stroke-opacity:1.0000000"
       d="M 272.14286,423.57143 L 612.85714,386.42857 C 632.61904,388.09524 647.48528,392.82753 648.57143,406.42857 L 651.41370,442.02031 L 301.94852,490.00000 L 265.00000,477.85714 L 272.14286,423.57143 z "
       id="path3700"
       sodipodi:nodetypes="ccscccc" />
    <path
       style="fill:none;fill-opacity:0.75000000;fill-rule:evenodd;stroke:#000000;stroke-width:1.0000000;stroke-linecap:round;stroke-linejoin:round;stroke-miterlimit:4.0000000;stroke-opacity:1.0000000"
       d="M 274.76149,426.24611 C 286.88333,426.24611 299.70706,433.47811 301.60233,439.79651 C 303.69501,446.77301 306.15297,462.11148 304.26513,485.58514"
       id="path3702"
       sodipodi:nodetypes="czc" />
  </g>
</svg>
