<?xml version="1.0" encoding="UTF-8" standalone="no"?>
<!-- Created with Inkscape (http://www.inkscape.org/) -->
<svg
   xmlns:dc="http://purl.org/dc/elements/1.1/"
   xmlns:cc="http://web.resource.org/cc/"
   xmlns:rdf="http://www.w3.org/1999/02/22-rdf-syntax-ns#"
   xmlns:svg="http://www.w3.org/2000/svg"
   xmlns="http://www.w3.org/2000/svg"
   xmlns:xlink="http://www.w3.org/1999/xlink"
   xmlns:sodipodi="http://inkscape.sourceforge.net/DTD/sodipodi-0.dtd"
   xmlns:inkscape="http://www.inkscape.org/namespaces/inkscape"
   sodipodi:docname="tablet.svg"
   sodipodi:docbase="/home/support/Source/ezix-workspace/packages/lshw/development/src/gui/artwork"
   inkscape:version="0.41"
   sodipodi:version="0.32"
   id="svg2"
   height="600.00000pt"
   width="600.00000pt">
  <defs
     id="defs3">
    <linearGradient
       id="linearGradient2174">
      <stop
         id="stop2176"
         offset="0"
         style="stop-color:#000000;stop-opacity:1;" />
      <stop
         id="stop2178"
         offset="1.0000000"
         style="stop-color:#444444;stop-opacity:1.0000000;" />
    </linearGradient>
    <linearGradient
       id="linearGradient2282">
      <stop
         style="stop-color:#646464;stop-opacity:1;"
         offset="0"
         id="stop2284" />
      <stop
         style="stop-color:#090909;stop-opacity:0.0000000;"
         offset="1.0000000"
         id="stop2286" />
    </linearGradient>
    <linearGradient
       id="linearGradient2102"
       inkscape:collect="always">
      <stop
         id="stop2104"
         offset="0"
         style="stop-color:#726d7f;stop-opacity:1;" />
      <stop
         id="stop2106"
         offset="1"
         style="stop-color:#726d7f;stop-opacity:0;" />
    </linearGradient>
    <linearGradient
       id="linearGradient2838">
      <stop
         style="stop-color:#000000;stop-opacity:1.0000000;"
         offset="0.0000000"
         id="stop2840" />
      <stop
         style="stop-color:#000000;stop-opacity:0.0000000;"
         offset="1.0000000"
         id="stop2842" />
    </linearGradient>
    <linearGradient
       inkscape:collect="always"
       xlink:href="#linearGradient2838"
       id="linearGradient2844"
       gradientTransform="scale(1.235013,0.809708)"
       x1="117.34206"
       y1="188.58949"
       x2="422.29895"
       y2="336.16794"
       gradientUnits="userSpaceOnUse" />
    <linearGradient
       gradientUnits="userSpaceOnUse"
       y2="243.77264"
       x2="573.30255"
       y1="104.67563"
       x1="202.28809"
       gradientTransform="scale(0.943567,1.059808)"
       id="linearGradient2112"
       xlink:href="#linearGradient2102"
       inkscape:collect="always" />
    <linearGradient
       y2="243.77264"
       x2="573.30255"
       y1="104.67563"
       x1="202.28809"
       gradientTransform="scale(0.943567,1.059808)"
       gradientUnits="userSpaceOnUse"
       id="linearGradient2118"
       xlink:href="#linearGradient2102"
       inkscape:collect="always" />
    <linearGradient
       inkscape:collect="always"
       xlink:href="#linearGradient2282"
       id="linearGradient1342"
       gradientUnits="userSpaceOnUse"
       gradientTransform="matrix(1.757588,0.000000,0.000000,0.943160,-91.12832,-220.9652)"
       spreadMethod="reflect"
       x1="64.752121"
       y1="633.58173"
       x2="468.77469"
       y2="633.58173" />
    <linearGradient
       gradientUnits="userSpaceOnUse"
       y2="287.62585"
       x2="498.42955"
       y1="287.62585"
       x1="108.95319"
       gradientTransform="scale(1.140726,0.876635)"
       id="linearGradient2180"
       xlink:href="#linearGradient2174"
       inkscape:collect="always" />
    <linearGradient
       y2="287.62592"
       x2="498.42963"
       y1="141.57222"
       x1="131.67264"
       gradientTransform="scale(1.140726,0.876635)"
       gradientUnits="userSpaceOnUse"
       id="linearGradient2983"
       xlink:href="#linearGradient2174"
       inkscape:collect="always" />
  </defs>
  <sodipodi:namedview
     inkscape:window-y="31"
     inkscape:window-x="54"
     inkscape:window-height="712"
     inkscape:window-width="853"
     inkscape:current-layer="layer1"
     inkscape:document-units="px"
     inkscape:cy="607.38665"
     inkscape:cx="632.15506"
     inkscape:zoom="0.087500000"
     inkscape:pageshadow="2"
     inkscape:pageopacity="0.0"
     borderopacity="1.0"
     bordercolor="#666666"
     pagecolor="#ffffff"
     id="base" />
  <metadata
     id="metadata4">
    <rdf:RDF
       id="RDF5">
      <cc:Work
         id="Work6"
         rdf:about="">
        <dc:format
           id="format7">image/svg+xml</dc:format>
        <dc:type
           rdf:resource="http://purl.org/dc/dcmitype/StillImage"
           id="type9" />
        <dc:date
           id="date2068">2005/07/12</dc:date>
        <dc:creator
           id="creator2070">
          <cc:Agent
             id="Agent2072">
            <dc:title
               id="title2074">Lyonel Vincent</dc:title>
          </cc:Agent>
        </dc:creator>
        <dc:publisher
           id="publisher2076">
          <cc:Agent
             id="Agent2078">
            <dc:title
               id="title2080">ezIX.org</dc:title>
          </cc:Agent>
        </dc:publisher>
        <dc:identifier
           id="identifier2082">tablet</dc:identifier>
        <dc:source
           id="source2084">$Id: tablet.svg 1822 2007-08-07 19:51:34Z lyonel $</dc:source>
        <dc:language
           id="language2086">C</dc:language>
        <dc:subject
           id="subject2088">
          <rdf:Bag
             id="Bag2090">
            <rdf:li
               id="li3008">tablet pc</rdf:li>
          </rdf:Bag>
        </dc:subject>
        <cc:license
           rdf:resource="http://creativecommons.org/licenses/GPL/2.0/"
           id="license2122" />
        <dc:title
           id="title2138">Tablet PC</dc:title>
      </cc:Work>
      <cc:License
         id="License2124"
         rdf:about="http://creativecommons.org/licenses/GPL/2.0/">
        <cc:permits
           id="permits2126"
           rdf:resource="http://web.resource.org/cc/Reproduction" />
        <cc:permits
           id="permits2128"
           rdf:resource="http://web.resource.org/cc/Distribution" />
        <cc:requires
           id="requires2130"
           rdf:resource="http://web.resource.org/cc/Notice" />
        <cc:permits
           id="permits2132"
           rdf:resource="http://web.resource.org/cc/DerivativeWorks" />
        <cc:requires
           id="requires2134"
           rdf:resource="http://web.resource.org/cc/ShareAlike" />
        <cc:requires
           id="requires2136"
           rdf:resource="http://web.resource.org/cc/SourceCode" />
      </cc:License>
    </rdf:RDF>
  </metadata>
  <g
     id="layer1"
     inkscape:groupmode="layer"
     inkscape:label="Layer 1">
    <g
       id="g2976">
      <path
         sodipodi:nodetypes="czzzzzzzzzzzzzz"
         id="path1404"
         d="M 95.964492,507.56339 L 312.13714,665.14719 C 324.80931,674.38485 341.09484,677.94245 357.59400,677.26902 C 374.09316,676.59558 394.49215,669.51003 411.13209,661.10658 L 713.16770,508.57354 C 719.35668,505.44800 726.97311,501.83920 731.35044,498.47202 C 735.72777,495.10484 739.09494,492.41110 739.43166,488.37049 C 739.76838,484.32988 736.56957,477.09046 733.37075,474.22836 C 730.17193,471.36626 724.58947,472.31717 720.23876,471.19790 L 476.79200,408.56844 C 468.30715,406.38562 459.78776,408.06336 450.52803,409.57859 C 441.26830,411.09382 431.15024,415.59385 421.23361,417.65981 L 106.06602,483.31973 C 100.45245,484.48922 94.617622,490.39080 92.934034,494.43141 C 91.250446,498.47202 92.334286,504.91707 95.964492,507.56339 z "
         style="fill:#c2c2c2;fill-opacity:1.0000000;fill-rule:evenodd;stroke:#000000;stroke-width:5.0000000;stroke-linecap:round;stroke-linejoin:round;stroke-miterlimit:4.0000000;stroke-opacity:1.0000000" />
      <path
         id="path1406"
         d="M 200.00000,542.14286 L 202.14286,538.57143 L 567.85714,437.85714 L 720.71429,476.42857 L 348.57143,635.71429 L 200.00000,542.14286 z "
         style="stroke-opacity:1.0000000;stroke-linejoin:miter;stroke-linecap:butt;stroke-width:0.25000000pt;stroke:none;fill-rule:evenodd;fill-opacity:1.0000000;fill:#737373" />
      <path
         id="path2948"
         d="M 540.71428,565.71429 L 577.14285,549.28572 L 590.00000,555.71429 L 556.42857,574.28572 L 540.71428,565.71429 z "
         style="fill:#000000;fill-opacity:1.0000000;fill-rule:evenodd;stroke:none;stroke-width:0.31000000;stroke-linecap:round;stroke-linejoin:round;stroke-miterlimit:4.0000000;stroke-opacity:1.0000000" />
      <path
         id="path2950"
         d="M 611.42858,532.85714 L 623.57143,538.57142 L 592.85715,554.28571 L 580.71429,547.85714 L 611.42858,532.85714 z "
         style="fill:#000000;fill-opacity:1.0000000;fill-rule:evenodd;stroke:none;stroke-width:0.25000000pt;stroke-linecap:butt;stroke-linejoin:miter;stroke-opacity:1.0000000" />
    </g>
    <g
       id="g2987">
      <path
         sodipodi:nodetypes="czzzzzzzzzzzz"
         id="path1408"
         d="M 118.57143,35.714286 L 604.28571,31.428571 C 613.44506,31.347753 623.09524,39.285714 628.57143,44.285714 C 634.04762,49.285714 637.52502,55.051245 637.14286,61.428571 L 614.28571,442.85714 C 613.75053,451.78793 609.04761,461.42857 602.85714,467.14286 C 596.66666,472.85715 586.31237,477.85030 577.14286,477.14286 L 95.714286,440.00000 C 87.812380,439.39036 80.238096,433.33334 75.714286,427.14286 C 71.190476,420.95238 67.962603,411.27327 68.571429,402.85714 L 92.857143,67.142857 C 93.441230,59.068719 99.999995,50.952381 104.28571,45.714286 C 108.57142,40.476191 112.75901,35.765572 118.57143,35.714286 z "
         style="fill:#c2c2c2;fill-opacity:1.0000000;fill-rule:evenodd;stroke:#000000;stroke-width:5.0000000;stroke-linecap:round;stroke-linejoin:round;stroke-miterlimit:4.0000000;stroke-opacity:1.0000000" />
      <path
         sodipodi:nodetypes="czzzzzzzzzzzz"
         id="path1410"
         d="M 142.85714,67.142857 L 570.00000,61.428571 C 575.12827,61.359965 581.42857,63.571428 584.28571,67.142857 C 587.14285,70.714286 587.43693,77.541299 587.14286,82.857143 L 568.57143,418.57143 C 568.24186,424.52897 563.57143,430.71428 560.00000,434.28571 C 556.42857,437.85714 551.82234,440.31301 547.14286,440.00000 L 120.00000,411.42857 C 115.24871,411.11076 110.95238,406.90476 108.57143,402.85714 C 106.19048,398.80952 105.33853,392.45355 105.71429,387.14286 L 127.14286,84.285714 C 127.47387,79.607478 130.23809,74.285714 132.85714,71.428571 C 135.47619,68.571428 139.23091,67.191368 142.85714,67.142857 z "
         style="fill:#000000;fill-opacity:1.0000000;fill-rule:evenodd;stroke:none;stroke-width:0.25000000pt;stroke-linecap:butt;stroke-linejoin:miter;stroke-opacity:1.0000000" />
      <path
         id="path1412"
         d="M 145.71429,84.285714 L 568.57143,81.428571 L 550.00000,422.85714 L 124.28571,397.14286 L 145.71429,84.285714 z "
         style="stroke-opacity:1.0000000;stroke-linejoin:miter;stroke-linecap:butt;stroke-width:0.25000000pt;stroke:none;fill-rule:evenodd;fill-opacity:1.0;fill:url(#linearGradient2983)" />
    </g>
    <g
       id="g2954">
      <path
         sodipodi:nodetypes="czzzzzzzzzzz"
         id="path2182"
         d="M 479.45160,669.66080 C 480.40398,666.80366 483.60032,660.58430 485.50508,657.01287 C 487.40984,653.44144 496.18929,644.54743 499.46647,642.42386 L 656.42857,540.71429 C 659.14632,538.95322 663.09524,541.66667 665.71429,543.57143 C 668.33334,545.47619 671.19048,549.04762 672.14286,552.14286 C 673.09524,555.23810 674.14688,560.19900 671.42857,562.14286 L 515.25254,673.82397 C 510.53442,677.19789 507.50000,677.38095 503.57143,678.57143 C 499.64286,679.76191 495.98127,680.06128 491.93365,679.70414 C 487.88603,679.34700 484.27261,679.45815 480.54840,677.94380 C 476.74239,676.39618 478.49922,672.51794 479.45160,669.66080 z "
         style="stroke-miterlimit:4.0000000;stroke-dasharray:none;stroke-opacity:1.0000000;stroke-linejoin:round;stroke-linecap:round;stroke-width:2.0000000;stroke:#000000;fill-rule:evenodd;fill-opacity:1.0000000;fill:#c2c2c2" />
      <path
         sodipodi:nodetypes="czzzzzz"
         id="path2184"
         d="M 485.88338,676.76394 L 479.06485,679.79440 C 478.03855,680.25053 476.45528,679.49977 475.78185,679.03678 C 475.10841,678.57379 474.89797,677.68992 475.02424,677.01648 C 475.15051,676.34304 475.85254,675.48274 476.53947,674.99617 L 482.60038,670.70303 C 484.47532,669.37495 487.98300,675.83078 485.88338,676.76394 z "
         style="fill:#000000;fill-opacity:1.0000000;fill-rule:evenodd;stroke:#000000;stroke-width:0.25000000pt;stroke-linecap:butt;stroke-linejoin:miter;stroke-opacity:1.0000000" />
      <path
         sodipodi:nodetypes="czzzzzzzzzz"
         id="path2952"
         d="M 555.54469,617.56128 L 567.32854,609.24239 C 568.69010,608.28118 572.73809,608.92857 574.28571,610.00000 C 575.83333,611.07143 577.73810,614.04762 578.57143,616.42857 C 579.40476,618.80952 579.45345,620.69076 579.09631,622.83362 C 578.73917,624.97648 577.04056,626.77680 575.48155,627.89675 L 563.31890,636.63406 C 562.52160,637.20682 560.69985,636.11827 560.46175,634.45160 C 560.22365,632.78493 559.88095,631.54762 559.28571,630.00000 C 558.69047,628.45238 557.86265,627.06723 555.71429,624.28571 C 553.59660,621.54390 554.23988,618.48241 555.54469,617.56128 z "
         style="stroke-miterlimit:4.0000000;stroke-dasharray:none;stroke-opacity:1.0000000;stroke-linejoin:miter;stroke-linecap:butt;stroke-width:2.0000000;stroke:none;fill-rule:evenodd;fill-opacity:1.0000000;fill:#000000" />
    </g>
  </g>
</svg>
