<?xml version="1.0" encoding="UTF-8" standalone="no"?>
<!-- Created with Inkscape (http://www.inkscape.org/) -->
<svg
   xmlns:dc="http://purl.org/dc/elements/1.1/"
   xmlns:cc="http://web.resource.org/cc/"
   xmlns:rdf="http://www.w3.org/1999/02/22-rdf-syntax-ns#"
   xmlns:svg="http://www.w3.org/2000/svg"
   xmlns="http://www.w3.org/2000/svg"
   xmlns:xlink="http://www.w3.org/1999/xlink"
   xmlns:sodipodi="http://inkscape.sourceforge.net/DTD/sodipodi-0.dtd"
   xmlns:inkscape="http://www.inkscape.org/namespaces/inkscape"
   sodipodi:docname="tower-computer.svg"
   sodipodi:docbase="/home/support/Source/ezix-workspace/packages/lshw/development/src/gui/artwork"
   inkscape:version="0.41"
   sodipodi:version="0.32"
   id="svg2"
   height="600.00000pt"
   width="600.00000pt">
  <defs
     id="defs3">
    <linearGradient
       id="linearGradient2111">
      <stop
         id="stop2113"
         offset="0.0000000"
         style="stop-color:#000000;stop-opacity:1.0000000;" />
      <stop
         id="stop2115"
         offset="1.0000000"
         style="stop-color:#444444;stop-opacity:1.0000000;" />
    </linearGradient>
    <linearGradient
       id="linearGradient2102"
       inkscape:collect="always">
      <stop
         id="stop2104"
         offset="0"
         style="stop-color:#726d7f;stop-opacity:1;" />
      <stop
         id="stop2106"
         offset="1"
         style="stop-color:#726d7f;stop-opacity:0;" />
    </linearGradient>
    <linearGradient
       id="linearGradient2838">
      <stop
         style="stop-color:#000000;stop-opacity:1.0000000;"
         offset="0.0000000"
         id="stop2840" />
      <stop
         style="stop-color:#000000;stop-opacity:0.0000000;"
         offset="1.0000000"
         id="stop2842" />
    </linearGradient>
    <linearGradient
       inkscape:collect="always"
       xlink:href="#linearGradient2838"
       id="linearGradient2844"
       gradientTransform="scale(1.235013,0.809708)"
       x1="117.34206"
       y1="188.58949"
       x2="422.29895"
       y2="336.16794"
       gradientUnits="userSpaceOnUse" />
    <linearGradient
       gradientUnits="userSpaceOnUse"
       y2="243.77264"
       x2="573.30255"
       y1="104.67563"
       x1="202.28809"
       gradientTransform="scale(0.943567,1.059808)"
       id="linearGradient2112"
       xlink:href="#linearGradient2102"
       inkscape:collect="always" />
    <linearGradient
       y2="243.77264"
       x2="573.30255"
       y1="104.67563"
       x1="202.28809"
       gradientTransform="scale(0.943567,1.059808)"
       gradientUnits="userSpaceOnUse"
       id="linearGradient2118"
       xlink:href="#linearGradient2102"
       inkscape:collect="always" />
    <linearGradient
       inkscape:collect="always"
       xlink:href="#linearGradient2111"
       id="linearGradient1357"
       gradientUnits="userSpaceOnUse"
       gradientTransform="scale(0.896359,1.115625)"
       x1="195.74687"
       y1="165.26309"
       x2="427.86472"
       y2="252.82915" />
    <linearGradient
       inkscape:collect="always"
       xlink:href="#linearGradient2111"
       id="linearGradient2131"
       gradientUnits="userSpaceOnUse"
       gradientTransform="scale(0.896359,1.115625)"
       x1="195.74687"
       y1="165.26309"
       x2="427.86472"
       y2="252.82915" />
  </defs>
  <sodipodi:namedview
     inkscape:window-y="25"
     inkscape:window-x="0"
     inkscape:window-height="722"
     inkscape:window-width="1024"
     inkscape:current-layer="layer1"
     inkscape:document-units="px"
     inkscape:cy="226.15217"
     inkscape:cx="790.93942"
     inkscape:zoom="0.17500000"
     inkscape:pageshadow="2"
     inkscape:pageopacity="0.0"
     borderopacity="1.0"
     bordercolor="#666666"
     pagecolor="#ffffff"
     id="base"
     showguides="true"
     inkscape:guide-bbox="true" />
  <metadata
     id="metadata4">
    <rdf:RDF
       id="RDF5">
      <cc:Work
         id="Work6"
         rdf:about="">
        <dc:format
           id="format7">image/svg+xml</dc:format>
        <dc:type
           rdf:resource="http://purl.org/dc/dcmitype/StillImage"
           id="type9" />
        <dc:date
           id="date2068">2005/04/30</dc:date>
        <dc:creator
           id="creator2070">
          <cc:Agent
             id="Agent2072">
            <dc:title
               id="title2074">Lyonel Vincent</dc:title>
          </cc:Agent>
        </dc:creator>
        <dc:publisher
           id="publisher2076">
          <cc:Agent
             id="Agent2078">
            <dc:title
               id="title2080">ezIX.org</dc:title>
          </cc:Agent>
        </dc:publisher>
        <dc:identifier
           id="identifier2082">tower</dc:identifier>
        <dc:source
           id="source2084">$Id: towercomputer.svg 1822 2007-08-07 19:51:34Z lyonel $</dc:source>
        <dc:language
           id="language2086">C</dc:language>
        <dc:subject
           id="subject2088">
          <rdf:Bag
             id="Bag2090">
            <rdf:li
               id="li1361">tower computer</rdf:li>
          </rdf:Bag>
        </dc:subject>
        <cc:license
           rdf:resource="http://creativecommons.org/licenses/GPL/2.0/"
           id="license2122" />
        <dc:title
           id="title2138">towe computer</dc:title>
      </cc:Work>
      <cc:License
         id="License2124"
         rdf:about="http://creativecommons.org/licenses/GPL/2.0/">
        <cc:permits
           id="permits2126"
           rdf:resource="http://web.resource.org/cc/Reproduction" />
        <cc:permits
           id="permits2128"
           rdf:resource="http://web.resource.org/cc/Distribution" />
        <cc:requires
           id="requires2130"
           rdf:resource="http://web.resource.org/cc/Notice" />
        <cc:permits
           id="permits2132"
           rdf:resource="http://web.resource.org/cc/DerivativeWorks" />
        <cc:requires
           id="requires2134"
           rdf:resource="http://web.resource.org/cc/ShareAlike" />
        <cc:requires
           id="requires2136"
           rdf:resource="http://web.resource.org/cc/SourceCode" />
      </cc:License>
    </rdf:RDF>
  </metadata>
  <g
     id="layer1"
     inkscape:groupmode="layer"
     inkscape:label="Layer 1">
    <g
       id="g3836">
      <path
         id="path3021"
         d="M 489.01163,557.85403 L 628.48632,559.36770 L 620.26920,528.01293 L 484.47060,527.36421 L 479.92956,557.42155 L 489.01163,557.85403 z "
         style="fill:#444444;fill-opacity:1.0000000;fill-rule:evenodd;stroke:#000000;stroke-width:1.0000001;stroke-linecap:round;stroke-linejoin:round;stroke-miterlimit:4.0000000;stroke-opacity:1.0000000" />
      <path
         sodipodi:nodetypes="cccccczzzzzzzczzzz"
         id="path1473"
         d="M 463.71158,109.80512 L 646.62423,108.35253 L 667.84196,109.80512 L 726.65919,127.10431 L 726.65919,524.98558 L 666.90054,557.67264 L 628.53653,559.42654 C 623.05548,559.67712 622.44231,558.24878 620.75190,554.23678 L 616.80937,544.87964 C 614.89638,540.33938 607.89667,539.72994 602.97002,539.68988 L 496.58002,538.82492 C 487.03791,538.74735 484.01189,544.53594 484.01189,546.20331 C 484.01189,547.94715 483.70262,557.58566 489.66035,557.85403 L 465.65773,556.77282 L 446.84487,553.74547 C 443.66230,553.23334 442.52338,548.31939 442.52007,545.09588 L 442.08759,124.50943 C 442.08210,119.16855 442.92581,109.97019 463.71158,109.80512 z "
         style="stroke-dasharray:none;stroke-opacity:1.0000000;stroke-miterlimit:4.0000000;stroke-linejoin:miter;stroke-linecap:butt;stroke-width:6.2500000;stroke:#000000;fill-rule:evenodd;fill-opacity:1.0000000;fill:#c2c2c2" />
      <g
         transform="matrix(0.856266,0.000000,0.000000,0.856266,88.84134,63.52852)"
         id="g7518">
        <path
           sodipodi:type="arc"
           style="fill:none;fill-opacity:0.75000000;fill-rule:evenodd;stroke:#000000;stroke-width:1.1678616pt;stroke-linecap:round;stroke-linejoin:round;stroke-opacity:1.0000000"
           id="path5998"
           sodipodi:cx="537.02234"
           sodipodi:cy="450.11096"
           sodipodi:rx="2.9041886"
           sodipodi:ry="2.9041886"
           d="M 538.77821,447.79769 A 2.9041886,2.9041886 0 1 1 535.24234,447.81620"
           transform="translate(0.252538,0.000000)"
           sodipodi:start="5.3616515"
           sodipodi:end="10.335840"
           sodipodi:open="true" />
        <path
           style="fill:none;fill-opacity:0.75000000;fill-rule:evenodd;stroke:#000000;stroke-width:1.1678616pt;stroke-linecap:round;stroke-linejoin:round;stroke-opacity:1.0000000"
           d="M 537.14862,446.32289 L 537.27489,450.86858"
           id="path6758" />
      </g>
      <path
         sodipodi:nodetypes="czzzzzzzz"
         id="path2236"
         d="M 539.39551,435.89477 L 558.42461,435.40982 C 560.08679,435.36746 562.58012,436.52115 562.57027,438.18384 L 562.44360,459.55448 C 562.43390,461.19138 560.06154,462.37416 558.42461,462.37646 L 539.70131,462.40270 C 538.06398,462.40500 535.93567,460.88602 535.93567,459.24867 L 535.93567,439.35461 C 535.93567,437.72363 537.76506,435.93633 539.39551,435.89477 z "
         style="stroke-dasharray:none;stroke-opacity:1.0000000;stroke-miterlimit:4.0000000;stroke-linejoin:round;stroke-linecap:round;stroke-width:6.2500000;stroke:#000000;fill-rule:evenodd;fill-opacity:0.75000000;fill:none" />
      <path
         sodipodi:nodetypes="cc"
         id="path3012"
         d="M 460.89116,339.17794 C 527.35371,345.70188 579.24235,345.89338 640.20034,340.18494"
         style="stroke-dasharray:none;stroke-opacity:1.0000000;stroke-miterlimit:4.0000000;stroke-linejoin:round;stroke-linecap:round;stroke-width:1.2500000;stroke:#000000;fill-rule:evenodd;fill-opacity:0.75000000;fill:none" />
      <path
         sodipodi:nodetypes="czzz"
         id="path3016"
         d="M 464.48666,111.04421 C 460.27316,115.68382 459.41458,121.53935 459.41458,127.34167 L 459.41458,529.17507 C 459.41458,538.29254 460.29791,546.03468 464.30753,554.78885"
         style="stroke-dasharray:none;stroke-opacity:1.0000000;stroke-miterlimit:4.0000000;stroke-linejoin:round;stroke-linecap:round;stroke-width:1.2500000;stroke:#000000;fill-rule:evenodd;fill-opacity:0.75000000;fill:none" />
      <path
         sodipodi:nodetypes="czzz"
         id="path3018"
         d="M 646.21798,109.80512 C 643.44290,112.65228 642.75814,121.22372 642.75814,127.10431 L 642.75814,534.50013 C 642.75814,545.04595 643.15458,549.70899 644.48806,556.98907"
         style="stroke-dasharray:none;stroke-opacity:1.0000000;stroke-miterlimit:4.0000000;stroke-linejoin:round;stroke-linecap:round;stroke-width:1.2500000;stroke:#000000;fill-rule:evenodd;fill-opacity:0.75000000;fill:none" />
      <path
         sodipodi:nodetypes="czzz"
         id="path3023"
         d="M 666.76077,110.88632 C 663.94965,114.56240 662.64562,122.64206 662.65221,128.83423 L 663.08469,535.36509 C 663.09708,547.01417 663.30093,549.13235 666.32828,555.90787"
         style="stroke-dasharray:none;stroke-opacity:1.0000000;stroke-miterlimit:4.0000000;stroke-linejoin:round;stroke-linecap:round;stroke-width:1.2500000;stroke:#000000;fill-rule:evenodd;fill-opacity:0.75000000;fill:none" />
      <g
         transform="matrix(0.856266,0.000000,0.000000,0.856266,-91.04214,123.6720)"
         id="g3789">
        <rect
           ry="1.7695777"
           rx="4.6714463"
           y="178.75873"
           x="708.62201"
           height="4.0406103"
           width="79.296974"
           id="rect3025"
           style="fill:#000000;fill-opacity:1.0000000;fill-rule:nonzero;stroke:none;stroke-width:1.2500000;stroke-linecap:round;stroke-linejoin:round;stroke-miterlimit:4.0000000;stroke-dashoffset:0.0000000;stroke-opacity:1.0000000" />
        <rect
           ry="1.7695777"
           rx="4.6714463"
           y="175.72827"
           x="730.84540"
           height="10.101519"
           width="34.850239"
           id="rect3785"
           style="fill:#373737;fill-opacity:0.89130437;fill-rule:nonzero;stroke:none;stroke-width:1.2500000;stroke-linecap:round;stroke-linejoin:round;stroke-miterlimit:4.0000000;stroke-dashoffset:0.0000000;stroke-opacity:1.0000000" />
        <rect
           y="185.32474"
           x="770.24133"
           height="4.5456862"
           width="11.616755"
           id="rect3787"
           style="fill:#000000;fill-opacity:0.89130437;fill-rule:nonzero;stroke:none;stroke-width:1.2500000;stroke-linecap:round;stroke-linejoin:round;stroke-miterlimit:4.0000000;stroke-dashoffset:0.0000000;stroke-opacity:1.0000000" />
      </g>
    </g>
    <g
       id="g2123"
       transform="translate(8.571429,0.000000)">
      <g
         id="g2105">
        <path
           sodipodi:nodetypes="czzzzzzzzzz"
           id="path1344"
           d="M 169.28571,471.07143 C 166.84602,470.41917 164.16667,467.08334 163.92857,465.71429 C 163.69047,464.34524 166.27507,463.20202 167.85714,462.85714 L 271.07143,440.35715 C 277.42371,438.97239 284.21174,440.09838 290.53572,441.60714 L 396.07143,466.78571 C 399.38737,467.57682 400.17857,473.39286 400.35714,476.07143 C 400.53571,478.75000 399.52199,482.08004 397.14286,482.85714 L 326.07143,506.07143 C 320.37264,507.93284 314.00596,509.76271 308.21429,508.21429 L 169.28571,471.07143 z "
           style="fill:#c2c2c2;fill-opacity:1.0000000;fill-rule:evenodd;stroke:#000000;stroke-width:5.0000000;stroke-linecap:round;stroke-linejoin:round;stroke-miterlimit:4.0000000;stroke-opacity:1.0000000" />
        <path
           id="path1342"
           d="M 252.85714,427.85714 L 250.00000,463.57143 L 286.42857,474.28571 L 323.57143,467.14286 L 320.71429,434.28571 L 286.42857,433.57143 L 252.85714,427.85714 z "
           style="fill:#c2c2c2;fill-opacity:1.0000000;fill-rule:evenodd;stroke:#000000;stroke-width:5.0000000;stroke-linecap:round;stroke-linejoin:round;stroke-miterlimit:4.0000000;stroke-opacity:1.0000000" />
      </g>
      <g
         id="g2119">
        <path
           sodipodi:nodetypes="czzzzzzzzzzz"
           id="path1340"
           d="M 177.28177,156.03030 C 177.40135,154.52921 178.03939,152.91566 179.30208,151.98969 C 180.56477,151.06372 182.95933,150.75762 184.85792,150.47446 L 391.43411,119.66481 C 400.66014,118.28880 403.09420,118.33063 407.09148,121.18004 C 411.17488,124.09084 419.47871,124.68291 417.69808,147.44401 L 394.46457,444.42886 C 393.54407,456.19520 393.78647,455.61946 383.44480,459.04543 C 372.94208,462.52475 367.83322,459.72367 365.17015,459.07607 L 161.62441,409.57859 C 156.39176,408.30613 157.36785,406.00236 158.08887,396.95169 L 177.28177,156.03030 z "
           style="fill:#c2c2c2;fill-opacity:1.0000000;fill-rule:evenodd;stroke:#000000;stroke-width:5.0000000;stroke-linecap:butt;stroke-linejoin:miter;stroke-miterlimit:4.0000000;stroke-opacity:1.0000000" />
        <path
           sodipodi:nodetypes="czzzzzzzz"
           id="path2109"
           d="M 183.34269,180.77904 C 183.69342,176.24378 187.41193,170.70900 191.92898,170.17244 L 374.76659,148.45416 C 378.44842,148.01682 383.63387,151.82817 383.35289,155.52523 L 364.15999,408.06336 C 363.88934,411.62452 360.09074,416.31542 356.58385,415.63951 L 175.76654,380.78924 C 171.59415,379.98506 168.36785,374.41918 168.69547,370.18265 L 183.34269,180.77904 z "
           style="fill:url(#linearGradient2131);fill-opacity:1.0000000;fill-rule:evenodd;stroke:#000000;stroke-width:1.0000000;stroke-linecap:round;stroke-linejoin:round;stroke-miterlimit:4.0000000;stroke-opacity:1.0000000" />
      </g>
    </g>
    <g
       id="g7578">
      <path
         style="stroke-dasharray:none;stroke-opacity:1.0000000;stroke-miterlimit:4.0000000;stroke-linejoin:round;stroke-linecap:round;stroke-width:6.2500000;stroke:#000000;fill-rule:evenodd;fill-opacity:1.0000000;fill:#c2c2c2"
         d="M 8.0812204,507.56339 L 7.0710678,520.69537 L 450.52803,707.57359 L 571.74634,609.58880 C 583.33223,600.22354 583.36310,582.98811 581.84787,580.29437 C 580.33264,577.60063 578.00506,574.05365 574.77680,573.22330 L 154.55334,465.13698 L 8.0812204,507.56339 z "
         id="path7555"
         sodipodi:nodetypes="ccczzzcc" />
      <path
         style="fill:#5e5e5e;fill-opacity:1.0000000;fill-rule:evenodd;stroke:#000000;stroke-width:1.2500000;stroke-linecap:round;stroke-linejoin:round;stroke-miterlimit:4.0000000;stroke-opacity:1.0000000"
         d="M 38.508349,512.52749 L 243.44676,597.46697 L 352.78834,542.37776 L 139.01853,480.70769 L 38.508349,512.52749 z "
         id="path7557"
         sodipodi:nodetypes="ccccc" />
      <path
         style="fill:#5e5e5e;fill-opacity:1.0000000;fill-rule:evenodd;stroke:#000000;stroke-width:1.2500000;stroke-linecap:round;stroke-linejoin:round;stroke-miterlimit:4.0000000;stroke-opacity:1.0000000"
         d="M 320.20305,566.97165 L 388.44676,591.03840 L 427.07406,565.23491 L 359.96305,546.66708 L 320.20305,566.97165 z "
         id="path7559"
         sodipodi:nodetypes="ccccc" />
      <path
         style="fill:#5e5e5e;fill-opacity:1.0000000;fill-rule:evenodd;stroke:#000000;stroke-width:1.2500000;stroke-linecap:round;stroke-linejoin:round;stroke-miterlimit:4.0000000;stroke-opacity:1.0000000"
         d="M 335.20305,634.11451 L 447.73247,676.03840 L 541.35977,598.09206 L 437.10591,568.09566 L 335.20305,634.11451 z "
         id="path7561"
         sodipodi:nodetypes="ccccc" />
      <path
         style="fill:#5e5e5e;fill-opacity:1.0000000;fill-rule:evenodd;stroke:#000000;stroke-width:1.2500000;stroke-linecap:round;stroke-linejoin:round;stroke-miterlimit:4.0000000;stroke-opacity:1.0000000"
         d="M 255.00000,602.14286 L 282.14285,587.85714 L 300.71429,594.28571 L 317.85714,585.00000 L 344.28571,592.14286 L 325.00000,605.00000 L 347.14285,613.57143 L 320.71429,628.57143 L 255.00000,602.14286 z "
         id="path7563"
         sodipodi:nodetypes="ccccccccc" />
    </g>
  </g>
</svg>
