<?xml version="1.0" encoding="UTF-8" standalone="no"?>
<!-- Created with Inkscape (http://www.inkscape.org/) -->
<svg
   xmlns:dc="http://purl.org/dc/elements/1.1/"
   xmlns:cc="http://web.resource.org/cc/"
   xmlns:rdf="http://www.w3.org/1999/02/22-rdf-syntax-ns#"
   xmlns:svg="http://www.w3.org/2000/svg"
   xmlns="http://www.w3.org/2000/svg"
   xmlns:sodipodi="http://inkscape.sourceforge.net/DTD/sodipodi-0.dtd"
   xmlns:inkscape="http://www.inkscape.org/namespaces/inkscape"
   width="600.00000pt"
   height="600.00000pt"
   id="svg2"
   sodipodi:version="0.32"
   inkscape:version="0.41"
   sodipodi:docbase="/home/support/Source/ezix-workspace/packages/lshw/development/src/gui/artwork"
   sodipodi:docname="usb.svg">
  <defs
     id="defs3" />
  <sodipodi:namedview
     id="base"
     pagecolor="#ffffff"
     bordercolor="#666666"
     borderopacity="1.0"
     inkscape:pageopacity="0.0"
     inkscape:pageshadow="2"
     inkscape:zoom="0.70000000"
     inkscape:cx="482.41619"
     inkscape:cy="332.89921"
     inkscape:document-units="px"
     inkscape:current-layer="layer1"
     inkscape:window-width="1009"
     inkscape:window-height="685"
     inkscape:window-x="153"
     inkscape:window-y="142" />
  <metadata
     id="metadata4">
    <rdf:RDF
       id="RDF5">
      <cc:Work
         rdf:about=""
         id="Work6">
        <dc:format
           id="format7">image/svg+xml</dc:format>
        <dc:type
           id="type9"
           rdf:resource="http://purl.org/dc/dcmitype/StillImage" />
        <dc:title
           id="title1292">USB logo</dc:title>
        <dc:date
           id="date1294">2005/03/28</dc:date>
        <dc:creator
           id="creator1296">
          <cc:Agent
             id="Agent1298">
            <dc:title
               id="title1300">Lyonel Vincent</dc:title>
          </cc:Agent>
        </dc:creator>
        <dc:identifier
           id="identifier1302">usb</dc:identifier>
        <dc:language
           id="language1304">C</dc:language>
        <dc:subject
           id="subject1306">
          <rdf:Bag
             id="Bag1308">
            <rdf:li
               id="li1360">USB universal serial bus</rdf:li>
          </rdf:Bag>
        </dc:subject>
        <cc:license
           id="license1362"
           rdf:resource="http://creativecommons.org/licenses/GPL/2.0/" />
        <dc:publisher
           id="publisher1310">
          <cc:Agent
             id="Agent1312">
            <dc:title
               id="title1314">ezIX.org</dc:title>
          </cc:Agent>
        </dc:publisher>
        <dc:source
           id="source1757">$Id: usb.svg 1822 2007-08-07 19:51:34Z lyonel $</dc:source>
      </cc:Work>
      <cc:License
         rdf:about="http://creativecommons.org/licenses/GPL/2.0/"
         id="License1364">
        <cc:permits
           rdf:resource="http://web.resource.org/cc/Reproduction"
           id="permits1366" />
        <cc:permits
           rdf:resource="http://web.resource.org/cc/Distribution"
           id="permits1368" />
        <cc:requires
           rdf:resource="http://web.resource.org/cc/Notice"
           id="requires1370" />
        <cc:permits
           rdf:resource="http://web.resource.org/cc/DerivativeWorks"
           id="permits1372" />
        <cc:requires
           rdf:resource="http://web.resource.org/cc/ShareAlike"
           id="requires1374" />
        <cc:requires
           rdf:resource="http://web.resource.org/cc/SourceCode"
           id="requires1376" />
      </cc:License>
    </rdf:RDF>
  </metadata>
  <g
     inkscape:label="Layer 1"
     inkscape:groupmode="layer"
     id="layer1">
    <path
       style="fill:#000000;fill-opacity:1.0000000;stroke:none;stroke-width:12.000000;stroke-linecap:round;stroke-linejoin:round;stroke-miterlimit:4.0000000;stroke-opacity:1.0000000"
       d="M 439.98382,208.61252 C 420.01437,208.41872 402.95976,221.38139 397.08727,239.42374 L 339.60325,239.42374 C 327.16857,239.93534 318.67548,242.19877 307.55466,248.84172 C 296.35479,256.80232 289.53445,264.76291 280.52434,272.72351 L 215.79470,336.83449 C 204.63207,346.81586 193.46943,357.23516 186.24838,357.58155 L 144.83678,358.11775 C 139.20429,327.05897 112.20026,303.32567 79.474644,302.98478 L 79.419645,302.98478 C 42.357374,302.62509 11.982527,332.38480 11.596472,369.44682 C 11.210234,406.52564 40.993454,436.93875 78.072256,437.32500 C 110.19416,437.65961 137.27770,415.33517 144.20433,385.25803 L 290.58859,385.86297 C 301.51951,385.77140 308.50885,392.24912 320.75363,406.61002 L 401.19822,487.05467 C 416.97063,498.98318 421.85642,500.19736 439.54384,502.13718 L 500.50630,502.13718 L 500.50630,532.93465 L 589.76398,532.93465 L 589.76398,443.69073 L 500.50630,443.69073 L 500.50630,475.73935 L 442.05990,475.73935 C 425.61138,475.97079 428.34478,474.29102 417.54564,466.30762 L 339.60325,385.86297 L 649.47540,385.86297 L 649.47540,414.77685 L 739.35174,370.14802 L 649.47540,324.90047 L 649.47540,357.56780 L 235.27686,356.94910 L 308.80583,281.52279 C 316.75009,273.86756 320.31482,267.52620 333.95247,266.44028 L 396.90861,266.44028 C 402.49243,284.47123 419.19620,297.67686 439.07638,297.88395 C 463.71609,298.14061 483.92981,278.34852 484.18647,253.70882 C 484.44313,229.06912 464.65100,208.86919 440.01129,208.61252 L 439.98382,208.61252 z "
       id="rect1337"
       sodipodi:nodetypes="ccccccccccccccccccccccccccccccccccccccc" />
  </g>
  <g
     inkscape:groupmode="layer"
     id="layer2"
     inkscape:label="vectoriel" />
</svg>
