<?xml version="1.0" encoding="UTF-8" standalone="no"?>
<!-- Created with Inkscape (http://www.inkscape.org/) -->
<svg
   xmlns:dc="http://purl.org/dc/elements/1.1/"
   xmlns:cc="http://web.resource.org/cc/"
   xmlns:rdf="http://www.w3.org/1999/02/22-rdf-syntax-ns#"
   xmlns:svg="http://www.w3.org/2000/svg"
   xmlns="http://www.w3.org/2000/svg"
   xmlns:sodipodi="http://inkscape.sourceforge.net/DTD/sodipodi-0.dtd"
   xmlns:inkscape="http://www.inkscape.org/namespaces/inkscape"
   sodipodi:docname="wifi.svg"
   sodipodi:docbase="/home/support/Source/ezix-workspace/packages/lshw/development/src/gui/artwork"
   inkscape:version="0.41"
   sodipodi:version="0.32"
   id="svg2"
   height="600.00000pt"
   width="600.00000pt">
  <defs
     id="defs3" />
  <sodipodi:namedview
     inkscape:window-y="26"
     inkscape:window-x="0"
     inkscape:window-height="680"
     inkscape:window-width="959"
     inkscape:current-layer="layer1"
     inkscape:document-units="px"
     inkscape:cy="279.59399"
     inkscape:cx="368.34144"
     inkscape:zoom="0.70000000"
     inkscape:pageshadow="2"
     inkscape:pageopacity="0.0"
     borderopacity="1.0"
     bordercolor="#666666"
     pagecolor="#ffffff"
     id="base" />
  <metadata
     id="metadata4">
    <rdf:RDF
       id="RDF5">
      <cc:Work
         id="Work6"
         rdf:about="">
        <dc:format
           id="format7">image/svg+xml</dc:format>
        <dc:type
           rdf:resource="http://purl.org/dc/dcmitype/StillImage"
           id="type9" />
        <dc:title
           id="title1291">WiFi logo</dc:title>
        <dc:date
           id="date1293">2005/03/28</dc:date>
        <dc:creator
           id="creator1295">
          <cc:Agent
             id="Agent1297">
            <dc:title
               id="title1299">Lyonel Vincent</dc:title>
          </cc:Agent>
        </dc:creator>
        <dc:rights
           id="rights1301">
          <cc:Agent
             id="Agent1303">
            <dc:title
               id="title1305" />
          </cc:Agent>
        </dc:rights>
        <dc:identifier
           id="identifier1307">wifi</dc:identifier>
        <dc:language
           id="language1309">C</dc:language>
        <dc:subject
           id="subject1311">
          <rdf:Bag
             id="Bag1313">
            <rdf:li
               id="li1341">wireless wifi</rdf:li>
          </rdf:Bag>
        </dc:subject>
        <cc:license
           rdf:resource="http://creativecommons.org/licenses/GPL/2.0/"
           id="license1343" />
        <dc:publisher
           id="publisher1312">
          <cc:Agent
             id="Agent1314">
            <dc:title
               id="title1316">ezIX.org</dc:title>
          </cc:Agent>
        </dc:publisher>
        <dc:source
           id="source1827">$Id: wifi.svg 1822 2007-08-07 19:51:34Z lyonel $</dc:source>
      </cc:Work>
      <cc:License
         id="License1345"
         rdf:about="http://creativecommons.org/licenses/GPL/2.0/">
        <cc:permits
           id="permits1347"
           rdf:resource="http://web.resource.org/cc/Reproduction" />
        <cc:permits
           id="permits1349"
           rdf:resource="http://web.resource.org/cc/Distribution" />
        <cc:requires
           id="requires1351"
           rdf:resource="http://web.resource.org/cc/Notice" />
        <cc:permits
           id="permits1353"
           rdf:resource="http://web.resource.org/cc/DerivativeWorks" />
        <cc:requires
           id="requires1355"
           rdf:resource="http://web.resource.org/cc/ShareAlike" />
        <cc:requires
           id="requires1357"
           rdf:resource="http://web.resource.org/cc/SourceCode" />
      </cc:License>
    </rdf:RDF>
  </metadata>
  <g
     id="layer1"
     inkscape:groupmode="layer"
     inkscape:label="Layer 1">
    <path
       style="fill:#000000;fill-opacity:1.0000000;stroke:none;stroke-width:50.500001;stroke-linecap:round;stroke-linejoin:round;stroke-miterlimit:4.0000000;stroke-opacity:1.0000000;stroke-dasharray:none"
       d="M 161.65625 224.28125 C 95.841048 224.28125 42.843750 277.27855 42.843750 343.09375 L 42.843750 411.18750 C 42.843750 477.00270 95.841056 530.00002 161.65625 530.00000 L 598.34375 530.00000 C 664.15895 530.00000 717.15627 477.00270 717.15625 411.18750 L 717.15625 343.09375 C 717.15625 277.27855 664.15896 224.28125 598.34375 224.28125 L 161.65625 224.28125 z M 482.37500 248.56250 L 603.34375 248.56250 C 652.15113 248.56250 691.43750 287.84885 691.43750 336.65625 L 691.43750 420.46875 C 691.43750 469.27614 652.15115 508.56250 603.34375 508.56250 L 482.37500 508.56250 C 479.77837 508.56250 477.22575 508.40541 474.68750 508.18750 C 477.81956 508.54959 480.99731 508.78125 484.21875 508.78125 L 394.21875 508.78125 L 393.78125 508.78125 L 349.34375 508.78125 C 374.84007 500.50718 393.11365 460.35896 394.21875 414.09375 L 394.21875 417.18750 C 394.23207 417.35684 394.26718 417.51840 394.28125 417.68750 L 394.28125 336.65625 C 394.28125 287.84886 433.56760 248.56250 482.37500 248.56250 z M 314.06250 289.28125 L 319.21875 289.28125 C 329.85555 289.28125 338.43750 297.86320 338.43750 308.50000 L 338.43750 309.37500 C 338.43749 320.01179 329.85555 328.56250 319.21875 328.56250 L 314.06250 328.56250 C 303.42569 328.56251 294.84375 320.01180 294.84375 309.37500 L 294.84375 308.50000 C 294.84375 297.86319 303.42570 289.28125 314.06250 289.28125 z M 612.06250 289.28125 C 601.42570 289.28125 592.84375 297.86319 592.84375 308.50000 L 592.84375 309.37500 C 592.84375 320.01180 601.42569 328.56251 612.06250 328.56250 L 617.21875 328.56250 C 627.85555 328.56250 636.43752 320.01179 636.43750 309.37500 L 636.43750 308.50000 C 636.43750 297.86320 627.85558 289.28125 617.21875 289.28125 L 612.06250 289.28125 z M 173.56250 297.84375 L 210.71875 297.84375 L 226.43750 380.00000 L 238.56250 297.84375 L 280.71875 297.84375 L 246.43750 450.00000 L 207.84375 450.00000 L 191.43750 363.56250 L 175.71875 450.71875 L 137.15625 450.71875 L 102.15625 298.56250 L 144.28125 298.56250 L 157.15625 382.84375 L 173.56250 297.84375 z M 445.71875 298.56250 L 442.84375 451.43750 L 485.71875 451.43750 L 485.71875 404.28125 L 564.28125 404.28125 L 564.28125 368.56250 L 485.71875 368.56250 L 485.71875 334.28125 L 571.43750 334.28125 L 571.43750 298.56250 L 445.71875 298.56250 z M 297.00000 338.56250 L 335.56250 338.56250 L 335.56250 450.00000 L 297.00000 450.00000 L 297.00000 338.56250 z M 595.00000 338.56250 L 595.00000 450.00000 L 633.56250 450.00000 L 633.56250 338.56250 L 595.00000 338.56250 z "
       id="rect1332" />
  </g>
</svg>
