/* XPM */
static char * desktop2_xpm[] = {
"22 16 20 1",
" 	c none", /* #D4D0C8 */
".	c #FF5252",
"+	c #CE3100",
"@	c #CE9C00",
"#	c #FF9CCE",
"$	c #9C0000",
"%	c #009CCE",
"&	c #00639C",
"*	c #ADAD94",
"=	c #FFCE00",
"-	c #9C6300",
";	c #000000",
">	c #63CEFF",
",	c #CECE9C",
"'	c #FFFFFF",
")	c #FFFFCE",
"!	c #FFFF9C",
"~	c #31639C",
"{	c #949494",
"]	c #9C9C63",
"               .+     ",
"              @#$     ",
"   %%%%&*****@=-;*;   ",
"   %>%&,'')'@!-;%&;   ",
"   %%&,''))@=-;~>&;   ",
"   %&,'{{{@!-;*)~&;   ",
"   &,''{'@=-;*),,~;   ",
"   *''){']-;;),)*{;   ",
"   *')){';');,)*,{;   ",
"   *))){''');),,*{;   ",
"   *))){''');,,*,{;   ",
"   %))){))));,*,*~;   ",
"   %%));;;;;;*,*~~;   ",
"   %>%)),),,*,*~>~;   ",
"   &&&%{{{{{{{~~~~;   ",
"   ;;;;;;;;;;;;;;;;   "};
