/* XPM */
static char * keys_xpm[] = {
"48 48 540 2",
"  	c None",
". 	c #D7D7D7",
"+ 	c #D4D4D4",
"@ 	c #CDCDCD",
"# 	c #D0D0D0",
"$ 	c #D3D3D3",
"% 	c #D2D2D2",
"& 	c #D6D6D6",
"* 	c #D5D5D5",
"= 	c #C8C8C8",
"- 	c #AAAAAA",
"; 	c #B6B6B6",
"> 	c #BEBEBE",
", 	c #BDBDBD",
"' 	c #B7B7B7",
") 	c #B8B8B8",
"! 	c #BCBCBC",
"~ 	c #ADADAD",
"{ 	c #C7C7C7",
"] 	c #CACACA",
"^ 	c #BBBBBB",
"/ 	c #959595",
"( 	c #949494",
"_ 	c #A0A0A0",
": 	c #B0B0B0",
"< 	c #B2B2B2",
"[ 	c #B9B9B9",
"} 	c #B4B4B4",
"| 	c #919191",
"1 	c #D1D1D1",
"2 	c #B3B3B3",
"3 	c #8C8C8C",
"4 	c #AEAEAE",
"5 	c #858585",
"6 	c #747474",
"7 	c #B5B5B5",
"8 	c #C1C1C1",
"9 	c #979797",
"0 	c #AFAFAF",
"a 	c #BABABA",
"b 	c #9F9F9F",
"c 	c #8A8A8A",
"d 	c #C6C6C6",
"e 	c #D7D7D6",
"f 	c #ADACAC",
"g 	c #73716E",
"h 	c #888887",
"i 	c #8E8E8E",
"j 	c #818181",
"k 	c #C0C0C0",
"l 	c #C9C9C9",
"m 	c #8F8F8F",
"n 	c #D4D3D3",
"o 	c #CAC7C4",
"p 	c #B8B6B1",
"q 	c #736F68",
"r 	c #8C8372",
"s 	c #99948C",
"t 	c #908E8A",
"u 	c #73716D",
"v 	c #AAA8A5",
"w 	c #D0CFCF",
"x 	c #A7A7A7",
"y 	c #D5D4D3",
"z 	c #C2BEB8",
"A 	c #9C907D",
"B 	c #A89A84",
"C 	c #AB9C85",
"D 	c #C0B196",
"E 	c #CBBDA5",
"F 	c #CDC1AE",
"G 	c #BAAF9C",
"H 	c #B5AA99",
"I 	c #CCC7C0",
"J 	c #CFCCC8",
"K 	c #797979",
"L 	c #C5C2BB",
"M 	c #A59A87",
"N 	c #A09177",
"O 	c #B4A387",
"P 	c #C7B698",
"Q 	c #D5C4A8",
"R 	c #D8CAB1",
"S 	c #D9CBB5",
"T 	c #D3C5AE",
"U 	c #C8BAA2",
"V 	c #BFB29A",
"W 	c #B0A38E",
"X 	c #C3BEB6",
"Y 	c #C2C1BE",
"Z 	c #D2D1D1",
"` 	c #C5C5C5",
" .	c #656565",
"..	c #C6C2BB",
"+.	c #A89D8A",
"@.	c #A6987E",
"#.	c #B6A689",
"$.	c #C8B799",
"%.	c #D7C6A9",
"&.	c #E0D1B7",
"*.	c #E2D5BE",
"=.	c #DDD0B9",
"-.	c #D1C2A8",
";.	c #BEAE93",
">.	c #B3A387",
",.	c #A9997C",
"'.	c #998B73",
").	c #7B7264",
"!.	c #B6B2AD",
"~.	c #D3D2D1",
"{.	c #C8C7C7",
"].	c #969696",
"^.	c #6C6C6C",
"/.	c #575757",
"(.	c #B4A488",
"_.	c #C5B498",
":.	c #D5C4A7",
"<.	c #E5D7C0",
"[.	c #E2D5BF",
"}.	c #D9CBB4",
"|.	c #CCBCA1",
"1.	c #BCAB8E",
"2.	c #AB9A80",
"3.	c #9E8D72",
"4.	c #938165",
"5.	c #86755B",
"6.	c #8C7E6B",
"7.	c #B7B2AC",
"8.	c #B4B3B3",
"9.	c #868686",
"0.	c #737373",
"a.	c #535353",
"b.	c #636363",
"c.	c #BFBFBF",
"d.	c #D3D3D2",
"e.	c #C1BEB8",
"f.	c #A49A86",
"g.	c #A5977E",
"h.	c #C4B295",
"i.	c #D4C3A6",
"j.	c #DECFB4",
"k.	c #E4D8C0",
"l.	c #E3D6BF",
"m.	c #DACBB5",
"n.	c #CEBEA4",
"o.	c #B8A587",
"p.	c #A9977B",
"q.	c #9E8B6F",
"r.	c #948164",
"s.	c #8D7A5D",
"t.	c #847157",
"u.	c #786B58",
"v.	c #68655F",
"w.	c #616161",
"x.	c #4B4B4B",
"y.	c #4A4A4A",
"z.	c #A8A8A8",
"A.	c #B9B6B1",
"B.	c #998F7D",
"C.	c #A3957B",
"D.	c #C3B294",
"E.	c #D1BFA1",
"F.	c #DECEB3",
"G.	c #E5D7BF",
"H.	c #E5D8C2",
"I.	c #DED0B7",
"J.	c #CFBFA5",
"K.	c #C5B396",
"L.	c #BDAA8B",
"M.	c #AF9C7E",
"N.	c #A49173",
"O.	c #9C896B",
"P.	c #958264",
"Q.	c #827054",
"R.	c #73634B",
"S.	c #5B5244",
"T.	c #44413E",
"U.	c #2F2F2F",
"V.	c #545454",
"W.	c #C4C3C0",
"X.	c #847B6D",
"Y.	c #9B8C73",
"Z.	c #D0BEA0",
"`.	c #DAC9AC",
" +	c #E3D5BD",
".+	c #E5D8C1",
"++	c #DFD2BC",
"@+	c #D3C3A9",
"#+	c #C6B497",
"$+	c #BEAB8C",
"%+	c #B5A182",
"&+	c #A69375",
"*+	c #978466",
"=+	c #937F62",
"-+	c #8C785B",
";+	c #816E52",
">+	c #736147",
",+	c #5E503A",
"'+	c #3F3A31",
")+	c #4F4E4D",
"!+	c #D5D5D3",
"~+	c #C5C2BA",
"{+	c #A49882",
"]+	c #B2A286",
"^+	c #D9C9AB",
"/+	c #E0D2B8",
"(+	c #E4D7C0",
"_+	c #E0D2BC",
":+	c #D4C6AE",
"<+	c #C7B699",
"[+	c #C0AC8D",
"}+	c #B7A485",
"|+	c #AA987A",
"1+	c #9F8C6E",
"2+	c #988466",
"3+	c #938062",
"4+	c #8E7B5E",
"5+	c #867255",
"6+	c #7B674B",
"7+	c #6C593F",
"8+	c #5C4B34",
"9+	c #5F5443",
"0+	c #AAA7A4",
"a+	c #D4D3D2",
"b+	c #B1A591",
"c+	c #B3A388",
"d+	c #C1AF92",
"e+	c #CFBD9E",
"f+	c #D9C8AA",
"g+	c #E3D7BF",
"h+	c #E0D3BD",
"i+	c #D7C8AF",
"j+	c #C9B89B",
"k+	c #C0AD8E",
"l+	c #B9A687",
"m+	c #AE9B7C",
"n+	c #A28E70",
"o+	c #988568",
"p+	c #938063",
"q+	c #877356",
"r+	c #7D694D",
"s+	c #715E43",
"t+	c #65533A",
"u+	c #584731",
"v+	c #645746",
"w+	c #BFBCB8",
"x+	c #BFBBB6",
"y+	c #A39783",
"z+	c #AE9D81",
"A+	c #BAA98B",
"B+	c #C4B394",
"C+	c #D0BFA1",
"D+	c #DACAB0",
"E+	c #DFD2BB",
"F+	c #D7C9B2",
"G+	c #CAB99E",
"H+	c #C2AF91",
"I+	c #BCA98A",
"J+	c #B19E7F",
"K+	c #9B886A",
"L+	c #8E7B5D",
"M+	c #877457",
"N+	c #7E6A4E",
"O+	c #746045",
"P+	c #68563B",
"Q+	c #5B4A32",
"R+	c #51412B",
"S+	c #5D5141",
"T+	c #BEBBB8",
"U+	c #C8C7C3",
"V+	c #958B7B",
"W+	c #A2937A",
"X+	c #B5A589",
"Y+	c #BFAF92",
"Z+	c #C7B598",
"`+	c #CDBEA2",
" @	c #D7CAB4",
".@	c #D5C7AF",
"+@	c #CBBA9F",
"@@	c #C3B092",
"#@	c #BEAA8B",
"$@	c #B6A283",
"%@	c #A89578",
"&@	c #9C896C",
"*@	c #887457",
"=@	c #806C50",
"-@	c #776347",
";@	c #6B593E",
">@	c #604E35",
",@	c #54432D",
"'@	c #4D3F2C",
")@	c #665D52",
"!@	c #C0BEBC",
"~@	c #D4D4D3",
"{@	c #C2BEB7",
"]@	c #9C8F79",
"^@	c #95866D",
"/@	c #A19278",
"(@	c #AD9E83",
"_@	c #C0B095",
":@	c #CDBFA7",
"<@	c #D4C8B3",
"[@	c #CCBEA9",
"}@	c #C5B398",
"|@	c #BFAD8E",
"1@	c #B7A384",
"2@	c #AB987A",
"3@	c #A08C6E",
"4@	c #968265",
"5@	c #907C5F",
"6@	c #8A765A",
"7@	c #806D51",
"8@	c #786549",
"9@	c #6F5D42",
"0@	c #66543A",
"a@	c #594831",
"b@	c #4F402A",
"c@	c #5A4E3D",
"d@	c #ABA8A3",
"e@	c #CBC9C6",
"f@	c #988F7F",
"g@	c #7C705B",
"h@	c #786D56",
"i@	c #7D715C",
"j@	c #837762",
"k@	c #978C77",
"l@	c #B5A995",
"m@	c #BFB199",
"n@	c #BBA98D",
"o@	c #B2A082",
"p@	c #AB9879",
"q@	c #A08D6F",
"r@	c #988567",
"s@	c #8D795C",
"t@	c #847053",
"u@	c #796549",
"v@	c #705D42",
"w@	c #69563C",
"x@	c #5F4D34",
"y@	c #52422C",
"z@	c #483924",
"A@	c #584C3C",
"B@	c #BCBAB7",
"C@	c #CAC8C5",
"D@	c #928A7B",
"E@	c #726754",
"F@	c #6F644F",
"G@	c #706551",
"H@	c #6F6551",
"I@	c #6E6450",
"J@	c #786D59",
"K@	c #877B64",
"L@	c #9E8E74",
"M@	c #A69376",
"N@	c #9B886B",
"O@	c #927F62",
"P@	c #907D60",
"Q@	c #867356",
"R@	c #7C684C",
"S@	c #6A573D",
"T@	c #625037",
"U@	c #57452E",
"V@	c #4C3C27",
"W@	c #453725",
"X@	c #5D554A",
"Y@	c #BEBDBB",
"Z@	c #BAB7B1",
"`@	c #787061",
" #	c #695E4B",
".#	c #6D624E",
"+#	c #6E634F",
"@#	c #6D634F",
"##	c #6A604C",
"$#	c #695F4A",
"%#	c #6C614C",
"&#	c #746852",
"*#	c #81745D",
"=#	c #918065",
"-#	c #8E7B5F",
";#	c #8A775A",
">#	c #8B785B",
",#	c #725F44",
"'#	c #6B583D",
")#	c #5C4B33",
"!#	c #4E3E29",
"~#	c #473723",
"{#	c #544838",
"]#	c #A9A6A1",
"^#	c #C4C4C3",
"/#	c #7A7771",
"(#	c #655C4D",
"_#	c #675D4A",
":#	c #6B614E",
"<#	c #6A614E",
"[#	c #655C49",
"}#	c #645B48",
"|#	c #665C48",
"1#	c #675D49",
"2#	c #685E4A",
"3#	c #6D624C",
"4#	c #796950",
"5#	c #826F53",
"6#	c #826F52",
"7#	c #7C684B",
"8#	c #6D5A40",
"9#	c #67543B",
"0#	c #53432C",
"a#	c #443624",
"b#	c #62584C",
"c#	c #BFBDBB",
"d#	c #B7B6B4",
"e#	c #817A6F",
"f#	c #685F4C",
"g#	c #635A47",
"h#	c #4B4433",
"i#	c #483F2F",
"j#	c #544935",
"k#	c #605642",
"l#	c #645A47",
"m#	c #625845",
"n#	c #655A45",
"o#	c #706046",
"p#	c #766449",
"q#	c #6F5D41",
"r#	c #69573C",
"s#	c #56452E",
"t#	c #433421",
"u#	c #514636",
"v#	c #D3D2D2",
"w#	c #BBB8B4",
"x#	c #837C6F",
"y#	c #665D4B",
"z#	c #5B5241",
"A#	c #403729",
"B#	c #3D3426",
"C#	c #453C2D",
"D#	c #514939",
"E#	c #605744",
"F#	c #635946",
"G#	c #615744",
"H#	c #635743",
"I#	c #665A44",
"J#	c #695940",
"K#	c #635138",
"L#	c #584730",
"M#	c #4E3D28",
"N#	c #463723",
"O#	c #423422",
"P#	c #5C5449",
"Q#	c #BEBCBA",
"R#	c #BAB8B3",
"S#	c #7E7769",
"T#	c #5B5343",
"U#	c #443D2F",
"V#	c #433B2B",
"W#	c #4C4434",
"X#	c #5C5340",
"Y#	c #685F4B",
"Z#	c #605643",
"`#	c #605540",
" $	c #5F5038",
".$	c #58462F",
"+$	c #4F3F2A",
"@$	c #433522",
"#$	c #5D5243",
"$$	c #ABA8A4",
"%$	c #B8B5B1",
"&$	c #787166",
"*$	c #554D3F",
"=$	c #52493A",
"-$	c #695E4A",
";$	c #726753",
">$	c #635A46",
",$	c #605644",
"'$	c #5B5240",
")$	c #594E3B",
"!$	c #52432E",
"~$	c #473824",
"{$	c #41321F",
"]$	c #4B3F2E",
"^$	c #938F89",
"/$	c #CBCBCA",
"($	c #B4B1AE",
"_$	c #6F6A60",
":$	c #696254",
"<$	c #675E4D",
"[$	c #756955",
"}$	c #665C4A",
"|$	c #625846",
"1$	c #5D5441",
"2$	c #58503E",
"3$	c #564C39",
"4$	c #50432F",
"5$	c #463724",
"6$	c #5F5649",
"7$	c #B9B7B4",
"8$	c #D2D2D1",
"9$	c #C2C1BF",
"0$	c #B2AFAB",
"a$	c #787267",
"b$	c #6E6657",
"c$	c #605746",
"d$	c #5A5141",
"e$	c #595040",
"f$	c #574D3D",
"g$	c #554C3B",
"h$	c #514938",
"i$	c #4F4534",
"j$	c #494030",
"k$	c #423827",
"l$	c #5D5244",
"m$	c #ACA9A4",
"n$	c #C3C2C0",
"o$	c #B0ADA9",
"p$	c #6D675C",
"q$	c #625B4F",
"r$	c #5F574B",
"s$	c #4A4236",
"t$	c #453E32",
"u$	c #453F31",
"v$	c #463F31",
"w$	c #4D4335",
"x$	c #938F8A",
"y$	c #C1C0BE",
"z$	c #BEBDBA",
"A$	c #ABA9A5",
"B$	c #5C574F",
"C$	c #4E4943",
"D$	c #534D43",
"E$	c #595347",
"F$	c #595248",
"G$	c #605A52",
"H$	c #B8B6B5",
"I$	c #D1D1D0",
"J$	c #BDBCBB",
"K$	c #BAB9B8",
"L$	c #BCBAB8",
"M$	c #BDBCB9",
"N$	c #BDBCBA",
"O$	c #BEBDBC",
". . . . . . . . . . . . . . . . . . . . . . . . . . . . . . . . . . . . . . . . . . . . . . . . ",
". . . . . . . . . . . . . . . . . . . . . . . . . . . . . . . . . . . . . . . . . . . . . . . . ",
". . . . . . . . . . . . . . . . . . . . . . . . . . . . . . . . . . . . . . . . . . . . . . . . ",
". . . . . . . . . . . . . . . . . . . . . . . . . . . . . . . . . . . . . . . . . . . . . . . . ",
". . . . . . . . . . . . . . . . . . . . . . . . . . . . . . . . . . . . . . . . . . . . . . . . ",
". . . . . . . . . . . . . . . . . . . . . . . . . . . . . . . . . . . . . . . . . . . . . . . . ",
". . . . . . . . . . . . . . . . . . . . . . . . . . . . . . . . . . . . . . . . . . . . . . . . ",
". . . . . . . . . . . . . . . . . . . . . . . . . . . . . . . . . . . . . . . . . . . . . . . . ",
". . . . . . . . . . . . . . . . . . . . . . . . . . . . . . . . . . . . . . . . . . . . . . . . ",
". . . . . . . . . . . . . . . . . . . . . . . . . + @ # $ $ % % % # @ + & . . . . . . . . . . . ",
". . . . . . . . . . . . . . . . . . . . . . . & * = - ; > , ' ) ! ' ~ { { % . . . . . . . . . . ",
". . . . . . . . . . . . . . . . . . . . . . % { ] ^ ; - / / ( _ : < [ } | [ $ . . . . . . . . . ",
". . . . . . . . . . . . . . . . . . . . . 1 2 3 4 ; _ 5 6 7 { ] 8 9 0 a b c d . . . . . . . . . ",
". . . . . . . . . . . . . . . . . . . e 1 f g h _ i j } k % . . $ { l ! - m d . . . . . . . . . ",
". . . . . . . . . . . . . . . . . . n o p q r s t u v w & . . . . & # 7 x 3 d . . . . . . . . . ",
". . . . . . . . . . . . . . . . . y z A B C D E F G H I J y & . . . # } b K 8 & . . . . . . . . ",
". . . . . . . . . . . . . . . . y L M N O P Q R S T U V W X Y Z . + ` < 3  ., & . . . . . . . . ",
". . . . . . . . . . . . . . . y ..+.@.#.$.%.&.*.=.-.;.>.,.'.).!.~.{.( ].^./.^ & . . . . . . . . ",
". . . . . . . . . . . . . . y L +.@.(._.:.&.<.[.}.|.1.2.3.4.5.6.7.8.9.0.a.b.c.& . . . . . . . . ",
". . . . . . . . . . . . . d.e.f.g.(.h.i.j.k.l.m.n.h.o.p.q.r.s.t.u.v.w.x.y.z.% . . . . . . . . . ",
". . . . . . . . . . . . % A.B.C.(.D.E.F.G.H.I.J.K.L.M.N.O.P.s.Q.R.S.T.U.V., & . . . . . . . . . ",
". . . . . . . . . . . e W.X.Y.>.D.Z.`. +.+++@+#+$+%+&+O.*+=+-+;+>+,+'+)+z.1 . . . . . . . . . . ",
". . . . . . . . . . . !+~+{+]+D.Z.^+/+(+_+:+<+[+}+|+1+2+3+4+5+6+7+8+9+0+# . . . . . . . . . . . ",
". . . . . . . . . . a+..b+c+d+e+f+&.g+h+i+j+k+l+m+n+o+p+4+q+r+s+t+u+v+w+& . . . . . . . . . . . ",
". . . . . . . . . d.x+y+z+A+B+C+D+E+++F+G+H+I+J+N.K+p+L+M+N+O+P+Q+R+S+T+& . . . . . . . . . . . ",
". . . . . . . . . U+V+W+X+Y+Z+`+T  @.@+@@@#@$@%@&@r.4+*@=@-@;@>@,@'@)@!@& . . . . . . . . . . . ",
". . . . . . . . ~@{@]@^@/@(@_@:@<@[@}@|@I+1@2@3@4@5@6@7@8@9@0@a@b@c@d@Z . . . . . . . . . . . . ",
". . . . . . . . e@f@g@h@g@i@j@k@l@m@n@o@J+p@q@r@3+s@t@u@v@w@x@y@z@A@B@& . . . . . . . . . . . . ",
". . . . . . . . C@D@E@F@G@H@I@G@J@K@L@p.M@N@O@P@s.Q@R@s+S@T@U@V@W@X@Y@& . . . . . . . . . . . . ",
". . . . . . . . ~@Z@`@ #.#+#@###$#%#&#*#=#-#;#>#Q@r+,#'#0@)#!#~#{#]#1 . . . . . . . . . . . . . ",
". . . . . . . . e ^#/#(#_#:#<#[#}#|#1#2#3#4#5#6#7#,#8#9#x@0#z@a#b#c#& . . . . . . . . . . . . . ",
". . . . . . . . . $ d#e#f#1#g#h#i#j#k#l#m#n#o#p#q#r#0@x@s#V@t#u#]#Z . . . . . . . . . . . . . . ",
". . . . . . . . . . v#w#x#y#z#A#B#C#D#E#F#G#H#I#J#K#x@L#M#N#O#P#Q#& . . . . . . . . . . . . . . ",
". . . . . . . . . . . a+R#S#T#U#V#W#X#Y#|#m#G#Z#`# $.$+$~#@$#$$$1 . . . . . . . . . . . . . . . ",
". . . . . . . . . . . . d.%$&$*$=$z#-$;$-$l#>$,$'$)$!$~${$]$^$/$& . . . . . . . . . . . . . . . ",
". . . . . . . . . . . . . v#($_$:$<$G@[$}$|$E#1$2$3$4$5$O#6$7$* . . . . . . . . . . . . . . . . ",
". . . . . . . . . . . . . . 8$9$0$a$b$c$d$e$f$g$h$i$j$k$l$m$Z . . . . . . . . . . . . . . . . . ",
". . . . . . . . . . . . . . . & ~.n$o$p$q$r$s$t$u$v$U#w$x$/$& . . . . . . . . . . . . . . . . . ",
". . . . . . . . . . . . . . . . . & Z y$z$A$B$C$D$E$F$G$H$* . . . . . . . . . . . . . . . . . . ",
". . . . . . . . . . . . . . . . . . . & & I$J$K$L$M$N$O$Z . . . . . . . . . . . . . . . . . . . ",
". . . . . . . . . . . . . . . . . . . . . . & & & & & & . . . . . . . . . . . . . . . . . . . . ",
". . . . . . . . . . . . . . . . . . . . . . . . . . . . . . . . . . . . . . . . . . . . . . . . ",
". . . . . . . . . . . . . . . . . . . . . . . . . . . . . . . . . . . . . . . . . . . . . . . . ",
". . . . . . . . . . . . . . . . . . . . . . . . . . . . . . . . . . . . . . . . . . . . . . . . ",
". . . . . . . . . . . . . . . . . . . . . . . . . . . . . . . . . . . . . . . . . . . . . . . . ",
". . . . . . . . . . . . . . . . . . . . . . . . . . . . . . . . . . . . . . . . . . . . . . . . ",
". . . . . . . . . . . . . . . . . . . . . . . . . . . . . . . . . . . . . . . . . . . . . . . . ",
". . . . . . . . . . . . . . . . . . . . . . . . . . . . . . . . . . . . . . . . . . . . . . . . "};
