/* XPM */
static char *file_32x32[] = {
/* columns rows colors chars-per-pixel */
"32 32 23 1",
"  c #0C0C0C",
". c gray20",
"X c gray30",
"o c #555555",
"O c #777777",
"+ c navy",
"@ c #000099",
"# c blue",
"$ c #008000",
"% c green",
"& c cyan",
"* c #800000",
"= c red",
"- c #800080",
"; c #CC9933",
": c #FFCC33",
"> c yellow",
", c #868686",
"< c gray60",
"1 c gray80",
"2 c #E7E7D6",
"3 c gray100",
"4 c None",
/* pixels */
"444,,,,,,,,,,,,,,,,,,,<444444444",
"444,222222222222222222<o44444444",
"444,233333333333333333<1o4444444",
"444,233333333333333333<21o444444",
"444,233333333333333333<321o44444",
"444,233333333333333333<3321o4444",
"444,233333333333333333<XX....444",
"444,233333333333333333321<OOo444",
"444,233,,,,,,,,,,,,,,,,, 1<Oo444",
"444,233,:@@@@@@@@@3+3+3+ 21<o444",
"444,233,;@@@@@@@@@++++++ 321o444",
"444,233,1111111111111111 331o444",
"444,233,2222222222222221 331o444",
"444,233,2333333333333321 331o444",
"444,233,2333333333333321 331o444",
"444,233,233=*3#3333$3321 331o444",
"444,233,23=4*3&##33$$321 331o444",
"444,233,23*=*3##13$%#321 331o444",
"444,233,231*331--3$$$321 331o444",
"444,233,2333333333333321 331o444",
"444,233,23,,,3,,,3,,,321 331o444",
"444,233,2333333333333321 331o444",
"444,233,2222222222222221 331X444",
"444,233,1111111111111111 331o444",
"444,233                  331o444",
"444,233333333333333333333331o444",
"444,233333333333333333333331o444",
"444,233333333333333333333331o444",
"444,233333333333333333333331o444",
"444,233333333333333333333331o444",
"444,211111111111111111111111o444",
"444oooooooooooooooooooooooooo444"
};
