/* XPM */
static char *mplayer_16x16[] = {
"16 16 30 1",
"  c #131212",
". c #4D6316",
"X c #434244",
"o c #757374",
"O c #1125A3",
"+ c #294BB7",
"@ c #1960D2",
"# c #5270D0",
"$ c #69AA00",
"% c #679613",
"& c #7BC800",
"* c #44A2F1",
"= c #8B7921",
"- c #8D781F",
"; c #F64119",
": c #F95027",
"> c #FE724E",
", c #E7BD17",
"< c #E6C52F",
"1 c #EBCC4C",
"2 c #94CA3E",
"3 c #898A88",
"4 c #A5A5A5",
"5 c none",
"8 c #F4DF84",
"9 c #D1CFCD",
"0 c #FCFBFB",
"q c #F0F0EA",
"w c #DBE4DF",
"e c #F9B6A5",
"55555;;$$$555555",
"555;:::&$$%35555",
"55;:>>>2&&$.3555",
"5;:>e59w92$%.o55",
"5;>eqX9qqq4%..55",
";:>9qXoo90q%%.o5",
";:>wqXX  X02%Xo5",
"@@*wqX   9q1<=o5",
"@@*w0  4w001<-o5",
"@@@*q390008<,-o5",
"3+@@*w00q11<=355",
"53O+@@#<11<,-355",
"553OO++,<,==3555",
"5553OOO--=335555",
"5555333333555555",
"5555555555555555"
};
