/* XPM */
static char *reboot-32_16x16[] = {
/* columns rows colors chars-per-pixel */
"16 16 32 1",
"  c black",
". c #147A14",
"X c #068706",
"o c #1A891A",
"O c #148E14",
"+ c #049A04",
"@ c #0AA90A",
"# c #1AA91A",
"$ c #228222",
"% c #279327",
"& c #2A9A2A",
"* c #349A34",
"= c #28B028",
"- c #24BA24",
"; c #39A039",
": c #26A726",
"> c #4AA64A",
", c #44A244",
"< c #49BA49",
"1 c #58AC58",
"2 c #5FB95F",
"3 c #65B265",
"4 c #69B769",
"5 c #75BB75",
"6 c #60C860",
"7 c #7CC37C",
"8 c #86C486",
"9 c #9ACE9A",
"0 c #B0D298",
"q c #A4D2A4",
"w c gray100",
"e c None",
/* pixels */
"ewwwwwwwwwwwwwwe",
"w085313111,,**0w",
"w897543qq111>*.w",
"w777531ww,,>**$w",
"w355w8>ww*4w,&ow",
"w1438w4531w3%&$w",
"w131151**,1#&%$w",
"w>9ww5,*;*<ww7ow",
"w,9ww5>;:=2ww7ow",
"w,>1>51;;><=##Ow",
"w*>>8w4572w6#@ow",
"w%*1w5;ww=6w-@Ow",
"w%**1,*ww==-#@Xw",
"wo&&*&&87:#@@+Xw",
"w0.$$$$ooOXXXX0w",
"ewwwwwwwwwwwwwwe"
};
