/* XPM */
static char *close_xpm[] = {
"20 40 3 1",
"  c #c0c0c0",
"W c #FFFFFF",
"D c #808080",
"                    ",
"                    ",
"  WWWWWWWWWWWWWWW   ",
"  W              D  ",
"  W DDDDDDDDD    D  ",
"  W D        W   D  ",
"  W D       W D  D  ",
"  W D      W D W D  ",
"  W D     W D  W D  ",
"  W D    W D   W D  ",
"  W D   W D    W D  ",
"  W D  W D     W D  ",
"  W D W D      W D  ",
"  W  W D       W D  ",
"  W   D        W D  ",
"  W    WWWWWWWWW D  ",
"  W              D  ",
"   DDDDDDDDDDDDDDD  ",
"                    ",
"                    ",
"                    ",
"                    ",
"  DDDDDDDDDDDDDDD   ",
"  D              W  ",
"  D WWWWWWWWW    W  ",
"  D W        D   W  ",
"  D W       D W  W  ",
"  D W      D W D W  ",
"  D W     D W  D W  ",
"  D W    D W   D W  ",
"  D W   D W    D W  ",
"  D W  D W     D W  ",
"  D W D W      D W  ",
"  D  D W       D W  ",
"  D   W        D W  ",
"  D    DDDDDDDDD W  ",
"  D              W  ",
"   WWWWWWWWWWWWWWW  ",
"                    ",
"                    "};
