/* XPM */
static char *hide_xpm[] = {
"20 40 3 1",
"  c #C0C0C0",
"W c #FFFFFF",
"D c #808080",
"                    ",
"                    ",
"                    ",
"                    ",
"    WWWWW  WWWW     ",
"    W   D  W   D    ",
"    W DDD   D  D    ",
"    W D      W D    ",
"    WDD      WDD    ",
"                    ",
"                    ",
"    WWD      WW     ",
"    W D      W D    ",
"    W  WW  WWW D    ",
"    W   D  W   D    ",
"     DDDD   DDDD    ",
"                    ",
"                    ",
"                    ",
"                    ",
"                    ",
"                    ",
"                    ",
"                    ",
"    DDDDD  DDDD     ",
"    D   W  D   W    ",
"    D WWW   W  W    ",
"    D W      D W    ",
"    DWW      DWW    ",
"                    ",
"                    ",
"    DDW      DD     ",
"    D W      D W    ",
"    D  DD  DDD W    ",
"    D   W  D   W    ",
"     WWWW   WWWW    ",
"                    ",
"                    ",
"                    ",
"                    "};
