/* XPM */
static char *maximize_xpm[] = {
"20 40 3 1",
"  c #c0c0c0",
"W c #FFFFFF",
"D c #808080",
"                    ",
"                    ",
"  WWWWWWWWWWWWWWW   ",
"  W              D  ",
"  W DDDDDDDDDDD  D  ",
"  W D          W D  ",
"  W D          W D  ",
"  W D          W D  ",
"  W D          W D  ",
"  W D          W D  ",
"  W D          W D  ",
"  W D          W D  ",
"  W D          W D  ",
"  W D          W D  ",
"  W D          W D  ",
"  W  WWWWWWWWWWW D  ",
"  W              D  ",
"   DDDDDDDDDDDDDDD  ",
"                    ",
"                    ",
"                    ",
"                    ",
"  DDDDDDDDDDDDDDD   ",
"  D              W  ",
"  D WWWWWWWWWWW  W  ",
"  D W          D W  ",
"  D W          D W  ",
"  D W          D W  ",
"  D W          D W  ",
"  D W          D W  ",
"  D W          D W  ",
"  D W          D W  ",
"  D W          D W  ",
"  D W          D W  ",
"  D W          D W  ",
"  D  DDDDDDDDDDD W  ",
"  D              W  ",
"   WWWWWWWWWWWWWWW  ",
"                    ",
"                    "};
