/* XPM */
static char * restoreO_xpm[] = {
"24 52 599 2",
"  	c None",
". 	c #0465F0",
"+ 	c #0765ED",
"@ 	c #0C65E7",
"# 	c #0B63E1",
"$ 	c #0C64E2",
"% 	c #0C64E0",
"& 	c #0B65E0",
"* 	c #0965E4",
"= 	c #0766E8",
"- 	c #0466EF",
"; 	c #0971F4",
"> 	c #065CE3",
", 	c #0C5BD4",
"' 	c #175BC0",
") 	c #1C59B4",
"! 	c #1C59B2",
"~ 	c #1D59B1",
"{ 	c #1D58B2",
"] 	c #1859BD",
"^ 	c #055BE2",
"/ 	c #1058D0",
"( 	c #5D97FB",
"_ 	c #BFF1FF",
": 	c #D6FFFF",
"< 	c #D5FFFF",
"[ 	c #D4FFFF",
"} 	c #CFFFFF",
"| 	c #5A98FF",
"1 	c #1158CE",
"2 	c #005CEB",
"3 	c #5D95F6",
"4 	c #EFFDFF",
"5 	c #B5D8FE",
"6 	c #A4CCFC",
"7 	c #97C5FB",
"8 	c #8BBFFB",
"9 	c #84BBFB",
"0 	c #7CB8FB",
"a 	c #7FB9FB",
"b 	c #77B3FB",
"c 	c #76B4FB",
"d 	c #73B1FB",
"e 	c #70B2FB",
"f 	c #65A9FA",
"g 	c #65ABFA",
"h 	c #61A9FB",
"i 	c #57A1FA",
"j 	c #4D99F8",
"k 	c #61A7F8",
"l 	c #E8FBFF",
"m 	c #6194EF",
"n 	c #0058E6",
"o 	c #B9D9FE",
"p 	c #CEE5FF",
"q 	c #CDE8FF",
"r 	c #C0E1FF",
"s 	c #B1D9FF",
"t 	c #A9D5FF",
"u 	c #A1D0FF",
"v 	c #9DD0FF",
"w 	c #9BCDFF",
"x 	c #96CCFF",
"y 	c #94CAFF",
"z 	c #8EC7FF",
"A 	c #8AC6FF",
"B 	c #81C2FF",
"C 	c #79BDFF",
"D 	c #6AB4FF",
"E 	c #5AA9FE",
"F 	c #4D97F6",
"G 	c #6897E2",
"H 	c #C6EFFF",
"I 	c #0056E4",
"J 	c #D9FFFF",
"K 	c #A9CEFC",
"L 	c #D0E9FF",
"M 	c #D2EBFF",
"N 	c #C6E3FF",
"O 	c #B8DCFF",
"P 	c #AFD7FF",
"Q 	c #A8D3FF",
"R 	c #A3D0FF",
"S 	c #A0CDFF",
"T 	c #9CCDFF",
"U 	c #9BCBFF",
"V 	c #96C9FF",
"W 	c #8FC7FF",
"X 	c #87C2FF",
"Y 	c #7DBFFF",
"Z 	c #71B8FF",
"` 	c #61AEFE",
" .	c #549CF7",
"..	c #4379CF",
"+.	c #DBFFFF",
"@.	c #0054E3",
"#.	c #9BC7FB",
"$.	c #C5E3FF",
"%.	c #C8E5FF",
"&.	c #BFDEFF",
"*.	c #B1D6FF",
"=.	c #A7D1FF",
"-.	c #93C0FB",
";.	c #86B4F7",
">.	c #80AEF5",
",.	c #7AABF6",
"'.	c #76AAF6",
").	c #6EA7F5",
"!.	c #6EA8F7",
"~.	c #67A3F6",
"{.	c #5F9EF6",
"].	c #68B1FE",
"^.	c #5DABFE",
"/.	c #559DF7",
"(.	c #4A7CD1",
"_.	c #0055E4",
":.	c #93C1FB",
"<.	c #B6DBFF",
"[.	c #BADCFF",
"}.	c #A4D0FF",
"|.	c #9CCAFF",
"1.	c #FFFFFF",
"2.	c #4F96F5",
"3.	c #59A9FE",
"4.	c #55A6FE",
"5.	c #59A0F8",
"6.	c #5081D5",
"7.	c #D8FFFF",
"8.	c #8BBFFC",
"9.	c #AAD5FF",
"0.	c #AED6FF",
"a.	c #9ECCFF",
"b.	c #96C6FF",
"c.	c #7CAFF9",
"d.	c #4893F6",
"e.	c #54A7FE",
"f.	c #55A7FE",
"g.	c #4F83D5",
"h.	c #84B9FB",
"i.	c #A6D1FF",
"j.	c #90BDF9",
"k.	c #87B3F7",
"l.	c #7FADF6",
"m.	c #74A9F6",
"n.	c #B1D5FF",
"o.	c #B3D7FF",
"p.	c #ABD4FF",
"q.	c #A2D2FF",
"r.	c #3A8CF4",
"s.	c #4DA7FF",
"t.	c #52A6FE",
"u.	c #559EF8",
"v.	c #83B9FC",
"w.	c #99CAFF",
"x.	c #9DCCFF",
"y.	c #87B5F7",
"z.	c #99CEFF",
"A.	c #A7D6FF",
"B.	c #378FF6",
"C.	c #45A4FE",
"D.	c #4BA7FE",
"E.	c #54A0F8",
"F.	c #4D80D5",
"G.	c #0055E6",
"H.	c #74B2FB",
"I.	c #97C9FF",
"J.	c #84B4F7",
"K.	c #A6D4FF",
"L.	c #A6D5FF",
"M.	c #3592F6",
"N.	c #41A6FE",
"O.	c #46A6FE",
"P.	c #50A0F9",
"Q.	c #4880D5",
"R.	c #0056E9",
"S.	c #6BAEFB",
"T.	c #86C1FF",
"U.	c #8FC5FF",
"V.	c #7FB1F7",
"W.	c #B4D8FF",
"X.	c #AFD6FF",
"Y.	c #A0D1FF",
"Z.	c #B1D3FB",
"`.	c #A8D1FB",
" +	c #3196F6",
".+	c #3EA8FF",
"++	c #43A7FE",
"@+	c #4B9EF8",
"#+	c #437DD5",
"$+	c #0057EC",
"%+	c #65AAFB",
"&+	c #7FBDFF",
"*+	c #8AC3FF",
"=+	c #7CAFF7",
"-+	c #B8DBFF",
";+	c #B4D9FF",
">+	c #ABD6FF",
",+	c #A1D1FF",
"'+	c #3099F7",
")+	c #35AAFF",
"!+	c #37A7FE",
"~+	c #419EF8",
"{+	c #3E7CD5",
"]+	c #0059EE",
"^+	c #5CA4FB",
"/+	c #73B9FF",
"(+	c #81BEFF",
"_+	c #79ABF3",
":+	c #AFD8FF",
"<+	c #A8D5FF",
"[+	c #77AFF7",
"}+	c #71AAF7",
"|+	c #359EF7",
"1+	c #2E9CF7",
"2+	c #31ADFF",
"3+	c #30A7FE",
"4+	c #3799F8",
"5+	c #387AD5",
"6+	c #005BF2",
"7+	c #D2FFFF",
"8+	c #509EFB",
"9+	c #68B3FF",
"0+	c #BBD5FB",
"a+	c #BFD9FB",
"b+	c #BBD8FB",
"c+	c #B8D7FB",
"d+	c #B0D5FC",
"e+	c #31A0F6",
"f+	c #3CB6FF",
"g+	c #31B1FF",
"h+	c #2CAEFF",
"i+	c #28A6FE",
"j+	c #2E98F8",
"k+	c #3376D4",
"l+	c #025FF8",
"m+	c #D1FFFF",
"n+	c #4698FA",
"o+	c #5FAEFF",
"p+	c #7AAEF4",
"q+	c #30A1F8",
"r+	c #38B5FF",
"s+	c #2CB2FF",
"t+	c #21ABFF",
"u+	c #1FA2FE",
"v+	c #2593F7",
"w+	c #2C71D1",
"x+	c #0061F8",
"y+	c #3C93FA",
"z+	c #54A6FF",
"A+	c #70A2EB",
"B+	c #6A99E4",
"C+	c #5796EE",
"D+	c #5597EE",
"E+	c #5297EF",
"F+	c #4D99F0",
"G+	c #4198F0",
"H+	c #31A4FA",
"I+	c #4DB9FE",
"J+	c #2AB1FF",
"K+	c #1DAAFF",
"L+	c #17A0FE",
"M+	c #1B8EF7",
"N+	c #266DD0",
"O+	c #0064F8",
"P+	c #CEFFFF",
"Q+	c #3590F9",
"R+	c #459EFE",
"S+	c #6DAFFD",
"T+	c #65A9FC",
"U+	c #67AAFB",
"V+	c #64ABFB",
"W+	c #61ABFB",
"X+	c #5AAEFC",
"Y+	c #4FAFFD",
"Z+	c #55B4FC",
"`+	c #45B3FE",
" @	c #33B0FF",
".@	c #23ADFF",
"+@	c #17A4FF",
"@@	c #129BFE",
"#@	c #198AF7",
"$@	c #256BD0",
"%@	c #046AFD",
"&@	c #CDFFFF",
"*@	c #2A88F7",
"=@	c #3896FD",
"-@	c #4B9EFE",
";@	c #59A4FD",
">@	c #43ABFE",
",@	c #37A9FE",
"'@	c #2AA7FE",
")@	c #149BFE",
"!@	c #0E93FD",
"~@	c #1484F4",
"{@	c #2167C9",
"]@	c #026AFD",
"^@	c #B6F5FF",
"/@	c #4B9CF8",
"(@	c #3386F4",
"_@	c #3F8EF4",
":@	c #4A93F6",
"<@	c #5297F6",
"[@	c #4D98F6",
"}@	c #4B99F6",
"|@	c #4599F7",
"1@	c #3F9BF7",
"2@	c #389BF7",
"3@	c #3198F7",
"4@	c #2A96F8",
"5@	c #2392F7",
"6@	c #198BF6",
"7@	c #1779E9",
"8@	c #4686DA",
"9@	c #056DFF",
"0@	c #5AA1FF",
"a@	c #E6FBFF",
"b@	c #5C90DF",
"c@	c #3570CD",
"d@	c #4176D1",
"e@	c #4377D0",
"f@	c #3F79D2",
"g@	c #3A76D0",
"h@	c #3877D2",
"i@	c #3174D1",
"j@	c #3176D4",
"k@	c #2C71D3",
"l@	c #286ED3",
"m@	c #2367CE",
"n@	c #4384DC",
"o@	c #E6FAFF",
"p@	c #639FFF",
"q@	c #1762DF",
"r@	c #659AF8",
"s@	c #C1F0FF",
"t@	c #639AFE",
"u@	c #1C62D4",
"v@	c #0466FB",
"w@	c #0D5DEA",
"x@	c #125CE3",
"y@	c #155BDF",
"z@	c #165BDC",
"A@	c #165BDD",
"B@	c #165CDE",
"C@	c #165ADF",
"D@	c #055FF4",
"E@	c #0349CB",
"F@	c #0449CB",
"G@	c #0349CD",
"H@	c #044ACC",
"I@	c #054ECF",
"J@	c #164398",
"K@	c #184298",
"L@	c #164299",
"M@	c #164499",
"N@	c #1B57AF",
"O@	c #1A57B4",
"P@	c #1657BB",
"Q@	c #0F58C9",
"R@	c #0559DD",
"S@	c #343F4A",
"T@	c #3B4A5B",
"U@	c #3E5268",
"V@	c #405874",
"W@	c #415C7B",
"X@	c #406183",
"Y@	c #415E80",
"Z@	c #406288",
"`@	c #406289",
" #	c #40638C",
".#	c #3F668F",
"+#	c #3E699A",
"@#	c #3D6A9E",
"##	c #3A6EA8",
"$#	c #376EB2",
"%#	c #3D6B9E",
"&#	c #333B46",
"*#	c #272C31",
"=#	c #282D32",
"-#	c #2F373F",
";#	c #36424E",
">#	c #384856",
",#	c #3B4D5E",
"'#	c #3C5062",
")#	c #3C5164",
"!#	c #3D5469",
"~#	c #3E556B",
"{#	c #3E5871",
"]#	c #3F5B75",
"^#	c #3F5F7E",
"/#	c #3F6486",
"(#	c #3D6B95",
"_#	c #3A6FA5",
":#	c #3A4656",
"<#	c #262B2F",
"[#	c #25292D",
"}#	c #2C3239",
"|#	c #333D47",
"1#	c #364350",
"2#	c #394857",
"3#	c #3A4B5C",
"4#	c #3B4D5F",
"5#	c #3C5063",
"6#	c #3C5064",
"7#	c #3D5369",
"8#	c #3E5870",
"9#	c #3F5B78",
"0#	c #3F6282",
"a#	c #3E678E",
"b#	c #3C6C9E",
"c#	c #3A6CAB",
"d#	c #3D4F64",
"e#	c #2C333A",
"f#	c #2B3137",
"g#	c #2F3740",
"h#	c #36414E",
"i#	c #394858",
"j#	c #3F536C",
"k#	c #415979",
"l#	c #425A7F",
"m#	c #425C85",
"n#	c #426089",
"o#	c #416391",
"p#	c #406291",
"q#	c #3F6598",
"r#	c #3E67A0",
"s#	c #3E6A97",
"t#	c #3B6EA2",
"u#	c #3A6CAA",
"v#	c #343E49",
"w#	c #323B45",
"x#	c #3A4A5B",
"y#	c #3C4E63",
"z#	c #FFFFFE",
"A#	c #396EB0",
"B#	c #3A6FA6",
"C#	c #3971AA",
"D#	c #3B6BA6",
"E#	c #384755",
"F#	c #374351",
"G#	c #3C4E61",
"H#	c #3D5269",
"I#	c #415D83",
"J#	c #356FB7",
"K#	c #3871AB",
"L#	c #415A7B",
"M#	c #394959",
"N#	c #40556F",
"O#	c #415778",
"P#	c #425A80",
"Q#	c #41608B",
"R#	c #35404C",
"S#	c #384654",
"T#	c #3B4C5D",
"U#	c #2F72C5",
"V#	c #3576B2",
"W#	c #3871AD",
"X#	c #3A6FAA",
"Y#	c #405B7C",
"Z#	c #3D5166",
"`#	c #3C4E62",
" $	c #415878",
".$	c #3D5366",
"+$	c #394A58",
"@$	c #2D76C8",
"#$	c #3378BA",
"$$	c #3577B4",
"%$	c #3A6FAB",
"&$	c #40638B",
"*$	c #3D5268",
"=$	c #425A7B",
"-$	c #394A59",
";$	c #2B79CA",
">$	c #317DBE",
",$	c #337BB9",
"'$	c #3872AF",
")$	c #3F6794",
"!$	c #3F5B79",
"~$	c #3E5770",
"{$	c #425C80",
"]$	c #343F4B",
"^$	c #37414E",
"/$	c #3A4857",
"($	c #297ECE",
"_$	c #2E81C1",
":$	c #327CBC",
"<$	c #3774B4",
"[$	c #3F5F80",
"}$	c #3F5975",
"|$	c #425D83",
"1$	c #333C47",
"2$	c #2882CF",
"3$	c #2988CA",
"4$	c #2B84C8",
"5$	c #317ABE",
"6$	c #3C6CA3",
"7$	c #3F668C",
"8$	c #3F5E7E",
"9$	c #425F86",
"0$	c #416188",
"a$	c #41638E",
"b$	c #2B85CA",
"c$	c #2787D1",
"d$	c #278DCE",
"e$	c #278ACF",
"f$	c #2C7DC8",
"g$	c #3870AF",
"h$	c #3D6B97",
"i$	c #323A44",
"j$	c #303740",
"k$	c #343C47",
"l$	c #37434F",
"m$	c #2986CE",
"n$	c #2D8CC3",
"o$	c #2791CE",
"p$	c #2493D3",
"q$	c #2290D7",
"r$	c #2783D1",
"s$	c #3472B9",
"t$	c #3B6DA0",
"u$	c #426085",
"v$	c #288ACF",
"w$	c #2B8EC7",
"x$	c #1C97DE",
"y$	c #1C8FE0",
"z$	c #2185DA",
"A$	c #2F74C3",
"B$	c #3870AB",
"C$	c #44648F",
"D$	c #456595",
"E$	c #3D6AA8",
"F$	c #3D6DAA",
"G$	c #3B6EAD",
"H$	c #3972B2",
"I$	c #347BBE",
"J$	c #2889CE",
"K$	c #3682B2",
"L$	c #2394D5",
"M$	c #1998E2",
"N$	c #1596E8",
"O$	c #1986E4",
"P$	c #2B76CA",
"Q$	c #3375BA",
"R$	c #3E6692",
"S$	c #3E6898",
"T$	c #3E699B",
"U$	c #3D6D9E",
"V$	c #3B74A5",
"W$	c #377BB0",
"X$	c #397BAA",
"Y$	c #3385BA",
"Z$	c #2890CC",
"`$	c #1E96DC",
" %	c #1496E8",
".%	c #1192ED",
"+%	c #1782E6",
"@%	c #2477D5",
"#%	c #2C78C7",
"$%	c #3571B4",
"%%	c #3A6DA6",
"&%	c #327FBC",
"*%	c #2B87C8",
"=%	c #2390D5",
"-%	c #1392EB",
";%	c #0E8EF1",
">%	c #1382EB",
",%	c #3771B4",
"'%	c #2B73CC",
")%	c #3171C0",
"!%	c #366FB5",
"~%	c #396AAD",
"{%	c #3476BA",
"]%	c #317BC0",
"^%	c #2D80C7",
"/%	c #2982CE",
"(%	c #2484D5",
"_%	c #1F85DC",
":%	c #1779E8",
"<%	c #4369A3",
"[%	c #3470CA",
"}%	c #3B6CBE",
"|%	c #3D6CBC",
"1%	c #396FC0",
"2%	c #3770C5",
"3%	c #3572C7",
"4%	c #3073CE",
"5%	c #2F72CE",
"6%	c #2C73D3",
"7%	c #2972D7",
"8%	c #256EDC",
"9%	c #3973BC",
"0%	c #1258DC",
"a%	c #165CE0",
"b%	c #1256DB",
"c%	c #0F57DF",
"d%	c #0955E7",
"e%	c #074DCF",
"f%	c #064CCE",
"g%	c #0448CD",
"h%	c #0548CD",
". + @ # $ % $ % $ $ $ $ $ % $ % & & * = - ; ; ; ",
"> , ' ) ! ~ { ~ { { { { { ~ { ~ ~ ~ ] , ^ . . . ",
"/ ( _ : : : : < < < < < < < < [ [ [ } | 1 2 2 2 ",
"3 4 5 6 7 8 9 0 a b c d e f g h i j k l m n n n ",
": o p q r s t u v w x y z A B C D E F G H I I I ",
"J K L M N O P Q R S T U V W X Y Z `  ...+.@.@.@.",
"+.#.$.%.&.*.=.-.;.>.,.'.).!.~.{.].^./.(.+._._._.",
"J :.<.[.*.}.|.>.1.1.1.1.1.1.1.2.3.4.5.6.+._._._.",
"7.8.9.0.=.a.b.c.1.1.1.1.1.1.1.d.e.f.5.g.+._._._.",
"7.h.R i.j.k.l.m.1.n.o.p.Q q.1.r.s.t.u.g.+._._._.",
": v.w.x.y.1.1.1.1.1.1.1.z.A.1.B.C.D.E.F.+.G.G.G.",
": H.W I.J.1.1.1.1.1.1.1.K.L.1.M.N.O.P.Q.+.R.R.R.",
"< S.T.U.V.1.n.W.X.9.Y.1.Z.`.1. +.+++@+#+J $+$+$+",
"< %+&+*+=+1.-+;+>+,+A.1.1.1.1.'+)+!+~+{+7.]+]+]+",
"[ ^+/+(+_+1.-+;+:+<+A.1.[+}+|+1+2+3+4+5+: 6+6+6+",
"7+8+9+(+_+1.0+a+b+c+d+1.e+f+f+g+h+i+j+k+: l+l+l+",
"m+n+o+(+p+1.1.1.1.1.1.1.q+r+r+s+t+u+v+w+< x+x+x+",
"} y+z+(+p+A+B+C+D+E+F+G+H+I+r+J+K+L+M+N+< O+O+O+",
"P+Q+R+3.S+T+U+%+V+W+X+Y+Z+`+ @.@+@@@#@$@< %@%@%@",
"&@*@=@-@;@T+U+%+V+W+X+Y+>@,@'@u+)@!@~@{@< ]@]@]@",
"^@/@(@_@:@<@<@F [@}@|@1@2@3@4@5@6@~@7@8@7+9@9@9@",
"0@a@b@c@d@d@e@d@f@f@g@h@i@j@k@l@l@m@n@o@p@%@%@%@",
"q@r@J J J +.+.J J J J 7.: 7.: 7.7.7.s@t@u@v@v@v@",
"w@x@y@z@z@z@z@A@A@A@A@A@A@B@y@C@C@A@y@x@w@D@D@D@",
"E@E@E@E@E@E@F@F@E@E@G@G@H@E@G@E@E@E@E@E@E@I@I@I@",
"J@J@J@J@J@J@K@K@J@J@L@L@J@J@L@J@J@J@J@J@J@M@M@M@",
". + @ # $ % $ % $ $ $ $ $ % $ % & & * = - ; ; ; ",
"> , ' ) ! ~ { ~ { { { { { ~ { ~ N@O@P@Q@R@. . . ",
"/ ( _ : : : : < < < < < < < < [ [ [ } | 1 2 2 2 ",
"3 4 S@T@U@V@W@X@Y@Z@`@ #.#+#+#@###$#%#l m n n n ",
": &#*#=#-#;#>#,#'#)#!#~#{#]#^#/#(#_#$#G H I I I ",
"J :#<#[#}#|#1#2#3#4#5#6#7#8#9#0#a#b#c#..+.@.@.@.",
"+.d#e#f#g#h#i#j#k#l#m#n#o#p#q#r#s#t#u#(.+._._._.",
"J j#v#w#h#x#y#l#z#z#z#z#z#z#z#A#B#C#D#6.+._._._.",
"7.V@E#F#i#G#H#I#z#z#z#z#z#z#z#J#K#C#D#g.+._._._.",
"7.L#3#M#N#O#P#Q#z#h#R#S#2#T#z#U#V#W#X#g.+._._._.",
": Y#Z#`# $z#z#z#z#z#z#z#.$+$z#@$#$$$%$F.+.G.G.G.",
": &$8#*$=$z#z#z#z#z#z#z#-$-$z#;$>$,$'$Q.+.R.R.R.",
"< )$!$~${$z#h#]$1#E#4#z#^$/$z#($_$:$<$#+J $+$+$+",
"< +#[$}$|$z#1$]$S#,#+$z#z#z#z#2$3$4$5${+7.]+]+]+",
"[ 6$7$8$9$z#1$]$1#2#+$z#0$a$b$c$d$e$f$5+: 6+6+6+",
"7+g$h$8$9$z#i$j$i$k$l$z#m$n$n$o$p$q$r$k+: l+l+l+",
"m+s$t$8$u$z#z#z#z#z#z#z#v$w$w$p$x$y$z$w+< x+x+x+",
"} A$B$8$u$C$D$E$F$G$H$I$J$K$w$L$M$N$O$N+< O+O+O+",
"P+P$Q$B#R$+#S$+#T$U$V$W$X$Y$Z$`$ %.%+%$@< %@%@%@",
"&@@%#%$%%%+#S$+#T$U$V$W$&%*%=%y$-%;%>%{@< ]@]@]@",
"^@,%'%)%!%~%~%$#$#,%{%]%^%/%(%_%+%>%:%8@7+9@9@9@",
"0@a@<%[%}%}%|%}%1%1%2%3%4%5%6%7%7%8%9%o@p@%@%@%@",
"q@r@J J J +.+.J J J J 7.: 7.: 7.7.7.s@t@u@v@v@v@",
"w@x@y@z@z@z@z@A@A@A@A@A@A@B@A@0%a%0%b%c%d%D@D@D@",
"E@E@E@E@E@E@F@F@E@E@G@G@H@E@E@e%f%H@g%g%h%I@I@I@",
"J@J@J@J@J@J@K@K@J@J@L@L@J@J@J@J@J@J@L@J@J@M@M@M@"};
