/* XPM */
static char * restoreA_xpm[] = {
"17 40 106 2",
"  	c None",
". 	c #D9D9D9",
"+ 	c #7F7F7F",
"@ 	c #000000",
"# 	c #FFFFFF",
"$ 	c #CCCCCC",
"% 	c #DFE0DF",
"& 	c #DCDDDC",
"* 	c #DCDCDC",
"= 	c #DBDDDC",
"- 	c #DCDDDB",
"; 	c #D6D6D6",
"> 	c #D7D9D7",
", 	c #D7D8D8",
"' 	c #D7D9D8",
") 	c #D8D9D8",
"! 	c #D4D4D4",
"~ 	c #D3D3D3",
"{ 	c #D3D4D2",
"] 	c #D1D1D1",
"^ 	c #CDCECD",
"/ 	c #CECECD",
"( 	c #CDCECE",
"_ 	c #CFCFCF",
": 	c #C8C9C8",
"< 	c #CDCDCD",
"[ 	c #C3C4C3",
"} 	c #C3C4C4",
"| 	c #CACACA",
"1 	c #BEBFBE",
"2 	c #BEBEBE",
"3 	c #BDBFBE",
"4 	c #B9B9B9",
"5 	c #B8B9B8",
"6 	c #B8BAB8",
"7 	c #B9BAB8",
"8 	c #B8BAB9",
"9 	c #C7C7C7",
"0 	c #B4B4B4",
"a 	c #B3B4B3",
"b 	c #B4B4B3",
"c 	c #B4B5B4",
"d 	c #B3B5B4",
"e 	c #B4B5B3",
"f 	c #C4C4C4",
"g 	c #C1C1C1",
"h 	c #BBBBBB",
"i 	c #B8B8B8",
"j 	c #979797",
"k 	c #333333",
"l 	c #404040",
"m 	c #484848",
"n 	c #4A4B4A",
"o 	c #4B4B4B",
"p 	c #3D3D3D",
"q 	c #585958",
"r 	c #6A6B6A",
"s 	c #6F706F",
"t 	c #444444",
"u 	c #686968",
"v 	c #868786",
"w 	c #878887",
"x 	c #878787",
"y 	c #454545",
"z 	c #6B6C6B",
"A 	c #838484",
"B 	c #8B8C8C",
"C 	c #8C8C8C",
"D 	c #696969",
"E 	c #818181",
"F 	c #898989",
"G 	c #898A89",
"H 	c #424242",
"I 	c #666766",
"J 	c #7E7E7D",
"K 	c #858685",
"L 	c #646564",
"M 	c #7A7B7A",
"N 	c #828382",
"O 	c #3E3F3E",
"P 	c #626362",
"Q 	c #787979",
"R 	c #7F807F",
"S 	c #3E3E3E",
"T 	c #5F5F5F",
"U 	c #757575",
"V 	c #7C7C7C",
"W 	c #3C3C3C",
"X 	c #5C5C5C",
"Y 	c #717171",
"Z 	c #777877",
"` 	c #787878",
" .	c #787978",
"..	c #3A3A3A",
"+.	c #5A5A5A",
"@.	c #6E6E6E",
"#.	c #747474",
"$.	c #757675",
"%.	c #363636",
"&.	c #555555",
"*.	c #686868",
"=.	c #6C6D6D",
"-.	c #6D6E6D",
";.	c #6D6F6E",
">.	c #6D6E6E",
",.	c #6E6E6D",
". . . . . . . . . . . . . . . . . ",
"+ + + + + + + + + + + + + + + . . ",
"+ @ @ @ @ @ @ @ @ @ @ @ @ @ @ # . ",
"+ @ # # # # # # # # # # # $ @ # . ",
"+ @ # % % % % % % % % % % + @ # . ",
"+ @ # & * & = & - * & & & + @ # ; ",
"+ @ # > , @ @ @ @ @ @ ' ) + @ # ! ",
"+ @ # ~ ~ @ @ @ @ @ @ ~ { + @ # ] ",
"+ @ # ^ / @ @ @ @ @ @ ^ ( + @ # _ ",
"+ @ # : : @ : : : : @ : : + @ # < ",
"+ @ # [ } @ [ [ [ [ @ [ [ + @ # | ",
"+ @ # 1 1 @ @ @ @ @ @ 2 3 + @ # | ",
"+ @ # 4 5 6 4 7 8 5 8 7 5 + @ # 9 ",
"+ @ # 0 a b a c d e e b a + @ # f ",
"+ @ $ + + + + + + + + + + + @ # g ",
"+ @ @ @ @ @ @ @ @ @ @ @ @ @ @ # 2 ",
"h # # # # # # # # # # # # # # # h ",
"i i i i i i i i i i i i i i i i i ",
"j j j j j j j j j j j j j j j j j ",
"@ @ @ @ @ @ @ @ @ @ @ @ @ @ @ @ @ ",
". . . . . . . . . . . . . . . . . ",
"+ + + + + + + + + + + + + + + . . ",
"+ @ @ @ @ @ @ @ @ @ @ @ @ @ @ # . ",
"+ @ k l m n o o o o o o o o @ # . ",
"+ @ p q r s s s s s s s s s @ # . ",
"+ @ t u + v w w w x w w x x @ # ; ",
"+ @ y z A @ @ @ @ @ @ B C C @ # ! ",
"+ @ t D E @ @ @ @ @ @ F G G @ # ] ",
"+ @ H I J @ @ @ @ @ @ K K K @ # _ ",
"+ @ l L M @ N N N N @ N N N @ # < ",
"+ @ O P Q @ R R R R @ R R R @ # | ",
"+ @ S T U @ @ @ @ @ @ V V V @ # | ",
"+ @ W X Y Z `  . .`  . . . .@ # 9 ",
"+ @ ..+.@.#.U $.$.$.$.U U U @ # f ",
"+ @ %.&.*.=.-.;.;.>.-.-.,.@.@ # g ",
"+ @ @ @ @ @ @ @ @ @ @ @ @ @ @ # 2 ",
"h # # # # # # # # # # # # # # # h ",
"i i i i i i i i i i i i i i i i i ",
"j j j j j j j j j j j j j j j j j ",
"@ @ @ @ @ @ @ @ @ @ @ @ @ @ @ @ @ "};
