/* XPM */
static char * menuButtonA_xpm[] = {
"17 34 31 1",
" 	c None",
".	c #858686",
"+	c #9A9A9A",
"@	c #AEAEAE",
"#	c #363636",
"$	c #0D0E13",
"%	c #040404",
"&	c #C2C2C2",
"*	c #4A4A4A",
"=	c #2D333D",
"-	c #56657A",
";	c #5D6E86",
">	c #D6D6D6",
",	c #4D5868",
"'	c #677B98",
")	c #6E809C",
"!	c #58667E",
"~	c #EAEAEA",
"{	c #232D3A",
"]	c #798EAA",
"^	c #7E96B6",
"/	c #FEFEFE",
"(	c #3C4553",
"_	c #8CA3C5",
":	c #111214",
"<	c #435165",
"[	c #323F4F",
"}	c #717273",
"|	c #181C22",
"1	c #1D2632",
"2	c #5D5D5E",
".................",
"+++++++++++++++++",
"@@@@@.#$%$#.@@@@@",
"&&&&*=-;;;-=*&&&&",
">>>,*-;')';!*,>>>",
"~~@{,;)]^]);,{@~~",
"//*(-;)^_^);,(,//",
"~~:(,;)]^]);,*:~~",
">>%(<%%%%%%%<(%>>",
"&&$=<@&&&&&@<=$&&",
"@@#{[*<,,,,([=#@@",
"++}|{[((<(([=:}++",
"...#|{{=[={{|#...",
"}}}}{$|111|$=}}}}",
"22222(|%%$|(22222",
"*****************",
"#################",
".................",
"+++++++++++++++++",
"@@@@@}{$%%=}@@@@@",
"&&&&(1**<<(1(&&&&",
">>>*=(<,-2<*#*>>>",
"~~+|(<,-;-,<(1+~~",
"//(#(<-;'!-<(#(//",
"~~$=[*,!;-,<[=:~~",
">>%{[%%%%%%%[{%>>",
"&&$1#.]..]..#1$&&",
"@@=1{=[((([#{1=@@",
"++2$1{====={|$2++",
"...{:|11{11|:=...",
"}}}}{%:|||:$1}}}}",
"22222(|%%%|(22222",
"*****************",
"#################"};
