/* XPM */
static char * rollupA_xpm[] = {
"15 34 31 1",
" 	c None",
".	c #858686",
"+	c #9A9A9A",
"@	c #AEAEAE",
"#	c #5D5D5E",
"$	c #111214",
"%	c #040404",
"&	c #C2C2C2",
"*	c #181C22",
"=	c #2D333D",
"-	c #56657A",
";	c #58667E",
">	c #5D6E86",
",	c #D6D6D6",
"'	c #1D2632",
")	c #4A4A4A",
"!	c #6E809C",
"~	c #EAEAEA",
"{	c #717273",
"]	c #232D3A",
"^	c #4D5868",
"/	c #C7CDD4",
"(	c #FEFEFE",
"_	c #0D0E13",
":	c #435165",
"<	c #3C4553",
"[	c #677B98",
"}	c #798EAA",
"|	c #323F4F",
"1	c #363636",
"2	c #8CA3C5",
"...............",
"+++++++++++++++",
"@@@@#$%%%$#@@@@",
"&&&*=-;>;-=*&&&",
",,')->!!!>;)',,",
"~{]^/,,,,,/^]{~",
"(*)^_%__%_%^:*(",
"~%<^;[},}!>^<%~",
",%<^;>,@/[-^<%,",
"&%|<^/@@@/^<=%&",
"@_]|<_%%%%<|]$@",
"+)*]|<<<<||=$)+",
"..$*'=||==]**..",
"{{{$_**''*_${{{",
"##-#=_%%%%=####",
")))))))))))))))",
"111111=11111111",
"...............",
"+++++++++++++++",
"@@@@)_%%%_^@@@@",
"&&&*'<):)<'*&&&",
",,*=):^-^^)1*,,",
"~{'|+2+2+++<'{~",
"($=<%%%%%%%<=*(",
"~%=|:^;+;^:|=%~",
",%=|<:+.+:<|]%,",
"&%'1<+!!.+|1'%&",
"@_']=%%%%%1]'_@",
"+)_*]====]]'_)+",
"..$$*'']''*$_..",
"{{{__$$*$$_${{{",
"####]%%%%_]####",
")))))))))))))))",
"111111111111111"};
