/* XPM */
static char * titleAQ_xpm[] = {
"2 17 17 1",
" 	c None",
".	c #4F4F51",
"+	c #858687",
"@	c #999A9A",
"#	c #5E5E5E",
"$	c #AEAEAE",
"%	c #717172",
"&	c #C2C2C2",
"*	c #D6D6D6",
"=	c #E9EAEA",
"-	c #909090",
";	c #FEFEFE",
">	c #717374",
",	c #373739",
"'	c #5C5F64",
")	c #494B4D",
"!	c #343638",
".+",
".@",
"#$",
"%&",
"%*",
"%=",
"-;",
"%=",
"%*",
"%&",
"#$",
".@",
".+",
".>",
",'",
",)",
",!"};
