/* XPM */
static char * sgmixer_32x32_xpm[] = {
"32 32 242 2",
"  	c None",
". 	c #4E4E4E",
"+ 	c #99E600",
"@ 	c #16C500",
"# 	c #4A4A4A",
"$ 	c #30CC00",
"% 	c #474747",
"& 	c #484848",
"* 	c #36CE00",
"= 	c #72DE00",
"- 	c #434343",
"; 	c #444444",
"> 	c #88E400",
", 	c #B7F200",
"' 	c #B9F300",
") 	c #404040",
"! 	c #404040",
"~ 	c #6BDC00",
"{ 	c #7BE100",
"] 	c #3C3C3C",
"^ 	c #14C400",
"/ 	c #3C3C3C",
"( 	c #85E500",
"_ 	c #ACEF00",
": 	c #48D400",
"< 	c #48D300",
"[ 	c #393939",
"} 	c #6EDE00",
"| 	c #3BCF00",
"1 	c #60DA00",
"2 	c #15C500",
"3 	c #31CD00",
"4 	c #52D600",
"5 	c #38CE00",
"6 	c #B8F200",
"7 	c #87E500",
"8 	c #11C300",
"9 	c #4DD400",
"0 	c #2DCB00",
"a 	c #60DA00",
"b 	c #A4ED00",
"c 	c #1FC700",
"d 	c #13C400",
"e 	c #20C800",
"f 	c #0EC300",
"g 	c #515151",
"h 	c #A4ED00",
"i 	c #565656",
"j 	c #A0EC00",
"k 	c #52D600",
"l 	c #0DC200",
"m 	c #4D4D4D",
"n 	c #7BE200",
"o 	c #21C800",
"p 	c #8FE700",
"q 	c #494949",
"r 	c #A6ED00",
"s 	c #10C300",
"t 	c #33CD00",
"u 	c #26C900",
"v 	c #454545",
"w 	c #3DD000",
"x 	c #555555",
"y 	c #585858",
"z 	c #82817F",
"A 	c #23C800",
"B 	c #555555",
"C 	c #B97B01",
"D 	c #414141",
"E 	c #41D100",
"F 	c #404040",
"G 	c #72DF00",
"H 	c #0EC300",
"I 	c #3D3D3D",
"J 	c #2CCB00",
"K 	c #55D700",
"L 	c #27CA00",
"M 	c #545454",
"N 	c #5BD800",
"O 	c #393939",
"P 	c #353535",
"Q 	c #353535",
"R 	c #58D800",
"S 	c #74DF00",
"T 	c #9DEB00",
"U 	c #656565",
"V 	c #20C800",
"W 	c #5AD800",
"X 	c #0DC200",
"Y 	c #2DCB00",
"Z 	c #8CE600",
"` 	c #8F8F8F",
" .	c #26C900",
"..	c #BCBCBC",
"+.	c #6C6C6C",
"@.	c #595959",
"#.	c #0DC200",
"$.	c #5FD900",
"%.	c #58D800",
"&.	c #E7E7E7",
"*.	c #686868",
"=.	c #A7EE00",
"-.	c #F4F4F4",
";.	c #26C900",
">.	c #2ECC00",
",.	c #3C3C3C",
"'.	c #40D100",
").	c #444444",
"!.	c #474747",
"~.	c #4C4C4C",
"{.	c #4E4E4E",
"].	c #515151",
"^.	c #545453",
"/.	c #555555",
"(.	c #565656",
"_.	c #595650",
":.	c #5A5A5A",
"<.	c #5B5B5B",
"[.	c #5C5C5C",
"}.	c #5D5D5D",
"|.	c #5E5E5E",
"1.	c #5F5F5F",
"2.	c #616161",
"3.	c #626262",
"4.	c #635A48",
"5.	c #636363",
"6.	c #646464",
"7.	c #656565",
"8.	c #666666",
"9.	c #696969",
"0.	c #6A6A6A",
"a.	c #6B6B6B",
"b.	c #6D5E40",
"c.	c #6D6D6D",
"d.	c #6E6E6E",
"e.	c #707070",
"f.	c #717171",
"g.	c #727272",
"h.	c #766238",
"i.	c #767676",
"j.	c #777777",
"k.	c #787878",
"l.	c #7A7A7A",
"m.	c #7C7C7C",
"n.	c #7E7E7E",
"o.	c #806630",
"p.	c #808080",
"q.	c #81E300",
"r.	c #828282",
"s.	c #868686",
"t.	c #888888",
"u.	c #898989",
"v.	c #8A6928",
"w.	c #8A8A8A",
"x.	c #8C8C8C",
"y.	c #8E8E8E",
"z.	c #8F8F8F",
"A.	c #909090",
"B.	c #919191",
"C.	c #936D20",
"D.	c #949494",
"E.	c #989898",
"F.	c #9B9B9B",
"G.	c #9C9C9C",
"H.	c #9D7018",
"I.	c #9D9D9D",
"J.	c #9F9F9F",
"K.	c #A0A0A0",
"L.	c #A1A1A1",
"M.	c #A4A4A4",
"N.	c #A6A6A6",
"O.	c #A77410",
"P.	c #A7A7A7",
"Q.	c #ABABAB",
"R.	c #ACACAC",
"S.	c #AEAEAE",
"T.	c #AFAFAF",
"U.	c #B0B0B0",
"V.	c #B17808",
"W.	c #B1B1B1",
"X.	c #B4B4B4",
"Y.	c #B6B6B6",
"Z.	c #B7B7B7",
"`.	c #BABABA",
" +	c #BB7C01",
".+	c #BBBBBB",
"++	c #BCBCBC",
"@+	c #BEBEBE",
"#+	c #BFBFBF",
"$+	c #C0C0C0",
"%+	c #C1C1C1",
"&+	c #C2C2C2",
"*+	c #C48200",
"=+	c #C4C4C4",
"-+	c #C6C6C6",
";+	c #C9C9C9",
">+	c #CACACA",
",+	c #CC8700",
"'+	c #CECECE",
")+	c #D2D2D2",
"!+	c #D4D4D4",
"~+	c #D5D5D5",
"{+	c #D7D7D7",
"]+	c #DADADA",
"^+	c #DCDCDC",
"/+	c #DDDDDD",
"(+	c #DEDEDE",
"_+	c #DFDFDF",
":+	c #E0E0E0",
"<+	c #E2E2E2",
"[+	c #E3E3E3",
"}+	c #E4E4E4",
"|+	c #E5E5E5",
"1+	c #E6E6E6",
"2+	c #E7A000",
"3+	c #E7E7E7",
"4+	c #E9AC2D",
"5+	c #E9E9E9",
"6+	c #EBEBEB",
"7+	c #ECECEC",
"8+	c #EEEEEE",
"9+	c #EFB400",
"0+	c #EFEFEF",
"a+	c #F2F2F2",
"b+	c #F3F3F3",
"c+	c #F4F4F4",
"d+	c #F5F5F5",
"e+	c #F6D889",
"f+	c #F6F6F6",
"g+	c #F7C800",
"h+	c #F7F7F7",
"i+	c #F8F8F8",
"j+	c #FAFAFA",
"k+	c #FBFBFB",
"l+	c #FCFCFC",
"m+	c #FDFDFD",
"n+	c #FEDA00",
"o+	c #FEFEFE",
"p+	c #FFDD00",
"q+	c #FFF7D4",
"r+	c #FFFEFA",
"s+	c #FFFFFF",
"                                                                ",
"                                                                ",
"                          Q ,.~././.x                           ",
"                        O F ;+;+;+s+(.                          ",
"                      I M ` }+}+}+s+:.            =.p           ",
"                    D U ..D.j+j+j+s+|.              Z S         ",
"                  v +.&.%+%+j+j+j+s+3.                G W       ",
"                q *.-.0+6+k+f+f+f+s+8.                  R E     ",
"              m 5.8+s+o+h+:+a+a+a+s+0.        h           '.    ",
"            g 1.3+s+s+j+|+$+7+7+7+o+d.        r q.        w L   ",
"    C  +*+,+2._+s+s+s+d+)+K./+/+/+l+g.          n %.        ;.  ",
"    V.s+s+s+j+m+k+j+i+3+.+z.'+'+'+i+i.            K t        .d ",
"z ^.O.r+r+r+s+b+5+<+(+'+P.p.@+@+@+c+l.  j           >.      A s ",
"n.=+H.q+q+q+m+0+-+=+=+Z.D.g.S.S.S.7+n.  T $.        >.      o H ",
"k.P.C.e+e+e+8+3+R.R.R.K.r.6.J.J.J.}+r.    N u       Y f     e X ",
"f.u.v.4+4+4+{+!+D.D.D.u.e.(.z.z.z.]+s.    k V       J l       #.",
"a.a.o.2+2+2+&+`.x.x.x.r.0.].A.A.A.~+s.    k V       J l       #.",
"7.{.h.9+9+9+Y.N.D.D.D.w.e.(.K.K.K.{+r.    N u       Y f     e X ",
"|.!.b.g+g+g+P.I.G.G.G.B.i.<.W.W.W.]+n.  T $.        >.      o H ",
"y ).4.n+n+n+M.M.M.M.M.E.m.1.&+&+&+_+l.  j           >.      A s ",
"    _.p+p+p+R.R.R.R.R.K.r.6.)+)+)+1+i.            K t        .d ",
"    B /././.}.N.X.X.X.P.t.9.[+[+[+8+g.          n %.        ;.  ",
"            i [.U.++++T.y.c.6+6+6+a+d.        r q.        w L   ",
"              m 1..+=+Y.D.g.[+[+[+6+0.        h           '.    ",
"                q 5.-+@+F.j.^+^+^+}+8.                  R E     ",
"                  v 0.=+L.m.~+~+~+^+3.                G W       ",
"                    D f.Q.p.'+'+'+!+|.              Z S         ",
"                      I d.r.-+-+-+>+:.            =.p           ",
"                        O @.#+#+#+$+(.                          ",
"                          P ,.~././.x                           ",
"                                                                ",
"                                                                "};
