/* XPM */
static char * rolldownA_xpm[] = {
"18 34 255 2",
"  	c None",
". 	c #453C3F",
"+ 	c #1E191F",
"@ 	c #191219",
"# 	c #000000",
"$ 	c #624B3B",
"% 	c #503B2A",
"& 	c #897870",
"* 	c #A2918A",
"= 	c #9E8B85",
"- 	c #4C2D19",
"; 	c #6F4D32",
"> 	c #C8A98A",
", 	c #E1C3AB",
"' 	c #FFE7CF",
") 	c #F6D6BD",
"! 	c #46200D",
"~ 	c #744B2B",
"{ 	c #B2875C",
"] 	c #DAAE7C",
"^ 	c #CBA57D",
"/ 	c #CCA780",
"( 	c #D2AC85",
"_ 	c #D4AE86",
": 	c #CEA881",
"< 	c #D1AC85",
"[ 	c #D3AE86",
"} 	c #DAB288",
"| 	c #F3C593",
"1 	c #FFD2A2",
"2 	c #5F3012",
"3 	c #956537",
"4 	c #B9874C",
"5 	c #B98C51",
"6 	c #5C472C",
"7 	c #2F261B",
"8 	c #30271C",
"9 	c #493824",
"0 	c #4F3C25",
"a 	c #473722",
"b 	c #31271D",
"c 	c #634B2F",
"d 	c #CE9B5C",
"e 	c #E6AB65",
"f 	c #6A3D26",
"g 	c #804C24",
"h 	c #B57F43",
"i 	c #C28A40",
"j 	c #C79240",
"k 	c #9F7734",
"l 	c #382A12",
"m 	c #201709",
"n 	c #815B26",
"o 	c #AC7A33",
"p 	c #7D5B26",
"q 	c #1F1709",
"r 	c #3B2B11",
"s 	c #A97933",
"t 	c #DB9D46",
"u 	c #DE9D43",
"v 	c #57280A",
"w 	c #9E6937",
"x 	c #C78E47",
"y 	c #CC943D",
"z 	c #DCA844",
"A 	c #DAA746",
"B 	c #AD8537",
"C 	c #433416",
"D 	c #402F13",
"E 	c #8E682A",
"F 	c #3F2F13",
"G 	c #443416",
"H 	c #B58839",
"I 	c #E8AD49",
"J 	c #F0B34B",
"K 	c #F2B34A",
"L 	c #CCCCCC",
"M 	c #673917",
"N 	c #B48046",
"O 	c #D59E4E",
"P 	c #DBA541",
"Q 	c #F0BF50",
"R 	c #EDC153",
"S 	c #EAC054",
"T 	c #BB9A45",
"U 	c #473A1A",
"V 	c #2A210E",
"W 	c #463A1A",
"X 	c #BD9B46",
"Y 	c #F4C558",
"Z 	c #FCCB5B",
"` 	c #FFCE5E",
" .	c #8B5F3A",
"..	c #B58344",
"+.	c #E2AE58",
"@.	c #EDBA4D",
"#.	c #F9CE57",
"$.	c #F6D460",
"%.	c #F9D965",
"&.	c #F5D563",
"*.	c #BEA64D",
"=.	c #63582A",
"-.	c #BCA64F",
";.	c #FEDC66",
">.	c #FFDD67",
",.	c #A07330",
"'.	c #E4B559",
").	c #FBCE5B",
"!.	c #FBD65C",
"~.	c #FBE16B",
"{.	c #FDE771",
"].	c #FDE770",
"^.	c #F6E16C",
"/.	c #E1CE64",
"(.	c #F6E16E",
"_.	c #FEE770",
":.	c #FFEB73",
"<.	c #836026",
"[.	c #D7B262",
"}.	c #FDD978",
"|.	c #F9DD70",
"1.	c #FDF183",
"2.	c #FCF485",
"3.	c #FFF484",
"4.	c #937F4C",
"5.	c #B8A266",
"6.	c #FAEA9F",
"7.	c #F7F296",
"8.	c #FFFFA1",
"9.	c #F7F294",
"0.	c #9E906B",
"a.	c #A19762",
"b.	c #C4C278",
"c.	c #ECEE9B",
"d.	c #EDF0A3",
"e.	c #89864F",
"f.	c #818145",
"g.	c #76753C",
"h.	c #524F48",
"i.	c #1C1C14",
"j.	c #5A4743",
"k.	c #55403D",
"l.	c #806D67",
"m.	c #9B8A83",
"n.	c #341616",
"o.	c #684543",
"p.	c #C09896",
"q.	c #F4CBC7",
"r.	c #F5D0CA",
"s.	c #472826",
"t.	c #6A3C3E",
"u.	c #A06869",
"v.	c #CB8A8B",
"w.	c #C38A8B",
"x.	c #C38E8C",
"y.	c #C48F8D",
"z.	c #C99290",
"A.	c #DE9D9B",
"B.	c #EDADAB",
"C.	c #4D2324",
"D.	c #6A2E30",
"E.	c #91464A",
"F.	c #A2565A",
"G.	c #522E30",
"H.	c #2C1E1E",
"I.	c #2C1F1E",
"J.	c #402726",
"K.	c #452828",
"L.	c #2D1F1E",
"M.	c #563232",
"N.	c #AE6261",
"O.	c #BF6968",
"P.	c #573835",
"Q.	c #5D292B",
"R.	c #7B3035",
"S.	c #92373E",
"T.	c #A74349",
"U.	c #883639",
"V.	c #321516",
"W.	c #1B0B0B",
"X.	c #692A2C",
"Y.	c #8E3B3C",
"Z.	c #321616",
"`.	c #8C3B3C",
" +	c #B54F50",
".+	c #B44A4C",
"++	c #381211",
"@+	c #743838",
"#+	c #913F43",
"$+	c #A54046",
"%+	c #C04C52",
"&+	c #C75459",
"*+	c #A34A4B",
"=+	c #3E1D1D",
"-+	c #371818",
";+	c #7B3737",
">+	c #3E1D1E",
",+	c #A34C4C",
"'+	c #CF5F60",
")+	c #D56162",
"!+	c #D76364",
"~+	c #3B1311",
"{+	c #7D403F",
"]+	c #A54C50",
"^+	c #BB5056",
"/+	c #D86064",
"(+	c #E76C6E",
"_+	c #E87372",
":+	c #B75C5B",
"<+	c #452221",
"[+	c #271212",
"}+	c #E97574",
"|+	c #F07877",
"1+	c #F47C7B",
"2+	c #643B37",
"3+	c #7B3B39",
"4+	c #B95F61",
"5+	c #D5686B",
"6+	c #EE7678",
"7+	c #F77E7D",
"8+	c #FB847F",
"9+	c #F4827C",
"0+	c #BE6661",
"a+	c #633633",
"b+	c #FC8680",
"c+	c #FF8882",
"d+	c #793937",
"e+	c #C2686A",
"f+	c #E87B7E",
"g+	c #FB8789",
"h+	c #FD8B88",
"i+	c #FE8E86",
"j+	c #FE8F85",
"k+	c #F68B81",
"l+	c #E17F77",
"m+	c #FE8F86",
"n+	c #FF9288",
"o+	c #75403A",
"p+	c #AF6461",
"q+	c #DC8281",
"r+	c #FE9A98",
"s+	c #FF9B98",
"t+	c #FF9C96",
"u+	c #6B3F36",
"v+	c #AB746D",
"w+	c #E4A5A0",
"x+	c #F6B0AE",
"y+	c #F8B2B0",
"z+	c #8D6C63",
"A+	c #8C635D",
"B+	c #B38681",
"C+	c #D9A7A6",
"D+	c #9E817B",
"E+	c #8B6A65",
"F+	c #7D5754",
"              . + @ @ @ + @ @ @ @ # ",
"          $ % & * = = = * = = = = = ",
"        - ; > , ' ) ) ) ' ) ) ) ) ) ",
"      ! ~ { ] ^ / ( _ ( : < [ } | 1 ",
"      2 3 4 5 6 7 8 9 0 a 8 b c d e ",
"    f g h i j k l m n o p q r s t u ",
"# # v w x y z A B C D E F G H I J K ",
"L L M N O P Q R S T U V W X Y Z Z ` ",
"L L  ...+.@.#.$.%.&.*.=.-.&.;.;.;.>.",
"L L L ,.'.).!.~.{.].^./.(._._._._.:.",
"L L L <.[.}.|.1.2.3.3.3.2.3.3.3.3.3.",
"L L L L 4.5.6.7.8.9.9.9.8.9.9.9.9.9.",
"L L L L L 0.a.b.c.d.d.d.c.d.d.d.d.d.",
"L L L L L L L e.f.g.g.g.f.g.g.g.g.g.",
"L L L L L L L L L L L L L L L L L L ",
"L L L L L L L L L L L L L L L L L L ",
"# # # # # # # # # # # # # # # # # # ",
"              h.i.i.i.i.i.i.i.i.i.i.",
"          j.k.l.m.m.m.m.m.m.m.m.m.m.",
"        n.o.p.q.r.r.r.r.r.r.r.r.r.r.",
"      s.t.u.v.w.x.y.y.y.y.y.y.z.A.B.",
"      C.D.E.F.G.H.I.J.K.J.I.L.M.N.O.",
"    P.Q.R.S.T.U.V.W.X.Y.X.W.Z.`. +.+",
"# # ++@+#+$+%+&+*+=+-+;+-+>+,+'+)+!+",
"L L ~+{+]+^+/+(+_+:+<+[+<+:+}+|+|+1+",
"L L 2+3+4+5+6+7+8+9+0+a+0+9+b+b+b+c+",
"L L L d+e+f+g+h+i+j+k+l+k+j+m+m+m+n+",
"L L L o+p+q+r+s+t+t+t+t+t+t+t+t+t+t+",
"L L L L u+v+w+x+y+y+y+y+y+y+y+y+y+y+",
"L L L L L z+A+B+C+C+C+C+C+C+C+C+C+C+",
"L L L L L L D+E+F+F+F+F+F+F+F+F+F+F+",
"L L L L L L L L L L L L L L L L L L ",
"L L L L L L L L L L L L L L L L L L ",
"# # # # # # # # # # # # # # # # # # "};
