/* XPM */
static char * titleAP_xpm[] = {
"6 16 69 1",
" 	c None",
".	c #453C3F",
"+	c #624B3B",
"@	c #503B2A",
"#	c #897870",
"$	c #4C2D19",
"%	c #6F4D32",
"&	c #C8A98A",
"*	c #E1C3AB",
"=	c #46200D",
"-	c #744B2B",
";	c #B2875C",
">	c #E2B685",
",	c #F0C598",
"'	c #5F3012",
")	c #956537",
"!	c #B9874C",
"~	c #CF9C5A",
"{	c #DCA967",
"]	c #6A3D26",
"^	c #804C24",
"/	c #B57F43",
"(	c #C28A40",
"_	c #C8913E",
":	c #D59F47",
"<	c #57280A",
"[	c #9E6937",
"}	c #C78E47",
"|	c #CC943D",
"1	c #DDA743",
"2	c #E2AE49",
"3	c #673917",
"4	c #B48046",
"5	c #D59E4E",
"6	c #DBA541",
"7	c #F5C354",
"8	c #EDC355",
"9	c #8B5F3A",
"0	c #B58344",
"a	c #E2AE58",
"b	c #EDBA4D",
"c	c #FCCF58",
"d	c #F6D562",
"e	c #B8916A",
"f	c #A07330",
"g	c #E4B559",
"h	c #FBCE5B",
"i	c #FCD65B",
"j	c #FCE772",
"k	c #D5B793",
"l	c #836026",
"m	c #D7B262",
"n	c #FDD978",
"o	c #F9DD70",
"p	c #FDF183",
"q	c #CCCCCC",
"r	c #B6A47C",
"s	c #937F4C",
"t	c #B8A266",
"u	c #FAEA9F",
"v	c #F7F296",
"w	c #D1C7AC",
"x	c #ADA282",
"y	c #9E906B",
"z	c #A19762",
"A	c #C4C278",
"B	c #C2B497",
"C	c #A59C73",
"D	c #89864F",
"     .",
"   +@#",
"  $%&*",
" =-;>,",
" ')!~{",
"]^/(_:",
"<[}|12",
"345678",
"90abcd",
"efghij",
"klmnop",
"qrstuv",
"qwxyzA",
"qqqBCD",
"qqqqqq",
"qqqqqq"};
