/* XPM */
static char * filezilla_32x32_xpm[] = {
"32 32 129 2",
"  	c None",
". 	c #B75353",
"+ 	c #D59797",
"@ 	c #8F0000",
"# 	c #900000",
"$ 	c #920000",
"% 	c #940000",
"& 	c #950808",
"* 	c #970000",
"= 	c #980101",
"- 	c #980202",
"; 	c #990000",
"> 	c #9A1313",
", 	c #9B0000",
"' 	c #9D0000",
") 	c #9F0000",
"! 	c #A00C0C",
"~ 	c #A10000",
"{ 	c #A30000",
"] 	c #A30101",
"^ 	c #A40909",
"/ 	c #A50000",
"( 	c #A50101",
"_ 	c #A70000",
": 	c #A80202",
"< 	c #A81919",
"[ 	c #AA0000",
"} 	c #AA2A2A",
"| 	c #AC0000",
"1 	c #AE0000",
"2 	c #AE0C0C",
"3 	c #B00000",
"4 	c #B00707",
"5 	c #B03636",
"6 	c #B03939",
"7 	c #B13434",
"8 	c #B20000",
"9 	c #B23232",
"0 	c #B33030",
"a 	c #B40000",
"b 	c #B42E2E",
"c 	c #B50202",
"d 	c #B50404",
"e 	c #B52C2C",
"f 	c #B60000",
"g 	c #B80000",
"h 	c #B83B3B",
"i 	c #BA0000",
"j 	c #BB4F4F",
"k 	c #BD0000",
"l 	c #BD1818",
"m 	c #BD3F3F",
"n 	c #BF0000",
"o 	c #C02F2F",
"p 	c #C16060",
"q 	c #C16161",
"r 	c #C27171",
"s 	c #C37272",
"t 	c #C51F1F",
"u 	c #C67171",
"v 	c #C77070",
"w 	c #C77A7A",
"x 	c #CA6565",
"y 	c #CB7777",
"z 	c #CB8484",
"A 	c #CD7272",
"B 	c #CD8B8B",
"C 	c #CE7575",
"D 	c #CE8686",
"E 	c #CF6565",
"F 	c #CF7F7F",
"G 	c #CF8585",
"H 	c #D15555",
"I 	c #D15A5A",
"J 	c #D37B7B",
"K 	c #D37F7F",
"L 	c #D38787",
"M 	c #D45656",
"N 	c #D59797",
"O 	c #D65C5C",
"P 	c #D65D5D",
"Q 	c #D68E8E",
"R 	c #D79797",
"S 	c #D7A1A1",
"T 	c #D98585",
"U 	c #DA7F7F",
"V 	c #DA9595",
"W 	c #DBA5A5",
"X 	c #DD9C9C",
"Y 	c #DE8D8D",
"Z 	c #DEAFAF",
"` 	c #DF8B8B",
" .	c #DF9B9B",
"..	c #DFB5B5",
"+.	c #E19090",
"@.	c #E1ABAB",
"#.	c #E3B9B9",
"$.	c #E3BDBD",
"%.	c #E4BBBB",
"&.	c #E4BEBE",
"*.	c #E8C7C7",
"=.	c #EACFCF",
"-.	c #EBBCBC",
";.	c #EBC4C4",
">.	c #EBCDCD",
",.	c #EBD1D1",
"'.	c #ECC6C6",
").	c #ECCDCD",
"!.	c #EDC1C1",
"~.	c #F0C7C7",
"{.	c #F0D1D1",
"].	c #F0DDDD",
"^.	c #F4E1E1",
"/.	c #F7E5E5",
"(.	c #F7E9E9",
"_.	c #F8EAEA",
":.	c #F8ECEC",
"<.	c #F8EDED",
"[.	c #F8EEEE",
"}.	c #F9EFEF",
"|.	c #F9F0F0",
"1.	c #FAF2F2",
"2.	c #FBF0F0",
"3.	c #FBF2F2",
"4.	c #FCF4F4",
"5.	c #FDFAFA",
"6.	c #FEFCFC",
"7.	c #FFFEFE",
"8.	c #FFFFFF",
"n n n n       n n n n       n n n n       n n n n       n n n n ",
"n n n n n n n n n n n n n n n n n n n n n n n n n n n n n n n n ",
"n n n n n n n n n n n n n n n n n n n n n n n n n n n n n n n n ",
"n n n n n n n n n n n n n n n n n n n n n n n n n n n n n n n n ",
"  n n n n n n n n n n n n n n n n n n n n n n n n n n n n n n   ",
"  n n n n n n n n O P P P P P P P P P P P M n n n n n n n n n   ",
"  n k k k k k k t 8.8.8.8.8.8.8.8.8.8.8.8.~.k k k k k k k k k   ",
"i k i i i i i i H 8.8.8.8.8.8.8.8.8.8.8.8.+.i i i i i i i i i i ",
"g i g g g g g g ` 8.8.8.8.8.8.8.8.8.8.8.8.I g g g g g g g g g g ",
"f g f f f f f f !.8.8.8.Y U U U U U U U U l f f f f f f f f f f ",
"a f a a a a a d 4.8.8.2.c a a a a a a a a a a a a a a a a a a a ",
"  a 8 8 8 8 8 o 8.8.8.-.8 8 8 8 8 8 8 8 8 8 8 8 8 8 8 8 8 8 8   ",
"  8 3 3 3 3 3 E 8.8.8.T 3 3 3 3 3 3 3 3 3 3 3 3 3 3 3 3 3 3 3   ",
"  3 1 1 1 1 1  .8.8.8.3._._._._._._._._._._._._._./.4 1 1 1 1   ",
"| 1 | | | | | {.8.8.8.8.8.8.8.8.8.8.8.8.8.8.8.8.8.'.| | | | | | ",
"[ | [ [ [ [ 2 6.8.8.8.8.8.8.8.8.8.8.8.8.8.8.8.8.8.J [ [ [ [ [ [ ",
"_ [ _ _ _ _ m 8.8.8.;.x x x x x x x x K 8.8.8.8.X : _ _ _ _ _ _ ",
"/ _ / / / / C 8.8.8.A / / / / / / / e (.8.8.8.V ( / / / / / / / ",
"  / { { { { @.8.8.8.h { { { { { { b _.8.8.8.Q ] { { { { { { {   ",
"  { ~ ~ ~ ~ ^.8.8.5.^ ~ ~ ~ ~ ~ 0 :.8.8.8.L ~ ~ ~ ~ ~ ~ ~ ~ ~   ",
"  ~ ) ) ) < 8.8.8.).) ) ) ) ) 9 <.8.8.8.F ) ) ) ) ) ) ) ) ) )   ",
"' ) ' ' ' j 8.8.8.R ' ' ' ' 7 [.8.8.8.y ' ' ' ' ' ' ' ' ' ' ' ' ",
", ' , , , G 8.8.8.p , , , 5 }.8.8.7.v , , , , ! q , , , , , , , ",
"; , ; ; ; %.8.8.8.} ; ; 6 |.8.8.8.<.N u D W *.7.>.; ; ; ; ; ; ; ",
"* ; * * * Z &.&.#.= * - 1.8.8.8.8.8.8.8.8.8.8.8.+ * * * * * * * ",
"  * % % % % % % % % % % w 8.8.8.8.8.8.8.8.8.8.8.. % % % % % %   ",
"  % $ $ $ $ $ $ $ $ $ $ & =.B r z S $.].,...s > $ $ $ $ $ $ $   ",
"  $ # # # # # # # # # # # # # # # # # # # # # # # # # # # # #   ",
"@ # @ @ @ @ @ @ @ @ @ @ @ @ @ @ @ @ @ @ @ @ @ @ @ @ @ @ @ @ @ @ ",
"@ @ @ @ @ @ @ @ @ @ @ @ @ @ @ @ @ @ @ @ @ @ @ @ @ @ @ @ @ @ @ @ ",
"@ @ @ @ @ @ @ @ @ @ @ @ @ @ @ @ @ @ @ @ @ @ @ @ @ @ @ @ @ @ @ @ ",
"@ @ @ @       @ @ @ @       @ @ @ @       @ @ @ @       @ @ @ @ "};
