/* XPM */
static char * tor_16x16_xpm[] = {
"16 16 188 2",
"  	c None",
". 	c #ACC1B7",
"+ 	c #A9C0B3",
"@ 	c #A8BFB3",
"# 	c #AAC4B5",
"$ 	c #B5BBC1",
"% 	c #C6A8D5",
"& 	c #9CCDA5",
"* 	c #62D266",
"= 	c #788886",
"- 	c #67AB6E",
"; 	c #62A36B",
"> 	c #756887",
", 	c #689573",
"' 	c #77E17C",
") 	c #C3ACD2",
"! 	c #C2AED0",
"~ 	c #86C08F",
"{ 	c #6ECA75",
"] 	c #A675B9",
"^ 	c #A082B1",
"/ 	c #779583",
"( 	c #7A8788",
"_ 	c #867399",
": 	c #895CA0",
"< 	c #7F5B95",
"[ 	c #758E83",
"} 	c #A9BDB5",
"| 	c #C7A8D6",
"1 	c #7FE484",
"2 	c #75E07A",
"3 	c #82A08D",
"4 	c #8CB696",
"5 	c #A196B1",
"6 	c #93ABA0",
"7 	c #919C9F",
"8 	c #917CA4",
"9 	c #87759B",
"0 	c #738483",
"a 	c #7B938B",
"b 	c #61FF61",
"c 	c #BEAECD",
"d 	c #A2C3AC",
"e 	c #5EFF5E",
"f 	c #62FE62",
"g 	c #7CE281",
"h 	c #A7A4B4",
"i 	c #A6A0B4",
"j 	c #63F764",
"k 	c #65F566",
"l 	c #9181A3",
"m 	c #9171A7",
"n 	c #7D978E",
"o 	c #64F665",
"p 	c #6CF36D",
"q 	c #66F867",
"r 	c #6BE06E",
"s 	c #73EB75",
"t 	c #B9ACC7",
"u 	c #76E47A",
"v 	c #6DE471",
"w 	c #A184B6",
"x 	c #86A296",
"y 	c #66F267",
"z 	c #A5B0B1",
"A 	c #9E9DAB",
"B 	c #63FB63",
"C 	c #A28FB0",
"D 	c #89A894",
"E 	c #82A78C",
"F 	c #67E569",
"G 	c #6DAF76",
"H 	c #63D866",
"I 	c #62FD62",
"J 	c #8DBD95",
"K 	c #9B88AB",
"L 	c #8A9A99",
"M 	c #5FFF5E",
"N 	c #6CF46E",
"O 	c #C29DD3",
"P 	c #C4A0D4",
"Q 	c #BE9DD0",
"R 	c #AC94BF",
"S 	c #B089C6",
"T 	c #65FC66",
"U 	c #6AD770",
"V 	c #61FF60",
"W 	c #69B073",
"X 	c #62FF61",
"Y 	c #859B92",
"Z 	c #917EA1",
"` 	c #9297A4",
" .	c #67E869",
"..	c #71C679",
"+.	c #79B582",
"@.	c #8FB59A",
"#.	c #9AA6AA",
"$.	c #9B9BAC",
"%.	c #9693A8",
"&.	c #63D668",
"*.	c #70B17B",
"=.	c #69CF6F",
"-.	c #5FFB5F",
";.	c #946AAF",
">.	c #73AB7F",
",.	c #8E7AA1",
"'.	c #857993",
").	c #869397",
"!.	c #7CC486",
"~.	c #A088B4",
"{.	c #A193B3",
"].	c #AB88BF",
"^.	c #A788BC",
"/.	c #A483B9",
"(.	c #9C83B0",
"_.	c #67F069",
":.	c #70CB78",
"<.	c #7F8493",
"[.	c #916CAB",
"}.	c #718F80",
"|.	c #7F8A8D",
"1.	c #767183",
"2.	c #86839A",
"3.	c #68D36E",
"4.	c #70C478",
"5.	c #85B491",
"6.	c #9790A9",
"7.	c #A176B9",
"8.	c #9F6FB8",
"9.	c #899B99",
"0.	c #60FF60",
"a.	c #67C76D",
"b.	c #7D7991",
"c.	c #6FD277",
"d.	c #718D7C",
"e.	c #5FB066",
"f.	c #66F068",
"g.	c #62ED64",
"h.	c #66A96F",
"i.	c #66AD6F",
"j.	c #65B36E",
"k.	c #66B56E",
"l.	c #62FF62",
"m.	c #64EF67",
"n.	c #8C62A5",
"o.	c #7C9D8C",
"p.	c #61F961",
"q.	c #6B6679",
"r.	c #624B71",
"s.	c #60ED61",
"t.	c #61FE61",
"u.	c #67E66B",
"v.	c #8B5BA4",
"w.	c #895FA2",
"x.	c #895EA2",
"y.	c #8A5BA3",
"z.	c #66E769",
"A.	c #66ED69",
"B.	c #7C908E",
"C.	c #68B671",
"D.	c #5E8467",
"E.	c #596E64",
"F.	c #60FB60",
"G.	c #62F764",
"H.	c #6BA875",
"I.	c #748883",
"J.	c #748685",
"K.	c #748585",
"L.	c #65E468",
"M.	c #65D969",
"N.	c #767C88",
"O.	c #658171",
"P.	c #584C66",
"Q.	c #5DEE5E",
"R.	c #826298",
"S.	c #845C9A",
"T.	c #845A9B",
"U.	c #845B9B",
"V.	c #777088",
"W.	c #747F85",
"X.	c #598363",
"Y.	c #5A6766",
"Z.	c #60816C",
"`.	c #659670",
" +	c #669870",
".+	c #638C6D",
"++	c #5D6B6A",
"@+	c #565F62",
"            . + @ # $           ",
"      % & * = - ; > , ' )       ",
"    ! ~ { ] ^ / ( _ : < [ }     ",
"  | 1 2 3 4 5 6 7 8 9 0 a b c   ",
"  d e f g h i j k l m n o b p   ",
"  q b b r s t u v w x y b f f z ",
"A B b k C D E F G H b f b I b J ",
"K L M N O P Q R S T U V b W X Y ",
"Z `  ...+.@.#.$.%.&.*.=.-.;.>.,.",
"'.).!.~.{.].^./.(._.V :.<.[.}.|.",
"1.2.3.4.5.6.7.8.9.b f 0.a.b.c.d.",
"  e.f.b V g.h.i.j.k.l.m.n.o.p.q.",
"  r.s.t.t.u.v.w.x.y.z.A.B.C.D.  ",
"    E.F.G.H.I.J.J.K.L.M.N.O.    ",
"      P.Q.R.S.T.T.U.V.W.X.      ",
"          Y.Z.`. +.+++@+        "};
