/* XPM */
static char * installer_16x16_xpm[] = {
"16 16 127 2",
"  	c None",
". 	c #E2E2E2",
"+ 	c #DCDCDC",
"@ 	c #BDBDBD",
"# 	c #F9F9F9",
"$ 	c #E5E5E5",
"% 	c #C8C8C8",
"& 	c #E1E1E1",
"* 	c #EBEBEB",
"= 	c #F5F5F5",
"- 	c #F2F1F2",
"; 	c #F1F1F2",
"> 	c #F4F4F4",
", 	c #DADADA",
"' 	c #F2F2F2",
") 	c #BCBCBC",
"! 	c #D7D7D7",
"~ 	c #E8E8E8",
"{ 	c #D9D9D9",
"] 	c #D4D5D4",
"^ 	c #D5D6D3",
"/ 	c #DADCD8",
"( 	c #E9E9E9",
"_ 	c #9B9B9B",
": 	c #DEDEDE",
"< 	c #D5D5D6",
"[ 	c #E0DFE2",
"} 	c #C4C8B8",
"| 	c #CDCEC9",
"1 	c #DADADB",
"2 	c #D3D6D0",
"3 	c #D6D6D6",
"4 	c #7E7E7E",
"5 	c #AFAFAF",
"6 	c #DBDBDB",
"7 	c #D3D3D3",
"8 	c #DAD8DE",
"9 	c #A0B36A",
"0 	c #DCF0A5",
"a 	c #CADF8F",
"b 	c #B6BEA1",
"c 	c #C7C7C6",
"d 	c #D3CEC8",
"e 	c #F5EBDA",
"f 	c #FFF1DC",
"g 	c #CACACA",
"h 	c #D1D1D1",
"i 	c #D1D1D0",
"j 	c #B3B5AF",
"k 	c #94C81E",
"l 	c #A4D647",
"m 	c #9DD13F",
"n 	c #8BAB3C",
"o 	c #C9C3C0",
"p 	c #79A9EC",
"q 	c #77ADEF",
"r 	c #77ADEE",
"s 	c #8AB4EC",
"t 	c #9D9D9D",
"u 	c #ACACAC",
"v 	c #CBCBCB",
"w 	c #D0D0D0",
"x 	c #C0BFC4",
"y 	c #77A70E",
"z 	c #71B927",
"A 	c #7BBE26",
"B 	c #81954C",
"C 	c #E0DBD1",
"D 	c #5F8FC8",
"E 	c #B3D3E7",
"F 	c #6894C8",
"G 	c #BEBEBE",
"H 	c #CECECE",
"I 	c #C9C9CA",
"J 	c #8D917F",
"K 	c #65852E",
"L 	c #6C813F",
"M 	c #C1C0C4",
"N 	c #E2DED7",
"O 	c #446B9A",
"P 	c #8EACC4",
"Q 	c #52749F",
"R 	c #A1A1A1",
"S 	c #C0BFC0",
"T 	c #BEC4B9",
"U 	c #CACACB",
"V 	c #DAD9D8",
"W 	c #92A6C3",
"X 	c #809ABF",
"Y 	c #39629C",
"Z 	c #6884A1",
"` 	c #6784A1",
" .	c #41699E",
"..	c #666666",
"+.	c #D2D2D2",
"@.	c #DDDCDA",
"#.	c #516687",
"$.	c #516B88",
"%.	c #516D8E",
"&.	c #537399",
"*.	c #54739A",
"=.	c #4B688B",
"-.	c #617893",
";.	c #5E789C",
">.	c #5C5C5C",
",.	c #989898",
"'.	c #303030",
").	c #D4D4D4",
"!.	c #CDCDCD",
"~.	c #193257",
"{.	c #466899",
"].	c #5B7DAE",
"^.	c #5E81B2",
"/.	c #5273A2",
"(.	c #142E53",
"_.	c #D8D8D8",
":.	c #B0B0B0",
"<.	c #4A6C9B",
"[.	c #6F95C9",
"}.	c #7296CB",
"|.	c #5073A3",
"1.	c #061427",
"2.	c #8BB2E4",
"3.	c #93BAED",
"4.	c #0A1727",
"5.	c #2E475D",
"6.	c #293F51",
"            . +                 ",
"          @ # $     %           ",
"    & * + = - ; > , ' )         ",
"    ! ~ ~ { ] ^ / ( . _         ",
"    @ : < [ } | 1 2 3 4         ",
"  5 6 7 8 9 0 a b c d e f       ",
"g % h i j k l m n o p q r s     ",
"t u v w x y z A B C D E E F     ",
"    G H I J K L M N O P P Q     ",
"    R S T % U V W X Y Z `  .    ",
"  ..7 H : +.{ @.#.$.%.&.*.=.-.;.",
"    >.,.'.+.).!.  ~.{.].^./.(.  ",
"          t _.:.    <.[.}.|.    ",
"                    1.2.3.4.    ",
"                      5.6.      ",
"                                "};
