/* XPM */
static char * installer_32x32_xpm[] = {
"32 32 375 2",
"  	c None",
". 	c #BCBCBC",
"+ 	c #CBCBCB",
"@ 	c #F7F7F7",
"# 	c #F6F6F6",
"$ 	c #C2C2C2",
"% 	c #D2D2D2",
"& 	c #FAFAFA",
"* 	c #F9F9F9",
"= 	c #A7A7A7",
"- 	c #909090",
"; 	c #EEEEEE",
"> 	c #E5E5E5",
", 	c #8E8E8E",
"' 	c #E0E0E0",
") 	c #BABABA",
"! 	c #ACACAC",
"~ 	c #F3F3F3",
"{ 	c #DADADA",
"] 	c #AEAEAE",
"^ 	c #EFEFEF",
"/ 	c #F1F1F1",
"( 	c #E9E9E9",
"_ 	c #B0B0B0",
": 	c #EAEAEA",
"< 	c #F4F4F4",
"[ 	c #999999",
"} 	c #EBEBEB",
"| 	c #ECECEC",
"1 	c #F0F0F0",
"2 	c #E7E7E7",
"3 	c #979797",
"4 	c #858585",
"5 	c #E6E6E6",
"6 	c #EDEDED",
"7 	c #D3D3D3",
"8 	c #D0D0D0",
"9 	c #CECFCE",
"0 	c #CFD1CD",
"a 	c #D2D5CE",
"b 	c #EAEAEC",
"c 	c #E8E8E8",
"d 	c #E1E1E1",
"e 	c #747474",
"f 	c #9F9F9F",
"g 	c #E4E4E4",
"h 	c #D5D5D5",
"i 	c #CCCCCC",
"j 	c #DEDEDE",
"k 	c #C8CCC4",
"l 	c #D3D7CD",
"m 	c #DFDFDF",
"n 	c #DBDBDB",
"o 	c #888888",
"p 	c #7E7E7E",
"q 	c #D1D1D1",
"r 	c #DCDCDC",
"s 	c #DFDEDF",
"t 	c #E0DEE0",
"u 	c #DEDDDE",
"v 	c #DBDBDD",
"w 	c #D4D6D4",
"x 	c #CDD2C7",
"y 	c #E3E3E3",
"z 	c #D8D8D8",
"A 	c #D6D6D6",
"B 	c #646464",
"C 	c #C9C9C9",
"D 	c #DDDDDD",
"E 	c #D4D4D4",
"F 	c #DDDDDE",
"G 	c #E0DFE0",
"H 	c #D2D4D1",
"I 	c #B2BA9C",
"J 	c #B2BC96",
"K 	c #B1BA9B",
"L 	c #CECFCB",
"M 	c #DBDADB",
"N 	c #D7D7D8",
"O 	c #D1D2D0",
"P 	c #D0D3CE",
"Q 	c #B4B4B4",
"R 	c #5F5F5F",
"S 	c #CDCDCD",
"T 	c #D9D9D9",
"U 	c #BCC0B0",
"V 	c #AABB7A",
"W 	c #D6E5AA",
"X 	c #E2F0B9",
"Y 	c #DAE9AD",
"Z 	c #AFC17F",
"` 	c #B7BBAA",
" .	c #D8D8D9",
"..	c #C6C8C2",
"+.	c #D7D8D8",
"@.	c #E2E2E2",
"#.	c #D7D7D7",
"$.	c #CFCFCF",
"%.	c #D4D3D6",
"&.	c #7C992E",
"*.	c #C1DA7E",
"=.	c #CCE787",
"-.	c #D3EE90",
";.	c #CFE98A",
">.	c #C5DE81",
",.	c #84A32F",
"'.	c #CECED1",
").	c #CBCACB",
"!.	c #BFBEBE",
"~.	c #CBC9C8",
"{.	c #DAD5CD",
"].	c #E1DBD2",
"^.	c #EFE9E0",
"/.	c #EEE8E1",
"(.	c #E5E0D8",
"_.	c #CACACA",
":.	c #CECECE",
"<.	c #D2D2D3",
"[.	c #A1A792",
"}.	c #8CBB14",
"|.	c #ADD453",
"1.	c #B8DE60",
"2.	c #B9E162",
"3.	c #B8DE61",
"4.	c #AFD755",
"5.	c #8FC117",
"6.	c #9BA285",
"7.	c #C1C1C3",
"8.	c #BDBBB8",
"9.	c #C7D8F0",
"0.	c #3578E1",
"a.	c #236CDE",
"b.	c #236DDC",
"c.	c #236CDC",
"d.	c #236EDE",
"e.	c #2E75E0",
"f.	c #C1D9FB",
"g.	c #C7C7C7",
"h.	c #8F9876",
"i.	c #90C01B",
"j.	c #89C41E",
"k.	c #8DCA2C",
"l.	c #90CD33",
"m.	c #8ACA2D",
"n.	c #86C51F",
"o.	c #8FC31C",
"p.	c #879364",
"q.	c #BEBDBE",
"r.	c #CEC8C2",
"s.	c #1E63CB",
"t.	c #ECFFFF",
"u.	c #E2FBFF",
"v.	c #E9FFFF",
"w.	c #4A80D2",
"x.	c #C4C4C4",
"y.	c #C3C3C3",
"z.	c #C8C8C8",
"A.	c #999E8D",
"B.	c #82AF15",
"C.	c #85BF22",
"D.	c #7BBF25",
"E.	c #77BF27",
"F.	c #78BE27",
"G.	c #80BD23",
"H.	c #88BB1A",
"I.	c #848973",
"J.	c #C5C5C5",
"K.	c #D5D1C9",
"L.	c #1956B4",
"M.	c #CBE9F6",
"N.	c #BFDFF1",
"O.	c #CBEAF7",
"P.	c #1D59B2",
"Q.	c #7D7D7D",
"R.	c #A9A9A9",
"S.	c #C2C2C4",
"T.	c #5D7618",
"U.	c #88BC20",
"V.	c #76B625",
"W.	c #6BB52A",
"X.	c #70B527",
"Y.	c #81BB23",
"Z.	c #648118",
"`.	c #AEAEAF",
" +	c #C9CBCA",
".+	c #DFDBD5",
"++	c #12489B",
"@+	c #B7D5E4",
"#+	c #ACCBDF",
"$+	c #ACCADE",
"%+	c #194D9C",
"&+	c #C6C6C6",
"*+	c #CBCBCC",
"=+	c #8E9088",
"-+	c #5C741B",
";+	c #76A719",
">+	c #73B022",
",+	c #73A91C",
"'+	c #607C1A",
")+	c #82847B",
"!+	c #CFCFD0",
"~+	c #C4C4C5",
"{+	c #E5E1DC",
"]+	c #0B3C84",
"^+	c #A3BFD3",
"/+	c #99B7CD",
"(+	c #A4C1D3",
"_+	c #144185",
":+	c #A0A0A0",
"<+	c #CCCDCB",
"[+	c #C3C3C4",
"}+	c #C0C0C1",
"|+	c #949492",
"1+	c #676C5B",
"2+	c #61684A",
"3+	c #6B6F5D",
"4+	c #989895",
"5+	c #DDDAD5",
"6+	c #073170",
"7+	c #90ABC1",
"8+	c #86A3BC",
"9+	c #91ABC2",
"0+	c #0E3670",
"a+	c #575757",
"b+	c #C2C6BE",
"c+	c #B1BEA5",
"d+	c #B5B4B6",
"e+	c #BEBEBF",
"f+	c #C1C1C0",
"g+	c #C0C1C0",
"h+	c #C8C9C7",
"i+	c #D4D3D3",
"j+	c #D7D6D3",
"k+	c #EAE6E2",
"l+	c #EEEBE5",
"m+	c #EDE6DA",
"n+	c #0D3D85",
"o+	c #7A94AD",
"p+	c #738FAB",
"q+	c #728FAA",
"r+	c #728FAB",
"s+	c #7A95AF",
"t+	c #154285",
"u+	c #BDBDBD",
"v+	c #BEBEBE",
"w+	c #C1C1C1",
"x+	c #CACDC8",
"y+	c #D5D8D2",
"z+	c #DFDDDC",
"A+	c #7692BA",
"B+	c #1E509C",
"C+	c #0D4396",
"D+	c #11499C",
"E+	c #1C53AA",
"F+	c #637E99",
"G+	c #5F7C9A",
"H+	c #607C9B",
"I+	c #5F7C9B",
"J+	c #637F98",
"K+	c #1D54AB",
"L+	c #2054A2",
"M+	c #1C4E9B",
"N+	c #315FA4",
"O+	c #B2B2B2",
"P+	c #DDDBD9",
"Q+	c #5E79A0",
"R+	c #547299",
"S+	c #5B7591",
"T+	c #5A738F",
"U+	c #5B7491",
"V+	c #547093",
"W+	c #567397",
"X+	c #587699",
"Y+	c #58769A",
"Z+	c #567498",
"`+	c #527093",
" @	c #536D8B",
".@	c #546E8C",
"+@	c #56708D",
"@@	c #7A94B5",
"#@	c #7392C0",
"$@	c #303030",
"%@	c #B8BCC2",
"&@	c #00163C",
"*@	c #375378",
"=@	c #3B597F",
"-@	c #45648A",
";@	c #4D6B93",
">@	c #52729A",
",@	c #55769E",
"'@	c #56769F",
")@	c #53739C",
"!@	c #4C6B94",
"~@	c #42628A",
"{@	c #587293",
"]@	c #607694",
"^@	c #223858",
"/@	c #404040",
"(@	c #848484",
"_@	c #0E0E0E",
":@	c #8F8F8F",
"<@	c #D0D0CF",
"[@	c #424D5B",
"}@	c #122949",
"|@	c #3C5985",
"1@	c #476691",
"2@	c #55749F",
"3@	c #607EA9",
"4@	c #6784AF",
"5@	c #6887B2",
"6@	c #6785AF",
"7@	c #617EA8",
"8@	c #58759C",
"9@	c #2C4D7C",
"0@	c #0B2244",
"a@	c #051834",
"b@	c #2E2E2E",
"c@	c #B8B8B8",
"d@	c #051938",
"e@	c #234067",
"f@	c #3A5D93",
"g@	c #466CA2",
"h@	c #5076AD",
"i@	c #567CB4",
"j@	c #567EB5",
"k@	c #5278B0",
"l@	c #4C71A7",
"m@	c #3F6398",
"n@	c #2D4B73",
"o@	c #051630",
"p@	c #B7B7B7",
"q@	c #A8A8A8",
"r@	c #051A36",
"s@	c #486C9C",
"t@	c #597EB5",
"u@	c #6389BF",
"v@	c #6B90C5",
"w@	c #6C91C6",
"x@	c #668BC1",
"y@	c #5C82B9",
"z@	c #4F74A6",
"A@	c #091B33",
"B@	c #949494",
"C@	c #898989",
"D@	c #122844",
"E@	c #6990C6",
"F@	c #7298CC",
"G@	c #7DA1D5",
"H@	c #7EA2D6",
"I@	c #769ACF",
"J@	c #6E94CB",
"K@	c #1C324B",
"L@	c #031229",
"M@	c #34516E",
"N@	c #81A5DA",
"O@	c #8CB1E3",
"P@	c #91B4E6",
"Q@	c #84A8DC",
"R@	c #456583",
"S@	c #000A1C",
"T@	c #000615",
"U@	c #638AAF",
"V@	c #93B5E8",
"W@	c #96BAEC",
"X@	c #749CC5",
"Y@	c #000510",
"Z@	c #030D16",
"`@	c #81ACDC",
" #	c #89B2E6",
".#	c #0B191F",
"+#	c #223F4F",
"@#	c #315869",
"##	c #000106",
"$#	c #32515F",
"%#	c #335A66",
"                          .                                     ",
"                      + @ # # $                                 ",
"                      % & * & .                                 ",
"          = %       - ; # # # > ,       ' )                     ",
"        ! # ~ { ] ^ # / / / / ~ @ ( _ : / < )                   ",
"      [ / } | ; 1 ^ ; ; ^ 1 ^ ; ; ; ; | } 2 | 3                 ",
"      4 } 5 : } 6 6 6 7 8 9 0 a } b ( c 5 d 5 e                 ",
"        f g g : ^ h i d ' j j j k l ( > m n o                   ",
"        p d ' > q r j m s t u v { w x y z A B                   ",
"        C r D E E F G H I J K L M N O P 8 + Q                   ",
"      R n z D S 7 T U V W X Y Z `  .q ..C i +.                  ",
"  m @.d E #.#.$.% %.&.*.=.-.;.>.,.'.).!.~.{.].^./.(.            ",
"  S _.S q E A :.<.[.}.|.1.2.3.4.5.6.7.8.9.0.a.b.c.d.e.f.        ",
"  C g._.:.q A + <.h.i.j.k.l.m.n.o.p.q.r.s.t.u.u.u.u.v.w.        ",
"  x.y.g._.:.T z.:.A.B.C.D.E.F.G.H.I.J.K.L.M.N.N.N.N.O.P.        ",
"  Q.o R.z.+ 7 + C S.T.U.V.W.X.Y.Z.`. +.+++@+#+#+$+$+@+%+        ",
"        C &+C E J.*+=+-+;+>+,+'+)+!+~+{+]+^+/+/+/+/+(+_+        ",
"        :+J.z.8 <+[+}+|+1+2+3+4+$.<.h 5+6+7+8+8+8+8+9+0+        ",
"        a+&+x.y.b+c+d+e+f+g+h+i+j+k+l+m+n+o+p+p+q+r+s+t+        ",
"        u+u+v+w+J.x+y+E i + 8 z+A+B+C+D+E+F+G+H+I+G+J+K+L+M+N+  ",
"      O+J.g._.S $.q % 7 n j r P+Q+R+S+T+U+V+W+X+Y+Z+`+ @.@+@@@#@",
"      $@C _.+ q j 7 7 E E E E h %@&@*@=@-@;@>@,@'@)@!@~@{@]@^@  ",
"        /@S A (@_@:@% A E 7 7 #.<@[@}@|@1@2@3@4@5@6@7@8@9@0@a@  ",
"          b@B         &+h h h c@    d@e@f@g@h@i@j@k@l@m@n@o@    ",
"                      p@#.#.#.q@      r@s@t@u@v@w@x@y@z@A@      ",
"                      B@+ { C C@        D@E@F@G@H@I@J@K@        ",
"                                        L@M@N@O@P@Q@R@S@        ",
"                                          T@U@V@W@X@Y@          ",
"                                            Z@`@ #.#            ",
"                                              +#@###            ",
"                                              $#%#              ",
"                                                                "};
