/* XPM */
static char *taskbuttonactive[] = {
/* columns rows colors chars-per-pixel */
"2 20 17 1 ",
"  c #000A70",
". c #001C7E",
"X c #001B82",
"o c #001D81",
"O c #001B84",
"+ c #001C85",
"@ c #001C88",
"# c #001E8B",
"$ c #011F96",
"% c #002087",
"& c #002C8F",
"* c #002092",
"= c #002497",
"- c #002996",
"; c #012E96",
": c #002998",
"> c #154997",
/* pixels */
">>",
";;",
"%%",
"oo",
"..",
"o.",
"XO",
"XX",
"++",
"+O",
"@@",
"@@",
"=+",
"$$",
"==",
"--",
";&",
"--",
"$$",
"  "
};
