/* XPM */
static char *taskbuttonbg[] = {
/* columns rows colors chars-per-pixel */
"2 20 18 1 ",
"  c #0129CF",
". c #0253E0",
"X c #0452E2",
"o c #0051E7",
"O c #0155E4",
"+ c #0153E8",
"@ c #0054EB",
"# c #0056EF",
"$ c #035CEB",
"% c #0159F3",
"& c #025CF7",
"* c #065AFD",
"= c #0463FD",
"- c #006CFD",
"; c #046CFF",
": c #0171F5",
"> c #0474FD",
", c #439DFE",
/* pixels */
",,",
">>",
"$$",
"OO",
"..",
"XX",
"oo",
"oo",
"Oo",
"+O",
"@@",
"##",
"%%",
"&&",
"==",
";;",
"::",
"--",
"**",
"  "
};
