/* XPM */
static char *frameAT[] = {
/* columns rows colors chars-per-pixel */
"2 6 12 1 ",
"  c #666699",
". c #666699",
"X c #606090",
"o c #606090",
"O c #0E0E14",
"+ c #0E0E14",
"@ c #8E8EBE",
"# c #8E8EBE",
"$ c #69699C",
"% c #69699C",
"& c #666699",
"* c #666699",
/* pixels */
" .",
"Xo",
"O+",
"@#",
"$%",
"&*"
};
