/* XPM */
static char *titleIT[] = {
/* columns rows colors chars-per-pixel */
"2 20 40 1 ",
"  c gray80",
". c gray80",
"X c gray80",
"o c gray80",
"O c gray80",
"+ c gray80",
"@ c gray80",
"# c gray80",
"$ c gray80",
"% c gray80",
"& c gray80",
"* c gray80",
"= c gray80",
"- c gray80",
"; c gray80",
": c gray80",
"> c gray80",
", c gray80",
"< c gray80",
"1 c gray80",
"2 c gray80",
"3 c gray80",
"4 c gray80",
"5 c gray80",
"6 c gray80",
"7 c gray80",
"8 c gray80",
"9 c gray80",
"0 c gray80",
"q c gray80",
"w c gray80",
"e c gray80",
"r c gray80",
"t c gray80",
"y c gray80",
"u c gray80",
"i c #C8C8CA",
"p c #C8C8CA",
"a c #70709E",
"s c #70709E",
/* pixels */
" .",
"Xo",
"O+",
"@#",
"$%",
"&*",
"=-",
";:",
">,",
"<1",
"23",
"45",
"67",
"89",
"0q",
"we",
"rt",
"yu",
"ip",
"as"
};
