/* XPM */
static char *x_32x32[] = {
/* width height ncolors chars_per_pixel */
"32 32 461 2",
/* colors */
"   c #000000",
" . c #B1B1B1",
" X c #AFAFAF",
" o c #C29B83",
" O c #F89F55",
" + c #4E433C",
" @ c #FDF0EB",
" # c #F38B64",
" $ c #3F3F41",
" % c #F6E0CD",
" & c #E8B866",
" * c #F3885A",
" = c #FFF2D9",
" - c #A5A5A5",
" ; c #FFFDFA",
" : c #EE5627",
" > c #262525",
" , c #40392E",
" < c #FEE8D8",
" 1 c #FED482",
" 2 c #B89990",
" 3 c #FEF6EF",
" 4 c #9D9D9D",
" 5 c #E6AF85",
" 6 c #ED4F1C",
" 7 c #666667",
" 8 c #ED4D1C",
" 9 c #EC4D1B",
" 0 c #F8A04E",
" q c #EC4B1B",
" w c #979797",
" e c #959595",
" r c #FEF2DB",
" t c #FFFFFD",
" y c #FFFDFD",
" u c #939393",
" i c #FCD8C2",
" p c #F27C31",
" a c #F06C43",
" s c #FEE4B0",
" d c #F37832",
" f c #A9A398",
" g c #EE5720",
" h c #FEFAF2",
" j c #121111",
" k c #FEF6F2",
" l c #898989",
" z c #BEBEBD",
" x c #878787",
" c c #F7F0EB",
" v c #868586",
" b c #838383",
" n c #FEFFFF",
" m c #D4BE97",
" M c #F6A891",
" N c #7F7F7F",
" B c #FEEDD4",
" V c #FBE8DB",
" C c #282423",
" Z c #010100",
" A c #FEDDA9",
" S c #7A7B7A",
" D c #FFF9EC",
" F c #7A797A",
" G c #E4E3E2",
" H c #FEF7EB",
" J c #F9BA97",
" K c #F16929",
" L c #201E1B",
" P c #404041",
" I c #FDE9BF",
" U c #AAAAA9",
" Y c #E4C3B7",
" T c #F27637",
" R c #FDF1D6",
" E c #FEEFD7",
" W c #FFFCF9",
" Q c #FEEBD7",
" ! c #FDD68A",
" ~ c #F39170",
" ^ c #F68E3E",
" / c #696969",
" ( c #F68A3E",
" ) c #7C6D54",
" _ c #676767",
" ` c #FBDFD4",
" ' c #634B21",
" ] c #656565",
" [ c #FCD3AA",
" { c #FCD2A0",
" } c #F69F76",
" | c #FCD0A0",
".  c #858281",
".. c #FFFEFC",
".X c #080603",
".o c #5B5B5B",
".O c #F6A78D",
".+ c #EE541F",
".@ c #FDD583",
".# c #585758",
".$ c #575757",
".% c #ED521E",
".& c #F9A551",
".* c #FEDAA5",
".= c #A09B98",
".- c #FCD3AD",
".; c #FDD8A4",
".: c #ED9463",
".> c #535353",
"., c #FDE5C5",
".< c #FDE1C5",
".1 c #FEE8BC",
".2 c #F1F0EE",
".3 c #EF5D2D",
".4 c #4F4F4F",
".5 c #F06224",
".6 c #F8AF92",
".7 c #FFFEFF",
".8 c #FEFEFE",
".9 c #161617",
".0 c #EC572A",
".q c #4B4B4B",
".w c #FCFCFC",
".e c #F39376",
".r c #FAFAFA",
".t c #FDE5DC",
".y c #926852",
".u c #121213",
".i c #F8F8F8",
".p c #FBE3DA",
".a c #FEE0A8",
".s c #EF683A",
".d c #FEDEA8",
".f c #454545",
".g c #F6F6F6",
".h c #C0C1C1",
".j c #DDC0AC",
".k c #FDCD86",
".l c #FFF8EB",
".z c #FED27D",
".x c #F4F4F4",
".c c #FACAB8",
".v c #414141",
".b c #F2F2F2",
".n c #0F0B06",
".m c #3F3F3F",
".M c #F0F0F0",
".N c #3D3D3D",
".B c #EFDDCE",
".V c #FEDA94",
".C c #FCC27B",
".Z c #EDECED",
".A c #BCB8B3",
".S c #ECECEC",
".D c #F27536",
".F c #F06E3E",
".G c #FFFBF8",
".H c #E9E8E9",
".J c #E8E8E8",
".K c #B2B3B3",
".L c #000001",
".P c #E6E6E6",
".I c #E4E4E4",
".U c #F5A288",
".Y c #313131",
".T c #ED4D1A",
".R c #F2774D",
".E c #2F2F2F",
".W c #2D2D2D",
".Q c #2B2B2B",
".! c #DCDCDC",
".~ c #969594",
".^ c #FCDCC0",
"./ c #292929",
".( c #DADADA",
".) c #FEFDFA",
"._ c #D8D8D8",
".` c #FEFBFA",
".' c #F2E8E1",
".] c #252525",
".[ c #FBF9F7",
".{ c #F8A359",
".} c #D4D4D4",
".| c #F7B6A4",
"X  c #212121",
"X. c #D2D2D2",
"XX c #FCDED7",
"Xo c #1F1F1F",
"XO c #D0D0D0",
"X+ c #F1774F",
"X@ c #1D1D1D",
"X# c #F0642D",
"X$ c #1C1D1C",
"X% c #FBDBCC",
"X& c #1B1B1B",
"X* c #CCCCCC",
"X= c #FDEDE5",
"X- c #EE5C2B",
"X; c #FFFFFE",
"X: c #FEFFFD",
"X> c #C8C8C8",
"X, c #F7AC90",
"X< c #FDFDFC",
"X1 c #FEE2B1",
"X2 c #151515",
"X3 c #C6C6C6",
"X4 c #FFFAF4",
"X5 c #C4C4C4",
"X6 c #F9F9F8",
"X7 c #FDEBD1",
"X8 c #D97937",
"X9 c #CE7740",
"X0 c #FEECC8",
"Xq c #0F0F0F",
"Xw c #C0C0C0",
"Xe c #DAD4C9",
"Xr c #CE9F43",
"Xt c #FEF3E9",
"Xy c #2A200F",
"Xu c #BCBCBC",
"Xi c #FEE9BE",
"Xp c #090909",
"Xa c #F0EFEF",
"Xs c #FDE3BD",
"Xd c #F59A7A",
"Xf c #070707",
"Xg c #EDEDEC",
"Xh c #ECEBEB",
"Xj c #FEF1D5",
"Xk c #030303",
"Xl c #FAD2C4",
"Xz c #EF7832",
"Xx c #EE5524",
"Xc c #020102",
"Xv c #FCE4DD",
"Xb c #010101",
"Xn c #786B62",
"Xm c #B2B2B2",
"XM c #ED5323",
"XN c #000100",
"XB c #FFEECC",
"XV c #B58D3E",
"XC c #484540",
"XZ c #F2784C",
"XA c #AAAAAA",
"XS c #7A7471",
"XD c #2A2A29",
"XF c #FBD6C8",
"XG c #FEF1D8",
"XH c #A4A4A4",
"XJ c #FCD9BF",
"XK c #E17E3B",
"XL c #FFFCFA",
"XP c #FCE6E0",
"XI c #FFE3AE",
"XU c #FEE3AD",
"XY c #9E885C",
"XT c #F8B9A4",
"XR c #F1712D",
"XE c #9C9C9C",
"XW c #1E1E1D",
"XQ c #DED2BF",
"X! c #AD8539",
"X~ c #FCD4A1",
"X^ c #FEF0E5",
"X/ c #969696",
"X( c #74654D",
"X) c #F6AC98",
"X_ c #191818",
"X` c #FAAE5D",
"X' c #FFFEFD",
"X] c #FEFEFC",
"X[ c #211A0C",
"X{ c #929292",
"X} c #A18F83",
"X| c #F5A78D",
"o  c #59595A",
"o. c #8E8E8E",
"oX c #F9CDBF",
"oo c #F26D31",
"oO c #FDF5F1",
"o+ c #8A8A8A",
"o@ c #FEF4E8",
"o# c #888888",
"o$ c #FCC783",
"o% c #515152",
"o& c #AD602F",
"o* c #211B19",
"o= c #868686",
"o- c #FABA8B",
"o; c #FEFEFF",
"o: c #FDFEFE",
"o> c #808080",
"o, c #030202",
"o< c #44372E",
"o1 c #F5966F",
"o2 c #FEFBF5",
"o3 c #FCE5DC",
"o4 c #FEE2A9",
"o5 c #010000",
"o6 c #7C7C7C",
"o7 c #6A6867",
"o8 c #FFF8EC",
"o9 c #FDCB87",
"o0 c #F7A57E",
"oq c #FCDED2",
"ow c #F1F2F2",
"oe c #F16629",
"or c #DECDBB",
"ot c #FDE2BF",
"oy c #727272",
"ou c #F5997C",
"oi c #707070",
"op c #FDE9E0",
"oa c #191714",
"os c #F7B08B",
"od c #FCDABE",
"of c #FDE1B5",
"og c #FFFDF9",
"oh c #282726",
"oj c #FEFDF8",
"ok c #716B67",
"ol c #4C3C1B",
"oz c #FED481",
"ox c #686868",
"oc c #FEF4EE",
"ov c #FDF4ED",
"ob c #FEF5E4",
"on c #FDCF76",
"om c #FEF3E4",
"oM c #FACA7D",
"oN c #2C2D2D",
"oB c #EF622A",
"oV c #FFF2DB",
"oC c #5E5E5E",
"oZ c #FFFDFC",
"oA c #D8D8D9",
"oS c #5C5C5C",
"oD c #D1A24E",
"oF c #252526",
"oG c #F49274",
"oH c #89675A",
"oJ c #121110",
"oK c #D2D2D3",
"oL c #545454",
"oP c #EBE0DB",
"oI c #0C0B0A",
"oU c #FEE7BC",
"oY c #1A1B1B",
"oT c #FCCFA3",
"oR c #FFFFFF",
"oE c #FEFFFE",
"oW c #FBDAC3",
"oQ c #FEFDFE",
"o! c #2D2827",
"o~ c #EF5F23",
"o^ c #FDFDFD",
"o/ c #F8AF88",
"o( c #FBFBFB",
"o) c #FAF9FA",
"o_ c #F9F9F9",
"o` c #EE5122",
"o' c #F7F7F7",
"o] c #FDF6F3",
"o[ c #9B7733",
"o{ c #FBB86D",
"o} c #F5F5F5",
"o| c #EF8447",
"O  c #F3F3F3",
"O. c #F9C9B7",
"OX c #FCE4C7",
"Oo c #EFEFEF",
"OO c #FABC83",
"O+ c #EDEDED",
"O@ c #EF5B26",
"O# c #3A3A3A",
"O$ c #BE8F73",
"O% c #030304",
"O& c #FFFCF8",
"O* c #FED68A",
"O= c #020103",
"O- c #010102",
"O; c #363636",
"O: c #000101",
"O> c #E7E7E7",
"O, c #FDF8F6",
"O< c #343434",
"O1 c #E5E5E5",
"O2 c #323232",
"O3 c #E3E3E3",
"O4 c #FCDDD4",
"O5 c #EC7951",
"O6 c #303030",
"O7 c #FACCB1",
"O8 c #F9AC6E",
"O9 c #646363",
"O0 c #EE5E32",
"Oq c #524F4E",
"Ow c #E1B79F",
"Oe c #DCDDDC",
"Or c #594420",
"Ot c #2A2A2A",
"Oy c #FFFEFB",
"Ou c #5E5D5D",
"Oi c #282828",
"Op c #FFFCFB",
"Oa c #FEFCFA",
"Os c #262626",
"Od c #242424",
"Of c #D5D5D5",
"Og c #232423",
"Oh c #FCE5D7",
"Oj c #F6A38C",
"Ok c #EE521E",
"Ol c #D3D3D3",
"Oz c #ED501D",
"Ox c #F0C268",
"Oc c #FFF4E7",
"Ov c #FDD6A3",
"Ob c #775B26",
"On c #472B18",
"Om c #CBCBCB",
"OM c #F17345",
"ON c #FFF1DD",
"OB c #FCE6B9",
"OV c #FFFEFE",
"OC c #C9C9C9",
"OZ c #FEFEFD",
"OA c #161616",
"OS c #EF6943",
"OD c #EE5A21",
"OF c #C5C5C5",
"OG c #AE8C48",
"OH c #B88C3E",
"OJ c #C1C1C1",
"OK c #FDE4D1",
"OL c #444343",
"OP c #0E0E0E",
"OI c #FFF6EA",
"OU c #0C0C0C",
"OY c #0A0A0A",
"OT c #BBBBBB",
"OR c #FCECE7",
"OE c #080808",
"OW c #B9B9B9",
"OQ c #838484",
"O! c #FEF1DF",
"O~ c #FEDA93",
"O^ c #CBA58C",
"O/ c #070607",
"O( c #060606",
"O) c #B7B7B7",
"O_ c #ECECEB",
"O` c #FBD890",
"O' c #FDEED4",
"O] c #020202",
"O[ c #010201",
"O{ c #E8E8E7",
"O} c #010001",
"O| c #FDE2A9",
"+  c None",
/* pixels */
"oRoRoRoRoRoRoRoRoRoRoRoRoRoRoRoRoRoRoRoRoRoRoRoRoRoRoRoRoRoRoRoR",
"oRoRoRoRoRoRoRoRoRoRoRoRoRoRoRoRoRoRoRoRoRoRoRoRoRoRoRoRoRoRoRoR",
"oRoR.8.r.go}o}o}o}o'.woRoRoRoRoRoRoRoRoRoRoRoRoRoR.8.i.g.r.8oRoR",
"oRoR.w.}X{ N N N No.XO.8oRoRoRoRoRoRoRoRoRoRoRoR.8.J 4 u.}o(oRoR",
"oRoR.wOl.$OE      OP /O3.8oRoRoRoRoRoRoRoRoRoRoRO  wOioSOl.woRoR",
"oRoRoRo(XmO2Xk    XbXo u.MoRoRoRoRoRoRoRoRoRoRoROW.Y.mXuo(oRoRoR",
"oRoRoRo;.b eoY.Lo5  O%O2 .o)X;OV.7 nX;X;OV n.8oA $XD U.goRoRoRoR",
"oRoRoR n n.HO9Xp  O}.LO(oL.}X<oRoRoRX; nX;X;.b 7.9 bow noRoRoRoR",
"oRoRoR.7oRX;OeOLo,o5 Z.LOEokOw JO7 ioWXJod.B. oJo7Xa.7.7oRoRoRoR",
"oRoRoR.7X;OaOR 2o*Xc  .L.Loa.y.:OhocovX^ %X} CXCoro@ W.7 tX;oRoR",
"oRoRoRX' @oXouO5oH jXN.L.LO-o!O$ VoEoEX6OJ P.E.AOXotX7 H..oRoRoR",
"oEX;OpXv M a.3 # YOuOYXN  O:O= +.j.Go^oKo .Q w.gX'OI.,XsON.)X;oE",
"OVoZO4oGO0X-Xd `.[X5.fO[O:XNO}oIXn.' G F >o6.P.8oRX;o2 Bof E WoE",
"X'XP.e :Xx ~.pX].7o}XHOgXc.L  .LXW.=.~.Q.oOfo^oRoRoRX;ogO'.d rX]",
"O,X).0 9X+Xl.`oEoRoRO{ S.uO}.LXNX2oiO;.m zo_oRoRoRo;OVoRojoU.a h",
"XXOS qXMX|oOX;oRoR.8o^._.#O/  XfoC.N.]XE.goRoRoRoRoRoRoRoR.l.VXB",
".|o`.T.sO.X;.7 noRoRoR.wO).YO(.q.$XkOAo=OooRoRoRoRoRoRoRoR..O| s",
"Oj 8Oz.RXF.8X;oRoRoRoRo'XAO6O< ]OU    OtXA.goRoRoRoRoRoRoRX; I s",
".U 6.%XZXFoRoEoRoRoRo(X>.qO6 N.]      O(.qOm.woRoRoRoRoRoRX;Xi s",
".OOk.+.F.cOZX;oRoR.8.( _./o#X*.qXk      OYoyO3.8oRoRoRoRoR..o4XU",
"XTO@ goB.6 kX;oRoRO+ lX ox.!o^OTOs        X@X/.goRoE.7oE.8o8 !XI",
"oqOMODo~ *X%oZoR.i -O6.qX3o(oRo' eXq      O].WOJ.8oR.7X;.).1onX0",
"o]X,X#.5ooo0X=OZX*O;O2 Xo'oRoRoRO> ]Xp      Xk.4O1oR.7..XG 1O~ D",
"OZo3o1oe K.Do/oP.>X&o+.g.8oRoRoRo^Om.v        Xfo>.iOVoVO*oz R..",
"oROV.t } TXR dX9OnXSO_.8X;o;X;oEoEo_.KoNO]o5O}  X$ fOB.z.@Xj..oR",
"oRoR yoposo|Xz pX8 5OKXtX4.)X:o;oRoR.Z xX_.X.nX[olOGOxO` =OyoRoR",
"oRoRoRoR c oo&XK ( ^ OOO [.< QO!omOcobXQ )OrObX!XrXVXYXeoQoRoRoR",
"oRoRoRo:OCOqo<O^o-O8.{ 0.&X`o{.Co$o9.koM &oDOHo[ 'Xy LOQXgX;oRoR",
"oRoRoE.So+O# vXh 3 <.^.-oT | {X~Ov.;.* AX1 mX( ,ohOdoFo%.h.roRoR",
"oRoRoR.xX.X5.J.8oRoRoZXL.G.GO&O&O&O&O&O& ;.2X*XwXwXwXwOF.I.woRoR",
"oRoRoRoRoRoRoRoRoRoRoRoRoRoRoRoRoRoRoRoRoRoRoRoRoRoRoRoRoRoRoRoR",
"oRoRoRoRoRoRoRoRoRoRoRoRoRoRoRoRoRoRoRoRoRoRoRoRoRoRoRoRoRoRoRoR"
};
