/* XPM */
static char * hideI_xpm[] = {
"15 34 32 1",
" 	g None",
".	g #858585",
"+	g #9A9A9A",
"@	g #AEAEAE",
"#	g #5D5D5D",
"$	g #111111",
"%	g #040404",
"&	g #C2C2C2",
"*	g #1B1B1B",
"=	g #323232",
"-	g #626262",
";	g #646464",
">	g #6B6B6B",
",	g #D6D6D6",
"'	g #242424",
")	g #4A4A4A",
"!	g #7D7D7D",
"~	g #EAEAEA",
"{	g #717171",
"]	g #2B2B2B",
"^	g #565656",
"/	g #CBCBCB",
"(	g #8A8A8A",
"_	g #929292",
":	g #FEFEFE",
"<	g #9F9F9F",
"[	g #0E0E0E",
"}	g #4F4F4F",
"|	g #434343",
"1	g #3C3C3C",
"2	g #363636",
"3	g #787878",
"...............",
"+++++++++++++++",
"@@@@#$%%%$#@@@@",
"&&&*=-;>;-=*&&&",
",,')->!!!>;)',,",
"~{]^/,(_(,/^]{~",
":*)^@%_<_[@^}*:",
"~%|^%!(_(!%^|%~",
",%|^->!!!>;^|%,",
"&%1|^;>>>;^|=%&",
"@[]1&}^^^^&1]$@",
"+)*]@&|}|&@=$)+",
"..$*%%=1=%%**..",
"{{{$[*'''*[${{{",
"####=%%%%%=####",
")))))))))))))))",
"222222=22222222",
"...............",
"+++++++++++++++",
"@@@@)[%%%[^@@@@",
"&&&*'|)})|'*&&&",
",,*2}}^-^^)2*,,",
"~{*|++;>-++|'{~",
":*21!%>3>%!1=*:",
"~%=|%^->-^%|=%~",
",%]1|}^^^})2]%,",
"&%'2|}}}}||=]%&",
"@['].11||1(]*[@",
"+)['..===..'[)+",
"..[[%%']'%%$$..",
"{{{[%****$[[{{{",
"####]%%%%%]####",
")))))))))))))))",
"222222222222222"};
