/* XPM */
static char *titleAT[] = {
/* columns rows colors chars-per-pixel */
"2 20 17 1 ",
"  c #39393A",
". c #27335B",
"X c #394159",
"o c #344067",
"O c #39476E",
"+ c #3F4D72",
"@ c #575656",
"# c #47567B",
"$ c #4A597D",
"% c #545B73",
"& c #546488",
"* c #607194",
"= c #6E7FA1",
"- c #6F81A3",
"; c #7283A5",
": c #7486A8",
"> c #848485",
/* pixels */
">>",
"@@",
"XX",
"OO",
"##",
"&&",
"**",
"==",
";;",
"::",
"--",
"**",
"&&",
"$$",
"+#",
"oo",
"..",
"%%",
">>",
"  "
};
