/* XPM */
static char *logoutbg[] = {
/* columns rows colors chars-per-pixel */
"2 20 14 1 ",
"  c #A7A7A7",
". c #ACACAC",
"X c #B7B7B7",
"o c #BCBCBC",
"O c #C3C3C3",
"+ c #CDCDCD",
"@ c #D4D4D4",
"# c #D9DADC",
"$ c #DCDCDC",
"% c #E0E0E0",
"& c #EBEBEB",
"* c #EEEEEF",
"= c #F5F5F5",
"- c #FDFDFD",
/* pixels */
"  ",
"@@",
"$$",
"++",
"oo",
"..",
"  ",
"..",
"XX",
"OO",
"++",
"@@",
"%%",
"*&",
"==",
"--",
"--",
"--",
"=*",
"##"
};
