/* XPM */
static char *switchbg[] = {
/* columns rows colors chars-per-pixel */
"2 20 14 1 ",
"  c #A3A3A3",
". c #A7A7A7",
"X c #ACACAC",
"o c #B7B7B7",
"O c #BDBDBD",
"+ c #C2C2C2",
"@ c #CDCDCD",
"# c #D6D6D6",
"$ c #D8D9DC",
"% c #DDDDDD",
"& c #E0E0E0",
"* c #EBEBEB",
"= c #F5F5F5",
"- c #FEFEFE",
/* pixels */
"  ",
"##",
"%%",
"@@",
"OO",
"XX",
"..",
"XX",
"oo",
"++",
"@@",
"##",
"%&",
"**",
"==",
"--",
"--",
"--",
"=*",
"$$"
};
