/* XPM */
static char * windows_xpm[] = {
"20 20 3 1",
" 	c None",
".	c #CCCCCC",
"+	c #000000",
"....................",
"....................",
"....................",
"..++++++++++........",
"..+........+........",
"..+........+........",
"..+........+........",
"..+........+........",
"..+....+++++++++++..",
"..+....+...+.....+..",
"..+....+...+.....+..",
"..++++++++++.....+..",
".......+.........+..",
".......+.........+..",
".......+.........+..",
".......+.........+..",
".......+.........+..",
".......+++++++++++..",
"....................",
"...................."};
