/* XPM */
static char * kismet_32x32_xpm[] = {
"32 32 210 2",
"  	c None",
". 	c #FFFFFF",
"+ 	c #FEFEFE",
"@ 	c #F6F6F6",
"# 	c #E0E0E1",
"$ 	c #CECFD0",
"% 	c #C5C6C8",
"& 	c #C4C5C7",
"* 	c #CACACC",
"= 	c #D9D9DB",
"- 	c #F0F0F0",
"; 	c #FCFCFC",
"> 	c #FAFAFA",
", 	c #D7D8D9",
"' 	c #C3C4C6",
") 	c #C1C2C4",
"! 	c #C2C3C5",
"~ 	c #CFD0D2",
"{ 	c #EEEEEF",
"] 	c #F7F7F7",
"^ 	c #C8C9CA",
"/ 	c #C8C9CB",
"( 	c #C7C8CA",
"_ 	c #C3C5C7",
": 	c #EFEFF1",
"< 	c #F8F8F8",
"[ 	c #CACBCD",
"} 	c #C6C7C9",
"| 	c #CDCECF",
"1 	c #F3F3F3",
"2 	c #C3C4C7",
"3 	c #EFEFF0",
"4 	c #FDFDFD",
"5 	c #F9F9F9",
"6 	c #FBFBFB",
"7 	c #F9F8F8",
"8 	c #D4D5D7",
"9 	c #BCBDBF",
"0 	c #BCBDBE",
"a 	c #C7C7C9",
"b 	c #BEBFC1",
"c 	c #C0C1C3",
"d 	c #CCCDCE",
"e 	c #FDFCFC",
"f 	c #FEFDFD",
"g 	c #D2D2D2",
"h 	c #524F50",
"i 	c #DDDDDD",
"j 	c #585556",
"k 	c #CCCBCC",
"l 	c #ABAAAB",
"m 	c #636161",
"n 	c #D5D5D5",
"o 	c #C7C7C7",
"p 	c #474446",
"q 	c #3F3D3D",
"r 	c #7C7B7D",
"s 	c #B8B9BB",
"t 	c #626162",
"u 	c #535152",
"v 	c #8F8E90",
"w 	c #5E5C5D",
"x 	c #686566",
"y 	c #E4E4E4",
"z 	c #A5A3A4",
"A 	c #625F60",
"B 	c #5D5A5B",
"C 	c #E5E4E4",
"D 	c #716E6F",
"E 	c #615F5F",
"F 	c #5B5959",
"G 	c #A19FA0",
"H 	c #C1C0C0",
"I 	c #120E0F",
"J 	c #918F90",
"K 	c #201C1D",
"L 	c #E7E6E6",
"M 	c #8A8889",
"N 	c #252122",
"O 	c #C5C4C4",
"P 	c #7C7A7A",
"Q 	c #363334",
"R 	c #6A6769",
"S 	c #322F30",
"T 	c #BCBCBE",
"U 	c #B5B5B7",
"V 	c #393637",
"W 	c #242021",
"X 	c #5F5D5E",
"Y 	c #262223",
"Z 	c #2B2728",
"` 	c #DAD9DA",
" .	c #807E7F",
"..	c #211D1E",
"+.	c #807E7E",
"@.	c #EEEEEE",
"#.	c #979595",
"$.	c #433F40",
"%.	c #BFBEBE",
"&.	c #191516",
"*.	c #3B3738",
"=.	c #545152",
"-.	c #8B8989",
";.	c #8A8989",
">.	c #1F1A1B",
",.	c #7A797A",
"'.	c #9D9C9F",
").	c #C1C1C4",
"!.	c #272424",
"~.	c #3B393A",
"{.	c #2D292A",
"].	c #2A2728",
"^.	c #DAD9D9",
"/.	c #817E7F",
"(.	c #BCBABB",
"_.	c #F4F4F4",
":.	c #6A6768",
"<.	c #1A1617",
"[.	c #626061",
"}.	c #EAEAEA",
"|.	c #1E1A1B",
"1.	c #636162",
"2.	c #C9CACC",
"3.	c #BABABD",
"4.	c #373334",
"5.	c #444142",
"6.	c #1F1B1C",
"7.	c #504D4D",
"8.	c #282425",
"9.	c #817F7F",
"0.	c #221E1F",
"a.	c #E2E2E2",
"b.	c #686666",
"c.	c #FDFEFE",
"d.	c #C0C0C0",
"e.	c #181314",
"f.	c #4B4748",
"g.	c #383536",
"h.	c #8A8888",
"i.	c #ADACAC",
"j.	c #716F70",
"k.	c #585657",
"l.	c #242022",
"m.	c #E5E6E6",
"n.	c #D3D3D4",
"o.	c #333031",
"p.	c #5B5A5B",
"q.	c #1E1B1C",
"r.	c #797778",
"s.	c #DADADA",
"t.	c #E1E0E0",
"u.	c #BFBFBF",
"v.	c #0C0809",
"w.	c #989696",
"x.	c #0E090B",
"y.	c #D0CFCF",
"z.	c #888586",
"A.	c #C3C2C2",
"B.	c #8F8E8E",
"C.	c #221F20",
"D.	c #262122",
"E.	c #E6E6E7",
"F.	c #353132",
"G.	c #5C5B5C",
"H.	c #999798",
"I.	c #1D191A",
"J.	c #D9D8D9",
"K.	c #7E7C7C",
"L.	c #1C1819",
"M.	c #E5E4E5",
"N.	c #EEEDEE",
"O.	c #656263",
"P.	c #FDFEFD",
"Q.	c #D4D3D3",
"R.	c #595556",
"S.	c #DEDEDE",
"T.	c #605C5D",
"U.	c #B0AEAF",
"V.	c #AEADAD",
"W.	c #696566",
"X.	c #D7D6D6",
"Y.	c #C5C5C7",
"Z.	c #545253",
"`.	c #3D3A3B",
" +	c #9C9B9B",
".+	c #F2F2F2",
"++	c #6C6A6C",
"@+	c #807F81",
"#+	c #686768",
"$+	c #A7A7A9",
"%+	c #E5E5E5",
"&+	c #A8A6A7",
"*+	c #666465",
"=+	c #605D5D",
"-+	c #E0DFDF",
";+	c #676566",
">+	c #969595",
",+	c #C9CBCD",
"'+	c #CED0D2",
")+	c #F3F3F4",
"!+	c #F9FAFA",
"~+	c #DFE0E1",
"{+	c #BFC0C2",
"]+	c #F1F1F2",
"^+	c #DFDFE0",
"/+	c #E1E1E2",
"(+	c #D1D2D3",
"_+	c #BEC0C2",
":+	c #EFEEEF",
"<+	c #CDCED0",
"                                                                ",
"                                                                ",
"                                                                ",
"                                                                ",
"                                                                ",
"                                                                ",
"                                                                ",
". . . . . . . . + . + @ # $ % & * = - ; . . . . . . . . . . . . ",
". . . . . . . + . > , ' ) ) ! ! ! ) ) ~ { . + . . . . . . . . . ",
". . . . . . . . ] ^ ! ! % / ( ( / ' ! ! _ : . . . . . . . . . . ",
". . . . . . . . < [ ! } & ! ! ! ! } % ! | > + . . . . . . . . . ",
". . . . . . . + . 1 2 ' ! ! ! ! ! ! & & 3 . . . . . . . . . . . ",
"4 < 4 5 6 . 6 7 4 . 8 9 0 % ( a ) b c d e f . 6 7 5 + + 5 7 < 6 ",
"g h i j k . l m n . o p q r c s t u v w x y . z A B C 1 D E F G ",
"H I J K L . M N O . P Q R S T U V W X Y Z ` .  ...+.@.] #.W $.%.",
"H &.*.=.@ . -.W O . ;.>.,.'.).U V !.~.{.].^.. /.K (.> . _.N :.. ",
"H <.K [.> . -.W O . }.h |.1.2.3.4.5.6.7.8.^.. 9.0.Q a.. @.N b.c.",
"d.e.f.g.@.. h.N O . i.j.k.l.m.n.o.p.q.r.N s.. /.K t.. . @.W b.c.",
"u.v.w.x.y.. z.6.A.. B.C.t D.1 E.F.G.Z H.I.J.. K.L.x M.. N.6.O.P.",
"Q.R.S.T.U.. V.W.X.. Y.Z.`. +4 .+++@+#+$+x %+. &+*+=+-+. 1 ;+>++ ",
". . . . . + . . . 1 c ,+'++ . . )+% / ' !+. + . . . . + . . . . ",
". . . . . . . . < [ ! ) ~+. + . . d ! ! | > + . . . . . . . . . ",
". . . . . . . . ] ^ ! {+]+. + + . ~+) ! _ : . . . . . . . . . . ",
". . . . . . . + . > , ' b ~ ^+/+(+_+) ~ :+. + . . . . . . . . . ",
". . . . . . . . + . + @ # <+& ' * = - ; . . . . . . . . . . . . ",
"                                                                ",
"                                                                ",
"                                                                ",
"                                                                ",
"                                                                ",
"                                                                ",
"                                                                "};
