/* XPM */
static char * gstreamer_32x32_xpm[] = {
"32 32 411 2",
"  	c None",
". 	c #0E0905",
"+ 	c #1C1209",
"@ 	c #0C0702",
"# 	c #905D31",
"$ 	c #26180C",
"% 	c #331F0C",
"& 	c #B07E4A",
"* 	c #C58F5A",
"= 	c #291909",
"- 	c #000000",
"; 	c #EB3434",
"> 	c #2B0909",
", 	c #54320C",
"' 	c #A37136",
") 	c #C08E54",
"! 	c #AE6918",
"~ 	c #281907",
"{ 	c #501212",
"] 	c #FF3C3C",
"^ 	c #FF3636",
"/ 	c #FF3535",
"( 	c #5F1313",
"_ 	c #2F0909",
": 	c #2C0A0A",
"< 	c #260707",
"[ 	c #240606",
"} 	c #FF4C4C",
"| 	c #F93232",
"1 	c #1E1407",
"2 	c #B68648",
"3 	c #BE9A69",
"4 	c #955C11",
"5 	c #965B09",
"6 	c #221502",
"7 	c #300909",
"8 	c #280808",
"9 	c #2E0909",
"0 	c #230606",
"a 	c #FF4545",
"b 	c #FF3131",
"c 	c #FF3333",
"d 	c #FF3232",
"e 	c #DC2B2B",
"f 	c #8A5013",
"g 	c #AE7942",
"h 	c #925316",
"i 	c #170D00",
"j 	c #AE772B",
"k 	c #9D6113",
"l 	c #965402",
"m 	c #A05902",
"n 	c #231300",
"o 	c #000202",
"p 	c #CD3636",
"q 	c #BA2325",
"r 	c #8E2123",
"s 	c #061306",
"t 	c #6D3B07",
"u 	c #8E5319",
"v 	c #9E4F0D",
"w 	c #1B1000",
"x 	c #B66302",
"y 	c #B15E02",
"z 	c #B36002",
"A 	c #C16703",
"B 	c #271500",
"C 	c #195B1D",
"D 	c #227725",
"E 	c #267926",
"F 	c #236223",
"G 	c #080208",
"H 	c #030003",
"I 	c #1B581B",
"J 	c #297C29",
"K 	c #7F3F00",
"L 	c #A74C02",
"M 	c #AB3E08",
"N 	c #1B0E04",
"O 	c #B6541B",
"P 	c #AE4F1D",
"Q 	c #AD4E1F",
"R 	c #B45123",
"S 	c #241007",
"T 	c #101410",
"U 	c #2D8B2D",
"V 	c #277B27",
"W 	c #297F29",
"X 	c #339D33",
"Y 	c #329D32",
"Z 	c #34A434",
"` 	c #2B852B",
" .	c #081908",
"..	c #081A08",
"+.	c #2B862B",
"@.	c #339E33",
"#.	c #2C782C",
"$.	c #885433",
"%.	c #8D5034",
"&.	c #7F4734",
"*.	c #1B110C",
"=.	c #A66348",
"-.	c #98583F",
";.	c #8E4C35",
">.	c #964F37",
",.	c #180C08",
"'.	c #010101",
").	c #000500",
"!.	c #061706",
"~.	c #061906",
"{.	c #2A742A",
"].	c #329C32",
"^.	c #35A635",
"/.	c #34A234",
"(.	c #123712",
"_.	c #081808",
":.	c #694536",
"<.	c #3F231B",
"[.	c #633F31",
"}.	c #190F0B",
"|.	c #824B38",
"1.	c #693625",
"2.	c #602F20",
"3.	c #5D2C1C",
"4.	c #0D0504",
"5.	c #23221B",
"6.	c #383643",
"7.	c #15152B",
"8.	c #121226",
"9.	c #A1A092",
"0.	c #B9B8AC",
"a.	c #F5F4ED",
"b.	c #EAE5DE",
"c.	c #D3D2C6",
"d.	c #AFA396",
"e.	c #9B9890",
"f.	c #302F3D",
"g.	c #292A41",
"h.	c #3A363B",
"i.	c #221B23",
"j.	c #201820",
"k.	c #1A1219",
"l.	c #030203",
"m.	c #0E0806",
"n.	c #894E2D",
"o.	c #6A391E",
"p.	c #592E18",
"q.	c #572D17",
"r.	c #100700",
"s.	c #2828AA",
"t.	c #3737C5",
"u.	c #3E3ED3",
"v.	c #4545D6",
"w.	c #21219A",
"x.	c #2A2A89",
"y.	c #282716",
"z.	c #27251B",
"A.	c #232215",
"B.	c #2F2D54",
"C.	c #292991",
"D.	c #3D3DD4",
"E.	c #262976",
"F.	c #292B2C",
"G.	c #383839",
"H.	c #2D2C2E",
"I.	c #A7A093",
"J.	c #191819",
"K.	c #3A2210",
"L.	c #4C2811",
"M.	c #47240D",
"N.	c #512A10",
"O.	c #0C0500",
"P.	c #2727A6",
"Q.	c #2E2E9C",
"R.	c #24249A",
"S.	c #26269E",
"T.	c #3434D3",
"U.	c #3232D2",
"V.	c #3535D9",
"W.	c #3837D3",
"X.	c #3B3AD2",
"Y.	c #3434D9",
"Z.	c #2727A3",
"`.	c #010111",
" +	c #1A0F02",
".+	c #212B30",
"++	c #1C3444",
"@+	c #A6A398",
"#+	c #17171B",
"$+	c #020000",
"%+	c #311204",
"&+	c #401805",
"*+	c #080301",
"=+	c #1F1F1C",
"-+	c #99998E",
";+	c #0B0600",
">+	c #060400",
",+	c #040424",
"'+	c #05051C",
")+	c #3D3EDC",
"!+	c #2E2FB1",
"~+	c #080624",
"{+	c #090903",
"]+	c #555557",
"^+	c #644D2E",
"/+	c #3F2917",
"(+	c #191514",
"_+	c #9B9B94",
":+	c #16171C",
"<+	c #331304",
"[+	c #0D0501",
"}+	c #292A2A",
"|+	c #CBC5B6",
"1+	c #0F0B07",
"2+	c #A89A88",
"3+	c #5D6469",
"4+	c #141A1F",
"5+	c #0F0800",
"6+	c #100600",
"7+	c #1B303F",
"8+	c #284051",
"9+	c #394854",
"0+	c #5F6060",
"a+	c #624D33",
"b+	c #392616",
"c+	c #9B9A93",
"d+	c #15161A",
"e+	c #030100",
"f+	c #282B28",
"g+	c #C6C4B3",
"h+	c #0E0803",
"i+	c #8F8E8C",
"j+	c #2A3E4C",
"k+	c #10344C",
"l+	c #321F14",
"m+	c #3F2716",
"n+	c #442A16",
"o+	c #2D1F17",
"p+	c #221D1C",
"q+	c #183548",
"r+	c #344653",
"s+	c #636362",
"t+	c #59442A",
"u+	c #A59D90",
"v+	c #191415",
"w+	c #282A28",
"x+	c #C5C2B2",
"y+	c #0E0D0D",
"z+	c #7F898F",
"A+	c #193142",
"B+	c #27160D",
"C+	c #473420",
"D+	c #614F3A",
"E+	c #64543F",
"F+	c #5C482F",
"G+	c #412C18",
"H+	c #142029",
"I+	c #1A3649",
"J+	c #42515C",
"K+	c #493928",
"L+	c #010000",
"M+	c #A59785",
"N+	c #1A1516",
"O+	c #22201E",
"P+	c #BFB8A6",
"Q+	c #060709",
"R+	c #40515D",
"S+	c #162835",
"T+	c #402A16",
"U+	c #695740",
"V+	c #4D575D",
"W+	c #414F59",
"X+	c #5B5D5E",
"Y+	c #5E472A",
"Z+	c #382313",
"`+	c #4F3928",
" @	c #293F4F",
".@	c #575958",
"+@	c #070400",
"@@	c #857965",
"#@	c #1A1916",
"$@	c #1E1C19",
"%@	c #ADA592",
"&@	c #010204",
"*@	c #2D3F4D",
"=@	c #122736",
"-@	c #46301D",
";@	c #5E513D",
">@	c #344756",
",@	c #1D2E3A",
"'@	c #2D414F",
")@	c #636260",
"!@	c #513C26",
"~@	c #1C1311",
"{@	c #213A4C",
"]@	c #3D4246",
"^@	c #837863",
"/@	c #191815",
"(@	c #1E1C1A",
"_@	c #020303",
":@	c #2F404C",
"<@	c #233038",
"[@	c #412713",
"}@	c #5F4B33",
"|@	c #63523F",
"1@	c #241912",
"2@	c #515454",
"3@	c #564129",
"4@	c #251C16",
"5@	c #1F3B4E",
"6@	c #282C31",
"7@	c #020101",
"8@	c #716953",
"9@	c #0E100C",
"0@	c #ABA492",
"a@	c #080706",
"b@	c #444E56",
"c@	c #203B4E",
"d@	c #2C2520",
"e@	c #2F2219",
"f@	c #2E2219",
"g@	c #3D2F24",
"h@	c #29404F",
"i@	c #545453",
"j@	c #503C26",
"k@	c #211713",
"l@	c #132633",
"m@	c #282D30",
"n@	c #6E6751",
"o@	c #0B0E0A",
"p@	c #1B1D1A",
"q@	c #AAA794",
"r@	c #1B1918",
"s@	c #151C22",
"t@	c #0A151D",
"u@	c #071219",
"v@	c #09131A",
"w@	c #0A161F",
"x@	c #192025",
"y@	c #181410",
"z@	c #0D0703",
"A@	c #060D13",
"B@	c #141617",
"C@	c #77715C",
"D@	c #0B0D0A",
"E@	c #232222",
"F@	c #A7A193",
"G@	c #ACA695",
"H@	c #ABA494",
"I@	c #A9A291",
"J@	c #A9A191",
"K@	c #A9A090",
"L@	c #9D9483",
"M@	c #999380",
"N@	c #9B927F",
"O@	c #7B7361",
"P@	c #7B7562",
"Q@	c #777464",
"R@	c #7A7464",
"S@	c #7C7463",
"T@	c #76715C",
"U@	c #5A5848",
"V@	c #080907",
"W@	c #1B1C1C",
"X@	c #8F8978",
"Y@	c #928D84",
"Z@	c #928A81",
"`@	c #91897F",
" #	c #877B75",
".#	c #857770",
"+#	c #706055",
"@#	c #656152",
"##	c #675B4B",
"$#	c #493F3B",
"%#	c #42403B",
"&#	c #3B3A34",
"*#	c #3D3B36",
"=#	c #3E3B36",
"-#	c #252F1E",
";#	c #1B2319",
">#	c #030303",
",#	c #323534",
"'#	c #383936",
")#	c #3C3E3B",
"!#	c #414240",
"~#	c #4D4B48",
"{#	c #4C4B47",
"]#	c #474742",
"^#	c #44423D",
"/#	c #494840",
"(#	c #2C2D29",
"_#	c #2A2924",
":#	c #1D1E18",
"<#	c #0D0D0B",
"[#	c #0B0C0A",
"}#	c #070607",
"|#	c #1A1C1A",
"1#	c #1E1D1B",
"2#	c #222120",
"3#	c #1E1D1C",
"4#	c #1C1B1A",
"5#	c #1B1B1A",
"6#	c #191818",
"7#	c #171615",
"8#	c #171616",
"9#	c #131213",
"0#	c #10100E",
"a#	c #0E0E0D",
"b#	c #0D0D0C",
"c#	c #0B0A09",
"d#	c #101010",
"                                                                ",
"                                                                ",
"                                                                ",
"                . +                                             ",
"              @ # $                                             ",
"            % & * =       - - - - -         - - ; >             ",
"        - , ' ) ! ~     { ] ^ / ^ ( _ : < [ } | -               ",
"  - - - 1 2 3 4 5 6   - 7 8 9 0 a / b c d ^ e -                 ",
"  f g h i j k l m n             o - p q r - -               s   ",
"  t u v w x y z A B                 - C D E F - -     G H I J   ",
"  K L M N O P Q R S               T U V W X Y Z `  ...+.@.#.-   ",
"  $.%.&.*.=.-.;.>.,.  - '.'.- - - ).- - - !.~.{.].^./.(._.      ",
"  :.<.[.}.|.1.2.3.4.5.6.7.8.9.0.a.b.c.d.e.f.g.h.i.j.k.l.        ",
"        m.n.o.p.q.r.s.t.u.v.w.x.y.z.A.B.C.D.E.F.G.H.I.J.        ",
"          K.L.M.N.O.P.Q.R.S.T.U.V.W.X.Y.Z.`. +.+++- @+#+        ",
"            $+%+&+*+=+-+;+>+,+'+)+V.!+~+{+]+^+/+(+- _+:+        ",
"              - <+[+}+|+1+2+3+4+).5+6+7+8+9+0+a+b+- c+d+        ",
"                e+e+f+g+h+i+j+k+l+m+n+o+p+q+r+s+t+- u+v+        ",
"                    w+x+y+z+A+B+C+D+E+F+G+H+I+J+K+L+M+N+        ",
"                    O+P+Q+R+S+T+U+V+W+X+Y+Z+`+ @.@+@@@#@        ",
"                    $@%@&@*@=@-@;@>@,@'@)@!@~@{@]@L+^@/@        ",
"                    (@%@_@:@<@[@}@|@1@{@2@3@4@5@6@7@8@9@        ",
"                    (@0@a@b@c@d@e@f@g@h@i@j@k@l@m@- n@o@        ",
"                    p@q@- r@s@t@u@v@w@x@y@. z@A@B@- C@D@        ",
"                    E@F@G@H@I@J@K@L@M@N@O@P@Q@R@S@T@U@V@        ",
"                    W@X@Y@Z@`@ #.#+#@###$#%#&#*#=#-#;#>#        ",
"                      ,#'#)#!#~#{#]#^#/#(#_#:#<#[#>#}#|#        ",
"                        1#2#3#4#5#6#7#8#9#0#a#b#c#d#            ",
"                                                                ",
"                                                                ",
"                                                                ",
"                                                                "};
