/* XPM */
static char * dframeAB_xpm[] = {
"32 2 3 1",
" 	c None",
".	c #CCCCCC",
"+	c #000000",
"................................",
"++++++++++++++++++++++++++++++++"};
