/* XPM */
static char * tor_32x32_xpm[] = {
"32 32 591 2",
"  	c None",
". 	c #C6A8D5",
"+ 	c #C7A7D7",
"@ 	c #C8A7D7",
"# 	c #C8A7D8",
"$ 	c #C7A8D6",
"% 	c #C4AAD3",
"& 	c #C5A9D4",
"* 	c #C6A8D6",
"= 	c #AEBDB9",
"- 	c #87DB8D",
"; 	c #6EEF71",
"> 	c #60FA62",
", 	c #60FB61",
"' 	c #6BF36D",
") 	c #82E087",
"! 	c #A5C4B0",
"~ 	c #CAA5DA",
"{ 	c #AFBBBB",
"] 	c #78EC7C",
"^ 	c #5DFB5D",
"/ 	c #53C457",
"( 	c #609B69",
"_ 	c #6A8775",
": 	c #659E6F",
"< 	c #679971",
"[ 	c #6B7E79",
"} 	c #628A6E",
"| 	c #58AA5F",
"1 	c #59DE5B",
"2 	c #72F675",
"3 	c #A3C6AC",
"4 	c #C6A9D5",
"5 	c #BCB1CA",
"6 	c #7FE284",
"7 	c #54FA53",
"8 	c #67A26F",
"9 	c #816193",
"0 	c #9971AD",
"a 	c #83A990",
"b 	c #5EE262",
"c 	c #63B76A",
"d 	c #63AB6C",
"e 	c #64B96C",
"f 	c #7F7A91",
"g 	c #875C9D",
"h 	c #7D4E94",
"i 	c #6B647B",
"j 	c #58D35C",
"k 	c #70E873",
"l 	c #B6B7C3",
"m 	c #B3B8C1",
"n 	c #5CE15E",
"o 	c #5CD460",
"p 	c #827292",
"q 	c #9E80B0",
"r 	c #9E7EB0",
"s 	c #6BA674",
"t 	c #65EA68",
"u 	c #7EAD8A",
"v 	c #819F8F",
"w 	c #73BA7D",
"x 	c #70857E",
"y 	c #89639F",
"z 	c #845E9B",
"A 	c #835C9A",
"B 	c #845A9B",
"C 	c #687376",
"D 	c #5BC260",
"E 	c #A4C7AE",
"F 	c #A4C4AE",
"G 	c #63E965",
"H 	c #9777A9",
"I 	c #6BDA70",
"J 	c #A589B7",
"K 	c #A588B7",
"L 	c #A588B6",
"M 	c #A487B5",
"N 	c #A17EB2",
"O 	c #887E98",
"P 	c #7A8B88",
"Q 	c #7A8988",
"R 	c #847295",
"S 	c #926CA7",
"T 	c #8D69A3",
"U 	c #865E9D",
"V 	c #8757A0",
"W 	c #7B798E",
"X 	c #83579A",
"Y 	c #60B068",
"Z 	c #92D69A",
"` 	c #C5A9D5",
" .	c #B7B5C4",
"..	c #5EFE5E",
"+.	c #68F469",
"@.	c #A58CB7",
"#.	c #8A8B98",
"$.	c #60E762",
"%.	c #9BA7A9",
"&.	c #AA91BA",
"*.	c #AC8BBC",
"=.	c #A98ABA",
"-.	c #A586B7",
";.	c #9898A7",
">.	c #9D80B1",
",.	c #9A78AE",
"'.	c #9672AB",
").	c #926CA8",
"!.	c #8E65A5",
"~.	c #85719A",
"{.	c #71987E",
"].	c #776A8B",
"^.	c #86639D",
"/.	c #64FB64",
"(.	c #5CFF5B",
"_.	c #A4C4AF",
":.	c #BEAECD",
"<.	c #60FC60",
"[.	c #62FF62",
"}.	c #61FF60",
"|.	c #87C690",
"1.	c #B190C2",
"2.	c #A18BB1",
"3.	c #5E9A67",
"4.	c #5DF55E",
"5.	c #79DB7F",
"6.	c #95AFA2",
"7.	c #69F36B",
"8.	c #62FE62",
"9.	c #6AEE6D",
"0.	c #9B83AE",
"a.	c #8F90A0",
"b.	c #7BB188",
"c.	c #63D569",
"d.	c #62816D",
"e.	c #835F9B",
"f.	c #895EA1",
"g.	c #837499",
"h.	c #60FD60",
"i.	c #B6B5C3",
"j.	c #C8A6D7",
"k.	c #8BD891",
"l.	c #61FF61",
"m.	c #5FFF5F",
"n.	c #86D18D",
"o.	c #B4A1C2",
"p.	c #BD9CCC",
"q.	c #A487B3",
"r.	c #8F949C",
"s.	c #67D06C",
"t.	c #62E565",
"u.	c #769083",
"v.	c #817C91",
"w.	c #8B61A0",
"x.	c #9267AA",
"y.	c #87729D",
"z.	c #70C379",
"A.	c #68E36C",
"B.	c #71ED74",
"C.	c #BEA3CD",
"D.	c #B6ACC3",
"E.	c #57FF57",
"F.	c #5BF05C",
"G.	c #9CA7A7",
"H.	c #B4ADC1",
"I.	c #BBA1CA",
"J.	c #A58BB4",
"K.	c #5EFD5E",
"L.	c #74D47A",
"M.	c #A37EB7",
"N.	c #9C78B1",
"O.	c #9871AE",
"P.	c #9369AB",
"Q.	c #6BE170",
"R.	c #9EC1A8",
"S.	c #BEA4CD",
"T.	c #B99EC8",
"U.	c #7EDB84",
"V.	c #63D267",
"W.	c #B399C1",
"X.	c #79EA7D",
"Y.	c #C4A0D3",
"Z.	c #BCA0CC",
"`.	c #76D17B",
" +	c #84A990",
".+	c #A380B7",
"++	c #9E79B4",
"@+	c #9A70B1",
"#+	c #80A98E",
"$+	c #64F865",
"%+	c #72E876",
"&+	c #B398C2",
"*+	c #6AF16C",
"=+	c #60FF5F",
"-+	c #63FF63",
";+	c #60FA61",
">+	c #ACC0B8",
",+	c #B2AFBF",
"'+	c #8CC994",
")+	c #60E662",
"!+	c #A382B6",
"~+	c #9E8EB1",
"{+	c #919AA2",
"]+	c #69ED6C",
"^+	c #61FD61",
"/+	c #B397C2",
"(+	c #AC91BB",
"_+	c #AC93BB",
":+	c #5EFF5E",
"<+	c #62F562",
"[+	c #897897",
"}+	c #857D93",
"|+	c #69CA6E",
"1+	c #6CA674",
"2+	c #63AF6A",
"3+	c #5ED362",
"4+	c #5EF160",
"5+	c #5FEA61",
"6+	c #5BEB5C",
"7+	c #5BE05D",
"8+	c #5FFF5E",
"9+	c #61FE62",
"0+	c #62FF61",
"a+	c #97AFA1",
"b+	c #AD90BD",
"c+	c #A78AB7",
"d+	c #92AC9C",
"e+	c #67C46D",
"f+	c #60FF60",
"g+	c #969AA4",
"h+	c #C0A3D0",
"i+	c #C2A8D1",
"j+	c #C1A5CF",
"k+	c #BEA2CD",
"l+	c #BA9ACA",
"m+	c #7CCA83",
"n+	c #7A8686",
"o+	c #AA8ABE",
"p+	c #AA7DBF",
"q+	c #6CE56F",
"r+	c #61F962",
"s+	c #5ED860",
"t+	c #7BCF81",
"u+	c #A889B7",
"v+	c #A284B1",
"w+	c #81B58A",
"x+	c #9E6FB5",
"y+	c #63D966",
"z+	c #B59FC6",
"A+	c #BC9FCD",
"B+	c #BEA2CE",
"C+	c #BFA4D0",
"D+	c #BFA4CF",
"E+	c #BDA1CE",
"F+	c #BA9CCC",
"G+	c #AC87BF",
"H+	c #B694CA",
"I+	c #AE8CC3",
"J+	c #A78BBD",
"K+	c #5EFF5D",
"L+	c #63E865",
"M+	c #66DF69",
"N+	c #68E26C",
"O+	c #6FA37C",
"P+	c #60EE61",
"Q+	c #738783",
"R+	c #6DE070",
"S+	c #A283B2",
"T+	c #9B7FAA",
"U+	c #869A93",
"V+	c #A777BF",
"W+	c #88B894",
"X+	c #7ED885",
"Y+	c #AEA6BE",
"Z+	c #B9A0C9",
"`+	c #BD9DCE",
" @	c #BC9DCD",
".@	c #BA9ACD",
"+@	c #B897CB",
"@@	c #B494C8",
"#@	c #B18FC6",
"$@	c #AE89C3",
"%@	c #A191B5",
"&@	c #76B681",
"*@	c #75CC7E",
"=@	c #61FE61",
"-@	c #60EF61",
";@	c #7E5995",
">@	c #7E6E92",
",@	c #5DFF5B",
"'@	c #9663B2",
")@	c #778F85",
"!@	c #9479A3",
"~@	c #8B9499",
"{@	c #9D7EB5",
"]@	c #82C08E",
"^@	c #64B46B",
"/@	c #6AA173",
"(@	c #62F363",
"_@	c #6D8379",
":@	c #5DD461",
"<@	c #72EC76",
"[@	c #92C89C",
"}@	c #A7A8B7",
"|@	c #B690CA",
"1@	c #B688CC",
"2@	c #B385C9",
"3@	c #AF7FC6",
"4@	c #AA73C2",
"5@	c #5EE35F",
"6@	c #5BAE62",
"7@	c #78A486",
"8@	c #65F168",
"9@	c #5CEC5D",
"0@	c #6DD673",
"a@	c #985FB6",
"b@	c #9566B1",
"c@	c #63E366",
"d@	c #975DB5",
"e@	c #888A9B",
"f@	c #957AA3",
"g@	c #8F729F",
"h@	c #79AA83",
"i@	c #7C898C",
"j@	c #73DC7A",
"k@	c #979FA8",
"l@	c #A686BB",
"m@	c #60F660",
"n@	c #AAA1BB",
"o@	c #A77DBB",
"p@	c #8E7F9F",
"q@	c #799985",
"r@	c #6AAF72",
"s@	c #60BE65",
"t@	c #5DC063",
"u@	c #5EC064",
"v@	c #5EC063",
"w@	c #64B16D",
"x@	c #66B16F",
"y@	c #60BB66",
"z@	c #6E907C",
"A@	c #8C4DA7",
"B@	c #6BC573",
"C@	c #60F460",
"D@	c #7E7692",
"E@	c #9564B0",
"F@	c #9464AF",
"G@	c #7F7894",
"H@	c #788A89",
"I@	c #7BA488",
"J@	c #8F729E",
"K@	c #896C98",
"L@	c #779A81",
"M@	c #9A71B3",
"N@	c #67CC6C",
"O@	c #9B83B0",
"P@	c #A881BE",
"Q@	c #7F928C",
"R@	c #8DBB99",
"S@	c #AC89C0",
"T@	c #AD89C1",
"U@	c #AD8AC1",
"V@	c #AD89C2",
"W@	c #AD87C2",
"X@	c #AB84C1",
"Y@	c #A87FBF",
"Z@	c #A67ABD",
"`@	c #9C85B2",
" #	c #6BEF6E",
".#	c #7EA58E",
"+#	c #769186",
"@#	c #7C5F92",
"##	c #9364AF",
"$#	c #9363AE",
"%#	c #8E70A7",
"&#	c #64AA6C",
"*#	c #9159AD",
"=#	c #6FB577",
"-#	c #896B98",
";#	c #826892",
">#	c #7D6B8B",
",#	c #8C84A2",
"'#	c #70CD78",
")#	c #6FC977",
"!#	c #A17BB7",
"~#	c #A57ABC",
"{#	c #8B849C",
"]#	c #A782BC",
"^#	c #A682BC",
"/#	c #A581BB",
"(#	c #A47FBA",
"_#	c #A37CB9",
":#	c #A079B7",
"<#	c #9F70B7",
"[#	c #6FDE75",
"}#	c #63F664",
"|#	c #66F168",
"1#	c #9261AD",
"2#	c #72BB7E",
"3#	c #658372",
"4#	c #8D63A7",
"5#	c #67EE6A",
"6#	c #70977A",
"7#	c #836692",
"8#	c #7C618B",
"9#	c #7D928E",
"0#	c #827995",
"a#	c #768E84",
"b#	c #5EC564",
"c#	c #78C681",
"d#	c #919CA2",
"e#	c #998BAC",
"f#	c #A376BA",
"g#	c #A179B8",
"h#	c #A07AB6",
"i#	c #9E78B5",
"j#	c #9D76B4",
"k#	c #9A73B2",
"l#	c #9675AE",
"m#	c #5FFF5D",
"n#	c #60FE60",
"o#	c #60B967",
"p#	c #766E89",
"q#	c #9066AA",
"r#	c #67ED6A",
"s#	c #796287",
"t#	c #765C85",
"u#	c #61C966",
"v#	c #8D64A6",
"w#	c #63FA63",
"x#	c #6DE571",
"y#	c #84A592",
"z#	c #9384A7",
"A#	c #957AAA",
"B#	c #9477AA",
"C#	c #9373AA",
"D#	c #87899A",
"E#	c #60EE62",
"F#	c #735887",
"G#	c #8F60A9",
"H#	c #8E60A8",
"I#	c #66EF68",
"J#	c #60DE63",
"K#	c #6F567E",
"L#	c #677672",
"M#	c #60D665",
"N#	c #62FD62",
"O#	c #6AA675",
"P#	c #658072",
"Q#	c #5E9866",
"R#	c #5AA660",
"S#	c #59AF5F",
"T#	c #59B05F",
"U#	c #5ABC5E",
"V#	c #5DA065",
"W#	c #60F561",
"X#	c #7A918B",
"Y#	c #8C61A6",
"Z#	c #8C61A5",
"`#	c #7F9091",
" $	c #629C6A",
".$	c #6A477A",
"+$	c #5CB862",
"@$	c #78B683",
"#$	c #9064A9",
"$$	c #9061A8",
"%$	c #8E5EA8",
"&$	c #8C5BA6",
"*$	c #8C5AA6",
"=$	c #8B5AA5",
"-$	c #8D5DA7",
";$	c #758485",
">$	c #7E8C90",
",$	c #8A60A3",
"'$	c #8B5CA5",
")$	c #7C948C",
"!$	c #5BED5D",
"~$	c #684878",
"{$	c #634B72",
"]$	c #605D6E",
"^$	c #72B87D",
"/$	c #895EA2",
"($	c #885FA1",
"_$	c #895FA2",
":$	c #817197",
"<$	c #60FF5E",
"[$	c #7F7F92",
"}$	c #87649F",
"|$	c #74A483",
"1$	c #5CC362",
"2$	c #5F6D6B",
"3$	c #634A72",
"4$	c #5D426D",
"5$	c #5B7466",
"6$	c #778987",
"7$	c #885BA0",
"8$	c #875E9F",
"9$	c #8854A1",
"0$	c #66D96B",
"a$	c #5DA664",
"b$	c #766C88",
"c$	c #7B888D",
"d$	c #5AA260",
"e$	c #5D426C",
"f$	c #583D67",
"g$	c #599861",
"h$	c #61E863",
"i$	c #5FC964",
"j$	c #61BA69",
"k$	c #6DB577",
"l$	c #74A581",
"m$	c #779887",
"n$	c #799389",
"o$	c #789788",
"p$	c #75A283",
"q$	c #6EAF7A",
"r$	c #60F661",
"s$	c #62EF62",
"t$	c #725685",
"u$	c #8756A0",
"v$	c #7C8C8D",
"w$	c #59BA5F",
"x$	c #583968",
"y$	c #573B67",
"z$	c #598063",
"A$	c #5DFD5D",
"B$	c #749882",
"C$	c #845D9D",
"D$	c #805896",
"E$	c #734E87",
"F$	c #69597A",
"G$	c #637170",
"H$	c #5F7D6B",
"I$	c #5F7E6B",
"J$	c #62746F",
"K$	c #675E78",
"L$	c #724B85",
"M$	c #6AA973",
"N$	c #70807F",
"O$	c #855B9E",
"P$	c #749D82",
"Q$	c #59AA5F",
"R$	c #573867",
"S$	c #573D67",
"T$	c #585E64",
"U$	c #5BE75D",
"V$	c #65EB68",
"W$	c #84589B",
"X$	c #835B9A",
"Y$	c #835D99",
"Z$	c #845D9A",
"`$	c #845C9A",
" %	c #845B9A",
".%	c #835D9A",
"+%	c #7F5E94",
"@%	c #756588",
"#%	c #798589",
"$%	c #61DC66",
"%%	c #577362",
"&%	c #583F66",
"*%	c #573767",
"=%	c #589560",
"-%	c #5FCC64",
";%	c #71A57E",
">%	c #7A7E8B",
",%	c #7F6594",
"'%	c #825699",
")%	c #825599",
"!%	c #806295",
"~%	c #7B798D",
"{%	c #749C81",
"]%	c #63C769",
"^%	c #57B05E",
"/%	c #583F67",
"(%	c #583E67",
"_%	c #573E67",
":%	c #585066",
"<%	c #59A560",
"[%	c #5AEB5B",
"}%	c #5BFD5B",
"|%	c #5FED61",
"1%	c #5EEB61",
"2%	c #5BFB5C",
"3%	c #5AF45B",
"4%	c #5AB45F",
"5%	c #585E65",
"6%	c #573967",
"7%	c #584066",
"8%	c #584866",
"9%	c #584966",
"0%	c #584266",
"                        . + @ # # # @ $                         ",
"                  % & * = - ; > , ' ) ! & & %                   ",
"              % ~ { ] ^ / ( _ : < [ } | 1 2 3 ~ %               ",
"            4 5 6 7 8 9 0 a b c d e f g h i j k l 4             ",
"          & m n o p q q r s t u v w x y z A B C D E .           ",
"        & F G H I J K L M N O P Q R S T y U V W X Y Z .         ",
"      `  ...+.@.#.$.%.&.*.=.-.;.>.,.'.).!.~.{.].^./.(._.4       ",
"    % :.<.[.}.|.1.2.3.4.5.6.7.8.9.0.a.b.c.d.e.f.g.}.[.h.i.%     ",
"    j.k.l.[.8.m.n.o.p.q.r.s.l.8.l.t.u.v.w.x.y.z.A.l.l.l.B.~     ",
"  C.D.E.8.[.[.[.}.F.G.H.I.J.K.[.8.L.M.N.O.P.Q.l.[.[.[.8.(.R.S.  ",
"  T.U.l.8.[.[.[.V.W.X.m.Y.Z.`.8.l. +.+++@+#+$+8.[.[.[.l.[.%+T.  ",
"  &+*+8.[.[.8.8.=+-+}.;+>+,+'+l.)+!+~+{+]+=+l.[.[.[.[.[.l.^+/+  ",
"(+_+:+8.[.[.l.<+[+}+|+1+2+3+4+^+5+6+7+8+8.[.[.[.9+0+0+[.[.8+a+b+",
"c+d+e+0+8.[.f+g+h+i+j+i+k+l+m+n+o+p+q+l.[.[.8.[.0+r+s+9+8.f+t+u+",
"v+w+x+y+l.[.m.z+A+B+C+D+E+F+G+H+I+J+K+8.L+M+l.[.l.N+O+P+=+Q+R+S+",
"T+U+V+W+l.l.}.X+Y+Z+`+ @.@+@@@#@$@%@8+0+&@*@l.=@0+-@;@>@,@'@)@T+",
"!@~@{@]@l.^@/@(@_@:@<@[@}@|@1@2@3@4@5@6@7@8@9@0+l.0@a@b@c@d@e@f@",
"g@h@i@j@l.k@l@m@n@o@p@q@r@s@t@u@t@v@w@x@y@z@A@B@C@D@E@F@G@H@I@J@",
"K@L@M@N@}.O@P@Q@R@S@T@U@V@W@X@Y@Z@`@ #}.l.l..#+#@###$#%#&#*#=#-#",
";#>#,#'#0+)#!#~#{#]#^#^#/#(#_#:#<#[#l.8.[.l.}.}#|#1#2#3#4#5#6#7#",
"  8#9#0#l.a#b#c#d#e#f#g#h#i#j#k#l#m#[.[.[.[.[.[.n#o#p#q#r#8+s#  ",
"  t#u#v#w#f+l.[.}.m.x#y#z#A#B#C#D#8+0+0+8.[.0+E#F#G#H#I#l.J#t#  ",
"  K#L#M#N#[.[.[.[.8.l.O#P#Q#R#S#T#U#V#W#8.[.}.X#Y#Z#`#l.}. $K#  ",
"    .$+$N#l.[.[.[.[.8.@$#$$$%$&$*$=$-$;$}.[.=+>$,$'$)$0+!$~$    ",
"    {$]$^ [.l.[.[.[.8.^$/$($($($($($_$:$<$[.=+[$}$|$1$m.2$3$    ",
"      4$5$8+8.l.[.0+[.6$7$8$8$8$8$8$8$9$8+8.l.0$a$b$c$d$e$      ",
"        f$g$8+[.[.h$i$j$k$l$m$n$n$o$p$q$r$l.s$t$u$v$w$x$        ",
"          y$z$A$}.B$C$D$E$F$G$H$I$J$K$L$M$^+N$O$P$Q$R$          ",
"            S$T$U$V$W$X$Y$Z$`$ % %`$`$.%+%@%#%$%%%f$            ",
"              &%*%=%-%;%>%,%'%)%'%'%!%~%{%]%^%/%(%              ",
"                  (%_%:%<%[%}%|%1%2%3%4%5%S$_%                  ",
"                        6%R$7%8%9%0%R$6%                        "};
