/* XPM */
static char * dframeIBR_xpm[] = {
"40 26 4 1",
" 	c None",
".	c #CCCCCC",
"+	c #000000",
"@	c #D5D5D5",
"                                      .+",
"                                      @+",
"                                      @+",
"                                      @+",
"                                      @+",
"                                      @+",
"                                      @+",
"                                      @+",
"                                      @+",
"                                      @+",
"                                      @+",
"                                      @+",
"                                      @+",
"                                      @+",
"                                      @+",
"                                      @+",
"                                      @+",
"                                      @+",
"                                      @+",
"                                      @+",
"                                      @+",
"                                      @+",
"                                      @+",
"                                      @+",
"................@@@@@@@@@@@@@@@@@@@@@@@+",
"++++++++++++++++++++++++++++++++++++++++"};
