/* XPM */
static char * taskbuttonminimized_xpm[] = {
"1 21 21 1",
" 	c None",
".	c #4AA1FE",
"+	c #0175FF",
"@	c #035CEC",
"#	c #0156E5",
"$	c #0053E1",
"%	c #0653DF",
"&	c #0051E8",
"*	c #0151E4",
"=	c #0153E7",
"-	c #0053E9",
";	c #0055ED",
">	c #0057F1",
",	c #015AF4",
"'	c #035DF9",
")	c #0465FF",
"!	c #046EFF",
"~	c #0072F2",
"{	c #006BFF",
"]	c #075AFF",
"^	c #0024CA",
".",
"+",
"@",
"#",
"$",
"%",
"&",
"*",
"=",
"=",
"-",
";",
">",
",",
"'",
")",
"!",
"~",
"{",
"]",
"^"};
