/* XPM */
static char * windows_xpm[] = {
"21 21 207 2",
"  	c None",
". 	c #4AA1FE",
"+ 	c #0175FF",
"@ 	c #035CEC",
"# 	c #0156E5",
"$ 	c #0D49B3",
"% 	c #0355CE",
"& 	c #0364BD",
"* 	c #0A54C9",
"= 	c #1B53B9",
"- 	c #035AC8",
"; 	c #0367BA",
"> 	c #035EC4",
", 	c #084EC0",
"' 	c #0750C4",
") 	c #0361C1",
"! 	c #AF4A67",
"~ 	c #D73F1F",
"{ 	c #3B509C",
"] 	c #0554CD",
"^ 	c #0053E1",
"/ 	c #0358D0",
"( 	c #0568BD",
"_ 	c #1C5BCC",
": 	c #0366BF",
"< 	c #0F57C3",
"[ 	c #2359B9",
"} 	c #1256C1",
"| 	c #2155BD",
"1 	c #1C64C0",
"2 	c #165AAF",
"3 	c #9C7E50",
"4 	c #E79E76",
"5 	c #98291E",
"6 	c #1E4FB0",
"7 	c #0460B0",
"8 	c #0653DF",
"9 	c #098CD8",
"0 	c #1694DD",
"a 	c #098BD7",
"b 	c #0E85C3",
"c 	c #4B8C8A",
"d 	c #B4B4A3",
"e 	c #B5B5A0",
"f 	c #B4B59F",
"g 	c #B2AE93",
"h 	c #CDA255",
"i 	c #E8B319",
"j 	c #A07404",
"k 	c #212117",
"l 	c #828F83",
"m 	c #110B0A",
"n 	c #0051E8",
"o 	c #58BCF2",
"p 	c #518FB0",
"q 	c #E2E1BE",
"r 	c #F6F8F5",
"s 	c #FFFFDC",
"t 	c #F5F5C9",
"u 	c #E5C16D",
"v 	c #E5C153",
"w 	c #9F7F28",
"x 	c #2D2516",
"y 	c #1B7FB9",
"z 	c #0B7495",
"A 	c #080709",
"B 	c #0151E4",
"C 	c #0D85BD",
"D 	c #539590",
"E 	c #DEDCB9",
"F 	c #DDDCE4",
"G 	c #E0E0D6",
"H 	c #EAE2B4",
"I 	c #EDC974",
"J 	c #E2AE24",
"K 	c #9D7405",
"L 	c #48371B",
"M 	c #5A7683",
"N 	c #63ABD5",
"O 	c #1173B1",
"P 	c #08070B",
"Q 	c #0153E7",
"R 	c #0983BA",
"S 	c #549593",
"T 	c #DCDECC",
"U 	c #E4E3E7",
"V 	c #A59DAA",
"W 	c #AAA59C",
"X 	c #C39956",
"Y 	c #E0B43D",
"Z 	c #9D812E",
"` 	c #4F3D1F",
" .	c #999781",
"..	c #E6E5B4",
"+.	c #829FA4",
"@.	c #227189",
"#.	c #090709",
"$.	c #4A8788",
"%.	c #DCE5CC",
"&.	c #F6F6EC",
"*.	c #EAE9D5",
"=.	c #ACAEBB",
"-.	c #DFDBB2",
";.	c #CA9927",
">.	c #9C7305",
",.	c #301D01",
"'.	c #7E7A67",
").	c #E4E3B2",
"!.	c #EAE7AC",
"~.	c #C7C9A7",
"{.	c #67829E",
"].	c #0D080A",
"^.	c #0053E9",
"/.	c #AAAA96",
"(.	c #F6F8F4",
"_.	c #E8E8C2",
":.	c #AAABB0",
"<.	c #C1C4AF",
"[.	c #82754D",
"}.	c #A0946C",
"|.	c #3E382C",
"1.	c #918D6A",
"2.	c #EBE9AE",
"3.	c #DCDCB1",
"4.	c #C4C39A",
"5.	c #9A96A5",
"6.	c #110A0B",
"7.	c #0055ED",
"8.	c #FFF8E2",
"9.	c #FFFFCC",
"0.	c #ACA8B3",
"a.	c #D6D1D2",
"b.	c #B1B4B4",
"c.	c #FBFAE2",
"d.	c #7B775F",
"e.	c #E7E8B9",
"f.	c #CCCB9F",
"g.	c #C0BE94",
"h.	c #0057F1",
"i.	c #EAE9C5",
"j.	c #AEACBC",
"k.	c #F6FAF5",
"l.	c #F7FCF6",
"m.	c #FAFBE4",
"n.	c #8A8871",
"o.	c #D8D8A8",
"p.	c #C3C197",
"q.	c #C4C294",
"r.	c #949396",
"s.	c #11090A",
"t.	c #015AF4",
"u.	c #3F96C2",
"v.	c #EDEAC5",
"w.	c #BAB2B6",
"x.	c #FBFFD7",
"y.	c #FDFFDA",
"z.	c #FCFFD5",
"A.	c #837F5E",
"B.	c #C2C197",
"C.	c #C5C294",
"D.	c #BCBB94",
"E.	c #5D7C92",
"F.	c #035DF9",
"G.	c #57B0D4",
"H.	c #D6D4AC",
"I.	c #393030",
"J.	c #4A4436",
"K.	c #272019",
"L.	c #716D59",
"M.	c #BCBA94",
"N.	c #668695",
"O.	c #366A95",
"P.	c #0B070A",
"Q.	c #0465FF",
"R.	c #5BBEF3",
"S.	c #54AFD4",
"T.	c #F5F5C4",
"U.	c #C3C29D",
"V.	c #B3B395",
"W.	c #BEBD9B",
"X.	c #AAA882",
"Y.	c #9B9877",
"Z.	c #B3B188",
"`.	c #60ABD8",
" +	c #3973A0",
".+	c #046EFF",
"++	c #0A748A",
"@+	c #1175BF",
"#+	c #0E7994",
"$+	c #429CCE",
"%+	c #9E9BA5",
"&+	c #979699",
"*+	c #9B9AA1",
"=+	c #979599",
"-+	c #9B97A5",
";+	c #607E9A",
">+	c #336A97",
",+	c #0072F2",
"'+	c #080708",
")+	c #08070C",
"!+	c #080809",
"~+	c #0A090E",
"{+	c #11090B",
"]+	c #080001",
"^+	c #006BFF",
"/+	c #075AFF",
"(+	c #0024CA",
". . . . . . . . . . . . . . . . . . . . . ",
"+ + + + + + + + + + + + + + + + + + + + + ",
"@ @ @ @ @ @ @ @ @ @ @ @ @ @ @ @ @ @ @ @ @ ",
"# # # $ % & * = - ; > , ' ) ! ~ { ] # # # ",
"^ ^ ^ / ( _ : < [ } | 1 2 3 4 5 6 7 ^ ^ ^ ",
"8 8 8 9 0 a b c d e f g h i j k l m 8 8 8 ",
"n n n 9 o b p q r s t u v w x y z A n n n ",
"B B B 9 C D E F G H I J K L M N O P B B B ",
"Q Q Q R S T U V W X Y Z `  ...+.@.#.Q Q Q ",
"Q Q Q $.%.&.*.=.-.;.>.,.'.).!.~.{.].Q Q Q ",
"^.^.^./.(.s _.:.<.[.}.|.1.2.3.4.5.6.^.^.^.",
"7.7.7./.8.9._.0.a.b.c.d.1.e.f.g.5.6.7.7.7.",
"h.h.h./.9.9.i.j.k.l.m.d.n.o.p.q.r.s.h.h.h.",
"t.t.t.u.9.9.v.w.x.y.z.d.A.B.C.D.E.].t.t.t.",
"F.F.F.9 G.9.H.I.J.J.J.K.L.C.M.N.O.P.F.F.F.",
"Q.Q.Q.9 R.S.T.U.V.W.X.Y.Z.D.N.`. +P.Q.Q.Q.",
".+.+.+++@+#+$+%+&+*+=+5.-+;+O. +>+P..+.+.+",
",+,+,+'+)+!+~+{+s.s.s.6.6.].P.P.P.]+,+,+,+",
"^+^+^+^+^+^+^+^+^+^+^+^+^+^+^+^+^+^+^+^+^+",
"/+/+/+/+/+/+/+/+/+/+/+/+/+/+/+/+/+/+/+/+/+",
"(+(+(+(+(+(+(+(+(+(+(+(+(+(+(+(+(+(+(+(+(+"};
