/* XPM */
static char *magick[] = {
/* columns rows colors chars-per-pixel */
"19 42 81 1",
"  c #34479c",
". c #3c66ae",
"X c #3c66b3",
"o c #3d6ab5",
"O c #3e6bba",
"+ c #3e79bb",
"@ c #406dbd",
"# c #4571bf",
"$ c #467cc1",
"% c #4b73c3",
"& c #497ac2",
"* c #6c8a90",
"= c #6b9292",
"- c #769eca",
"; c #7d9bcb",
": c #7ba2cc",
"> c #7ea8d3",
", c #8c5c4c",
"< c #905f4e",
"1 c #8a6544",
"2 c #8e6c44",
"3 c #93624f",
"4 c #976451",
"5 c #9a6652",
"6 c #9f6c55",
"7 c #8f6c60",
"8 c #94756b",
"9 c #a26d56",
"0 c #a66f59",
"q c #a7705a",
"w c #aa735d",
"e c #ad7660",
"r c #b37a63",
"t c #b97e67",
"y c #b87f68",
"u c #9daa6f",
"i c #91a37e",
"p c #9ead72",
"a c #ba8067",
"s c #bc836b",
"d c #b6bd57",
"f c #a0af76",
"g c #a1b376",
"h c #a2b17a",
"j c #c1866e",
"k c #c2886d",
"l c #c38a72",
"z c #c78f78",
"x c #c88e75",
"c c #cb9177",
"v c #cd937c",
"b c #d1977e",
"n c #c1c145",
"m c #93a782",
"M c #96af86",
"N c #98af8a",
"B c #9cb5d6",
"V c #9dbada",
"C c #a2b7d8",
"Z c #a4badb",
"A c #acbfda",
"S c #adc4de",
"D c #acc3e1",
"F c #b6c7e0",
"G c #bbcbe4",
"H c #bfcfe8",
"J c #ce9780",
"K c #cf9881",
"L c #d59d84",
"P c #d59f88",
"I c #d7a088",
"U c #d9a48c",
"Y c #dbab92",
"T c #dcb097",
"R c #ddb59a",
"E c #dfbb9f",
"W c #dfbba0",
"Q c #e1bfa4",
"! c #c0d1e9",
"~ c #dce6f1",
"^ c white",
/* pixels */
">>>>>>>>-:>>>>->>>>",
"-$$$$$$$-$+$$$+-+$$",
"X-BFFFGGGGGGGHHHV-O",
".BWWRYUPbcxlssseqBo",
".FWRTUPvxlssyrr94S.",
".FRTYIKvljstyrr94Z.",
"XFYYIK^^syyr^^w5<SX",
"XFUIKvl^^yy^^ew5<SX",
"XGPvzzss^^^^eee5,SX",
"XFbcssssa^^rree5,ZX",
"XGclsaay^^^^rew53SX",
"oGlsryy^^re^^ew4,AX",
"OGssrr^^rrrr^^w4,SO",
"OHsyrrrrreerwqq3,S@",
"%Harerrrrereeqq3,S#",
"&Hr95555555553478F&",
"&D~q9q66996666660B&",
"+:VSSDDDSDDDDDDDB-+",
"$$$$$$+$$$$$$$++$$$",
"%%%%&&%&%%%%%%%%%%%",
"                   ",
">>>>>>>>>>>>:::>>>>",
"-$$$$$$$$+-+#-$$$$$",
"X*mpgppppuuiffhhm*O",
".iWWRYPKbcxkkjjw9iX",
".iWRYUPJxljttrr94u.",
".uTTYIKvljsyttr94u.",
".uUUPJnnstyrnnw53pX",
".uYUJKznntynnee5,uX",
".uPKssssnnnnree5<pX",
"ouKvssssynnrrwe5,uX",
"ouJsssssnnnnrew5<pX",
"Opssaarnnrrnnee4<pO",
"Opssrrnnrrrrnnw4,pO",
"Ofsarrrrrrrewqq3,pO",
"$hsrerereeereqq3,p%",
"&Mr95555555444312h&",
"$Ndq699699666966qN&",
"#=Mgggggggggggggm=+",
"$&&$$&$$$$$$$$$&$$$",
"%%%%%%%%%%%%%%%%%%%",
"                   "
};
