/* XPM */
static char *magick[] = {
/* columns rows colors chars-per-pixel */
"19 42 75 1",
"  c #34479c",
". c #3c66ae",
"X c #3c66b3",
"o c #3d6ab5",
"O c #3e6bba",
"+ c #3e79bb",
"@ c #55719f",
"# c #406dbd",
"$ c #4571bf",
"% c #5571a0",
"& c #5b77a8",
"* c #5d79a9",
"= c #467cc1",
"- c #4b73c3",
"; c #497ac2",
": c #6c8a90",
"> c #6b9292",
", c #6380b0",
"< c #6685b9",
"1 c #6887b7",
"2 c #6887bb",
"3 c #6888b8",
"4 c #6f8fc5",
"5 c #6f90c7",
"6 c #7192c4",
"7 c #7294cc",
"8 c #779dca",
"9 c #799ecc",
"0 c #7697d0",
"q c #7798d1",
"w c #7a9cd2",
"e c #79a0cd",
"r c #7da2d3",
"t c #7ea8d3",
"y c #9daa6f",
"u c #91a37e",
"i c #9ead72",
"p c #b6bd57",
"a c #a0af76",
"s c #a1b376",
"d c #a2b17a",
"f c #c1c145",
"g c #809184",
"h c #85988f",
"j c #8599b7",
"k c #93a782",
"l c #96af86",
"z c #98af8a",
"x c #8ea3c6",
"c c #82a4d5",
"v c #84aad6",
"b c #88a9d7",
"n c #8badd9",
"m c #8bb0d8",
"M c #92b5db",
"N c #97bbdc",
"B c #9cb5d6",
"V c #9bbcdc",
"C c #a2b7d8",
"Z c #a4badb",
"A c #acbfda",
"S c #9ec5df",
"D c #a1c4df",
"F c #adc4de",
"G c #a1c7e0",
"H c #a5cce1",
"J c #acc3e1",
"K c #a9cee2",
"L c #acd2e3",
"P c #b6c7e0",
"I c #bbcbe4",
"U c #bfcfe8",
"Y c #c0d1e9",
"T c #dce6f1",
"R c white",
/* pixels */
"ttttttttttttttttttt",
"<=<======<====+<===",
"O8VPIILIIIIILIIUV8+",
"XNLHSNMmbcrrrre5<MX",
"XPLDNmnvrww07772*F.",
".PHVNRRRRRRRRR72*A.",
"XPSNmRRRRRRRRR72*AX",
"XPNmnRcrwww07R72*FX",
"XImbvRwwww007R7<*AX",
"XImcrRwwwq007R72&AX",
"XIvrwRwq00707R7<&FX",
"oIvwwRq000777R7<&AX",
"OItq0R7077777R7<&AO",
"OUr07RRRRRRRRR72&FO",
"-Ue557755755444*%J-",
";Ur575575555544xjJ;",
";JT8eeeq8888ee8q8V;",
"+eVJJJJJJFJFFJJGB8+",
"===================",
"------==-------=---",
"                   ",
"ttttttttttttttttttt",
",=======+<=====<===",
"O:kiiiaaaiiiiiadk:O",
"XkLHSSMmvvrrww961uX",
".uHSSmbvrwwq7772*y.",
".ySSNfffffffff72*y.",
"XySMmfffffffff72*iX",
"XiNmbfcrwqqq7f72*y.",
"XiNbvfrwwwq07f72&yX",
"Ximcrfwwwqqq7f7<&iX",
"Xibrwfwwqq777f7<&iX",
"Xirwwf0000777f5<*yX",
"Oirq0f0077007f7<*aO",
"#at07fffffffff5<*a#",
"-le577555555555*@s$",
";de575575555555h:d;",
";zp8ee889q8899888z;",
"+>lsdsssssiissdsl:+",
";;==;=========;;=;=",
"-------------------",
"                   "
};
