/* XPM */
static char *taskbarbg[] = {
/* columns rows colors chars-per-pixel */
"2 30 22 1 ",
"  c #323232",
". c #353535",
"X c #3B3B3B",
"o c #404040",
"O c #474747",
"+ c gray31",
"@ c #434A54",
"# c #575757",
"$ c #5A5A5A",
"% c #66676C",
"& c #696969",
"* c #6A6A6A",
"= c #6F6F6F",
"- c #767676",
"; c #7E7E7E",
": c #828282",
"> c #838383",
", c #848484",
"< c #8C8C8C",
"1 c #989898",
"2 c #B8B8B8",
"3 c #CDCDCD",
/* pixels */
"  ",
"**",
"22",
"33",
"22",
"11",
"==",
"XX",
". ",
"  ",
"  ",
"..",
"X.",
"XX",
"oo",
"OO",
"++",
"##",
"$$",
"%$",
"**",
"**",
"--",
">>",
">>",
",,",
"<<",
";;",
"%%",
"@@"
};
