/* XPM */
static char *maximize_xpm[] = {
"16 16 4 1",
"F c #FF7F7F",
". c #FF0000",
"B c #800000",
"  c #C0C0C0",
"                ",
"                ",
"   FF      FF   ",
"  F..B    F..B  ",
"  F...B  F...B  ",
"   F...BF...B   ",
"    F......B    ",
"     F....B     ",
"     F....B     ",
"    F......B    ",
"   F...BB...B   ",
"  F...B  B...B  ",
"  F..B    B..B  ",
"   BB      BB   ",
"                ",
"                ",
};
