/* XPM */
static char *maximize_xpm[] = {
"16 16 4 1",
"  c #c0c0c0",
"W c #7FFF7F",
". c #00FF00",
"D c #008000",
"                ",
"                ",
"  WWWWWWWWWWW   ",
"  W..........D  ",
"  W.DDDDDDD..D  ",
"  W.D      W.D  ",
"  W.D      W.D  ",
"  W.D      W.D  ",
"  W.D      W.D  ",
"  W.D      W.D  ",
"  W.D      W.D  ",
"  W..WWWWWWW.D  ",
"  W..........D  ",
"   DDDDDDDDDDD  ",
"                ",
"                "};
