/* XPM */
static char *maximize_xpm[] = {
"16 16 4 1",
"  c #c0c0c0",
"W c #7FFF7F",
". c #00FF00",
"D c #008000",
"                ",
"                ",
"       WD       ",
"      W..D      ",
"     W.DW.D     ",
"    W.D  W.D    ",
"   W.D    W.D   ",
"  W.D      W.D  ",
"  W.D      W.D  ",
"   W.D    W.D   ",
"    W.D  W.D    ",
"     W.DW.D     ",
"      W..D      ",
"       WD       ",
"                ",
"                "};
