/* XPM */
static char * ssh_32x32_xpm[] = {
"32 32 572 2",
"  	c None",
". 	c #1D170E",
"+ 	c #26231C",
"@ 	c #2B1C0D",
"# 	c #4D3903",
"$ 	c #0F1515",
"% 	c #2A2016",
"& 	c #553D08",
"* 	c #634919",
"= 	c #241B0D",
"- 	c #5B420F",
"; 	c #5A3B0F",
"> 	c #845D05",
", 	c #EAA806",
"' 	c #865C0A",
") 	c #48300E",
"! 	c #312103",
"~ 	c #1E190F",
"{ 	c #4D3706",
"] 	c #845903",
"^ 	c #FDB506",
"/ 	c #FAB305",
"( 	c #A27805",
"_ 	c #9F6D05",
": 	c #FAB306",
"< 	c #EDAA03",
"[ 	c #FDB504",
"} 	c #A97406",
"| 	c #694902",
"1 	c #61450B",
"2 	c #5C3D0D",
"3 	c #7E6113",
"4 	c #302413",
"5 	c #805D02",
"6 	c #CD8C05",
"7 	c #C18603",
"8 	c #F9B505",
"9 	c #CF8F04",
"0 	c #D79505",
"a 	c #D39704",
"b 	c #BD7F03",
"c 	c #EEA905",
"d 	c #DC9E07",
"e 	c #966A03",
"f 	c #F7B003",
"g 	c #F2AB06",
"h 	c #835A02",
"i 	c #251E1D",
"j 	c #4E380E",
"k 	c #8B6306",
"l 	c #E0A107",
"m 	c #B27903",
"n 	c #D39108",
"o 	c #BC8208",
"p 	c #C38903",
"q 	c #FDB503",
"r 	c #C08303",
"s 	c #C08704",
"t 	c #FAB701",
"u 	c #FDB601",
"v 	c #D69405",
"w 	c #9F6F03",
"x 	c #F4AE05",
"y 	c #F4AF04",
"z 	c #5E3D03",
"A 	c #5A4609",
"B 	c #6E5920",
"C 	c #6C530D",
"D 	c #F9B006",
"E 	c #E8A802",
"F 	c #E7A006",
"G 	c #FCB502",
"H 	c #E7A505",
"I 	c #AC7702",
"J 	c #ECA904",
"K 	c #FDB402",
"L 	c #CA8D07",
"M 	c #CE9402",
"N 	c #F4AB04",
"O 	c #D79804",
"P 	c #946204",
"Q 	c #F2AF04",
"R 	c #C28505",
"S 	c #9F7106",
"T 	c #855F09",
"U 	c #2C221A",
"V 	c #362405",
"W 	c #1C1E1F",
"X 	c #715204",
"Y 	c #B17A06",
"Z 	c #CB8D04",
"` 	c #8D5C01",
" .	c #D59A05",
"..	c #FDB502",
"+.	c #F0AD03",
"@.	c #F1AF05",
"#.	c #F6AE05",
"$.	c #AE7708",
"%.	c #FBB406",
"&.	c #FBB703",
"*.	c #B07904",
"=.	c #ECAA04",
"-.	c #EAA507",
";.	c #BE8403",
">.	c #FDB403",
",.	c #FBB503",
"'.	c #B38305",
").	c #FCB406",
"!.	c #DD9D05",
"~.	c #5C4913",
"{.	c #1F2113",
"].	c #746024",
"^.	c #48320C",
"/.	c #4D3205",
"(.	c #B37E05",
"_.	c #FEB405",
":.	c #EEA808",
"<.	c #A97701",
"[.	c #DC9B04",
"}.	c #B07906",
"|.	c #FAB406",
"1.	c #F9B205",
"2.	c #B27505",
"3.	c #EFA904",
"4.	c #FDB304",
"5.	c #D89A05",
"6.	c #DE9B06",
"7.	c #FEB304",
"8.	c #E8A604",
"9.	c #E09D08",
"0.	c #FDB501",
"a.	c #F2AB0C",
"b.	c #DE9F07",
"c.	c #D79A03",
"d.	c #191212",
"e.	c #9A7107",
"f.	c #FDB606",
"g.	c #FDB505",
"h.	c #E4A303",
"i.	c #EEAA06",
"j.	c #DB9408",
"k.	c #FEB207",
"l.	c #C48707",
"m.	c #D89B06",
"n.	c #E9A407",
"o.	c #FCB402",
"p.	c #FEB505",
"q.	c #FEB402",
"r.	c #FAB205",
"s.	c #F1AC05",
"t.	c #FDB206",
"u.	c #B98107",
"v.	c #C58905",
"w.	c #ECA505",
"x.	c #8B6621",
"y.	c #8A611A",
"z.	c #F7B108",
"A.	c #5A4105",
"B.	c #553E0C",
"C.	c #FDB404",
"D.	c #AF7C01",
"E.	c #CF9404",
"F.	c #F7B103",
"G.	c #BE8507",
"H.	c #AC7B03",
"I.	c #F5B102",
"J.	c #F6AE06",
"K.	c #FEB502",
"L.	c #CB9104",
"M.	c #F6B302",
"N.	c #E09B07",
"O.	c #FCB403",
"P.	c #E29E07",
"Q.	c #DB9B03",
"R.	c #FDB401",
"S.	c #F0A905",
"T.	c #F6AE04",
"U.	c #865A1E",
"V.	c #FDD296",
"W.	c #F0C88F",
"X.	c #AA760D",
"Y.	c #805904",
"Z.	c #10110A",
"`.	c #4F3D15",
" +	c #6B4907",
".+	c #DE9F04",
"++	c #F1AE06",
"@+	c #875904",
"#+	c #BC8301",
"$+	c #EDAA06",
"%+	c #BA8308",
"&+	c #F7B304",
"*+	c #FCB205",
"=+	c #FDB604",
"-+	c #EEAA05",
";+	c #EBA505",
">+	c #F6AF05",
",+	c #E29D05",
"'+	c #B8935A",
")+	c #CAA175",
"!+	c #BF9F69",
"~+	c #664823",
"{+	c #9C6806",
"]+	c #C5A168",
"^+	c #4E3813",
"/+	c #BA8506",
"(+	c #DA9C02",
"_+	c #F9B502",
":+	c #F4B005",
"<+	c #D29304",
"[+	c #DE9D07",
"}+	c #F3AA07",
"|+	c #F5AF04",
"1+	c #D89909",
"2+	c #FEB401",
"3+	c #DE9B05",
"4+	c #EFA909",
"5+	c #FFB303",
"6+	c #E19E09",
"7+	c #FAB503",
"8+	c #E6A404",
"9+	c #F8B304",
"0+	c #D99904",
"a+	c #231404",
"b+	c #BDB4AF",
"c+	c #DCD5D6",
"d+	c #695D4A",
"e+	c #775004",
"f+	c #806748",
"g+	c #1F1E21",
"h+	c #110E0B",
"i+	c #604204",
"j+	c #DB9D04",
"k+	c #B17804",
"l+	c #DEA502",
"m+	c #B77904",
"n+	c #DB9B05",
"o+	c #EFAB06",
"p+	c #F4AF06",
"q+	c #F7AF03",
"r+	c #FCB404",
"s+	c #FEB600",
"t+	c #FCB603",
"u+	c #FFB302",
"v+	c #A16F05",
"w+	c #967D5B",
"x+	c #ECE9E1",
"y+	c #8A776A",
"z+	c #865B03",
"A+	c #AC9794",
"B+	c #1D2119",
"C+	c #D99E06",
"D+	c #5E5127",
"E+	c #3E3216",
"F+	c #FBB205",
"G+	c #E4A402",
"H+	c #CA8C03",
"I+	c #F3AE05",
"J+	c #D59704",
"K+	c #E5A603",
"L+	c #FEB303",
"M+	c #FCB407",
"N+	c #FEB404",
"O+	c #F8B004",
"P+	c #FAB203",
"Q+	c #F6AD05",
"R+	c #FAB006",
"S+	c #F7AF04",
"T+	c #E9A408",
"U+	c #D09304",
"V+	c #FEB302",
"W+	c #FFB401",
"X+	c #FEB309",
"Y+	c #F9B005",
"Z+	c #7C5E23",
"`+	c #AB770F",
" @	c #9C6E03",
".@	c #573F12",
"+@	c #C79007",
"@@	c #453817",
"#@	c #EFAB03",
"$@	c #DFA006",
"%@	c #835C0B",
"&@	c #755404",
"*@	c #CF9406",
"=@	c #C78E07",
"-@	c #FCB305",
";@	c #F1AE05",
">@	c #FFB203",
",@	c #E8A704",
"'@	c #DA9508",
")@	c #E4A204",
"!@	c #FBB603",
"~@	c #F8B006",
"{@	c #F4B003",
"]@	c #BF8306",
"^@	c #B17905",
"/@	c #FFB301",
"(@	c #FEB501",
"_@	c #B17B04",
":@	c #B48006",
"<@	c #B48E59",
"[@	c #EBBF84",
"}@	c #B27E28",
"|@	c #A27604",
"1@	c #DD9B03",
"2@	c #FEB206",
"3@	c #F1AE02",
"4@	c #CB8B0A",
"5@	c #B07B03",
"6@	c #F2AC05",
"7@	c #B27F03",
"8@	c #FBB604",
"9@	c #FEB305",
"0@	c #DD9A09",
"a@	c #F6B103",
"b@	c #FBB602",
"c@	c #E29F05",
"d@	c #FCB503",
"e@	c #ECA708",
"f@	c #E7A604",
"g@	c #C78A06",
"h@	c #B58102",
"i@	c #FFB402",
"j@	c #9F6E02",
"k@	c #77512A",
"l@	c #A28350",
"m@	c #634105",
"n@	c #755314",
"o@	c #C08803",
"p@	c #7F5905",
"q@	c #FDB405",
"r@	c #F0A703",
"s@	c #DDA102",
"t@	c #A67403",
"u@	c #AF7905",
"v@	c #D19503",
"w@	c #D49806",
"x@	c #FEB306",
"y@	c #FBB201",
"z@	c #F0AB02",
"A@	c #FDB603",
"B@	c #F2A707",
"C@	c #FCB602",
"D@	c #DF9E07",
"E@	c #CC930B",
"F@	c #986904",
"G@	c #936101",
"H@	c #F9B202",
"I@	c #533503",
"J@	c #8D6B45",
"K@	c #583918",
"L@	c #7F5803",
"M@	c #5E3A03",
"N@	c #694401",
"O@	c #47360B",
"P@	c #4E3B20",
"Q@	c #D1970B",
"R@	c #D39403",
"S@	c #845A03",
"T@	c #E6A405",
"U@	c #BA8209",
"V@	c #E7AA06",
"W@	c #AF7903",
"X@	c #EFAA07",
"Y@	c #F7AD05",
"Z@	c #D69701",
"`@	c #EFA808",
" #	c #C88A07",
".#	c #F6AF06",
"+#	c #F0B003",
"@#	c #B27604",
"##	c #FAB601",
"$#	c #C38704",
"%#	c #805C03",
"&#	c #D6B476",
"*#	c #8C631A",
"=#	c #9E6A06",
"-#	c #B78204",
";#	c #7C4F01",
">#	c #BD8209",
",#	c #896406",
"'#	c #FAB303",
")#	c #78550B",
"!#	c #946A02",
"~#	c #D39806",
"{#	c #A97405",
"]#	c #FEB403",
"^#	c #EFA907",
"/#	c #C78B02",
"(#	c #E5A604",
"_#	c #CB8D08",
":#	c #DC9C05",
"<#	c #EDA907",
"[#	c #B97F05",
"}#	c #F7B305",
"|#	c #FCB009",
"1#	c #CD8E03",
"2#	c #EEAA04",
"3#	c #EDA902",
"4#	c #B07B06",
"5#	c #E6A304",
"6#	c #A8835B",
"7#	c #82621E",
"8#	c #CE910B",
"9#	c #754904",
"0#	c #D59705",
"a#	c #AD7D03",
"b#	c #583F04",
"c#	c #5E4306",
"d#	c #7A5302",
"e#	c #A27003",
"f#	c #F0AC05",
"g#	c #A97106",
"h#	c #D09103",
"i#	c #FBB606",
"j#	c #A57103",
"k#	c #E1A207",
"l#	c #F3B102",
"m#	c #FBB407",
"n#	c #F2AD08",
"o#	c #C18407",
"p#	c #F1AA09",
"q#	c #E3A007",
"r#	c #825B01",
"s#	c #A67103",
"t#	c #A66D03",
"u#	c #8F6204",
"v#	c #F0AB09",
"w#	c #F6B108",
"x#	c #F1B007",
"y#	c #4E3209",
"z#	c #946F41",
"A#	c #4C2F10",
"B#	c #563C03",
"C#	c #5F3E04",
"D#	c #261F10",
"E#	c #2A2009",
"F#	c #3F3416",
"G#	c #0E100F",
"H#	c #4A2F02",
"I#	c #D59703",
"J#	c #B17C01",
"K#	c #F7B205",
"L#	c #F3AE02",
"M#	c #FBB404",
"N#	c #D59407",
"O#	c #EAA608",
"P#	c #F1AD03",
"Q#	c #E8A804",
"R#	c #F9B206",
"S#	c #EFA806",
"T#	c #E29F04",
"U#	c #B57C03",
"V#	c #CE9302",
"W#	c #D49307",
"X#	c #DFA107",
"Y#	c #BB8205",
"Z#	c #DA9A07",
"`#	c #E8AB08",
" $	c #B57E03",
".$	c #865C08",
"+$	c #433712",
"@$	c #E5A404",
"#$	c #F5B205",
"$$	c #C58705",
"%$	c #D09002",
"&$	c #E2A007",
"*$	c #F7B105",
"=$	c #F6B305",
"-$	c #9C6B06",
";$	c #EBA605",
">$	c #9D6C05",
",$	c #FAB604",
"'$	c #E9A605",
")$	c #FCB504",
"!$	c #ECA605",
"~$	c #A67206",
"{$	c #CD9206",
"]$	c #BF860B",
"^$	c #5E4206",
"/$	c #1E2121",
"($	c #825F0A",
"_$	c #6E4509",
":$	c #946D02",
"<$	c #DFA007",
"[$	c #BD8205",
"}$	c #A77102",
"|$	c #D79A05",
"1$	c #D89C04",
"2$	c #F7B207",
"3$	c #E0A005",
"4$	c #F8B103",
"5$	c #FBB700",
"6$	c #ECA608",
"7$	c #EFA906",
"8$	c #D69306",
"9$	c #CB8D00",
"0$	c #F7B004",
"a$	c #E19E07",
"b$	c #CA8B08",
"c$	c #875F09",
"d$	c #1F262C",
"e$	c #404121",
"f$	c #54370C",
"g$	c #845B02",
"h$	c #E2A208",
"i$	c #E09F05",
"j$	c #C78D03",
"k$	c #D99A04",
"l$	c #B37B05",
"m$	c #EBA507",
"n$	c #CD8F08",
"o$	c #C48507",
"p$	c #CF9303",
"q$	c #A37101",
"r$	c #DA9907",
"s$	c #F5B008",
"t$	c #C78E04",
"u$	c #5A3C11",
"v$	c #382906",
"w$	c #9E710D",
"x$	c #9D6F02",
"y$	c #E2A005",
"z$	c #D19807",
"A$	c #906202",
"B$	c #DD9B06",
"C$	c #F6AF04",
"D$	c #A16F02",
"E$	c #B27B04",
"F$	c #C68C05",
"G$	c #906103",
"H$	c #F5B406",
"I$	c #865A02",
"J$	c #956606",
"K$	c #44351A",
"L$	c #1B1A17",
"M$	c #554428",
"N$	c #4C3303",
"O$	c #422B01",
"P$	c #A27104",
"Q$	c #F0AA06",
"R$	c #9A6A05",
"S$	c #BA8106",
"T$	c #9C6907",
"U$	c #D09107",
"V$	c #A77504",
"W$	c #AB7D04",
"X$	c #F4AD05",
"Y$	c #EFA807",
"Z$	c #6F510A",
"`$	c #3D3010",
" %	c #483614",
".%	c #372F09",
"+%	c #6C4A0B",
"@%	c #A77B01",
"#%	c #503704",
"$%	c #8C5F04",
"%%	c #F7B306",
"&%	c #9C6B03",
"*%	c #8D6104",
"=%	c #6E5003",
"-%	c #402A05",
";%	c #141B15",
">%	c #462F05",
",%	c #352109",
"'%	c #462F07",
")%	c #624303",
"!%	c #523B01",
"~%	c #58430C",
"{%	c #714C08",
"]%	c #20150C",
"                                                                ",
"                                  .                             ",
"                      +     @     #     $                       ",
"                  %   & * = - ; > , ' ) !     ~                 ",
"                    { ] ^ / ( _ : < [ } | 1 2 3                 ",
"                  4 5 6 7 8 9 0 a b c d e f g h i               ",
"              j k l m n o p q q r s t u v w x y z               ",
"          A B C D E F G H I J K L M N f O P Q R S T U V         ",
"          W X Y Z `  ...+.@.#.$.%.&.*.=.-.;.>.,.'.).!.~.        ",
"      {.].^./.(._.:.<.[.}.|.1.2.3.4.5.6.7.8.9.0.a.b.c.d.        ",
"        e.f.g.h.[ i.j.k.l.m.n.o.p.q.r.s.t.u.v.w.x.y.z.A.        ",
"        B.C.D.E.F.G.H.I.J.K.L.M.N.O.P.Q.R.S.T.U.V.W.X.Y.        ",
"    Z.`. +.+++@+#+$+%+&+....*+=+-+G q K.;+>+,+'+)+!+~+{+]+      ",
"      ^+/+(+_+:+<+G [+}+|+1+2+3+4+5+6+7+8+9+0+a+b+c+d+e+f+g+    ",
"      h+i+j+k+l+m+n+o+p+[ #.q+r+>.s+t+u+q.0.S.v+w+x+y+z+A+B+    ",
"C+D+  E+F+G+H+I+J+K+L+K.M+N+O+P+Q+R+S+T+U+V+W+X+Y+Z+`+ @.@+@@@  ",
"#@$@%@&@*@=@-@;@N+>@,@^ '@g.)@!@~@K.{@]@^@0./@(@2+_@:@<@[@}@|@  ",
"1@0.2@3@4@5@6@7@8@9@0@a@!@b@c@d@e@q f@g@h@5+i@W+W+j@k@l@m@n@o@  ",
"p@q@>.r@s@J t@u@v@w@x@y@>.z@A@B@C@D@E@F@G@H@K.u+..I@J@K@L@M@N@O@",
"P@Q@4.R@S@T@U@s.V@W@X@C@Y@Z@`@,.r. #.#-@+#@#V+##$#%#&#*#=#-#;#>#",
"  ,#'#)#!#~#{#]#^#/#K (#_#1.q@:#,.<#[#}#|#1#2#3#4#5#6#7#8#9#0#a#",
"  b#w@  c#d#e#f#g#h#i#j#k#l#m#n#o#p#q#r#s#t#u#v#w#x#y#z#A#B#C#D#",
"  E#F#  G#H#~@I#J#K#L#M#>.N#O#P#Q#R#S#T#U#V#W#X#Y#Z#`# $.$      ",
"          +$@$#$$$N+%$&$*$V+=$-$).;$>$,$d@'$)$!$~${$]$^$/$      ",
"          ($_$:$<$[$}$|$q 1$2$3$4$5$6$7$8$9$C@0$a$b$c$d$        ",
"          e$  f$g$h$i$j$7.k$l$#@m$n$o$b@p$q$r$s$ $t$u$          ",
"              v$  w$: x$y$z$A$B$C$D$E$y F$G$H$I$J$K$  L$        ",
"                  M$N$O$P$).Q$R$S$T$U$V$W$X$Y$Z$`$              ",
"                   %    .%+%@%#%$%s$%%&%*%=%-%    ;%            ",
"                            >%  ,%'%)%  !%  ~%                  ",
"                                    {%  ]%                      ",
"                                                                "};
