/* XPM */
static char * chromium_32x32_xpm[] = {
"32 32 292 2",
"  	c None",
". 	c #4A79DB",
"+ 	c #4977DA",
"@ 	c #4776DA",
"# 	c #4C7ADA",
"$ 	c #4877DA",
"% 	c #4272D9",
"& 	c #4172D9",
"* 	c #4171D9",
"= 	c #4071D9",
"- 	c #3F70D8",
"; 	c #3E6FD8",
"> 	c #3D6FD8",
", 	c #4574D9",
"' 	c #4C7ADB",
") 	c #4775DA",
"! 	c #4474D9",
"~ 	c #4373D9",
"{ 	c #4070D8",
"] 	c #3D6ED8",
"^ 	c #4373DA",
"/ 	c #4976D8",
"( 	c #4574DA",
"_ 	c #3C6ED8",
": 	c #3B6DD8",
"< 	c #3E70D8",
"[ 	c #4773D5",
"} 	c #4573D6",
"| 	c #4674D8",
"1 	c #4575DA",
"2 	c #3B6CD8",
"3 	c #3B6DD7",
"4 	c #4671D2",
"5 	c #4571D4",
"6 	c #4572D5",
"7 	c #4473D7",
"8 	c #3A6CD8",
"9 	c #3A6CD7",
"0 	c #3B6CD7",
"a 	c #456ECF",
"b 	c #436ED0",
"c 	c #446FD3",
"d 	c #4471D4",
"e 	c #4472D5",
"f 	c #4573D8",
"g 	c #396CD7",
"h 	c #6999ED",
"i 	c #4068C9",
"j 	c #436DCF",
"k 	c #446ED1",
"l 	c #446FD2",
"m 	c #4470D4",
"n 	c #4471D6",
"o 	c #4373D8",
"p 	c #3E6FD9",
"q 	c #3D6FD9",
"r 	c #3E70D9",
"s 	c #3C6FD9",
"t 	c #3C6ED9",
"u 	c #3B6ED9",
"v 	c #3A6DD9",
"w 	c #396CD8",
"x 	c #386BD7",
"y 	c #376AD7",
"z 	c #3A6DD8",
"A 	c #6DA1F8",
"B 	c #5780D8",
"C 	c #406ACD",
"D 	c #426CCF",
"E 	c #426ED1",
"F 	c #4370D3",
"G 	c #4371D6",
"H 	c #4372D7",
"I 	c #567FD9",
"J 	c #98AFE4",
"K 	c #B5C5E9",
"L 	c #B9C6E6",
"M 	c #A2B1E0",
"N 	c #6F88CE",
"O 	c #5C79C9",
"P 	c #607CCB",
"Q 	c #617DCC",
"R 	c #627ECD",
"S 	c #627FCF",
"T 	c #6382D1",
"U 	c #6383D1",
"V 	c #6685D3",
"W 	c #6887D5",
"X 	c #6989D6",
"Y 	c #6BA0F6",
"Z 	c #6BA0F7",
"` 	c #6EA2F8",
" .	c #4165C3",
"..	c #416ACE",
"+.	c #416CD0",
"@.	c #426ED2",
"#.	c #426FD4",
"$.	c #4270D6",
"%.	c #BDCBEA",
"&.	c #FFFFF8",
"*.	c #ECF0F6",
"=.	c #C6D8F6",
"-.	c #FFFFF9",
";.	c #CED5EA",
">.	c #7B94D4",
",.	c #7E96D6",
"'.	c #7F98D8",
").	c #839DDB",
"!.	c #87A2DF",
"~.	c #8BA6E3",
"{.	c #8DA9E6",
"].	c #8EAAE7",
"^.	c #8FABE7",
"/.	c #91ADE8",
"(.	c #6B9FF7",
"_.	c #5F8CE4",
":.	c #3C61C3",
"<.	c #406ACE",
"[.	c #416CD1",
"}.	c #406ED3",
"|.	c #4270D3",
"1.	c #E3E8F1",
"2.	c #EDF1F6",
"3.	c #7AA8F6",
"4.	c #4587F5",
"5.	c #4A8BF5",
"6.	c #4989F5",
"7.	c #4386F5",
"8.	c #78A7F6",
"9.	c #EDF0F6",
"0.	c #E8EAF2",
"a.	c #8CA7E3",
"b.	c #91ACE8",
"c.	c #92AFEA",
"d.	c #93B0EB",
"e.	c #94B1EC",
"f.	c #95B2ED",
"g.	c #96B4ED",
"h.	c #96B4EE",
"i.	c #98B6EF",
"j.	c #6A9FF7",
"k.	c #6DA2F9",
"l.	c #476ECB",
"m.	c #3E64C6",
"n.	c #3F6ACE",
"o.	c #3B69D1",
"p.	c #5490F5",
"q.	c #4F8DF5",
"r.	c #4E8DF5",
"s.	c #4D8CF5",
"t.	c #4C8CF5",
"u.	c #4C8BF5",
"v.	c #518EF5",
"w.	c #EDF0F5",
"x.	c #D5DEF1",
"y.	c #94B2EE",
"z.	c #98B5EF",
"A.	c #99B7F0",
"B.	c #9AB9F1",
"C.	c #9BBAF2",
"D.	c #9CBAF3",
"E.	c #9EBCF5",
"F.	c #699EF7",
"G.	c #6698EF",
"H.	c #3A60C3",
"I.	c #3D65C8",
"J.	c #557BD3",
"K.	c #4B8BF5",
"L.	c #78A7F4",
"M.	c #FFFBF6",
"N.	c #A4BFF0",
"O.	c #9DBBF3",
"P.	c #9DBCF4",
"Q.	c #9FBEF5",
"R.	c #9FBFF6",
"S.	c #A1C0F7",
"T.	c #A1C1F9",
"U.	c #A2C3F9",
"V.	c #689EF7",
"W.	c #6A9FF8",
"X.	c #4F7AD7",
"Y.	c #3C64C7",
"Z.	c #97ACDF",
"`.	c #4A8AF4",
" +	c #4084F4",
".+	c #ECEFF5",
"++	c #C8D8F4",
"@+	c #A2C1F8",
"#+	c #A3C3F9",
"$+	c #A3C4FA",
"%+	c #A3C3FA",
"&+	c #A2C3FA",
"*+	c #689DF6",
"=+	c #699EF6",
"-+	c #3860C5",
";+	c #B7C5E6",
">+	c #4A8AF5",
",+	c #4587F4",
"'+	c #C5D8F5",
")+	c #D7E2F5",
"!+	c #A4C4FA",
"~+	c #679CF6",
"{+	c #5383E1",
"]+	c #B6C4E6",
"^+	c #498AF4",
"/+	c #C5D7F5",
"(+	c #D8E2F5",
"_+	c #A2C2FA",
":+	c #669CF6",
"<+	c #679DF7",
"[+	c #69A0F9",
"}+	c #9CB2E2",
"|+	c #3F83F4",
"1+	c #CBDBF5",
"2+	c #A2C2F9",
"3+	c #679DF6",
"4+	c #76A2F1",
"5+	c #FFFEF7",
"6+	c #4989F4",
"7+	c #77A6F4",
"8+	c #FEFBF5",
"9+	c #AEC9F7",
"0+	c #A4C3FA",
"a+	c #629AF6",
"b+	c #CADAF5",
"c+	c #508EF5",
"d+	c #4F8CF4",
"e+	c #D9E2F3",
"f+	c #659BF5",
"g+	c #E8EDF5",
"h+	c #ECF0F5",
"i+	c #E2E7F1",
"j+	c #A4C2F8",
"k+	c #A0C1F9",
"l+	c #6399F4",
"m+	c #659BF6",
"n+	c #CADBF6",
"o+	c #FFFCF5",
"p+	c #FFFDF6",
"q+	c #C4D3EF",
"r+	c #82A6EA",
"s+	c #A1C2FA",
"t+	c #9FC0F8",
"u+	c #649BF6",
"v+	c #6099F6",
"w+	c #78A8F6",
"x+	c #ADC8F6",
"y+	c #C4D7F6",
"z+	c #AAC4F2",
"A+	c #709AEA",
"B+	c #5785E1",
"C+	c #A8C6FB",
"D+	c #A1C1FA",
"E+	c #6197F2",
"F+	c #639AF6",
"G+	c #6098F6",
"H+	c #5D90ED",
"I+	c #5789E6",
"J+	c #8DB0F0",
"K+	c #9EBFF7",
"L+	c #5B8EEA",
"M+	c #6591E5",
"N+	c #A8C7FC",
"O+	c #A0C0F9",
"P+	c #639AF5",
"Q+	c #6299F6",
"R+	c #6197F3",
"S+	c #5486E5",
"T+	c #9BBAF4",
"U+	c #6299F5",
"V+	c #5D92EE",
"W+	c #749DEA",
"X+	c #A4C4FB",
"Y+	c #6197F4",
"Z+	c #6199F6",
"`+	c #588AE7",
" @	c #A3C2F8",
".@	c #9FBFF8",
"+@	c #5E94F1",
"@@	c #6198F5",
"#@	c #80A7EE",
"$@	c #9DBCF6",
"%@	c #5F96F3",
"&@	c #619AF7",
"*@	c #6097F5",
"=@	c #5D8FEA",
"-@	c #A7C6FA",
";@	c #9EBEF7",
">@	c #9CBDF5",
",@	c #598CEA",
"'@	c #7EA3EA",
")@	c #9DBCF5",
"                                                                ",
"                            . + + @                             ",
"                    # $ % & & * = - ; > % ,                     ",
"                ' ) ! ! ~ % & * * { - ; > ] ; ^                 ",
"              / ( ( ( ! ~ % % & = { - ; > ] _ : <               ",
"            [ } | 1 ( ! ~ % % & = { - ; > ] ] _ 2 3             ",
"          4 5 6 7 , ( ! ~ % & & = { - ; > ] _ _ 8 9 0           ",
"        a b c d e f ! ~ ~ % & * * { ; ; > ] _ : 8 9 g 3         ",
"      h i j k l m n o ~ ~ % & p q r p q s t u v w g x y z       ",
"      A B C D E F G H ~ > I J K L M N O P Q R S T U V W X       ",
"    Y Z `  ...+.@.#.$.G %.&.*.=.=.*.-.;.>.,.'.).!.~.{.].^./.    ",
"    (.(.(._.:.<.[.}.|.1.2.3.4.5.6.7.8.9.0.a.b.c.d.e.f.g.h.i.    ",
"    j.(.j.k.l.m.n.o.%.2.p.q.r.s.s.t.u.v.w.x.y.z.i.A.B.C.D.E.    ",
"    F.F.j.j.G.H.I.J.&.3.q.r.s.s.t.u.u.K.L.M.N.O.P.Q.R.S.T.U.    ",
"  V.F.F.F.F.W.X.Y.Z.*.4.r.s.s.t.t.u.K.`. +.+++@+#+$+%+%+&+&+&+  ",
"  *+F.F.F.F.F.=+-+;+=.>+s.s.t.t.u.K.K.`.,+'+)+%+!+!+%+%+&+&+&+  ",
"  ~+V.V.V.V.V.V.{+]+=.6.t.t.u.u.K.K.`.^+,+/+(+%+!+%+%+&+&+&+_+  ",
"  :+<+<+V.V.V.<+[+}+*.7.t.u.u.K.K.`.^+^+|+.+1+!+%+%+%+&+&+_+2+  ",
"    3+3+3+3+3+<+3+4+5+8.u.u.K.`.`.^+^+6+7+8+9+0+%+%+&+&+&+_+    ",
"    :+:+:+:+:+:+3+a+b+9.c+K.`.`.^+^+6+d+w.e+&+%+%+&+&+&+_+_+    ",
"    f+:+:+:+:+:+:+:+*+g+h+L. +,+,+|+7+w.i+j+%+%+%+&+&+&+_+k+    ",
"    l+:+:+:+:+:+:+:+m+~+n+o+h+'+/+.+p+q+r+%+%+%+&+&+&+_+s+t+    ",
"      f+m+m+m+m+m+u+u+u+v+w+x+/+y+z+A+B+C+%+%+&+&+&+_+_+D+      ",
"      E+u+u+u+u+u+u+u+u+u+F+F+G+v+H+I+J+%+%+&+&+&+_+_+s+K+      ",
"        l+u+u+u+u+u+F+u+F+F+a+a+a+L+M+N+%+&+&+&+_+_+s+O+        ",
"          P+u+F+F+F+F+a+a+a+a+Q+R+S+T+&+&+&+&+_+_+s+O+          ",
"            U+F+a+a+a+a+a+Q+Q+Q+V+W+X+&+&+&+_+_+s+t+            ",
"              Y+a+Q+Q+Q+Z+Z+Z+Z+`+ @&+&+_+_+_+s+.@              ",
"                +@@@Z+Z+Z+Z+Z++@#@&+&+_+_+s+k+$@                ",
"                    +@%@&@Z+*@=@-@_+_+&+;@>@                    ",
"                            ,@'@T+)@                            ",
"                                                                "};
