/* XPM */
static char * menuButtonI_xpm[] = {
"23 46 546 2",
"  	c None",
". 	c #234785",
"+ 	c #A1BEDE",
"@ 	c #A0BDDD",
"# 	c #9EBCDE",
"$ 	c #9FBDE1",
"% 	c #9DB9DE",
"& 	c #9AB6DD",
"* 	c #9DB6DE",
"= 	c #9FB8E0",
"- 	c #A0B9E2",
"; 	c #A0B7E1",
"> 	c #A1B8E1",
", 	c #9EB7DF",
"' 	c #9BB4DC",
") 	c #99B3D8",
"! 	c #99B5DA",
"~ 	c #9BB8DA",
"{ 	c #A4BCD4",
"] 	c #A3BBD3",
"^ 	c #9EB8D1",
"/ 	c #9DB7D0",
"( 	c #9BB5CE",
"_ 	c #9CB4CE",
": 	c #9DB5CF",
"< 	c #A2B7D2",
"[ 	c #A6BBD6",
"} 	c #9FB1D5",
"| 	c #A3B5D9",
"1 	c #A6BADB",
"2 	c #A7BBDC",
"3 	c #A5BCDC",
"4 	c #A4BBDB",
"5 	c #A2B9D9",
"6 	c #9FB8D7",
"7 	c #9EB2CA",
"8 	c #98AEC6",
"9 	c #9BAFC8",
"0 	c #9FB3CC",
"a 	c #A2B3CD",
"b 	c #A0B2CA",
"c 	c #9DAFC7",
"d 	c #9CAEC6",
"e 	c #A2B1CE",
"f 	c #9CABC8",
"g 	c #9AA9C6",
"h 	c #9BACC8",
"i 	c #9DAECA",
"j 	c #99ACCA",
"k 	c #9AADCB",
"l 	c #9CAFCD",
"m 	c #9DB1C9",
"n 	c #9FAFD0",
"o 	c #9EAED0",
"p 	c #9AAACB",
"q 	c #92A1C0",
"r 	c #8796B5",
"s 	c #7F8DAA",
"t 	c #7C8AA7",
"u 	c #6F7B91",
"v 	c #76829A",
"w 	c #7E8DA4",
"x 	c #8B99B3",
"y 	c #97A7C1",
"z 	c #A0B0CA",
"A 	c #A0AFCC",
"B 	c #A0AFD6",
"C 	c #9DADD1",
"D 	c #92A0C3",
"E 	c #8998B9",
"F 	c #8D9ABA",
"G 	c #97A5C2",
"H 	c #9FADCA",
"I 	c #A9B6C9",
"J 	c #9AA9BE",
"K 	c #8796AD",
"L 	c #8494AD",
"M 	c #95A5BF",
"N 	c #9DAECC",
"O 	c #9EB0D4",
"P 	c #A7BCDB",
"Q 	c #A6BBDA",
"R 	c #A3B6D7",
"S 	c #98ABCB",
"T 	c #8A9BB9",
"U 	c #899AB4",
"V 	c #9DADC6",
"W 	c #B2C2D9",
"X 	c #BBCCE0",
"Y 	c #BBCBDB",
"Z 	c #BCCBDE",
"` 	c #B1C0D5",
" .	c #9CACC3",
"..	c #8D9DB7",
"+.	c #8D9EBA",
"@.	c #99AAC8",
"#.	c #A1B1D2",
"$.	c #9BB4CA",
"%.	c #97ADC5",
"&.	c #8B9FB7",
"*.	c #8095AA",
"=.	c #8B9EAF",
"-.	c #A1B4C3",
";.	c #ACBFCD",
">.	c #AABCC8",
",.	c #AABBCD",
"'.	c #A7B8CA",
").	c #A9BACE",
"!.	c #A7B7D0",
"~.	c #91A2BC",
"{.	c #7F90AE",
"].	c #879ABA",
"^.	c #A0B3D4",
"/.	c #98A9C7",
"(.	c #75859E",
"_.	c #8B9CB0",
":.	c #97A6B9",
"<.	c #9EADC2",
"[.	c #9CABC2",
"}.	c #A7B3CD",
"|.	c #A6B2CC",
"1.	c #A0AFC6",
"2.	c #9DACBF",
"3.	c #9BAABD",
"4.	c #96A7B9",
"5.	c #8E9EB5",
"6.	c #798AA4",
"7.	c #98A9C5",
"8.	c #99AECB",
"9.	c #9DB0CE",
"0.	c #9AABC9",
"a.	c #7E8EA7",
"b.	c #96A7BB",
"c.	c #9FAEC1",
"d.	c #A5B4C9",
"e.	c #A2B1C8",
"f.	c #A8B4CE",
"g.	c #A6B5CC",
"h.	c #A5B4C7",
"i.	c #A4B3C6",
"j.	c #9EAFC1",
"k.	c #95A5BC",
"l.	c #7E8FA9",
"m.	c #97A8C4",
"n.	c #9CB1CE",
"o.	c #A5B8D6",
"p.	c #9BACCA",
"q.	c #8898B1",
"r.	c #A0B1C5",
"s.	c #A7B6C9",
"t.	c #ADBCD1",
"u.	c #ADBCD3",
"v.	c #B0BCD6",
"w.	c #B0BFD6",
"x.	c #ADBCCF",
"y.	c #ACBBCE",
"z.	c #A6B7C9",
"A.	c #9FAFC6",
"B.	c #8798B2",
"C.	c #A5BAD7",
"D.	c #9BAECC",
"E.	c #93A4C2",
"F.	c #8797B0",
"G.	c #A1B2C6",
"H.	c #A8B7CA",
"I.	c #B7C3DD",
"J.	c #B5C1DB",
"K.	c #B3C2D9",
"L.	c #AAB9CC",
"M.	c #A1B1C8",
"N.	c #93A4C0",
"O.	c #899AB8",
"P.	c #8393AC",
"Q.	c #9EAFC3",
"R.	c #A9B8CB",
"S.	c #ABBACF",
"T.	c #AEBDD4",
"U.	c #B8C4DE",
"V.	c #B1C0D7",
"W.	c #A5B6C8",
"X.	c #9EAEC5",
"Y.	c #8697B1",
"Z.	c #8A9BB7",
"`.	c #9AAFCC",
" +	c #8E9FBD",
".+	c #8A9AB3",
"++	c #AFBED1",
"@+	c #B4C3D8",
"#+	c #B4C3DA",
"$+	c #BCC8E2",
"%+	c #B7C6DD",
"&+	c #B0BFD2",
"*+	c #B5C4D7",
"=+	c #9DADC4",
"-+	c #A2B5D3",
";+	c #8F9FB8",
">+	c #92A3B7",
",+	c #B9C8DD",
"'+	c #B9C8DF",
")+	c #BAC6E0",
"!+	c #BBCAE1",
"~+	c #B7C6D9",
"{+	c #B9C8DB",
"]+	c #A4B5C7",
"^+	c #92A2B9",
"/+	c #A1B6D3",
"(+	c #8999B2",
"_+	c #7C8DA1",
":+	c #B3C2D7",
"<+	c #B5C4DB",
"[+	c #B1C0D3",
"}+	c #93A4B6",
"|+	c #7F8FA6",
"1+	c #8192AC",
"2+	c #92ADCB",
"3+	c #90A8C0",
"4+	c #869FB5",
"5+	c #7B94AA",
"6+	c #7790A4",
"7+	c #7F98AC",
"8+	c #8FA8BC",
"9+	c #9CB6C7",
"0+	c #A8BFCF",
"a+	c #A0B7C7",
"b+	c #8CA6B7",
"c+	c #7B95A6",
"d+	c #7590A3",
"e+	c #7C97AA",
"f+	c #86A1B4",
"g+	c #89A5BA",
"h+	c #93ACCB",
"i+	c #98ADC8",
"j+	c #96A6C8",
"k+	c #93A3C4",
"l+	c #8B9BBC",
"m+	c #8192B0",
"n+	c #7A8BA9",
"o+	c #7889A7",
"p+	c #7889A5",
"q+	c #7686A0",
"r+	c #7988A5",
"s+	c #7C8BA8",
"t+	c #7D8EAA",
"u+	c #8394B2",
"v+	c #8B9EBC",
"w+	c #92A5C5",
"x+	c #93A6C6",
"y+	c #99ADC8",
"z+	c #A2B2CC",
"A+	c #A0ADCF",
"B+	c #A1AECE",
"C+	c #9EABCB",
"D+	c #98A5C5",
"E+	c #919FBC",
"F+	c #8B99B6",
"G+	c #8997B4",
"H+	c #868FAC",
"I+	c #8994B0",
"J+	c #8E99B5",
"K+	c #929DBB",
"L+	c #96A4C1",
"M+	c #9CA9C9",
"N+	c #9EADCC",
"O+	c #A3B1CC",
"P+	c #96A9C9",
"Q+	c #97A9C1",
"R+	c #96A8C0",
"S+	c #95A7BD",
"T+	c #92A4BA",
"U+	c #90A2B8",
"V+	c #8EA0B4",
"W+	c #8D9FB3",
"X+	c #8D9EB2",
"Y+	c #8E9FB3",
"Z+	c #8FA0B4",
"`+	c #8EA0B6",
" @	c #93A5BD",
".@	c #93A7BF",
"+@	c #94A8C0",
"@@	c #95A8C8",
"#@	c #90A8CA",
"$@	c #8FA6C5",
"%@	c #90A8C4",
"&@	c #90A8C2",
"*@	c #8EA6C0",
"=@	c #8BA3BB",
"-@	c #88A0B8",
";@	c #899EB9",
">@	c #8BA0BB",
",@	c #8CA4BE",
"'@	c #8FA7C3",
")@	c #8FA9C4",
"!@	c #8DA8C5",
"~@	c #91A8C7",
"{@	c #8FA5CC",
"]@	c #90A6CB",
"^@	c #91A7CC",
"/@	c #91A8CA",
"(@	c #91A5C8",
"_@	c #90A4C9",
":@	c #91A5CA",
"<@	c #91A7CE",
"[@	c #8DA5CB",
"}@	c #8BA2CB",
"|@	c #91AAC8",
"1@	c #6D7A8B",
"2@	c #6E7A94",
"3@	c #6C7892",
"4@	c #6A768E",
"5@	c #68748C",
"6@	c #68748A",
"7@	c #6A768C",
"8@	c #6B778D",
"9@	c #6E7891",
"0@	c #6B758E",
"a@	c #69758F",
"b@	c #67758F",
"c@	c #66748F",
"d@	c #677590",
"e@	c #697993",
"f@	c #6C7C8C",
"g@	c #9FBCDC",
"h@	c #9CB9DB",
"i@	c #A1BAE2",
"j@	c #A2BBE3",
"k@	c #9AB3DB",
"l@	c #9FB6DF",
"m@	c #9FB7DD",
"n@	c #A0B8DE",
"o@	c #A1BBE0",
"p@	c #A1BBDE",
"q@	c #A2BAD2",
"r@	c #9FB7CF",
"s@	c #A0B8D0",
"t@	c #A1B5D6",
"u@	c #A2B6D7",
"v@	c #A0B4D5",
"w@	c #9FB3D4",
"x@	c #A4B8D9",
"y@	c #AABEDF",
"z@	c #9CB0D1",
"A@	c #A3B7D2",
"B@	c #A3B8D3",
"C@	c #A2B8D0",
"D@	c #9CB0C9",
"E@	c #9CADC9",
"F@	c #A1B2CE",
"G@	c #A2B3CF",
"H@	c #99AAC6",
"I@	c #9EAFCB",
"J@	c #9BABC4",
"K@	c #A0B0C9",
"L@	c #A1B3CB",
"M@	c #9EB0C8",
"N@	c #99ADC6",
"O@	c #9EAECF",
"P@	c #9DADCF",
"Q@	c #99A8BF",
"R@	c #8D9CB3",
"S@	c #8291A8",
"T@	c #78879E",
"U@	c #728198",
"V@	c #738299",
"W@	c #77869D",
"X@	c #8F9DBA",
"Y@	c #9DACCB",
"Z@	c #A0AFCE",
"`@	c #9DADCE",
" #	c #9CAED4",
".#	c #9AACD2",
"+#	c #95A4B9",
"@#	c #8A99AE",
"##	c #8897AC",
"$#	c #97A6BB",
"%#	c #A8B7CC",
"&#	c #A9B8CD",
"*#	c #8695B4",
"=#	c #8A99B8",
"-#	c #94A3C4",
";#	c #A1B1D5",
">#	c #9DB1D2",
",#	c #8394A8",
"'#	c #90A1B5",
")#	c #A3B4C8",
"!#	c #B2C3D7",
"~#	c #B9CADE",
"{#	c #B8C9DD",
"]#	c #B5C6DA",
"^#	c #B4C5D9",
"/#	c #9BADC3",
"(#	c #91A3BB",
"_#	c #90A1BB",
":#	c #9BAFCA",
"<#	c #A6B9D9",
"[#	c #9AB3C9",
"}#	c #93ABC3",
"|#	c #8DA5BD",
"1#	c #7E90A6",
"2#	c #A1B3C9",
"3#	c #A9BBD1",
"4#	c #ACBED4",
"5#	c #ADBFD5",
"6#	c #AABCD2",
"7#	c #A6B8CE",
"8#	c #A6BCC9",
"9#	c #8DA3B1",
"0#	c #7E93A4",
"a#	c #889FB1",
"b#	c #98AEC5",
"c#	c #94A5BF",
"d#	c #7A8BA5",
"e#	c #8E9DB2",
"f#	c #9CABC0",
"g#	c #9FAEC3",
"h#	c #A2B1C6",
"i#	c #A4B3C8",
"j#	c #A1B0C5",
"k#	c #A1AEC1",
"l#	c #9CA8BE",
"m#	c #8C9BB2",
"n#	c #7888A1",
"o#	c #98A9C3",
"p#	c #97A8C2",
"q#	c #9DACC1",
"r#	c #A3B2C7",
"s#	c #A7B6CB",
"t#	c #A4B1C4",
"u#	c #A1ADC3",
"v#	c #94A3BA",
"w#	c #8191AA",
"x#	c #9DAEC8",
"y#	c #9EAFC9",
"z#	c #ACBBD0",
"A#	c #AEBDD2",
"B#	c #B0BFD4",
"C#	c #AFBED3",
"D#	c #ABB8CB",
"E#	c #ABB7CD",
"F#	c #8B9BB4",
"G#	c #A1B2CC",
"H#	c #93A4BE",
"I#	c #8394AE",
"J#	c #ACB9CC",
"K#	c #B1BDD3",
"L#	c #A4B3CA",
"M#	c #8495AF",
"N#	c #B2C1D6",
"O#	c #ADBACD",
"P#	c #B2BED4",
"Q#	c #A1B0C7",
"R#	c #8B9CB6",
"S#	c #8596B0",
"T#	c #B6C5DA",
"U#	c #B8C7DC",
"V#	c #B7C6DB",
"W#	c #B6C3D6",
"X#	c #B4C0D6",
"Y#	c #9EADC4",
"Z#	c #8FA0BA",
"`#	c #8E9FB9",
" $	c #BDCCE1",
".$	c #BCCBE0",
"+$	c #BBCADF",
"@$	c #BAC9DE",
"#$	c #BAC7DA",
"$$	c #8C9CB5",
"%$	c #8899B3",
"&$	c #8190A5",
"*$	c #B4C1D4",
"=$	c #9AA6BC",
"-$	c #8392A9",
";$	c #8AA4BD",
">$	c #88A2BB",
",$	c #7E90A4",
"'$	c #7D8FA3",
")$	c #8294A8",
"!$	c #92A4B8",
"~$	c #A4B6CA",
"{$	c #ABBDD1",
"]$	c #A3B5C9",
"^$	c #98AABE",
"/$	c #768FA5",
"($	c #7A93A9",
"_$	c #8099AF",
":$	c #87A0B6",
"<$	c #8EA7BD",
"[$	c #95A7CB",
"}$	c #93A5C9",
"|$	c #919EBE",
"1$	c #8895B5",
"2$	c #7E8BAB",
"3$	c #7986A6",
"4$	c #7A87A7",
"5$	c #7885A5",
"6$	c #7582A2",
"7$	c #8292B4",
"8$	c #8696B8",
"9$	c #8D9DBF",
"0$	c #93A3C5",
"a$	c #98A8CA",
"b$	c #9EABCD",
"c$	c #9DAACC",
"d$	c #9AA8C5",
"e$	c #93A1BE",
"f$	c #8694B1",
"g$	c #8593B0",
"h$	c #8D9BB8",
"i$	c #93A0C2",
"j$	c #96A3C5",
"k$	c #9BA8CA",
"l$	c #A1AED0",
"m$	c #A4B1D3",
"n$	c #97ABC3",
"o$	c #8EA4B9",
"p$	c #90A6BB",
"q$	c #8DA3B8",
"r$	c #899FB4",
"s$	c #879DB2",
"t$	c #8CA2B7",
"u$	c #90A2BA",
"v$	c #92A4BC",
"w$	c #95A7BF",
"x$	c #98AAC2",
"y$	c #8CA6C1",
"z$	c #8CAAC4",
"A$	c #8BA9C3",
"B$	c #88A6C0",
"C$	c #86A4BE",
"D$	c #85A3BD",
"E$	c #87A5BF",
"F$	c #91A9CD",
"G$	c #8FA9CE",
"H$	c #8EA8CD",
"I$	c #91ABD0",
"J$	c #92ACD1",
"K$	c #90AACF",
"L$	c #93A9D0",
"M$	c #92A8CF",
"N$	c #90A6CD",
"O$	c #68778E",
"P$	c #66748E",
"Q$	c #687690",
"R$	c #6A7892",
"S$	c #697791",
"T$	c #65738D",
"U$	c #6D7993",
". . . . . . . . . . . . . . . . . . . . . . . ",
"+ @ + @ # $ % & * = - ; > , ' ) ! ~ ~ @ @ @ @ ",
"{ ] { ] ^ / ( _ : < [ } | 1 2 3 4 5 6 ] ] ] ] ",
"7 7 7 7 8 9 0 a b c d e f g h i j k l m m m m ",
"n n n n o o p q r s t u v w x y z A h n n n n ",
"} } } } B C D E F G H I I J K L M A N O O O O ",
"P Q P Q R S T U V W X Y Z `  ...+.@.#.Q Q Q Q ",
"$.$.$.$.%.&.*.=.-.;.>.,.'.).!.~.{.].^.$.$.$.$.",
"l l l l /.(._.:.<.[.}.|.1.2.3.4.5.6.7.8.8.8.8.",
"9.9.9.9.0.a.b.c.d.e.f.f.g.h.i.j.k.l.m.n.n.n.n.",
"o.o.o.o.p.q.r.s.t.u.v.v.w.x.y.z.A.B.7.C.C.C.C.",
"D.D.D.D.E.F.G.H.t.w.I.J.K.y.L.z.M.U N.n.n.n.n.",
"D.D.D.D.O.P.Q.R.S.T.U.J.V.H.L.W.X.Y.Z.`.`.`.`.",
"D.D.D.D. +.+Q.++@+#+$+U.%+&+*+,.=+U +.8.8.8.8.",
"-+-+-+-+/.;+>+R.,+'+$+)+!+~+{+]+^+U m./+/+/+/+",
"D.D.D.D.0.(+_+:.:+<+J.J.%+[+&+}+|+1+h `.`.`.`.",
"2+2+2+2+3+4+5+6+7+8+9+0+a+b+c+d+e+f+g+h+h+h+h+",
"i+i+i+i+j+k+l+m+n+o+p+q+r+s+t+u+v+w+x+y+y+y+y+",
"z+z+z+z+A+B+C+D+E+F+G+H+I+J+K+L+M+N+N+O+O+O+O+",
"P+P+P+P+Q+R+S+T+U+V+W+X+Y+Z+`+U+ @.@+@@@@@@@@@",
"#@#@#@#@$@%@%@&@*@=@-@;@>@,@'@)@)@!@!@#@#@#@#@",
"~@~@~@~@{@{@]@^@/@/@/@(@_@:@^@<@[@}@}@|@|@|@|@",
"1@1@1@1@2@3@4@5@6@7@8@9@0@5@a@b@c@d@e@f@f@f@f@",
". . . . . . . . . . . . . . . . . . . . . . . ",
"g@@ @ @ h@h@* i@j@= k@k@* i@l@m@n@o@p@@ @ @ @ ",
"q@] ] ] r@s@t@u@v@w@x@y@1 z@A@B@B@C@s@] ] ] ] ",
"m m 7 m 9 D@E@F@G@E@m.H@I@F@J@K@L@M@N@m m m m ",
"O@n n n P@o e.Q@R@S@T@U@V@W@X@L+Y@Z@`@n n n n ",
"O O } O  #.#+#@###$#%#t.&#d.*#=#-#P@;#O O O O ",
"Q Q Q Q t@>#,#'#)#!#~#{#]#^#/#(#_#:#<#Q Q Q Q ",
"[#[#$.[#}#|#1#U+2#3#4#5#6#7#8#9#0#a#b#$.$.$.$.",
"l l l l c#d#e#+#f#g#h#d.i#j#k#l#m#n#o#8.8.8.8.",
"9.9.9.9.p#l.$#q#r#d.s#&#s#r#t#u#v#w#x#n.n.n.n.",
"o.o.o.o.y#U h#s#z#A#B#` C#S.D#E#1.F#G#C.C.C.C.",
"D.D.D.D.H#I#d.&#t.C#` @+:+B#J#K#L#.+p#n.n.n.n.",
"D.D.D.D.~.M#r#&#A#C#B#N#:+N#O#P#Q#P.R#`.`.`.`.",
"D.D.D.D._#S#i#t.T#U#V#U#U#V#W#X#Y#F.Z#8.8.8.8.",
"-+-+-+-+o#`#$#s#T# $.$+$+$@$#$E#v#$$p#/+/+/+/+",
"D.D.D.D.~.%$&$+#z#T#V#V#T#T#*$=$-$(+o#`.`.`.`.",
"2+2+2+2+;$>$,$'$)$!$~${$]$^$/$($_$:$<$h+h+h+h+",
"i+i+i+i+[$}$|$1$2$3$4$4$5$6$7$8$9$0$a$y+y+y+y+",
"z+z+z+z+b$c$H d$e$F+f$g$G+h$i$j$k$l$m$O+O+O+O+",
"P+P+P+P+n$n$o$p$p$q$r$s$r$t$u$v$w$Q+x$@@@@@@@@",
"#@#@#@#@y$y$z$z$A$B$C$D$C$E$%@%@%@%@%@#@#@#@#@",
"~@~@~@~@F$F$G$G$H$G$I$J$I$K$L$M$N${@{@|@|@|@|@",
"1@1@1@1@O$O$P$b@Q$R$R$S$b@T$2@U$U$3@3@f@f@f@f@"};
