/* XPM */
static char * mplayer_16x16_xpm[] = {
"16 16 105 2",
"  	c None",
". 	c #464646",
"+ 	c #D2D2D0",
"@ 	c #A5C2E1",
"# 	c #729FCF",
"$ 	c #6F9CCD",
"% 	c #6895C8",
"& 	c #6894C7",
"* 	c #7490AD",
"= 	c #849098",
"- 	c #868883",
"; 	c #7C7E7A",
"> 	c #608EC3",
", 	c #638CBB",
"' 	c #7E8A92",
") 	c #A3A6A6",
"! 	c #DFE0DE",
"~ 	c #F0F1EF",
"{ 	c #A7A8A5",
"] 	c #878985",
"^ 	c #757773",
"/ 	c #C5C6C3",
"( 	c #DDDDDC",
"_ 	c #D8D8D8",
": 	c #E9E9E7",
"< 	c #EFEFED",
"[ 	c #F1F1F0",
"} 	c #F6F6F5",
"| 	c #C7C8C5",
"1 	c #838580",
"2 	c #91AFD2",
"3 	c #879AAD",
"4 	c #9D9F9E",
"5 	c #F3F3F2",
"6 	c #CACAC8",
"7 	c #618A35",
"8 	c #89A36E",
"9 	c #D6D7D4",
"0 	c #EBEBE9",
"a 	c #9E9F9C",
"b 	c #4A7AB3",
"c 	c #6F7C86",
"d 	c #D0D1CF",
"e 	c #E6E6E4",
"f 	c #C1C1C0",
"g 	c #42770C",
"h 	c #799F4A",
"i 	c #568425",
"j 	c #A8B49A",
"k 	c #D7D7D6",
"l 	c #7B7D79",
"m 	c #4373AE",
"n 	c #707473",
"o 	c #DCDCDB",
"p 	c #D9DAD7",
"q 	c #B7B7B5",
"r 	c #BBD28B",
"s 	c #9CBB6A",
"t 	c #558522",
"u 	c #839F64",
"v 	c #D4D4D2",
"w 	c #737570",
"x 	c #3C6CA9",
"y 	c #6A6E6D",
"z 	c #D4D5D3",
"A 	c #D0D1CE",
"B 	c #B5B6B4",
"C 	c #ABC674",
"D 	c #8EB058",
"E 	c #52831F",
"F 	c #8AA76C",
"G 	c #DDDDDB",
"H 	c #6D6F6B",
"I 	c #3565A4",
"J 	c #5F6B77",
"K 	c #B7B7B4",
"L 	c #CBCBC8",
"M 	c #BFBFBD",
"N 	c #628F2D",
"O 	c #588629",
"P 	c #B8C4AB",
"Q 	c #CECECB",
"R 	c #6C6E6A",
"S 	c #515250",
"T 	c #7A7B77",
"U 	c #CACAC7",
"V 	c #D3D3D1",
"W 	c #628C35",
"X 	c #8FA973",
"Y 	c #CCCDC9",
"Z 	c #BDBDBA",
"` 	c #7D7E7A",
" .	c #61635F",
"..	c #8F918D",
"+.	c #CDCECD",
"@.	c #CCCDCB",
"#.	c #BDBDBC",
"$.	c #B4B4B2",
"%.	c #B7B8B5",
"&.	c #BEBFBD",
"*.	c #5B5D59",
"=.	c #979995",
"-.	c #AAABA7",
";.	c #5A5C58",
">.	c #585A56",
". . . . . . . . . . . .         ",
". + . @ @ @ @ @ @ . + .         ",
". . . # # # # # # . . .         ",
". + . $ $ $ $ $ $ . + .         ",
". . . % % % & * = - - ;         ",
". + . > > , ' ) ! ~ ~ ! { ]     ",
". . . . . ^ / ( _ : < [ } | 1   ",
". + . 2 3 4 5 6 7 8 9 : 0 5 a   ",
". . . b c d e f g h i j k e d l ",
". + . m n o p q g r s t u v o w ",
". . . x y z A B g C D E F G z H ",
". + . I J K L M g N O P Q L K R ",
". . . . S T U V W X Y M Z U `   ",
"           ...+.@.#.$.%.&... .  ",
"            *.H =.-.-.=.H *.    ",
"                ;.>.>.;.        "};
