/* XPM */
static char *frameABL[] = {
/* columns rows colors chars-per-pixel */
"22 23 6 1",
"  c black",
". c gray25",
"X c #808080",
"o c #D4D0C8",
"O c gray100",
"+ c None",
/* pixels */
"oOoo++++++++++++++++++",
"oOoo++++++++++++++++++",
"oOoo++++++++++++++++++",
"oOoo++++++++++++++++++",
"oOoo++++++++++++++++++",
"oOoo++++++++++++++++++",
"oOoo++++++++++++++++++",
"oOoo++++++++++++++++++",
"oOoo++++++++++++++++++",
"oOoo++++++++++++++++++",
"oOoo++++++++++++++++++",
"oOoo++++++++++++++++++",
"oOoo++++++++++++++++++",
"oOoo++++++++++++++++++",
"oOoo++++++++++++++++++",
"oOoo++++++++++++++++++",
"oOoo++++++++++++++++++",
"oOoo++++++++++++++++++",
"oOoo++++++++++++++++++",
"oOoooooooooooooooooooo",
"oOoooooooooooooooooooo",
"oXXXXXXXXXXXXXXXXXXXXX",
"......................"
};
