/* XPM */
static char *frameAB[] = {
/* columns rows colors chars-per-pixel */
"16 4 3 1",
"  c gray25",
". c #808080",
"X c #D4D0C8",
/* pixels */
"XXXXXXXXXXXXXXXX",
"XXXXXXXXXXXXXXXX",
"................",
"                "
};
