/* XPM */
static char *titleAB[] = {
/* columns rows colors chars-per-pixel */
"2 19 3 1",
"  c #09246A",
". c #A6CAF0",
"X c #D4D0C8",
/* pixels */
" .",
" .",
" .",
" .",
" .",
" .",
" .",
" .",
" .",
" .",
" .",
" .",
" .",
" .",
" .",
" .",
" .",
" .",
"XX"
};
