/* XPM */
static char *titleAB[] = {
/* columns rows colors chars-per-pixel */
"2 20 19 1 ",
"  c #DDC5A7",
". c #DEC8AB",
"X c #E0CBB0",
"o c #E2CEB5",
"O c #E4D1BA",
"+ c #E6D5BF",
"@ c #E8D8C4",
"# c #EADBC9",
"$ c #ECDECE",
"% c #EEE1D2",
"& c #EFE5D7",
"* c #F1E8DC",
"= c #F3EBE1",
"- c #F5EEE6",
"; c #F7F2EB",
": c #F9F5F0",
"> c #FBF8F5",
", c #FDFBFA",
"< c #FFFFFF",
/* pixels */
"<<",
"<<",
",,",
">>",
"::",
";;",
"--",
"==",
"**",
"&&",
"%%",
"$$",
"##",
"@@",
"++",
"OO",
"oo",
"XX",
"..",
"  "
};
