/* XPM */
static char *taskbuttonbg[] = {
/* columns rows colors chars-per-pixel */
"2 24 18 1 ",
"  c #0667FB",
". c #078BFB",
"X c #0088FD",
"o c #018BFC",
"O c #048AFC",
"+ c #028FFC",
"@ c #0293FE",
"# c #0697FD",
"$ c #0497FF",
"% c #0997FF",
"& c #069CFF",
"* c #08A4FF",
"= c #01A9FF",
"- c #08ADFF",
"; c #09AEFF",
": c #00B0FE",
"> c #53CEFF",
", c #7DDBFF",
/* pixels */
",,",
">>",
";;",
"##",
"++",
"oo",
"..",
"OO",
"oo",
"oo",
"oO",
"Oo",
"oo",
"+o",
"++",
"@@",
"#$",
"&&",
"**",
"--",
"==",
"==",
"%%",
"  "
};
