/* XPM */
static char * menuButtonA_xpm[] = {
"21 42 399 2",
"  	c None",
". 	c #4AA1FE",
"+ 	c #0175FF",
"@ 	c #035CEC",
"# 	c #055BE9",
"$ 	c #3255AB",
"% 	c #77565A",
"& 	c #67465A",
"* 	c #1953C7",
"= 	c #0156E5",
"- 	c #0B53D6",
"; 	c #2849A8",
"> 	c #314DA2",
", 	c #A9885A",
"' 	c #DEBD5A",
") 	c #B6955A",
"! 	c #435495",
"~ 	c #194EBF",
"{ 	c #0053E1",
"] 	c #2548AA",
"^ 	c #0C4FCE",
"/ 	c #58557D",
"( 	c #B08F5A",
"_ 	c #B4935A",
": 	c #BC9B5A",
"< 	c #84726B",
"[ 	c #184CBC",
"} 	c #0653DF",
"| 	c #244AAF",
"1 	c #9E8260",
"2 	c #725C68",
"3 	c #C8A75A",
"4 	c #DCBB5A",
"5 	c #A5845A",
"6 	c #2948A8",
"7 	c #0051E8",
"8 	c #064FDF",
"9 	c #465393",
"0 	c #DAB95A",
"a 	c #99785A",
"b 	c #CFAE5A",
"c 	c #82615A",
"d 	c #0151E4",
"e 	c #46508E",
"f 	c #B9985A",
"g 	c #91705A",
"h 	c #38428E",
"i 	c #0153E7",
"j 	c #76545A",
"k 	c #CAA95A",
"l 	c #6E4D5A",
"m 	c #C4A750",
"n 	c #464234",
"o 	c #363530",
"p 	c #927E43",
"q 	c #DBBA59",
"r 	c #C9AB52",
"s 	c #B79C4A",
"t 	c #C6A850",
"u 	c #0053E9",
"v 	c #CBAA5A",
"w 	c #4A3F1E",
"x 	c #DFDFDF",
"y 	c #FFFFFF",
"z 	c #919191",
"A 	c #8F7B3F",
"B 	c #C1A44E",
"C 	c #746B4F",
"D 	c #646464",
"E 	c #716A53",
"F 	c #BA9E4B",
"G 	c #0055ED",
"H 	c #A7865A",
"I 	c #AC8C5A",
"J 	c #6D5D2C",
"K 	c #574A23",
"L 	c #848073",
"M 	c #F3F3F3",
"N 	c #312D20",
"O 	c #947E3C",
"P 	c #8A8A8A",
"Q 	c #9F9F9F",
"R 	c #533F34",
"S 	c #3951A1",
"T 	c #0057F1",
"U 	c #2352BE",
"V 	c #644861",
"W 	c #A7885C",
"X 	c #674C50",
"Y 	c #BFBFA9",
"Z 	c #71716D",
"` 	c #AAAAAA",
" .	c #1A1917",
"..	c #605C51",
"+.	c #EBEBEB",
"@.	c #09307E",
"#.	c #0356EC",
"$.	c #015AF4",
"%.	c #2A4BAD",
"&.	c #5D4266",
"*.	c #F2F2E1",
"=.	c #7D7D6F",
"-.	c #D0D0D0",
";.	c #444443",
">.	c #555555",
",.	c #01358F",
"'.	c #035DF9",
").	c #2D50B3",
"!.	c #B3A7A1",
"~.	c #B9B9AD",
"{.	c #818180",
"].	c #F0F0F0",
"^.	c #4A4A4A",
"/.	c #CDCDBC",
"(.	c #7E7E7B",
"_.	c #C7C7C7",
":.	c #535353",
"<.	c #023691",
"[.	c #0465FF",
"}.	c #0863F8",
"|.	c #644662",
"1.	c #877080",
"2.	c #A59DA0",
"3.	c #5A5A59",
"4.	c #4E4E4E",
"5.	c #848474",
"6.	c #ECECDA",
"7.	c #D6D6C3",
"8.	c #7B7B79",
"9.	c #414C5E",
"0.	c #0346B1",
"a.	c #0458DF",
"b.	c #046EFF",
"c.	c #046EFE",
"d.	c #0B69F1",
"e.	c #3053AC",
"f.	c #B7ACA4",
"g.	c #D5D2CB",
"h.	c #D5D5BF",
"i.	c #DADAC7",
"j.	c #ECECDB",
"k.	c #C8C1B1",
"l.	c #9C8A8E",
"m.	c #968589",
"n.	c #1758C3",
"o.	c #0466ED",
"p.	c #0072F2",
"q.	c #2958AC",
"r.	c #A28F9E",
"s.	c #70546F",
"t.	c #D0C8C5",
"u.	c #EEEEDA",
"v.	c #ECECD6",
"w.	c #9C8B8E",
"x.	c #DEDACC",
"y.	c #8B7489",
"z.	c #1764CC",
"A.	c #006BFF",
"B.	c #1261DE",
"C.	c #2755B7",
"D.	c #2B53AF",
"E.	c #6F526E",
"F.	c #C9C0BE",
"G.	c #EEEED8",
"H.	c #E6E4D5",
"I.	c #797CA7",
"J.	c #0A66ED",
"K.	c #075AFF",
"L.	c #0959FC",
"M.	c #2C4BB5",
"N.	c #6C4F6B",
"O.	c #795F73",
"P.	c #716187",
"Q.	c #1355E7",
"R.	c #0024CA",
"S.	c #0771F4",
"T.	c #0E6DE9",
"U.	c #0473F9",
"V.	c #0B6FED",
"W.	c #54426E",
"X.	c #64435D",
"Y.	c #3E5EA3",
"Z.	c #0672F7",
"`.	c #514371",
" +	c #2450B8",
".+	c #543F6C",
"++	c #2C4DAB",
"@+	c #1C53C5",
"#+	c #1A54C8",
"$+	c #8E6D5D",
"%+	c #9E7D5D",
"&+	c #344B9E",
"*+	c #745E6A",
"=+	c #1555CF",
"-+	c #0F58D8",
";+	c #065BE7",
">+	c #0655DE",
",+	c #1D4EBB",
"'+	c #0F52D0",
")+	c #1451C9",
"!+	c #3A4690",
"~+	c #85645D",
"{+	c #224DB4",
"]+	c #184FC3",
"^+	c #B9985D",
"/+	c #71505D",
"(+	c #D5B45D",
"_+	c #CFAE5D",
":+	c #46437F",
"<+	c #5D5E85",
"[+	c #414487",
"}+	c #0854DB",
"|+	c #0552DA",
"1+	c #2C48A2",
"2+	c #434282",
"3+	c #48417B",
"4+	c #4D4073",
"5+	c #BE9D5D",
"6+	c #AB8A5D",
"7+	c #967C64",
"8+	c #3D448A",
"9+	c #DFBE5D",
"0+	c #64506C",
"a+	c #8A8A82",
"b+	c #C1A05D",
"c+	c #174DC0",
"d+	c #1C4DBE",
"e+	c #7E5D5D",
"f+	c #B6955D",
"g+	c #DAB95D",
"h+	c #C5A45D",
"i+	c #C09F5D",
"j+	c #B3925D",
"k+	c #6D4C5D",
"l+	c #48427C",
"m+	c #414386",
"n+	c #0450E1",
"o+	c #3650A4",
"p+	c #AA895D",
"q+	c #D0AF5D",
"r+	c #D9B85D",
"s+	c #D3B25D",
"t+	c #C7A65D",
"u+	c #78575D",
"v+	c #1A4BC1",
"w+	c #48417C",
"x+	c #094FD8",
"y+	c #0B4FD5",
"z+	c #384897",
"A+	c #B08F5D",
"B+	c #D8B75D",
"C+	c #755B66",
"D+	c #0D50D6",
"E+	c #7B5A5D",
"F+	c #D9B95A",
"G+	c #AC9348",
"H+	c #CCAE55",
"I+	c #184DC4",
"J+	c #0851DC",
"K+	c #585783",
"L+	c #88753F",
"M+	c #5D5D5D",
"N+	c #7B6E48",
"O+	c #CBAD55",
"P+	c #D5B559",
"Q+	c #8E793B",
"R+	c #6F5350",
"S+	c #31479F",
"T+	c #234BB5",
"U+	c #174DC6",
"V+	c #75545D",
"W+	c #202020",
"X+	c #CFD7EF",
"Y+	c #8B91A3",
"Z+	c #736743",
"`+	c #D1B257",
" @	c #716339",
".@	c #808080",
"+@	c #5C6274",
"@@	c #505870",
"#@	c #4D434D",
"$@	c #826551",
"%@	c #65445D",
"&@	c #0853E0",
"*@	c #384696",
"=@	c #57413F",
"-@	c #514522",
";@	c #AEAEAE",
">@	c #D1D9F0",
",@	c #9FAFDF",
"'@	c #E5E9F6",
")@	c #404040",
"!@	c #C3A651",
"~@	c #B7C3E7",
"{@	c #606060",
"]@	c #695046",
"^@	c #63425D",
"/@	c #1252D5",
"(@	c #766672",
"_@	c #856752",
":@	c #877D77",
"<@	c #BFBFB8",
"[@	c #191919",
"}@	c #DAE0F3",
"|@	c #92A4DB",
"1@	c #E9EDF8",
"2@	c #2C2612",
"3@	c #CCCCCC",
"4@	c #5571C6",
"5@	c #28314D",
"6@	c #462D46",
"7@	c #5D3C5D",
"8@	c #015AF3",
"9@	c #1B52C9",
"0@	c #8C6B5D",
"a@	c #BEB1BA",
"b@	c #E2E1CC",
"c@	c #1B1B18",
"d@	c #E0E4EE",
"e@	c #7E94D4",
"f@	c #B6C2E7",
"g@	c #A8B6E2",
"h@	c #F4F5F7",
"i@	c #464646",
"j@	c #0A0A09",
"k@	c #F5F5F5",
"l@	c #D3DBF0",
"m@	c #8B9FD8",
"n@	c #EEF0F9",
"o@	c #595A5D",
"p@	c #0742AD",
"q@	c #0957E6",
"r@	c #0C5AE9",
"s@	c #4D4279",
"t@	c #8A746B",
"u@	c #94735D",
"v@	c #2F2B2A",
"w@	c #B0BEE5",
"x@	c #252F4C",
"y@	c #BBBBB6",
"z@	c #E7E7CF",
"A@	c #879BD7",
"B@	c #E8E8E8",
"C@	c #4E596A",
"D@	c #024AC6",
"E@	c #2257C8",
"F@	c #8A7870",
"G@	c #92715D",
"H@	c #B0A297",
"I@	c #17325D",
"J@	c #6E6E67",
"K@	c #C1C1AD",
"L@	c #F3F3E7",
"M@	c #8D93A3",
"N@	c #5C6A93",
"O@	c #57677F",
"P@	c #034BBE",
"Q@	c #3B4F9A",
"R@	c #66455D",
"S@	c #6090CB",
"T@	c #20213D",
"U@	c #274568",
"V@	c #344C65",
"W@	c #677086",
"X@	c #B1A2AC",
"Y@	c #A69796",
"Z@	c #D3D9D4",
"`@	c #0C2C62",
" #	c #2A1B2A",
".#	c #2B3A70",
"+#	c #1366E4",
"@#	c #1864CC",
"##	c #265CB5",
"$#	c #564068",
"%#	c #8C7680",
"&#	c #54426C",
"*#	c #446FB3",
"=#	c #4979BB",
"-#	c #4F4474",
";#	c #5795D4",
">#	c #3355A1",
",#	c #0E6ADB",
"'#	c #1660D8",
")#	c #1A5ED3",
"!#	c #2A56B5",
"~#	c #54416E",
"{#	c #2F53AE",
"]#	c #7E93B6",
"^#	c #4273C7",
"/#	c #A7A8A9",
"(#	c #3E4B92",
"_#	c #1361DE",
":#	c #0A59F9",
"<#	c #1356E9",
"[#	c #324BAE",
"}#	c #644C6E",
"|#	c #594471",
"1#	c #6B506B",
"2#	c #1156EC",
". . . . . . . . . . . . . . . . . . . . . ",
"+ + + + + + + + + + + + + + + + + + + + + ",
"@ @ @ @ @ @ @ @ # $ % % % % & * @ @ @ @ @ ",
"= = = = = - ; ; > , ' ' ' ' ) ! ; ~ = = = ",
"{ { { ] ^ / ( ( _ ' ' ' ' ' ' : ( < [ { { ",
"} } | 1 2 3 ' ' ' ' ' ' ' ' ' ' 4 5 6 } } ",
"7 8 9 : 0 a ' ' ' ' ' ' ' ' ' ' b c 9 8 7 ",
"d e f ' ' ' ' ' ' ' ' ' ' ' ' ' ' ' g h d ",
"i j ' ' ' ' ' ' ' ' ' ' ' ' ' ' ' ' k l i ",
"i j ' ' ' ' ' m n o o p q ' r s s t ' j i ",
"u j 3 v ' ' ' w x y y z A B C D D E F j u ",
"G j H I J K K L M y y y N O P y y Q R S G ",
"T U V W X Y Z ` y y y y  ...+.y y Q @.#.T ",
"$.$.$.%.&.*.=.` y y y -.;.>.y y y Q ,.$.$.",
"'.'.'.'.).!.~.{.].y y ^./.(._.y +.:.<.'.'.",
"[.[.[.[.}.|.1.2.3.4.4.5.6.7.8.4.9.0.a.[.[.",
"b.b.b.b.c.d.e.f.g.h.i.j.k.l.m.n.o.b.b.b.b.",
"p.p.p.p.p.p.q.r.s.t.u.v.w.x.y.z.p.p.p.p.p.",
"A.A.A.A.A.A.B.C.D.E.F.G.H.I.C.J.A.A.A.A.A.",
"K.K.K.K.K.K.K.K.L.M.N.O.P.Q.K.K.K.K.K.K.K.",
"R.R.R.R.R.R.R.R.R.R.R.R.R.R.R.R.R.R.R.R.R.",
". . . . . . . . . . . . . . . . . . . . . ",
"+ + + S.T.U.+ V.W.X.Y.Z.+ `.`.+ + + + + + ",
"@ @ @  +.+++@+@ #+$+%+&+@+*+*+=+@ -+@+@+;+",
">+,+'+)+!+~+X.{+]+$+^+/+~+(+_+:+'+<+/+[+}+",
"|+1+2+3+4+5+6+7+8+$+9+$+5+9+_+0+a+b+$+c+{ ",
"} d+e+f+e+5+9+g+f+h+9+h+(+9+g+i+9+j+k+l+m+",
"7 n+o+p+q+r+9+9+9+9+9+9+9+9+9+9+9+s+t+u+v+",
"w+x+y+z+A+9+9+9+9+9+9+9+9+9+9+9+9+9+B+C+y+",
"D+X.E+E+^+9+9+F+G+G+G+H+9+9+9+9+9+9+$+I+i ",
"J+K+b+9+9+9+9+L+M+M+M+N+O+9+P+Q+Q+Q+R+S+T+",
"u U+V+5+9+9+9+W+y y X+Y+Z+`+ @.@+@@@#@$@%@",
"G &@*@=@-@-@-@;@y >@,@'@)@!@W+y ~@,@{@]@^@",
"T /@(@_@:@<@[@y }@|@1@y )@2@3@y ~@4@5@6@7@",
"8@9@0@%+a@b@c@d@e@f@g@h@i@j@k@l@m@n@o@p@q@",
"r@s@s@t@u@^@v@W+y y w@x@y@z@W+X+A@B@C@D@'.",
"[.[.[.E@F@G@H@I@;@;@;@J@K@L@M+M@N@O@P@[.[.",
"b.b.b.b.Q@G@R@S@T@U@V@W@X@Y@Z@`@ #.#+#b.b.",
"p.p.p.p.@###$#%#&#*#=#-#7@7@;#>#####,#p.p.",
"A.A.A.A.A.A.'#)#!#~#{#]#^#/#(#_#A.A.A.A.A.",
"K.K.K.K.K.K.K.K.:#<#[#}#|#1#2#K.K.K.K.K.K.",
"R.R.R.R.R.R.R.R.R.R.R.R.R.R.R.R.R.R.R.R.R."};
