/* XPM */
static char * tn5250_32x32_xpm[] = {
"32 32 253 2",
"  	c None",
". 	c #828282",
"+ 	c #FEFAF1",
"@ 	c #020202",
"# 	c #F9F6EB",
"$ 	c #880B0B",
"% 	c #8D1414",
"& 	c #911C1C",
"* 	c #952424",
"= 	c #992D2D",
"- 	c #9D3535",
"; 	c #A13D3D",
"> 	c #A54646",
", 	c #A94E4E",
"' 	c #AD5656",
") 	c #B15E5E",
"! 	c #B56767",
"~ 	c #B96F6F",
"{ 	c #BD7777",
"] 	c #C18080",
"^ 	c #C58888",
"/ 	c #C99090",
"( 	c #CD9898",
"_ 	c #D1A1A1",
": 	c #F2EEE4",
"< 	c #8B1212",
"[ 	c #8F1A1A",
"} 	c #942222",
"| 	c #982A2A",
"1 	c #9C3333",
"2 	c #A03B3B",
"3 	c #A44343",
"4 	c #A84C4C",
"5 	c #AC5454",
"6 	c #B05C5C",
"7 	c #B46464",
"8 	c #B86D6D",
"9 	c #BC7575",
"0 	c #C07D7D",
"a 	c #C48686",
"b 	c #C88E8E",
"c 	c #CC9696",
"d 	c #D09F9F",
"e 	c #D4A7A7",
"f 	c #ECE8DF",
"g 	c #F6F2E7",
"h 	c #8E1818",
"i 	c #922020",
"j 	c #962828",
"k 	c #9B3131",
"l 	c #9F3939",
"m 	c #A34141",
"n 	c #A74949",
"o 	c #AB5252",
"p 	c #AF5A5A",
"q 	c #B36262",
"r 	c #B76B6B",
"s 	c #BB7373",
"t 	c #BF7B7B",
"u 	c #C38383",
"v 	c #C78C8C",
"w 	c #CB9494",
"x 	c #CF9C9C",
"y 	c #D3A5A5",
"z 	c #D7ADAD",
"A 	c #E4E0D8",
"B 	c #DEDED6",
"C 	c #911E1E",
"D 	c #952626",
"E 	c #992E2E",
"F 	c #9D3737",
"G 	c #A13F3F",
"H 	c #A64747",
"I 	c #AA5050",
"J 	c #AE5858",
"K 	c #B26060",
"L 	c #B66868",
"M 	c #BA7171",
"N 	c #BE7979",
"O 	c #C28181",
"P 	c #C68A8A",
"Q 	c #CA9292",
"R 	c #CE9A9A",
"S 	c #D2A2A2",
"T 	c #D6ABAB",
"U 	c #DAB3B3",
"V 	c #DDD9D1",
"W 	c #942424",
"X 	c #982C2C",
"Y 	c #9C3535",
"Z 	c #A03D3D",
"` 	c #A44545",
" .	c #A84D4D",
"..	c #B56666",
"+.	c #C17F7F",
"@.	c #C58787",
"#.	c #D1A0A0",
"$.	c #D5A9A9",
"%.	c #D9B1B1",
"&.	c #DDB9B9",
"*.	c #D6D6CE",
"=.	c #D5D2CA",
"-.	c #972A2A",
";.	c #9B3232",
">.	c #9F3B3B",
",.	c #A34343",
"'.	c #A74B4B",
").	c #AB5353",
"!.	c #AF5C5C",
"~.	c #B86C6C",
"{.	c #C48585",
"].	c #D09E9E",
"^.	c #D4A6A6",
"/.	c #D8AFAF",
"(.	c #DCB7B7",
"_.	c #E0BFBF",
":.	c #D1CEC8",
"<.	c #CBC9C2",
"[.	c #9A3030",
"}.	c #9E3838",
"|.	c #A24141",
"1.	c #A64949",
"2.	c #AA5151",
"3.	c #AE5A5A",
"4.	c #B26262",
"5.	c #B66A6A",
"6.	c #BA7272",
"7.	c #C78B8B",
"8.	c #D3A4A4",
"9.	c #D7ACAC",
"0.	c #DBB5B5",
"a.	c #DFBDBD",
"b.	c #E3C5C5",
"c.	c #C4C1BC",
"d.	c #9D3636",
"e.	c #A54747",
"f.	c #A94F4F",
"g.	c #AD5757",
"h.	c #B16060",
"i.	c #B56868",
"j.	c #B97070",
"k.	c #BD7979",
"l.	c #C18181",
"m.	c #C68989",
"n.	c #CA9191",
"o.	c #D6AAAA",
"p.	c #DEBBBB",
"q.	c #E2C3C3",
"r.	c #E6CBCB",
"s.	c #BEBEBA",
"t.	c #A03C3C",
"u.	c #AC5555",
"v.	c #B05E5E",
"w.	c #B46666",
"x.	c #B86E6E",
"y.	c #BC7676",
"z.	c #C07F7F",
"A.	c #C48787",
"B.	c #C88F8F",
"C.	c #D5A8A8",
"D.	c #D9B0B0",
"E.	c #E1C1C1",
"F.	c #E5C9C9",
"G.	c #E9D2D2",
"H.	c #BDBBB6",
"I.	c #B6B5B0",
"J.	c #A34242",
"K.	c #AF5B5B",
"L.	c #B36464",
"M.	c #B76C6C",
"N.	c #BB7474",
"O.	c #BF7C7C",
"P.	c #C38585",
"Q.	c #C78D8D",
"R.	c #CB9595",
"S.	c #CF9E9E",
"T.	c #D3A6A6",
"U.	c #D8AEAE",
"V.	c #E4C7C7",
"W.	c #E8CFCF",
"X.	c #ECD8D8",
"Y.	c #ADACA8",
"Z.	c #AE5959",
"`.	c #B26161",
" +	c #BE7A7A",
".+	c #C28383",
"++	c #C68B8B",
"@+	c #CA9393",
"#+	c #CE9B9B",
"$+	c #D2A4A4",
"%+	c #D6ACAC",
"&+	c #DAB4B4",
"*+	c #E7CDCD",
"=+	c #EBD5D5",
"-+	c #EFDEDE",
";+	c #B15F5F",
">+	c #BD7878",
",+	c #C58989",
"'+	c #C99191",
")+	c #CD9999",
"!+	c #D1A2A2",
"~+	c #D5AAAA",
"{+	c #D9B2B2",
"]+	c #DDBABA",
"^+	c #E1C3C3",
"/+	c #EAD3D3",
"(+	c #EEDCDC",
"_+	c #F2E4E4",
":+	c #A8A6A3",
"<+	c #A1A09E",
"[+	c #B05D5D",
"}+	c #B46565",
"|+	c #C07E7E",
"1+	c #CC9797",
"2+	c #D4A8A8",
"3+	c #D8B0B0",
"4+	c #DCB8B8",
"5+	c #E0C1C1",
"6+	c #E4C9C9",
"7+	c #E8D1D1",
"8+	c #ECD9D9",
"9+	c #F1E2E2",
"0+	c #F5EAEA",
"a+	c #999896",
"b+	c #B36363",
"c+	c #C38484",
"d+	c #CF9D9D",
"e+	c #D7AEAE",
"f+	c #DBB6B6",
"g+	c #DFBEBE",
"h+	c #E3C7C7",
"i+	c #E7CFCF",
"j+	c #EBD7D7",
"k+	c #EFE0E0",
"l+	c #F3E8E8",
"m+	c #F8F0F0",
"n+	c #A6A2A2",
"o+	c #8F8F8F",
"p+	c #8A8A87",
"q+	c #6A6A6A",
"r+	c #757575",
"s+	c #7A7A7A",
"t+	c #7E7E7E",
"u+	c #626262",
"v+	c #565656",
"w+	c #4C4C4C",
"x+	c #424242",
"y+	c #5E5E5E",
"z+	c #363636",
"A+	c #2E2E2E",
"B+	c #222222",
"C+	c #161616",
"D+	c #0A0A0A",
"        . . . . . . . . . . . . . . . . . . . . . . .           ",
"      . + + + + + + + + + + + + + + + + + + + + + + + @         ",
"      . + + + + + + + + + + + + + + + + # # # # # # # @         ",
"      . # # $ % & * = - ; > , ' ) ! ~ { ] ^ / ( _ : : @         ",
"      . # # < [ } | 1 2 3 4 5 6 7 8 9 0 a b c d e f f @         ",
"      . g g h i j k l m n o p q r s t u v w x y z A B @         ",
"      . g g C D E F G H I J K L M N O P Q R S T U V V @         ",
"      . : g W X Y Z `  .' ) ..~ { +.@./ ( #.$.%.&.*.=.@         ",
"      . : : -.;.>.,.'.).!.7 ~.9 0 {.b c ].^./.(._.:.<.@         ",
"      . f : [.}.|.1.2.3.4.5.6.t u 7.w x 8.9.0.a.b.<.c.@         ",
"      . f f d.G e.f.g.h.i.j.k.l.m.n.R S o.U p.q.r.c.s.@         ",
"      . f f t.`  .u.v.w.x.y.z.A.B.( #.C.D.&.E.F.G.H.I.@         ",
"      . f f J.'.).K.L.M.N.O.P.Q.R.S.T.U.(._.V.W.X.I.Y.@         ",
"      . f A 1.2.Z.`.5.6. +.+++@+#+$+%+&+a.b.*+=+-+Y.Y.@         ",
"      . A A f.g.;+i.j.>+] ,+'+)+!+~+{+]+^+r./+(+_+:+<+@         ",
"      . A B u.[+}+x.y.|+A.B.1+d 2+3+4+5+6+7+8+9+0+<+a+@         ",
"      . B B K.b+r N.O.c+Q.R.d+T.e+f+g+h+i+j+k+l+m+a+a+@         ",
"      . B V *.*.=.:.:.<.<.c.c.s.H.I.I.Y.:+n+<+a+a+o+o+@         ",
"      . V *.*.*.<.<.<.c.s.H.H.I.I.Y.Y.n+<+a+a+o+o+p+p+@         ",
"      . V *.=.*.<.<.c.s.H.I.I.Y.Y.:+<+<+a+a+a+p+p+. . @         ",
"        @ @ @ @ @ @ @ @ @ @ @ @ @ @ @ @ @ @ @ @ @ @ @           ",
"                . . . . . . . . . . . . . . @                   ",
"                . q+r+r+r+s+t+. r+q+u+v+w+x+@                   ",
"                . y+v+w+x+x+z+A+B+B+C+D+@ @ @                   ",
"          . . . @ @ @ @ @ @ @ @ @ @ @ @ @ @ @ @ @ @             ",
"        . + + + + + + + + + + + + + + + + + + + + + @           ",
"      . : : @ g @ g @ # @ + @ + @ g @ f @ B V @ =.@ <.@         ",
"    . f : @ : @ g @ # @ # @ + @ # @ : @ A @ V *.@ <.@ c.@       ",
"  . V *.@ :.@ <.<.c.@ H.I.I.I.Y.Y.:+<+<+@ a+a+@ o+@ p+. . @     ",
". . . . . . . . . . . . . . . . . . . . . . . . . . . . . . @   ",
". r+r+s+s+s+s+s+s+t+t+t+t+t+t+. t+s+s+r+r+r+r+q+q+q+u+u+u+u+@   ",
"  @ @ @ @ @ @ @ @ @ @ @ @ @ @ @ @ @ @ @ @ @ @ @ @ @ @ @ @ @     "};
