/* XPM */
static char *frameAR[] = {
/* columns rows colors chars-per-pixel */
"4 16 3 1",
"  c gray25",
". c #808080",
"X c #D4D0C8",
/* pixels */
"XX. ",
"XX. ",
"XX. ",
"XX. ",
"XX. ",
"XX. ",
"XX. ",
"XX. ",
"XX. ",
"XX. ",
"XX. ",
"XX. ",
"XX. ",
"XX. ",
"XX. ",
"XX. "
};
