/* XPM */
static char *closeI[] = {
/* columns rows colors chars-per-pixel */
"24 52 256 2",
"   c #364c77",
".  c #364d78",
"X  c #384c78",
"o  c #38537f",
"O  c #6b3f33",
"+  c #6c443a",
"@  c #714336",
"#  c #734539",
"$  c #74493d",
"%  c #7c5637",
"&  c #7e5b3c",
"*  c #795535",
"=  c #734c41",
"-  c #784e43",
";  c #785146",
":  c #785248",
">  c #7c5d44",
",  c #755656",
"<  c #7c5f58",
"1  c #394f87",
"2  c #324e93",
"3  c #3a5682",
"4  c #3d5a85",
"5  c #3f5d8b",
"6  c #335295",
"7  c #365b9c",
"8  c #3c639d",
"9  c #3b66a2",
"0  c #3963ab",
"q  c #3e69a4",
"w  c #3e6aaa",
"e  c #3b66b1",
"r  c #3c6ab3",
"t  c #3e6eba",
"y  c #3e70ba",
"u  c #405c88",
"i  c #455794",
"p  c #465892",
"a  c #465d9a",
"s  c #495b95",
"d  c #4b5f98",
"f  c #425aa0",
"g  c #405ca8",
"h  c #466197",
"j  c #4266ae",
"k  c #416fad",
"l  c #4866a3",
"z  c #4662a4",
"x  c #406db8",
"c  c #4275bd",
"v  c #4377c0",
"b  c #824a3e",
"n  c #815d3a",
"m  c #8a5b3d",
"M  c #934e3b",
"N  c #96513c",
"B  c #995e3b",
"V  c #99543e",
"C  c #82613e",
"Z  c #9d623d",
"A  c #a6563e",
"S  c #a9663d",
"D  c #815f42",
"F  c #8d5b57",
"G  c #9b5641",
"H  c #9e5d49",
"J  c #985948",
"K  c #826143",
"L  c #846b54",
"P  c #8b735d",
"I  c #9f6540",
"U  c #9c604e",
"Y  c #9b6a48",
"T  c #9c6152",
"R  c #9f6658",
"E  c #986857",
"W  c #9d735d",
"Q  c #9e7a5a",
"!  c #886667",
"~  c #976864",
"^  c #986460",
"/  c #996b63",
"(  c #9e6f6b",
")  c #936f71",
"_  c #9c7a6d",
"`  c #937167",
"'  c #977971",
"]  c #a95c43",
"[  c #a95f4c",
"{  c #a0614e",
"}  c #a16944",
"|  c #a16d4b",
" . c #ab6343",
".. c #ac634c",
"X. c #ac6b43",
"o. c #ad6e48",
"O. c #a06641",
"+. c #a26454",
"@. c #a26658",
"#. c #a26b5c",
"$. c #ac6751",
"%. c #aa6a56",
"&. c #ad6d5b",
"*. c #a3724e",
"=. c #ad734b",
"-. c #ad784c",
";. c #a57354",
":. c #a6745c",
">. c #a57c5b",
",. c #ac7652",
"<. c #af745f",
"1. c #af7952",
"2. c #ac7c5b",
"3. c #a57b57",
"4. c #b1664e",
"5. c #b16751",
"6. c #b26954",
"7. c #b26e5c",
"8. c #b2734d",
"9. c #b3784c",
"0. c #b37551",
"q. c #b47a54",
"w. c #b37c5a",
"e. c #b9735e",
"r. c #b97e5b",
"t. c #b77658",
"y. c #a16f61",
"u. c #a47162",
"i. c #a1736c",
"p. c #a37b63",
"a. c #a57c6a",
"s. c #af7161",
"d. c #ae7669",
"f. c #ac7a6d",
"g. c #a27672",
"h. c #a67c7a",
"j. c #a87e72",
"k. c #b47464",
"l. c #b47b6d",
"z. c #b97563",
"x. c #bb7b65",
"c. c #bc7b6a",
"v. c #b57a67",
"b. c #b47e70",
"n. c #c17f6e",
"m. c #bebe3f",
"M. c #9a8268",
"N. c #9f8c70",
"B. c #9a827a",
"V. c #ab8059",
"C. c #b6815e",
"Z. c #ba805d",
"A. c #a18267",
"S. c #a4816a",
"D. c #aa8465",
"F. c #a9856c",
"G. c #ad8a6d",
"H. c #a4847e",
"J. c #a98572",
"K. c #ab837c",
"L. c #ac8c74",
"P. c #ac8b7a",
"I. c #a58c72",
"U. c #af907c",
"Y. c #b38363",
"T. c #b48768",
"R. c #b5896b",
"E. c #bb8463",
"W. c #bc8a6c",
"Q. c #b18a64",
"!. c #b48073",
"~. c #b0897b",
"^. c #ba8274",
"/. c #ba867a",
"(. c #bb8e70",
"). c #b18975",
"_. c #b4957c",
"`. c #b89277",
"'. c #c08766",
"]. c #c18c6c",
"[. c #c28374",
"{. c #c28779",
"}. c #c4897c",
"|. c #c88c7e",
" X c #c49273",
".X c #c39679",
"XX c #c1987c",
"oX c #c99677",
"OX c #c89678",
"+X c #ca9b7c",
"@X c #8a91b4",
"#X c #ad8a83",
"$X c #ad8b8b",
"%X c #aa8482",
"&X c #b48d84",
"*X c #bf8d83",
"=X c #bf9d81",
"-X c #b39887",
";X c #b19393",
":X c #b59999",
">X c #baa797",
",X c #baa4a5",
"<X c #8896c1",
"1X c #899bc4",
"2X c #8f9cc9",
"3X c #909cc8",
"4X c #919cc1",
"5X c #8ca1d0",
"6X c #c68e81",
"7X c #c49185",
"8X c #c0988d",
"9X c #cb9285",
"0X c #cc9689",
"qX c #cf9a8d",
"wX c #c09d81",
"eX c #c39d93",
"rX c #d19d91",
"tX c #cda285",
"yX c #cfa689",
"uX c #c5a488",
"iX c #cea69b",
"pX c #d5ac8f",
"aX c #d2a195",
"sX c #d9aa9d",
"dX c #d2ae91",
"fX c #d9b58f",
"gX c #dcb49b",
"hX c #d8b397",
"jX c #d6aba0",
"kX c #d9aea3",
"lX c #dcb1a7",
"zX c #dfb4a9",
"xX c #dfbfa1",
"cX c #e2b8ad",
"vX c #e1c3a7",
"bX c #e6c0b6",
"nX c #e8c4ba",
"mX c #e4d0b8",
"MX c #ebd4cd",
"NX c #e6daea",
"BX c #e3dbf1",
"VX c #f1e5d7",
"CX c #efe7f7",
"ZX c #efeaf8",
"AX c #e1eaf5",
"SX c #f6ede4",
"DX c #f7efe8",
"FX c #f0eaf8",
"GX c #f7f0e7",
"HX c #f7f1e8",
"JX c #f8f2ec",
"KX c #f5fafb",
"LX c #faf5f1",
"PX c #fbf5fb",
"IX c #fbf8f5",
"UX c #fbfafd",
/* pixels */
"c c c r k q q 8 8 9 9 q q 9 9 9 9 8 q 9 8 9 0 0 ",
"y k r q 8 h 5 5 5 5 4 4 4 4 4 4 3 3 3 3 3 1 2 7 ",
"w r w 8 1XAXKXKXUXKXUXUXUXUXUXUXUXUXUXUXUXKX<X1 ",
"0 0 e 1XZX,X:X$X%X%X%XK.h.h.h.h.g.g.i.( ~ ) NX@X",
"0 0 0 KX,XkXlXsXrXqX9X9X|.|.|.}.|.[.n.x.7.T ! ZX",
"0 0 0 KX:XzXzXjXrXqX0X0X9X9X9X9X}.[.[.c.k.R = PX",
"0 0 0 KX;XkXkXiXeX:X7X7X}.{.^.b.^.l.l.k.7.@.- PX",
"0 0 0 UX$XaXiXuXMXJX&X/.c.c.c.d._ SXbXu.s.@.: PX",
"0 0 0 LX%XqXrX8XJXLXJXh.b.l.d.i.DXJXVXy.&.@.: PX",
"0 0 0 KX%X9X0X7X&XJXIXJXj.a._ DXJXDXy.&.7.@.: PX",
"0 0 0 PX%X6X6X6X6X#XJXLXSX' JXJXDX/ %.6.7.+.: PX",
"0 e e PXh.}.6X6X{./.~.DXLXIXIXJX#.&.5.5.6.T - PX",
"e e e UXh.[.}.}.{./.K.H.IXIXIX' u.6.4.5.5.+.- PX",
"e e e UXg.c.{.}.{./.%XJXIXIXIXLXu.&.6.4.$.H - PX",
"t t e PXg.c.[.{./.~.JXLXHXB.LXJXVXu.$.6...[ $ PX",
"t t t UX( z.c./.%XJXIXDXJ.l.a.SXJXSXW .. .H $ KX",
"t t t PX~ e.c.b.GXLXHXK.l.x.v.a.HXGXVX..] G # PX",
"t t t PX^ 7.z.l.nXVX!.l.x.x.z.<.u.VXgX..] V @ PX",
"v v v PX^ 5.7.k.f.f.v.z.z.z.t.7.%.%.$...] N @ PX",
"v y v PXF [ $.&.&.k.7.7.7.7.6.6.$...] ] A M O PX",
"v v v AX! F J U T T T T U U U H H G G V M b , UX",
"v y v 5XNXF = = = = = $ - $ $ $ # # @ @ O , BX3X",
"c v y l 4XUXPXUXPXPXPXPXPXPXPXPXUXPXPXPXPXFX3Xa ",
"t x t j z a h s s d d d d s p s h s s s i i f g ",
"7 7 8 6 6 6 6 6 6 6 7 2 6 7 6 6 7 6 2 6 2 2 2 2 ",
"        . .       .         X X         X       ",
"c c c r k k q 8 9 9 9 q q 9 9 9 9 9 9 9 8 8 0 w ",
"x r k k 8 8 5 4 4 4 4 4 3 4 4 3 3 3 3 3 3 1 6 7 ",
"r r w 8 1Xm.m.m.m.m.m.m.m.m.m.m.m.m.m.m.m.m.<X1 ",
"0 0 0 1Xm.>X-X_.#XL.L.L.J.J.F.).S.S.p.p.Q _ m.@X",
"0 0 0 m.,XhXhXfXtX+XOX+XoXoX X].].].'.E.t.R P m.",
"0 0 w m.-XhXgXdXyXtX+X+XOXoXoXoX X].'.E.r.;.> m.",
"0 0 0 m.-XpXdXyX=X=XXX.X X XW.W.T.T.Y.Y.w.;.D m.",
"0 0 0 m.&XtXyXuXmXm._.(.T.E.Z.D.A.m.xX2.2.;.K m.",
"0 0 0 m._.+XtXwXm.m.m.L.T.Y.Y.p.m.m.m.2.w.;.K m.",
"0 9 0 m.P.+X+XXX_.m.m.m.D.D.A.m.m.m.:.q.q.;.D m.",
"0 0 0 m.P..X.X.X`.`.m.m.m.A.m.m.m.Q ,.0.q.;.D m.",
"0 0 e m.F. X X.X.X(.L.m.m.m.m.m.>.1.,.8.9.;.D m.",
"e e e m.F.]. X X XW.L.I.m.m.m.M.2.q.8.8.0.| D m.",
"e e e m.S.W.].]. X(.L.m.m.m.m.m.V.9.9.9.8.*.D m.",
"r r r m.a.E.].].(.L.m.m.m.N.m.m.m.>.1.9.=.} n m.",
"t t t m.p.r.W.W.L.m.m.m.G.Q.D.m.m.m.3.-.=.} n m.",
"t t t m.u.r.E.R.m.m.m.G.W.Z.C.D.m.m.m.=.X.O.n m.",
"t t t m.W 0.r.Y.vXm.R.T.Z.Z.Z.V.V.m.fX=.X.Z % m.",
"v v v m.W =.q.Y.D.Y.Y.Z.Z.Z.q.q.q.=.=.o.S B % m.",
"y v y m.E =.0.q.w.w.w.r.Z.q.9.9.8.o.o.X.S B * m.",
"v v v m.` Y Y *.*.*.| | | | | | } } O.Z B m < m.",
"y v v 5Xm.L & K & K C K C C C C n n n n % L m.3X",
"v v v z 4Xm.m.m.m.m.m.m.m.m.m.m.m.m.m.m.m.m.3Xd ",
"x r t j z a d s a d d d d s p s h s i s p i f g ",
"7 7 7 6 7 6 6 6 6 6 6 2 2 7 2 2 6 6 6 6 2 2 2 2 ",
"X X . .         X X X   X X X X X X X X X X X X "
};
