/* XPM */
static char * closeO_xpm[] = {
"24 52 721 2",
"  	c None",
". 	c #0971F4",
"+ 	c #0566E9",
"@ 	c #0B67E4",
"# 	c #0B65DD",
"$ 	c #0B61D8",
"% 	c #095FD6",
"& 	c #075CD3",
"* 	c #0A5FD6",
"= 	c #085DD4",
"- 	c #0C61D8",
"; 	c #095ED5",
"> 	c #0A5FD4",
", 	c #085DD2",
"' 	c #0558D2",
") 	c #0559D6",
"! 	c #0258DF",
"~ 	c #045BE6",
"{ 	c #0465F0",
"] 	c #085FE0",
"^ 	c #105CCC",
"/ 	c #175BBE",
"( 	c #1956B1",
"_ 	c #1955AB",
": 	c #1C55AC",
"< 	c #1B53AA",
"[ 	c #1C54AB",
"} 	c #1A52A9",
"| 	c #1951A8",
"1 	c #1850A7",
"2 	c #174FA4",
"3 	c #184EA6",
"4 	c #174DA5",
"5 	c #154BA3",
"6 	c #1249AD",
"7 	c #0748C0",
"8 	c #0248CE",
"9 	c #005CEB",
"0 	c #1355C6",
"a 	c #6B91E4",
"b 	c #D6EBFF",
"c 	c #F0FDFF",
"d 	c #F4FCFF",
"e 	c #F5FBFF",
"f 	c #F7FBFF",
"g 	c #F8FAFF",
"h 	c #F9FAFF",
"i 	c #FBF9FF",
"j 	c #FBFAFF",
"k 	c #FCF9FF",
"l 	c #FEF8FF",
"m 	c #F5FAFF",
"n 	c #6C87DE",
"o 	c #133EAE",
"p 	c #0058E6",
"q 	c #6C8FE1",
"r 	c #FEFBFF",
"s 	c #F1D5DA",
"t 	c #EFC7CA",
"u 	c #EEBEBE",
"v 	c #EEB6B6",
"w 	c #EEB2AF",
"x 	c #ECAEAA",
"y 	c #EEAEA9",
"z 	c #EDAAA6",
"A 	c #EDA9A4",
"B 	c #EDA7A2",
"C 	c #EEA6A0",
"D 	c #EBA097",
"E 	c #ED9E97",
"F 	c #EC9C92",
"G 	c #EB948A",
"H 	c #E78B80",
"I 	c #DF999E",
"J 	c #FEF7FE",
"K 	c #7683C9",
"L 	c #0056E4",
"M 	c #EDFDFF",
"N 	c #F3D5DC",
"O 	c #FEDDCC",
"P 	c #FFDDCB",
"Q 	c #FFD5BF",
"R 	c #FEC9B0",
"S 	c #FEC4A7",
"T 	c #FEBFA1",
"U 	c #FEBD9E",
"V 	c #FEBA99",
"W 	c #FEB693",
"X 	c #FEB593",
"Y 	c #FEB28C",
"Z 	c #FEAF87",
"` 	c #FEA980",
" .	c #FDA377",
"..	c #FD9B6B",
"+.	c #FB8F5D",
"@.	c #ED815D",
"#.	c #D0908E",
"$.	c #EEE3FF",
"%.	c #0054E3",
"&.	c #F2FCFF",
"*.	c #F1CACB",
"=.	c #FFDFCD",
"-.	c #FFE1D1",
";.	c #FED9C5",
">.	c #FECFB8",
",.	c #FEC8AF",
"'.	c #FEC3A7",
").	c #FEBFA3",
"!.	c #FEBC9E",
"~.	c #FEBB9C",
"{.	c #FEB99B",
"].	c #FEB494",
"^.	c #FEB18B",
"/.	c #FDAB83",
"(.	c #FDA67C",
"_.	c #FD9E71",
":.	c #FC9362",
"<.	c #F1875F",
"[.	c #C76E59",
"}.	c #FFF4FF",
"|.	c #0055E4",
"1.	c #F6FAFF",
"2.	c #EFC0C0",
"3.	c #FFD7C1",
"4.	c #FFDBC7",
"5.	c #FDD5C2",
"6.	c #FACEBB",
"7.	c #FAC8B3",
"8.	c #FBC0A8",
"9.	c #FCBA9E",
"0.	c #FCB494",
"a.	c #FDAF8C",
"b.	c #FCAB8A",
"c.	c #FBA987",
"d.	c #F9AB8B",
"e.	c #F7A784",
"f.	c #F9A27F",
"g.	c #FA9C71",
"h.	c #FA8F5F",
"i.	c #F2875D",
"j.	c #CE7152",
"k.	c #FFF2FF",
"l.	c #F0BBBB",
"m.	c #FECCB3",
"n.	c #FED0B9",
"o.	c #FFF5EF",
"p.	c #FFFEFD",
"q.	c #F4BCA9",
"r.	c #F9B196",
"s.	c #FBA984",
"t.	c #FCA277",
"u.	c #FB9C71",
"v.	c #F79E7A",
"w.	c #EAA890",
"x.	c #FFFEFA",
"y.	c #FFE8DA",
"z.	c #F39976",
"A.	c #F89062",
"B.	c #F38A61",
"C.	c #D07657",
"D.	c #FFF3FF",
"E.	c #F9F9FF",
"F.	c #EFB5B4",
"G.	c #FEC7AE",
"H.	c #FFFFFE",
"I.	c #FFFEFC",
"J.	c #F2B39D",
"K.	c #F8A884",
"L.	c #F9A077",
"M.	c #F79E79",
"N.	c #EEA084",
"O.	c #FFFDF7",
"P.	c #F4976E",
"Q.	c #F88E5F",
"R.	c #F3885C",
"S.	c #EFB0AE",
"T.	c #FEBEA0",
"U.	c #FEC2A6",
"V.	c #FBC1A7",
"W.	c #F6C1AE",
"X.	c #FFFFFD",
"Y.	c #F1AE90",
"Z.	c #F2A686",
"`.	c #E8A993",
" +	c #F29268",
".+	c #F98B57",
"++	c #FA8B55",
"@+	c #D07455",
"#+	c #0055E6",
"$+	c #EFB0AB",
"%+	c #FEB897",
"&+	c #FDBB9C",
"*+	c #FDBCA1",
"=+	c #FABAA2",
"-+	c #F3BAA8",
";+	c #E7AD99",
">+	c #FFFEFB",
",+	c #E99977",
"'+	c #F78A55",
")+	c #FB8345",
"!+	c #FB874F",
"~+	c #F48759",
"{+	c #D07654",
"]+	c #0056E9",
"^+	c #FAF8FF",
"/+	c #FEB28F",
"(+	c #FDB697",
"_+	c #FCB296",
":+	c #F9B398",
"<+	c #F2B6A0",
"[+	c #F09971",
"}+	c #F88E57",
"|+	c #FA8443",
"1+	c #FC833F",
"2+	c #FB8646",
"3+	c #F48450",
"4+	c #D07150",
"5+	c #0057EC",
"6+	c #FCF8FF",
"7+	c #EDA19E",
"8+	c #FDAA84",
"9+	c #FDB08F",
"0+	c #FDB293",
"a+	c #FDB090",
"b+	c #FBB192",
"c+	c #F4B39C",
"d+	c #E9B9A7",
"e+	c #FFFFFF",
"f+	c #E0AD9B",
"g+	c #F4986A",
"h+	c #FB8A48",
"i+	c #FC843C",
"j+	c #FC833C",
"k+	c #FB8441",
"l+	c #F4844D",
"m+	c #D0704D",
"n+	c #0059EE",
"o+	c #EC9D98",
"p+	c #FDA67D",
"q+	c #FDAE8A",
"r+	c #FDAF8E",
"s+	c #FDB08B",
"t+	c #F9B496",
"u+	c #EDBCA9",
"v+	c #EFA076",
"w+	c #F99052",
"x+	c #FB873E",
"y+	c #FC8335",
"z+	c #FB833A",
"A+	c #F48045",
"B+	c #D16E48",
"C+	c #005BF2",
"D+	c #EC9790",
"E+	c #FDA881",
"F+	c #FCB08F",
"G+	c #FAB393",
"H+	c #F4B9A1",
"I+	c #E3BBA9",
"J+	c #FFFCF6",
"K+	c #F19C70",
"L+	c #F88E4F",
"M+	c #FB863C",
"N+	c #FB7F33",
"O+	c #F47C3C",
"P+	c #D16B43",
"Q+	c #025FF8",
"R+	c #EC928A",
"S+	c #FD9667",
"T+	c #FDA37A",
"U+	c #FAAF8F",
"V+	c #F0BBA7",
"W+	c #F4B292",
"X+	c #F6AD84",
"Y+	c #F1AE8B",
"Z+	c #FFFEF9",
"`+	c #F19768",
" @	c #F88843",
".@	c #FA7D30",
"+@	c #F47633",
"@@	c #D0673A",
"#@	c #0061F8",
"$@	c #EA8A81",
"%@	c #FC905C",
"&@	c #FD9C70",
"*@	c #F9AA8A",
"=@	c #F0B59B",
"-@	c #FAA97D",
";@	c #FCA36D",
">@	c #FAA370",
",@	c #F2A880",
"'@	c #FFFDF1",
")@	c #F88845",
"!@	c #FA7A28",
"~@	c #F4702A",
"{@	c #D06237",
"]@	c #0064F8",
"^@	c #E98376",
"/@	c #FC874B",
"(@	c #FC9662",
"_@	c #FAA27D",
":@	c #FFEBDF",
"<@	c #FFFDF8",
"[@	c #F6AD8E",
"}@	c #FAA77D",
"|@	c #FCA26E",
"1@	c #FD9E65",
"2@	c #FC9C5F",
"3@	c #F99D62",
"4@	c #F2A273",
"5@	c #FFE2BF",
"6@	c #F9843A",
"7@	c #FA7421",
"8@	c #F36A21",
"9@	c #CE5D30",
"0@	c #046AFD",
"a@	c #E77F71",
"b@	c #FB7F45",
"c@	c #FC8C57",
"d@	c #FA996D",
"e@	c #F6A383",
"f@	c #F6A481",
"g@	c #FA9D70",
"h@	c #FC9965",
"i@	c #FD9964",
"j@	c #FD985C",
"k@	c #FD9652",
"l@	c #FC934F",
"m@	c #F99452",
"n@	c #F88F4B",
"o@	c #F9863C",
"p@	c #FA7019",
"q@	c #F1651B",
"r@	c #CD5A30",
"s@	c #026AFD",
"t@	c #E2766A",
"u@	c #F97638",
"v@	c #FA814B",
"w@	c #FA8B59",
"x@	c #F99365",
"y@	c #F99467",
"z@	c #FB8F5A",
"A@	c #FB8F59",
"B@	c #FB8E50",
"C@	c #FB8A46",
"D@	c #FC8843",
"E@	c #FB843E",
"F@	c #FA8035",
"G@	c #FA7726",
"H@	c #FA701D",
"I@	c #FA6714",
"J@	c #EF5F1B",
"K@	c #C7552C",
"L@	c #056DFF",
"M@	c #DAE9FF",
"N@	c #DC8F96",
"O@	c #EB6E46",
"P@	c #ED7348",
"Q@	c #F07D50",
"R@	c #F18154",
"S@	c #F08154",
"T@	c #F08052",
"U@	c #F18150",
"V@	c #F0804B",
"W@	c #F1804A",
"X@	c #F27F46",
"Y@	c #F37A3C",
"Z@	c #F47738",
"`@	c #F37330",
" #	c #F36D26",
".#	c #F16821",
"+#	c #EF6221",
"@#	c #DF5D35",
"##	c #C57C7A",
"$#	c #FFF6FF",
"%#	c #6A95F3",
"&#	c #FDF7FE",
"*#	c #CD8881",
"=#	c #C3624B",
"-#	c #CC6A48",
";#	c #CA6B48",
">#	c #CB6846",
",#	c #CD6B4A",
"'#	c #CD6D48",
")#	c #D06B45",
"!#	c #CF673E",
"~#	c #CF6135",
"{#	c #CF5F31",
"]#	c #CF5D33",
"^#	c #C75A33",
"/#	c #C4797A",
"(#	c #FBF7FF",
"_#	c #738CE6",
":#	c #0466FB",
"<#	c #1B57D1",
"[#	c #7A90D9",
"}#	c #FFF5FF",
"|#	c #EFE3FF",
"1#	c #748CE4",
"2#	c #1B4CC5",
"3#	c #055FF4",
"4#	c #0C54E4",
"5#	c #1750D3",
"6#	c #1D4BC3",
"7#	c #244DC3",
"8#	c #224ABC",
"9#	c #2249BE",
"0#	c #254DBF",
"a#	c #254CC1",
"b#	c #224ABB",
"c#	c #2045B7",
"d#	c #2449BB",
"e#	c #274CBE",
"f#	c #2245B9",
"g#	c #2444BB",
"h#	c #2141B8",
"i#	c #1C42BF",
"j#	c #1344CF",
"k#	c #0C45DC",
"l#	c #054ECF",
"m#	c #0245C8",
"n#	c #0343C9",
"o#	c #0240C7",
"p#	c #0141C7",
"q#	c #0442C9",
"r#	c #013FC6",
"s#	c #0343C7",
"t#	c #0442C7",
"u#	c #0240C5",
"v#	c #0543C8",
"w#	c #023DC5",
"x#	c #033CC7",
"y#	c #023AC3",
"z#	c #043CC5",
"A#	c #0139C4",
"B#	c #023AC5",
"C#	c #164499",
"D#	c #164398",
"E#	c #184296",
"F#	c #184298",
"G#	c #194198",
"H#	c #184098",
"I#	c #2A2526",
"J#	c #382E2F",
"K#	c #413434",
"L#	c #493737",
"M#	c #503B3A",
"N#	c #553E3D",
"O#	c #563F3D",
"P#	c #593F3E",
"Q#	c #5B403F",
"R#	c #5D413F",
"S#	c #5F4240",
"T#	c #684642",
"U#	c #684542",
"V#	c #6D4743",
"W#	c #754944",
"X#	c #7F4C46",
"Y#	c #664649",
"Z#	c #2A2426",
"`#	c #332C29",
" $	c #342C29",
".$	c #40352F",
"+$	c #4F3E36",
"@$	c #584339",
"#$	c #5E463B",
"$$	c #61473C",
"%$	c #66493D",
"&$	c #6C4C3E",
"*$	c #73503F",
"=$	c #78523F",
"-$	c #7F5340",
";$	c #88563F",
">$	c #94583E",
",$	c #A25B3C",
"'$	c #A25740",
")$	c #714E4D",
"!$	c #352C2C",
"~$	c #322B28",
"{$	c #2E2825",
"]$	c #3A312D",
"^$	c #473933",
"/$	c #503E37",
"($	c #5C453B",
"_$	c #63483C",
":$	c #64483D",
"<$	c #6B4B3E",
"[$	c #74503F",
"}$	c #7C5240",
"|$	c #835440",
"1$	c #8E573F",
"2$	c #9D5A3D",
"3$	c #A0583F",
"4$	c #A65C4A",
"5$	c #3F3232",
"6$	c #3E342E",
"7$	c #38302B",
"8$	c #3D332E",
"9$	c #443732",
"0$	c #4C3C36",
"a$	c #57423A",
"b$	c #6B4C3E",
"c$	c #734F40",
"d$	c #754F40",
"e$	c #785040",
"f$	c #744F41",
"g$	c #7B5242",
"h$	c #805341",
"i$	c #8E5840",
"j$	c #A05B3C",
"k$	c #A2583E",
"l$	c #AD5D45",
"m$	c #443535",
"n$	c #4C3D35",
"o$	c #463933",
"p$	c #DFDFDE",
"q$	c #56413B",
"r$	c #694A3F",
"s$	c #7B5241",
"t$	c #885640",
"u$	c #8E5740",
"v$	c #855441",
"w$	c #6F4F44",
"x$	c #25211F",
"y$	c #895442",
"z$	c #9D5B3E",
"A$	c #9E573F",
"B$	c #A85D46",
"C$	c #4B3838",
"D$	c #513F37",
"E$	c #62483F",
"F$	c #7B5341",
"G$	c #885641",
"H$	c #865441",
"I$	c #7B5244",
"J$	c #915941",
"K$	c #A05B3D",
"L$	c #A35A3E",
"M$	c #513B3B",
"N$	c #5F463B",
"O$	c #59433A",
"P$	c #58433A",
"Q$	c #513F39",
"R$	c #6F5042",
"S$	c #795243",
"T$	c #6C4E44",
"U$	c #975941",
"V$	c #A85C3B",
"W$	c #AA5C39",
"X$	c #AA5D45",
"Y$	c #543D3C",
"Z$	c #684A3D",
"`$	c #63483D",
" %	c #5E453C",
".%	c #5D443C",
"+%	c #57423C",
"@%	c #664B43",
"#%	c #885845",
"$%	c #AA5C3A",
"%%	c #BA5F33",
"&%	c #B05C37",
"*%	c #A65A3D",
"=%	c #AB5F45",
"-%	c #704E3F",
";%	c #684A3E",
">%	c #69493E",
",%	c #67493F",
"'%	c #5F473E",
")%	c #8E5A43",
"!%	c #A85F3B",
"~%	c #BC6332",
"{%	c #C06230",
"]%	c #B96334",
"^%	c #AF5D39",
"/%	c #AF5D43",
"(%	c #614140",
"_%	c #7B5240",
":%	c #704D3F",
"<%	c #6C4B3F",
"[%	c #6F4C3F",
"}%	c #6D4C3F",
"|%	c #63483F",
"1%	c #58453F",
"2%	c #644D45",
"3%	c #955C40",
"4%	c #B76235",
"5%	c #C3632E",
"6%	c #BE6331",
"7%	c #B25D38",
"8%	c #B25F42",
"9%	c #674442",
"0%	c #825440",
"a%	c #755040",
"b%	c #714D3F",
"c%	c #745040",
"d%	c #694B3F",
"e%	c #56433D",
"f%	c #895A43",
"g%	c #AD6138",
"h%	c #C1662F",
"i%	c #CA662A",
"j%	c #C5662D",
"k%	c #BA6035",
"l%	c #B75E3F",
"m%	c #6F4643",
"n%	c #7E5340",
"o%	c #6C4D3F",
"p%	c #5E473E",
"q%	c #564640",
"r%	c #8F5B42",
"s%	c #B06238",
"t%	c #C3662E",
"u%	c #CC6629",
"v%	c #C36030",
"w%	c #BC5D3C",
"x%	c #754844",
"y%	c #98593D",
"z%	c #855540",
"A%	c #704D40",
"B%	c #58443D",
"C%	c #6D4E41",
"D%	c #7B5642",
"E%	c #745343",
"F%	c #975D41",
"G%	c #BC6632",
"H%	c #CF6627",
"I%	c #CC602B",
"J%	c #C55F37",
"K%	c #7E4945",
"L%	c #A35B3C",
"M%	c #8F573F",
"N%	c #754F41",
"O%	c #644B40",
"P%	c #825641",
"Q%	c #925E3F",
"R%	c #8F5C40",
"S%	c #7F5643",
"T%	c #BA6333",
"U%	c #D76622",
"V%	c #D55E24",
"W%	c #C85B35",
"X%	c #894C45",
"Y%	c #B45F35",
"Z%	c #9D5D3D",
"`%	c #825341",
" &	c #201D1B",
".&	c #714E41",
"+&	c #915C3F",
"@&	c #9A5E3D",
"#&	c #A0623C",
"$&	c #9D613E",
"%&	c #8C5C42",
"&&	c #40382F",
"*&	c #C5672E",
"=&	c #DE661D",
"-&	c #DE5D1E",
";&	c #CF5D30",
">&	c #8E4E45",
",&	c #BA5C33",
"'&	c #A85C3A",
")&	c #925940",
"!&	c #7C5142",
"~&	c #7E5342",
"{&	c #8F5840",
"]&	c #9A5C3E",
"^&	c #9B5C3D",
"/&	c #A35F3B",
"(&	c #AD6438",
"_&	c #B06437",
":&	c #B46637",
"<&	c #C3662F",
"[&	c #E66517",
"}&	c #E45C19",
"|&	c #CF5930",
"1&	c #954D46",
"2&	c #C75C2D",
"3&	c #B45C36",
"4&	c #A65B3B",
"5&	c #9A5A3E",
"6&	c #985A3F",
"7&	c #A55B3B",
"8&	c #A65E3B",
"9&	c #AF6238",
"0&	c #BC6232",
"a&	c #C1622F",
"b&	c #CA672B",
"c&	c #D96621",
"d&	c #E2601A",
"e&	c #EB5F13",
"f&	c #E45719",
"g&	c #D3592F",
"h&	c #70484C",
"i&	c #B95537",
"j&	c #B75837",
"k&	c #AF583A",
"l&	c #AB5B3B",
"m&	c #AB5B3C",
"n&	c #AD5B3B",
"o&	c #AF5B3A",
"p&	c #B45E38",
"q&	c #B55E38",
"r&	c #B96035",
"s&	c #C7602E",
"t&	c #CF5F29",
"u&	c #D95E22",
"v&	c #DE591F",
"w&	c #CA5430",
"x&	c #855352",
"y&	c #7E524F",
"z&	c #B45A45",
"A&	c #B75C40",
"B&	c #B75F41",
"C&	c #B95C3F",
"D&	c #B55D42",
"E&	c #B75F40",
"F&	c #BA5E3D",
"G&	c #C1603A",
"H&	c #CA5E34",
"I&	c #CE5D31",
"J&	c #CC5A32",
"K&	c #CC5B34",
"L&	c #865354",
". . . + @ # $ % & * = - - ; > > > , * * ' ) ! ~ ",
"{ { { ] ^ / ( _ : < [ < } | } | 1 2 3 4 5 6 7 8 ",
"9 9 9 0 a b c d e f g g g h h i j k l l l m n o ",
"p p p q r s t u v w x y z A B C D E F G H I J K ",
"L L L M N O P Q R S T U V W X Y Z `  ...+.@.#.$.",
"%.%.%.&.*.=.-.;.>.,.'.).!.~.{.].^./.(._.:.<.[.}.",
"|.|.|.1.2.3.4.5.6.7.8.9.0.a.b.c.d.e.f.g.h.i.j.k.",
"|.|.|.g l.m.n.6.o.p.q.r.s.t.u.v.w.x.y.z.A.B.C.D.",
"|.|.|.E.F.S G.7.p.H.I.J.K.L.M.N.I.I.O.P.Q.R.C.k.",
"|.|.|.E.S.T.U.V.W.I.H.X.Y.Z.`.I.X.x. +.+++R.@+D.",
"#+#+#+i $+%+&+*+=+-+X.H.x.;+p.X.>+,+'+)+!+~+{+D.",
"]+]+]+^+B /+(+(+_+:+<+>+H.H.H.>+[+}+|+1+2+3+4+k.",
"5+5+5+6+7+8+9+0+a+b+c+d+H.e+H.f+g+h+i+j+k+l+m+k.",
"n+n+n+6+o+p+q+r+s+t+u+X.H.H.e+X.v+w+x+y+z+A+B+k.",
"C+C+C+6+D+_.E+F+G+H+p.X.I.I+H.X.J+K+L+M+N+O+P+k.",
"Q+Q+Q+6+R+S+T+U+V+p.H.I.W+X+Y+Z+X.>+`+ @.@+@@@k.",
"#@#@#@6+$@%@&@*@x.p.I.=@-@;@>@,@>+>+'@)@!@~@{@k.",
"]@]@]@6+^@/@(@_@:@<@[@}@|@1@2@3@4@'@5@6@7@8@9@k.",
"0@0@0@6+a@b@c@d@e@f@g@h@i@j@k@l@m@n@o@.@p@q@r@k.",
"s@s@s@E.t@u@v@w@x@y@h.z@A@B@C@D@E@F@G@H@I@J@K@D.",
"L@L@L@M@N@O@P@Q@R@S@T@U@V@W@X@Y@Z@`@ #.#+#@###$#",
"0@0@0@%#&#*#=#-#;#;#>#,#'#'#)#!#@@~#{#]#^#/#(#_#",
":#:#:#<#[#l }#}.}.}.D.D.}.}.D.k.D.D.k.k.k.|#1#2#",
"3#3#3#4#5#6#7#8#9#0#a#0#0#b#c#d#e#d#f#g#h#i#j#k#",
"l#l#l#m#n#n#o#o#p#p#q#r#s#t#t#u#v#o#w#x#y#z#A#B#",
"C#C#C#D#D#D#E#E#F#F#F#F#F#F#F#F#F#F#F#G#G#G#G#H#",
". . . + @ # $ % & * = - - ; > > > , * * ' ) ! ~ ",
"{ { { ] ^ / ( _ : < [ < } | } | 1 2 3 4 5 6 7 8 ",
"9 9 9 0 a b c d e f g g g h h i j k l l l m n o ",
"p p p q r I#J#K#L#M#N#O#P#Q#R#S#T#U#V#W#X#Y#J K ",
"L L L M Z#`# $.$+$@$#$$$%$&$&$*$=$-$;$>$,$'$)$$.",
"%.%.%.&.!$~${$]$^$/$@$($$$_$:$<$[$}$|$1$2$3$4$}.",
"|.|.|.1.5$6$7$8$9$0$a$$$b$c$d$e$f$g$h$i$j$k$l$k.",
"|.|.|.g m$n$o$9$p$H.q$r$s$t$u$v$w$H.x$y$z$A$B$D.",
"|.|.|.E.C$@$D$0$H.H.H.E$F$G$H$I$H.H.H.J$K$L$B$k.",
"|.|.|.E.M$N$O$P$Q$H.H.H.R$S$T$H.H.H.U$V$W$L$X$D.",
"#+#+#+i Y$Z$`$ %.%+%H.H.H.@%H.H.H.#%$%%%&%*%=%D.",
"]+]+]+^+R#-%;%;%>%,%'%H.H.H.H.H.)%!%~%{%]%^%/%k.",
"5+5+5+6+(%_%:%<%[%}%|%1%H.H.H.2%3%4%5%5%6%7%8%k.",
"n+n+n+6+9%0%a%b%c%d%e%H.H.H.H.H.f%g%h%i%j%k%l%k.",
"C+C+C+6+m%1$n%:%o%p%H.H.H.q%H.H.H.r%s%t%u%v%w%k.",
"Q+Q+Q+6+x%y%z%A%B%H.H.H.C%D%E%H.H.H.F%G%H%I%J%k.",
"#@#@#@6+K%L%M%N%H.H.H.O%P%Q%R%S%H.H.H.T%U%V%W%k.",
"]@]@]@6+X%Y%Z%`% &H..&P%+&@&#&$&%&H.&&*&=&-&;&k.",
"0@0@0@6+>&,&'&)&!&~&{&]&^&/&(&_&(&:&<&H%[&}&|&k.",
"s@s@s@E.1&2&3&4&5&6&j$7&8&9&]%0&a&b&c&d&e&f&g&D.",
"L@L@L@M@h&i&j&k&l&m&n&o&p&q&r&v%s&t&u&-&v&w&x&$#",
"0@0@0@%#&#y&z&A&B&B&C&D&E&E&F&G&J%H&I&J&K&L&(#_#",
":#:#:#<#[#l }#}.}.}.D.D.}.}.D.k.D.D.k.k.k.|#1#2#",
"3#3#3#4#5#6#7#8#9#0#a#0#0#b#c#d#e#d#f#g#h#i#j#k#",
"l#l#l#m#n#n#o#o#p#p#q#r#s#t#t#u#v#o#w#x#y#z#A#B#",
"C#C#C#D#D#D#E#E#F#F#F#F#F#F#F#F#F#F#F#G#G#G#G#H#"};
