/* XPM */
static char * rolldownO_xpm[] = {
"26 52 615 2",
"  	c None",
". 	c #0465F0",
"+ 	c #0864EB",
"@ 	c #0B64E6",
"# 	c #0B64E2",
"$ 	c #0C64E0",
"% 	c #0C64E2",
"& 	c #0E63E0",
"* 	c #0765ED",
"= 	c #0971F4",
"- 	c #055CE1",
"; 	c #0F5ACF",
"> 	c #1659C1",
", 	c #1A59B6",
"' 	c #1E5AB2",
") 	c #1D58B2",
"! 	c #1D59B1",
"~ 	c #1F58B1",
"{ 	c #1859BD",
"] 	c #0C5BD4",
"^ 	c #055BE2",
"/ 	c #1058D0",
"( 	c #5D97FB",
"_ 	c #BFF1FF",
": 	c #D6FFFF",
"< 	c #D5FFFF",
"[ 	c #D4FFFF",
"} 	c #CFFFFF",
"| 	c #5A98FF",
"1 	c #1158CE",
"2 	c #005CEB",
"3 	c #5D95F6",
"4 	c #EFFDFF",
"5 	c #B5D8FE",
"6 	c #A4CCFC",
"7 	c #97C5FB",
"8 	c #8BBFFB",
"9 	c #84BBFB",
"0 	c #7CB8FB",
"a 	c #7FB9FB",
"b 	c #77B3FB",
"c 	c #76B4FB",
"d 	c #73B1FB",
"e 	c #70B2FB",
"f 	c #65A9FA",
"g 	c #65ABFA",
"h 	c #61A9FB",
"i 	c #57A1FA",
"j 	c #4D99F8",
"k 	c #61A7F8",
"l 	c #E8FBFF",
"m 	c #6194EF",
"n 	c #0058E6",
"o 	c #B9D9FE",
"p 	c #CEE5FF",
"q 	c #CDE8FF",
"r 	c #C0E1FF",
"s 	c #B1D9FF",
"t 	c #A9D5FF",
"u 	c #A1D0FF",
"v 	c #9DD0FF",
"w 	c #9BCDFF",
"x 	c #96CCFF",
"y 	c #94CAFF",
"z 	c #8EC7FF",
"A 	c #8AC6FF",
"B 	c #81C2FF",
"C 	c #79BDFF",
"D 	c #6AB4FF",
"E 	c #5AA9FE",
"F 	c #4D97F6",
"G 	c #6897E2",
"H 	c #C6EFFF",
"I 	c #0056E4",
"J 	c #D9FFFF",
"K 	c #A9CEFC",
"L 	c #D0E9FF",
"M 	c #D2EBFF",
"N 	c #C6E3FF",
"O 	c #B8DCFF",
"P 	c #AFD7FF",
"Q 	c #A8D3FF",
"R 	c #A3D0FF",
"S 	c #A0CDFF",
"T 	c #9CCDFF",
"U 	c #9BCBFF",
"V 	c #96C9FF",
"W 	c #8FC7FF",
"X 	c #87C2FF",
"Y 	c #7DBFFF",
"Z 	c #71B8FF",
"` 	c #61AEFE",
" .	c #549CF7",
"..	c #4379CF",
"+.	c #DBFFFF",
"@.	c #0054E3",
"#.	c #9BC7FB",
"$.	c #C5E3FF",
"%.	c #C8E5FF",
"&.	c #BFDEFF",
"*.	c #B1D6FF",
"=.	c #A7D1FF",
"-.	c #9CCAFF",
";.	c #99C9FF",
">.	c #94C5FF",
",.	c #8CC1FF",
"'.	c #88C0FF",
").	c #80BCFE",
"!.	c #80BDFF",
"~.	c #77B8FF",
"{.	c #6EB3FF",
"].	c #68B1FE",
"^.	c #5DABFE",
"/.	c #559DF7",
"(.	c #4A7CD1",
"_.	c #0055E4",
":.	c #93C1FB",
"<.	c #B6DBFF",
"[.	c #BADCFF",
"}.	c #A4D0FF",
"|.	c #FFFFFF",
"1.	c #6AAEFE",
"2.	c #65ADFE",
"3.	c #61AAFE",
"4.	c #5CAAFE",
"5.	c #59A9FE",
"6.	c #55A6FE",
"7.	c #59A0F8",
"8.	c #5081D5",
"9.	c #D8FFFF",
"0.	c #8BBFFC",
"a.	c #AAD5FF",
"b.	c #AED6FF",
"c.	c #9ECCFF",
"d.	c #96C6FF",
"e.	c #8BC0FF",
"f.	c #83BBFE",
"g.	c #5AA8FE",
"h.	c #54A7FE",
"i.	c #55A7FE",
"j.	c #4F83D5",
"k.	c #84B9FB",
"l.	c #A6D1FF",
"m.	c #A1CEFF",
"n.	c #9BC8FF",
"o.	c #90C2FE",
"p.	c #87BFFF",
"q.	c #7DB9FF",
"r.	c #57A9FE",
"s.	c #52A6FF",
"t.	c #4BA3FE",
"u.	c #46A2FE",
"v.	c #4DA7FF",
"w.	c #52A6FE",
"x.	c #559EF8",
"y.	c #83B9FC",
"z.	c #99CAFF",
"A.	c #9DCCFF",
"B.	c #9BCAFF",
"C.	c #97C7FF",
"D.	c #8EC2FF",
"E.	c #45A4FE",
"F.	c #41A3FE",
"G.	c #4BA7FE",
"H.	c #54A0F8",
"I.	c #4D80D5",
"J.	c #0055E6",
"K.	c #74B2FB",
"L.	c #97C9FF",
"M.	c #92C6FF",
"N.	c #8BC2FF",
"O.	c #83BEFF",
"P.	c #4BABFF",
"Q.	c #45A8FF",
"R.	c #3EA6FF",
"S.	c #41A6FE",
"T.	c #46A6FE",
"U.	c #50A0F9",
"V.	c #4880D5",
"W.	c #0056E9",
"X.	c #6BAEFB",
"Y.	c #86C1FF",
"Z.	c #8FC5FF",
"`.	c #90C4FF",
" +	c #8AC1FF",
".+	c #7ABBFF",
"++	c #52B1FF",
"@+	c #46ADFF",
"#+	c #41AAFF",
"$+	c #3AA9FF",
"%+	c #3EA8FF",
"&+	c #43A7FE",
"*+	c #4B9EF8",
"=+	c #437DD5",
"-+	c #0057EC",
";+	c #65AAFB",
">+	c #7FBDFF",
",+	c #8AC3FF",
"'+	c #8EC4FF",
")+	c #8CC3FF",
"!+	c #88C3FF",
"~+	c #83C0FF",
"{+	c #7ABEFF",
"]+	c #73BCFF",
"^+	c #5DB8FF",
"/+	c #52B5FF",
"(+	c #46B2FF",
"_+	c #3FAFFF",
":+	c #38AEFF",
"<+	c #35AAFF",
"[+	c #37A7FE",
"}+	c #419EF8",
"|+	c #3E7CD5",
"1+	c #0059EE",
"2+	c #5CA4FB",
"3+	c #73B9FF",
"4+	c #81BEFF",
"5+	c #8CC3FE",
"6+	c #97C3FC",
"7+	c #99C2FA",
"8+	c #96C0F9",
"9+	c #8EBEF9",
"0+	c #8ABDF9",
"a+	c #7FBCFA",
"b+	c #70BBFC",
"c+	c #5CB9FD",
"d+	c #4AB5FE",
"e+	c #3EB3FF",
"f+	c #37B0FF",
"g+	c #31ADFF",
"h+	c #30A7FE",
"i+	c #3799F8",
"j+	c #387AD5",
"k+	c #005BF2",
"l+	c #D2FFFF",
"m+	c #509EFB",
"n+	c #68B3FF",
"o+	c #7CBBFF",
"p+	c #8FC1FB",
"q+	c #2CAEFF",
"r+	c #28A6FE",
"s+	c #2E98F8",
"t+	c #3376D4",
"u+	c #025FF8",
"v+	c #D1FFFF",
"w+	c #4698FA",
"x+	c #5FAEFF",
"y+	c #88BCFA",
"z+	c #21ABFF",
"A+	c #1FA2FE",
"B+	c #2593F7",
"C+	c #2C71D1",
"D+	c #0061F8",
"E+	c #3C93FA",
"F+	c #54A6FF",
"G+	c #64B0FF",
"H+	c #7DB8FC",
"I+	c #1DAAFF",
"J+	c #17A0FE",
"K+	c #1B8EF7",
"L+	c #266DD0",
"M+	c #0064F8",
"N+	c #CEFFFF",
"O+	c #3590F9",
"P+	c #459EFE",
"Q+	c #6DAFFD",
"R+	c #80B2F7",
"S+	c #87B2F2",
"T+	c #86B3F2",
"U+	c #84B3F2",
"V+	c #81B4F2",
"W+	c #79B5F4",
"X+	c #6AB5F9",
"Y+	c #55B4FC",
"Z+	c #45B3FE",
"`+	c #33B0FF",
" @	c #23ADFF",
".@	c #17A4FF",
"+@	c #129BFE",
"@@	c #198AF7",
"#@	c #256BD0",
"$@	c #046AFD",
"%@	c #CDFFFF",
"&@	c #2A88F7",
"*@	c #3896FD",
"=@	c #4B9EFE",
"-@	c #59A4FD",
";@	c #65A9FC",
">@	c #67AAFB",
",@	c #64ABFB",
"'@	c #61ABFB",
")@	c #5AAEFC",
"!@	c #4FAFFD",
"~@	c #43ABFE",
"{@	c #37A9FE",
"]@	c #2AA7FE",
"^@	c #149BFE",
"/@	c #0E93FD",
"(@	c #1484F4",
"_@	c #2167C9",
":@	c #026AFD",
"<@	c #B6F5FF",
"[@	c #4B9CF8",
"}@	c #3386F4",
"|@	c #3F8EF4",
"1@	c #4A93F6",
"2@	c #5297F6",
"3@	c #4D98F6",
"4@	c #4B99F6",
"5@	c #4599F7",
"6@	c #3F9BF7",
"7@	c #389BF7",
"8@	c #3198F7",
"9@	c #2A96F8",
"0@	c #2392F7",
"a@	c #198BF6",
"b@	c #1779E9",
"c@	c #4686DA",
"d@	c #056DFF",
"e@	c #5AA1FF",
"f@	c #E6FBFF",
"g@	c #5C90DF",
"h@	c #3570CD",
"i@	c #4176D1",
"j@	c #4377D0",
"k@	c #3F79D2",
"l@	c #3A76D0",
"m@	c #3877D2",
"n@	c #3174D1",
"o@	c #3176D4",
"p@	c #2C71D3",
"q@	c #286ED3",
"r@	c #2367CE",
"s@	c #4384DC",
"t@	c #E6FAFF",
"u@	c #639FFF",
"v@	c #1762DF",
"w@	c #659AF8",
"x@	c #C1F0FF",
"y@	c #639AFE",
"z@	c #1C62D4",
"A@	c #0466FB",
"B@	c #0C5DED",
"C@	c #135BE1",
"D@	c #165BDC",
"E@	c #165BDD",
"F@	c #155BDD",
"G@	c #155BDF",
"H@	c #165ADF",
"I@	c #125CE3",
"J@	c #0D5DEA",
"K@	c #055FF4",
"L@	c #0349CB",
"M@	c #0349CD",
"N@	c #054ECF",
"O@	c #164398",
"P@	c #164299",
"Q@	c #164499",
"R@	c #343F4A",
"S@	c #3B4A5B",
"T@	c #3E5268",
"U@	c #405874",
"V@	c #415C7B",
"W@	c #406183",
"X@	c #415E80",
"Y@	c #406288",
"Z@	c #406289",
"`@	c #40638C",
" #	c #3F668F",
".#	c #3E699A",
"+#	c #3D6A9E",
"@#	c #3A6EA8",
"##	c #376EB2",
"$#	c #3D6B9E",
"%#	c #333B46",
"&#	c #272C31",
"*#	c #282D32",
"=#	c #2F373F",
"-#	c #36424E",
";#	c #384856",
">#	c #3B4D5E",
",#	c #3C5062",
"'#	c #3C5164",
")#	c #3D5469",
"!#	c #3E556B",
"~#	c #3E5871",
"{#	c #3F5B75",
"]#	c #3F5F7E",
"^#	c #3F6486",
"/#	c #3D6B95",
"(#	c #3A6FA5",
"_#	c #456697",
":#	c #3A4656",
"<#	c #262B2F",
"[#	c #25292D",
"}#	c #2C3239",
"|#	c #333D47",
"1#	c #364350",
"2#	c #394857",
"3#	c #3A4B5C",
"4#	c #3B4D5F",
"5#	c #3C5063",
"6#	c #3C5064",
"7#	c #3D5369",
"8#	c #3E5870",
"9#	c #3F5B78",
"0#	c #3F6282",
"a#	c #3E678E",
"b#	c #3C6C9E",
"c#	c #3A6CAB",
"d#	c #3D6FBC",
"e#	c #3D4F64",
"f#	c #2C333A",
"g#	c #2B3137",
"h#	c #2F3740",
"i#	c #36414E",
"j#	c #394858",
"k#	c #3C4E63",
"l#	c #3D5066",
"m#	c #3E536B",
"n#	c #3F5773",
"o#	c #3F5977",
"p#	c #405F7F",
"q#	c #3F5F7F",
"r#	c #3F6388",
"s#	c #3E6791",
"t#	c #3E6A97",
"u#	c #3B6EA2",
"v#	c #3A6CAA",
"w#	c #406CB5",
"x#	c #3F536C",
"y#	c #343E49",
"z#	c #323B45",
"A#	c #3A4A5B",
"B#	c #FFFFFE",
"C#	c #3E6795",
"D#	c #3D699A",
"E#	c #3C6A9E",
"F#	c #3B6EA3",
"G#	c #3A6FA6",
"H#	c #3971AA",
"I#	c #3B6BA6",
"J#	c #416AAF",
"K#	c #384755",
"L#	c #374351",
"M#	c #3C4E61",
"N#	c #3D5269",
"O#	c #3F5874",
"P#	c #405C7C",
"Q#	c #3871AB",
"R#	c #416DB0",
"S#	c #415A7B",
"T#	c #394959",
"U#	c #3B4C5E",
"V#	c #3C4F64",
"W#	c #3F556F",
"X#	c #3F5A78",
"Y#	c #3F5E82",
"Z#	c #3970A8",
"`#	c #3771AD",
" $	c #3574B4",
".$	c #3378B9",
"+$	c #3576B2",
"@$	c #3871AD",
"#$	c #3A6FAA",
"$$	c #405B7C",
"%$	c #3D5166",
"&$	c #3C4E62",
"*$	c #3D5168",
"=$	c #3E5671",
"-$	c #3378BA",
";$	c #317DBE",
">$	c #3577B4",
",$	c #3A6FAB",
"'$	c #406BB2",
")$	c #40638B",
"!$	c #3D5268",
"~$	c #3E556D",
"{$	c #3F5974",
"]$	c #3F5D7C",
"^$	c #3479B4",
"/$	c #327BBA",
"($	c #2E7DC1",
"_$	c #337BB9",
":$	c #3872AF",
"<$	c #3E6EB7",
"[$	c #3F6794",
"}$	c #3F5B79",
"|$	c #3E5770",
"1$	c #3E556F",
"2$	c #3F5875",
"3$	c #3F6185",
"4$	c #3779AD",
"5$	c #327EB9",
"6$	c #3080BE",
"7$	c #2C82C5",
"8$	c #2E81C1",
"9$	c #327CBC",
"0$	c #3774B4",
"a$	c #3B6FBC",
"b$	c #3F5F80",
"c$	c #3F5975",
"d$	c #3E5771",
"e$	c #3F5873",
"f$	c #3F5C77",
"g$	c #3F6385",
"h$	c #3F688C",
"i$	c #3B75A2",
"j$	c #377CAD",
"k$	c #3281B9",
"l$	c #2F84C0",
"m$	c #2B8AC7",
"n$	c #2988CA",
"o$	c #2B84C8",
"p$	c #317ABE",
"q$	c #3872C1",
"r$	c #3C6CA3",
"s$	c #3F668C",
"t$	c #3F5E7E",
"u$	c #3E5068",
"v$	c #3E4F66",
"w$	c #3F5269",
"x$	c #405771",
"y$	c #415975",
"z$	c #416180",
"A$	c #3F6A8F",
"B$	c #3B78A3",
"C$	c #3583B5",
"D$	c #2E88C1",
"E$	c #2B8BC8",
"F$	c #278DCE",
"G$	c #278ACF",
"H$	c #2C7DC8",
"I$	c #3572C7",
"J$	c #3870AF",
"K$	c #3D6B97",
"L$	c #3F6083",
"M$	c #405670",
"N$	c #2493D3",
"O$	c #2290D7",
"P$	c #2783D1",
"Q$	c #3172CC",
"R$	c #3472B9",
"S$	c #3B6DA0",
"T$	c #405A77",
"U$	c #1C97DE",
"V$	c #1C8FE0",
"W$	c #2185DA",
"X$	c #2C73D3",
"Y$	c #2F74C3",
"Z$	c #3870AB",
"`$	c #3C6B9B",
" %	c #405F82",
".%	c #1998E2",
"+%	c #1596E8",
"@%	c #1986E4",
"#%	c #2772D9",
"$%	c #2B76CA",
"%%	c #3375BA",
"&%	c #3E6692",
"*%	c #425B7F",
"=%	c #435978",
"-%	c #435A79",
";%	c #435C7B",
">%	c #435E7E",
",%	c #426386",
"'%	c #3F6D95",
")%	c #397BAA",
"!%	c #3385BA",
"~%	c #2890CC",
"{%	c #1E96DC",
"]%	c #1496E8",
"^%	c #1192ED",
"/%	c #1782E6",
"(%	c #2772DA",
"_%	c #2477D5",
":%	c #2C78C7",
"<%	c #3571B4",
"[%	c #3A6DA6",
"}%	c #3E6898",
"|%	c #3E699B",
"1%	c #3D6D9E",
"2%	c #3B74A5",
"3%	c #377BB0",
"4%	c #327FBC",
"5%	c #2B87C8",
"6%	c #2390D5",
"7%	c #1392EB",
"8%	c #0E8EF1",
"9%	c #1382EB",
"0%	c #2473DE",
"a%	c #3771B4",
"b%	c #2B73CC",
"c%	c #3171C0",
"d%	c #366FB5",
"e%	c #396AAD",
"f%	c #3476BA",
"g%	c #317BC0",
"h%	c #2D80C7",
"i%	c #2982CE",
"j%	c #2484D5",
"k%	c #1F85DC",
"l%	c #1779E8",
"m%	c #3B73B9",
"n%	c #4369A3",
"o%	c #3470CA",
"p%	c #3B6CBE",
"q%	c #3D6CBC",
"r%	c #396FC0",
"s%	c #3770C5",
"t%	c #3073CE",
"u%	c #2F72CE",
"v%	c #2972D7",
"w%	c #256EDC",
"x%	c #3973BC",
". + @ # $ % $ % $ $ $ $ $ $ & $ $ $ @ * . = = = = = ",
"- ; > , ' ) ! ) ! ! ! ! ! ~ ~ ! ! ! { ] ^ . . . . . ",
"/ ( _ : : : : < < < < < < < < [ [ [ } | 1 2 2 2 2 2 ",
"3 4 5 6 7 8 9 0 a b c d e f g h i j k l m n n n n n ",
": o p q r s t u v w x y z A B C D E F G H I I I I I ",
"J K L M N O P Q R S T U V W X Y Z `  ...+.@.@.@.@.@.",
"+.#.$.%.&.*.=.-.;.>.,.'.).!.~.{.].^./.(.+._._._._._.",
"J :.<.[.*.}.-.>.,.|.|.|.1.2.3.4.5.6.7.8.+._._._._._.",
"9.0.a.b.=.c.d.e.f.|.|.|.^.g.6.h.h.i.7.j.+._._._._._.",
"9.k.R l.m.n.o.p.q.|.|.|.r.s.t.u.v.w.x.j.+._._._._._.",
": y.z.A.B.C.D.|.|.|.|.|.|.|.E.F.E.G.H.I.+.J.J.J.J.J.",
": K.W L.L.M.N.O.|.|.|.|.|.P.Q.R.S.T.U.V.+.W.W.W.W.W.",
"< X.Y.Z.M.`. +O..+|.|.|.++@+#+$+%+&+*+=+J -+-+-+-+-+",
"< ;+>+,+'+)+!+~+{+]+|.^+/+(+_+:+<+[+}+|+9.1+1+1+1+1+",
"[ 2+3+4+5+6+7+8+9+0+a+b+c+d+e+f+g+h+i+j+: k+k+k+k+k+",
"l+m+n+o+p+|.|.|.|.|.|.|.|.|.|.|.q+r+s+t+: u+u+u+u+u+",
"v+w+x+Z y+|.|.|.|.|.|.|.|.|.|.|.z+A+B+C+< D+D+D+D+D+",
"} E+F+G+H+|.|.|.|.|.|.|.|.|.|.|.I+J+K+L+< M+M+M+M+M+",
"N+O+P+5.Q+R+S+T+U+V+W+X+Y+Z+`+ @.@+@@@#@< $@$@$@$@$@",
"%@&@*@=@-@;@>@;+,@'@)@!@~@{@]@A+^@/@(@_@< :@:@:@:@:@",
"<@[@}@|@1@2@2@F 3@4@5@6@7@8@9@0@a@(@b@c@l+d@d@d@d@d@",
"e@f@g@h@i@i@j@i@k@k@l@m@n@o@p@q@q@r@s@t@u@$@$@$@$@$@",
"v@w@J J J +.+.J J J J 9.: 9.: 9.9.9.x@y@z@A@A@A@A@A@",
"B@C@D@E@E@E@E@E@E@E@E@E@F@E@G@H@H@E@G@I@J@K@K@K@K@K@",
"L@L@L@L@L@L@L@L@L@L@L@L@L@M@M@L@L@L@L@L@L@N@N@N@N@N@",
"O@O@O@O@O@O@O@O@O@O@O@O@O@P@P@O@O@O@O@O@O@Q@Q@Q@Q@Q@",
". + @ # $ % $ % $ $ $ $ $ $ & $ $ $ @ * . = = = = = ",
"- ; > , ' ) ! ) ! ! ! ! ! ~ ~ ! ! ! { ] ^ . . . . . ",
"/ ( _ : : : : < < < < < < < < [ [ [ } | 1 2 2 2 2 2 ",
"3 4 R@S@T@U@V@W@X@Y@Z@`@ #.#.#+#@###$#l m n n n n n ",
": %#&#*#=#-#;#>#,#'#)#!#~#{#]#^#/#(###_#H I I I I I ",
"J :#<#[#}#|#1#2#3#4#5#6#7#8#9#0#a#b#c#d#+.@.@.@.@.@.",
"+.e#f#g#h#i#j#k#l#m#n#o#p#q#r#s#t#u#v#w#+._._._._._.",
"J x#y#z#i#A#k#m#n#B#B#B#C#D#E#F#G#H#I#J#+._._._._._.",
"9.U@K#L#j#M#N#O#P#B#B#B#u#(#H#Q#Q#H#I#R#+._._._._._.",
"9.S#3#T#U#V#W#X#Y#B#B#B#Z#`# $.$+$@$#$R#+._._._._._.",
": $$%$&$V#*$=$B#B#B#B#B#B#B#-$;$-$>$,$'$+.J.J.J.J.J.",
": )$8#!$!$~${$]$B#B#B#B#B#^$/$($;$_$:$<$+.W.W.W.W.W.",
"< [$}$|$~$1$2$]$3$B#B#B#4$5$6$7$8$9$0$a$J -+-+-+-+-+",
"< .#b$c$d$e$f$]$g$h$B#i$j$k$l$m$n$o$p$q$9.1+1+1+1+1+",
"[ r$s$t$e$u$v$w$x$y$z$A$B$C$D$E$F$G$H$I$: k+k+k+k+k+",
"l+J$K$L$M$B#B#B#B#B#B#B#B#B#B#B#N$O$P$Q$: u+u+u+u+u+",
"v+R$S$a#T$B#B#B#B#B#B#B#B#B#B#B#U$V$W$X$< D+D+D+D+D+",
"} Y$Z$`$ %B#B#B#B#B#B#B#B#B#B#B#.%+%@%#%< M+M+M+M+M+",
"N+$%%%G#&%*%=%-%;%>%,%'%)%!%~%{%]%^%/%(%< $@$@$@$@$@",
"%@_%:%<%[%.#}%.#|%1%2%3%4%5%6%V$7%8%9%0%< :@:@:@:@:@",
"<@a%b%c%d%e%e%####a%f%g%h%i%j%k%/%9%l%m%l+d@d@d@d@d@",
"e@f@n%o%p%p%q%p%r%r%s%I$t%u%X$v%v%w%x%t@u@$@$@$@$@$@",
"v@w@J J J +.+.J J J J 9.: 9.: 9.9.9.x@y@z@A@A@A@A@A@",
"B@C@D@E@E@E@E@E@E@E@E@E@F@E@G@H@H@E@G@I@J@K@K@K@K@K@",
"L@L@L@L@L@L@L@L@L@L@L@L@L@M@M@L@L@L@L@L@L@N@N@N@N@N@",
"O@O@O@O@O@O@O@O@O@O@O@O@O@P@P@O@O@O@O@O@O@Q@Q@Q@Q@Q@"};
