/* XPM */
static char * rollupO_xpm[] = {
"26 52 580 2",
"  	c None",
". 	c #0465F0",
"+ 	c #0864EB",
"@ 	c #0B64E6",
"# 	c #0B64E2",
"$ 	c #0C64E0",
"% 	c #0C64E2",
"& 	c #0E63E0",
"* 	c #0765ED",
"= 	c #0971F4",
"- 	c #055CE1",
"; 	c #0F5ACF",
"> 	c #1659C1",
", 	c #1A59B6",
"' 	c #1E5AB2",
") 	c #1D58B2",
"! 	c #1D59B1",
"~ 	c #1F58B1",
"{ 	c #1859BD",
"] 	c #0C5BD4",
"^ 	c #055BE2",
"/ 	c #1058D0",
"( 	c #5D97FB",
"_ 	c #BFF1FF",
": 	c #D6FFFF",
"< 	c #D5FFFF",
"[ 	c #D4FFFF",
"} 	c #CFFFFF",
"| 	c #5A98FF",
"1 	c #1158CE",
"2 	c #005CEB",
"3 	c #5D95F6",
"4 	c #EFFDFF",
"5 	c #B5D8FE",
"6 	c #A4CCFC",
"7 	c #97C5FB",
"8 	c #8BBFFB",
"9 	c #84BBFB",
"0 	c #7CB8FB",
"a 	c #7FB9FB",
"b 	c #77B3FB",
"c 	c #76B4FB",
"d 	c #73B1FB",
"e 	c #70B2FB",
"f 	c #65A9FA",
"g 	c #65ABFA",
"h 	c #61A9FB",
"i 	c #57A1FA",
"j 	c #4D99F8",
"k 	c #61A7F8",
"l 	c #E8FBFF",
"m 	c #6194EF",
"n 	c #0058E6",
"o 	c #B9D9FE",
"p 	c #CEE5FF",
"q 	c #CDE8FF",
"r 	c #C0E1FF",
"s 	c #B1D9FF",
"t 	c #A9D5FF",
"u 	c #A1D0FF",
"v 	c #9DD0FF",
"w 	c #9BCDFF",
"x 	c #96CCFF",
"y 	c #94CAFF",
"z 	c #8EC7FF",
"A 	c #8AC6FF",
"B 	c #81C2FF",
"C 	c #79BDFF",
"D 	c #6AB4FF",
"E 	c #5AA9FE",
"F 	c #4D97F6",
"G 	c #6897E2",
"H 	c #C6EFFF",
"I 	c #0056E4",
"J 	c #D9FFFF",
"K 	c #A9CEFC",
"L 	c #D0E9FF",
"M 	c #D2EBFF",
"N 	c #C6E3FF",
"O 	c #B8DCFF",
"P 	c #AFD7FF",
"Q 	c #A8D3FF",
"R 	c #A3D0FF",
"S 	c #A0CDFF",
"T 	c #9CCDFF",
"U 	c #9BCBFF",
"V 	c #96C9FF",
"W 	c #8FC7FF",
"X 	c #87C2FF",
"Y 	c #7DBFFF",
"Z 	c #71B8FF",
"` 	c #61AEFE",
" .	c #549CF7",
"..	c #4379CF",
"+.	c #DBFFFF",
"@.	c #0054E3",
"#.	c #9BC7FB",
"$.	c #C5E3FF",
"%.	c #C8E5FF",
"&.	c #BFDEFF",
"*.	c #B1D6FF",
"=.	c #A7D1FF",
"-.	c #A1CEFF",
";.	c #99C9FF",
">.	c #94C5FF",
",.	c #8CC1FF",
"'.	c #88C0FF",
").	c #80BCFE",
"!.	c #80BDFF",
"~.	c #77B8FF",
"{.	c #6EB3FF",
"].	c #68B1FE",
"^.	c #5DABFE",
"/.	c #559DF7",
"(.	c #4A7CD1",
"_.	c #0055E4",
":.	c #93C1FB",
"<.	c #B6DBFF",
"[.	c #BADCFF",
"}.	c #FFFFFF",
"|.	c #59A9FE",
"1.	c #55A6FE",
"2.	c #59A0F8",
"3.	c #5081D5",
"4.	c #D8FFFF",
"5.	c #8BBFFC",
"6.	c #AAD5FF",
"7.	c #AED6FF",
"8.	c #54A7FE",
"9.	c #55A7FE",
"0.	c #4F83D5",
"a.	c #84B9FB",
"b.	c #A6D1FF",
"c.	c #4DA7FF",
"d.	c #52A6FE",
"e.	c #559EF8",
"f.	c #83B9FC",
"g.	c #99CAFF",
"h.	c #9DCCFF",
"i.	c #9BCAFF",
"j.	c #97C7FF",
"k.	c #8EC2FF",
"l.	c #84BCFF",
"m.	c #7AB9FF",
"n.	c #71B3FF",
"o.	c #68B0FF",
"p.	c #5DADFF",
"q.	c #52A9FF",
"r.	c #45A4FE",
"s.	c #41A3FE",
"t.	c #4BA7FE",
"u.	c #54A0F8",
"v.	c #4D80D5",
"w.	c #0055E6",
"x.	c #74B2FB",
"y.	c #97C9FF",
"z.	c #83BBFE",
"A.	c #7AB6FE",
"B.	c #73B2FE",
"C.	c #65ADFE",
"D.	c #50AEFF",
"E.	c #4BABFF",
"F.	c #45A8FF",
"G.	c #3EA6FF",
"H.	c #41A6FE",
"I.	c #46A6FE",
"J.	c #50A0F9",
"K.	c #4880D5",
"L.	c #0056E9",
"M.	c #6BAEFB",
"N.	c #86C1FF",
"O.	c #8FC5FF",
"P.	c #92C6FF",
"Q.	c #8BC0FF",
"R.	c #7AB6FF",
"S.	c #71B1FE",
"T.	c #52B1FF",
"U.	c #46ADFF",
"V.	c #41AAFF",
"W.	c #3AA9FF",
"X.	c #3EA8FF",
"Y.	c #43A7FE",
"Z.	c #4B9EF8",
"`.	c #437DD5",
" +	c #0057EC",
".+	c #65AAFB",
"++	c #7FBDFF",
"@+	c #8AC3FF",
"#+	c #8EC4FF",
"$+	c #87BFFF",
"%+	c #7DB9FF",
"&+	c #76B4FF",
"*+	c #46B2FF",
"=+	c #3FAFFF",
"-+	c #38AEFF",
";+	c #35AAFF",
">+	c #37A7FE",
",+	c #419EF8",
"'+	c #3E7CD5",
")+	c #0059EE",
"!+	c #5CA4FB",
"~+	c #73B9FF",
"{+	c #81BEFF",
"]+	c #8CC3FE",
"^+	c #3EB3FF",
"/+	c #37B0FF",
"(+	c #31ADFF",
"_+	c #30A7FE",
":+	c #3799F8",
"<+	c #387AD5",
"[+	c #005BF2",
"}+	c #D2FFFF",
"|+	c #509EFB",
"1+	c #68B3FF",
"2+	c #7CBBFF",
"3+	c #83BEFF",
"4+	c #7ABBFF",
"5+	c #71B6FF",
"6+	c #65B3FF",
"7+	c #3CB6FF",
"8+	c #52B8FE",
"9+	c #31B1FF",
"0+	c #2CAEFF",
"a+	c #28A6FE",
"b+	c #2E98F8",
"c+	c #3376D4",
"d+	c #025FF8",
"e+	c #D1FFFF",
"f+	c #4698FA",
"g+	c #5FAEFF",
"h+	c #67B6FF",
"i+	c #38B5FF",
"j+	c #50B9FD",
"k+	c #2CB2FF",
"l+	c #21ABFF",
"m+	c #1FA2FE",
"n+	c #2593F7",
"o+	c #2C71D1",
"p+	c #0061F8",
"q+	c #3C93FA",
"r+	c #54A6FF",
"s+	c #64B0FF",
"t+	c #83C0FF",
"u+	c #7ABEFF",
"v+	c #73BCFF",
"w+	c #6BBBFF",
"x+	c #4DB9FE",
"y+	c #2AB1FF",
"z+	c #1DAAFF",
"A+	c #17A0FE",
"B+	c #1B8EF7",
"C+	c #266DD0",
"D+	c #0064F8",
"E+	c #CEFFFF",
"F+	c #3590F9",
"G+	c #459EFE",
"H+	c #6DAFFD",
"I+	c #65A9FC",
"J+	c #67AAFB",
"K+	c #64ABFB",
"L+	c #61ABFB",
"M+	c #5AAEFC",
"N+	c #4FAFFD",
"O+	c #43ABFE",
"P+	c #37A9FE",
"Q+	c #33B0FF",
"R+	c #23ADFF",
"S+	c #17A4FF",
"T+	c #129BFE",
"U+	c #198AF7",
"V+	c #256BD0",
"W+	c #046AFD",
"X+	c #CDFFFF",
"Y+	c #2A88F7",
"Z+	c #3896FD",
"`+	c #4B9EFE",
" @	c #59A4FD",
".@	c #2AA7FE",
"+@	c #149BFE",
"@@	c #0E93FD",
"#@	c #1484F4",
"$@	c #2167C9",
"%@	c #026AFD",
"&@	c #B6F5FF",
"*@	c #4B9CF8",
"=@	c #3386F4",
"-@	c #3F8EF4",
";@	c #4A93F6",
">@	c #5297F6",
",@	c #4D98F6",
"'@	c #4B99F6",
")@	c #4599F7",
"!@	c #3F9BF7",
"~@	c #389BF7",
"{@	c #3198F7",
"]@	c #2A96F8",
"^@	c #2392F7",
"/@	c #198BF6",
"(@	c #1779E9",
"_@	c #4686DA",
":@	c #056DFF",
"<@	c #5AA1FF",
"[@	c #E6FBFF",
"}@	c #5C90DF",
"|@	c #3570CD",
"1@	c #4176D1",
"2@	c #4377D0",
"3@	c #3F79D2",
"4@	c #3A76D0",
"5@	c #3877D2",
"6@	c #3174D1",
"7@	c #3176D4",
"8@	c #2C71D3",
"9@	c #286ED3",
"0@	c #2367CE",
"a@	c #4384DC",
"b@	c #E6FAFF",
"c@	c #639FFF",
"d@	c #1762DF",
"e@	c #659AF8",
"f@	c #C1F0FF",
"g@	c #639AFE",
"h@	c #1C62D4",
"i@	c #0466FB",
"j@	c #0C5DED",
"k@	c #135BE1",
"l@	c #165BDC",
"m@	c #165BDD",
"n@	c #155BDD",
"o@	c #155BDF",
"p@	c #165ADF",
"q@	c #125CE3",
"r@	c #0D5DEA",
"s@	c #055FF4",
"t@	c #0349CB",
"u@	c #0349CD",
"v@	c #054ECF",
"w@	c #164398",
"x@	c #164299",
"y@	c #164499",
"z@	c #343F4A",
"A@	c #3B4A5B",
"B@	c #3E5268",
"C@	c #405874",
"D@	c #415C7B",
"E@	c #406183",
"F@	c #415E80",
"G@	c #406288",
"H@	c #406289",
"I@	c #40638C",
"J@	c #3F668F",
"K@	c #3E699A",
"L@	c #3D6A9E",
"M@	c #3A6EA8",
"N@	c #376EB2",
"O@	c #3D6B9E",
"P@	c #333B46",
"Q@	c #272C31",
"R@	c #282D32",
"S@	c #2F373F",
"T@	c #36424E",
"U@	c #384856",
"V@	c #3B4D5E",
"W@	c #3C5062",
"X@	c #3C5164",
"Y@	c #3D5469",
"Z@	c #3E556B",
"`@	c #3E5871",
" #	c #3F5B75",
".#	c #3F5F7E",
"+#	c #3F6486",
"@#	c #3D6B95",
"##	c #3A6FA5",
"$#	c #456697",
"%#	c #3A4656",
"&#	c #262B2F",
"*#	c #25292D",
"=#	c #2C3239",
"-#	c #333D47",
";#	c #364350",
">#	c #394857",
",#	c #3A4B5C",
"'#	c #3B4D5F",
")#	c #3C5063",
"!#	c #3C5064",
"~#	c #3D5369",
"{#	c #3E5870",
"]#	c #3F5B78",
"^#	c #3F6282",
"/#	c #3E678E",
"(#	c #3C6C9E",
"_#	c #3A6CAB",
":#	c #3D6FBC",
"<#	c #3D4F64",
"[#	c #2C333A",
"}#	c #2B3137",
"|#	c #2F3740",
"1#	c #36414E",
"2#	c #394858",
"3#	c #3B4C5E",
"4#	c #3D5066",
"5#	c #3E536B",
"6#	c #3F5773",
"7#	c #3F5977",
"8#	c #405F7F",
"9#	c #3F5F7F",
"0#	c #3F6388",
"a#	c #3E6791",
"b#	c #3E6A97",
"c#	c #3B6EA2",
"d#	c #3A6CAA",
"e#	c #406CB5",
"f#	c #3F536C",
"g#	c #343E49",
"h#	c #323B45",
"i#	c #FFFFFE",
"j#	c #3A6FA6",
"k#	c #3971AA",
"l#	c #3B6BA6",
"m#	c #416AAF",
"n#	c #384755",
"o#	c #374351",
"p#	c #3871AB",
"q#	c #416DB0",
"r#	c #415A7B",
"s#	c #394959",
"t#	c #3576B2",
"u#	c #3871AD",
"v#	c #3A6FAA",
"w#	c #405B7C",
"x#	c #3D5166",
"y#	c #3C4E62",
"z#	c #3C4F64",
"A#	c #3D5168",
"B#	c #3E5671",
"C#	c #3F5B7B",
"D#	c #3F6185",
"E#	c #3E648E",
"F#	c #3D6997",
"G#	c #3B6DA2",
"H#	c #3774AD",
"I#	c #3378BA",
"J#	c #317DBE",
"K#	c #3577B4",
"L#	c #3A6FAB",
"M#	c #406BB2",
"N#	c #40638B",
"O#	c #3D5268",
"P#	c #405C7C",
"Q#	c #406085",
"R#	c #3F638C",
"S#	c #3D699A",
"T#	c #3677AF",
"U#	c #3479B4",
"V#	c #327BBA",
"W#	c #2E7DC1",
"X#	c #337BB9",
"Y#	c #3872AF",
"Z#	c #3E6EB7",
"`#	c #3F6794",
" $	c #3F5B79",
".$	c #3E5770",
"+$	c #3E556D",
"@$	c #3F5874",
"#$	c #3F6085",
"$$	c #3F648E",
"%$	c #3779AD",
"&$	c #327EB9",
"*$	c #3080BE",
"=$	c #2C82C5",
"-$	c #2E81C1",
";$	c #327CBC",
">$	c #3774B4",
",$	c #3B6FBC",
"'$	c #3F5F80",
")$	c #3F5975",
"!$	c #3E5771",
"~$	c #3F5A78",
"{$	c #3F5E82",
"]$	c #3F6289",
"^$	c #3281B9",
"/$	c #2F84C0",
"($	c #2B8AC7",
"_$	c #2988CA",
":$	c #2B84C8",
"<$	c #317ABE",
"[$	c #3872C1",
"}$	c #3C6CA3",
"|$	c #3F668C",
"1$	c #3F5E7E",
"2$	c #3F5873",
"3$	c #2E88C1",
"4$	c #2B8BC8",
"5$	c #278DCE",
"6$	c #278ACF",
"7$	c #2C7DC8",
"8$	c #3572C7",
"9$	c #3870AF",
"0$	c #3D6B97",
"a$	c #3F6083",
"b$	c #3F5D7C",
"c$	c #3E658E",
"d$	c #3C6D9A",
"e$	c #2D8CC3",
"f$	c #387FAD",
"g$	c #2791CE",
"h$	c #2493D3",
"i$	c #2290D7",
"j$	c #2783D1",
"k$	c #3172CC",
"l$	c #3472B9",
"m$	c #3B6DA0",
"n$	c #3D6E98",
"o$	c #2B8EC7",
"p$	c #3780AF",
"q$	c #1C97DE",
"r$	c #1C8FE0",
"s$	c #2185DA",
"t$	c #2C73D3",
"u$	c #2F74C3",
"v$	c #3870AB",
"w$	c #3C6B9B",
"x$	c #3F6385",
"y$	c #3F688C",
"z$	c #3E6C94",
"A$	c #3682B2",
"B$	c #2394D5",
"C$	c #1998E2",
"D$	c #1596E8",
"E$	c #1986E4",
"F$	c #2772D9",
"G$	c #2B76CA",
"H$	c #3375BA",
"I$	c #3E6692",
"J$	c #3E6898",
"K$	c #3E699B",
"L$	c #3D6D9E",
"M$	c #3B74A5",
"N$	c #377BB0",
"O$	c #327FBC",
"P$	c #2B87C8",
"Q$	c #2890CC",
"R$	c #1E96DC",
"S$	c #1496E8",
"T$	c #1192ED",
"U$	c #1782E6",
"V$	c #2772DA",
"W$	c #2477D5",
"X$	c #2C78C7",
"Y$	c #3571B4",
"Z$	c #3A6DA6",
"`$	c #2390D5",
" %	c #1392EB",
".%	c #0E8EF1",
"+%	c #1382EB",
"@%	c #2473DE",
"#%	c #3771B4",
"$%	c #2B73CC",
"%%	c #3171C0",
"&%	c #366FB5",
"*%	c #396AAD",
"=%	c #3476BA",
"-%	c #317BC0",
";%	c #2D80C7",
">%	c #2982CE",
",%	c #2484D5",
"'%	c #1F85DC",
")%	c #1779E8",
"!%	c #3B73B9",
"~%	c #4369A3",
"{%	c #3470CA",
"]%	c #3B6CBE",
"^%	c #3D6CBC",
"/%	c #396FC0",
"(%	c #3770C5",
"_%	c #3073CE",
":%	c #2F72CE",
"<%	c #2972D7",
"[%	c #256EDC",
"}%	c #3973BC",
". + @ # $ % $ % $ $ $ $ $ $ & $ $ $ @ * . = = = = = ",
"- ; > , ' ) ! ) ! ! ! ! ! ~ ~ ! ! ! { ] ^ . . . . . ",
"/ ( _ : : : : < < < < < < < < [ [ [ } | 1 2 2 2 2 2 ",
"3 4 5 6 7 8 9 0 a b c d e f g h i j k l m n n n n n ",
": o p q r s t u v w x y z A B C D E F G H I I I I I ",
"J K L M N O P Q R S T U V W X Y Z `  ...+.@.@.@.@.@.",
"+.#.$.%.&.*.=.-.;.>.,.'.).!.~.{.].^./.(.+._._._._._.",
"J :.<.[.*.}.}.}.}.}.}.}.}.}.}.}.|.1.2.3.+._._._._._.",
"4.5.6.7.=.}.}.}.}.}.}.}.}.}.}.}.8.9.2.0.+._._._._._.",
"4.a.R b.-.}.}.}.}.}.}.}.}.}.}.}.c.d.e.0.+._._._._._.",
": f.g.h.i.j.k.l.m.n.o.p.q.c.r.s.r.t.u.v.+.w.w.w.w.w.",
": x.W y.y.>.,.z.A.B.}.C.D.E.F.G.H.I.J.K.+.L.L.L.L.L.",
"< M.N.O.P.Q.z.R.S.}.}.}.T.U.V.W.X.Y.Z.`.J  + + + + +",
"< .+++@+#+$+%+&+}.}.}.}.}.*+=+-+;+>+,+'+4.)+)+)+)+)+",
"[ !+~+{+]+l.m.}.}.}.}.}.}.}.^+/+(+_+:+<+: [+[+[+[+[+",
"}+|+1+2+2+3+4+5+6+}.}.}.7+8+7+9+0+a+b+c+: d+d+d+d+d+",
"e+f+g+Z Z 3+4+~+h+}.}.}.i+j+i+k+l+m+n+o+< p+p+p+p+p+",
"} q+r+s+s+t+u+v+w+}.}.}.i+x+i+y+z+A+B+C+< D+D+D+D+D+",
"E+F+G+|.H+I+J+.+K+L+M+N+O+P+Q+R+S+T+U+V+< W+W+W+W+W+",
"X+Y+Z+`+ @I+J+.+K+L+M+N+O+P+.@m++@@@#@$@< %@%@%@%@%@",
"&@*@=@-@;@>@>@F ,@'@)@!@~@{@]@^@/@#@(@_@}+:@:@:@:@:@",
"<@[@}@|@1@1@2@1@3@3@4@5@6@7@8@9@9@0@a@b@c@W+W+W+W+W+",
"d@e@J J J +.+.J J J J 4.: 4.: 4.4.4.f@g@h@i@i@i@i@i@",
"j@k@l@m@m@m@m@m@m@m@m@m@n@m@o@p@p@m@o@q@r@s@s@s@s@s@",
"t@t@t@t@t@t@t@t@t@t@t@t@t@u@u@t@t@t@t@t@t@v@v@v@v@v@",
"w@w@w@w@w@w@w@w@w@w@w@w@w@x@x@w@w@w@w@w@w@y@y@y@y@y@",
". + @ # $ % $ % $ $ $ $ $ $ & $ $ $ @ * . = = = = = ",
"- ; > , ' ) ! ) ! ! ! ! ! ~ ~ ! ! ! { ] ^ . . . . . ",
"/ ( _ : : : : < < < < < < < < [ [ [ } | 1 2 2 2 2 2 ",
"3 4 z@A@B@C@D@E@F@G@H@I@J@K@K@L@M@N@O@l m n n n n n ",
": P@Q@R@S@T@U@V@W@X@Y@Z@`@ #.#+#@###N@$#H I I I I I ",
"J %#&#*#=#-#;#>#,#'#)#!#~#{#]#^#/#(#_#:#+.@.@.@.@.@.",
"+.<#[#}#|#1#2#3#4#5#6#7#8#9#0#a#b#c#d#e#+._._._._._.",
"J f#g#h#1#i#i#i#i#i#i#i#i#i#i#i#j#k#l#m#+._._._._._.",
"4.C@n#o#2#i#i#i#i#i#i#i#i#i#i#i#p#k#l#q#+._._._._._.",
"4.r#,#s#3#i#i#i#i#i#i#i#i#i#i#i#t#u#v#q#+._._._._._.",
": w#x#y#z#A#B#C#D#E#F#G#H#t#I#J#I#K#L#M#+.w.w.w.w.w.",
": N#{#O#O#5#6#P#Q#R#i#S#T#U#V#W#J#X#Y#Z#+.L.L.L.L.L.",
"< `# $.$+$@$P##$$$i#i#i#%$&$*$=$-$;$>$,$J  + + + + +",
"< K@'$)$!$~${$]$i#i#i#i#i#^$/$($_$:$<$[$4.)+)+)+)+)+",
"[ }$|$1$2$C#D#i#i#i#i#i#i#i#3$4$5$6$7$8$: [+[+[+[+[+",
"}+9$0$a$a$b$D#c$d$i#i#i#e$f$e$g$h$i$j$k$: d+d+d+d+d+",
"e+l$m$/#/#b$D#|$n$i#i#i#o$p$o$h$q$r$s$t$< p+p+p+p+p+",
"} u$v$w$w$b$x$y$z$i#i#i#o$A$o$B$C$D$E$F$< D+D+D+D+D+",
"E+G$H$j#I$K@J$K@K$L$M$N$O$P$Q$R$S$T$U$V$< W+W+W+W+W+",
"X+W$X$Y$Z$K@J$K@K$L$M$N$O$P$`$r$ %.%+%@%< %@%@%@%@%@",
"&@#%$%%%&%*%*%N@N@#%=%-%;%>%,%'%U$+%)%!%}+:@:@:@:@:@",
"<@[@~%{%]%]%^%]%/%/%(%8$_%:%t$<%<%[%}%b@c@W+W+W+W+W+",
"d@e@J J J +.+.J J J J 4.: 4.: 4.4.4.f@g@h@i@i@i@i@i@",
"j@k@l@m@m@m@m@m@m@m@m@m@n@m@o@p@p@m@o@q@r@s@s@s@s@s@",
"t@t@t@t@t@t@t@t@t@t@t@t@t@u@u@t@t@t@t@t@t@v@v@v@v@v@",
"w@w@w@w@w@w@w@w@w@w@w@w@w@x@x@w@w@w@w@w@w@y@y@y@y@y@"};
