/* XPM */
static char * dframeITR_xpm[] = {
"40 26 4 1",
" 	c None",
".	c #000000",
"+	c #CCCCCC",
"@	c #FFFFFF",
"........................................",
"+++++++++++++++++++++++++++++++++++++++.",
"                                      @.",
"                                      +.",
"                                      +.",
"                                      +.",
"                                      +.",
"                                      +.",
"                                      +.",
"                                      +.",
"                                      +.",
"                                      +.",
"                                      +.",
"                                      +.",
"                                      +.",
"                                      +.",
"                                      +.",
"                                      +.",
"                                      +.",
"                                      +.",
"                                      +.",
"                                      +.",
"                                      +.",
"                                      +.",
"                                      +.",
"                                      +."};
