/* XPM */
static char * dframeIBL_xpm[] = {
"40 26 4 1",
" 	c None",
".	c #000000",
"+	c #161E41",
"@	c #CCCCCC",
"..                                      ",
"..                                      ",
"..                                      ",
"..                                      ",
"..                                      ",
"..                                      ",
"..                                      ",
"..                                      ",
"..                                      ",
"..                                      ",
"..                                      ",
"..                                      ",
"..                                      ",
"..                                      ",
"..                                      ",
"..                                      ",
"..                                      ",
"..                                      ",
"..                                      ",
"..                                      ",
"..                                      ",
"..                                      ",
"..                                      ",
"..                                      ",
".++++++++++++++++++++++@@@+++++@@@+++++@",
"........................................"};
