/* XPM */
static char * frameATR_xpm[] = {
"40 26 5 1",
" 	c None",
".	c #000000",
"+	c #FFFFFF",
"@	c #CCCCCC",
"#	c #7F7F7F",
"........................................",
"++++++++++++++++++++++++++++++++++++++@.",
"@@@@@@@@@@@@@@@@@@@@@@@@@@@@@@@@@@@@@@#.",
"####################################@@#.",
"....................................+@#.",
"                                   .+@#.",
"                                   .+@#.",
"                                   .+@#.",
"                                   .+@#.",
"                                   .+@#.",
"                                   .+@#.",
"                                   .+@#.",
"                                   .+@#.",
"                                   .+@#.",
"                                   .+@#.",
"                                   .+@#.",
"                                   .+@#.",
"                                   .+@#.",
"                                   .+@#.",
"                                   .+@#.",
"                                   .+@#.",
"                                   .+@#.",
"                                   .+@#.",
"                                   .+@#.",
"                                   .+@#.",
"                                   .+@#."};
