/* XPM */
static char * frameITR_xpm[] = {
"40 26 6 1",
" 	c None",
".	c #2B2B2B",
"+	c #000000",
"@	c #FFFFFF",
"#	c #D5D5D5",
"$	c #959595",
".......................................+",
"@@@@@@@@@@@@@@@@@@@@@@@@@@@@@@@@@@@@@@#+",
"######################################$+",
"$$$$$$$$$$$$$$$$$$$$$$$$$$$$$$$$$$$$##$+",
"...................................+@#$+",
"                                   +@#$+",
"                                   .@#$+",
"                                   .@#$.",
"                                   .@#$.",
"                                   .@#$.",
"                                   .@#$.",
"                                   .@#$.",
"                                   .@#$.",
"                                   .@#$.",
"                                   .@#$.",
"                                   .@#$.",
"                                   .@#$.",
"                                   .@#$.",
"                                   .@#$.",
"                                   .@#$.",
"                                   .@#$.",
"                                   .@#$.",
"                                   .@#$.",
"                                   .@#$.",
"                                   .@#$.",
"                                   +@#$."};
