/* XPM */
static char * minimizeA_xpm[] = {
"17 40 120 2",
"  	c None",
". 	c #D9D9D9",
"+ 	c #7F7F7F",
"@ 	c #000000",
"# 	c #FFFFFF",
"$ 	c #CCCCCC",
"% 	c #DFE0DF",
"& 	c #DCDCDC",
"* 	c #DBDDDC",
"= 	c #DCDDDC",
"- 	c #D6D6D6",
"; 	c #D8D8D8",
"> 	c #D8D9D8",
", 	c #D7D9D8",
"' 	c #D8D9D7",
") 	c #D7D8D8",
"! 	c #D8D8D7",
"~ 	c #D4D4D4",
"{ 	c #D2D4D3",
"] 	c #D3D3D3",
"^ 	c #D2D4D2",
"/ 	c #D2D3D3",
"( 	c #D2D3D2",
"_ 	c #D3D3D2",
": 	c #D3D4D3",
"< 	c #D1D1D1",
"[ 	c #CDCECD",
"} 	c #CDCFCD",
"| 	c #CDCECE",
"1 	c #CFCFCF",
"2 	c #C8C9C8",
"3 	c #C7C9C7",
"4 	c #C8C9C7",
"5 	c #CDCDCD",
"6 	c #C3C4C3",
"7 	c #CACACA",
"8 	c #BEBFBE",
"9 	c #BDBFBE",
"0 	c #B9BAB9",
"a 	c #B8B9B8",
"b 	c #B8BAB8",
"c 	c #B8BAB9",
"d 	c #B9B9B8",
"e 	c #B9BAB8",
"f 	c #B8B9B9",
"g 	c #C7C7C7",
"h 	c #B4B4B4",
"i 	c #B3B4B4",
"j 	c #B3B4B3",
"k 	c #B3B5B4",
"l 	c #B4B4B3",
"m 	c #C4C4C4",
"n 	c #C1C1C1",
"o 	c #BEBEBE",
"p 	c #BBBBBB",
"q 	c #B8B8B8",
"r 	c #979797",
"s 	c #333333",
"t 	c #404040",
"u 	c #484848",
"v 	c #4A4B4A",
"w 	c #4B4B4B",
"x 	c #3D3D3D",
"y 	c #585958",
"z 	c #6A6B6A",
"A 	c #6F706F",
"B 	c #444444",
"C 	c #686868",
"D 	c #7F807F",
"E 	c #868786",
"F 	c #878887",
"G 	c #878787",
"H 	c #454545",
"I 	c #6C6C6C",
"J 	c #848484",
"K 	c #8A8B8B",
"L 	c #8C8C8B",
"M 	c #8B8C8C",
"N 	c #8C8C8C",
"O 	c #696A69",
"P 	c #818181",
"Q 	c #888988",
"R 	c #898A89",
"S 	c #898989",
"T 	c #424242",
"U 	c #666766",
"V 	c #7D7F7D",
"W 	c #848584",
"X 	c #858686",
"Y 	c #858785",
"Z 	c #858685",
"` 	c #646564",
" .	c #7A7B7A",
"..	c #818281",
"+.	c #828382",
"@.	c #3E3F3E",
"#.	c #626362",
"$.	c #787978",
"%.	c #3E3E3E",
"&.	c #5F5F5F",
"*.	c #757575",
"=.	c #7B7C7C",
"-.	c #7C7C7C",
";.	c #3C3C3C",
">.	c #5C5D5C",
",.	c #717171",
"'.	c #777877",
").	c #787878",
"!.	c #3A3A3A",
"~.	c #5A5A5A",
"{.	c #6E6E6E",
"].	c #747474",
"^.	c #757675",
"/.	c #363636",
"(.	c #555555",
"_.	c #6C6D6D",
":.	c #6D6E6D",
"<.	c #6D6F6E",
"[.	c #6D6E6E",
"}.	c #6E6E6D",
". . . . . . . . . . . . . . . . . ",
"+ + + + + + + + + + + + + + + . . ",
"+ @ @ @ @ @ @ @ @ @ @ @ @ @ @ # . ",
"+ @ # # # # # # # # # # # $ @ # . ",
"+ @ # % % % % % % % % % % + @ # . ",
"+ @ # & * = * & = = = = = + @ # - ",
"+ @ # ; > , ' , ) ' ! ' , + @ # ~ ",
"+ @ # { ] { ^ / ( _ : { ] + @ # < ",
"+ @ # [ } [ | } [ [ [ } [ + @ # 1 ",
"+ @ # 2 2 2 3 4 2 2 4 2 2 + @ # 5 ",
"+ @ # 6 6 @ @ @ @ @ @ 6 6 + @ # 7 ",
"+ @ # 8 8 @ @ @ @ @ @ 9 8 + @ # 7 ",
"+ @ # 0 a b c d e d c e f + @ # g ",
"+ @ # h h i j k k i j j l + @ # m ",
"+ @ $ + + + + + + + + + + + @ # n ",
"+ @ @ @ @ @ @ @ @ @ @ @ @ @ @ # o ",
"p # # # # # # # # # # # # # # # p ",
"q q q q q q q q q q q q q q q q q ",
"r r r r r r r r r r r r r r r r r ",
"@ @ @ @ @ @ @ @ @ @ @ @ @ @ @ @ @ ",
". . . . . . . . . . . . . . . . . ",
"+ + + + + + + + + + + + + + + . . ",
"+ @ @ @ @ @ @ @ @ @ @ @ @ @ @ # . ",
"+ @ s t u v w w w w w w w w @ # . ",
"+ @ x y z A A A A A A A A A @ # . ",
"+ @ B C D E F G F F F F F G @ # - ",
"+ @ H I J K L M M L L L M N @ # ~ ",
"+ @ B O P Q R S S S R R S R @ # < ",
"+ @ T U V W X Y Z Z Z Y Z Z @ # 1 ",
"+ @ t `  ...+.+.+.+.+.+.+.+.@ # 5 ",
"+ @ @.#.$.@ @ @ @ @ @ D D D @ # 7 ",
"+ @ %.&.*.@ @ @ @ @ @ =.-.-.@ # 7 ",
"+ @ ;.>.,.'.$.).$.).$.$.).$.@ # g ",
"+ @ !.~.{.].*.^.^.*.*.*.*.*.@ # m ",
"+ @ /.(.C _.:.<.<.[.:.:.}.{.@ # n ",
"+ @ @ @ @ @ @ @ @ @ @ @ @ @ @ # o ",
"p # # # # # # # # # # # # # # # p ",
"q q q q q q q q q q q q q q q q q ",
"r r r r r r r r r r r r r r r r r ",
"@ @ @ @ @ @ @ @ @ @ @ @ @ @ @ @ @ "};
