/* XPM */
static char * rolldownI_xpm[] = {
"17 40 51 1",
" 	c None",
".	c #D9D9D9",
"+	c #959595",
"@	c #D5D5D5",
"#	c #505050",
"$	c #FFFFFF",
"%	c #E4E5E4",
"&	c #E2E2E2",
"*	c #E1E3E2",
"=	c #E2E3E2",
"-	c #D6D6D6",
";	c #DFDFDF",
">	c #DFDFDE",
",	c #DEDFDF",
"'	c #D4D4D4",
")	c #DADBDA",
"!	c #DADADA",
"~	c #D1D1D1",
"{	c #D5D6D5",
"]	c #D5D7D5",
"^	c #CFCFCF",
"/	c #D1D2D1",
"(	c #D0D0D0",
"_	c #CDCECD",
":	c #CDCDCD",
"<	c #C9CAC9",
"[	c #C8CAC9",
"}	c #CACACA",
"|	c #C5C6C5",
"1	c #C4C5C4",
"2	c #C4C6C4",
"3	c #C4C6C5",
"4	c #C5C5C4",
"5	c #C5C6C4",
"6	c #C4C5C5",
"7	c #C1C1C1",
"8	c #C0C1C1",
"9	c #C0C1C0",
"0	c #C1C1C0",
"a	c #B8B8B8",
"b	c #979797",
"c	c #2B2B2B",
"d	c #000000",
"e	c #CCCCCC",
"f	c #676767",
"g	c #9B9B9B",
"h	c #343434",
"i	c #C7C7C7",
"j	c #C4C4C4",
"k	c #BEBEBE",
"l	c #BBBBBB",
".................",
"+++++++++++++++@.",
"+##############$.",
"+#$$$$$$$$$$$@#$.",
"+#$%%%%%%%%%%+#$.",
"+#$&*=*&=====+#$-",
"+#$;;######>,+#$'",
"+#$)!)####))!+#$~",
"+#${]{]##]{]{+#$^",
"+#$//////////+#$(",
"+#$__######__+#$:",
"+#$<<######[<+#$}",
"+#$|123454356+#$~",
"+#$7789888990+#$^",
"+#@+++++++++++#$(",
"+##############$:",
"a$$$$$$$$$$$$$$$}",
"aaaaaaaaaaaaaaaaa",
"bbbbbbbbbbbbbbbbb",
"ccccccccccccccccd",
".................",
"eeeeeeeeeeeeeeee.",
"effffffffffffffe.",
"efggggggggggggfe.",
"efggggggggggggfe.",
"efggggggggggggfe-",
"efggghhhhhhgggfe'",
"efgggghhhhggggfe~",
"efggggghhgggggfe^",
"efggggggggggggfe(",
"efggghhhhhhgggfe:",
"efggghhhhhhgggfe}",
"efggggggggggggfei",
"efggggggggggggfej",
"efggggggggggggfe7",
"effffffffffffffek",
"eeeeeeeeeeeeeeeel",
"eeeeeeeeeeeeeeeea",
"aaaaaaaaaaaaaaaaa",
"bbbbbbbbbbbbbbbbb"};
