/* XPM */
static char * xterm_16x16_xpm[] = {
"16 16 65 1",
" 	c None",
".	c #020202",
"+	c #525252",
"@	c #8A8A8A",
"#	c #CACAC2",
"$	c #88A1CF",
"%	c #262626",
"&	c #A4A39F",
"*	c #676665",
"=	c #F4F0E6",
"-	c #9AAED6",
";	c #B3B1AB",
">	c #6E6A66",
",	c #E7E5DF",
"'	c #A6B6DA",
")	c #6C8AC4",
"!	c #BABEC6",
"~	c #363636",
"{	c #787873",
"]	c #B4C4E1",
"^	c #6282C2",
"/	c #D6D2CE",
"(	c #9A9A9A",
"_	c #424242",
":	c #B4C4DA",
"<	c #D2DAE8",
"[	c #817E7A",
"}	c #728EC6",
"|	c #B7BFCE",
"1	c #565656",
"2	c #CDD6E3",
"3	c #94ABD4",
"4	c #BDCBE5",
"5	c #4D4B4B",
"6	c #C8CCD4",
"7	c #5A5A5A",
"8	c #959492",
"9	c #3E3E3E",
"0	c #7894C8",
"a	c #BAC0CA",
"b	c #A6BADA",
"c	c #323232",
"d	c #ABAAA7",
"e	c #C3CDE2",
"f	c #92A6D2",
"g	c #828282",
"h	c #8099CB",
"i	c #FCF8EC",
"j	c #A0B4D9",
"k	c #C2C6CE",
"l	c #BEBAB6",
"m	c #DEDCD4",
"n	c #C2BEBA",
"o	c #60605F",
"p	c #717170",
"q	c #BCC6E0",
"r	c #CAD2DE",
"s	c #8EA6D2",
"t	c #9A9A96",
"u	c #7E7A76",
"v	c #666262",
"w	c #EEEAE2",
"x	c #ADBDDD",
"y	c #C2C2C2",
"z	c #CAD2EA",
"  nnnnnnnnnnn[  ",
" gix::q4er2<,u  ",
" gi^)0h$3-'x2p  ",
" g=)0h$f-'x]r>  ",
" g=}0$s-jb]46v  ",
" gw0h$3jb]4e6o  ",
" g,h$3j'xqe2k1  ",
" g,$f-'x]ez<y5  ",
" gm|||!aa!!!d5  ",
" gm/#yl;d&t8@_  ",
"  .._______..   ",
"    pvo75~%.    ",
"  dn[[[[[[[[[   ",
" &;uuu[[u{p&*v  ",
"g;{p&p(888**vgv ",
"+999999_99~~~cc "};
