/* XPM */
static char * lxinput_16x16_xpm[] = {
"16 16 62 1",
" 	c None",
".	c #A0A09C",
"+	c #9FA09C",
"@	c #9FA19D",
"#	c #949490",
"$	c #989895",
"%	c #9D9F9A",
"&	c #9FA19C",
"*	c #A0A09D",
"=	c #A1A39E",
"-	c #A9ACA5",
";	c #ABAEA7",
">	c #ADB1A9",
",	c #AFB2AB",
"'	c #B1B5AD",
")	c #B4B7B0",
"!	c #B6B9B1",
"~	c #B8BBB4",
"{	c #B7BAB3",
"]	c #B9BCB5",
"^	c #BBBFB7",
"/	c #BABDB7",
"(	c #E7E9E4",
"_	c #ECEEEA",
":	c #F0F2EE",
"<	c #F5F6F3",
"[	c #F8F9F7",
"}	c #FAFBFA",
"|	c #FAFAF9",
"1	c #EFF0EE",
"2	c #E5E7E4",
"3	c #E8E9E6",
"4	c #AFB0AB",
"5	c #8C8F8A",
"6	c #CACBC8",
"7	c #DDDFDC",
"8	c #C3C6C0",
"9	c #D0D1CE",
"0	c #D0D2CE",
"a	c #D0D2CF",
"b	c #D1D3D0",
"c	c #C3C5C2",
"d	c #E2E3E0",
"e	c #DFE0DD",
"f	c #C4C6C1",
"g	c #E1E3E0",
"h	c #BCBFBB",
"i	c #8F918C",
"j	c #DADBD8",
"k	c #DDDEDB",
"l	c #E0E0DE",
"m	c #DCDEDB",
"n	c #E0E1DE",
"o	c #DDDEDC",
"p	c #E6E7E4",
"q	c #DEE0DD",
"r	c #D5D6D3",
"s	c #8E8F8A",
"t	c #8C8E89",
"u	c #8D8F8A",
"v	c #8E908B",
"w	c #8D8E8A",
"                ",
"                ",
"                ",
"         ..++@  ",
"      #$%    +  ",
"            &+  ",
"           +*   ",
"          +     ",
" =-;>,')!~{{]^  ",
" /(_:<[}|[1234  ",
"567890abcdefgh  ",
"ijklmmmmnkopqrs ",
"tuvvvvvvvvvvvuw ",
"                ",
"                ",
"                "};
