/* XPM */
static char *adobereader___x__[] = {
/* columns rows colors chars-per-pixel */
"16 16 201 2",
"   c #4F5C01CA01CA",
".  c #530E01580152",
"X  c #52AD01FB0115",
"o  c #52CF02D401C2",
"O  c #530C03520198",
"+  c #53FE01990199",
"@  c #556A01C801C8",
"#  c #56CC01F101F1",
"$  c #513E04F4027F",
"%  c #539103A201C6",
"&  c #54DA043901F0",
"*  c #56DB04E80236",
"=  c #581105370285",
"-  c #5912056D02BA",
";  c #5BC704F20297",
":  c #603D029B029B",
">  c #65A7011E011E",
",  c #66D300FB00FB",
"<  c #646A030301F3",
"1  c #656602AD0234",
"2  c #65FC02730274",
"3  c #61A804C302B0",
"4  c #63AE03F20223",
"5  c #636C050302AE",
"6  c #62C005BA02C4",
"7  c #67D1055F0302",
"8  c #695A02CD02CD",
"9  c #6A9002E802E8",
"0  c #6B78033D033D",
"q  c #69B4051F0303",
"w  c #6BA8046A02BB",
"e  c #6AC604C002BB",
"r  c #6C6E044202EB",
"t  c #6D3E040C02DC",
"y  c #6E7F03C402D7",
"u  c #6E8805870308",
"i  c #6D850560039C",
"p  c #707D022F0231",
"a  c #6FF0031E0306",
"s  c #70DF057B0324",
"d  c #727B054A0373",
"f  c #752A04DB030E",
"g  c #768F0449031B",
"h  c #73D805260394",
"j  c #767003E303E3",
"k  c #775404470447",
"l  c #756D060E03B6",
"z  c #7A7301B301B4",
"x  c #7D44025B0111",
"c  c #781504440350",
"v  c #7C02049302F9",
"b  c #79C103FC0397",
"n  c #7A6305E10413",
"m  c #7BF9059703A2",
"M  c #79330828063A",
"N  c #7C4B099B082F",
"B  c #821902E70258",
"V  c #847002CE02C9",
"C  c #802803CC02CA",
"Z  c #830C0513031D",
"A  c #825404CB04CB",
"S  c #83FA04A304A3",
"D  c #809205C50477",
"F  c #83D8069B069B",
"G  c #861805B604CC",
"H  c #8B0E06B104D3",
"J  c #8B58066F0589",
"K  c #8ED1044D044D",
"L  c #8F28061604BB",
"P  c #8D8F05ED05ED",
"I  c #905E05520552",
"U  c #91F806490520",
"Y  c #905F06720633",
"T  c #948F06500653",
"R  c #969506940592",
"E  c #999E05200520",
"W  c #98B506530653",
"Q  c #992A067F067F",
"!  c #987F06D505D2",
"~  c #985B06AA06AA",
"^  c #9BCD06740674",
"/  c #9B0406E40639",
"(  c #9DDD07660684",
")  c #9CE806870687",
"_  c #9EEB076806A6",
"`  c #9FEC06FB06A5",
"'  c #944D08D607D5",
"]  c #985309C108CE",
"[  c #8C5A0FAC0FAD",
"{  c #81081F071F07",
"}  c #90C2197C17B3",
"|  c #96E7184B184B",
" . c #94271A8619BF",
".. c #A39C0736070E",
"X. c #A4DA063A063A",
"o. c #A4FE06FF06F2",
"O. c #A539073C0702",
"+. c #A75307130713",
"@. c #A90703DC03DD",
"#. c #A8E5071F071F",
"$. c #A9BA071A071B",
"%. c #ABAE07260728",
"&. c #ADA404A404A4",
"*. c #AD9C07530753",
"=. c #AEB407710772",
"-. c #A5C00F280F28",
";. c #AF2B07B307B3",
":. c #B324054A054A",
">. c #BD4C06E906E9",
",. c #B0AF07A607A6",
"<. c #B18707B507B5",
"1. c #B3AE07E107E1",
"2. c #B49407EC07EC",
"3. c #B5BF07E707E7",
"4. c #B75908060806",
"5. c #B88908090809",
"6. c #BA1808C608C6",
"7. c #BA6707A107A1",
"8. c #BB8308030803",
"9. c #BDAD083C083C",
"0. c #BEC9082B082B",
"q. c #BFDD08510851",
"w. c #B8FA0E7E0E7E",
"e. c #859B24822482",
"r. c #8E6126742674",
"t. c #9065273725AE",
"y. c #9C3126AA2690",
"u. c #9F9238533783",
"i. c #A2372E8E2E90",
"p. c #AA212A0B2A0B",
"a. c #B18534E634E7",
"s. c #BE233BE93BE9",
"d. c #C1D6087A087A",
"f. c #C2E808870887",
"g. c #C2F108D108D1",
"h. c #C48B09330933",
"j. c #C62808E208E2",
"k. c #C64C08340834",
"l. c #C71C08EF08EF",
"z. c #CA2009570957",
"x. c #CA6F09550955",
"c. c #CCDA08C408C4",
"v. c #CCE909920992",
"b. c #CEB909DE09DE",
"n. c #D279094A094A",
"m. c #D0D109FE09FE",
"M. c #D64D0A120A12",
"N. c #D6510AC80AC8",
"B. c #D74209F609F6",
"V. c #D7B2098D098D",
"C. c #D9200A2F0A2F",
"Z. c #D9210ADC0ADC",
"A. c #DAEA0A430A43",
"S. c #DD7C093F093F",
"D. c #DEBF09000900",
"F. c #DE330A8C0A8C",
"G. c #D0061AB81AB8",
"H. c #D11E17411741",
"J. c #D6A21B531B53",
"K. c #E2570AE40AE4",
"L. c #E4E30B3A0B3A",
"P. c #E5F10B1D0B1D",
"I. c #E6FF0B670B67",
"U. c #E7700B420B42",
"Y. c #EAEE0BEB0BEB",
"T. c #ED2F0BF70BF7",
"R. c #EE370BF50BF5",
"E. c #F0F80C030C03",
"W. c #F22A0C110C11",
"Q. c #F2F90C040C04",
"!. c #F3F80C0F0C0F",
"~. c #F4F60C0E0C0E",
"^. c #F9ED0C530C53",
"/. c #FA8A0C6B0C6B",
"(. c #E23811F611F6",
"). c #C97F209E209E",
"_. c #DC49206C206C",
"`. c #C4B1327A327A",
"'. c #AD994F464E4E",
"]. c #B18141A941AA",
"[. c #B1FB46CB46CB",
"{. c #AF4A50035003",
"}. c #A999546C5351",
"|. c #AE705B095A23",
" X c #AF715F575F57",
".X c #BACF62CC62CC",
"XX c #B95A6AFE6AFE",
"oX c #BC6769FA695B",
"OX c #BA4C78607860",
"+X c #C1CD53195319",
"@X c #C9F85AEC5AEC",
"#X c #E36042414241",
"$X c #C5BC63C263C3",
"%X c #C562683B683B",
"&X c #C7FC7F617EE9",
"*X c #E4FE6F686F68",
"=X c #E2937A357A35",
"-X c #CD8A8AAE8A87",
";X c #DE7F80808080",
":X c #DBE88A0B8A0B",
">X c None",
/* pixels */
">XR.Q.Q.!.U.P.D.N.n.x.h.6.3.;.>X",
"Z.~././.!.R.P.D.N.b.x.h.6.:.;.R ",
"N.Q.Q.Q.R.P.(.#XJ.b.k.q.3.<.$.R ",
"b.U.U.P.K.Z._.*XH.k.q.3.<.$...Y ",
"h.Z.Z.Z.N.n.H.=X).>.3.<.*.O.( J ",
"6.b.b.b.x.k.h.;X`.:.;.+...( Q G ",
";.h.h.q.q.7.w.:X@X%.+...Q R U D ",
"..3.:.<.:.%.s.+X$Xa.Q ] ' L J n ",
"Q $.$.$.+.-.%Xp.].-X&XoX'.} Z g ",
"L ) Q Q Q [..Xi.y.} u.|.}.t.m i ",
"A I I | {.XX[ V B B x c N M g 7 ",
"b A D  XOXr.z b c g g d d d i 6 ",
"9 j j e.{ p p p t t i q q q q ; ",
": 9 9 < < < < < < < < 6 6 6 6 * ",
"X @ @ @ X X X X X X $ * * * ;   ",
">X>X>X>X>X>X>X>X>X>X>X>X>X>X>X>X"
};
