/* XPM */
static char *magick[] = {
/* columns rows colors chars-per-pixel */
"20 40 4 1",
"  c #A0A0A0",
". c #FFFFFF",
"X c #808080",
"o c #000000",
/* pixels */
"                    ",
"                    ",
"                    ",
"                    ",
"       XooooX       ",
"      XooooooX      ",
"     Xoo....ooX     ",
"     oooX..Xooo     ",
"     oooo..oooo     ",
"     oo......oo     ",
"     ooo....ooo     ",
"     Xooo..oooX     ",
"      XooooooX      ",
"       XooooX       ",
"                    ",
"                    ",
"                    ",
"                    ",
"                    ",
"                    ",
"                    ",
"                    ",
"       XooooX       ",
"     XooooooooX     ",
"    XooooooooooX    ",
"    oooooooooooo    ",
"   Xoooo....ooooX   ",
"   oooooX..Xooooo   ",
"   oooooo..oooooo   ",
"   oooo......oooo   ",
"   ooooo....ooooo   ",
"   Xooooo..oooooX   ",
"    oooooooooooo    ",
"    XooooooooooX    ",
"     XooooooooX     ",
"       XooooX       ",
"                    ",
"                    ",
"                    ",
"                    "
};
