/* XPM */
static char *magick[] = {
/* columns rows colors chars-per-pixel */
"20 40 4 1",
"  c #D0D0D0",
". c #808080",
"X c #FFFFFF",
"o c #000000",
/* pixels */
"                    ",
"                    ",
"                    ",
"                    ",
"       .oooo.       ",
"      oooooooo      ",
"     .ooXXXXoo.     ",
"     ooooXXoooo     ",
"     ooooXXoooo     ",
"     ooXXXXXXoo     ",
"     oooXXXXooo     ",
"     .oooXXooo.     ",
"      oooooooo      ",
"       .oooo.       ",
"                    ",
"                    ",
"                    ",
"                    ",
"                    ",
"                    ",
"                    ",
"                    ",
"       oooooo       ",
"     .oooooooo.     ",
"    .oooooooooo.    ",
"    oooooooooooo    ",
"   oooooXXXXooooo   ",
"   ooooooXXoooooo   ",
"   ooooooXXoooooo   ",
"   ooooXXXXXXoooo   ",
"   oooooXXXXooooo   ",
"   ooooooXXoooooo   ",
"    oooooooooooo    ",
"    .oooooooooo.    ",
"     .oooooooo.     ",
"       oooooo       ",
"                    ",
"                    ",
"                    ",
"                    "
};
