/* XPM */
static char *magick[] = {
/* columns rows colors chars-per-pixel */
"20 40 4 1",
"  c #A0A0A0",
". c #FFFFFF",
"X c #808080",
"o c #000000",
/* pixels */
"                    ",
"                    ",
"                    ",
"                    ",
"       XooooX       ",
"      XooooooX      ",
"     XooooooooX     ",
"     ooo....ooo     ",
"     ooo....ooo     ",
"     ooo....ooo     ",
"     ooo....ooo     ",
"     XooooooooX     ",
"      XooooooX      ",
"       XooooX       ",
"                    ",
"                    ",
"                    ",
"                    ",
"                    ",
"                    ",
"                    ",
"                    ",
"       XooooX       ",
"     XooooooooX     ",
"    XooooooooooX    ",
"    oooooooooooo    ",
"   XooooooooooooX   ",
"   ooooo....ooooo   ",
"   ooooo....ooooo   ",
"   ooooo....ooooo   ",
"   ooooo....ooooo   ",
"   XooooooooooooX   ",
"    oooooooooooo    ",
"    XooooooooooX    ",
"     XooooooooX     ",
"       XooooX       ",
"                    ",
"                    ",
"                    ",
"                    "
};
