/* XPM */
static char * devstation_16x16_xpm[] = {
"16 16 67 1",
" 	c None",
".	c #010101",
"+	c #000000",
"@	c #9F9F00",
"#	c #EBEB00",
"$	c #E8E800",
"%	c #D0D000",
"&	c #3B3B00",
"*	c #010100",
"=	c #3F3F00",
"-	c #060600",
";	c #5D5D00",
">	c #CFCF00",
",	c #9B9B00",
"'	c #0C0C00",
")	c #9E9E00",
"!	c #838300",
"~	c #171700",
"{	c #090900",
"]	c #040400",
"^	c #E5E500",
"/	c #D2D200",
"(	c #BDBD00",
"_	c #1A1A00",
":	c #727200",
"<	c #4B4B00",
"[	c #424200",
"}	c #666600",
"|	c #A1A100",
"1	c #CDCD00",
"2	c #565600",
"3	c #828200",
"4	c #DEDE00",
"5	c #7C7C00",
"6	c #DBDB00",
"7	c #0E0E00",
"8	c #363600",
"9	c #121200",
"0	c #191900",
"a	c #CBCB00",
"b	c #E6E600",
"c	c #E1E100",
"d	c #646400",
"e	c #292900",
"f	c #262600",
"g	c #303000",
"h	c #272700",
"i	c #101000",
"j	c #020200",
"k	c #070700",
"l	c #232300",
"m	c #535300",
"n	c #5A5A00",
"o	c #2E2E00",
"p	c #151500",
"q	c #2A2A00",
"r	c #1D1D00",
"s	c #2B2B00",
"t	c #131300",
"u	c #222200",
"v	c #696900",
"w	c #7F7F00",
"x	c #CACA00",
"y	c #6F6F00",
"z	c #6C6C00",
"A	c #939300",
"B	c #505000",
"                ",
".+++++++++++++++",
"++++++++++++++++",
"+++++++@#$%&*+++",
"+++=-+;>,')!++++",
"+++~{]'^/(!_*+++",
"+++:<[]+}|1%++++",
"+++2++345+6^++++",
"+++7890a^bcd++++",
"++++ef++gh9+++++",
"+ijk+&lm[2nopq++",
"+rstuvw5cxyzAB++",
"++++++++++++++++",
"++++++++++++++++",
"++++++++++++++++",
"                "};
