/* XPM */
static char * tigervnc_32x32_xpm[] = {
"32 32 362 2",
"  	c None",
". 	c #000000",
"+ 	c #030000",
"@ 	c #8F6D56",
"# 	c #C29F87",
"$ 	c #CEA489",
"% 	c #8F7D71",
"& 	c #BF8C6B",
"* 	c #CB895E",
"= 	c #CB8150",
"- 	c #CE7A42",
"; 	c #673E23",
"> 	c #150D07",
", 	c #BB5D1E",
"' 	c #CB6521",
") 	c #C96421",
"! 	c #B3591D",
"~ 	c #683311",
"{ 	c #574C45",
"] 	c #FFEBDC",
"^ 	c #FFE2CB",
"/ 	c #FFCAA8",
"( 	c #FFC095",
"_ 	c #C49A7D",
": 	c #E5A173",
"< 	c #FEA569",
"[ 	c #FE9C5A",
"} 	c #FD924B",
"| 	c #432D1E",
"1 	c #492711",
"2 	c #FF7F29",
"3 	c #FF7F2A",
"4 	c #FF832B",
"5 	c #F37928",
"6 	c #3F1F0A",
"7 	c #5B4D44",
"8 	c #FFFFFF",
"9 	c #C2A490",
"0 	c #FF8838",
"a 	c #FF7E29",
"b 	c #FF7D27",
"c 	c #CB631E",
"d 	c #B0561A",
"e 	c #FF7F28",
"f 	c #FE7E28",
"g 	c #DC6D23",
"h 	c #C3601F",
"i 	c #FF802A",
"j 	c #FE7E29",
"k 	c #FF812A",
"l 	c #FF852C",
"m 	c #FF862C",
"n 	c #FF842B",
"o 	c #3E1F0A",
"p 	c #020000",
"q 	c #FFF3DF",
"r 	c #B39D8E",
"s 	c #080000",
"t 	c #EE7627",
"u 	c #ED7627",
"v 	c #A5521B",
"w 	c #572B0E",
"x 	c #351A08",
"y 	c #FB7D29",
"z 	c #DE6E24",
"A 	c #8A4517",
"B 	c #341908",
"C 	c #0E0702",
"D 	c #040100",
"E 	c #1B0D03",
"F 	c #4F270C",
"G 	c #B2581D",
"H 	c #EF7727",
"I 	c #FC8637",
"J 	c #080301",
"K 	c #C2601F",
"L 	c #FC7E29",
"M 	c #BA5C1E",
"N 	c #C66320",
"O 	c #B0571D",
"P 	c #2D1607",
"Q 	c #050100",
"R 	c #010000",
"S 	c #2F1F15",
"T 	c #433023",
"U 	c #2C1C12",
"V 	c #4E2205",
"W 	c #70350C",
"X 	c #C39F87",
"Y 	c #603010",
"Z 	c #703812",
"` 	c #FF822B",
" .	c #FF7E28",
"..	c #FF7D26",
"+.	c #5C2D0E",
"@.	c #50270C",
"#.	c #FB7C27",
"$.	c #E87123",
"%.	c #231308",
"&.	c #211F1E",
"*.	c #655A52",
"=.	c #C1BEBD",
"-.	c #D6D6D6",
";.	c #ABA4A0",
">.	c #C7A289",
",.	c #CAA389",
"'.	c #FFBF95",
").	c #FF7F27",
"!.	c #8B4616",
"~.	c #5A2D0F",
"{.	c #FF7D22",
"].	c #FF8C41",
"^.	c #FFB685",
"/.	c #FFBE92",
"(.	c #FFAB74",
"_.	c #EA8541",
":.	c #F78132",
"<.	c #FF9752",
"[.	c #FEC6A1",
"}.	c #ECE0D8",
"|.	c #F2F1EF",
"1.	c #CBCBCB",
"2.	c #CB9B7B",
"3.	c #FFB686",
"4.	c #FF8028",
"5.	c #7A3D13",
"6.	c #6E4225",
"7.	c #FFE0C7",
"8.	c #F9FDFF",
"9.	c #FAFDFF",
"0.	c #FEFFFF",
"a.	c #EEF0F2",
"b.	c #D9D9D9",
"c.	c #CCCCCC",
"d.	c #C2C2C2",
"e.	c #C7C7C7",
"f.	c #D2D2D2",
"g.	c #CFCFCF",
"h.	c #787878",
"i.	c #0B0B0B",
"j.	c #CB926D",
"k.	c #FEAD77",
"l.	c #FF8229",
"m.	c #411E07",
"n.	c #999B9B",
"o.	c #BDBDBD",
"p.	c #EAEAEA",
"q.	c #FEFEFE",
"r.	c #E0E0DA",
"s.	c #3C3B3B",
"t.	c #201D1F",
"u.	c #080607",
"v.	c #313131",
"w.	c #F2F2F2",
"x.	c #FFFEFE",
"y.	c #CBD0D4",
"z.	c #FFA569",
"A.	c #FF8129",
"B.	c #CECECE",
"C.	c #A5A5A5",
"D.	c #D5D5D5",
"E.	c #92928B",
"F.	c #0A1104",
"G.	c #779D62",
"H.	c #C2F99E",
"I.	c #E0FFAC",
"J.	c #40422F",
"K.	c #040404",
"L.	c #070707",
"M.	c #555555",
"N.	c #FFFEFD",
"O.	c #FFDAC2",
"P.	c #CB6F32",
"Q.	c #FF9D5B",
"R.	c #BD5D1D",
"S.	c #000004",
"T.	c #909090",
"U.	c #222222",
"V.	c #272728",
"W.	c #4C593B",
"X.	c #8DD47E",
"Y.	c #69DA71",
"Z.	c #6AD871",
"`.	c #98E186",
" +	c #BED893",
".+	c #11110C",
"++	c #050505",
"@+	c #030303",
"#+	c #C0C0C0",
"$+	c #FF9B59",
"%+	c #CB6420",
"&+	c #CB7942",
"*+	c #FF954C",
"=+	c #9A4C18",
"-+	c #8B8B8B",
";+	c #6A6A6A",
">+	c #27291D",
",+	c #C0EE9A",
"'+	c #70D171",
")+	c #09200D",
"!+	c #0A2711",
"~+	c #73D474",
"{+	c #BBE596",
"]+	c #282A1F",
"^+	c #181818",
"/+	c #DFDFDF",
"(+	c #FFFDFC",
"_+	c #FF9A58",
":+	c #FE7D27",
"<+	c #CB7033",
"[+	c #FF8C3D",
"}+	c #B1581C",
"|+	c #24261B",
"1+	c #BFE797",
"2+	c #7DD878",
"3+	c #2A7738",
"4+	c #2E7D3B",
"5+	c #89E682",
"6+	c #6D8457",
"7+	c #E8E8E8",
"8+	c #FFDFCA",
"9+	c #F87C28",
"0+	c #C66321",
"a+	c #CB6725",
"b+	c #FF822F",
"c+	c #1F0E04",
"d+	c #202222",
"e+	c #BEBEBE",
"f+	c #868686",
"g+	c #343434",
"h+	c #040402",
"i+	c #9DAE77",
"j+	c #A0D686",
"k+	c #7FD077",
"l+	c #7AC972",
"m+	c #4B663F",
"n+	c #B6B6B6",
"o+	c #FF9853",
"p+	c #E87326",
"q+	c #B55A1D",
"r+	c #E06F24",
"s+	c #291406",
"t+	c #0A0E11",
"u+	c #434343",
"v+	c #AAAAAA",
"w+	c #FDFDFD",
"x+	c #C4C4C4",
"y+	c #4C4C4B",
"z+	c #0A0E04",
"A+	c #070C03",
"B+	c #000100",
"C+	c #10100D",
"D+	c #B9B9B9",
"E+	c #FFD8BE",
"F+	c #FF7921",
"G+	c #D66A23",
"H+	c #A4511A",
"I+	c #7F4016",
"J+	c #110802",
"K+	c #5C5C5C",
"L+	c #F0F0F0",
"M+	c #D8D8D8",
"N+	c #E1E1E0",
"O+	c #FFF5EF",
"P+	c #FF8C3F",
"Q+	c #C4611F",
"R+	c #934918",
"S+	c #EA7426",
"T+	c #5A2C0E",
"U+	c #20201F",
"V+	c #C1C1C1",
"W+	c #FFF2E9",
"X+	c #FF934B",
"Y+	c #B2591D",
"Z+	c #874316",
"`+	c #864216",
" @	c #080300",
".@	c #171919",
"+@	c #444140",
"@@	c #7E7B79",
"#@	c #CACACB",
"$@	c #FFF9F4",
"%@	c #FFEFE5",
"&@	c #FFC9A5",
"*@	c #984B19",
"=@	c #150A03",
"-@	c #DC6D24",
";@	c #B1581D",
">@	c #B75A1D",
",@	c #D76B23",
"'@	c #DA6E27",
")@	c #D46B25",
"!@	c #FF9045",
"~@	c #FF8534",
"{@	c #FF7C25",
"]@	c #F47928",
"^@	c #221105",
"/@	c #CA6421",
"(@	c #F97C29",
"_@	c #F77B28",
":@	c #4D260C",
"<@	c #B4591D",
"[@	c #5C2E0F",
"}@	c #4D250D",
"|@	c #E17025",
"1@	c #2C1607",
"2@	c #1F0F05",
"3@	c #C1601F",
"4@	c #040200",
"5@	c #9A4D19",
"6@	c #EB7526",
"7@	c #FF812B",
"8@	c #793C14",
"9@	c #060301",
"0@	c #1C0E04",
"a@	c #47230B",
"b@	c #DD6E24",
"c@	c #41210A",
"d@	c #613110",
"e@	c #C16020",
"f@	c #FF872C",
"g@	c #FF852B",
"h@	c #EB7527",
"i@	c #8D4617",
"j@	c #321808",
"k@	c #0D0602",
"l@	c #1F0F04",
"m@	c #50280D",
"n@	c #3A1C09",
"o@	c #050200",
"p@	c #020100",
"q@	c #030100",
"r@	c #361B09",
"s@	c #4B240C",
"t@	c #46220B",
"u@	c #261305",
"v@	c #100802",
"w@	c #271306",
"x@	c #723812",
"y@	c #773B13",
"z@	c #F27828",
"A@	c #D06722",
"B@	c #713812",
"C@	c #100702",
"D@	c #2F1807",
"E@	c #4B250C",
"F@	c #5E2F0F",
"G@	c #623110",
"H@	c #381B09",
"I@	c #1C0D04",
"J@	c #673310",
"K@	c #D26822",
"L@	c #D96C23",
"M@	c #8F4717",
"N@	c #864315",
"O@	c #904817",
"P@	c #8B4516",
"Q@	c #753A13",
"R@	c #60300F",
"S@	c #4F270D",
"T@	c #43210B",
"U@	c #060200",
"                                                                ",
"                                                                ",
"            . . . . . . . . . . . . . . . . . . . .             ",
"        . . + @ # $ % & * = - ; > , ' ' ' ' ) ! ~ . . .         ",
"      . . { ] ^ / ( _ : < [ } | 1 2 3 3 3 3 3 3 4 5 6 . .       ",
"      . 7 8 9 0 a b c d e f g . h i 3 j k l m m m n j o .       ",
"    . p q r s t j 3 u v k 4 w x m i y z A B C D E F G H . .     ",
"    . @ ^ I J K 3 3 3 L i M . N i O P Q . R S T U + . V W .     ",
"    . X / 4 Y Z `  .b ..e +.@.#.$.%.&.*.=.8 8 8 8 8 -.;.>..     ",
"    . ,.'.).!.~.{.].^./.(._.:.<.[.}.|.8 8 8 8 8 8 8 8 8 1..     ",
"    . 2.3.4.5.6.7.8 8.9.8 0.8 8 a.b.c.d.e.f.g.h.i.f.8 8 1..     ",
"    . j.k.l.m.n.8 8 o.p.q.8 r.s.t.u.. . . . . . v.w.x.8 y..     ",
"    . * z.A.. B.8 8 C.D.q.E.F.G.H.I.J.. . K.L.M.8 8 N.O.P..     ",
"    . = Q.R.S.b.8 8 T.U.V.W.X.Y.Z.`. +.+++@+#+8 8 0.$+a %+.     ",
"    . &+*+=+. -+;+L.. . >+,+'+)+!+~+{+]+^+/+8 q.(+_+:+3 ' .     ",
"    . <+[+}+. . . . . . |+1+2+3+4+5+6+R 7+8 q.8 8+ .3 9+0+.     ",
"    . a+b+3 c+d+g.e+f+g+h+i+j+k+l+m+. n+8 q.8 8 o+ .3 p+q+.     ",
"    . ' j 3 r+s+t+u+v+w+x+y+z+A+B+C+D+8 q.8 8 E+F+3 3 G+H+.     ",
"    . ' 3 3 3 4 I+J+. K+L+8 8 M+N+8 8 q.x.8 O+P+3 3 3 Q+R+.     ",
"    . ' 3 3 j 3 i S+T+. U+V+8 8 8 8 8 x.8 W+X+ .3 3 i Y+Z+.     ",
"    . ' 3 3 3 3 3 j k `+ @. .@+@@@#@$@%@&@3 a 3 3 3 i *@=@.     ",
"    . ' 3 3 3 3 3 3 3 k -@;@>@,@'@)@!@~@{@a 3 3 3 j ]@^@. .     ",
"    . /@3 3 3 (@3 3 j 3 3 i 3 j 3 3 3 3 3 3 3 j 3 _@:@. . .     ",
"    . <@3 3 k [@}@H k j 3 3 3 3 3 3 3 3 3 3 3 4 |@1@. . 2@.     ",
"    . ~ 4 j i 3@J 4@5@6@7@i 3 j 3 3 j 3 i y -@8@. . 9@0@a@.     ",
"    . . ]@3 j i b@c@. =@d@e@f@g@n n m h@i@j@k@. . l@m@n@o@.     ",
"      . o y 3 j 3 f@v 1@p@. q@r@s@t@u@. . . v@w@x@y@p@0@.       ",
"      . . o z@4 i j i _@A@B@0@. . . . C@D@E@F@G@a@H@I@. .       ",
"        . . . J@G /@' ' ' K@L@<@M@N@O@P@Q@R@S@t@T@U@. .         ",
"            . . . . . . . . . . . . . . . . . . . .             ",
"                                                                ",
"                                                                "};
