/* XPM */
static char * frameAL_xpm[] = {
"5 3 2 1",
" 	c None",
".	c #000000",
"    .",
"    .",
"    ."};
