/* XPM */
static char * rollupI_xpm[] = {
"18 34 125 2",
"  	c None",
". 	c #454545",
"+ 	c #1E1E1E",
"@ 	c #191919",
"# 	c #000000",
"$ 	c #626262",
"% 	c #505050",
"& 	c #898989",
"* 	c #A2A2A2",
"= 	c #9E9E9E",
"- 	c #4C4C4C",
"; 	c #6F6F6F",
"> 	c #C8C8C8",
", 	c #E1E1E1",
"' 	c #FFFFFF",
") 	c #F6F6F6",
"! 	c #464646",
"~ 	c #747474",
"{ 	c #B2B2B2",
"] 	c #E2E2E2",
"^ 	c #F0F0F0",
"/ 	c #F5F5F5",
"( 	c #5F5F5F",
"_ 	c #959595",
": 	c #B9B9B9",
"< 	c #CFCFCF",
"[ 	c #DCDCDC",
"} 	c #DEDEDE",
"| 	c #E6E6E6",
"1 	c #6A6A6A",
"2 	c #808080",
"3 	c #B5B5B5",
"4 	c #C2C2C2",
"5 	c #CCCCCC",
"6 	c #D4D4D4",
"7 	c #D8D8D8",
"8 	c #D9D9D9",
"9 	c #C4C4C4",
"0 	c #D3D3D3",
"a 	c #E0E0E0",
"b 	c #575757",
"c 	c #C7C7C7",
"d 	c #DDDDDD",
"e 	c #B1B1B1",
"f 	c #595959",
"g 	c #ABABAB",
"h 	c #F2F2F2",
"i 	c #676767",
"j 	c #B4B4B4",
"k 	c #D5D5D5",
"l 	c #DBDBDB",
"m 	c #EDEDED",
"n 	c #EAEAEA",
"o 	c #BABABA",
"p 	c #2A2A2A",
"q 	c #444444",
"r 	c #BBBBBB",
"s 	c #F4F4F4",
"t 	c #FCFCFC",
"u 	c #8B8B8B",
"v 	c #F9F9F9",
"w 	c #EEEEEE",
"x 	c #999999",
"y 	c #474747",
"z 	c #BDBDBD",
"A 	c #FEFEFE",
"B 	c #A0A0A0",
"C 	c #E4E4E4",
"D 	c #FBFBFB",
"E 	c #3F3F3F",
"F 	c #242424",
"G 	c #939393",
"H 	c #414141",
"I 	c #BEBEBE",
"J 	c #838383",
"K 	c #D7D7D7",
"L 	c #FDFDFD",
"M 	c #686868",
"N 	c #313131",
"O 	c #303030",
"P 	c #535353",
"Q 	c #4D4D4D",
"R 	c #696969",
"S 	c #B8B8B8",
"T 	c #F1F1F1",
"U 	c #D1D1D1",
"V 	c #CDCDCD",
"W 	c #CECECE",
"X 	c #F7F7F7",
"Y 	c #A1A1A1",
"Z 	c #ECECEC",
"` 	c #818181",
" .	c #767676",
"..	c #525252",
"+.	c #1C1C1C",
"@.	c #5A5A5A",
"#.	c #555555",
"$.	c #9B9B9B",
"%.	c #343434",
"&.	c #C0C0C0",
"*.	c #E8E8E8",
"=.	c #919191",
"-.	c #BFBFBF",
";.	c #5D5D5D",
">.	c #7B7B7B",
",.	c #929292",
"'.	c #ACACAC",
").	c #383838",
"!.	c #A5A5A5",
"~.	c #4E4E4E",
"{.	c #3B3B3B",
"].	c #7D7D7D",
"^.	c #E7E7E7",
"/.	c #404040",
"(.	c #292929",
"_.	c #646464",
":.	c #EFEFEF",
"<.	c #797979",
"[.	c #757575",
"}.	c #AFAFAF",
"|.	c #6B6B6B",
"1.	c #F8F8F8",
"2.	c #8D8D8D",
"3.	c #8C8C8C",
"4.	c #B3B3B3",
"              . + @ @ @ + @ @ @ @ # ",
"          $ % & * = = = * = = = = = ",
"        - ; > , ' ) ) ) ' ) ) ) ) ) ",
"      ! ~ { ] ^ / ' ' ' / ' ' ' ' ' ",
"      ( _ : < [ } | | | } | | | | | ",
"    1 2 3 4 5 6 7 } 8 9 0 } a a a } ",
"# # b = c 5 d , | | e f g | ^ ^ ^ h ",
"5 5 i j k l ^ m n o . p q r s t t ' ",
"5 5 u 3 ] m v w : ! ! x ! y z ) A ' ",
"5 5 5 B C D h r E F G 9 G F H I ) ' ",
"5 5 5 J K L d M N O - P Q O N R a ' ",
"5 5 5 5 G S T k U V V W U V 5 6 ^ X ",
"5 5 5 5 5 = Y 9 Z m m m Z m m m m m ",
"5 5 5 5 5 5 5 & `  . . .`  . . . . .",
"5 5 5 5 5 5 5 5 5 5 5 5 5 5 5 5 5 5 ",
"5 5 5 5 5 5 5 5 5 5 5 5 5 5 5 5 5 5 ",
"# # # # # # # # # # # # # # # # # # ",
"              ..+.+.+.+.+.+.+.+.+.+.",
"          @.#.2 $.$.$.$.$.$.$.$.$.$.",
"        %.M &.s / / / / / / / / / / ",
"      y 1 B k *.m m m m m m m m m m ",
"      Q 1 =.{ I -.-.-.-.-.-.-.-.-.-.",
"    b ;.>.,.'.j S : { Y { : : : : j ",
"# # ).~ =.!.&.V 0 V $.~.$.V k k k K ",
"5 5 {.].!.r 7 ^.| e /.(./.e *.^ ^ s ",
"5 5 _.>.: k w :.r . ! x ! . r s t ' ",
"5 5 5 <.4 *.s z /.F G 9 G F H I ) ' ",
"5 5 5 [.}.[ d M N O - P - O N R a ' ",
"5 5 5 5 |.g ] U V V W W W V V k T 1.",
"5 5 5 5 5 2.3.4.8 8 8 8 8 8 8 8 8 8 ",
"5 5 5 5 5 5 = u ].].].].].].].].].].",
"5 5 5 5 5 5 5 5 5 5 5 5 5 5 5 5 5 5 ",
"5 5 5 5 5 5 5 5 5 5 5 5 5 5 5 5 5 5 ",
"# # # # # # # # # # # # # # # # # # "};
