/* XPM */
static char *tlclient___[] = {
/* columns rows colors chars-per-pixel */
"16 16 99 2",
"   c #06060A0A1919",
".  c #0E0E15153333",
"X  c #0D0D16163434",
"o  c #101019193A3A",
"O  c #12121B1B3B3B",
"+  c #13131C1C3B3B",
"@  c #15151C1C3A3A",
"#  c #16161D1D3A3A",
"$  c #12121B1B3D3D",
"%  c #13131D1D4141",
"&  c #14141E1E4343",
"*  c #171720204848",
"=  c #171721214848",
"-  c #1A1A24244E4E",
";  c #1D1D27275454",
":  c #1D1D27275555",
">  c #1E1E28285656",
",  c #1F1F2A2A5A5A",
"<  c #20202B2B5B5B",
"1  c #22222D2D5F5F",
"2  c #23232F2F6262",
"3  c #272732326060",
"4  c #252530306363",
"5  c #252530306565",
"6  c #262632326868",
"7  c #2B2B36366868",
"8  c #36363D3D6161",
"9  c #36363E3E6262",
"0  c #2D2D39397575",
"q  c #30303C3C7474",
"w  c #353542427F7F",
"e  c #393945458383",
"r  c #40404C4C8989",
"t  c #41414D4D8989",
"y  c #41414D4D8A8A",
"u  c #494953538080",
"i  c #4E4E57578989",
"p  c #54545D5D8282",
"a  c #494954549090",
"s  c #4D4D58589393",
"d  c #51515C5C9797",
"f  c #52525D5D9797",
"g  c #585860608282",
"h  c #575761619797",
"j  c #5B5B65659090",
"k  c #5A5A64649E9E",
"l  c #5E5E68689D9D",
"z  c #67676F6F9393",
"x  c #62626B6B9B9B",
"c  c #68686E6E9B9B",
"v  c #68686F6F9B9B",
"b  c #666670709E9E",
"n  c #62626B6BA5A5",
"m  c #63636C6CA5A5",
"M  c #65656E6EA6A6",
"N  c #66667070A4A4",
"B  c #6A6A7373ABAB",
"V  c #79797F7FADAD",
"C  c #72727A7AB1B1",
"Z  c #73737B7BB2B2",
"A  c #7C7C8282B2B2",
"S  c #79798080B7B7",
"D  c #7D7D8383B4B4",
"F  c #7B7B8282B9B9",
"G  c #88888E8EACAC",
"H  c #85858D8DB2B2",
"J  c #87878E8EB6B6",
"K  c #80808787BDBD",
"L  c #94949A9ABCBC",
"P  c #84848A8AC0C0",
"I  c #86868C8CC0C0",
"U  c #8C8C9292C6C6",
"Y  c #9D9DA4A4C3C3",
"T  c #A7A7ACACC4C4",
"R  c #A8A8ADADC1C1",
"E  c #AAAAAEAEC1C1",
"W  c #A6A6ABABC9C9",
"Q  c #AAAAAFAFCDCD",
"!  c #BDBDBFBFC8C8",
"~  c #BEBEC0C0C9C9",
"^  c #C9C9CDCDDEDE",
"/  c #D0D0D3D3E2E2",
"(  c #D7D7D9D9E7E7",
")  c #D9D9DBDBE7E7",
"_  c #DFDFE0E0E7E7",
"`  c #E1E1E3E3ECEC",
"'  c #E4E4E5E5EEEE",
"]  c #EDEDEEEEF4F4",
"[  c #EEEEEFEFF5F5",
"{  c #EFEFF0F0F5F5",
"}  c #F2F2F3F3F6F6",
"|  c #F2F2F3F3F7F7",
" . c #F3F3F4F4F7F7",
".. c #F7F7F7F7FAFA",
"X. c #F8F8F8F8FAFA",
"o. c #FDFDFEFEFEFE",
"O. c #FEFEFEFEFEFE",
"+. c #FFFFFFFFFFFF",
"@. c None",
/* pixels */
"@.@.  . $ & = - ; , 1 5 4 # @.@.",
"@.# c I P F Z B n k d a y w i @.",
"  c U P F Z B n k d a h L ) o.! ",
". I P F Z B n k d J / o.o.o.o.X.",
"$ P F Z B n k d W o.o.o.o.o.o.o.",
"& F Z B n k d a ..o.o.o.o.o.o.o.",
"= Z B n k d a y ] o.o.o.o.o.o.} ",
"- B m k d s y e H o.o.o. .E p M ",
"; n k M ) o.` x 0 j G z 3 ; - B ",
"< k d ^ o.o.o.} q 6 2 < ; ; & Z ",
"1 d x o.o.o.o.o.u 2 < ; ; & % Z ",
"5 a Y o.o.o.o...7 < ; - & % $ P ",
"4 y ' o.o.o.o.E , ; - = & $ O D ",
"# v o.o.o.o.o.p ; - = $ o . 8 @.",
"@.T o.o.o.o.` ; ; & & O $ 8 V @.",
"@.@.~ X.o.o.Q n B Z S K A @.@.@."
};
