/* XPM */
static char * frameABL_xpm[] = {
"4 15 10 1",
" 	c None",
".	c #003CD0",
"+	c #2863E1",
"@	c #2650A2",
"#	c #FFFFFF",
"$	c #266FD0",
"%	c #278FFF",
"&	c #1649A4",
"*	c #3795FF",
"=	c #015AD8",
".+@#",
".+@#",
".+@#",
".+@#",
".+@#",
".+@#",
".+@#",
".+@#",
".+@#",
".+@#",
".+@#",
".+@$",
" .+%",
" &**",
"  =="};
