/* XPM */
static char *frameAB[] = {
/* columns rows colors chars-per-pixel */
"2 20 17 1 ",
"  c #0056D6",
". c #0058D7",
"X c #015AD8",
"o c #055EDB",
"O c #0A64DF",
"+ c #126CE4",
"@ c #1A75EA",
"# c #237FF0",
"$ c #2B88F6",
"% c #268FFF",
"& c #288FFF",
"* c #318FFB",
"= c #2A91FF",
"- c #2D92FF",
"; c #3493FE",
": c #3094FF",
"> c #3495FF",
/* pixels */
"%%",
"%%",
"&%",
"&&",
"==",
"--",
"::",
":>",
">>",
";>",
"**",
"$$",
"##",
"@@",
"++",
"OO",
"oo",
"XX",
" .",
"  "
};
