/* XPM */
static char * minimizeA_xpm[] = {
"24 52 740 2",
"  	c None",
". 	c #0465F0",
"+ 	c #0864EB",
"@ 	c #0B64E6",
"# 	c #0B64E2",
"$ 	c #0C64E0",
"% 	c #0C64E2",
"& 	c #0E63E0",
"* 	c #0765ED",
"= 	c #0971F4",
"- 	c #055CE1",
"; 	c #0F5ACF",
"> 	c #1659C1",
", 	c #1A59B6",
"' 	c #1E5AB2",
") 	c #1D58B2",
"! 	c #1D59B1",
"~ 	c #1F58B1",
"{ 	c #1859BD",
"] 	c #0C5BD4",
"^ 	c #055BE2",
"/ 	c #1058D0",
"( 	c #5D97FB",
"_ 	c #BFF1FF",
": 	c #D6FFFF",
"< 	c #D5FFFF",
"[ 	c #D4FFFF",
"} 	c #CFFFFF",
"| 	c #5A98FF",
"1 	c #1158CE",
"2 	c #005CEB",
"3 	c #5D95F6",
"4 	c #BFE7FF",
"5 	c #769BEC",
"6 	c #678DE2",
"7 	c #5C85DF",
"8 	c #537FE0",
"9 	c #4E7BE0",
"0 	c #4878DE",
"a 	c #4A79E1",
"b 	c #4574DE",
"c 	c #4475DE",
"d 	c #4272DE",
"e 	c #4073E0",
"f 	c #396BDA",
"g 	c #396DDD",
"h 	c #366BDF",
"i 	c #3064DA",
"j 	c #2A5ED4",
"k 	c #3669D4",
"l 	c #B2DFFF",
"m 	c #6194EF",
"n 	c #0058E6",
"o 	c #799CED",
"p 	c #8FAEFE",
"q 	c #8EB2FF",
"r 	c #80A7FF",
"s 	c #729CFF",
"t 	c #6B97FF",
"u 	c #6492FF",
"v 	c #6191FF",
"w 	c #5F8EFF",
"x 	c #5B8DFF",
"y 	c #5A8BFF",
"z 	c #5588FE",
"A 	c #5286FF",
"B 	c #4C82FF",
"C 	c #467DFE",
"D 	c #3C75F8",
"E 	c #326BF0",
"F 	c #2A5CCF",
"G 	c #3B5CA9",
"H 	c #C6EFFF",
"I 	c #0056E4",
"J 	c #D9FFFF",
"K 	c #6B8FE3",
"L 	c #91B4FF",
"M 	c #94B7FF",
"N 	c #86AAFF",
"O 	c #78A0FF",
"P 	c #709AFE",
"Q 	c #6A95FD",
"R 	c #6692FD",
"S 	c #638EFE",
"T 	c #608EFE",
"U 	c #5F8CFF",
"V 	c #5B8AFE",
"W 	c #5687FE",
"X 	c #5082FB",
"Y 	c #497FFD",
"Z 	c #4178F9",
"` 	c #366FF2",
" .	c #2E60D1",
"..	c #244690",
"+.	c #DBFFFF",
"@.	c #0054E3",
"#.	c #5F87DF",
"$.	c #85AAFF",
"%.	c #89ADFF",
"&.	c #7FA3F9",
"*.	c #7299F6",
"=.	c #6993F7",
"-.	c #648FF8",
";.	c #5E8AF7",
">.	c #5A85F6",
",.	c #5481F4",
"'.	c #5180F4",
").	c #4B7CF2",
"!.	c #4B7DF6",
"~.	c #4578F5",
"{.	c #3F74F4",
"].	c #3B72F3",
"^.	c #346DF0",
"/.	c #2F61D2",
"(.	c #284893",
"_.	c #0055E4",
":.	c #5981E0",
"<.	c #779FFF",
"[.	c #7AA1FE",
"}.	c #6791F5",
"|.	c #608BF4",
"1.	c #5A85F5",
"2.	c #5481F6",
"3.	c #4D7BF3",
"4.	c #4777F3",
"5.	c #4273F3",
"6.	c #3C6FEF",
"7.	c #396EF2",
"8.	c #366CF2",
"9.	c #336CF1",
"0.	c #316BF0",
"a.	c #2F68ED",
"b.	c #3163D4",
"c.	c #2C4C97",
"d.	c #D8FFFF",
"e.	c #537FE2",
"f.	c #6C97FF",
"g.	c #6F99FD",
"h.	c #628DF6",
"i.	c #5B86F6",
"j.	c #5380F5",
"k.	c #4777F5",
"l.	c #4172F3",
"m.	c #3A6FF3",
"n.	c #346DF2",
"o.	c #326AF3",
"p.	c #2F68F3",
"q.	c #2E69F3",
"r.	c #2E69F1",
"s.	c #2F69EF",
"t.	c #2B4D97",
"u.	c #4E79E1",
"v.	c #6692FF",
"w.	c #6893FC",
"x.	c #5F89F7",
"y.	c #5782F3",
"z.	c #507FF5",
"A.	c #4979F5",
"B.	c #4475F5",
"C.	c #3D72F4",
"D.	c #366FF4",
"E.	c #306BF3",
"F.	c #2D68F4",
"G.	c #2966F2",
"H.	c #2665F2",
"I.	c #2A69F4",
"J.	c #2D68F0",
"K.	c #2F62D5",
"L.	c #4D79E4",
"M.	c #5E8BFE",
"N.	c #618DFA",
"O.	c #5F8BF8",
"P.	c #5C87F7",
"Q.	c #5582F5",
"R.	c #4E7CF4",
"S.	c #4779F4",
"T.	c #4174F4",
"U.	c #3B71F5",
"V.	c #346EF4",
"W.	c #2D6BF4",
"X.	c #2567F3",
"Y.	c #2366F3",
"Z.	c #2969F1",
"`.	c #2E63D5",
" +	c #2A4B98",
".+	c #0055E6",
"++	c #4373E1",
"@+	c #5687FD",
"#+	c #5C8AFA",
"$+	c #5C8AF9",
"%+	c #5886F6",
"&+	c #5382F6",
"*+	c #4D7EF5",
"=+	c #477BF5",
"-+	c #4177F5",
";+	c #3974F4",
">+	c #3372F5",
",+	c #2C6FF4",
"'+	c #296DF6",
")+	c #256AF5",
"!+	c #2168F4",
"~+	c #2368F3",
"{+	c #2668F0",
"]+	c #2C63D7",
"^+	c #274B97",
"/+	c #0056E9",
"(+	c #3D6FE0",
"_+	c #4F81FA",
":+	c #5685F9",
"<+	c #5784F7",
"[+	c #5281F5",
"}+	c #4279F7",
"|+	c #3A77F4",
"1+	c #3475F5",
"2+	c #2D72F4",
"3+	c #266EF4",
"4+	c #236CF6",
"5+	c #1F6BF5",
"6+	c #216AF4",
"7+	c #2469F2",
"8+	c #2962D6",
"9+	c #244997",
"0+	c #0057EC",
"a+	c #396CE1",
"b+	c #4A7DFC",
"c+	c #5283F9",
"d+	c #5584F6",
"e+	c #5483F7",
"f+	c #5183F6",
"g+	c #4D80F6",
"h+	c #477EF5",
"i+	c #427CF7",
"j+	c #3D7BF6",
"k+	c #3478F5",
"l+	c #2D76F6",
"m+	c #2673F5",
"n+	c #2270F6",
"o+	c #1E6FF6",
"p+	c #1C6CF5",
"q+	c #1D69F2",
"r+	c #2362D6",
"s+	c #214897",
"t+	c #0059EE",
"u+	c #3367DF",
"v+	c #4279FA",
"w+	c #4C7EF7",
"x+	c #5483EF",
"y+	c #5C83E2",
"z+	c #5E82DA",
"A+	c #5B80D9",
"B+	c #557ED8",
"C+	c #527DD9",
"D+	c #4A7CDB",
"E+	c #407BE3",
"F+	c #3379E9",
"G+	c #2876F2",
"H+	c #2174F8",
"I+	c #1D71F8",
"J+	c #1A6EF5",
"K+	c #1969F2",
"L+	c #1D5ED4",
"M+	c #1E4797",
"N+	c #005BF2",
"O+	c #D2FFFF",
"P+	c #2C62DE",
"Q+	c #3B74F9",
"R+	c #487BF8",
"S+	c #5681E0",
"T+	c #EAFFFF",
"U+	c #F4FFFF",
"V+	c #F2FFFF",
"W+	c #F1FFFF",
"X+	c #DCFFFF",
"Y+	c #4079D2",
"Z+	c #2D78ED",
"`+	c #2077FA",
" @	c #1A72F8",
".@	c #176FF7",
"+@	c #1568F2",
"@@	c #185DD4",
"#@	c #1B4496",
"$@	c #025FF8",
"%@	c #D1FFFF",
"&@	c #265DDB",
"*@	c #356FF7",
"=@	c #4178F7",
"-@	c #517CDB",
";@	c #EDFFFF",
">@	c #F8FFFF",
",@	c #EFFFFF",
"'@	c #DFFFFF",
")@	c #427ACD",
"!@	c #2C79EB",
"~@	c #1E76FB",
"{@	c #1773FA",
"]@	c #116DF6",
"^@	c #1065F3",
"/@	c #1359D3",
"(@	c #174193",
"_@	c #0061F8",
":@	c #2059DA",
"<@	c #2E68F7",
"[@	c #3871F6",
"}@	c #4978E4",
"|@	c #E3FFFF",
"1@	c #E9FFFF",
"2@	c #E2FFFF",
"3@	c #3979DA",
"4@	c #2A79F0",
"5@	c #1E76FC",
"6@	c #1672FB",
"7@	c #0F6CF7",
"8@	c #0C63F1",
"9@	c #0E55D1",
"0@	c #143E92",
"a@	c #0064F8",
"b@	c #CEFFFF",
"c@	c #1C57D9",
"d@	c #2562F1",
"e@	c #316BF3",
"f@	c #3E70E9",
"g@	c #4B73D2",
"h@	c #5073C5",
"i@	c #4F74C5",
"j@	c #4E74C5",
"k@	c #4C75C5",
"l@	c #4676CB",
"m@	c #3C76D9",
"n@	c #2F75E4",
"o@	c #2574F3",
"p@	c #1B71F8",
"q@	c #126EF7",
"r@	c #0C67F4",
"s@	c #095FF0",
"t@	c #0D52D1",
"u@	c #133D91",
"v@	c #046AFD",
"w@	c #CDFFFF",
"x@	c #1651D1",
"y@	c #1E5BEA",
"z@	c #2962ED",
"A@	c #3167EB",
"B@	c #396BE4",
"C@	c #3A6CDF",
"D@	c #396CDF",
"E@	c #386DDF",
"F@	c #366DE1",
"G@	c #326FE4",
"H@	c #2B70E9",
"I@	c #246DED",
"J@	c #1D6BF1",
"K@	c #1669F3",
"L@	c #0A5FEE",
"M@	c #0759EB",
"N@	c #0A4ECB",
"O@	c #113A8A",
"P@	c #026AFD",
"Q@	c #B6F5FF",
"R@	c #2960D4",
"S@	c #1B4FC9",
"T@	c #2255CB",
"U@	c #2859CF",
"V@	c #2D5CD0",
"W@	c #2D5CCE",
"X@	c #2A5DD0",
"Y@	c #295ED0",
"Z@	c #255ED1",
"`@	c #225FD2",
" #	c #1E5FD3",
".#	c #1A5DD2",
"+#	c #165BD4",
"@#	c #1258D2",
"##	c #0D53CF",
"$#	c #0C46B4",
"%#	c #264F9E",
"&#	c #056DFF",
"*#	c #5AA1FF",
"=#	c #AFDEFF",
"-#	c #3357A5",
";#	c #1C408E",
">#	c #234493",
",#	c #244592",
"'#	c #224694",
")#	c #1F4492",
"!#	c #1E4594",
"~#	c #1A4393",
"{#	c #1A4496",
"]#	c #174195",
"^#	c #153F95",
"/#	c #123A8F",
"(#	c #244EA0",
"_#	c #AFDDFF",
":#	c #639FFF",
"<#	c #1762DF",
"[#	c #659AF8",
"}#	c #C1F0FF",
"|#	c #639AFE",
"1#	c #1C62D4",
"2#	c #0466FB",
"3#	c #0C5DED",
"4#	c #135BE1",
"5#	c #165BDC",
"6#	c #165BDD",
"7#	c #155BDD",
"8#	c #155BDF",
"9#	c #165ADF",
"0#	c #125CE3",
"a#	c #0D5DEA",
"b#	c #055FF4",
"c#	c #0349CB",
"d#	c #0349CD",
"e#	c #054ECF",
"f#	c #164398",
"g#	c #164299",
"h#	c #164499",
"i#	c #FEFE00",
"j#	c #86A7CF",
"k#	c #7D9DC0",
"l#	c #7497BD",
"m#	c #6C91BE",
"n#	c #688EBE",
"o#	c #638BBC",
"p#	c #648CBF",
"q#	c #6088BC",
"r#	c #5F89BC",
"s#	c #5E86BC",
"t#	c #5C87BE",
"u#	c #5983B6",
"v#	c #5682BC",
"w#	c #5380BD",
"x#	c #4E7AB9",
"y#	c #4975B4",
"z#	c #537FB4",
"A#	c #89A7D0",
"B#	c #9FB9D8",
"C#	c #9EBDD9",
"D#	c #92B3D9",
"E#	c #86AAD9",
"F#	c #80A6D9",
"G#	c #7AA2D9",
"H#	c #78A1D9",
"I#	c #769ED9",
"J#	c #739DD9",
"K#	c #729CD9",
"L#	c #6E99D8",
"M#	c #6B97D9",
"N#	c #6694D9",
"O#	c #6190D8",
"P#	c #5889D3",
"Q#	c #5080CC",
"R#	c #5079A9",
"S#	c #526F94",
"T#	c #7C9CC7",
"U#	c #A1BFD9",
"V#	c #A3C1D9",
"W#	c #97B6D9",
"X#	c #8BAED9",
"Y#	c #85A8D8",
"Z#	c #80A4D7",
"`#	c #7CA2D7",
" $	c #7A9ED8",
".$	c #779ED8",
"+$	c #769CD9",
"@$	c #739BD8",
"#$	c #6F98D8",
"$$	c #6994D5",
"%$	c #6391D7",
"&$	c #5D8BD3",
"*$	c #5384CD",
"=$	c #4C77B1",
"-$	c #3E5C7E",
";$	c #7698BD",
">$	c #9AB9D9",
",$	c #91B0D3",
"'$	c #86A8D1",
")$	c #7FA2D2",
"!$	c #7A9FD3",
"~$	c #759BD2",
"{$	c #7297D1",
"]$	c #6D93CF",
"^$	c #6A92CF",
"/$	c #658FCD",
"($	c #6590D1",
"_$	c #608BD0",
":$	c #5B88CF",
"<$	c #5886CE",
"[$	c #5584C8",
"}$	c #416FBF",
"|$	c #47637D",
"1$	c #7193BE",
"2$	c #8BADD9",
"3$	c #8DAED8",
"4$	c #7DA1D0",
"5$	c #779CCF",
"6$	c #7297D0",
"7$	c #6D93D1",
"8$	c #678ECE",
"9$	c #628BCE",
"0$	c #5E87CE",
"a$	c #5884CB",
"b$	c #5683CD",
"c$	c #5381CD",
"d$	c #5181CD",
"e$	c #5283C8",
"f$	c #4D7EC9",
"g$	c #527CB1",
"h$	c #4B6680",
"i$	c #6F93BC",
"j$	c #81A6D9",
"k$	c #84A8D7",
"l$	c #799DD1",
"m$	c #7397D1",
"n$	c #6C92D0",
"o$	c #628BD0",
"p$	c #5D86CE",
"q$	c #5784CE",
"r$	c #5282CD",
"s$	c #5080CE",
"t$	c #4D7ECE",
"u$	c #4C7FCE",
"v$	c #477BD3",
"w$	c #4D7FCB",
"x$	c #4F7AB4",
"y$	c #4A6780",
"z$	c #688CBF",
"A$	c #7CA2D9",
"B$	c #759CE5",
"C$	c #769AD2",
"D$	c #7296CA",
"E$	c #6991D0",
"F$	c #638CD0",
"G$	c #5F89D0",
"H$	c #5986CF",
"I$	c #5384CF",
"J$	c #4E80CE",
"K$	c #4C7ECF",
"L$	c #487CCD",
"M$	c #467BCD",
"N$	c #4C81CB",
"O$	c #4C7ECC",
"P$	c #4D79B5",
"Q$	c #4D6A7E",
"R$	c #678CC2",
"S$	c #759CD8",
"T$	c #789DD4",
"U$	c #769CD3",
"V$	c #7498D2",
"W$	c #6E94D0",
"X$	c #688FCF",
"Y$	c #628CCF",
"Z$	c #5D88CF",
"`$	c #5B88CC",
" %	c #5283CF",
".%	c #4C80CF",
"+%	c #437BD6",
"@%	c #487FCA",
"#%	c #437CCE",
"$%	c #457DCE",
"%%	c #487FCD",
"&%	c #4C7AB5",
"*%	c #496581",
"=%	c #5E87BF",
"-%	c #6F98D7",
";%	c #749BD4",
">%	c #6A94E2",
",%	c #7399CD",
"'%	c #6C94D1",
")%	c #6791D0",
"!%	c #628ED0",
"~%	c #5D8BD0",
"{%	c #5688CF",
"]%	c #5489CC",
"^%	c #4B84CF",
"/%	c #4882D1",
"(%	c #4580D0",
"_%	c #4580CB",
":%	c #437ECE",
"<%	c #467ECC",
"[%	c #4B7AB6",
"}%	c #476580",
"|%	c #5984BE",
"1%	c #6993D4",
"2%	c #6F97D3",
"3%	c #7097D1",
"4%	c #668FE0",
"5%	c #6B93D0",
"6%	c #608ECE",
"7%	c #5A8DCB",
"8%	c #5289D0",
"9%	c #4C86CF",
"0%	c #4683CF",
"a%	c #4381D1",
"b%	c #4080D0",
"c%	c #4180CF",
"d%	c #447FCD",
"e%	c #4879B6",
"f%	c #446380",
"g%	c #5681BF",
"h%	c #6490D6",
"i%	c #6B95D3",
"j%	c #6992D8",
"k%	c #7097CE",
"l%	c #6A95D1",
"m%	c #6792D1",
"n%	c #6291D0",
"o%	c #5E8FD2",
"p%	c #598ED1",
"q%	c #528BD0",
"r%	c #4F8CCD",
"s%	c #4989CC",
"t%	c #4687CD",
"u%	c #3F84D1",
"v%	c #3D81D0",
"w%	c #3E7FCD",
"x%	c #4379B6",
"y%	c #416380",
"z%	c #517DBD",
"A%	c #5E8CD4",
"B%	c #6691D2",
"C%	c #6D95CB",
"D%	c #7495C0",
"E%	c #7594B9",
"F%	c #7392B8",
"G%	c #6E91B7",
"H%	c #6B90B8",
"I%	c #648FBA",
"J%	c #578AC7",
"K%	c #548EC2",
"L%	c #478ACD",
"M%	c #4188D3",
"N%	c #3E86D3",
"O%	c #3B83D0",
"P%	c #3B7FCD",
"Q%	c #3E75B4",
"R%	c #3F6280",
"S%	c #4B79BC",
"T%	c #5888D3",
"U%	c #638ED3",
"V%	c #7195BB",
"W%	c #5C8CB2",
"X%	c #4C8BC9",
"Y%	c #488FCC",
"Z%	c #3F89CF",
"`%	c #3984D2",
" &	c #3B80CA",
".&	c #3A74B4",
"+&	c #3C5F7F",
"@&	c #4977B6",
"#&	c #5284D2",
"$&	c #5D8BD2",
"%&	c #6A8FBA",
"&&	c #588AB4",
"*&	c #4B8CC7",
"=&	c #468ECD",
"-&	c #3987D4",
";&	c #3482D1",
">&	c #337BCE",
",&	c #3671B3",
"'&	c #395D7D",
")&	c #4876B2",
"!&	c #4C7ED2",
"~&	c #5888CD",
"{&	c #5984CF",
"]&	c #598EB6",
"^&	c #498CCC",
"/&	c #3F8AD6",
"(&	c #3886D5",
"_&	c #3281D2",
":&	c #307ACD",
"<&	c #316EB1",
"[&	c #365A7C",
"}&	c #4978AD",
"|&	c #3F74D3",
"1&	c #4F80CE",
"2&	c #5A85C6",
"3&	c #6587B2",
"4&	c #6987A7",
"5&	c #6988A7",
"6&	c #6A8AA4",
"7&	c #6689A7",
"8&	c #618AAC",
"9&	c #588AB8",
"0&	c #4D89C2",
"a&	c #4588CE",
"b&	c #3C86D3",
"c&	c #3885CE",
"d&	c #2174DD",
"e&	c #2D76CC",
"f&	c #346EAE",
"g&	c #395C79",
"h&	c #386AB1",
"i&	c #3F73C7",
"j&	c #4879C9",
"k&	c #4F7DC7",
"l&	c #5680C2",
"m&	c #5781BD",
"n&	c #5681BD",
"o&	c #5582BD",
"p&	c #5382BF",
"q&	c #5084C2",
"r&	c #4A85C6",
"s&	c #4482C9",
"t&	c #3E80CD",
"u&	c #387FCE",
"v&	c #3279C6",
"w&	c #256DCE",
"x&	c #326AA9",
"y&	c #345775",
"z&	c #4877B4",
"A&	c #3C69AB",
"B&	c #426EAC",
"C&	c #4771B0",
"D&	c #4C74B1",
"E&	c #4C74AF",
"F&	c #4974B0",
"G&	c #4C77AD",
"H&	c #4875B1",
"I&	c #4575B1",
"J&	c #4276B2",
"K&	c #3F76B3",
"L&	c #3B74B2",
"M&	c #3873B4",
"N&	c #3570B2",
"O&	c #306CB0",
"P&	c #2E68AC",
"Q&	c #295C9E",
"R&	c #4C6E81",
"S&	c #516F8C",
"T&	c #3D5C78",
"U&	c #435F7D",
"V&	c #44607C",
"W&	c #42617D",
"X&	c #405F7C",
"Y&	c #3F607D",
"Z&	c #3B5E7D",
"`&	c #3B5F7F",
" *	c #395D7E",
".*	c #375B7E",
"+*	c #355779",
"@*	c #476A85",
". + @ # $ % $ % $ $ $ $ $ $ & $ $ $ @ * . = = = ",
"- ; > , ' ) ! ) ! ! ! ! ! ~ ~ ! ! ! { ] ^ . . . ",
"/ ( _ : : : : < < < < < < < < [ [ [ } | 1 2 2 2 ",
"3 4 5 6 7 8 9 0 a b c d e f g h i j k l m n n n ",
": o p q r s t u v w x y z A B C D E F G H I I I ",
"J K L M N O P Q R S T U V W X Y Z `  ...+.@.@.@.",
"+.#.$.%.&.*.=.-.;.>.,.'.).!.~.{.].^./.(.+._._._.",
"J :.<.[.*.}.|.1.2.3.4.5.6.7.8.9.0.a.b.c.+._._._.",
"d.e.f.g.=.h.i.j.3.k.l.m.n.o.p.q.r.s.b.t.+._._._.",
"d.u.v.w.-.x.y.z.A.B.C.D.E.F.G.H.I.J.K.t.+._._._.",
": L.M.N.O.P.Q.R.S.T.U.V.W.I.X.Y.X.Z.`. ++..+.+.+",
": ++@+#+$+%+&+*+=+-+;+>+,+'+)+!+~+{+]+^++./+/+/+",
"< (+_+:+%+<+[+*+=+}+|+1+2+3+4+5+6+7+8+9+J 0+0+0+",
"< a+b+c+d+e+f+g+h+i+j+k+l+m+n+o+p+q+r+s+d.t+t+t+",
"[ u+v+w+x+y+z+A+B+C+D+E+F+G+H+I+J+K+L+M+: N+N+N+",
"O+P+Q+R+S+T+U+V+V+W+T+X+Y+Z+`+ @.@+@@@#@: $@$@$@",
"%@&@*@=@-@;@>@>@>@>@,@'@)@!@~@{@]@^@/@(@< _@_@_@",
"} :@<@[@}@|@T+T+1@1@2@< 3@4@5@6@7@8@9@0@< a@a@a@",
"b@c@d@e@f@g@h@i@j@k@l@m@n@o@p@q@r@s@t@u@< v@v@v@",
"w@x@y@z@A@B@C@D@E@F@G@H@I@J@K@^@L@M@N@O@< P@P@P@",
"Q@R@S@T@U@V@W@F X@Y@Z@`@ #.#+#@###N@$#%#O+&#&#&#",
"*#=#-#;#>#>#,#>#'#'#)#!#~#{#]#^#^#/#(#_#:#v@v@v@",
"<#[#J J J +.+.J J J J d.: d.: d.d.d.}#|#1#2#2#2#",
"3#4#5#6#6#6#6#6#6#6#6#6#7#6#8#9#9#6#8#0#a#b#b#b#",
"c#c#c#c#c#c#c#c#c#c#c#c#c#d#d#c#c#c#c#c#c#e#e#e#",
"f#f#f#f#f#f#f#f#f#f#f#f#f#g#g#f#f#f#f#f#f#h#h#h#",
". + @ # $ % $ % $ $ $ $ $ $ & $ $ $ @ * . = = = ",
"- ; > , ' ) ! ) ! ! ! ! ! ~ ~ ! ! ! { ] ^ . . . ",
"/ ( i#i#i#i#i#i#i#i#i#i#i#i#i#i#i#i#i#| 1 2 2 2 ",
"3 i#j#k#l#m#n#o#p#q#r#s#t#u#v#w#x#y#z#i#m n n n ",
"i#A#B#C#D#E#F#G#H#I#J#K#L#M#N#O#P#Q#R#S#i#I I I ",
"i#T#U#V#W#X#Y#Z#`# $.$+$@$#$$$%$&$*$=$-$i#@.@.@.",
"i#;$W#>$,$'$)$!$~${$]$^$/$($_$:$<$[$}$|$i#_._._.",
"i#1$2$3$'$4$5$6$7$8$9$0$a$b$c$d$e$f$g$h$i#_._._.",
"i#i$j$k$)$l$m$n$8$o$p$q$r$s$t$u$v$w$x$y$i#_._._.",
"i#z$A$B$!$C$D$E$F$G$H$I$J$K$L$M$N$O$P$Q$i#_._._.",
"i#R$S$T$U$V$W$X$Y$Z$`$ %.%+%@%#%$%%%&%*%i#.+.+.+",
"i#=%-%;%>%,%'%)%!%~%{%]%^%/%(%_%:%<%[%}%i#/+/+/+",
"i#|%1%2%3%4%5%)%!%6%7%8%9%0%a%b%c%d%e%f%i#0+0+0+",
"i#g%h%i%j%k%l%m%n%o%p%q%r%s%t%u%v%w%x%y%i#t+t+t+",
"i#z%A%B%C%D%E%F%G%H%I%J%K%L%M%N%O%P%Q%R%i#N+N+N+",
"i#S%T%U%V%i#i#i#i#i#i#i#W%X%Y%Z%`% &.&+&i#$@$@$@",
"i#@&#&$&%&i#i#i#i#i#i#i#&&*&=&-&;&>&,&'&i#_@_@_@",
"i#)&!&~&{&i#i#i#i#i#i#i#]&^&/&(&_&:&<&[&i#a@a@a@",
"i#}&|&1&2&3&4&5&6&7&8&9&0&a&b&c&d&e&f&g&i#v@v@v@",
"i#h&i&j&k&l&m&n&o&p&q&r&s&t&u&>&v&w&x&y&i#P@P@P@",
"i#z&A&B&C&D&E&F&G&H&I&J&K&L&M&N&O&P&Q&R&i#&#&#&#",
"*#i#S&T&U&U&V&U&W&W&X&Y&Z&`& *.*.*+*@*i#:#v@v@v@",
"<#[#i#i#i#i#i#i#i#i#i#i#i#i#i#i#i#i#i#|#1#2#2#2#",
"3#4#5#6#6#6#6#6#6#6#6#6#7#6#8#9#9#6#8#0#a#b#b#b#",
"c#c#c#c#c#c#c#c#c#c#c#c#c#d#d#c#c#c#c#c#c#e#e#e#",
"f#f#f#f#f#f#f#f#f#f#f#f#f#g#g#f#f#f#f#f#f#h#h#h#"};
