/* XPM */
static char *rollupI[] = {
/* columns rows colors chars-per-pixel */
"26 52 180 2",
"   c #2f436b",
".  c #31456f",
"X  c #324771",
"o  c #364c77",
"O  c #364d78",
"+  c #3b4e75",
"@  c #3e5076",
"#  c #3d5179",
"$  c #47596a",
"%  c #4c5c63",
"&  c #4e5f6a",
"*  c #455771",
"=  c #44557b",
"-  c #4b5c78",
";  c #4f606f",
":  c #546266",
">  c #53636b",
",  c #58656b",
"<  c #5d6b6f",
"1  c #536370",
"2  c #51687b",
"3  c #586672",
"4  c #5b6c73",
"5  c #64727a",
"6  c #36538a",
"7  c #355899",
"8  c #3a5c9a",
"9  c #3e639e",
"0  c #3e63a1",
"q  c #3964ab",
"w  c #3b66b1",
"e  c #3c6bb3",
"r  c #3e6eba",
"t  c #3e70ba",
"y  c #435880",
"u  c #425f8c",
"i  c #42608c",
"p  c #4f6188",
"a  c #4d6a8c",
"s  c #416295",
"d  c #42629e",
"f  c #56678d",
"g  c #556e8b",
"h  c #516e91",
"j  c #557393",
"k  c #597595",
"l  c #5b749b",
"z  c #5d7994",
"x  c #5c7a9a",
"c  c #4164a1",
"v  c #4668a4",
"b  c #446bab",
"n  c #4c65a0",
"m  c #4a6ba5",
"M  c #4a6bab",
"N  c #426db3",
"B  c #406db8",
"V  c #4570b7",
"C  c #4275bd",
"Z  c #4b75bb",
"A  c #4c79bd",
"S  c #536ca6",
"D  c #546faa",
"F  c #516fb7",
"G  c #5671aa",
"H  c #557aa4",
"J  c #5a73ac",
"K  c #597da7",
"L  c #5479bd",
"P  c #5873b1",
"I  c #5976bd",
"U  c #5e7bb6",
"Y  c #5b7bbd",
"T  c #677580",
"R  c #60758e",
"E  c #657b93",
"W  c #657c9b",
"Q  c #697d92",
"!  c #687e9c",
"~  c #6179a2",
"^  c #627cb5",
"/  c #637cb9",
"(  c #4377c0",
")  c #4f7dc1",
"_  c #547dc0",
"`  c #5c7dc1",
"'  c #617ec1",
"]  c #5d80a4",
"[  c #5d83ab",
"{  c #5c82bc",
"}  c #6c829a",
"|  c #70859c",
" . c #72899e",
".. c #6586a2",
"X. c #6484ab",
"o. c #658aae",
"O. c #6d85a2",
"+. c #6b85ac",
"@. c #6b8aa3",
"#. c #6a8aab",
"$. c #6b83b5",
"%. c #6b83ba",
"&. c #7186a5",
"*. c #7489a4",
"=. c #738aae",
"-. c #798da5",
";. c #7c8fa8",
":. c #748db2",
">. c #748abd",
",. c #798eb2",
"<. c #7a8ebe",
"1. c #7e92ab",
"2. c #7791b3",
"3. c #7c92b3",
"4. c #7e93bd",
"5. c #5581c3",
"6. c #5c80c1",
"7. c #6682c5",
"8. c #6b86c6",
"9. c #6a87c9",
"0. c #6b8ac7",
"q. c #6e8ac9",
"w. c #748cca",
"e. c #748fd0",
"r. c #7690cd",
"t. c #7b93cc",
"y. c #7691d0",
"u. c #7b95d1",
"i. c #7f98d3",
"p. c #bebe3f",
"a. c #8295ac",
"s. c #8698ad",
"d. c #8d9daf",
"f. c #8195b5",
"g. c #8097ba",
"h. c #8598b5",
"j. c #849abb",
"k. c #8a9db3",
"l. c #899dbb",
"z. c #8da1be",
"x. c #92a4bd",
"c. c #9cabb5",
"v. c #98a9be",
"b. c #8096ce",
"n. c #8598c3",
"m. c #839ecd",
"M. c #899bc5",
"N. c #849bd4",
"B. c #899ed4",
"V. c #8ea2c0",
"C. c #83a3d5",
"Z. c #8aa2d5",
"A. c #8ca2d8",
"S. c #8aa8d8",
"D. c #92a6c0",
"F. c #93a6ce",
"G. c #96a9c2",
"H. c #9badc4",
"J. c #94a6d3",
"K. c #91a6d9",
"L. c #94a9db",
"P. c #9aaedc",
"I. c #9fb0c5",
"U. c #9fb3df",
"Y. c #a2b2c4",
"T. c #a7b7c8",
"R. c #acbbca",
"E. c #b0bfcb",
"W. c #a3b6e0",
"Q. c #a6b8e1",
"!. c #abbce2",
"~. c #aec0e4",
"^. c #c3daeb",
"/. c #cbe5ed",
"(. c #cfe8ef",
"). c #d0e8ef",
"_. c #d4e8f0",
"`. c #def4f4",
"'. c #e2f5f5",
"]. c white",
/* pixels */
"e V N b e b b e b b e b e b v b e b b e e A C [ t t ",
"q 9 s u i i i i i i i i i i u i i i 9 9 q V e t t t ",
"d C.(.'.'.`.`.`.`.`.`.`.`.`.`.`.`.`.`.C.s w w w q e ",
"C./.F.j.4.>.>.=.%.%.%.%.o.^ ^ ^ J S H /.C.q q q q q ",
"'.F.Q.!.U.L.K.Z.B.B.N.N.i.i.u.y.0./ S f _.q q q q q ",
"'.M.!.~.W.P.L.A.Z.B.B.N.N.i.u.w.q.7.S + '.0 q q q q ",
"'.g.W.Q.P.J.Z.B.N.b.t.r.w.w.q.8.7.7.D = '.q q q q q ",
"'.t.P.P.J.].].].].].].].].].].].' Y J = '.q q q q q ",
"'.>.J.K.Z.].].].].].].].].].].].` ` J = `.q q q q q ",
"'.>.A.Z.B.].].].].].].].].].].].` ` J = '.q q q q q ",
"`.>.N.B.b.b.b.w.w.q.7.7.` ` I _ I Y J = '.q q q q q ",
"`.%.b.N.b.b.b.w.8.8.].7.' ' _ L I I J = '.q w w q q ",
"`./ u.u.b.t.w.w.8.].].].{ Y _ _ L _ D = `.w w w e q ",
"'./ r.u.b.w.w.q.].].].].].` 5.L L _ M # `.e e w e e ",
"`.U q.w.t.w.w.].].].].].].].5._ L L m # `.e e e e e ",
"`.P 9.w.w.w.w.q.7.].].].5.{ 5.L A Z v + `.r r t t t ",
"`.D ' w.w.w.w.q.7.].].].5.{ 5.A Z C c o `.r r r r r ",
"`.F ' ' ' w.w.q.0.].].].5.{ 5.5.Z V c X `.r r r r r ",
"`.M I ' 8./ ^ ^ U U U U L A { C Z N 8 o `.( C ( ( ( ",
"`.d F I / / ^ ^ ^ U U { L L Z Z N w 8   `.C C C C C ",
"^.D c n S S S S S D m m m d m 9 8 8 6 y `.( ( ( ( ( ",
"C.^.p o + = = + @ @ + * o @ o o o X y ^.S.C C C C C ",
"M Z.'.'.'.'.'.'.'.'.'.'.'.'.`.`.'.`.).A.b B C C C t ",
"N M v M v M M v b M M b v b b b M M M b N B B B r r ",
"7 7 7 7 7 7 7 7 9 7 7 7 7 7 9 7 7 8 8 8 7 9 7 7 7 7 ",
"o o o # o o o o O O X o o o O + o o X + O O O O o 6 ",
"e V b b e m 0 b 0 b b e q b e b 0 b e e t C [ t C C ",
"w 9 9 6 6 i i 9 i i i i i i a 6 2 9 9 9 q e t t e V ",
"9 i.p.p.p.p.p.p.p.p.p.p.p.p.p.p.p.p.p.i.9 q q e w w ",
"i.p.v.k.d.1.;.-.1.*.*.*.*.O.@.@.] ] } p.i.q q q q q ",
"p.c.R.R.T.H.c.v.D.V.V.z.z.j.3.4.2.#.} 5 p.q q q q q ",
"p.c.E.E.T.I.v.v.z.z.V.V.z.z.z.3.2.@.} % p.q q 0 q q ",
"p.s.T.R.I.v.x.x.z.k.h.f.3.h.2.2.:.=.E , p.q q q q q ",
"p.1.Y.c.v.p.p.p.p.p.p.p.p.p.p.p.=.+.W 3 p.q q q q q ",
"p.1.G.v.v.p.p.p.p.p.p.p.p.p.p.p.+.+.~ - p.q q q q q ",
"p.2.D.v.z.p.p.p.p.p.p.p.p.p.p.p.+.+.Q < p.q q q q q ",
"p.2.z.z.z.h.h.3.3.,.:.=.+.+.X.X.+.X.W 3 p.q q q q q ",
"p.-.z.z.z.h.k.h.3.:.p.=.+.+.+.X.X.X.W , p.w q w q q ",
"p. .z.z.h.h.3.3.,.p.p.p.=.o.X.X.X.X.W 1 p.w w w q w ",
"p.@.1.k.k.3.3.3.p.p.p.p.p.+.o.X.[ X.x - p.w e w w w ",
"p.| 3.f.s.a.a.p.p.p.p.p.p.p.o.o.[ [ k ; p.e e e w w ",
"p.! 2.a.a.h.a.3.:.p.p.p.#.#.o.[ [ ] k * p.r r r ( r ",
"p.W :.2.3.3.3.3.:.p.p.p.o.#.o.[ [ ] j ; p.r r r r r ",
"p.H $.:.:.j.3.3.2.p.p.p.#.@.#.[ ] H h $ p.r t t r r ",
"p.l ~ :.=.O.O.*. . .} } @...@.] ] H a $ p.C C ( ( ( ",
"p.h ~ ~ ..} O.O. . .@...@.@...] H l g % p.C C C r r ",
"p.Q k R } } T } } } } } z k k j h a 2 2 p.( ( ( ( ( ",
"C.p.5 , , , > : : : > > : ; : ; & & 4 p.A.C ( r ( ( ",
"M Z.p.p.p.p.p.p.p.p.p.p.p.p.p.p.p.p.p.B.M ( B ( ( r ",
"N M v b M M M M b M M b b b M M M M M N N B B B r ( ",
"7 7 7 7 7 7 7 7 7 7 7 7 7 7 7 7 7 7 7 7 7 7 7 7 8 8 ",
"O O o o o o o X o o o o X o o o o o X O O O O o O O "
};
