<?xml version="1.0" encoding="UTF-8" standalone="no"?>
<!-- Created with Inkscape (http://www.inkscape.org/) -->

<svg
   xmlns:osb="http://www.openswatchbook.org/uri/2009/osb"
   xmlns:dc="http://purl.org/dc/elements/1.1/"
   xmlns:cc="http://creativecommons.org/ns#"
   xmlns:rdf="http://www.w3.org/1999/02/22-rdf-syntax-ns#"
   xmlns:svg="http://www.w3.org/2000/svg"
   xmlns="http://www.w3.org/2000/svg"
   xmlns:sodipodi="http://sodipodi.sourceforge.net/DTD/sodipodi-0.dtd"
   xmlns:inkscape="http://www.inkscape.org/namespaces/inkscape"
   id="svg2"
   version="1.1"
   inkscape:version="0.48.4 r9939"
   width="1920"
   height="1080"
   sodipodi:docname="Botón_Me_gusta.svg">
  <metadata
     id="metadata8">
    <rdf:RDF>
      <cc:Work
         rdf:about="">
        <dc:format>image/svg+xml</dc:format>
        <dc:type
           rdf:resource="http://purl.org/dc/dcmitype/StillImage" />
        <dc:title />
      </cc:Work>
    </rdf:RDF>
  </metadata>
  <defs
     id="defs6">
    <linearGradient
       id="linearGradient3779"
       osb:paint="solid">
      <stop
         style="stop-color:#000000;stop-opacity:1;"
         offset="0"
         id="stop3781" />
    </linearGradient>
  </defs>
  <sodipodi:namedview
     pagecolor="#ffffff"
     bordercolor="#666666"
     borderopacity="1"
     objecttolerance="10"
     gridtolerance="10"
     guidetolerance="10"
     inkscape:pageopacity="0"
     inkscape:pageshadow="2"
     inkscape:window-width="1920"
     inkscape:window-height="1018"
     id="namedview4"
     showgrid="false"
     inkscape:zoom="0.5"
     inkscape:cx="1161.5091"
     inkscape:cy="754.5933"
     inkscape:window-x="-8"
     inkscape:window-y="-8"
     inkscape:window-maximized="1"
     inkscape:current-layer="svg2" />
  <path
     style="fill:#455c91;fill-opacity:1;stroke:#485c90;stroke-width:3.90763354px;stroke-linecap:butt;stroke-linejoin:miter;stroke-opacity:1"
     d="m 940.31266,108.33345 1.99897,158.1368 c -37.64568,81.05926 -112.1074,205.38672 -165.76795,251.58973 l -6.83182,-8.45099 -369.75138,-0.72513 c -19.0222,-0.81054 -39.35312,21.07539 -38.20057,36.08069 l 36.3917,473.79885 c 1.19356,15.5419 17.70852,34.9813 34.97837,34.9813 l 329.29196,0 c 12.88802,0 30.55128,-12.8104 31.09201,-28.619 l 1.41332,-41.3421 c 10.6909,15.1854 39.62801,37.8059 64.65698,37.8059 l 443.76665,0 c 55.5571,0 141.2074,-59.18115 113.0611,-158.9911 31.8218,-25.46796 50.6573,-68.7224 31.7998,-123.66246 33.3687,-27.27122 57.6382,-78.53813 29.6782,-124.3669 88.9251,-74.51453 31.2172,-178.77874 -37.4522,-178.77874 l -298.9061,0 c 11.1815,-48.89671 28.7305,-98.85123 27.5585,-164.64689 -1.0119,-56.82329 -38.7576,-139.63869 -65.7174,-183.7248 -11.2451,-18.390283 -115.03248,-53.828762 -163.06014,20.91484 z"
     id="path3009"
     inkscape:connector-curvature="0"
     sodipodi:nodetypes="cccccssssscsccccscssc" />
  <path
     style="fill:#6e7fb3;fill-opacity:1;stroke:none"
     d="m 404.36092,554.5919 311.44398,0 0.72993,457.7111 -277.24538,0 z"
     id="path3764"
     inkscape:connector-curvature="0"
     sodipodi:nodetypes="ccccc" />
  <path
     style="fill:#6475ab;fill-opacity:1;stroke:none"
     d="m 437.83388,616.44458 246.68304,0 0,368.19602 -215.39284,0 z"
     id="path2994"
     inkscape:connector-curvature="0" />
  <path
     style="fill:#edf5f7;fill-opacity:1;stroke:none"
     d="m 1090.4861,478.76602 c 14.2591,-57.3299 24.6623,-121.0919 31.5596,-182.20417 1.6952,-15.02263 1.6217,-28.00193 -0.6545,-40.45403 -9.0031,-49.26214 -29.6186,-93.253 -48.9766,-137.55271 -19.1741,-15.08632 -56.7036,-21.09343 -84.84853,1.79034 l 0,155.48387 C 940.34961,368.31788 887.09802,457.35835 821.341,539.25389 l -61.98251,43.27352 0,359.94082 42.92933,0.0645 c 0,0 56.91644,34.80172 59.90453,33.31177 4.98089,2.48931 443.73775,1.23241 443.73775,1.23241 23.7852,0.48564 109.5937,-62.1887 54.9384,-111.1132 -7.2834,-4.47063 -6.3268,-17.89911 0.4977,-22.37034 34.1615,-6.13087 75.5657,-70.39393 32.3141,-104.2415 -7.3658,-8.2089 -2.0843,-21.08077 6.6308,-22.04122 25.5512,-12.33753 69.3054,-53.63576 29.583,-103.50296 -8.016,-4.0819 -8.3615,-14.60541 -0.9112,-20.95918 38.4242,-5.35888 87.0952,-92.89563 6.5312,-113.93296 z"
     id="path2987"
     inkscape:connector-curvature="0"
     sodipodi:nodetypes="cssccccccccccccccccc" />
  <path
     style="fill:#dce4e7;fill-opacity:1;stroke:none"
     d="m 791.01201,942.59457 0,-382.31988 -31.75898,21.54766 0.14323,360.73356 z"
     id="path3002"
     inkscape:connector-curvature="0"
     sodipodi:nodetypes="ccccc" />
  <path
     style="fill:#dce4e7;fill-opacity:1;stroke:none"
     d="m 1029.0771,104.97903 36.8561,158.85703 -97.61642,173.32027 c -10.11617,17.96123 2.11282,36.16858 16.68451,36.85568 l 105.83491,4.98035 c 16.159,-73.04824 35.659,-162.13472 31.684,-217.14858 -7.2311,-38.3607 -22.7875,-86.88185 -50.1225,-143.87154 -15.266,-10.35712 -27.9496,-12.99321 -43.3206,-12.99321 z"
     id="path3000"
     inkscape:connector-curvature="0"
     sodipodi:nodetypes="ccsscccc" />
  <path
     style="fill:#dce4e7;fill-opacity:1;stroke:none"
     d="m 1300.028,478.52509 c 34.6847,32.9715 13.8589,95.10076 -16.6378,117.07632 -5.7842,3.33695 -7.0303,11.55112 -2.8168,16.90451 33.6141,38.42981 -11.0813,103.21311 -25.3568,109.876 -4.6275,4.16064 -5.2068,8.99442 -4.2261,14.0888 38.2843,53.6528 -5.9529,98.3165 -21.1301,108.46702 -5.021,4.49428 -6.5772,12.30032 -2.8173,19.72006 33.3951,52.57059 -5.2767,89.79431 -27.3327,112.94899 l 108.9714,0.0595 c 20.9544,1.04875 108.8927,-62.85188 50.6127,-113.03862 -6.5456,-5.63735 -2.3234,-20.20165 2.152,-21.00528 28.852,-5.17818 79.776,-66.14192 32.1145,-104.81454 -3.3285,-2.70088 -6.1652,-16.09923 6.549,-21.71834 39.3777,-17.40471 63.6939,-59.2629 30.0251,-103.72738 -8.9553,-5.04483 -7.8356,-15.98562 -0.8047,-20.32088 65.7857,-19.59719 67.2983,-106.77457 6.2232,-114.41616 z"
     id="path2985"
     inkscape:connector-curvature="0"
     sodipodi:nodetypes="cccccccccsssscccc" />
  <g
     id="g3779"
     transform="matrix(3.907636,0,0,3.907636,360.69996,60.432831)">
    <path
       transform="matrix(0.59806884,0,0,0.59806884,30.309966,82.598928)"
       sodipodi:open="true"
       sodipodi:end="12.541589"
       sodipodi:start="6.2585156"
       d="m 80.03736,237.47695 c 0.188395,7.63513 -5.848379,13.97735 -13.483511,14.16575 -7.635132,0.18839 -13.977353,-5.84838 -14.165748,-13.48351 -0.188395,-7.63513 5.848379,-13.97736 13.483511,-14.16575 7.634528,-0.18838 13.976476,5.84746 14.16571,13.48196"
       sodipodi:ry="13.828837"
       sodipodi:rx="13.828837"
       sodipodi:cy="237.81807"
       sodipodi:cx="66.21273"
       id="path3780"
       style="fill:#ffffff;fill-opacity:1;stroke:none"
       sodipodi:type="arc" />
    <path
       transform="translate(-0.24218783,0.04882811)"
       sodipodi:open="true"
       sodipodi:end="12.541589"
       sodipodi:start="6.2585156"
       d="m 69.384446,223.01414 c 0.0143,0.57962 -0.443975,1.06108 -1.023589,1.07538 -0.579615,0.0143 -1.061079,-0.44397 -1.075381,-1.02359 -0.0143,-0.57961 0.443974,-1.06107 1.023589,-1.07538 0.579569,-0.0143 1.061013,0.44391 1.075378,1.02348"
       sodipodi:ry="1.0498047"
       sodipodi:rx="1.0498047"
       sodipodi:cy="223.04004"
       sodipodi:cx="68.334961"
       id="path3782"
       style="fill:#000000;fill-opacity:1;stroke:none"
       sodipodi:type="arc" />
    <path
       sodipodi:type="arc"
       style="fill:#000000;fill-opacity:1;stroke:none"
       id="path3790"
       sodipodi:cx="68.334961"
       sodipodi:cy="223.04004"
       sodipodi:rx="1.0498047"
       sodipodi:ry="1.0498047"
       d="m 69.384446,223.01414 c 0.0143,0.57962 -0.443975,1.06108 -1.023589,1.07538 -0.579615,0.0143 -1.061079,-0.44397 -1.075381,-1.02359 -0.0143,-0.57961 0.443974,-1.06107 1.023589,-1.07538 0.579569,-0.0143 1.061013,0.44391 1.075378,1.02348"
       sodipodi:start="6.2585156"
       sodipodi:end="12.541589"
       sodipodi:open="true"
       transform="translate(3.3466792,0.04882811)" />
    <path
       transform="translate(3.3466792,3.6865236)"
       sodipodi:open="true"
       sodipodi:end="12.541589"
       sodipodi:start="6.2585156"
       d="m 69.384446,223.01414 c 0.0143,0.57962 -0.443975,1.06108 -1.023589,1.07538 -0.579615,0.0143 -1.061079,-0.44397 -1.075381,-1.02359 -0.0143,-0.57961 0.443974,-1.06107 1.023589,-1.07538 0.579569,-0.0143 1.061013,0.44391 1.075378,1.02348"
       sodipodi:ry="1.0498047"
       sodipodi:rx="1.0498047"
       sodipodi:cy="223.04004"
       sodipodi:cx="68.334961"
       id="path3792"
       style="fill:#000000;fill-opacity:1;stroke:none"
       sodipodi:type="arc" />
    <path
       sodipodi:type="arc"
       style="fill:#000000;fill-opacity:1;stroke:none"
       id="path3794"
       sodipodi:cx="68.334961"
       sodipodi:cy="223.04004"
       sodipodi:rx="1.0498047"
       sodipodi:ry="1.0498047"
       d="m 69.384446,223.01414 c 0.0143,0.57962 -0.443975,1.06108 -1.023589,1.07538 -0.579615,0.0143 -1.061079,-0.44397 -1.075381,-1.02359 -0.0143,-0.57961 0.443974,-1.06107 1.023589,-1.07538 0.579569,-0.0143 1.061013,0.44391 1.075378,1.02348"
       sodipodi:start="6.2585156"
       sodipodi:end="12.541589"
       sodipodi:open="true"
       transform="translate(-0.24218783,3.6865236)" />
  </g>
</svg>
