<?xml version="1.0" encoding="UTF-8" standalone="no"?>
<!-- Created with Inkscape (http://www.inkscape.org/) -->

<svg
   xmlns:dc="http://purl.org/dc/elements/1.1/"
   xmlns:cc="http://creativecommons.org/ns#"
   xmlns:rdf="http://www.w3.org/1999/02/22-rdf-syntax-ns#"
   xmlns:svg="http://www.w3.org/2000/svg"
   xmlns="http://www.w3.org/2000/svg"
   xmlns:sodipodi="http://sodipodi.sourceforge.net/DTD/sodipodi-0.dtd"
   xmlns:inkscape="http://www.inkscape.org/namespaces/inkscape"
   width="1920px"
   height="1080px"
   id="svg2985"
   version="1.1"
   inkscape:version="0.48.3.1 r9886"
   sodipodi:docname="New document 2">
  <defs
     id="defs2987" />
  <sodipodi:namedview
     id="base"
     pagecolor="#ffffff"
     bordercolor="#666666"
     borderopacity="1.0"
     inkscape:pageopacity="0.0"
     inkscape:pageshadow="2"
     inkscape:zoom="0.6"
     inkscape:cx="960"
     inkscape:cy="540"
     inkscape:document-units="px"
     inkscape:current-layer="layer1"
     showgrid="false"
     inkscape:window-width="1920"
     inkscape:window-height="978"
     inkscape:window-x="0"
     inkscape:window-y="31"
     inkscape:window-maximized="1" />
  <metadata
     id="metadata2990">
    <rdf:RDF>
      <cc:Work
         rdf:about="">
        <dc:format>image/svg+xml</dc:format>
        <dc:type
           rdf:resource="http://purl.org/dc/dcmitype/StillImage" />
        <dc:title></dc:title>
      </cc:Work>
    </rdf:RDF>
  </metadata>
  <g
     id="layer1"
     inkscape:label="Layer 1"
     inkscape:groupmode="layer">
    <g
       id="g11"
       transform="matrix(1.25,0,0,-1.25,562.18277,429.75446)">
      <path
         style="fill:#ff0000;fill-opacity:1;fill-rule:nonzero;stroke:#000000;stroke-width:6;stroke-linecap:round;stroke-linejoin:miter;stroke-miterlimit:4;stroke-opacity:1;stroke-dasharray:none"
         id="path2435"
         transform="matrix(2.253533,0,0,-2.253533,14.163059,237.97706)"
         d="m 270.75533,144.73872 a 135.81578,135.81578 0 1 1 -271.63156596,0 135.81578,135.81578 0 1 1 271.63156596,0 z"
         inkscape:connector-curvature="0" />
      <g
         id="g13" />
      <path
         style="fill:#000000;fill-opacity:1;fill-rule:nonzero;stroke:none"
         id="path35"
         d="m 452.23079,89.199189 c -13.10752,-6.82683 -42.32662,-15.019026 -77.00665,-5.188391 22.39173,-2.184585 53.52235,2.730732 69.3606,8.738342 10.37678,3.823025 19.93434,11.74215 27.30732,21.29971 9.01141,11.74215 14.74595,26.4881 14.47287,39.86869 -6.55375,-10.92293 -23.75736,-14.74596 -35.22644,-18.02283 -20.48049,-6.00762 -42.05327,-6.55376 -61.98761,-12.83444 -24.57659,-7.91913 -50.79162,-19.93435 -73.72977,-31.949569 -14.1998,-7.372976 -69.63365,-38.50332 -81.64887,-48.607028 -23.21123,-18.842051 -30.03806,-46.4224433 -49.69933,-68.268299 -11.46907,-12.83444 -60.0761,-50.518541 -70.45288,-60.076103 -18.568978,-17.476681 -31.676491,-41.234051 -59.529957,-60.076101 -8.192195,-5.46146 -7.919122,-13.92673 -9.284488,-22.93814 -2.184586,-14.19981 5.734537,-14.74596 14.472879,-21.84586 7.099903,-5.73454 11.196001,-15.56544 15.838245,-23.48429 3.823025,-6.55376 10.649855,-26.4881 16.930538,-29.76498 4.369171,-2.18459 7.372704,2.45766 11.196003,1.36536 5.46146,-1.36536 9.01141,-7.64605 13.10751,-11.196 10.92293,-10.10371 22.93815,-21.57278 36.86488,-27.85346 20.48049,-9.01142 45.05708,-9.55757 68.2683,-6.00761 -12.83444,6.00761 -25.94195,15.2921 -33.04186,21.57278 -17.47668,15.2921 -27.30731,42.053 -22.392,64.71835 9.55756,43.69171 57.61845,70.17981 95.02947,89.29492 22.392,11.46908 51.06469,9.01142 71.54518,-3.54995 25.66888,-15.56516 29.49163,-46.96858 25.12273,-73.18361 -4.0961,-23.48429 -8.73834,-45.60322 -20.20742,-66.90293 -7.91912,-14.74595 -29.76497,-38.77639 -46.96859,-43.69171 -4.64224,-1.36537 -22.11892,-2.45766 -36.5918,-2.45766 7.91912,-12.83444 20.20741,-22.66507 34.13415,-26.76117 -0.54615,-3.27688 -1.0923,-8.46527 6.55375,-12.56137 9.28449,-3.27688 8.46527,7.91912 46.42245,1.36537 20.75356,-3.27688 39.86868,4.64224 57.34537,17.20361 6.82683,5.18839 16.93026,11.4688 22.39172,18.29563 4.64252,6.28095 17.47696,30.58447 32.22291,50.24574 -18.02283,-9.28449 -40.14175,-18.56898 -48.06088,-9.55756 -10.92293,12.01522 0.81895,36.31873 7.37298,46.14937 8.73834,13.10751 27.30732,17.74975 40.14176,25.94195 16.38439,10.10371 25.39581,18.56898 36.86488,34.13415 8.1922,11.196 16.38439,26.21503 19.93434,44.51093 5.18839,27.034241 4.64225,63.07963 -30.31112,102.675243 -25.94196,24.303788 -82.46811,29.492178 -125.88674,20.20769 31.40341,10.103708 47.51473,10.103708 65.81064,8.738342 20.48048,-1.365366 40.96097,-2.730732 60.89532,-20.4804898 23.21122,-20.2074162 34.40722,-40.9609792 39.86868,-69.6336642 2.18459,-10.922928 1.36537,-22.118929 0.54615,-39.595611 0.27307,0 15.2921,1.09229 15.56517,1.09229 14.19981,0 25.94196,-1.63844 39.04947,-7.37297 13.65366,-6.28068 25.94195,-14.74595 36.86488,-24.57659 1.91151,-1.91151 4.0961,-3.54995 5.73454,-5.46146 13.92673,69.90673 3.54995,145.274659 -34.95337,211.904791 -16.38439,28.399613 -36.86488,53.249269 -59.80303,74.002839 -2.18459,-1.36537 -4.36917,-2.45766 -6.28068,-3.54995 -14.74596,-7.91913 -24.84966,-9.01142 -32.76879,-12.83444 -6.00761,-18.56898 -15.01902,-24.303519 -31.40341,-33.041861 z M 234.86453,-17.299357 c -9.28449,-8.192196 -22.11893,-14.746225 -33.3152,-19.66127 -5.18812,-1.911785 -6.28042,-11.469347 -8.73807,-7.373249 -0.8195,0.819493 2.18458,3.823298 4.64197,9.557562 8.46554,18.56925 10.37705,23.211221 23.75764,36.0459344 13.10751,12.8344406 27.58039,24.5765876 43.6917,30.5841976 -26.76116,-28.6726853 -13.1075,-34.4072223 -30.03804,-49.153175 z"
         inkscape:connector-curvature="0" />
    </g>
  </g>
</svg>
