/* XPM */
static char * menuButtonO_xpm[] = {
"20 40 20 1",
" 	c None",
".	c #FFFFFF",
"+	c #FEFDFC",
"@	c #FDFBFA",
"#	c #FCFAF7",
"$	c #FBF8F5",
"%	c #FAF6F2",
"&	c #F9F5F0",
"*	c #F8F3ED",
"=	c #F7F2EB",
"-	c #F6F0E8",
";	c #F5EEE6",
">	c #F4EDE4",
",	c #F3EBE1",
"'	c #F2EADF",
")	c #F1E8DC",
"!	c #F0E6DA",
"~	c #EFE5D7",
"{	c #EEE3D5",
"]	c #EEE2D3",
"....................",
"....................",
"++++++++++++++++++++",
"@@@@@@@@@@@@@@@@@@@@",
"####################",
"$$$$$$$$$$$$$$$$$$$$",
"%%%%%%%%%%%%%%%%%%%%",
"&&&&&&&&&&&&&&&&&&&&",
"********************",
"====================",
"--------------------",
";;;;;;;;;;;;;;;;;;;;",
">>>>>>>>>>>>>>>>>>>>",
",,,,,,,,,,,,,,,,,,,,",
"''''''''''''''''''''",
"))))))))))))))))))))",
"!!!!!!!!!!!!!!!!!!!!",
"~~~~~~~~~~~~~~~~~~~~",
"{{{{{{{{{{{{{{{{{{{{",
"]]]]]]]]]]]]]]]]]]]]",
"....................",
"....................",
"++!!!!!!!!!!!!!!!!++",
"@@!!!!!!!!!!!!!!!!@@",
"##!!!!!!!!!!!!!!!!##",
"$$!!!!!!!!!!!!!!!!$$",
"%%!!!!!!!!!!!!!!!!%%",
"&&!!!!!!!!!!!!!!!!&&",
"**!!!!!!!!!!!!!!!!**",
"==!!!!!!!!!!!!!!!!==",
"--!!!!!!!!!!!!!!!!--",
";;!!!!!!!!!!!!!!!!;;",
">>!!!!!!!!!!!!!!!!>>",
",,!!!!!!!!!!!!!!!!,,",
"''!!!!!!!!!!!!!!!!''",
"))!!!!!!!!!!!!!!!!))",
"!!!!!!!!!!!!!!!!!!!!",
"~~!!!!!!!!!!!!!!!!~~",
"{{{{{{{{{{{{{{{{{{{{",
"]]]]]]]]]]]]]]]]]]]]"};
