/* XPM */
static char * pidgin_32x32_xpm[] = {
"32 32 373 2",
"  	c None",
". 	c #7AA4D1",
"+ 	c #74A0CF",
"@ 	c #729FCF",
"# 	c #79A3D0",
"$ 	c #78A3D1",
"% 	c #8CB1D7",
"& 	c #F0F3F7",
"* 	c #FEFEFE",
"= 	c #FFFFFF",
"- 	c #EFF3F7",
"; 	c #88ABD2",
"> 	c #739DC9",
", 	c #85ACD5",
"' 	c #FDFDFE",
") 	c #FDFDFD",
"! 	c #7EA3CA",
"~ 	c #7BA5D1",
"{ 	c #E5ECF4",
"] 	c #FCFCFC",
"^ 	c #E3EAF1",
"/ 	c #6E96C1",
"( 	c #77A2CF",
"_ 	c #FBFCFD",
": 	c #FBFBFB",
"< 	c #FBFCFC",
"[ 	c #6891BB",
"} 	c #582661",
"| 	c #6D4385",
"1 	c #F0E8F2",
"2 	c #FAFAFA",
"3 	c #5E88B5",
"4 	c #491F50",
"5 	c #51235B",
"6 	c #502258",
"7 	c #4F2357",
"8 	c #431E4A",
"9 	c #44224A",
"0 	c #674B6C",
"a 	c #917E95",
"b 	c #C3B9C4",
"c 	c #F9F9F9",
"d 	c #5B85B2",
"e 	c #3F1C46",
"f 	c #56355B",
"g 	c #84678B",
"h 	c #9E83A3",
"i 	c #B49DB9",
"j 	c #B49CB8",
"k 	c #9E83A4",
"l 	c #86688B",
"m 	c #56365D",
"n 	c #705775",
"o 	c #E5E2E6",
"p 	c #F7F7F7",
"q 	c #5881AE",
"r 	c #401E46",
"s 	c #846789",
"t 	c #B79EBC",
"u 	c #A07CA8",
"v 	c #946B9E",
"w 	c #885994",
"x 	c #8A5C95",
"y 	c #976FA1",
"z 	c #A583AC",
"A 	c #B89FBD",
"B 	c #7F5F86",
"C 	c #48274E",
"D 	c #BFB4C1",
"E 	c #F6F6F6",
"F 	c #557EAA",
"G 	c #411F47",
"H 	c #A88EAE",
"I 	c #AC8DB2",
"J 	c #875893",
"K 	c #82508E",
"L 	c #83528F",
"M 	c #845390",
"N 	c #855591",
"O 	c #875792",
"P 	c #90659B",
"Q 	c #B297B8",
"R 	c #9F80A6",
"S 	c #E1DEE2",
"T 	c #F5F5F5",
"U 	c #517AA6",
"V 	c #8C6E92",
"W 	c #9E79A5",
"X 	c #784783",
"Y 	c #754481",
"Z 	c #774783",
"` 	c #7E4E8B",
" .	c #885993",
"..	c #895A94",
"+.	c #8B5D96",
"@.	c #8A5D95",
"#.	c #7E5189",
"$.	c #754B7F",
"%.	c #6D4277",
"&.	c #6A4771",
"*.	c #F4F4F4",
"=.	c #4E77A2",
"-.	c #5C3B62",
";.	c #AD90B3",
">.	c #7C4E88",
",.	c #D0C0D4",
"'.	c #F6F3F7",
").	c #DED2E1",
"!.	c #926A9D",
"~.	c #81508C",
"{.	c #8E6298",
"].	c #90649A",
"^.	c #83548D",
"/.	c #9976A1",
"(.	c #E8E0E9",
"_.	c #D5C7D8",
":.	c #855F8D",
"<.	c #99829F",
"[.	c #F3F3F3",
"}.	c #4B739E",
"|.	c #3D1A43",
"1.	c #907495",
"2.	c #8B5D95",
"3.	c #BFA6C5",
"4.	c #FCFAFC",
"5.	c #91629C",
"6.	c #8C5E98",
"7.	c #956C9E",
"8.	c #956C9F",
"9.	c #84508F",
"0.	c #E0D3E3",
"a.	c #CFBED3",
"b.	c #794D82",
"c.	c #F2F2F2",
"d.	c #48709A",
"e.	c #401D47",
"f.	c #A288A6",
"g.	c #845091",
"h.	c #EBE2ED",
"i.	c #BD99C6",
"j.	c #7A318D",
"k.	c #D3BDD7",
"l.	c #8E579A",
"m.	c #9972A3",
"n.	c #9A73A2",
"o.	c #8F579B",
"p.	c #A16DAD",
"q.	c #A675B2",
"r.	c #F6F2F7",
"s.	c #7F4A8B",
"t.	c #F1F1F1",
"u.	c #FEFFFF",
"v.	c #476E97",
"w.	c #B19AB7",
"x.	c #8A5297",
"y.	c #E7DCEA",
"z.	c #7C5487",
"A.	c #F5EFF6",
"B.	c #9459A0",
"C.	c #9D78A6",
"D.	c #9F7BA7",
"E.	c #9C6AA7",
"F.	c #734C7D",
"G.	c #742888",
"H.	c #E5D7E8",
"I.	c #854E92",
"J.	c #EDECED",
"K.	c #EFEFEF",
"L.	c #F4F6F8",
"M.	c #4D7298",
"N.	c #3F1C45",
"O.	c #B9A3BD",
"P.	c #8E569B",
"Q.	c #BD97C5",
"R.	c #CFB1D6",
"S.	c #9C67A8",
"T.	c #A27DA8",
"U.	c #8E6B97",
"V.	c #A27DAA",
"W.	c #803891",
"X.	c #9559A3",
"Y.	c #EFE5F1",
"Z.	c #BC93C6",
"`.	c #774482",
" +	c #DCE2E9",
".+	c #486C93",
"++	c #B7A1BC",
"@+	c #8A5A96",
"#+	c #9B5FA9",
"$+	c #C099C9",
"%+	c #EADEED",
"&+	c #EBDFEE",
"*+	c #C39DCB",
"=+	c #9C60AA",
"-+	c #97719F",
";+	c #7B557E",
">+	c #AC6540",
",+	c #7E5A86",
"'+	c #9A75A1",
")+	c #9E6AAA",
"!+	c #9C5FA8",
"~+	c #9C69A8",
"{+	c #6A4D71",
"]+	c #A1B3C6",
"^+	c #B69FBA",
"/+	c #8F619A",
"(+	c #9860A4",
"_+	c #945AA2",
":+	c #8C559A",
"<+	c #9B67A7",
"[+	c #D7CEDA",
"}+	c #FEDBA8",
"|+	c #E58928",
"1+	c #EEC5A4",
"2+	c #D8CEDA",
"3+	c #9A7BA3",
"4+	c #8B627F",
"5+	c #7D5D84",
"6+	c #958399",
"7+	c #F2F4F6",
"8+	c #B7C4D2",
"9+	c #42668D",
"0+	c #401D46",
"a+	c #B49EB8",
"b+	c #8D6198",
"c+	c #956B9E",
"d+	c #8C6495",
"e+	c #AA745D",
"f+	c #A87462",
"g+	c #8F657A",
"h+	c #B77E5C",
"i+	c #FAB552",
"j+	c #E78C2B",
"k+	c #CC5B02",
"l+	c #9F4D2E",
"m+	c #A64F26",
"n+	c #B0511B",
"o+	c #63446C",
"p+	c #43547C",
"q+	c #466D96",
"r+	c #456C94",
"s+	c #436A92",
"t+	c #4D7197",
"u+	c #4C6F95",
"v+	c #3D638A",
"w+	c #42658C",
"x+	c #42668B",
"y+	c #B29CB7",
"z+	c #8F639A",
"A+	c #91659A",
"B+	c #966D9F",
"C+	c #9A74A3",
"D+	c #875E7D",
"E+	c #F2AF53",
"F+	c #FDB751",
"G+	c #DA973E",
"H+	c #E88F2D",
"I+	c #B14F00",
"J+	c #CE5C00",
"K+	c #904D45",
"L+	c #45254A",
"M+	c #7F97B2",
"N+	c #B0BECD",
"O+	c #44688D",
"P+	c #B19AB5",
"Q+	c #91669B",
"R+	c #9B74A3",
"S+	c #9D79A4",
"T+	c #8E606D",
"U+	c #EBA953",
"V+	c #E99130",
"W+	c #AF521C",
"X+	c #9A7E9F",
"Y+	c #3E1B44",
"Z+	c #45698F",
"`+	c #B9C5D2",
" @	c #AFBECD",
".@	c #3E6388",
"+@	c #442449",
"@@	c #B8A0BD",
"#@	c #8C5E97",
"$@	c #9A74A4",
"%@	c #9F7BA8",
"&@	c #A280AB",
"*@	c #896384",
"=@	c #C1875A",
"-@	c #FAB451",
";@	c #EB9432",
">@	c #BA5512",
",@	c #8B6484",
"'@	c #A88EAD",
")@	c #3B6087",
"!@	c #577697",
"~@	c #3D6187",
"{@	c #66496C",
"]@	c #AC8DB3",
"^@	c #966C9E",
"/@	c #9F7AA7",
"(@	c #A380AA",
"_@	c #A887AF",
":@	c #A180A7",
"<@	c #8D6680",
"[@	c #AF6E4B",
"}@	c #B65415",
"|@	c #896180",
"1@	c #B398B9",
"2@	c #A186A6",
"3@	c #411D47",
"4@	c #8C7090",
"5@	c #9C77A5",
"6@	c #8A5B95",
"7@	c #93699C",
"8@	c #9770A1",
"9@	c #9C76A5",
"0@	c #A17DA9",
"a@	c #A583AD",
"b@	c #A989B0",
"c@	c #AD8EB3",
"d@	c #A788AD",
"e@	c #96769D",
"f@	c #AD90B5",
"g@	c #AF92B5",
"h@	c #AE95B3",
"i@	c #3F1B46",
"j@	c #9C6CA7",
"k@	c #8D6098",
"l@	c #92679B",
"m@	c #9A73A3",
"n@	c #9E79A6",
"o@	c #A27EAA",
"p@	c #A684AD",
"q@	c #AA8AB0",
"r@	c #AA8BB1",
"s@	c #A786AE",
"t@	c #BAA2BE",
"u@	c #5C3B61",
"v@	c #673771",
"w@	c #914FA1",
"x@	c #824C8E",
"y@	c #865691",
"z@	c #986FA0",
"A@	c #A17EA9",
"B@	c #A482AC",
"C@	c #AA8BB2",
"D@	c #714F79",
"E@	c #8A5295",
"F@	c #884597",
"G@	c #7E3D8E",
"H@	c #966C9F",
"I@	c #9971A1",
"J@	c #9B75A4",
"K@	c #9F7AA8",
"L@	c #A381AC",
"M@	c #956F9D",
"N@	c #916E99",
"O@	c #523159",
"P@	c #45214C",
"Q@	c #9D72A7",
"R@	c #7F428E",
"S@	c #7B3B8A",
"T@	c #7E458C",
"U@	c #93689D",
"V@	c #A17EAA",
"W@	c #A481AB",
"X@	c #81538D",
"Y@	c #8C6394",
"Z@	c #9A77A2",
"`@	c #836089",
" #	c #A17BA7",
".#	c #885492",
"+#	c #906699",
"@#	c #A887AC",
"##	c #8D6B92",
"                        . + @ @ @ @ @ @ @ @ @ @ @ @ @ + #       ",
"                    $ % & * = = = = = = = = = = = = = * - ; >   ",
"                    , ' * ) ) ) ) ) ) ) ) ) ) ) ) ) ) ) * ' !   ",
"                  ~ { ) ] ] ] ] ] ] ] ] ] ] ] ] ] ] ] ] ] ) ^ / ",
"                  ( _ ] : : : : : : : : : : : : : : : : : ] < [ ",
"                } | 1 2 2 2 2 2 2 2 2 2 2 2 2 2 2 2 2 2 2 2 = 3 ",
"            4 5 6 7 8 9 0 a b c c c c c c c c c c c c c c c = d ",
"            e f g h i j k l m n o p p p p p p p p p p p p p = q ",
"          r s t u v w x y z A B C D E E E E E E E E E E E E = F ",
"        G H I J K K L M N O P Q R C S T T T T T T T T T T T = U ",
"      e V W X Y Z `  ...+.+.@.#.$.%.&.*.*.*.*.*.*.*.*.*.*.*.= =.",
"      -.;.>.,.'.).!.~.{.].P ^./.(._.:.<.[.[.[.[.[.[.[.[.[.[.= }.",
"    |.1.2.3.= = = 4.5.6.7.8.9.0.= = a.b.c.c.c.c.c.c.c.c.c.c.= d.",
"    e.f.g.h.i.j.i.= k.l.m.n.o.p.q.= r.s.t.t.t.t.t.t.t.t.t.t.u.v.",
"    e w.x.y.j.z.j.= A.B.C.D.E.F.G.= H.I.J.K.K.K.K.K.K.K.K.[.L.M.",
"    N.O.P.Q.i.j.i.= R.S.T.U.V.W.X.Y.Z.`.K.K.K.K.K.K.K.K.K.E  +.+",
"    N.++@+#+$+%+&+*+=+-+;+>+,+'+)+!+~+{+c.c.c.c.K.K.c.c.*.) ]+  ",
"    e ^++./+(+_+:+<+C.[+}+|+1+2+3+4+5+6+: : : ] 2 : ] : 7+8+9+  ",
"    0+a+b+].c+d+e+f+g+h+i+j+k+l+m+n+o+p+q+r+s+t+= ) u+v+w+x+    ",
"    0+y+z+A+B+C+D+E+F+F+G+H+I+J+J+K+L+        M+= N+O+          ",
"    0+P+P Q+8.R+S+T+U+F+F+V+J+J+W+X+Y+      Z+`+ @.@            ",
"    +@@@#@P B+$@%@&@*@=@-@;@J+>@,@'@e.      )@!@~@              ",
"    {@]@x ].^@n./@(@_@:@<@[@}@|@1@2@3@                          ",
"    4@5@6@{.7@8@9@0@a@b@c@d@e@f@g@h@Y+                          ",
"  i@j@k@ .k@l@8.m@n@o@p@_@q@r@b@s@t@u@N.                        ",
"  v@w@x@y@+.z+7@z@R+n@A@(@B@z B@(@C@@@D@Y+                      ",
"N.E@F@G@M w k@Q+H@I@J@n@u 0@A@A@K@C.L@M@N@O@e                   ",
"P@Q@R@S@T@O k@U@y J@K@V@W@z a@B@&@u C.X@Y@Z@`@P@                ",
"   #.#                                +#    @###                ",
"                                                                ",
"                                                                ",
"                                                                "};
