/* XPM */
static char *magick[] = {
/* columns rows colors chars-per-pixel */
"19 42 59 1",
"  c #1f2a5d",
". c #33435f",
"X c #364765",
"o c #374968",
"O c #405256",
"+ c #4e5b6e",
"@ c #405757",
"# c #58634c",
"$ c #5f6742",
"% c #606943",
"& c #606944",
"* c #616b45",
"= c #4c574f",
"- c #4f5b56",
"; c #5a6a51",
": c #243c68",
"> c #243e6b",
", c #264171",
"< c #2a4477",
"1 c #294777",
"2 c #254870",
"3 c #274a76",
"4 c #394b6b",
"5 c #3b4f71",
"6 c #3d5072",
"7 c #3d516f",
"8 c #3e5374",
"9 c #42587c",
"0 c #435a7e",
"q c #455b80",
"w c #475d7d",
"e c #485d81",
"r c #475f7d",
"t c #4a6282",
"y c #536179",
"u c #4e6483",
"i c #496481",
"p c #506884",
"a c #546a85",
"s c #566d86",
"d c #587286",
"f c #5b6e83",
"g c #5a7187",
"h c #5e6c83",
"j c #617086",
"k c #5c7388",
"l c #5d7788",
"z c #617b8a",
"x c #657284",
"c c #657385",
"v c #657687",
"b c #6d798a",
"n c #717c8e",
"m c #647e8a",
"M c #657f8b",
"N c #828a92",
"B c #6f7332",
"V c #757527",
"C c gray62",
/* pixels */
"iiiiiiiiiiiiiiiiiii",
"3333333333333333333",
",wjbbbbbbbbbnnbnxr2",
":hMmldssuuuetwr97h:",
":bmkdspueeeq9996ox:",
":bzgsCCCCCCCCC96ox:",
">blsaCCCCCCCCC96ox:",
">xdapCtweee9qC96ox:",
">bauuCeee0009C96Xx>",
">bpteCeee0009C96Xx>",
">bpeeCeq00009C96Xc>",
">buqeC0000099C96Xc>",
">btq0C9909999C96Xc,",
",bt00CCCCCCCCC96Xc,",
",nt999999989898:.c,",
"1nw999989998989y+c1",
"3vNwrrrrrrrrrrrrwf3",
"2rfvvvvvvvvvvvvvfr2",
"3331333331313131131",
"<<<<<<11<,<<<<11<<<",
"                   ",
"tiiiiiiiiiiiiiiiiii",
"3333333333333333333",
",O#*%%%%%%%%****;O,",
">#Mzzkspptttwwe07#:",
":%mkgapueeqqq904o$:",
":%zksVVVVVVVVV98o$:",
">%lsaVVVVVVVVV94o$>",
">$dapVueeqq00V96o$:",
">$suuVeeeq009V96o$:",
">$pteVeeqq000V96X$>",
">$peeVee00909V94X$>",
">&ieeVqq99999V96X$>",
">*tq0V9090999V94X&,",
",*rq9VVVVVVVVV94o*,",
",*w9999899999994.*,",
"1*r999998998989-=*1",
"3;Bwwwrrrrrrwwwwr;3",
"3@;****%%*%%%%%%#@2",
"3313333333333333133",
"<<<<<<<<<<<<<<<<<<<",
"                   "
};
