/* XPM */
static char * minimize_xpm[] = {
"19 42 248 2",
"  	c None",
". 	c #4AA1FE",
"+ 	c #0175FF",
"@ 	c #035CEC",
"# 	c #4D8DF2",
"$ 	c #7DAEF6",
"% 	c #97BFF8",
"& 	c #98BFF8",
"* 	c #98C0F8",
"= 	c #99C0F8",
"- 	c #9AC1F8",
"; 	c #9BC1F8",
"> 	c #9CC1F8",
", 	c #9CC2F8",
"' 	c #9DC2F8",
") 	c #9EC3F8",
"! 	c #9FC3F8",
"~ 	c #7FAEF4",
"{ 	c #4C8DF0",
"] 	c #0156E5",
"^ 	c #7CABF3",
"/ 	c #86DBFF",
"( 	c #80D2FF",
"_ 	c #77C8FF",
": 	c #6DBCFF",
"< 	c #63B2FF",
"[ 	c #5AA9FF",
"} 	c #54A2FF",
"| 	c #4E9DFF",
"1 	c #4B99FF",
"2 	c #4896FF",
"3 	c #4693FD",
"4 	c #4591FB",
"5 	c #4491FA",
"6 	c #3F85ED",
"7 	c #397ADF",
"8 	c #78A8F0",
"9 	c #0053E1",
"0 	c #96BCF4",
"a 	c #82D7FF",
"b 	c #75BFFF",
"c 	c #6DB6FF",
"d 	c #64ACFF",
"e 	c #5BA2FF",
"f 	c #5299FF",
"g 	c #4C92FF",
"h 	c #458DFF",
"i 	c #4289FF",
"j 	c #3F87FE",
"k 	c #3E85FC",
"l 	c #3D83F9",
"m 	c #3D83F8",
"n 	c #3778E4",
"o 	c #326DD0",
"p 	c #8AB5EF",
"q 	c #0653DF",
"r 	c #99BCF4",
"s 	c #7CD0FF",
"t 	c #6FB9FF",
"u 	c #68B1FF",
"v 	c #60A8FF",
"w 	c #579EFF",
"x 	c #5097FF",
"y 	c #4A90FF",
"z 	c #448CFF",
"A 	c #4188FF",
"B 	c #3F86FD",
"C 	c #3C82F8",
"D 	c #326CD0",
"E 	c #8CB5EE",
"F 	c #0051E8",
"G 	c #97BCF7",
"H 	c #73C8FF",
"I 	c #67AFFF",
"J 	c #61A9FF",
"K 	c #5AA2FF",
"L 	c #539BFF",
"M 	c #4D94FF",
"N 	c #488FFF",
"O 	c #448BFF",
"P 	c #3E85FD",
"Q 	c #3D84FA",
"R 	c #3C83F9",
"S 	c #3778E3",
"T 	c #326BCD",
"U 	c #8AB4F1",
"V 	c #0151E4",
"W 	c #98BCF5",
"X 	c #69BEFF",
"Y 	c #5EA6FF",
"Z 	c #59A1FF",
"` 	c #549CFF",
" .	c #4E96FF",
"..	c #4991FF",
"+.	c #428AFF",
"@.	c #4087FF",
"#.	c #3777E3",
"$.	c #8AB4F0",
"%.	c #0153E7",
"&.	c #99BEF6",
"*.	c #60B4FF",
"=.	c #569DFF",
"-.	c #529AFF",
";.	c #4E95FF",
">.	c #4A91FF",
",.	c #468DFF",
"'.	c #438AFF",
").	c #3F86FE",
"!.	c #3E84FB",
"~.	c #3C83F8",
"{.	c #3777E2",
"].	c #316BCC",
"^.	c #8AB5F1",
"/.	c #9ABEF6",
"(.	c #58ACFF",
"_.	c #4C93FF",
":.	c #4990FF",
"<.	c #4087FE",
"[.	c #3D84FB",
"}.	c #316ACC",
"|.	c #0053E9",
"1.	c #9BBEF7",
"2.	c #51A5FF",
"3.	c #468EFF",
"4.	c #458CFF",
"5.	c #4086FE",
"6.	c #3F85FC",
"7.	c #3E85FB",
"8.	c #3C82F7",
"9.	c #3676E1",
"0.	c #8AB5F2",
"a.	c #0055ED",
"b.	c #9BBFF8",
"c.	c #4DA0FF",
"d.	c #3D83FA",
"e.	c #3B82F6",
"f.	c #316ACB",
"g.	c #8AB6F3",
"h.	c #0057F1",
"i.	c #9CC0FA",
"j.	c #499DFF",
"k.	c #4188FE",
"l.	c #4087FD",
"m.	c #FFFFFF",
"n.	c #3B81F6",
"o.	c #3676E0",
"p.	c #8AB6F4",
"q.	c #015AF4",
"r.	c #9DC1FB",
"s.	c #479BFC",
"t.	c #3F86FC",
"u.	c #3F85FB",
"v.	c #3B81F5",
"w.	c #3169CA",
"x.	c #8AB7F5",
"y.	c #035DF9",
"z.	c #9EC3FC",
"A.	c #4699FB",
"B.	c #3C80F3",
"C.	c #3C81F5",
"D.	c #3C80F5",
"E.	c #3C80F4",
"F.	c #3B7FF3",
"G.	c #3B7FF2",
"H.	c #3A7DEF",
"I.	c #3571D6",
"J.	c #2F65BF",
"K.	c #8BB8F7",
"L.	c #0465FF",
"M.	c #9FC6FE",
"N.	c #4698F9",
"O.	c #3B80F3",
"P.	c #3B7FF1",
"Q.	c #3B7EF1",
"R.	c #6996E1",
"S.	c #658ECE",
"T.	c #8BBBF9",
"U.	c #046EFF",
"V.	c #80B6FD",
"W.	c #C5DFFB",
"X.	c #4697F8",
"Y.	c #4697F7",
"Z.	c #4596F7",
"`.	c #4596F6",
" +	c #4596F5",
".+	c #4595F5",
"++	c #4595F4",
"@+	c #4495F4",
"#+	c #72AFF9",
"$+	c #0072F2",
"%+	c #4A9BF4",
"&+	c #77B4F5",
"*+	c #8ABFF5",
"=+	c #70B0F4",
"-+	c #4397F3",
";+	c #006BFF",
">+	c #075AFF",
",+	c #0024CA",
"'+	c #57929D",
")+	c #8EB66A",
"!+	c #ABC94F",
"~+	c #ABC950",
"{+	c #ABC957",
"]+	c #8DB366",
"^+	c #86DBFE",
"/+	c #81D2FE",
"(+	c #78C8FE",
"_+	c #6EBCFE",
":+	c #64B2FE",
"<+	c #5BA9FE",
"[+	c #54A2FE",
"}+	c #4E9DFE",
"|+	c #4B99FE",
"1+	c #4896FE",
"2+	c #4693FC",
"3+	c #4591FA",
"4+	c #4491F9",
"5+	c #3F85EC",
"6+	c #397ADE",
"7+	c #AAC64B",
"8+	c #ACC64A",
"9+	c #AAC54D",
"0+	c #AAC54C",
"a+	c #AAC64D",
"b+	c #AAC64E",
"c+	c #AAC64F",
"d+	c #AAC752",
"e+	c #FEFE00",
"f+	c #AAC750",
"g+	c #AAC853",
"h+	c #AAC851",
"i+	c #ABC95B",
"j+	c #3572D5",
"k+	c #2F65BE",
"l+	c #ABC953",
"m+	c #ABCC5D",
"n+	c #4698F8",
"o+	c #779E8C",
"p+	c #73967B",
"q+	c #ABCC55",
"r+	c #8FBE72",
"s+	c #E2EF1D",
"t+	c #4697F6",
"u+	c #4596F4",
"v+	c #4595F3",
"w+	c #55A1A1",
"x+	c #8DC06C",
"y+	c #AAD051",
". . . . . . . . . . . . . . . . . . . ",
"+ + + + + + + + + + + + + + + + + + + ",
"@ # $ % & * = - - ; > , ' ) ) ! ~ { @ ",
"] ^ / ( _ : < [ } | 1 2 3 4 5 6 7 8 ] ",
"9 0 a b c d e f g h i j k l m n o p 9 ",
"q r s t u v w x y z A B k l C n D E q ",
"F G H I J K L M N O A j P Q R S T U F ",
"V W X Y Z `  ...h +.@.B k R R #.T $.V ",
"%.&.*.=.-.;.>.,.'.A ).k !.R ~.{.].^.%.",
"%./.(.;._.:.,.'.A <.k !.[.~.C {.}.^.%.",
"|.1.2.N 3.4.'.A 5.6.7.[.Q 8.8.9.}.0.|.",
"a.b.c.O '.A <.B k !.Q d.l 8.e.9.f.g.a.",
"h.i.j.k.l.m.m.m.m.m.m.l l n.n.o.f.p.h.",
"q.r.s.t.u.m.m.m.m.m.m.m C n.v.o.w.x.q.",
"y.z.A.B.C.C.D.E.E.E.F.F.G.H.H.I.J.K.y.",
"L.M.N.C.D.E.E.E.O.F.F.G.G.P.Q.R.S.T.L.",
"U.V.W.X.X.X.Y.Y.Z.`.`.`. +.+++++@+#+U.",
"$+%+&+*+*+*+*+*+*+*+*+*+*+*+*+*+=+-+$+",
";+;+;+;+;+;+;+;+;+;+;+;+;+;+;+;+;+;+;+",
">+>+>+>+>+>+>+>+>+>+>+>+>+>+>+>+>+>+>+",
",+,+,+,+,+,+,+,+,+,+,+,+,+,+,+,+,+,+,+",
". . . . . . . . . . . . . . . . . . . ",
"+ + + + + + + + + + + + + + + + + + + ",
"@ '+)+!+!+!+!+!+!+!+!+!+~+~+{+{+)+'+@ ",
"] ]+^+/+(+_+:+<+[+}+|+1+2+3+4+5+6+]+] ",
"9 7+a b c d e f g h i j k l m n o 7+9 ",
"q 8+s t u v w x y z A B k l C n D 8+q ",
"F 9+H I J K L M N O A j P Q R S T 9+F ",
"V 0+X Y Z `  ...h +.@.B k R R #.T 0+V ",
"%.a+*.=.-.;.>.,.'.A ).k !.R ~.{.].a+%.",
"%.a+(.;._.:.,.'.A <.k !.[.~.C {.}.a+%.",
"|.b+2.N 3.4.'.A 5.6.7.[.Q 8.8.9.}.b+|.",
"a.c+c.O '.A <.B k !.Q d.l 8.e.9.f.c+a.",
"h.d+j.k.l.e+e+e+e+e+e+l l n.n.o.f.f+h.",
"q.g+s.t.u.e+e+e+e+e+e+m C n.v.o.w.h+q.",
"y.i+A.B.C.C.D.E.E.E.F.F.G.H.H.j+k+l+y.",
"L.m+n+C.D.E.E.E.O.F.F.G.G.P.Q.o+p+q+L.",
"U.r+s+Y.Y.Y.t+t+`. + + +u+++v+v+v+r+U.",
"$+w+x+y+y+y+y+y+y+y+y+y+y+y+y+y+x+w+$+",
";+;+;+;+;+;+;+;+;+;+;+;+;+;+;+;+;+;+;+",
">+>+>+>+>+>+>+>+>+>+>+>+>+>+>+>+>+>+>+",
",+,+,+,+,+,+,+,+,+,+,+,+,+,+,+,+,+,+,+"};
