/* XPM */
static char *frameATL[] = {
/* columns rows colors chars-per-pixel */
"23 23 3 1",
"  c black",
". c #D4D0C8",
"X c gray100",
/* pixels */
".......................",
".XXXXXXXXXXXXXXXXXXXXXX",
".X.....................",
".X.....................",
".X..                   ",
".X..                   ",
".X..                   ",
".X..                   ",
".X..                   ",
".X..                   ",
".X..                   ",
".X..                   ",
".X..                   ",
".X..                   ",
".X..                   ",
".X..                   ",
".X..                   ",
".X..                   ",
".X..                   ",
".X..                   ",
".X..                   ",
".X..                   ",
".X..                   "
};
